<?xml version="1.0" encoding="UTF-8" standalone="no"?>
<!-- Created with Inkscape (http://www.inkscape.org/) -->

<svg
   xmlns:dc="http://purl.org/dc/elements/1.1/"
   xmlns:cc="http://creativecommons.org/ns#"
   xmlns:rdf="http://www.w3.org/1999/02/22-rdf-syntax-ns#"
   xmlns:svg="http://www.w3.org/2000/svg"
   xmlns="http://www.w3.org/2000/svg"
   xmlns:sodipodi="http://sodipodi.sourceforge.net/DTD/sodipodi-0.dtd"
   xmlns:inkscape="http://www.inkscape.org/namespaces/inkscape"
   id="svg9847"
   version="1.1"
   inkscape:version="0.91 r13725"
   xml:space="preserve"
   width="12.5"
   height="11"
   viewBox="0 0 12.5 11"
   sodipodi:docname="headline.svg"><metadata
     id="metadata9853"><rdf:RDF><cc:Work
         rdf:about=""><dc:format>image/svg+xml</dc:format><dc:type
           rdf:resource="http://purl.org/dc/dcmitype/StillImage" /><dc:title></dc:title></cc:Work></rdf:RDF></metadata><defs
     id="defs9851"><clipPath
       clipPathUnits="userSpaceOnUse"
       id="clipPath9861"><path
         d="m 0,2400 2400,0 L 2400,0 0,0 0,2400 Z"
         id="path9863"
         inkscape:connector-curvature="0" /></clipPath><clipPath
       clipPathUnits="userSpaceOnUse"
       id="clipPath9873"><path
         d="m 467.786,1852.27 431.332,0 0,-381.94 -431.332,0 0,381.94 z"
         id="path9875"
         inkscape:connector-curvature="0" /></clipPath><clipPath
       clipPathUnits="userSpaceOnUse"
       id="clipPath9897"><path
         d="m 1057.51,1841.32 393.15,0 0,-370.86 -393.15,0 0,370.86 z"
         id="path9899"
         inkscape:connector-curvature="0" /></clipPath><clipPath
       clipPathUnits="userSpaceOnUse"
       id="clipPath9921"><path
         d="m 1605.96,1847.93 394.18,0 0,-374.4 -394.18,0 0,374.4 z"
         id="path9923"
         inkscape:connector-curvature="0" /></clipPath><clipPath
       clipPathUnits="userSpaceOnUse"
       id="clipPath9945"><path
         d="m 518.408,1255.45 374.161,0 0,-298.887 -374.161,0 0,298.887 z"
         id="path9947"
         inkscape:connector-curvature="0" /></clipPath><clipPath
       clipPathUnits="userSpaceOnUse"
       id="clipPath9969"><path
         d="m 1082.36,1251.59 359.3,0 0,-286.364 -359.3,0 0,286.364 z"
         id="path9971"
         inkscape:connector-curvature="0" /></clipPath><clipPath
       clipPathUnits="userSpaceOnUse"
       id="clipPath9993"><path
         d="m 530.006,849.336 363.714,0 0,-419.666 -363.714,0 0,419.666 z"
         id="path9995"
         inkscape:connector-curvature="0" /></clipPath><clipPath
       clipPathUnits="userSpaceOnUse"
       id="clipPath10021"><path
         d="m 1622.45,831.738 377.13,0 0,-401.443 -377.13,0 0,401.443 z"
         id="path10023"
         inkscape:connector-curvature="0" /></clipPath><clipPath
       clipPathUnits="userSpaceOnUse"
       id="clipPath10045"><path
         d="m 1560.32,1238.31 435.19,0 0,-288.309 -435.19,0 0,288.309 z"
         id="path10047"
         inkscape:connector-curvature="0" /></clipPath><clipPath
       clipPathUnits="userSpaceOnUse"
       id="clipPath10071"><path
         d="m 0,2400 2400,0 L 2400,0 0,0 0,2400 Z"
         id="path10073"
         inkscape:connector-curvature="0" /></clipPath><clipPath
       clipPathUnits="userSpaceOnUse"
       id="clipPath10083"><path
         d="m 1080.83,795.605 359.67,0 0,-362.232 -359.67,0 0,362.232 z"
         id="path10085"
         inkscape:connector-curvature="0" /></clipPath></defs><sodipodi:namedview
     pagecolor="#ffffff"
     bordercolor="#666666"
     borderopacity="1"
     objecttolerance="10"
     gridtolerance="10"
     guidetolerance="10"
     inkscape:pageopacity="0"
     inkscape:pageshadow="2"
     inkscape:window-width="1366"
     inkscape:window-height="666"
     id="namedview9849"
     showgrid="false"
     inkscape:zoom="7.1200939"
     inkscape:cx="48.771873"
     inkscape:cy="12.590012"
     inkscape:window-x="0"
     inkscape:window-y="0"
     inkscape:window-maximized="1"
     inkscape:current-layer="g9855" /><g
     id="g9855"
     inkscape:groupmode="layer"
     inkscape:label="flat pet icons"
     transform="matrix(1.25,0,0,-1.25,0,11)"><path
       d="m 3.1296963,4.2791 c -0.2848721,0 -0.5159969,-0.2344 -0.5159969,-0.5237 0,-0.2892 0.2311248,-0.5236 0.5159969,-0.5237 0.2849857,0 0.5159969,0.2345 0.5159969,0.5237 0,0.2893 -0.2310112,0.5237 -0.5159969,0.5237 M 8.5747641,6.6305 C 8.5588561,6.5047 8.5406751,6.3808 8.5213581,6.2624 8.3544346,6.4922 8.1608079,6.7094 7.9415007,6.9105 7.5993588,7.2246 7.2105146,7.4819 6.7961036,7.6747 6.908598,7.7157 7.0262058,7.7567 7.146427,7.7974 8.177398,8.1435 8.5086314,8.1141 8.585673,8.0971 8.618626,8.0261 8.7155529,7.7093 8.57431,6.6305 m -3.3658539,-5.9292 0,0.6932 c 0.2703273,0.122 0.7067827,0.3578 0.7067827,0.6088 0,0.1677 -0.4102066,0.3646 -0.9162041,0.3646 -0.5059973,0 -0.9160904,-0.1969 -0.9160904,-0.3646 0,-0.251 0.4363418,-0.4868 0.7067828,-0.6088 l 0,-0.6933 c -1.8166135,0.1092 -3.3671039,1.623 -3.3669903,3.3401 0,1.7828 1.6711662,3.3465 3.5762979,3.3465 1.9052454,0 3.5764117,-1.5637 3.5762981,-3.3465 0,-1.7171 -1.5503769,-3.2309 -3.3668767,-3.34 M 1.4127369,8.0972 C 1.4900049,8.1142 1.8203302,8.1432 2.8478923,7.7987 2.9693634,7.7577 3.088562,7.7157 3.2021926,7.6747 2.7877815,7.4819 2.3989375,7.2246 2.0567955,6.9106 1.837602,6.7094 1.6439753,6.4921 1.4770518,6.2624 1.4588708,6.3793 1.4406898,6.5017 1.4247818,6.626 1.2829708,7.7085 1.3804658,8.0261 1.4134188,8.0972 M 9.6800496,2.1994 8.7991848,2.2584 c 0.3013486,0.5521 0.460886,1.1587 0.460886,1.7829 0,0.4286 -0.074996,0.8489 -0.2199889,1.2491 0.047725,0.2308 0.1539695,0.7683 0.2246478,1.3408 C 9.4466523,8.1063 9.2317767,8.4839 8.9979248,8.6586 8.7779359,8.8229 8.3690928,8.9301 7.0038203,8.4803 6.4599839,8.3012 5.9596681,8.0975 5.7528603,8.011 5.5035547,8.058 5.2512946,8.082 4.9997162,8.082 4.7482516,8.082 4.4959915,8.058 4.2465723,8.011 4.0397644,8.098 3.5394486,8.3013 2.9956122,8.4804 1.6303398,8.9301 1.2214966,8.8229 1.0016212,8.6587 0.76754204,8.4839 0.55289371,8.1064 0.73481642,6.6313 0.80526742,6.0588 0.91128485,5.5213 0.95935061,5.2905 0.81469877,4.8904 0.73947528,4.47 0.73947528,4.0414 c 0,-0.6242 0.15942382,-1.2308 0.46077242,-1.7829 L 0.3193827,2.1995 C 0.13098305,2.1865 -0.01173707,2.0216 7.6231046e-4,1.8303 0.01212538,1.7107 0.07462225,1.6092 0.17007201,1.5531 0.22688731,1.5191 0.29392943,1.5021 0.36449408,1.5071 L 1.6549976,1.5931 C 1.7254486,1.5091 1.7998767,1.4264 1.8780545,1.3464 L 0.94082881,0.7048 C 0.78424576,0.5976 0.74288419,0.3818 0.84878801,0.223 0.91469381,0.123 1.0226429,0.0699 1.1325237,0.0699 c 0.065906,0 0.1322662,0.019 0.1908996,0.059 L 2.415414,0.8764 C 3.1709443,0.3154 4.0904437,0 4.9999435,0 5.9094434,0 6.8290563,0.3154 7.5844731,0.8764 L 8.6764637,0.1289 c 0.059088,-0.04 0.1251074,-0.059 0.1908995,-0.059 0.1102218,0 0.2177164,0.054 0.2838495,0.153 0.1056764,0.159 0.064769,0.3747 -0.092041,0.4819 l -0.937339,0.6416 c 0.078406,0.08 0.152606,0.1624 0.223057,0.2467 l 1.2906174,-0.086 c 0.070446,0 0.1374934,0.013 0.1943082,0.046 0.095454,0.056 0.1615827,0.1576 0.1694235,0.2772 0.012499,0.1913 -0.1303343,0.3566 -0.3187342,0.3692 m -2.810541,2.0797 c -0.284872,0 -0.5159968,-0.2344 -0.5158831,-0.5237 0,-0.2892 0.2310111,-0.5237 0.5158831,-0.5237 0.2850994,0 0.5159969,0.2345 0.5159969,0.5237 0,0.2893 -0.2308975,0.5237 -0.5159969,0.5237"
       style="fill:#f89f21;fill-opacity:1;fill-rule:nonzero;stroke:none"
       id="path10280"
       inkscape:connector-curvature="0" /></g></svg>