<?xml version="1.0" encoding="UTF-8" standalone="no"?>
<svg
   xmlns:dc="http://purl.org/dc/elements/1.1/"
   xmlns:cc="http://creativecommons.org/ns#"
   xmlns:rdf="http://www.w3.org/1999/02/22-rdf-syntax-ns#"
   xmlns:svg="http://www.w3.org/2000/svg"
   xmlns="http://www.w3.org/2000/svg"
   xmlns:sodipodi="http://sodipodi.sourceforge.net/DTD/sodipodi-0.dtd"
   xmlns:inkscape="http://www.inkscape.org/namespaces/inkscape"
   viewBox="0 0 684.00002 400"
   height="400"
   width="684"
   xml:space="preserve"
   id="svg2"
   version="1.1"
   inkscape:version="0.48.0 r9654"
   sodipodi:docname="cat.svg"><sodipodi:namedview
     pagecolor="#ffffff"
     bordercolor="#666666"
     borderopacity="1"
     objecttolerance="10"
     gridtolerance="10"
     guidetolerance="10"
     inkscape:pageopacity="0"
     inkscape:pageshadow="2"
     inkscape:window-width="1680"
     inkscape:window-height="975"
     id="namedview4304"
     showgrid="false"
     inkscape:zoom="0.32091769"
     inkscape:cx="600.20125"
     inkscape:cy="517.1166"
     inkscape:window-x="-9"
     inkscape:window-y="-9"
     inkscape:window-maximized="1"
     inkscape:current-layer="svg2" /><metadata
     id="metadata8"><rdf:RDF><cc:Work
         rdf:about=""><dc:format>image/svg+xml</dc:format><dc:type
           rdf:resource="http://purl.org/dc/dcmitype/StillImage" /><dc:title></dc:title></cc:Work></rdf:RDF></metadata><defs
     id="defs6" /><g
     id="g6628"
     transform="translate(-88.92388,-303.34898)"><path
       id="path5295"
       d="m 900.54245,814.86438 c 0,108.85037 -88.24066,197.09102 -197.09103,197.09102 -108.85038,0 -197.09104,-88.24065 -197.09104,-197.09102 0,-108.85037 88.24066,-197.09103 197.09104,-197.09103 108.85037,0 197.09103,88.24066 197.09103,197.09103 z"
       style="fill:#656263;fill-opacity:1;stroke:#656263;stroke-width:6;stroke-miterlimit:4;stroke-opacity:1"
       transform="translate(-414.4365,-311.60641)"
       inkscape:connector-curvature="0" /><path
       inkscape:connector-curvature="0"
       id="path6542"
       d="m 289.01533,306.17817 c -108.8503,0 -197.093697,88.24338 -197.093697,197.09375 0,32.28013 7.77447,62.73376 21.531247,89.625 8.62199,1.80178 16.78358,3.76276 23.8125,5.65625 5.6134,-5.32164 21.4414,-19.4163 31.6875,-19.375 1.06,0.004 2.04595,0.13603 2.96875,0.46875 8.9692,3.23389 -0.5519,27.27197 -5.8125,38.9375 3.87401,10.08557 8.60536,26.17033 12.125,47.6875 31.5724,21.49793 69.7043,34.0625 110.7812,34.0625 108.8504,0 197.0938,-88.21213 197.0938,-197.0625 0,-108.85037 -88.2434,-197.09375 -197.0938,-197.09375 z"
       style="fill:#fbbf58;fill-opacity:1;fill-rule:nonzero;stroke:none" /><path
       inkscape:connector-curvature="0"
       id="path5901"
       d="m 164.51538,588.83442 c -5.5244,0.19339 -17.40625,13.65625 -17.40625,13.65625 -0.3966,2.92183 11.67025,10.49132 13.15625,8.3125 1.4396,-2.11072 9.49785,-20.04247 5.21875,-21.8125 -0.1381,-0.0571 -0.2732,-0.13395 -0.4375,-0.15625 -0.1644,-0.0223 -0.35305,-0.006 -0.53125,0 z"
       style="fill:#fbbf58;fill-opacity:1;fill-rule:nonzero;stroke:none" /><g
       id="text6544"
       style="font-size:73.38443756px;font-style:normal;font-variant:normal;font-weight:normal;font-stretch:normal;text-align:start;line-height:125%;letter-spacing:0px;word-spacing:0px;writing-mode:lr-tb;text-anchor:start;fill:#656263;fill-opacity:1;stroke:none;font-family:FZCuQian-M17S;-inkscape-font-specification:FZCuQian-M17S"><path
         id="path6623"
         d="m 299.37796,525.16033 -9.74637,0 0,-40.41877 9.74637,0 0,4.87319 c 0.38217,-3.43987 2.77098,-5.06426 7.16645,-4.87319 l 12.8996,0 c 6.49752,-0.38218 9.5552,2.67551 9.17306,9.17306 l 0,22.35932 c 0.38214,6.30647 -2.57999,9.2686 -8.8864,8.88639 l -14.61955,0 c -3.43994,0 -5.35099,-1.8155 -5.73316,-5.4465 z m -26.37253,-2.57992 -9.74638,0 0,-60.77149 9.74638,0 0,2.57993 c 0.7644,-1.33769 2.19769,-2.10211 4.29986,-2.29327 l 3.4399,0 c 4.01319,-0.38215 5.92424,2.10221 5.73316,7.45311 l 0,45.57861 c 0.19108,5.15985 -1.71997,7.64421 -5.73316,7.45311 l -2.29326,0 c -3.0577,0 -4.8732,-0.95553 -5.4465,-2.86658 z m 32.39234,-40.99209 -10.60634,0 0,-9.74637 -7.45311,0 0,-2.86658 7.45311,0 0,-10.03303 10.60634,0 0,10.03303 6.8798,0 0,-10.03303 10.893,0 0,10.03303 7.45311,0 0,2.86658 -7.45311,0 0,9.74637 -10.893,0 0,-9.74637 -6.8798,0 z m -32.39234,-14.61955 0,50.4518 c 0.38219,1.52884 1.14661,2.29326 2.29326,2.29326 0.95551,0.19111 1.43327,-1.14663 1.43329,-4.01321 l 0,-46.72525 c -2e-5,-2.48431 -0.57333,-3.82205 -1.71995,-4.01321 -0.95554,5e-5 -1.62441,0.66892 -2.0066,2.00661 z m 30.6724,55.03833 0.28665,0 0,-16.33951 -4.58652,0 0,12.89961 c 0.95548,2.29326 2.38877,3.43989 4.29987,3.4399 z m 14.90621,-5.15985 0,-11.17966 -4.87318,0 0,16.33951 c 2.86652,-0.38222 4.49091,-2.10216 4.87318,-5.15985 z m -19.20608,-26.08587 0,12.32629 4.58652,0 0,-15.47953 -0.28665,0 c -2.1022,3e-5 -3.53549,1.05111 -4.29987,3.15324 z m 14.61955,-3.15324 -0.28665,0 0,15.47953 4.87318,0 0,-9.74637 c -6e-5,-3.82208 -1.5289,-5.73313 -4.58653,-5.73316 z"
         inkscape:connector-curvature="0" /><path
         id="path6625"
         d="m 356.42289,507.38754 -2.57992,-5.4465 c 1.91103,-3.82209 4.77761,-5.82869 8.59974,-6.01982 1.52881,2e-5 4.01318,0.76444 7.45311,2.29326 0.19106,0.19113 0.66883,0.47779 1.43329,0.85998 2.67543,1.33775 4.49093,1.91107 5.4465,1.71995 2.10211,0.19112 4.10871,-1.52883 6.01981,-5.15985 l 2.57993,5.4465 c -2.67553,4.20433 -5.54211,6.21094 -8.59974,6.01982 -1.71999,10e-6 -3.82215,-0.5733 -6.30648,-1.71995 -0.38225,-0.19109 -0.57335,-0.38219 -0.57331,-0.57331 -3.05772,-1.52883 -5.63764,-2.29325 -7.73977,-2.29327 -2.86661,0.19113 -4.77766,1.81552 -5.73316,4.87319 z"
         inkscape:connector-curvature="0" /></g></g><g
     style="font-size:85.61386871px;font-style:normal;font-variant:normal;font-weight:bold;font-stretch:normal;text-align:start;line-height:125%;letter-spacing:0px;word-spacing:0px;writing-mode:lr-tb;text-anchor:start;fill:#656263;fill-opacity:1;stroke:none;font-family:Berlin Sans FB Demi;-inkscape-font-specification:Berlin Sans FB Demi Bold"
     id="text6618"
     transform="translate(-88.92388,-310.14209)"><path
       d="m 620.51667,514.46136 c -4e-5,5.65744 -2.38284,10.50666 -7.14843,14.54767 -4.18038,3.56725 -9.26649,5.83858 -15.25833,6.814 -0.22296,0.0279 -0.40411,0.0418 -0.54344,0.0418 -0.641,0 -2.06233,-1.9578 -4.26398,-5.87341 C 591.10083,526.07582 590,523.68604 590,522.82209 c 0,-0.30655 0.20902,-0.50163 0.62706,-0.58525 4.04101,-0.91967 6.71644,-1.7 8.0263,-2.341 2.89837,-1.44918 4.34756,-3.5951 4.34758,-6.43777 -2e-5,-1.81146 -0.94756,-3.83197 -2.84265,-6.06152 -3.28856,-3.79017 -5.07218,-5.89429 -5.35087,-6.31235 -1.92297,-2.89836 -2.88445,-6.1033 -2.88445,-9.61484 0,-5.1 2.35494,-9.3361 7.06482,-12.70831 3.84592,-2.78685 8.56973,-4.59834 14.17144,-5.43448 0.30653,-0.0278 0.54342,-0.0417 0.71066,-0.0418 0.41801,6e-5 0.75244,0.33449 1.00328,1.00329 0.72457,2.0345 2.41065,5.71322 5.05825,11.03616 0.0836,0.16726 0.12538,0.30661 0.12541,0.41804 -3e-5,0.47382 -0.25086,0.71071 -0.75247,0.71066 -0.22298,5e-5 -0.59921,-0.0418 -1.1287,-0.12541 -0.52954,-0.0836 -0.93364,-0.12537 -1.2123,-0.12541 -2.0066,4e-5 -3.76236,0.45988 -5.26726,1.37952 -1.81152,1.05907 -2.71726,2.53613 -2.71724,4.43118 -2e-5,1.70006 1.00327,3.79024 3.00986,6.27055 3.53935,4.45909 5.39264,6.80009 5.55989,7.02301 1.97867,3.06563 2.96802,6.11729 2.96806,9.155 z"
       id="path6639"
       inkscape:connector-curvature="0" /><path
       d="m 655.13009,521.44257 c -3e-5,0.83609 -0.10454,2.10413 -0.31353,3.80413 -0.20905,1.70003 -0.31356,2.94717 -0.31353,3.74143 -3e-5,0.79427 -0.0836,1.30288 -0.25082,1.52583 -0.16724,0.22296 -0.62708,0.54345 -1.37952,0.96149 -3.59514,1.9787 -7.58042,2.96805 -11.95584,2.96806 -8.05418,-10e-6 -12.08126,-3.07954 -12.08126,-9.23861 0,-1.83935 0.0697,-4.60536 0.20902,-8.29802 0.13934,-3.69264 0.20901,-6.45864 0.20902,-8.29803 -1e-5,-1.22621 -0.71067,-1.83933 -2.13199,-1.83936 -0.11148,3e-5 -0.29262,3e-5 -0.54344,0 -0.25083,0.0279 -0.43198,0.0418 -0.54345,0.0418 -1.05903,2e-5 -1.58854,-0.37621 -1.58854,-1.1287 0,-0.44588 0.0348,-1.12867 0.10451,-2.04838 0.0697,-0.91965 0.10451,-1.60244 0.10451,-2.04838 0,-0.58522 -0.0348,-1.47703 -0.10451,-2.67543 -0.0697,-1.19834 -0.10451,-2.09015 -0.10451,-2.67544 0,-0.55734 0.89181,-0.8639 2.67543,-0.91968 1.00329,-0.0278 1.54673,-0.30652 1.63035,-0.83607 0.16721,-1.05899 0.22294,-2.73113 0.16721,-5.01644 -0.11148,-3.59506 -0.16722,-5.30901 -0.16721,-5.14185 -10e-6,-3.23276 0.30655,-4.84917 0.91968,-4.84922 0.75246,5e-5 1.82541,0.16727 3.21888,0.50164 1.58853,0.36236 2.68935,0.57137 3.30249,0.62706 1.42131,0.19514 3.56722,0.45989 6.43776,0.79427 0.6967,0.0558 1.04507,0.29268 1.04509,0.71066 -2e-5,1.11481 -0.0906,2.80089 -0.27173,5.05824 -0.18116,2.25744 -0.27174,3.95746 -0.27172,5.10005 -2e-5,1.36562 0.40408,2.04841 1.21231,2.04837 0.97539,4e-5 2.45245,-0.0418 4.43118,-0.12541 1.97868,-0.0836 3.46968,-0.12537 4.47299,-0.12541 0.61309,4e-5 0.91965,0.20906 0.91968,0.62706 -3e-5,0.64103 -0.0697,1.60251 -0.20901,2.88445 -0.13938,1.28201 -0.20905,2.2435 -0.20902,2.88445 -3e-5,0.66889 0.0139,1.64431 0.0418,2.92626 0.0278,1.282 0.0418,2.25742 0.0418,2.92625 -3e-5,0.58528 -0.40413,0.8779 -1.2123,0.87788 -0.55741,2e-5 -1.49103,-0.0209 -2.80085,-0.0627 -1.30987,-0.0418 -2.24348,-0.0627 -2.80084,-0.0627 l -3.13527,0 c -0.41806,2e-5 -0.62708,0.61314 -0.62706,1.83936 -2e-5,0.66888 -2e-5,1.65823 0,2.96806 0.0279,1.33773 0.0418,2.32709 0.0418,2.96806 -2e-5,2.34102 0.26473,3.95742 0.79426,4.84922 0.75245,1.19838 2.22951,1.79757 4.43119,1.79756 0.6967,10e-6 1.69302,-0.16024 2.98896,-0.48075 1.29589,-0.32048 2.2086,-0.48073 2.73814,-0.48074 0.58522,1e-5 0.87785,0.30657 0.87788,0.91968 z"
       id="path6641"
       inkscape:connector-curvature="0" /><path
       d="m 697.89522,510.99166 c -4e-5,2.8148 -0.90579,4.41727 -2.71724,4.80742 -0.3066,0.0558 -3.19105,0.36231 -8.65335,0.91968 -3.28859,0.36231 -8.19354,0.79428 -14.71489,1.29591 0.39015,1.81151 1.57459,3.19103 3.55331,4.13856 1.61639,0.78035 3.45575,1.17052 5.51808,1.17051 2.48033,10e-6 4.97461,-0.66885 7.48286,-2.00658 1.05899,-0.66884 2.11801,-1.3377 3.17707,-2.00657 0.58522,0.2787 1.5676,1.70002 2.94716,4.26397 1.37948,2.56396 2.06924,4.1943 2.06928,4.89102 -4e-5,0.19509 -0.20906,0.51559 -0.62705,0.96149 -3.40007,3.65085 -8.68126,5.47627 -15.84359,5.47628 -6.63286,-1e-5 -11.98372,-1.93691 -16.0526,-5.81071 -4.18037,-3.92954 -6.27055,-9.18286 -6.27054,-15.75998 -1e-5,-6.40986 1.86722,-11.66318 5.60168,-15.75997 3.84593,-4.23606 8.94597,-6.35411 15.30014,-6.35416 5.35084,5e-5 9.8935,1.95088 13.62799,5.85252 3.73442,3.9017 5.60165,8.5419 5.60169,13.92061 z m -14.63128,-2.55002 c -3e-5,-1.72786 -0.61315,-3.24672 -1.83936,-4.5566 -1.22626,-1.30982 -2.68939,-1.96474 -4.38938,-1.96477 -1.75578,3e-5 -3.20497,0.73856 -4.34758,2.21559 -1.05904,1.36562 -1.58856,2.96809 -1.58854,4.80742 -2e-5,0.75249 0.39015,1.12872 1.1705,1.1287 2.0623,2e-5 5.26724,-0.32047 9.61484,-0.96148 0.91965,-0.13933 1.37949,-0.36228 1.37952,-0.66886 z"
       id="path6643"
       inkscape:connector-curvature="0" /><path
       d="m 748.68664,513.58349 c -5e-5,5.964 -1.7558,10.91076 -5.26726,14.84029 -3.62302,4.06889 -8.3747,6.10333 -14.25504,6.10333 -2.14595,0 -4.44515,-0.52951 -6.8976,-1.58854 -2.4525,-1.05902 -3.56727,-1.58853 -3.34429,-1.58853 -0.36232,0 -0.54347,0.41803 -0.54345,1.25411 -2e-5,1.42132 0.0697,3.56027 0.20902,6.41686 0.13932,2.85657 0.209,4.99552 0.20902,6.41685 -2e-5,0.8918 -0.45986,1.33771 -1.37952,1.33772 l -8.52795,0.0418 c -1.92297,-2e-5 -3.16315,-0.0697 -3.72052,-0.20902 -0.83608,-0.1951 -1.25412,-0.71068 -1.25411,-1.54674 l 0.0836,-32.18881 c 0,-6.49347 -0.48771,-11.96974 -1.46312,-16.42883 -0.0557,-0.27865 -0.0836,-0.51554 -0.0836,-0.71066 0,-0.418 0.16721,-0.69669 0.50164,-0.83607 1.08689,-0.418 3.16314,-0.86391 6.22875,-1.33772 2.98198,-0.47373 5.14183,-0.71062 6.47956,-0.71066 1.08688,4e-5 1.70697,0.71767 1.86026,2.15288 0.15327,1.4353 0.34138,2.15293 0.56435,2.15289 -0.27871,4e-5 0.9127,-0.75939 3.57422,-2.2783 2.66147,-1.51882 5.07911,-2.27825 7.25293,-2.27829 6.04756,4e-5 10.88284,1.99267 14.50586,5.97792 3.51146,3.84596 5.26721,8.84846 5.26726,15.00751 z m -15.50915,-0.0836 c -3e-5,-2.22951 -0.68283,-4.18034 -2.04838,-5.85251 -1.47709,-1.75573 -3.30252,-2.6336 -5.47628,-2.63363 -2.22955,3e-5 -4.01317,0.8779 -5.35086,2.63363 -1.17053,1.58856 -1.75578,3.5394 -1.75576,5.85251 -2e-5,2.36889 0.6131,4.33366 1.83936,5.89431 1.30983,1.70003 3.12132,2.55004 5.43448,2.55003 4.90493,1e-5 7.35741,-2.81477 7.35744,-8.44434 z"
       id="path6645"
       inkscape:connector-curvature="0" /><path
       d="m 773.22538,531.55905 c -2e-5,0.52952 -0.23691,1.01723 -0.71066,1.46313 -0.4738,0.44591 -0.98937,0.66886 -1.54674,0.66886 -1.33773,0 -3.3443,0.0139 -6.01972,0.0418 -2.67545,0.0279 -4.68202,0.0418 -6.01973,0.0418 -1.03116,0 -1.5328,-0.44591 -1.50493,-1.33772 l 0.0418,-0.45984 c 0.39016,-10.64598 0.58524,-17.09767 0.58525,-19.35509 l 0,-12.41568 c -10e-6,-0.7803 -0.18116,-1.17047 -0.54345,-1.1705 -0.55739,3e-5 -1.40043,0.16725 -2.52912,0.50164 -1.1287,0.33446 -1.98568,0.50168 -2.57092,0.50164 -0.86395,4e-5 -1.29592,-0.51554 -1.29592,-1.54673 0,-0.94751 -0.0139,-2.36884 -0.0418,-4.26397 -0.0279,-1.89506 -0.0418,-3.33032 -0.0418,-4.30578 0,-0.55734 0.34837,-0.97537 1.0451,-1.25411 4.09675,-1.69997 7.31563,-3.98523 9.65664,-6.8558 0.47376,-0.58519 0.87786,-0.87782 1.2123,-0.87787 0.0557,5e-5 0.22294,0.0279 0.50165,0.0836 1.05901,0.223 2.63361,0.57136 4.72381,1.04509 1.11475,0.13939 2.74509,0.39021 4.89103,0.75246 0.39014,0.11153 0.58522,0.41809 0.58525,0.91968 -3e-5,0.16727 -0.0279,0.45989 -0.0836,0.87788 -0.30658,2.45253 -0.45986,8.45831 -0.45984,18.01737 -2e-5,3.20497 0.0209,8.02632 0.0627,14.46406 0.0418,6.43777 0.0627,11.25912 0.0627,14.46406 z"
       id="path6647"
       inkscape:connector-curvature="0" /></g></svg>