<?xml version="1.0" encoding="UTF-8" standalone="no"?>
<!-- Created with Inkscape (http://www.inkscape.org/) -->

<svg
   xmlns:dc="http://purl.org/dc/elements/1.1/"
   xmlns:cc="http://creativecommons.org/ns#"
   xmlns:rdf="http://www.w3.org/1999/02/22-rdf-syntax-ns#"
   xmlns:svg="http://www.w3.org/2000/svg"
   xmlns="http://www.w3.org/2000/svg"
   xmlns:sodipodi="http://sodipodi.sourceforge.net/DTD/sodipodi-0.dtd"
   xmlns:inkscape="http://www.inkscape.org/namespaces/inkscape"
   id="svg2985"
   version="1.1"
   inkscape:version="0.48.0 r9654"
   width="800"
   height="200"
   xml:space="preserve"
   sodipodi:docname="step2bak.svg"><metadata
     id="metadata2991"><rdf:RDF><cc:Work
         rdf:about=""><dc:format>image/svg+xml</dc:format><dc:type
           rdf:resource="http://purl.org/dc/dcmitype/StillImage" /><dc:title></dc:title></cc:Work></rdf:RDF></metadata><defs
     id="defs2989"><linearGradient
   x1="0"
   y1="0"
   x2="1"
   y2="0"
   gradientUnits="userSpaceOnUse"
   gradientTransform="matrix(-1.53e-5,-493.4751,-493.4751,1.53e-5,329.23291,493.47461)"
   spreadMethod="pad"
   id="linearGradient3007"><stop
     style="stop-opacity:1;stop-color:#d8d8d8"
     offset="0"
     id="stop3009" /><stop
     style="stop-opacity:1;stop-color:#464646"
     offset="1"
     id="stop3011" /></linearGradient><clipPath
   clipPathUnits="userSpaceOnUse"
   id="clipPath3019"><path
     d="m 0,493.475 658.467,0 L 658.467,0 0,0 0,493.475 z"
     id="path3021"
     inkscape:connector-curvature="0" /></clipPath><clipPath
   clipPathUnits="userSpaceOnUse"
   id="clipPath3317"><path
     d="m 0,493.475 658.467,0 L 658.467,0 0,0 0,493.475 z"
     id="path3319"
     inkscape:connector-curvature="0" /></clipPath><clipPath
   clipPathUnits="userSpaceOnUse"
   id="clipPath3325"><path
     d="m 405.367,348.229 232.804,0 0,-202.984 -232.804,0 0,202.984 z"
     id="path3327"
     inkscape:connector-curvature="0" /></clipPath><clipPath
   clipPathUnits="userSpaceOnUse"
   id="clipPath3329"><path
     d="m 405.367,348.229 232.804,0 0,-202.984 -232.804,0 0,202.984 z"
     id="path3331"
     inkscape:connector-curvature="0" /></clipPath><clipPath
   clipPathUnits="userSpaceOnUse"
   id="clipPath3333"><path
     d="m 406.193,347.403 231.005,0 0,-201.331 -231.005,0 0,201.331 z"
     id="path3335"
     inkscape:connector-curvature="0" /></clipPath><clipPath
   clipPathUnits="userSpaceOnUse"
   id="clipPath3337"><path
     d="m 407.019,346.577 229.206,0 0,-199.68 -229.206,0 0,199.68 z"
     id="path3339"
     inkscape:connector-curvature="0" /></clipPath><clipPath
   clipPathUnits="userSpaceOnUse"
   id="clipPath3341"><path
     d="m 407.844,345.751 227.406,0 0,-198.027 -227.406,0 0,198.027 z"
     id="path3343"
     inkscape:connector-curvature="0" /></clipPath><clipPath
   clipPathUnits="userSpaceOnUse"
   id="clipPath3345"><path
     d="m 408.67,344.925 225.607,0 0,-196.376 -225.607,0 0,196.376 z"
     id="path3347"
     inkscape:connector-curvature="0" /></clipPath><clipPath
   clipPathUnits="userSpaceOnUse"
   id="clipPath3349"><path
     d="m 409.496,344.099 223.807,0 0,-194.724 -223.807,0 0,194.724 z"
     id="path3351"
     inkscape:connector-curvature="0" /></clipPath><clipPath
   clipPathUnits="userSpaceOnUse"
   id="clipPath3353"><path
     d="m 410.322,343.273 222.007,0 0,-193.072 -222.007,0 0,193.072 z"
     id="path3355"
     inkscape:connector-curvature="0" /></clipPath><clipPath
   clipPathUnits="userSpaceOnUse"
   id="clipPath3357"><path
     d="m 411.148,342.448 220.207,0 0,-191.422 -220.207,0 0,191.422 z"
     id="path3359"
     inkscape:connector-curvature="0" /></clipPath><clipPath
   clipPathUnits="userSpaceOnUse"
   id="clipPath3487"><path
     d="m 212.831,348.229 232.805,0 0,-202.984 -232.805,0 0,202.984 z"
     id="path3489"
     inkscape:connector-curvature="0" /></clipPath><clipPath
   clipPathUnits="userSpaceOnUse"
   id="clipPath3491"><path
     d="m 212.831,348.229 232.805,0 0,-202.984 -232.805,0 0,202.984 z"
     id="path3493"
     inkscape:connector-curvature="0" /></clipPath><clipPath
   clipPathUnits="userSpaceOnUse"
   id="clipPath3495"><path
     d="m 213.657,347.403 231.005,0 0,-201.331 -231.005,0 0,201.331 z"
     id="path3497"
     inkscape:connector-curvature="0" /></clipPath><clipPath
   clipPathUnits="userSpaceOnUse"
   id="clipPath3499"><path
     d="m 214.483,346.577 229.204,0 0,-199.68 -229.204,0 0,199.68 z"
     id="path3501"
     inkscape:connector-curvature="0" /></clipPath><clipPath
   clipPathUnits="userSpaceOnUse"
   id="clipPath3503"><path
     d="m 215.31,345.751 227.405,0 0,-198.027 -227.405,0 0,198.027 z"
     id="path3505"
     inkscape:connector-curvature="0" /></clipPath><clipPath
   clipPathUnits="userSpaceOnUse"
   id="clipPath3507"><path
     d="m 216.135,344.925 225.606,0 0,-196.376 -225.606,0 0,196.376 z"
     id="path3509"
     inkscape:connector-curvature="0" /></clipPath><clipPath
   clipPathUnits="userSpaceOnUse"
   id="clipPath3511"><path
     d="m 216.961,344.1 223.807,0 0,-194.724 -223.807,0 0,194.724 z"
     id="path3513"
     inkscape:connector-curvature="0" /></clipPath><clipPath
   clipPathUnits="userSpaceOnUse"
   id="clipPath3515"><path
     d="m 217.787,343.273 222.007,0 0,-193.072 -222.007,0 0,193.072 z"
     id="path3517"
     inkscape:connector-curvature="0" /></clipPath><clipPath
   clipPathUnits="userSpaceOnUse"
   id="clipPath3519"><path
     d="m 218.613,342.448 220.207,0 0,-191.422 -220.207,0 0,191.422 z"
     id="path3521"
     inkscape:connector-curvature="0" /></clipPath><clipPath
   clipPathUnits="userSpaceOnUse"
   id="clipPath3649"><path
     d="m 20.2959,348.229 232.8041,0 0,-202.984 -232.8041,0 0,202.984 z"
     id="path3651"
     inkscape:connector-curvature="0" /></clipPath><clipPath
   clipPathUnits="userSpaceOnUse"
   id="clipPath3653"><path
     d="m 20.2959,348.229 232.8041,0 0,-202.984 -232.8041,0 0,202.984 z"
     id="path3655"
     inkscape:connector-curvature="0" /></clipPath><clipPath
   clipPathUnits="userSpaceOnUse"
   id="clipPath3657"><path
     d="m 21.1216,347.403 231.0054,0 0,-201.331 -231.0054,0 0,201.331 z"
     id="path3659"
     inkscape:connector-curvature="0" /></clipPath><clipPath
   clipPathUnits="userSpaceOnUse"
   id="clipPath3661"><path
     d="m 21.9473,346.577 229.2057,0 0,-199.68 -229.2057,0 0,199.68 z"
     id="path3663"
     inkscape:connector-curvature="0" /></clipPath><clipPath
   clipPathUnits="userSpaceOnUse"
   id="clipPath3665"><path
     d="m 22.7729,345.751 227.4061,0 0,-198.027 -227.4061,0 0,198.027 z"
     id="path3667"
     inkscape:connector-curvature="0" /></clipPath><clipPath
   clipPathUnits="userSpaceOnUse"
   id="clipPath3669"><path
     d="m 23.5991,344.925 225.6069,0 0,-196.376 -225.6069,0 0,196.376 z"
     id="path3671"
     inkscape:connector-curvature="0" /></clipPath><clipPath
   clipPathUnits="userSpaceOnUse"
   id="clipPath3673"><path
     d="m 24.4253,344.1 223.8067,0 0,-194.724 -223.8067,0 0,194.724 z"
     id="path3675"
     inkscape:connector-curvature="0" /></clipPath><clipPath
   clipPathUnits="userSpaceOnUse"
   id="clipPath3677"><path
     d="m 25.251,343.273 222.008,0 0,-193.072 -222.008,0 0,193.072 z"
     id="path3679"
     inkscape:connector-curvature="0" /></clipPath><clipPath
   clipPathUnits="userSpaceOnUse"
   id="clipPath3681"><path
     d="m 26.0771,342.448 220.2079,0 0,-191.422 -220.2079,0 0,191.422 z"
     id="path3683"
     inkscape:connector-curvature="0" /></clipPath>
</defs><sodipodi:namedview
     pagecolor="#ffffff"
     bordercolor="#666666"
     borderopacity="1"
     objecttolerance="10"
     gridtolerance="10"
     guidetolerance="10"
     inkscape:pageopacity="0"
     inkscape:pageshadow="2"
     inkscape:window-width="1680"
     inkscape:window-height="975"
     id="namedview2987"
     showgrid="false"
     inkscape:zoom="1.2922377"
     inkscape:cx="300.51724"
     inkscape:cy="-2.8212789"
     inkscape:window-x="-9"
     inkscape:window-y="-9"
     inkscape:window-maximized="1"
     inkscape:current-layer="g2993" /><g
     id="g2993"
     inkscape:groupmode="layer"
     inkscape:label="FreeVector-ABC-Icons"
     transform="matrix(1.25,0,0,-1.25,0,199.99997)"><g
   id="g3015"><g
     id="g3017"
     clip-path="url(#clipPath3019)"><g
       id="g3023"
       transform="translate(125.1118,-10.8184)"><path
         d="m 0,0 c -0.02,0.858 -0.779,1.464 -1.62,1.464 -1.852,0 -2.145,-1.579 -2.145,-2.984 0,-1.305 0.567,-2.652 1.973,-2.652 1.147,0 1.733,0.662 1.89,1.734 l 3.218,0 c -0.293,-2.708 -2.4,-4.271 -5.091,-4.271 -3.041,0 -5.304,2.089 -5.304,5.189 0,3.219 2.048,5.521 5.304,5.521 C 0.741,4.001 2.983,2.673 3.219,0 L 0,0 z"
         style="fill:#000000;fill-opacity:1;fill-rule:nonzero;stroke:none"
         id="path3025"
         inkscape:connector-curvature="0" /></g><g
       id="g3027"
       transform="translate(133.7192,-6.8926)"><path
         d="m 0,0 c -3.126,0 -5.303,-2.313 -5.303,-5.345 0,-3.029 2.177,-5.324 5.303,-5.324 3.127,0 5.326,2.295 5.326,5.324 C 5.326,-2.313 3.127,0 0,0"
         style="fill:#000000;fill-opacity:1;fill-rule:nonzero;stroke:none"
         id="path3029"
         inkscape:connector-curvature="0" /></g><g
       id="g3031"
       transform="translate(116.3755,-14.3965)"><path
         d="m 0,0 c -0.86,0 -1.458,-0.636 -1.458,-1.468 0,-0.833 0.598,-1.462 1.458,-1.462 0.859,0 1.461,0.629 1.461,1.462 C 1.461,-0.636 0.859,0 0,0"
         style="fill:#000000;fill-opacity:1;fill-rule:nonzero;stroke:none"
         id="path3033"
         inkscape:connector-curvature="0" /></g><g
       id="g3035"
       transform="translate(139.2764,-7.54)"><path
         d="m 0,0 3.139,0 0,-1.352 0.037,0 c 0.591,0.991 1.635,1.637 2.835,1.637 1.235,0 2.338,-0.398 2.87,-1.598 0.781,1.046 1.749,1.598 3.081,1.598 3.139,0 3.48,-2.377 3.48,-4.262 l 0,-5.892 -3.234,0 0,5.8 c 0,1.064 -0.512,1.69 -1.349,1.69 -1.388,0 -1.521,-1.062 -1.521,-2.661 l 0,-4.829 -3.233,0 0,5.609 c 0,1.159 -0.343,1.881 -1.216,1.881 -1.162,0 -1.654,-0.665 -1.654,-2.681 l 0,-4.809 L 0,-9.869 0,0 z"
         style="fill:#000000;fill-opacity:1;fill-rule:nonzero;stroke:none"
         id="path3037"
         inkscape:connector-curvature="0" /></g><g
       id="g3039"
       transform="translate(73.5513,-17.3057)"><path
         d="m 0,0 -3.686,0 -3.256,9.762 3.33,0 1.786,-6.454 0.038,0 1.807,6.454 3.257,0 L 0,0 z"
         style="fill:#000000;fill-opacity:1;fill-rule:nonzero;stroke:none"
         id="path3041"
         inkscape:connector-curvature="0" /></g><g
       id="g3043"
       transform="translate(78.5659,-13.208)"><path
         d="m 0,0 c 0.056,-1.335 0.831,-2.219 2.184,-2.219 0.767,0 1.52,0.361 1.818,1.073 l 2.993,0 C 6.414,-3.403 4.324,-4.383 2.142,-4.383 c -3.177,0 -5.341,1.922 -5.341,5.193 0,2.99 2.392,5.133 5.267,5.133 3.498,0 5.25,-2.631 5.1,-5.943 L 0,0 z"
         style="fill:#000000;fill-opacity:1;fill-rule:nonzero;stroke:none"
         id="path3045"
         inkscape:connector-curvature="0" /></g><g
       id="g3047"
       transform="translate(92.5742,-11.1182)"><path
         d="m 0,0 c -0.02,0.827 -0.752,1.412 -1.562,1.412 -1.788,0 -2.068,-1.528 -2.068,-2.881 0,-1.261 0.547,-2.558 1.903,-2.558 1.107,0 1.668,0.64 1.823,1.676 l 3.1,0 c -0.279,-2.614 -2.314,-4.122 -4.907,-4.122 -2.934,0 -5.113,2.014 -5.113,5.004 0,3.105 1.973,5.323 5.113,5.323 C 0.713,3.854 2.878,2.575 3.104,0 L 0,0 z"
         style="fill:#000000;fill-opacity:1;fill-rule:nonzero;stroke:none"
         id="path3049"
         inkscape:connector-curvature="0" /></g><g
       id="g3051"
       transform="translate(101.8462,-9.6143)"><path
         d="m 0,0 -1.971,0 0,-4.439 c 0,-0.772 0.451,-0.941 1.145,-0.941 0.262,0 0.548,0.039 0.826,0.039 l 0,-2.35 c -0.58,-0.018 -1.161,-0.096 -1.749,-0.096 -2.726,0 -3.422,0.79 -3.422,3.445 l 0,4.342 -1.617,0 0,2.07 1.617,0 0,2.952 3.2,0 0,-2.952 L 0,2.07 0,0 z"
         style="fill:#000000;fill-opacity:1;fill-rule:nonzero;stroke:none"
         id="path3053"
         inkscape:connector-curvature="0" /></g><g
       id="g3055"
       transform="translate(106.2373,-7.2646)"><path
         d="m 0,0 c -3.027,0 -5.135,-2.239 -5.135,-5.17 0,-2.935 2.108,-5.156 5.135,-5.156 3.027,0 5.153,2.221 5.153,5.156 C 5.153,-2.239 3.027,0 0,0"
         style="fill:#000000;fill-opacity:1;fill-rule:nonzero;stroke:none"
         id="path3057"
         inkscape:connector-curvature="0" /></g><g
       id="g3059"
       transform="translate(111.1758,-7.5439)"><path
         d="m 0,0 3.107,0 0,-1.711 0.035,0 c 0.47,1.236 1.558,1.899 2.933,1.899 0.243,0 0.507,-0.024 0.751,-0.074 l 0,-2.915 C 6.414,-2.693 6.038,-2.62 5.603,-2.62 4.024,-2.62 3.197,-3.708 3.197,-4.927 l 0,-4.835 L 0,-9.762 0,0 z"
         style="fill:#000000;fill-opacity:1;fill-rule:nonzero;stroke:none"
         id="path3061"
         inkscape:connector-curvature="0" /></g><g
       id="g3063"
       transform="translate(41.4951,-7.5439)"><path
         d="m 0,0 3.106,0 0,-1.711 0.037,0 c 0.468,1.236 1.561,1.899 2.935,1.899 0.244,0 0.509,-0.024 0.749,-0.074 l 0,-2.915 C 6.415,-2.693 6.042,-2.62 5.604,-2.62 4.029,-2.62 3.198,-3.708 3.198,-4.927 l 0,-4.835 L 0,-9.762 0,0 z"
         style="fill:#000000;fill-opacity:1;fill-rule:nonzero;stroke:none"
         id="path3065"
         inkscape:connector-curvature="0" /></g><g
       id="g3067"
       transform="translate(50.375,-13.208)"><path
         d="m 0,0 c 0.055,-1.335 0.825,-2.219 2.181,-2.219 0.769,0 1.524,0.361 1.823,1.073 l 2.993,0 C 6.411,-3.403 4.326,-4.383 2.145,-4.383 -1.036,-4.383 -3.2,-2.461 -3.2,0.81 -3.2,3.8 -0.81,5.943 2.07,5.943 5.568,5.943 7.315,3.312 7.166,0 L 0,0 z"
         style="fill:#000000;fill-opacity:1;fill-rule:nonzero;stroke:none"
         id="path3069"
         inkscape:connector-curvature="0" /></g><g
       id="g3071"
       transform="translate(60.458,-13.208)"><path
         d="m 0,0 c 0.055,-1.335 0.826,-2.219 2.182,-2.219 0.769,0 1.522,0.361 1.823,1.073 l 2.991,0 c -0.582,-2.257 -2.67,-3.237 -4.851,-3.237 -3.179,0 -5.341,1.922 -5.341,5.193 0,2.99 2.384,5.133 5.266,5.133 C 5.567,5.943 7.317,3.312 7.167,0 L 0,0 z"
         style="fill:#000000;fill-opacity:1;fill-rule:nonzero;stroke:none"
         id="path3073"
         inkscape:connector-curvature="0" /></g><g
       id="g3075"
       transform="translate(40.9141,-6.1377)"><path
         d="m 0,0 c 0.283,0 0.564,-0.018 0.864,-0.055 l 0,2.259 c -0.509,0.02 -1.035,0.055 -1.543,0.055 -2.725,0 -3.704,-0.865 -3.704,-3.665 l -1.541,0 0,-2.071 1.541,0 0,-7.691 3.195,0 0,7.691 1.919,0 0,2.071 -1.919,0 0,0.431 C -1.188,-0.092 -0.735,0 0,0"
         style="fill:#000000;fill-opacity:1;fill-rule:nonzero;stroke:none"
         id="path3077"
         inkscape:connector-curvature="0" /></g><g
       id="g3079"
       transform="translate(31.8374,-10.6475)"><path
         d="m 0,0 c 0,-3.982 -3.228,-7.212 -7.211,-7.212 -3.983,0 -7.212,3.23 -7.212,7.212 0,3.981 3.229,7.21 7.212,7.21 C -3.228,7.21 0,3.981 0,0"
         style="fill:#ffffff;fill-opacity:1;fill-rule:nonzero;stroke:none"
         id="path3081"
         inkscape:connector-curvature="0" /></g><g
       id="g3083"
       transform="translate(27.1284,-13.9258)"><path
         d="m 0,0 0.019,-0.013 c 0,0 -0.007,0.005 -0.013,0.01 -0.001,0 -0.004,0 -0.006,0.003 m -3.204,1.693 c -0.35,-0.123 -0.816,0.196 -1.023,0.356 -0.177,0.203 -1.242,1.338 -1.365,1.48 -0.266,0.307 -0.063,0.942 0.594,1.161 0.186,0.063 0.471,0.068 0.644,-0.125 0.776,-0.928 1.586,-1.918 1.646,-2.109 0.1,-0.333 -0.084,-0.62 -0.496,-0.763 m 0.682,8.825 c -0.659,0 -1.294,-0.086 -1.9,-0.246 0.249,-0.021 0.412,-0.178 0.497,-0.492 0,0 1.356,-4.485 1.518,-4.989 0.159,-0.506 0.35,-1.059 0.35,-1.059 C -2.164,3.643 -2.262,3.529 -2.336,3.38 -2.476,3.089 -2.552,2.853 -2.585,2.617 c -0.21,0.36 -1.033,1.368 -1.589,2.04 0,0 -0.036,0.446 -0.155,0.873 -0.12,0.425 -0.886,3.309 -0.886,3.309 C -5.351,9.375 -5.294,9.841 -5,10.094 -7.829,9.093 -9.854,6.425 -9.854,3.286 c 0,-2.85 1.674,-5.315 4.108,-6.493 -0.25,0.366 -0.538,0.937 -0.673,1.743 -0.224,1.325 -0.268,2.183 -0.436,2.922 -0.223,0.988 -0.156,1.217 0.184,1.652 0.168,0.215 0.359,0.348 0.537,0.407 0.178,0.047 0.362,-0.059 0.43,-0.135 C -5.276,2.924 -4.458,2.044 -4.358,1.919 -4.16,1.687 -4.133,1.395 -4.28,1.047 -4.338,0.906 -4.498,0.843 -4.623,0.813 -4.906,0.747 -5.227,0.806 -5.337,0.9 c -0.23,0.193 -1.35,1.217 -1.35,1.166 0,-0.269 0.833,-0.928 1.229,-1.305 0.161,-0.157 0.558,-0.201 0.879,-0.126 0.238,0.056 0.4,0.174 0.471,0.343 0.11,0.259 0.135,0.501 0.076,0.717 0.26,-0.15 0.595,-0.278 0.891,-0.176 0.288,0.1 0.462,0.255 0.556,0.422 0.019,-0.192 0.05,-0.407 0.091,-0.663 0.099,-0.646 0.22,-1.007 0.293,-1.222 0.027,-0.08 0.054,-0.163 0.051,-0.189 -0.002,-0.005 -0.005,-0.009 -0.011,-0.014 -0.17,-0.239 -0.422,-0.628 -0.582,-1.111 -0.106,-0.321 -0.186,-0.758 -0.196,-1.169 -0.005,-0.144 0,-0.367 0.042,-0.367 0.044,10e-4 0.038,0.228 0.054,0.367 0.045,0.416 0.112,0.835 0.233,1.137 0.159,0.392 0.37,0.712 0.6,1.035 0.01,0.012 0.015,0.021 0.02,0.026 0.053,0.079 0.024,0.166 -0.034,0.341 -0.072,0.211 -0.188,0.562 -0.288,1.195 -0.143,0.933 -0.198,1.284 0.145,1.993 0.276,0.576 1.01,0.583 1.168,0.517 0.061,-0.033 0.065,-0.384 0.072,-0.697 0.008,-0.349 0.015,-0.782 0.073,-1.309 0.072,-0.665 0.344,-1.184 0.589,-1.486 0.199,-0.24 0.358,-0.347 0.397,-0.31 0.037,0.036 -0.136,0.167 -0.313,0.443 -0.196,0.304 -0.421,0.763 -0.488,1.373 -0.058,0.517 -0.065,0.948 -0.071,1.294 -0.012,0.526 -0.016,0.789 -0.187,0.86 -0.085,0.037 -0.264,0.057 -0.47,0.03 l 1.353,4.533 c 0.236,0.817 0.485,1.151 1.007,1.098 0.005,0 0.01,-0.004 0.017,-0.005 -1.041,0.558 -2.233,0.877 -3.502,0.877"
         style="fill:#000000;fill-opacity:1;fill-rule:nonzero;stroke:none"
         id="path3085"
         inkscape:connector-curvature="0" /></g><g
       id="g3087"
       transform="translate(28.5015,-4.5146)"><path
         d="m 0,0 c 0.174,-0.181 0.245,-0.433 0.171,-0.7 l -1.215,-5.404 c -0.074,-0.419 -0.197,-1.288 -0.086,-1.881 0.149,-0.809 0.468,-1.9 0.235,-3.106 -0.125,-0.64 -0.318,-1.336 -0.641,-1.878 2.889,0.969 4.97,3.667 4.97,6.844 C 3.434,-3.544 2.063,-1.279 0,0"
         style="fill:#000000;fill-opacity:1;fill-rule:nonzero;stroke:none"
         id="path3089"
         inkscape:connector-curvature="0" /></g><path
       d="m 169.155,-7.771 2.498,0 0,-9.587 -2.498,0 0,9.587 z"
       style="fill:#000000;fill-opacity:1;fill-rule:nonzero;stroke:none"
       id="path3091"
       inkscape:connector-curvature="0" /><g
       id="g3093"
       transform="translate(173.2896,-10.3887)"><path
         d="m 0,0 2.215,0 0,-0.953 0.027,0 c 0.416,0.699 1.155,1.155 2.001,1.155 0.873,0 1.652,-0.282 2.028,-1.128 0.55,0.738 1.235,1.128 2.175,1.128 2.216,0 2.457,-1.679 2.457,-3.008 l 0,-4.163 -2.282,0 0,4.096 c 0,0.752 -0.363,1.194 -0.954,1.194 -0.98,0 -1.074,-0.751 -1.074,-1.879 l 0,-3.411 -2.283,0 0,3.961 c 0,0.82 -0.242,1.329 -0.859,1.329 -0.819,0 -1.169,-0.469 -1.169,-1.892 l 0,-3.398 L 0,-6.969 0,0 z"
         style="fill:#000000;fill-opacity:1;fill-rule:nonzero;stroke:none"
         id="path3095"
         inkscape:connector-curvature="0" /></g><g
       id="g3097"
       transform="translate(188.5796,-16.1484)"><path
         d="M 0,0 C 1.088,0 1.451,0.617 1.396,2.055 1.075,1.853 0.483,1.813 -0.013,1.678 -0.524,1.557 -0.954,1.343 -0.954,0.792 -0.954,0.228 -0.51,0 0,0 m -2.954,3.611 c 0.04,0.913 0.47,1.505 1.087,1.868 0.618,0.348 1.424,0.483 2.216,0.483 1.652,0 3.25,-0.362 3.25,-2.337 l 0,-3.048 c 0,-0.591 0,-1.236 0.269,-1.786 l -2.297,0 c -0.08,0.214 -0.107,0.43 -0.134,0.658 -0.591,-0.618 -1.463,-0.859 -2.296,-0.859 -1.329,0 -2.377,0.671 -2.377,2.107 0,2.271 2.47,2.095 4.055,2.417 0.389,0.081 0.605,0.216 0.605,0.646 0,0.523 -0.632,0.724 -1.102,0.724 -0.631,0 -1.033,-0.281 -1.141,-0.873 l -2.135,0 z"
         style="fill:#000000;fill-opacity:1;fill-rule:nonzero;stroke:none"
         id="path3099"
         inkscape:connector-curvature="0" /></g><g
       id="g3101"
       transform="translate(196.8892,-11.9326)"><path
         d="m 0,0 c -1.007,0 -1.33,-0.886 -1.33,-1.745 0,-0.819 0.376,-1.639 1.316,-1.639 0.967,0 1.384,0.751 1.384,1.625 C 1.37,-0.872 1.02,0 0,0 m 3.532,-4.579 c 0,-1.142 -0.215,-3.29 -3.478,-3.29 -1.625,0 -3.156,0.362 -3.425,2.229 l 2.283,0 c 0.054,-0.308 0.174,-0.497 0.389,-0.604 0.202,-0.108 0.484,-0.148 0.833,-0.148 1.088,0 1.196,0.766 1.196,1.625 l 0,0.658 -0.027,0 c -0.417,-0.644 -1.115,-1.02 -1.854,-1.02 -2.108,0 -3.061,1.503 -3.061,3.464 0,1.853 1.088,3.411 3.061,3.411 0.833,0 1.464,-0.362 1.867,-1.075 l 0.027,0 0,0.873 2.189,0 0,-6.123 z"
         style="fill:#000000;fill-opacity:1;fill-rule:nonzero;stroke:none"
         id="path3103"
         inkscape:connector-curvature="0" /></g><g
       id="g3105"
       transform="translate(206.6621,-13.1543)"><path
         d="M 0,0 C -0.041,0.779 -0.591,1.423 -1.357,1.423 -2.162,1.423 -2.7,0.846 -2.833,0 L 0,0 z m -2.833,-1.275 c 0.04,-0.954 0.59,-1.585 1.557,-1.585 0.55,0 1.088,0.255 1.303,0.765 l 2.135,0 c -0.416,-1.612 -1.907,-2.309 -3.465,-2.309 -2.269,0 -3.813,1.369 -3.813,3.706 0,2.135 1.705,3.666 3.759,3.666 2.498,0 3.747,-1.881 3.639,-4.243 l -5.115,0 z"
         style="fill:#000000;fill-opacity:1;fill-rule:nonzero;stroke:none"
         id="path3107"
         inkscape:connector-curvature="0" /></g><g
       id="g3109"
       transform="translate(211.856,-15.0615)"><path
         d="m 0,0 c 0,-0.349 0.147,-0.604 0.376,-0.778 0.215,-0.162 0.523,-0.243 0.846,-0.243 0.443,0 1.074,0.188 1.074,0.74 0,0.537 -0.712,0.643 -1.115,0.737 -1.436,0.363 -3.236,0.403 -3.236,2.284 0,1.679 1.813,2.135 3.182,2.135 1.531,0 3.13,-0.443 3.21,-2.257 l -2.108,0 c 0,0.296 -0.107,0.485 -0.295,0.605 -0.188,0.121 -0.444,0.174 -0.726,0.174 -0.375,0 -0.98,-0.04 -0.98,-0.523 0,-0.658 1.531,-0.779 2.578,-1.007 1.41,-0.282 1.773,-1.303 1.773,-1.881 0,-1.866 -1.773,-2.483 -3.344,-2.483 -1.652,0 -3.343,0.551 -3.41,2.497 L 0,0 z"
         style="fill:#000000;fill-opacity:1;fill-rule:nonzero;stroke:none"
         id="path3111"
         inkscape:connector-curvature="0" /></g><g
       id="g3113"
       transform="translate(224.6348,-16.1484)"><path
         d="M 0,0 C 1.088,0 1.451,0.617 1.396,2.055 1.075,1.853 0.483,1.813 -0.013,1.678 -0.524,1.557 -0.954,1.343 -0.954,0.792 -0.954,0.228 -0.51,0 0,0 m -2.954,3.611 c 0.04,0.913 0.47,1.505 1.087,1.868 0.618,0.348 1.424,0.483 2.216,0.483 1.652,0 3.25,-0.362 3.25,-2.337 l 0,-3.048 c 0,-0.591 0,-1.236 0.269,-1.786 l -2.297,0 c -0.08,0.214 -0.107,0.43 -0.134,0.658 -0.591,-0.618 -1.463,-0.859 -2.296,-0.859 -1.329,0 -2.377,0.671 -2.377,2.107 0,2.271 2.47,2.095 4.055,2.417 0.389,0.081 0.605,0.216 0.605,0.646 0,0.523 -0.632,0.724 -1.102,0.724 -0.631,0 -1.033,-0.281 -1.141,-0.873 l -2.135,0 z"
         style="fill:#000000;fill-opacity:1;fill-rule:nonzero;stroke:none"
         id="path3115"
         inkscape:connector-curvature="0" /></g><g
       id="g3117"
       transform="translate(229.8154,-10.3887)"><path
         d="m 0,0 2.215,0 0,-1.222 0.027,0 c 0.336,0.886 1.115,1.357 2.095,1.357 0.175,0 0.363,-0.014 0.538,-0.054 l 0,-2.081 c -0.296,0.08 -0.564,0.134 -0.873,0.134 -1.128,0 -1.719,-0.78 -1.719,-1.652 l 0,-3.451 L 0,-6.969 0,0 z"
         style="fill:#000000;fill-opacity:1;fill-rule:nonzero;stroke:none"
         id="path3119"
         inkscape:connector-curvature="0" /></g><g
       id="g3121"
       transform="translate(239.9917,-13.1543)"><path
         d="M 0,0 C -0.041,0.779 -0.591,1.423 -1.357,1.423 -2.162,1.423 -2.7,0.846 -2.833,0 L 0,0 z m -2.833,-1.275 c 0.04,-0.954 0.59,-1.585 1.557,-1.585 0.55,0 1.088,0.255 1.303,0.765 l 2.135,0 c -0.416,-1.612 -1.907,-2.309 -3.465,-2.309 -2.269,0 -3.814,1.369 -3.814,3.706 0,2.135 1.706,3.666 3.76,3.666 2.498,0 3.747,-1.881 3.639,-4.243 l -5.115,0 z"
         style="fill:#000000;fill-opacity:1;fill-rule:nonzero;stroke:none"
         id="path3123"
         inkscape:connector-curvature="0" /></g><g
       id="g3125"
       transform="translate(249.8433,-13.7998)"><path
         d="m 0,0 c 0,-1.222 0.349,-2.013 1.383,-2.013 1.02,0 1.37,1.06 1.37,2.013 0,0.887 -0.35,1.867 -1.357,1.867 C 0.778,1.867 0,1.438 0,0 m -2.202,3.411 2.175,0 0,-0.806 0.027,0 c 0.443,0.659 1.114,1.008 1.92,1.008 2.189,0 3.115,-1.881 3.115,-3.841 0,-1.812 -0.966,-3.531 -2.94,-3.531 -0.86,0 -1.517,0.321 -1.988,0.953 l -0.026,0 0,-3.088 -2.283,0 0,9.305 z"
         style="fill:#000000;fill-opacity:1;fill-rule:nonzero;stroke:none"
         id="path3127"
         inkscape:connector-curvature="0" /></g><g
       id="g3129"
       transform="translate(256.1782,-10.3887)"><path
         d="m 0,0 2.215,0 0,-1.222 0.027,0 c 0.336,0.886 1.115,1.357 2.095,1.357 0.175,0 0.363,-0.014 0.538,-0.054 l 0,-2.081 c -0.296,0.08 -0.564,0.134 -0.873,0.134 -1.128,0 -1.719,-0.78 -1.719,-1.652 l 0,-3.451 L 0,-6.969 0,0 z"
         style="fill:#000000;fill-opacity:1;fill-rule:nonzero;stroke:none"
         id="path3131"
         inkscape:connector-curvature="0" /></g><g
       id="g3133"
       transform="translate(264.9038,-15.8125)"><path
         d="M 0,0 C 1.061,0 1.397,1.047 1.397,1.933 1.397,2.819 1.061,3.88 0,3.88 -1.061,3.88 -1.383,2.819 -1.383,1.933 -1.383,1.047 -1.061,0 0,0 m 0,5.626 c 2.162,0 3.68,-1.599 3.68,-3.693 0,-2.095 -1.518,-3.679 -3.68,-3.679 -2.162,0 -3.666,1.584 -3.666,3.679 0,2.094 1.504,3.693 3.666,3.693"
         style="fill:#000000;fill-opacity:1;fill-rule:nonzero;stroke:none"
         id="path3135"
         inkscape:connector-curvature="0" /></g><g
       id="g3137"
       transform="translate(271.978,-13.7998)"><path
         d="m 0,0 c 0,-1.222 0.349,-2.013 1.383,-2.013 1.02,0 1.37,1.06 1.37,2.013 0,0.887 -0.35,1.867 -1.357,1.867 C 0.778,1.867 0,1.438 0,0 m -2.202,3.411 2.175,0 0,-0.806 0.027,0 c 0.443,0.659 1.114,1.008 1.92,1.008 2.189,0 3.115,-1.881 3.115,-3.841 0,-1.812 -0.966,-3.531 -2.94,-3.531 -0.86,0 -1.518,0.321 -1.988,0.953 l -0.027,0 0,-3.088 -2.282,0 0,9.305 z"
         style="fill:#000000;fill-opacity:1;fill-rule:nonzero;stroke:none"
         id="path3139"
         inkscape:connector-curvature="0" /></g><g
       id="g3141"
       transform="translate(283.0127,-13.1543)"><path
         d="M 0,0 C -0.041,0.779 -0.591,1.423 -1.356,1.423 -2.162,1.423 -2.7,0.846 -2.833,0 L 0,0 z m -2.833,-1.275 c 0.04,-0.954 0.59,-1.585 1.557,-1.585 0.55,0 1.088,0.255 1.302,0.765 l 2.136,0 c -0.416,-1.612 -1.907,-2.309 -3.465,-2.309 -2.269,0 -3.814,1.369 -3.814,3.706 0,2.135 1.706,3.666 3.761,3.666 2.497,0 3.746,-1.881 3.638,-4.243 l -5.115,0 z"
         style="fill:#000000;fill-opacity:1;fill-rule:nonzero;stroke:none"
         id="path3143"
         inkscape:connector-curvature="0" /></g><g
       id="g3145"
       transform="translate(286.5142,-10.3887)"><path
         d="m 0,0 2.216,0 0,-1.222 0.026,0 c 0.336,0.886 1.115,1.357 2.095,1.357 0.175,0 0.363,-0.014 0.538,-0.054 l 0,-2.081 c -0.296,0.08 -0.564,0.134 -0.873,0.134 -1.128,0 -1.719,-0.78 -1.719,-1.652 l 0,-3.451 L 0,-6.969 0,0 z"
         style="fill:#000000;fill-opacity:1;fill-rule:nonzero;stroke:none"
         id="path3147"
         inkscape:connector-curvature="0" /></g><g
       id="g3149"
       transform="translate(296.3555,-11.8652)"><path
         d="m 0,0 -1.41,0 0,-3.17 c 0,-0.55 0.322,-0.671 0.819,-0.671 0.188,0 0.389,0.028 0.591,0.028 l 0,-1.679 c -0.417,-0.014 -0.833,-0.068 -1.249,-0.068 -1.947,0 -2.444,0.564 -2.444,2.458 l 0,3.102 -1.155,0 0,1.477 1.155,0 0,2.108 2.283,0 0,-2.108 1.41,0 L 0,0 z"
         style="fill:#000000;fill-opacity:1;fill-rule:nonzero;stroke:none"
         id="path3151"
         inkscape:connector-curvature="0" /></g><g
       id="g3153"
       transform="translate(301.1738,-17.9746)"><path
         d="m 0,0 c -0.55,-1.531 -1.369,-1.719 -2.914,-1.719 l -1.074,0 0,1.853 0.792,0 c 0.524,0 0.914,0.296 0.914,0.779 0,0.376 -0.444,1.449 -0.578,1.825 l -1.799,4.848 2.417,0 1.316,-4.538 0.027,0 1.316,4.538 2.336,0 L 0,0 z"
         style="fill:#000000;fill-opacity:1;fill-rule:nonzero;stroke:none"
         id="path3155"
         inkscape:connector-curvature="0" /></g><g
       id="g3157"
       transform="translate(312.1406,-15.8125)"><path
         d="M 0,0 C 1.061,0 1.397,1.047 1.397,1.933 1.397,2.819 1.061,3.88 0,3.88 -1.061,3.88 -1.383,2.819 -1.383,1.933 -1.383,1.047 -1.061,0 0,0 m 0,5.626 c 2.162,0 3.679,-1.599 3.679,-3.693 0,-2.095 -1.517,-3.679 -3.679,-3.679 -2.162,0 -3.666,1.584 -3.666,3.679 0,2.094 1.504,3.693 3.666,3.693"
         style="fill:#000000;fill-opacity:1;fill-rule:nonzero;stroke:none"
         id="path3159"
         inkscape:connector-curvature="0" /></g><g
       id="g3161"
       transform="translate(317.5093,-11.8652)"><path
         d="m 0,0 -1.101,0 0,1.477 1.101,0 c 0,2.001 0.698,2.618 2.645,2.618 0.363,0 0.739,-0.027 1.101,-0.04 l 0,-1.612 C 3.531,2.471 3.33,2.484 3.128,2.484 2.605,2.484 2.283,2.417 2.283,1.786 l 0,-0.309 1.369,0 0,-1.477 -1.369,0 0,-5.492 L 0,-5.492 0,0 z"
         style="fill:#000000;fill-opacity:1;fill-rule:nonzero;stroke:none"
         id="path3163"
         inkscape:connector-curvature="0" /></g><g
       id="g3165"
       transform="translate(330.4102,-11.8652)"><path
         d="m 0,0 -1.41,0 0,-3.17 c 0,-0.55 0.323,-0.671 0.819,-0.671 0.188,0 0.39,0.028 0.591,0.028 l 0,-1.679 c -0.416,-0.014 -0.833,-0.068 -1.249,-0.068 -1.947,0 -2.443,0.564 -2.443,2.458 l 0,3.102 -1.155,0 0,1.477 1.155,0 0,2.108 2.282,0 0,-2.108 1.41,0 L 0,0 z"
         style="fill:#000000;fill-opacity:1;fill-rule:nonzero;stroke:none"
         id="path3167"
         inkscape:connector-curvature="0" /></g><g
       id="g3169"
       transform="translate(331.4297,-7.7705)"><path
         d="m 0,0 2.282,0 0,-3.571 0.027,0 c 0.349,0.712 1.289,1.155 2.122,1.155 2.323,0 2.51,-1.692 2.51,-2.7 l 0,-4.471 -2.283,0 0,3.37 c 0,0.953 0.109,1.92 -1.14,1.92 -0.86,0 -1.236,-0.724 -1.236,-1.49 l 0,-3.8 L 0,-9.587 0,0 z"
         style="fill:#000000;fill-opacity:1;fill-rule:nonzero;stroke:none"
         id="path3171"
         inkscape:connector-curvature="0" /></g><g
       id="g3173"
       transform="translate(344.667,-13.1543)"><path
         d="M 0,0 C -0.04,0.779 -0.592,1.423 -1.357,1.423 -2.163,1.423 -2.7,0.846 -2.834,0 L 0,0 z m -2.834,-1.275 c 0.04,-0.954 0.591,-1.585 1.558,-1.585 0.55,0 1.088,0.255 1.302,0.765 l 2.135,0 c -0.416,-1.612 -1.906,-2.309 -3.465,-2.309 -2.269,0 -3.812,1.369 -3.812,3.706 0,2.135 1.705,3.666 3.759,3.666 2.498,0 3.747,-1.881 3.638,-4.243 l -5.115,0 z"
         style="fill:#000000;fill-opacity:1;fill-rule:nonzero;stroke:none"
         id="path3175"
         inkscape:connector-curvature="0" /></g><g
       id="g3177"
       transform="translate(354.2637,-13.7998)"><path
         d="m 0,0 c 0,-0.953 0.349,-2.013 1.396,-2.013 1.114,0 1.356,1.06 1.356,1.947 0,1.006 -0.363,1.933 -1.356,1.933 C 0.349,1.867 0,0.887 0,0 m 4.953,-3.558 -2.174,0 0,0.806 -0.027,0 C 2.309,-3.41 1.637,-3.759 0.831,-3.759 c -2.188,0 -3.114,1.88 -3.114,3.84 0,1.814 0.967,3.532 2.939,3.532 0.86,0 1.519,-0.322 1.989,-0.954 l 0.027,0 0,3.37 2.281,0 0,-9.587 z"
         style="fill:#000000;fill-opacity:1;fill-rule:nonzero;stroke:none"
         id="path3179"
         inkscape:connector-curvature="0" /></g><g
       id="g3181"
       transform="translate(365.5527,-13.1543)"><path
         d="M 0,0 C -0.04,0.779 -0.592,1.423 -1.357,1.423 -2.162,1.423 -2.699,0.846 -2.832,0 L 0,0 z m -2.832,-1.275 c 0.039,-0.954 0.589,-1.585 1.557,-1.585 0.55,0 1.087,0.255 1.302,0.765 l 2.135,0 c -0.416,-1.612 -1.907,-2.309 -3.465,-2.309 -2.268,0 -3.812,1.369 -3.812,3.706 0,2.135 1.705,3.666 3.758,3.666 2.498,0 3.748,-1.881 3.64,-4.243 l -5.115,0 z"
         style="fill:#000000;fill-opacity:1;fill-rule:nonzero;stroke:none"
         id="path3183"
         inkscape:connector-curvature="0" /></g><g
       id="g3185"
       transform="translate(370.7471,-15.0615)"><path
         d="m 0,0 c 0,-0.349 0.147,-0.604 0.376,-0.778 0.215,-0.162 0.523,-0.243 0.846,-0.243 0.443,0 1.074,0.188 1.074,0.74 0,0.537 -0.713,0.643 -1.114,0.737 -1.438,0.363 -3.238,0.403 -3.238,2.284 0,1.679 1.814,2.135 3.184,2.135 1.53,0 3.129,-0.443 3.209,-2.257 l -2.108,0 c 0,0.296 -0.107,0.485 -0.294,0.605 -0.19,0.121 -0.446,0.174 -0.727,0.174 -0.375,0 -0.979,-0.04 -0.979,-0.523 0,-0.658 1.53,-0.779 2.578,-1.007 1.409,-0.282 1.772,-1.303 1.772,-1.881 0,-1.866 -1.772,-2.483 -3.344,-2.483 -1.652,0 -3.343,0.551 -3.41,2.497 L 0,0 z"
         style="fill:#000000;fill-opacity:1;fill-rule:nonzero;stroke:none"
         id="path3187"
         inkscape:connector-curvature="0" /></g><path
       d="m 376.519,-10.389 2.284,0 0,-6.969 -2.284,0 0,6.969 z m 2.284,0.873 -2.284,0 0,1.745 2.284,0 0,-1.745 z"
       style="fill:#000000;fill-opacity:1;fill-rule:nonzero;stroke:none"
       id="path3189"
       inkscape:connector-curvature="0" /><g
       id="g3191"
       transform="translate(383.6201,-11.9326)"><path
         d="m 0,0 c -1.007,0 -1.329,-0.886 -1.329,-1.745 0,-0.819 0.375,-1.639 1.315,-1.639 0.968,0 1.384,0.751 1.384,1.625 C 1.37,-0.872 1.021,0 0,0 m 3.532,-4.579 c 0,-1.142 -0.215,-3.29 -3.478,-3.29 -1.625,0 -3.155,0.362 -3.424,2.229 l 2.283,0 c 0.053,-0.308 0.174,-0.497 0.389,-0.604 0.202,-0.108 0.484,-0.148 0.833,-0.148 1.088,0 1.195,0.766 1.195,1.625 l 0,0.658 -0.026,0 c -0.417,-0.644 -1.116,-1.02 -1.854,-1.02 -2.109,0 -3.062,1.503 -3.062,3.464 0,1.853 1.088,3.411 3.062,3.411 0.833,0 1.463,-0.362 1.867,-1.075 l 0.026,0 0,0.873 2.189,0 0,-6.123 z"
         style="fill:#000000;fill-opacity:1;fill-rule:nonzero;stroke:none"
         id="path3193"
         inkscape:connector-curvature="0" /></g><g
       id="g3195"
       transform="translate(388.6133,-10.3887)"><path
         d="m 0,0 2.215,0 0,-0.953 0.027,0 c 0.417,0.712 1.357,1.155 2.19,1.155 2.322,0 2.511,-1.692 2.511,-2.7 l 0,-4.471 -2.284,0 0,3.37 c 0,0.953 0.108,1.92 -1.14,1.92 -0.86,0 -1.238,-0.724 -1.238,-1.49 l 0,-3.8 L 0,-6.969 0,0 z"
         style="fill:#000000;fill-opacity:1;fill-rule:nonzero;stroke:none"
         id="path3197"
         inkscape:connector-curvature="0" /></g><g
       id="g3199"
       transform="translate(401.8506,-13.1543)"><path
         d="M 0,0 C -0.04,0.779 -0.591,1.423 -1.356,1.423 -2.162,1.423 -2.7,0.846 -2.834,0 L 0,0 z m -2.834,-1.275 c 0.04,-0.954 0.591,-1.585 1.558,-1.585 0.55,0 1.088,0.255 1.302,0.765 l 2.135,0 c -0.416,-1.612 -1.906,-2.309 -3.464,-2.309 -2.27,0 -3.813,1.369 -3.813,3.706 0,2.135 1.705,3.666 3.76,3.666 2.498,0 3.746,-1.881 3.638,-4.243 l -5.116,0 z"
         style="fill:#000000;fill-opacity:1;fill-rule:nonzero;stroke:none"
         id="path3201"
         inkscape:connector-curvature="0" /></g><g
       id="g3203"
       transform="translate(405.3516,-10.3887)"><path
         d="m 0,0 2.217,0 0,-1.222 0.026,0 c 0.335,0.886 1.114,1.357 2.095,1.357 0.174,0 0.363,-0.014 0.537,-0.054 l 0,-2.081 c -0.296,0.08 -0.564,0.134 -0.872,0.134 -1.13,0 -1.719,-0.78 -1.719,-1.652 l 0,-3.451 L 0,-6.969 0,0 z"
         style="fill:#000000;fill-opacity:1;fill-rule:nonzero;stroke:none"
         id="path3205"
         inkscape:connector-curvature="0" /></g><path
       d="m 409.861,-14.859 2.498,0 0,-2.498 -2.498,0 0,2.498 z"
       style="fill:#000000;fill-opacity:1;fill-rule:nonzero;stroke:none"
       id="path3207"
       inkscape:connector-curvature="0" /><g
       id="g3209"
       transform="translate(427.624,-11.1943)"><path
         d="m 0,0 c -0.136,0.968 -0.886,1.478 -1.935,1.478 -1.609,0 -2.228,-1.424 -2.228,-2.847 0,-1.424 0.619,-2.847 2.228,-2.847 1.169,0 1.841,0.671 1.935,1.773 l 2.498,0 c -0.136,-2.471 -1.948,-3.921 -4.38,-3.921 -2.899,0 -4.779,2.216 -4.779,4.995 0,2.78 1.88,4.995 4.779,4.995 2.07,0 4.311,-1.315 4.38,-3.626 L 0,0 z"
         style="fill:#000000;fill-opacity:1;fill-rule:nonzero;stroke:none"
         id="path3211"
         inkscape:connector-curvature="0" /></g><g
       id="g3213"
       transform="translate(431.3535,-7.7705)"><path
         d="m 0,0 2.283,0 0,-3.571 0.027,0 c 0.348,0.712 1.288,1.155 2.12,1.155 2.324,0 2.511,-1.692 2.511,-2.7 l 0,-4.471 -2.281,0 0,3.37 c 0,0.953 0.108,1.92 -1.142,1.92 -0.86,0 -1.235,-0.724 -1.235,-1.49 l 0,-3.8 L 0,-9.587 0,0 z"
         style="fill:#000000;fill-opacity:1;fill-rule:nonzero;stroke:none"
         id="path3215"
         inkscape:connector-curvature="0" /></g><g
       id="g3217"
       transform="translate(444.5898,-13.1543)"><path
         d="M 0,0 C -0.039,0.779 -0.591,1.423 -1.356,1.423 -2.162,1.423 -2.698,0.846 -2.834,0 L 0,0 z m -2.834,-1.275 c 0.04,-0.954 0.592,-1.585 1.559,-1.585 0.55,0 1.086,0.255 1.302,0.765 l 2.135,0 c -0.416,-1.612 -1.906,-2.309 -3.465,-2.309 -2.267,0 -3.812,1.369 -3.812,3.706 0,2.135 1.705,3.666 3.759,3.666 2.498,0 3.745,-1.881 3.638,-4.243 l -5.116,0 z"
         style="fill:#000000;fill-opacity:1;fill-rule:nonzero;stroke:none"
         id="path3219"
         inkscape:connector-curvature="0" /></g><g
       id="g3221"
       transform="translate(452.5488,-12.9395)"><path
         d="m 0,0 c -0.014,0.591 -0.535,1.007 -1.113,1.007 -1.276,0 -1.479,-1.088 -1.479,-2.055 0,-0.899 0.391,-1.825 1.358,-1.825 0.793,0 1.194,0.456 1.301,1.194 l 2.216,0 c -0.2,-1.866 -1.651,-2.94 -3.504,-2.94 -2.093,0 -3.652,1.436 -3.652,3.571 0,2.216 1.408,3.801 3.652,3.801 C 0.512,2.753 2.057,1.84 2.217,0 L 0,0 z"
         style="fill:#000000;fill-opacity:1;fill-rule:nonzero;stroke:none"
         id="path3223"
         inkscape:connector-curvature="0" /></g><g
       id="g3225"
       transform="translate(455.9717,-7.7705)"><path
         d="m 0,0 2.283,0 0,-4.94 2.081,2.322 2.645,0 -2.551,-2.632 2.875,-4.337 -2.755,0 -1.706,2.807 -0.589,-0.578 0,-2.229 L 0,-9.587 0,0 z"
         style="fill:#000000;fill-opacity:1;fill-rule:nonzero;stroke:none"
         id="path3227"
         inkscape:connector-curvature="0" /></g><path
       d="m 468.24,-7.771 2.281,0 0,-9.587 -2.281,0 0,9.587 z"
       style="fill:#000000;fill-opacity:1;fill-rule:nonzero;stroke:none"
       id="path3229"
       inkscape:connector-curvature="0" /><path
       d="m 472.215,-10.389 2.281,0 0,-6.969 -2.281,0 0,6.969 z m 2.281,0.873 -2.281,0 0,1.745 2.281,0 0,-1.745 z"
       style="fill:#000000;fill-opacity:1;fill-rule:nonzero;stroke:none"
       id="path3231"
       inkscape:connector-curvature="0" /><g
       id="g3233"
       transform="translate(480.6455,-12.9395)"><path
         d="m 0,0 c -0.013,0.591 -0.538,1.007 -1.114,1.007 -1.277,0 -1.477,-1.088 -1.477,-2.055 0,-0.899 0.388,-1.825 1.355,-1.825 0.792,0 1.196,0.456 1.303,1.194 l 2.217,0 c -0.203,-1.866 -1.652,-2.94 -3.508,-2.94 -2.093,0 -3.651,1.436 -3.651,3.571 0,2.216 1.411,3.801 3.651,3.801 C 0.511,2.753 2.054,1.84 2.215,0 L 0,0 z"
         style="fill:#000000;fill-opacity:1;fill-rule:nonzero;stroke:none"
         id="path3235"
         inkscape:connector-curvature="0" /></g><g
       id="g3237"
       transform="translate(488.8477,-13.1543)"><path
         d="M 0,0 C -0.041,0.779 -0.592,1.423 -1.357,1.423 -2.163,1.423 -2.699,0.846 -2.835,0 L 0,0 z m -2.835,-1.275 c 0.04,-0.954 0.591,-1.585 1.558,-1.585 0.551,0 1.088,0.255 1.303,0.765 l 2.134,0 c -0.414,-1.612 -1.906,-2.309 -3.464,-2.309 -2.268,0 -3.813,1.369 -3.813,3.706 0,2.135 1.706,3.666 3.76,3.666 2.498,0 3.746,-1.881 3.638,-4.243 l -5.116,0 z"
         style="fill:#000000;fill-opacity:1;fill-rule:nonzero;stroke:none"
         id="path3239"
         inkscape:connector-curvature="0" /></g><g
       id="g3241"
       transform="translate(492.2676,-10.3887)"><path
         d="m 0,0 2.217,0 0,-0.953 0.027,0 c 0.414,0.712 1.356,1.155 2.188,1.155 2.324,0 2.511,-1.692 2.511,-2.7 l 0,-4.471 -2.283,0 0,3.37 c 0,0.953 0.108,1.92 -1.142,1.92 -0.86,0 -1.235,-0.724 -1.235,-1.49 l 0,-3.8 L 0,-6.969 0,0 z"
         style="fill:#000000;fill-opacity:1;fill-rule:nonzero;stroke:none"
         id="path3243"
         inkscape:connector-curvature="0" /></g><g
       id="g3245"
       transform="translate(502.4961,-15.0615)"><path
         d="M 0,0 C 0,-0.349 0.148,-0.604 0.377,-0.778 0.592,-0.94 0.9,-1.021 1.223,-1.021 c 0.443,0 1.074,0.188 1.074,0.74 0,0.537 -0.711,0.643 -1.113,0.737 -1.438,0.363 -3.237,0.403 -3.237,2.284 0,1.679 1.813,2.135 3.182,2.135 1.529,0 3.129,-0.443 3.209,-2.257 l -2.108,0 C 2.23,2.914 2.123,3.103 1.934,3.223 1.746,3.344 1.492,3.397 1.211,3.397 0.834,3.397 0.229,3.357 0.229,2.874 0.229,2.216 1.76,2.095 2.807,1.867 4.217,1.585 4.58,0.564 4.58,-0.014 c 0,-1.866 -1.773,-2.483 -3.344,-2.483 -1.65,0 -3.343,0.551 -3.41,2.497 L 0,0 z"
         style="fill:#000000;fill-opacity:1;fill-rule:nonzero;stroke:none"
         id="path3247"
         inkscape:connector-curvature="0" /></g><g
       id="g3249"
       transform="translate(512.9688,-13.1543)"><path
         d="M 0,0 C -0.041,0.779 -0.59,1.423 -1.355,1.423 -2.162,1.423 -2.699,0.846 -2.834,0 L 0,0 z m -2.834,-1.275 c 0.041,-0.954 0.592,-1.585 1.559,-1.585 0.548,0 1.087,0.255 1.302,0.765 l 2.135,0 c -0.416,-1.612 -1.908,-2.309 -3.465,-2.309 -2.269,0 -3.814,1.369 -3.814,3.706 0,2.135 1.705,3.666 3.762,3.666 2.498,0 3.746,-1.881 3.638,-4.243 l -5.117,0 z"
         style="fill:#000000;fill-opacity:1;fill-rule:nonzero;stroke:none"
         id="path3251"
         inkscape:connector-curvature="0" /></g><g
       id="g3253"
       transform="translate(521.1152,-11.8652)"><path
         d="m 0,0 -1.102,0 0,1.477 1.102,0 c 0,2.001 0.697,2.618 2.645,2.618 0.363,0 0.738,-0.027 1.103,-0.04 l 0,-1.612 C 3.531,2.471 3.33,2.484 3.129,2.484 2.604,2.484 2.283,2.417 2.283,1.786 l 0,-0.309 1.369,0 0,-1.477 -1.369,0 0,-5.492 L 0,-5.492 0,0 z"
         style="fill:#000000;fill-opacity:1;fill-rule:nonzero;stroke:none"
         id="path3255"
         inkscape:connector-curvature="0" /></g><g
       id="g3257"
       transform="translate(528.916,-15.8125)"><path
         d="M 0,0 C 1.061,0 1.396,1.047 1.396,1.933 1.396,2.819 1.061,3.88 0,3.88 -1.063,3.88 -1.383,2.819 -1.383,1.933 -1.383,1.047 -1.063,0 0,0 m 0,5.626 c 2.162,0 3.68,-1.599 3.68,-3.693 0,-2.095 -1.518,-3.679 -3.68,-3.679 -2.162,0 -3.666,1.584 -3.666,3.679 0,2.094 1.504,3.693 3.666,3.693"
         style="fill:#000000;fill-opacity:1;fill-rule:nonzero;stroke:none"
         id="path3259"
         inkscape:connector-curvature="0" /></g><g
       id="g3261"
       transform="translate(533.8672,-10.3887)"><path
         d="m 0,0 2.215,0 0,-1.222 0.027,0 c 0.338,0.886 1.115,1.357 2.096,1.357 0.174,0 0.361,-0.014 0.537,-0.054 l 0,-2.081 c -0.295,0.08 -0.564,0.134 -0.873,0.134 -1.129,0 -1.719,-0.78 -1.719,-1.652 l 0,-3.451 L 0,-6.969 0,0 z"
         style="fill:#000000;fill-opacity:1;fill-rule:nonzero;stroke:none"
         id="path3263"
         inkscape:connector-curvature="0" /></g><g
       id="g3265"
       transform="translate(545.9355,-13.7998)"><path
         d="m 0,0 c 0,-1.222 0.35,-2.013 1.383,-2.013 1.019,0 1.371,1.06 1.371,2.013 0,0.887 -0.352,1.867 -1.358,1.867 C 0.779,1.867 0,1.438 0,0 m -2.203,3.411 2.178,0 0,-0.806 0.025,0 c 0.443,0.659 1.115,1.008 1.92,1.008 2.187,0 3.117,-1.881 3.117,-3.841 0,-1.812 -0.969,-3.531 -2.943,-3.531 -0.86,0 -1.518,0.321 -1.987,0.953 l -0.025,0 0,-3.088 -2.285,0 0,9.305 z"
         style="fill:#000000;fill-opacity:1;fill-rule:nonzero;stroke:none"
         id="path3267"
         inkscape:connector-curvature="0" /></g><g
       id="g3269"
       transform="translate(556.9707,-13.1543)"><path
         d="M 0,0 C -0.041,0.779 -0.59,1.423 -1.355,1.423 -2.16,1.423 -2.699,0.846 -2.832,0 L 0,0 z m -2.832,-1.275 c 0.039,-0.954 0.59,-1.585 1.557,-1.585 0.55,0 1.087,0.255 1.302,0.765 l 2.135,0 c -0.416,-1.612 -1.908,-2.309 -3.463,-2.309 -2.271,0 -3.814,1.369 -3.814,3.706 0,2.135 1.705,3.666 3.76,3.666 2.498,0 3.746,-1.881 3.638,-4.243 l -5.115,0 z"
         style="fill:#000000;fill-opacity:1;fill-rule:nonzero;stroke:none"
         id="path3271"
         inkscape:connector-curvature="0" /></g><g
       id="g3273"
       transform="translate(560.4727,-10.3887)"><path
         d="m 0,0 2.215,0 0,-1.222 0.027,0 c 0.338,0.886 1.115,1.357 2.096,1.357 0.174,0 0.361,-0.014 0.537,-0.054 l 0,-2.081 c -0.295,0.08 -0.564,0.134 -0.873,0.134 -1.129,0 -1.719,-0.78 -1.719,-1.652 l 0,-3.451 L 0,-6.969 0,0 z"
         style="fill:#000000;fill-opacity:1;fill-rule:nonzero;stroke:none"
         id="path3275"
         inkscape:connector-curvature="0" /></g><g
       id="g3277"
       transform="translate(566.1113,-10.3887)"><path
         d="m 0,0 2.215,0 0,-0.953 0.027,0 c 0.416,0.699 1.154,1.155 2,1.155 0.873,0 1.653,-0.282 2.028,-1.128 0.55,0.738 1.236,1.128 2.175,1.128 2.217,0 2.459,-1.679 2.459,-3.008 l 0,-4.163 -2.285,0 0,4.096 c 0,0.752 -0.361,1.194 -0.953,1.194 -0.978,0 -1.072,-0.751 -1.072,-1.879 l 0,-3.411 -2.283,0 0,3.961 c 0,0.82 -0.243,1.329 -0.862,1.329 -0.818,0 -1.166,-0.469 -1.166,-1.892 l 0,-3.398 L 0,-6.969 0,0 z"
         style="fill:#000000;fill-opacity:1;fill-rule:nonzero;stroke:none"
         id="path3279"
         inkscape:connector-curvature="0" /></g><path
       d="m 578.621,-10.389 2.283,0 0,-6.969 -2.283,0 0,6.969 z m 2.283,0.873 -2.283,0 0,1.745 2.283,0 0,-1.745 z"
       style="fill:#000000;fill-opacity:1;fill-rule:nonzero;stroke:none"
       id="path3281"
       inkscape:connector-curvature="0" /><g
       id="g3283"
       transform="translate(586.7168,-11.8652)"><path
         d="m 0,0 -1.41,0 0,-3.17 c 0,-0.55 0.324,-0.671 0.818,-0.671 0.19,0 0.391,0.028 0.592,0.028 l 0,-1.679 c -0.414,-0.014 -0.832,-0.068 -1.248,-0.068 -1.947,0 -2.443,0.564 -2.443,2.458 l 0,3.102 -1.157,0 0,1.477 1.157,0 0,2.108 2.281,0 0,-2.108 1.41,0 L 0,0 z"
         style="fill:#000000;fill-opacity:1;fill-rule:nonzero;stroke:none"
         id="path3285"
         inkscape:connector-curvature="0" /></g><g
       id="g3287"
       transform="translate(591.9395,-11.8652)"><path
         d="m 0,0 -1.412,0 0,-3.17 c 0,-0.55 0.324,-0.671 0.82,-0.671 0.19,0 0.391,0.028 0.592,0.028 l 0,-1.679 c -0.416,-0.014 -0.834,-0.068 -1.248,-0.068 -1.949,0 -2.445,0.564 -2.445,2.458 l 0,3.102 -1.157,0 0,1.477 1.157,0 0,2.108 2.281,0 0,-2.108 L 0,1.477 0,0 z"
         style="fill:#000000;fill-opacity:1;fill-rule:nonzero;stroke:none"
         id="path3289"
         inkscape:connector-curvature="0" /></g><g
       id="g3291"
       transform="translate(597.7383,-13.1543)"><path
         d="M 0,0 C -0.041,0.779 -0.592,1.423 -1.357,1.423 -2.162,1.423 -2.699,0.846 -2.834,0 L 0,0 z m -2.834,-1.275 c 0.039,-0.954 0.592,-1.585 1.557,-1.585 0.552,0 1.088,0.255 1.304,0.765 l 2.133,0 c -0.414,-1.612 -1.906,-2.309 -3.463,-2.309 -2.269,0 -3.812,1.369 -3.812,3.706 0,2.135 1.705,3.666 3.758,3.666 2.498,0 3.746,-1.881 3.638,-4.243 l -5.115,0 z"
         style="fill:#000000;fill-opacity:1;fill-rule:nonzero;stroke:none"
         id="path3293"
         inkscape:connector-curvature="0" /></g><g
       id="g3295"
       transform="translate(603.1055,-13.7998)"><path
         d="m 0,0 c 0,-0.953 0.35,-2.013 1.396,-2.013 1.116,0 1.358,1.06 1.358,1.947 0,1.006 -0.363,1.933 -1.358,1.933 C 0.35,1.867 0,0.887 0,0 m 4.955,-3.558 -2.174,0 0,0.806 -0.027,0 C 2.311,-3.41 1.639,-3.759 0.832,-3.759 c -2.187,0 -3.113,1.88 -3.113,3.84 0,1.814 0.967,3.532 2.939,3.532 0.86,0 1.518,-0.322 1.987,-0.954 l 0.029,0 0,3.37 2.281,0 0,-9.587 z"
         style="fill:#000000;fill-opacity:1;fill-rule:nonzero;stroke:none"
         id="path3297"
         inkscape:connector-curvature="0" /></g><g
       id="g3299"
       transform="translate(620.7734,-17.3574)"><path
         d="m 0,0 -2.215,0 0,0.953 -0.027,0 c -0.43,-0.711 -1.315,-1.154 -2.121,-1.154 -2.002,0 -2.578,1.154 -2.578,2.98 l 0,4.19 2.281,0 0,-4.041 c 0,-0.927 0.404,-1.249 1.129,-1.249 0.496,0 1.248,0.322 1.248,1.557 l 0,3.733 L 0,6.969 0,0 z"
         style="fill:#000000;fill-opacity:1;fill-rule:nonzero;stroke:none"
         id="path3301"
         inkscape:connector-curvature="0" /></g><g
       id="g3303"
       transform="translate(624.0742,-15.0615)"><path
         d="m 0,0 c 0,-0.349 0.146,-0.604 0.375,-0.778 0.215,-0.162 0.523,-0.243 0.846,-0.243 0.443,0 1.074,0.188 1.074,0.74 0,0.537 -0.711,0.643 -1.113,0.737 -1.438,0.363 -3.239,0.403 -3.239,2.284 0,1.679 1.813,2.135 3.184,2.135 1.531,0 3.129,-0.443 3.211,-2.257 l -2.109,0 c 0,0.296 -0.108,0.485 -0.295,0.605 -0.188,0.121 -0.446,0.174 -0.727,0.174 -0.375,0 -0.978,-0.04 -0.978,-0.523 0,-0.658 1.531,-0.779 2.578,-1.007 1.41,-0.282 1.771,-1.303 1.771,-1.881 0,-1.866 -1.771,-2.483 -3.344,-2.483 -1.652,0 -3.343,0.551 -3.41,2.497 L 0,0 z"
         style="fill:#000000;fill-opacity:1;fill-rule:nonzero;stroke:none"
         id="path3305"
         inkscape:connector-curvature="0" /></g><g
       id="g3307"
       transform="translate(634.5449,-13.1543)"><path
         d="M 0,0 C -0.039,0.779 -0.59,1.423 -1.355,1.423 -2.162,1.423 -2.697,0.846 -2.834,0 L 0,0 z m -2.834,-1.275 c 0.041,-0.954 0.592,-1.585 1.559,-1.585 0.55,0 1.086,0.255 1.302,0.765 l 2.135,0 c -0.416,-1.612 -1.906,-2.309 -3.465,-2.309 -2.267,0 -3.812,1.369 -3.812,3.706 0,2.135 1.705,3.666 3.76,3.666 2.498,0 3.746,-1.881 3.638,-4.243 l -5.117,0 z"
         style="fill:#000000;fill-opacity:1;fill-rule:nonzero;stroke:none"
         id="path3309"
         inkscape:connector-curvature="0" /></g><path
       d="m 638.074,-14.859 2.498,0 0,-2.498 -2.498,0 0,2.498 z"
       style="fill:#000000;fill-opacity:1;fill-rule:nonzero;stroke:none"
       id="path3311"
       inkscape:connector-curvature="0" /></g></g>
<g
   id="g6404"><g
     transform="matrix(0.67215369,0,0,0.67216365,-10.6301,-88.664501)"
     id="g3645"><g
       id="g3647" /><g
       id="g3685"><g
         id="g3687"
         clip-path="url(#clipPath3649)"><g
           id="g3689"><g
             id="g3691" /><g
             id="g3693"><g
               id="g3695"
               clip-path="url(#clipPath3653)"><g
                 id="g3697"
                 transform="translate(121.7881,145.2451)"><path
                   inkscape:connector-curvature="0"
                   id="path3699"
                   style="fill:#ffffff;fill-opacity:1;fill-rule:nonzero;stroke:none"
                   d="m 0,0 c -55.963,0 -101.492,45.529 -101.492,101.493 0,55.962 45.529,101.491 101.492,101.491 27.488,0 56.879,-15.448 87.358,-45.913 22.645,-22.637 37.577,-45.446 39.205,-47.972 l 4.749,-7.37 -4.537,-7.502 C 125.242,91.689 111.144,68.778 88.865,46.054 58.909,15.494 29.01,0 0,0" /></g></g></g></g><g
           id="g3701"><g
             id="g3703" /><g
             id="g3705"><g
               id="g3707"
               clip-path="url(#clipPath3657)"><g
                 id="g3709"
                 transform="translate(121.7881,347.4033)"><path
                   inkscape:connector-curvature="0"
                   id="path3711"
                   style="fill:#fbfcfc;fill-opacity:1;fill-rule:nonzero;stroke:none"
                   d="m 0,0 c 27.958,0 57.371,-16.304 86.677,-45.575 22.171,-22.143 36.949,-44.506 38.982,-47.617 0.112,-0.166 1.27,-1.961 1.297,-2.001 l 3.383,-5.249 -3.028,-5.006 c -0.021,-0.035 -1.315,-2.175 -1.397,-2.305 -1.862,-3.043 -15.83,-25.536 -37.673,-47.809 C 59.43,-184.942 29.547,-201.331 0,-201.331 c -55.508,0 -100.667,45.158 -100.667,100.665 C -100.667,-45.159 -55.508,0 0,0" /></g></g></g></g><g
           id="g3713"><g
             id="g3715" /><g
             id="g3717"><g
               id="g3719"
               clip-path="url(#clipPath3661)"><g
                 id="g3721"
                 transform="translate(121.7881,346.5771)"><path
                   inkscape:connector-curvature="0"
                   id="path3723"
                   style="fill:#f8f8f8;fill-opacity:1;fill-rule:nonzero;stroke:none"
                   d="m 0,0 c 28.429,0 57.862,-17.16 85.997,-45.237 21.697,-21.649 36.322,-43.565 38.76,-47.261 0.224,-0.333 1.271,-1.955 1.323,-2.036 l 3.285,-5.096 -2.968,-4.908 c -0.042,-0.068 -1.181,-1.951 -1.344,-2.211 -2.192,-3.548 -16.029,-25.623 -37.438,-47.443 C 59.953,-182.396 30.084,-199.68 0,-199.68 c -55.053,0 -99.841,44.788 -99.841,99.841 C -99.841,-44.788 -55.053,0 0,0" /></g></g></g></g><g
           id="g3725"><g
             id="g3727" /><g
             id="g3729"><g
               id="g3731"
               clip-path="url(#clipPath3665)"><g
                 id="g3733"
                 transform="translate(121.7881,345.751)"><path
                   inkscape:connector-curvature="0"
                   id="path3735"
                   style="fill:#f4f5f5;fill-opacity:1;fill-rule:nonzero;stroke:none"
                   d="m 0,0 c 28.899,0 58.354,-18.016 85.316,-44.899 21.223,-21.156 35.696,-42.625 38.538,-46.905 0.336,-0.499 1.272,-1.95 1.35,-2.071 l 3.187,-4.942 -2.908,-4.81 c -0.063,-0.103 -1.047,-1.729 -1.292,-2.116 -2.521,-4.056 -16.227,-25.711 -37.2,-47.082 C 60.475,-179.847 30.622,-198.027 0,-198.027 c -54.597,0 -99.015,44.417 -99.015,99.014 C -99.015,-44.417 -54.597,0 0,0" /></g></g></g></g><g
           id="g3737"><g
             id="g3739" /><g
             id="g3741"><g
               id="g3743"
               clip-path="url(#clipPath3669)"><g
                 id="g3745"
                 transform="translate(121.7881,344.9253)"><path
                   inkscape:connector-curvature="0"
                   id="path3747"
                   style="fill:#f1f1f2;fill-opacity:1;fill-rule:nonzero;stroke:none"
                   d="m 0,0 c 29.369,0 58.845,-18.872 84.636,-44.562 20.749,-20.661 35.068,-41.684 38.315,-46.548 0.448,-0.666 1.274,-1.944 1.378,-2.105 l 3.088,-4.791 -2.848,-4.709 c -0.084,-0.139 -0.913,-1.507 -1.239,-2.024 -2.85,-4.561 -16.426,-25.8 -36.964,-46.718 -25.37,-25.842 -55.207,-44.919 -86.366,-44.919 -54.142,0 -98.189,44.046 -98.189,98.188 C -98.189,-44.047 -54.142,0 0,0" /></g></g></g></g><g
           id="g3749"><g
             id="g3751" /><g
             id="g3753"><g
               id="g3755"
               clip-path="url(#clipPath3673)"><g
                 id="g3757"
                 transform="translate(121.7881,344.0996)"><path
                   inkscape:connector-curvature="0"
                   id="path3759"
                   style="fill:#edeeef;fill-opacity:1;fill-rule:nonzero;stroke:none"
                   d="m 0,0 c 29.84,0 59.336,-19.729 83.956,-44.224 20.274,-20.168 34.44,-40.744 38.092,-46.193 0.561,-0.833 1.276,-1.937 1.405,-2.139 l 2.991,-4.638 -2.789,-4.612 c -0.105,-0.173 -0.779,-1.283 -1.186,-1.929 -3.179,-5.069 -16.625,-25.886 -36.728,-46.353 C 61.518,-174.752 31.695,-194.724 0,-194.724 c -53.686,0 -97.363,43.676 -97.363,97.362 C -97.363,-43.677 -53.686,0 0,0" /></g></g></g></g><g
           id="g3761"><g
             id="g3763" /><g
             id="g3765"><g
               id="g3767"
               clip-path="url(#clipPath3677)"><g
                 id="g3769"
                 transform="translate(121.7881,343.2734)"><path
                   inkscape:connector-curvature="0"
                   id="path3771"
                   style="fill:#eaeaeb;fill-opacity:1;fill-rule:nonzero;stroke:none"
                   d="m 0,0 c 30.31,0 59.828,-20.584 83.275,-43.886 19.8,-19.674 33.813,-39.802 37.87,-45.837 0.673,-0.999 1.277,-1.931 1.433,-2.173 l 2.893,-4.486 -2.729,-4.513 c -0.126,-0.207 -0.645,-1.061 -1.135,-1.835 -3.508,-5.575 -16.823,-25.975 -36.491,-45.989 C 62.041,-172.205 32.233,-193.072 0,-193.072 c -53.23,0 -96.537,43.305 -96.537,96.536 C -96.537,-43.306 -53.23,0 0,0" /></g></g></g></g><g
           id="g3773"><g
             id="g3775" /><g
             id="g3777"><g
               id="g3779"
               clip-path="url(#clipPath3681)"><g
                 id="g3781"
                 transform="translate(121.7881,151.0264)"><path
                   inkscape:connector-curvature="0"
                   id="path3783"
                   style="fill:#e6e7e8;fill-opacity:1;fill-rule:nonzero;stroke:none"
                   d="m 0,0 c -52.775,0 -95.711,42.937 -95.711,95.711 0,52.775 42.936,95.71 95.711,95.71 62.185,0 119.301,-87.51 121.703,-91.236 l 2.794,-4.334 -2.669,-4.413 C 119.571,87.704 65.785,0 0,0" /></g></g></g></g></g></g></g><g
     transform="matrix(0.67215369,0,0,0.67216365,153.03308,80.19067)"
     id="g3785"><path
       inkscape:connector-curvature="0"
       id="path3787"
       style="fill:#00a14b;fill-opacity:1;fill-rule:nonzero;stroke:none"
       d="m 0,0 c -2.401,3.726 -59.518,91.236 -121.703,91.236 -52.775,0 -95.711,-42.935 -95.711,-95.71 0,-52.775 42.936,-95.711 95.711,-95.711 65.785,0 119.571,87.704 121.828,91.438 L 2.794,-4.334 0,0 z" /></g><g
     transform="matrix(0.67215369,0,0,0.67216365,71.23022,12.849956)"
     id="g3789"><path
       inkscape:connector-curvature="0"
       id="path3791"
       style="fill:#f1f1f2;fill-opacity:1;fill-rule:nonzero;stroke:none"
       d="m 0,0 c -52.775,0 -95.711,42.937 -95.711,95.711 0,52.775 42.936,95.71 95.711,95.71 62.185,0 119.301,-87.51 121.703,-91.236 l 2.794,-4.334 -2.669,-4.413 C 119.571,87.704 65.785,0 0,0" /></g><g
     transform="matrix(0.67215369,0,0,0.67216365,148.36671,77.183679)"
     id="g3793"><path
       inkscape:connector-curvature="0"
       id="path3795"
       style="fill:#f1f1f2;fill-opacity:1;fill-rule:nonzero;stroke:none"
       d="m 0,0 c 0,0 -52.877,-87.453 -114.76,-87.453 -48.299,0 -87.451,39.155 -87.451,87.453 0,48.297 39.152,87.45 87.451,87.45 C -56.363,87.45 0,0 0,0" /></g><g
     style="fill:#6bc6c0;fill-opacity:1"
     transform="matrix(0.67215369,0,0,0.67216365,148.36671,77.183679)"
     id="g3797"><path
       inkscape:connector-curvature="0"
       id="path3799"
       style="fill:#6bc6c0;fill-opacity:1;fill-rule:nonzero;stroke:none"
       d="m 0,0 c 0,0 -52.877,-87.453 -114.76,-87.453 -48.299,0 -87.451,39.155 -87.451,87.453 0,48.297 39.152,87.45 87.451,87.45 C -56.363,87.45 0,0 0,0" /></g><g
     id="text5196"
     style="font-size:27.04218674px;font-style:normal;font-variant:normal;font-weight:normal;font-stretch:normal;text-align:start;line-height:125%;letter-spacing:0px;word-spacing:0px;writing-mode:lr-tb;text-anchor:start;fill:#ffffff;fill-opacity:1;stroke:none;font-family:FZZhunYuan-M02S;-inkscape-font-specification:FZZhunYuan-M02S"
     transform="scale(1,-1)"><path
       id="path6400"
       style=""
       d="m 62.773803,-88.432643 c -1.6e-5,1.408467 -0.07044,2.71128 -0.211268,3.908442 l 7.605615,0 c 1.760535,-0.21125 2.570391,0.669028 2.429572,2.640838 l 0,14.894329 c -0.352137,2.112669 -2.640861,2.535203 -6.86618,1.267603 -0.774664,-0.281691 -1.091564,-0.774647 -0.950702,-1.47887 0.281672,-0.6338 0.809839,-0.880278 1.584503,-0.739434 2.816873,0.91549 4.190107,0.845068 4.119708,-0.211267 l 0,-12.992926 c 0.0704,-0.915476 -0.246501,-1.33801 -0.950702,-1.267603 l -7.183081,0 c -0.07044,1.267617 -0.281704,2.359162 -0.633801,3.27464 3.028144,1.971836 5.704192,4.119716 8.028149,6.443646 0.633779,0.704228 0.704201,1.302818 0.211267,1.79577 -0.633823,0.49296 -1.267623,0.422538 -1.901403,-0.211267 -1.478889,-1.690131 -3.838036,-3.697166 -7.077448,-6.021112 -0.915503,2.253523 -3.063383,4.330981 -6.443646,6.232379 -0.70423,0.352115 -1.267608,0.246482 -1.690136,-0.3169 -0.281695,-0.633797 -0.07043,-1.161964 0.633801,-1.584503 3.87322,-1.760552 6.126733,-4.964766 6.760547,-9.612653 l -6.866181,0 c -0.845073,-0.07041 -1.232396,0.352127 -1.161969,1.267603 l 0,15.105596 c -0.07043,0.6338 -0.422538,0.985911 -1.056335,1.056336 -0.704227,-0.07043 -1.091549,-0.422536 -1.161969,-1.056336 l 0,-16.373199 c -0.07043,-1.478853 0.739432,-2.183076 2.429571,-2.11267 l 8.02815,0 c -1.3e-5,-0.492939 0.0352,-1.197162 0.105633,-2.112671 -1.3e-5,-0.845049 -1.3e-5,-1.478849 0,-1.901404 0.07041,-0.774624 0.457732,-1.197158 1.161969,-1.267603 0.704209,0.07045 1.05632,0.52819 1.056336,1.373236 z" /><path
       id="path6402"
       style=""
       d="m 83.372343,-83.996034 c 0.56337,-0.422517 1.091537,-0.352095 1.584503,0.211267 0.352101,0.633817 0.246468,1.161984 -0.3169,1.584503 -2.253524,1.69015 -4.471826,2.957751 -6.654913,3.802808 -0.704227,0.211278 -1.232394,0.03522 -1.584504,-0.528168 -0.211268,-0.633789 -1e-6,-1.091534 0.633802,-1.373236 2.323933,-0.985899 4.436602,-2.218289 6.338012,-3.697174 z m 4.330975,2.535205 c 0.563366,1.4e-5 1.971811,0.704237 4.225342,2.112671 3.380253,2.042258 6.161933,3.485915 8.34505,4.330975 0.63377,0.352119 0.80983,0.880287 0.52817,1.584503 -0.28172,0.563385 -0.809885,0.704229 -1.584506,0.422535 -2.605649,-1.126751 -5.70423,-2.816886 -9.295751,-5.07041 -1.197194,-0.774635 -1.866206,-1.161958 -2.007037,-1.161969 -0.140858,1.1e-5 -0.598603,0.281701 -1.373237,0.845068 -3.02817,2.464791 -6.197173,4.366193 -9.507018,5.704211 -0.774648,0.281695 -1.338026,0.14085 -1.690137,-0.422534 -0.211268,-0.774639 0.07042,-1.302807 0.845068,-1.584503 2.957735,-1.126749 5.950682,-2.887307 8.978851,-5.281677 1.267591,-0.9859 2.112659,-1.478856 2.535205,-1.47887 z m 9.401386,9.82392 0,4.436608 c 0.0704,1.549291 -0.669035,2.288725 -2.218305,2.218305 l -12.676025,0 c -1.760565,0.07042 -2.605632,-0.739437 -2.535205,-2.429572 l 0,-4.330975 c -0.07043,-1.478864 0.633796,-2.183087 2.112671,-2.112671 l 13.098559,0 c 1.619693,-0.140838 2.359127,0.598596 2.218305,2.218305 z m 1.056335,-15.950665 c 2.112641,2e-5 2.711231,1.514099 1.79577,4.542242 -0.211292,0.704239 -0.633826,0.985928 -1.267602,0.845068 -0.704247,-0.281674 -0.915514,-0.739419 -0.633801,-1.373236 0.352088,-1.12674 0.176032,-1.795752 -0.528168,-2.007037 l -18.168969,0 c -0.563383,1.8e-5 -0.845073,0.281707 -0.845069,0.845068 l 0,1.584504 c -4e-6,0.704238 -0.316904,1.091561 -0.950702,1.161969 -0.704225,-0.07041 -1.056337,-0.457731 -1.056335,-1.161969 l 0,-2.640839 c -2e-6,-1.197161 0.598588,-1.79575 1.79577,-1.79577 l 8.767584,0 c -1.2e-5,-0.0704 -0.03522,-0.140825 -0.105633,-0.211267 -0.140857,-0.422514 -0.281702,-0.704203 -0.422535,-0.845069 -0.352123,-0.633779 -0.246489,-1.161946 0.316901,-1.584503 0.633788,-0.211244 1.161956,2.3e-5 1.584503,0.633802 0.140831,0.422555 0.42252,1.091567 0.845069,2.007037 z m -15.633764,15.739398 c -0.563386,4e-6 -0.845076,0.246482 -0.845068,0.739434 l 0,3.591541 c -8e-6,0.352111 0.24647,0.528167 0.739434,0.528167 l 11.61969,0 c 0.633781,0 0.950681,-0.246478 0.950702,-0.739434 l 0,-3.380274 c 0.0704,-0.492952 -0.211287,-0.73943 -0.845069,-0.739434 z m 14.894329,-6.866181 c -2.112691,-1.619701 -4.049304,-2.81688 -5.809845,-3.59154 -0.633817,-0.281674 -0.880295,-0.739419 -0.739434,-1.373236 0.281673,-0.633784 0.774629,-0.845051 1.478869,-0.633801 2.183074,0.985929 4.260531,2.218319 6.232379,3.697174 0.563355,0.563391 0.704199,1.126769 0.422534,1.690136 -0.422558,0.56339 -0.950725,0.633812 -1.584503,0.211267 z" /></g><g
     id="text6350"
     style="font-size:18.55453873px;font-style:normal;font-variant:normal;font-weight:normal;font-stretch:normal;text-align:start;line-height:125%;letter-spacing:0px;word-spacing:0px;writing-mode:lr-tb;text-anchor:start;fill:#000000;fill-opacity:1;stroke:none;font-family:FZLanTingHeiS-UL-GB;-inkscape-font-specification:FZLanTingHeiS-UL-GB"
     transform="scale(1,-1)"><path
       id="path6357"
       style=""
       d="m 197.46868,-88.568994 9.34975,0 0,6.378122 c -2e-5,0.579829 -0.16914,1.014701 -0.50735,1.304616 -0.33825,0.289914 -0.89392,0.434871 -1.66701,0.434872 l -2.10188,-0.07248 0,-0.362394 2.10188,0.07248 c 0.72477,-10e-7 1.20796,-0.120799 1.44957,-0.362393 0.24158,-0.193277 0.36238,-0.531511 0.36239,-1.014702 l 0,-1.159658 -8.62496,0 0,3.044104 -0.36239,0 z m 0.36239,0.362393 0,2.101881 8.62496,0 0,-2.101881 z m 0,2.464275 0,2.029402 8.62496,0 0,-2.029402 z m 4.13129,-11.379151 0.36239,0 0,2.029403 5.72581,0 0,0.289914 -5.72581,0 0,1.884446 5.07351,0 0,0.362393 -5.07351,0 0,1.811967 6.01573,0 0,0.362393 -12.46633,0 0,-0.362393 6.08821,0 0,-1.811967 -5.14599,0 0,-0.362393 5.14599,0 0,-1.884446 -5.65334,0 0,-0.289914 5.65334,0 z m -10.65437,6.233165 2.60923,0 0,9.132312 2.02941,-2.029402 0.28991,0.217436 -2.24684,2.319317 c -0.0966,0.09664 -0.2416,0.265754 -0.43487,0.507351 l -0.28991,-0.217436 c 0.24159,-0.338235 0.33823,-0.531511 0.28991,-0.57983 l 0,-8.987354 -2.24684,0 z m 1.15966,-5.653336 0.28992,-0.217436 2.24683,3.116583 -0.28991,0.217436 z" /><path
       id="path6359"
       style=""
       d="m 216.53057,-90.236004 4.20376,0 0,8.117611 c 0.0483,1.063019 -0.41072,1.57037 -1.37709,1.522052 -0.53152,-1e-6 -0.89392,-0.02416 -1.08718,-0.07248 l 0,-0.362393 c 0.19326,0.04832 0.55566,0.07248 1.08718,0.07248 0.72477,0.04832 1.06301,-0.338235 1.0147,-1.159659 l 0,-2.029403 -3.47898,0 0,3.768891 -0.36239,0 z m -6.4506,-3.841369 1.88444,0 c 0.0483,-0.193264 0.1208,-0.483179 0.21744,-0.869744 0.19327,-0.579816 0.36239,-1.304602 0.50735,-2.17436 l 0.36239,0.07248 c -0.0483,0.24161 -0.1208,0.604003 -0.21743,1.08718 -0.2416,0.821438 -0.41072,1.449585 -0.50735,1.884445 l 3.18906,0 0,0.289915 -3.26154,0 c -0.33824,1.401264 -0.82143,3.116591 -1.44958,5.145985 l 2.31932,0 0,-3.696412 0.28992,0 0,3.696412 1.81196,0 0,0.289915 -1.81196,0 0,3.406497 2.31931,-0.362393 0.0725,0.362393 -2.39179,0.362393 0,4.34872 -0.28992,0 0,-4.34872 -3.18906,0.434872 -0.0725,-0.362393 3.26154,-0.434872 0,-3.406497 -2.68171,0 0,-0.289915 c 0.57983,-1.73948 1.06302,-3.454806 1.44957,-5.145985 l -1.81196,0 z m 6.81299,7.030431 0,2.536753 3.47898,0 0,-2.536753 z m 0,-2.826668 0,2.464274 3.47898,0 0,-2.464274 z m -1.37709,-1.449574 c 2.5609,-1.449562 4.56614,-3.406484 6.01573,-5.870772 l 0.36239,0.217436 -0.36239,0.507351 c 1.40124,2.077734 3.18904,3.720582 5.36342,4.928549 l -0.14496,0.362394 c -2.27101,-1.352925 -4.08298,-3.019933 -5.4359,-5.001028 -1.44958,2.174372 -3.33403,3.889698 -5.65334,5.145985 z m 9.71214,1.159659 0.36239,0 0,8.045132 c 0.0966,1.111339 -0.45905,1.618689 -1.66701,1.522052 l -1.23213,0 0,-0.362393 1.23213,0 c 0.96637,0.09664 1.40124,-0.289916 1.30462,-1.159659 z m -2.53675,0.652308 0.36239,0 0,6.160687 -0.36239,0 z m -3.7689,-3.189061 4.71112,0 0,0.362393 -4.71112,0 z" /><path
       id="path6361"
       style=""
       d="m 233.92545,-96.251733 0.14496,-0.289915 c 1.73948,1.25631 2.94745,2.82668 3.62393,4.711114 1.64284,4.300406 4.17959,7.876017 7.61026,10.726842 l -0.21744,0.217436 c -3.52731,-2.899145 -6.08822,-6.498915 -7.68274,-10.799321 -0.0483,-0.144948 -0.1208,-0.314064 -0.21743,-0.507351 -0.0967,-0.241585 -0.16913,-0.410702 -0.21744,-0.50735 -1.30462,4.831917 -4.01049,8.842399 -8.11761,12.031458 l -0.21743,-0.289914 c 4.10712,-3.140741 6.78882,-7.199542 8.04513,-12.176416 -0.4832,-1.01469 -1.40126,-2.053549 -2.75419,-3.116583 z" /><path
       id="path6363"
       style=""
       d="m 251.90016,-91.178226 5.87077,0 0,-3.986327 c -1.20799,0.04833 -2.85084,0.07249 -4.92855,0.07248 l 0,-0.362394 c 3.72056,-0.0483 7.12706,-0.217422 10.21949,-0.50735 l 0,0.362393 c -1.54622,0.19329 -3.18907,0.314087 -4.92855,0.362393 l 0,4.058806 5.87078,0 0,0.362393 -5.87078,0 0,3.768891 4.4212,0 0,6.668037 -0.36239,0 0,-1.377095 -8.48,0 0,1.377095 -0.3624,0 0,-6.668037 4.4212,0 0,-3.768891 -5.87077,0 z m 1.81197,4.493677 0,4.566156 8.48,0 0,-4.566156 z m -5.72582,6.160687 2.31932,-6.450602 0.36239,0.144958 -2.31932,6.378122 z m -1.0147,-11.234194 0.21744,-0.289914 3.55145,2.536753 -0.21744,0.289915 z m 1.30462,-4.421198 0.21743,-0.289915 3.04411,2.391796 -0.21744,0.289915 z" /><path
       id="path6365"
       style=""
       d="m 273.86119,-92.990193 2.53676,0 0.0725,-4.131284 0.36239,0 -0.0725,4.131284 4.56616,0 -0.21744,10.147013 c -2e-5,1.256297 -0.7248,1.860285 -2.17436,1.811967 -0.91808,-1e-6 -1.52206,-0.02416 -1.81197,-0.07248 l 0,-0.362393 c 0.28991,0.04832 0.89389,0.07248 1.81197,0.07248 1.20796,0.04832 1.81195,-0.434873 1.81197,-1.449574 l 0.21743,-9.78462 -4.20376,0 c -0.0483,3.478983 -0.31408,5.991575 -0.79726,7.537782 -0.43489,1.642851 -1.37711,3.23738 -2.82667,4.783592 l -0.28992,-0.217436 c 1.40125,-1.546212 2.31931,-3.092422 2.75419,-4.638635 0.48318,-1.546207 0.74894,-4.034639 0.79727,-7.465303 l -2.53676,0 z m -7.68273,10.002056 c 1.11133,-2.0294 2.10187,-4.372874 2.97162,-7.030431 l -3.55145,0 0,-0.362393 8.04513,0 0,0.362393 -4.13129,0 c -0.72479,2.222685 -1.69117,4.56616 -2.89914,7.030431 l 5.79829,-0.434872 -1.73949,-4.131284 0.3624,-0.144957 2.24684,5.4359 -0.28992,0.144957 -0.43487,-0.942223 -6.08821,0.434872 -0.43487,0.07248 -0.14496,-0.289915 z m 0.28991,-12.248895 6.4506,0 0,0.362394 -6.4506,0 z" /><path
       id="path6367"
       style=""
       d="m 292.48821,-97.121477 0.36239,0 c -10e-6,0.821439 -10e-6,1.932778 0,3.334019 l 6.66804,0 0,10.654364 c 0.14494,1.739487 -0.74896,2.536752 -2.68171,2.391796 l -2.0294,0 0,-0.362394 2.0294,0 c 1.73947,0.144957 2.51258,-0.53151 2.31932,-2.029402 l 0,-10.291971 -6.30565,0 c -10e-6,0.628159 -0.0242,1.135509 -0.0725,1.522052 0.14495,2.754196 -1.54622,5.17015 -5.0735,7.247867 l -0.21744,-0.289915 c 3.47897,-2.077717 5.12182,-4.397032 4.92855,-6.957952 0.0483,-0.386543 0.0725,-0.893893 0.0725,-1.522052 l -6.37812,0 0,12.901203 -0.3624,0 0,-13.263596 6.74052,0 c -10e-6,-1.401241 -10e-6,-2.51258 0,-3.334019 z m 0.21743,7.755217 0.21744,-0.217436 4.71111,4.276242 -0.21743,0.289914 z" /><path
       id="path6369"
       style=""
       d="m 305.67933,-86.032241 11.01676,0 0,5.725815 -0.3624,0 0,-1.232138 -10.29197,0 0,1.232138 -0.36239,0 z m 0.36239,0.362393 0,3.768891 10.29197,0 0,-3.768891 z m 4.56616,-11.37915 0.36239,-0.07248 0.79727,2.246839 6.95795,0 0,2.826668 -0.28992,0 0,-2.464275 -14.42325,0 0,2.391796 -0.36239,0 0,-2.754189 7.75521,0 z m -7.90018,11.306672 c 3.96217,-1.546207 6.88547,-3.334012 8.76992,-5.363422 l 0.28992,0.217436 -0.28992,0.362394 c 1.88444,1.787813 4.61446,3.358183 8.19009,4.711113 l -0.14496,0.289915 c -3.62394,-1.352931 -6.40229,-2.94746 -8.33504,-4.783592 -2.17437,1.981089 -4.97687,3.623938 -8.40753,4.928549 z m 0.65231,-3.913848 c 2.46427,-1.256288 4.32456,-2.367627 5.58086,-3.334019 l 0.21744,0.289915 c -1.78782,1.304625 -3.6481,2.415963 -5.58086,3.334018 z m 9.8571,-2.899147 0.14496,-0.362393 5.58086,2.971625 -0.14496,0.362393 z" /><path
       id="path6371"
       style=""
       d="m 192.75757,-58.635305 0,-13.408553 4.71111,0 0,13.263596 -0.28992,0 0,-1.594531 -4.0588,0 0,1.739488 z m 0.36239,-13.04616 0,5.363421 4.0588,0 0,-5.363421 z m 0,5.725815 0,5.218464 4.0588,0 0,-5.218464 z m 5.4359,-3.84137 6.81299,0 0,-3.696412 0.3624,0 0,3.696412 2.68171,0 0,0.362394 -2.68171,0 0,9.277269 c 0.0966,1.739488 -0.74896,2.560912 -2.53676,2.464275 -1.2563,-1e-6 -2.17437,-0.02416 -2.75419,-0.07248 l 0.0725,-0.289915 c 0.96637,0 1.86028,0 2.68171,0 1.5462,0.09664 2.27099,-0.603989 2.17436,-2.101881 l 0,-9.277269 -6.81299,0 z m 1.23214,3.116583 0.28991,-0.217436 2.68171,3.986327 -0.28991,0.217436 z" /><path
       id="path6373"
       style=""
       d="m 214.79108,-68.854797 7.17539,0 0,8.045132 -7.17539,0 z m 6.88547,0.289915 -6.52308,0 0,3.623933 6.52308,0 z m -6.52308,7.465302 6.52308,0 0,-3.551454 -6.52308,0 z m 1.08718,-11.306672 9.42223,0 0,12.756246 c 0.0966,1.691168 -0.70064,2.488432 -2.3918,2.391796 -0.2416,-2e-6 -0.67648,-2e-6 -1.30461,0 -0.62816,-0.04832 -1.08719,-0.07248 -1.3771,-0.07248 l 0,-0.362393 c 0.91806,-1e-6 1.81196,-1e-6 2.68171,0 1.49788,0.144956 2.17435,-0.507352 2.02941,-1.956924 l 0,-12.393852 -9.05984,0 z m -5.14598,2.029403 0.36239,0 0,13.263596 -0.36239,0 z m 0.57983,-3.189061 0.21743,-0.217436 2.82667,2.899146 -0.21743,0.217436 z" /><path
       id="path6375"
       style=""
       d="m 230.59143,-62.259238 0.28991,-0.217436 3.91385,4.34872 -0.28991,0.217436 z" /><path
       id="path6377"
       style=""
       d="m 253.85708,-71.681465 0.3624,0 0,4.638635 3.98632,-1.377095 0,-5.363421 0.3624,0 0,5.218464 4.56615,-1.594531 -0.14496,5.290943 c -0.0483,1.594535 -0.70064,2.34348 -1.95692,2.246838 l -1.37709,-0.07248 0,-0.362394 1.37709,0.07248 c 1.06301,0.09664 1.59451,-0.531506 1.59453,-1.884445 l 0.14496,-4.783592 -4.20376,1.522052 0,7.61026 -0.3624,0 0,-7.537782 -3.98632,1.377095 0,5.870772 c -0.24161,1.932765 0.74893,2.778348 2.97162,2.536753 l 3.47898,0 c 1.83611,0.09664 2.77833,-0.53151 2.82667,-1.884445 0.0966,-0.579827 0.14494,-1.207975 0.14495,-1.884445 l 0.3624,0 c -2e-5,0.628151 -0.0483,1.280458 -0.14496,1.956924 -0.0967,1.546211 -1.15968,2.270997 -3.18906,2.17436 l -3.47898,0 c -2.41596,0.241594 -3.5273,-0.724787 -3.33402,-2.899147 l 0,-5.725815 -1.81196,0.652308 -0.14496,-0.362393 1.95692,-0.652308 z m -6.4506,3.334019 0,-0.362394 2.31932,0 0,-5.145985 0.36239,0 0,5.145985 2.46428,0 0,0.362394 -2.46428,0 0,7.682738 2.82667,-0.869744 0.0725,0.362394 -5.94325,1.811966 -0.14496,-0.362393 2.82667,-0.869744 0,-7.755217 z" /><path
       id="path6379"
       style=""
       d="m 273.35384,-73.855825 0.3624,0 0,2.536753 8.55248,0 0,0.362394 -8.55248,0 0,2.899146 6.74051,0 0,5.4359 -12.75624,0 0,-5.4359 5.65333,0 z m 6.74052,6.160687 -12.03146,0 0,4.711113 12.03146,0 z m -14.2783,10.436928 c 1.06302,-1.546212 1.81197,-2.899146 2.24684,-4.058806 l 0.36239,0.144958 c -0.62815,1.401255 -1.40125,2.778348 -2.31931,4.131284 z m 13.84343,-3.696412 0.28991,-0.217436 c 0.96637,1.352936 1.76363,2.585072 2.3918,3.696412 l -0.28992,0.217436 c -0.62816,-1.11134 -1.42543,-2.343476 -2.39179,-3.696412 z m -8.62496,-0.07248 0.36239,-0.144957 c 0.72478,1.691169 1.20797,2.899146 1.44957,3.623933 l -0.36239,0.144957 c -0.2416,-0.724787 -0.72479,-1.932764 -1.44957,-3.623933 z m 4.27624,0.07248 0.28991,-0.144958 c 0.86973,1.546213 1.44956,2.681711 1.73949,3.406498 l -0.36239,0.07248 c -0.62816,-1.304616 -1.18383,-2.415954 -1.66701,-3.334018 z" /><path
       id="path6381"
       style=""
       d="m 286.25504,-62.259238 0.28992,-0.217436 3.91385,4.34872 -0.28992,0.217436 z" /><path
       id="path6383"
       style=""
       d="m 302.63523,-63.201461 c 2.65754,-1.063015 4.7111,-2.391789 6.16068,-3.986327 l -5.65333,0 0,-0.362393 6.01573,0 c 0.48318,-0.57982 0.86973,-1.159649 1.15965,-1.739488 l 0.3624,0.144957 c -0.0967,0.144968 -0.21745,0.338244 -0.3624,0.57983 -0.28992,0.4832 -0.53151,0.821433 -0.72478,1.014701 l 9.63966,0 0,0.362393 -5.65334,0 c 1.30461,1.739495 3.33401,3.068269 6.08821,3.986327 l -0.0725,0.289915 c -2.85084,-0.918058 -5.0252,-2.343471 -6.52308,-4.276242 l -3.76889,0 c -1.59453,1.787814 -3.76889,3.213226 -6.52308,4.276242 z m 10.5094,-9.204791 0.21744,-0.289914 4.78359,3.478976 -0.21744,0.289914 -1.37709,-1.014701 -11.23419,0.289915 -1.01471,0.07248 0,-0.362393 0.65231,-0.07248 c 1.54621,-0.918051 3.2857,-2.222665 5.21847,-3.913848 l 0.21743,0.217436 c -1.59453,1.497906 -3.1649,2.730042 -4.71111,3.696412 l 10.43693,-0.217436 z m -9.42222,14.930606 c 6.13651,-1.063021 10.75098,-2.391795 13.84342,-3.986327 l 0.14496,0.362393 c -3.04412,1.546213 -7.68275,2.874987 -13.91591,3.986327 z m 1.23213,-2.681711 c 4.34872,-1.063018 7.87601,-2.198516 10.58189,-3.406497 l 0.14496,0.289914 c -3.09244,1.352939 -6.64389,2.488437 -10.65437,3.406498 z m 0.79727,-2.826668 c 2.8025,-0.724782 5.29093,-1.570365 7.4653,-2.536753 l 0.14496,0.362393 c -2.22269,0.918069 -4.73528,1.763652 -7.53778,2.536753 z" /><path
       id="path6385"
       style=""
       d="m 331.48174,-70.8842 5.29094,0 0,13.62599 -0.36239,0 0,-1.66701 -4.56616,0 0,1.66701 -0.36239,0 z m 0.36239,0.362394 0,11.306672 4.56616,0 0,-11.306672 z m -10.36445,13.336074 -0.28991,-0.217436 c 1.11134,-1.256297 1.9086,-2.850826 2.39179,-4.783592 0.48319,-1.787802 0.70063,-4.276233 0.65231,-7.465302 l -2.68171,0 0,-0.362394 2.68171,0 0.0725,-3.841369 0.36239,0 -0.0725,3.841369 4.13128,0 -0.14496,9.78462 c -10e-6,1.64285 -0.70063,2.415955 -2.10188,2.319318 -0.14496,-10e-7 -0.43488,-10e-7 -0.86974,0 -0.43488,-0.04832 -0.74895,-0.07248 -0.94223,-0.07248 l 0.0725,-0.362393 c 0.14496,-10e-7 0.41071,-10e-7 0.79727,0 0.43486,0.04832 0.74894,0.07248 0.94222,0.07248 1.15965,0.144957 1.73948,-0.50735 1.73949,-1.956924 l 0.14496,-9.422226 -3.76889,0 c 0.0483,3.237388 -0.16913,5.749979 -0.65231,7.537781 -0.4832,1.981085 -1.30462,3.623933 -2.46428,4.928549 z" /><path
       id="path6387"
       style=""
       d="m 340.68653,-68.999754 0.28991,-0.217436 c 0.57983,0.773115 1.64285,2.319325 3.18906,4.638634 0.96638,-2.029395 1.667,-4.32455 2.10188,-6.885473 l -5.79829,0 0,-0.362393 6.16069,0 0,0.362393 c -0.43488,2.657561 -1.18383,5.073514 -2.24684,7.247867 1.5462,2.415958 2.53674,3.986328 2.97162,4.711113 l -0.28991,0.217436 c -0.91807,-1.49789 -1.88445,-3.019941 -2.89915,-4.566156 -1.06302,2.271001 -2.44012,4.179604 -4.13128,5.725815 l -0.21744,-0.289915 c 1.69117,-1.54621 3.06826,-3.478973 4.13129,-5.798293 -0.77311,-1.256291 -1.86029,-2.85082 -3.26154,-4.783592 z m 6.52308,-0.797266 6.66803,0 0,-3.696412 0.3624,0 0,3.696412 2.53675,0 0,0.362394 -2.53675,0 0,9.639662 c 0.0966,1.497892 -0.62817,2.198519 -2.17436,2.101882 -1.15967,-1e-6 -1.9811,-0.02416 -2.46428,-0.07248 l 0,-0.289915 c 0.86973,0 1.69116,0 2.46428,0 1.35292,0.144957 1.95691,-0.434872 1.81196,-1.739488 l 0,-9.639662 -6.66803,0 z m 0.86974,3.116583 0.28991,-0.217436 2.75419,3.986327 -0.21743,0.217436 z" /><path
       id="path6389"
       style=""
       d="m 371.63491,-72.116337 0,0.362393 -2.53675,2.101882 4.78359,0 0,3.189061 -7.53778,0 c -0.2416,0.289922 -0.50736,0.555677 -0.79727,0.797265 1.0147,0.724793 1.7878,1.642855 2.31932,2.75419 2.02939,-0.773101 4.01047,-1.667004 5.94325,-2.681711 l 0.21744,0.289915 c -0.9664,0.579835 -2.12606,1.135504 -3.47898,1.667009 0.86973,2.367639 2.46426,4.107125 4.78359,5.218464 l -0.14495,0.289915 c -2.36765,-1.111339 -4.0105,-2.899145 -4.92855,-5.363422 l -2.24684,0.869744 c 0.33822,0.869747 0.50734,1.811969 0.50735,2.826668 0.0966,1.787807 -0.74896,2.63339 -2.53675,2.536754 -0.86976,-2e-6 -1.54622,-0.02416 -2.02941,-0.07248 l 0,-0.362393 c 0.48319,0.04832 1.15965,0.07248 2.02941,0.07248 1.5462,0.09664 2.27098,-0.628149 2.17436,-2.17436 -10e-6,-0.821423 -0.0967,-1.546209 -0.28992,-2.17436 -2.07773,1.73949 -5.21847,3.189062 -9.42223,4.34872 l -0.0725,-0.362393 c 4.0588,-1.014701 7.17538,-2.464273 9.34974,-4.34872 -0.2416,-0.579825 -0.50736,-1.111335 -0.79726,-1.594531 -1.93277,1.401258 -4.56616,2.585075 -7.90018,3.551455 l -0.14495,-0.362393 c 3.23737,-0.869742 5.8466,-2.00524 7.82769,-3.406498 -0.43488,-0.531504 -0.94223,-0.966376 -1.52205,-1.304616 -1.15966,0.821431 -3.35818,1.667015 -6.59556,2.536754 l -0.0725,-0.362394 c 3.86553,-1.014696 6.30564,-2.077715 7.32035,-3.189061 l -5.50838,0 0,-2.899147 c -0.14496,0.09665 -0.33824,0.217447 -0.57983,0.362394 -0.48319,0.338243 -0.86974,0.579839 -1.15966,0.724786 l -0.14496,-0.289914 c 2.46428,-1.449562 4.542,-3.237368 6.23317,-5.363422 l 0.21744,0.217436 c -0.43488,0.579844 -0.89391,1.111354 -1.3771,1.594531 z m -8.40752,0.362393 c -0.77311,0.724799 -1.6187,1.425426 -2.53676,2.101882 l 7.90018,0 2.46427,-2.101882 z m 10.29197,2.464275 -5.94325,0 c -0.14497,0.966392 -0.45904,1.787816 -0.94223,2.464275 l 6.88548,0 z m -12.82873,0 0,2.464275 5.50838,0 c 0.57982,-0.724778 0.91806,-1.546202 1.0147,-2.464275 z" /><path
       id="path6391"
       style=""
       d="m 379.02773,-62.259238 0.28992,-0.217436 3.91385,4.34872 -0.28992,0.217436 z" /><path
       id="path6393"
       style=""
       d="m 396.71254,-72.116337 4.85607,0 0,-1.739488 0.36239,0 0,1.739488 4.13129,0 0,-1.739488 0.36239,0 0,1.739488 4.27624,0 0,2.899147 -4.27624,0 0,2.101881 5.07351,0 -0.0725,1.159659 c -2e-5,0.918069 -0.55569,1.352941 -1.66701,1.304616 l -1.23214,0 0,-0.362394 1.23214,0.07248 c 0.86973,0.04833 1.3046,-0.289908 1.30461,-1.014701 0.0483,-0.14495 0.0725,-0.410705 0.0725,-0.797266 l -4.71111,0 0,2.319318 -0.36239,0 0,-2.319318 -4.34872,0 c -0.28992,1.111347 -1.30463,2.053568 -3.04411,2.826668 l 11.16172,0 0,3.913848 -0.3624,0 0,-3.551454 -10.5094,0 0,3.551454 -0.3624,0 0,-3.913848 c -0.72479,0.338239 -1.66701,0.676472 -2.82666,1.014702 l -0.0725,-0.362394 c 3.47897,-0.966376 5.36341,-2.126034 5.65333,-3.478976 l -4.56615,0 0.50735,-2.754189 4.27624,0 0,-2.246839 -4.85607,0 z m 5.21846,0.362393 0,2.246839 4.13129,0 0,-2.246839 z m 0,2.899147 c 0.0483,0.628158 0,1.207987 -0.14495,1.739488 l 4.27624,0 0,-2.101881 -4.13129,0 z m -0.50735,1.739488 c 0.14495,-0.531501 0.19327,-1.11133 0.14496,-1.739488 l 0,-0.362393 -3.98633,0 -0.36239,2.101881 z m 8.91488,-4.638635 -3.91385,0 0,2.246839 3.91385,0 z m -6.30565,10.36445 c -10e-6,-0.38655 0.0483,-0.821422 0.14496,-1.304616 l 0.28992,0.07248 c -10e-6,0.144961 -0.0242,0.410716 -0.0725,0.797266 -1e-5,0.289917 -1e-5,0.459034 0,0.50735 -0.14497,1.836127 -2.80252,3.23738 -7.97266,4.203763 l -0.0725,-0.362393 c 5.02518,-0.966383 7.58609,-2.270998 7.68273,-3.913848 z m 0.21744,1.377094 0.0725,-0.289914 c 0.43486,0.144958 1.25628,0.434873 2.46427,0.869744 2.60922,0.869743 4.34871,1.473732 5.21847,1.811966 l -0.14496,0.362394 c -1.25631,-0.483192 -3.69643,-1.352936 -7.32035,-2.609232 -0.14496,-0.09664 -0.2416,-0.144956 -0.28991,-0.144958 z" /><path
       id="path6395"
       style=""
       d="m 416.35425,-72.47873 13.33608,0 0,13.118638 c 0.0483,1.352935 -0.67649,2.005242 -2.17436,1.956924 -0.19329,-10e-7 -0.55569,-0.02416 -1.08718,-0.07248 -0.53152,-2e-6 -0.86976,-2e-6 -1.0147,0 l 0,-0.362394 c 0.14494,-10e-7 0.48318,-10e-7 1.0147,0 0.53149,0.04832 0.89389,0.07248 1.08718,0.07248 1.3046,0.09664 1.90859,-0.434873 1.81196,-1.594531 l 0,-3.478976 -6.16068,0 0,5.073507 -0.3624,0 0,-5.073507 -6.16068,0 c -10e-6,2.222681 -0.74895,4.131284 -2.24684,5.725815 l -0.28992,-0.217436 c 0.96639,-1.063021 1.57037,-2.053562 1.81197,-2.971625 0.28991,-0.918061 0.43487,-2.488431 0.43487,-4.711114 z m 12.97368,0.362393 -6.16068,0 0,4.34872 6.16068,0 z m -12.61128,0 0,4.34872 6.0882,0 0,-4.34872 z m 6.4506,4.711113 0,4.203763 6.16068,0 0,-4.203763 z m -6.4506,2.391796 c -1e-5,0.241602 -0.0242,0.555676 -0.0725,0.942223 -10e-6,0.386558 -10e-6,0.676472 0,0.869744 l 6.16068,0 0,-4.203763 -6.0882,0 z" /><path
       id="path6397"
       style=""
       d="m 440.85204,-69.289669 0.36239,0 0,1.667009 6.74052,0 0,0.362394 -6.74052,0 0,2.391796 8.33505,0 0,0.289914 -16.96001,0 0,-0.289914 8.26257,0 0,-2.391796 -6.66804,0 0,-0.362394 6.66804,0 z m -8.04513,7.102909 12.24889,0 0,-1.59453 0.28992,0 0,1.59453 3.91384,0 0,0.362394 -3.91384,0 0,2.17436 c 0.0966,1.642849 -0.77312,2.415954 -2.60924,2.319317 l -2.0294,-0.07248 0.0725,-0.362393 1.95692,0.07248 c 1.69116,0.09664 2.46427,-0.555671 2.31932,-1.956924 l 0,-2.17436 -12.24889,0 z m -0.21744,-6.957952 c 1.35293,-1.207966 2.58507,-2.802495 3.69641,-4.783592 l 0.3624,0.144958 c -10e-6,0.04833 -0.0242,0.09665 -0.0725,0.144957 -0.38656,0.676482 -0.72479,1.207991 -1.0147,1.594531 l 5.79829,0 0,0.362393 -6.08821,0 c -0.82143,1.15967 -1.64285,2.077733 -2.46427,2.754189 z m 8.40753,-0.797265 c 1.01469,-1.111327 1.90859,-2.415942 2.68171,-3.913848 l 0.28991,0.144957 c -0.28992,0.579844 -0.604,1.135513 -0.94222,1.66701 l 6.52308,0 0,0.362393 -6.74052,0 c -0.28992,0.483203 -0.79727,1.135511 -1.52205,1.956924 z m -4.85607,8.987355 0.21743,-0.289915 3.04411,2.17436 -0.21744,0.144957 z m 8.26256,-9.857099 0.28992,-0.217436 1.66701,1.594531 -0.28992,0.217436 z m -7.68273,-0.07248 0.21743,-0.217436 1.59453,1.66701 -0.28991,0.217436 z" /></g></g></g></svg>