<?xml version="1.0" encoding="UTF-8" standalone="no"?>
<!-- Created with Inkscape (http://www.inkscape.org/) -->

<svg
   xmlns:dc="http://purl.org/dc/elements/1.1/"
   xmlns:cc="http://creativecommons.org/ns#"
   xmlns:rdf="http://www.w3.org/1999/02/22-rdf-syntax-ns#"
   xmlns:svg="http://www.w3.org/2000/svg"
   xmlns="http://www.w3.org/2000/svg"
   xmlns:sodipodi="http://sodipodi.sourceforge.net/DTD/sodipodi-0.dtd"
   xmlns:inkscape="http://www.inkscape.org/namespaces/inkscape"
   id="svg2985"
   version="1.1"
   inkscape:version="0.48.0 r9654"
   width="800"
   height="200"
   xml:space="preserve"
   sodipodi:docname="step1.svg"><metadata
     id="metadata2991"><rdf:RDF><cc:Work
         rdf:about=""><dc:format>image/svg+xml</dc:format><dc:type
           rdf:resource="http://purl.org/dc/dcmitype/StillImage" /><dc:title></dc:title></cc:Work></rdf:RDF></metadata><defs
     id="defs2989"><linearGradient
   x1="0"
   y1="0"
   x2="1"
   y2="0"
   gradientUnits="userSpaceOnUse"
   gradientTransform="matrix(-1.53e-5,-493.4751,-493.4751,1.53e-5,329.23291,493.47461)"
   spreadMethod="pad"
   id="linearGradient3007"><stop
     style="stop-opacity:1;stop-color:#d8d8d8"
     offset="0"
     id="stop3009" /><stop
     style="stop-opacity:1;stop-color:#464646"
     offset="1"
     id="stop3011" /></linearGradient><clipPath
   clipPathUnits="userSpaceOnUse"
   id="clipPath3019"><path
     d="m 0,493.475 658.467,0 L 658.467,0 0,0 0,493.475 z"
     id="path3021"
     inkscape:connector-curvature="0" /></clipPath><clipPath
   clipPathUnits="userSpaceOnUse"
   id="clipPath3317"><path
     d="m 0,493.475 658.467,0 L 658.467,0 0,0 0,493.475 z"
     id="path3319"
     inkscape:connector-curvature="0" /></clipPath><clipPath
   clipPathUnits="userSpaceOnUse"
   id="clipPath3325"><path
     d="m 405.367,348.229 232.804,0 0,-202.984 -232.804,0 0,202.984 z"
     id="path3327"
     inkscape:connector-curvature="0" /></clipPath><clipPath
   clipPathUnits="userSpaceOnUse"
   id="clipPath3329"><path
     d="m 405.367,348.229 232.804,0 0,-202.984 -232.804,0 0,202.984 z"
     id="path3331"
     inkscape:connector-curvature="0" /></clipPath><clipPath
   clipPathUnits="userSpaceOnUse"
   id="clipPath3333"><path
     d="m 406.193,347.403 231.005,0 0,-201.331 -231.005,0 0,201.331 z"
     id="path3335"
     inkscape:connector-curvature="0" /></clipPath><clipPath
   clipPathUnits="userSpaceOnUse"
   id="clipPath3337"><path
     d="m 407.019,346.577 229.206,0 0,-199.68 -229.206,0 0,199.68 z"
     id="path3339"
     inkscape:connector-curvature="0" /></clipPath><clipPath
   clipPathUnits="userSpaceOnUse"
   id="clipPath3341"><path
     d="m 407.844,345.751 227.406,0 0,-198.027 -227.406,0 0,198.027 z"
     id="path3343"
     inkscape:connector-curvature="0" /></clipPath><clipPath
   clipPathUnits="userSpaceOnUse"
   id="clipPath3345"><path
     d="m 408.67,344.925 225.607,0 0,-196.376 -225.607,0 0,196.376 z"
     id="path3347"
     inkscape:connector-curvature="0" /></clipPath><clipPath
   clipPathUnits="userSpaceOnUse"
   id="clipPath3349"><path
     d="m 409.496,344.099 223.807,0 0,-194.724 -223.807,0 0,194.724 z"
     id="path3351"
     inkscape:connector-curvature="0" /></clipPath><clipPath
   clipPathUnits="userSpaceOnUse"
   id="clipPath3353"><path
     d="m 410.322,343.273 222.007,0 0,-193.072 -222.007,0 0,193.072 z"
     id="path3355"
     inkscape:connector-curvature="0" /></clipPath><clipPath
   clipPathUnits="userSpaceOnUse"
   id="clipPath3357"><path
     d="m 411.148,342.448 220.207,0 0,-191.422 -220.207,0 0,191.422 z"
     id="path3359"
     inkscape:connector-curvature="0" /></clipPath><clipPath
   clipPathUnits="userSpaceOnUse"
   id="clipPath3487"><path
     d="m 212.831,348.229 232.805,0 0,-202.984 -232.805,0 0,202.984 z"
     id="path3489"
     inkscape:connector-curvature="0" /></clipPath><clipPath
   clipPathUnits="userSpaceOnUse"
   id="clipPath3491"><path
     d="m 212.831,348.229 232.805,0 0,-202.984 -232.805,0 0,202.984 z"
     id="path3493"
     inkscape:connector-curvature="0" /></clipPath><clipPath
   clipPathUnits="userSpaceOnUse"
   id="clipPath3495"><path
     d="m 213.657,347.403 231.005,0 0,-201.331 -231.005,0 0,201.331 z"
     id="path3497"
     inkscape:connector-curvature="0" /></clipPath><clipPath
   clipPathUnits="userSpaceOnUse"
   id="clipPath3499"><path
     d="m 214.483,346.577 229.204,0 0,-199.68 -229.204,0 0,199.68 z"
     id="path3501"
     inkscape:connector-curvature="0" /></clipPath><clipPath
   clipPathUnits="userSpaceOnUse"
   id="clipPath3503"><path
     d="m 215.31,345.751 227.405,0 0,-198.027 -227.405,0 0,198.027 z"
     id="path3505"
     inkscape:connector-curvature="0" /></clipPath><clipPath
   clipPathUnits="userSpaceOnUse"
   id="clipPath3507"><path
     d="m 216.135,344.925 225.606,0 0,-196.376 -225.606,0 0,196.376 z"
     id="path3509"
     inkscape:connector-curvature="0" /></clipPath><clipPath
   clipPathUnits="userSpaceOnUse"
   id="clipPath3511"><path
     d="m 216.961,344.1 223.807,0 0,-194.724 -223.807,0 0,194.724 z"
     id="path3513"
     inkscape:connector-curvature="0" /></clipPath><clipPath
   clipPathUnits="userSpaceOnUse"
   id="clipPath3515"><path
     d="m 217.787,343.273 222.007,0 0,-193.072 -222.007,0 0,193.072 z"
     id="path3517"
     inkscape:connector-curvature="0" /></clipPath><clipPath
   clipPathUnits="userSpaceOnUse"
   id="clipPath3519"><path
     d="m 218.613,342.448 220.207,0 0,-191.422 -220.207,0 0,191.422 z"
     id="path3521"
     inkscape:connector-curvature="0" /></clipPath><clipPath
   clipPathUnits="userSpaceOnUse"
   id="clipPath3649"><path
     d="m 20.2959,348.229 232.8041,0 0,-202.984 -232.8041,0 0,202.984 z"
     id="path3651"
     inkscape:connector-curvature="0" /></clipPath><clipPath
   clipPathUnits="userSpaceOnUse"
   id="clipPath3653"><path
     d="m 20.2959,348.229 232.8041,0 0,-202.984 -232.8041,0 0,202.984 z"
     id="path3655"
     inkscape:connector-curvature="0" /></clipPath><clipPath
   clipPathUnits="userSpaceOnUse"
   id="clipPath3657"><path
     d="m 21.1216,347.403 231.0054,0 0,-201.331 -231.0054,0 0,201.331 z"
     id="path3659"
     inkscape:connector-curvature="0" /></clipPath><clipPath
   clipPathUnits="userSpaceOnUse"
   id="clipPath3661"><path
     d="m 21.9473,346.577 229.2057,0 0,-199.68 -229.2057,0 0,199.68 z"
     id="path3663"
     inkscape:connector-curvature="0" /></clipPath><clipPath
   clipPathUnits="userSpaceOnUse"
   id="clipPath3665"><path
     d="m 22.7729,345.751 227.4061,0 0,-198.027 -227.4061,0 0,198.027 z"
     id="path3667"
     inkscape:connector-curvature="0" /></clipPath><clipPath
   clipPathUnits="userSpaceOnUse"
   id="clipPath3669"><path
     d="m 23.5991,344.925 225.6069,0 0,-196.376 -225.6069,0 0,196.376 z"
     id="path3671"
     inkscape:connector-curvature="0" /></clipPath><clipPath
   clipPathUnits="userSpaceOnUse"
   id="clipPath3673"><path
     d="m 24.4253,344.1 223.8067,0 0,-194.724 -223.8067,0 0,194.724 z"
     id="path3675"
     inkscape:connector-curvature="0" /></clipPath><clipPath
   clipPathUnits="userSpaceOnUse"
   id="clipPath3677"><path
     d="m 25.251,343.273 222.008,0 0,-193.072 -222.008,0 0,193.072 z"
     id="path3679"
     inkscape:connector-curvature="0" /></clipPath><clipPath
   clipPathUnits="userSpaceOnUse"
   id="clipPath3681"><path
     d="m 26.0771,342.448 220.2079,0 0,-191.422 -220.2079,0 0,191.422 z"
     id="path3683"
     inkscape:connector-curvature="0" /></clipPath>
</defs><sodipodi:namedview
     pagecolor="#ffffff"
     bordercolor="#666666"
     borderopacity="1"
     objecttolerance="10"
     gridtolerance="10"
     guidetolerance="10"
     inkscape:pageopacity="0"
     inkscape:pageshadow="2"
     inkscape:window-width="1680"
     inkscape:window-height="975"
     id="namedview2987"
     showgrid="false"
     inkscape:zoom="1.2922377"
     inkscape:cx="406.53489"
     inkscape:cy="59.086838"
     inkscape:window-x="-9"
     inkscape:window-y="-9"
     inkscape:window-maximized="1"
     inkscape:current-layer="g2993" /><g
     id="g2993"
     inkscape:groupmode="layer"
     inkscape:label="FreeVector-ABC-Icons"
     transform="matrix(1.25,0,0,-1.25,0,199.99997)"><g
   id="g3015"><g
     id="g3017"
     clip-path="url(#clipPath3019)"><g
       id="g3023"
       transform="translate(125.1118,-10.8184)"><path
         d="m 0,0 c -0.02,0.858 -0.779,1.464 -1.62,1.464 -1.852,0 -2.145,-1.579 -2.145,-2.984 0,-1.305 0.567,-2.652 1.973,-2.652 1.147,0 1.733,0.662 1.89,1.734 l 3.218,0 c -0.293,-2.708 -2.4,-4.271 -5.091,-4.271 -3.041,0 -5.304,2.089 -5.304,5.189 0,3.219 2.048,5.521 5.304,5.521 C 0.741,4.001 2.983,2.673 3.219,0 L 0,0 z"
         style="fill:#000000;fill-opacity:1;fill-rule:nonzero;stroke:none"
         id="path3025"
         inkscape:connector-curvature="0" /></g><g
       id="g3027"
       transform="translate(133.7192,-6.8926)"><path
         d="m 0,0 c -3.126,0 -5.303,-2.313 -5.303,-5.345 0,-3.029 2.177,-5.324 5.303,-5.324 3.127,0 5.326,2.295 5.326,5.324 C 5.326,-2.313 3.127,0 0,0"
         style="fill:#000000;fill-opacity:1;fill-rule:nonzero;stroke:none"
         id="path3029"
         inkscape:connector-curvature="0" /></g><g
       id="g3031"
       transform="translate(116.3755,-14.3965)"><path
         d="m 0,0 c -0.86,0 -1.458,-0.636 -1.458,-1.468 0,-0.833 0.598,-1.462 1.458,-1.462 0.859,0 1.461,0.629 1.461,1.462 C 1.461,-0.636 0.859,0 0,0"
         style="fill:#000000;fill-opacity:1;fill-rule:nonzero;stroke:none"
         id="path3033"
         inkscape:connector-curvature="0" /></g><g
       id="g3035"
       transform="translate(139.2764,-7.54)"><path
         d="m 0,0 3.139,0 0,-1.352 0.037,0 c 0.591,0.991 1.635,1.637 2.835,1.637 1.235,0 2.338,-0.398 2.87,-1.598 0.781,1.046 1.749,1.598 3.081,1.598 3.139,0 3.48,-2.377 3.48,-4.262 l 0,-5.892 -3.234,0 0,5.8 c 0,1.064 -0.512,1.69 -1.349,1.69 -1.388,0 -1.521,-1.062 -1.521,-2.661 l 0,-4.829 -3.233,0 0,5.609 c 0,1.159 -0.343,1.881 -1.216,1.881 -1.162,0 -1.654,-0.665 -1.654,-2.681 l 0,-4.809 L 0,-9.869 0,0 z"
         style="fill:#000000;fill-opacity:1;fill-rule:nonzero;stroke:none"
         id="path3037"
         inkscape:connector-curvature="0" /></g><g
       id="g3039"
       transform="translate(73.5513,-17.3057)"><path
         d="m 0,0 -3.686,0 -3.256,9.762 3.33,0 1.786,-6.454 0.038,0 1.807,6.454 3.257,0 L 0,0 z"
         style="fill:#000000;fill-opacity:1;fill-rule:nonzero;stroke:none"
         id="path3041"
         inkscape:connector-curvature="0" /></g><g
       id="g3043"
       transform="translate(78.5659,-13.208)"><path
         d="m 0,0 c 0.056,-1.335 0.831,-2.219 2.184,-2.219 0.767,0 1.52,0.361 1.818,1.073 l 2.993,0 C 6.414,-3.403 4.324,-4.383 2.142,-4.383 c -3.177,0 -5.341,1.922 -5.341,5.193 0,2.99 2.392,5.133 5.267,5.133 3.498,0 5.25,-2.631 5.1,-5.943 L 0,0 z"
         style="fill:#000000;fill-opacity:1;fill-rule:nonzero;stroke:none"
         id="path3045"
         inkscape:connector-curvature="0" /></g><g
       id="g3047"
       transform="translate(92.5742,-11.1182)"><path
         d="m 0,0 c -0.02,0.827 -0.752,1.412 -1.562,1.412 -1.788,0 -2.068,-1.528 -2.068,-2.881 0,-1.261 0.547,-2.558 1.903,-2.558 1.107,0 1.668,0.64 1.823,1.676 l 3.1,0 c -0.279,-2.614 -2.314,-4.122 -4.907,-4.122 -2.934,0 -5.113,2.014 -5.113,5.004 0,3.105 1.973,5.323 5.113,5.323 C 0.713,3.854 2.878,2.575 3.104,0 L 0,0 z"
         style="fill:#000000;fill-opacity:1;fill-rule:nonzero;stroke:none"
         id="path3049"
         inkscape:connector-curvature="0" /></g><g
       id="g3051"
       transform="translate(101.8462,-9.6143)"><path
         d="m 0,0 -1.971,0 0,-4.439 c 0,-0.772 0.451,-0.941 1.145,-0.941 0.262,0 0.548,0.039 0.826,0.039 l 0,-2.35 c -0.58,-0.018 -1.161,-0.096 -1.749,-0.096 -2.726,0 -3.422,0.79 -3.422,3.445 l 0,4.342 -1.617,0 0,2.07 1.617,0 0,2.952 3.2,0 0,-2.952 L 0,2.07 0,0 z"
         style="fill:#000000;fill-opacity:1;fill-rule:nonzero;stroke:none"
         id="path3053"
         inkscape:connector-curvature="0" /></g><g
       id="g3055"
       transform="translate(106.2373,-7.2646)"><path
         d="m 0,0 c -3.027,0 -5.135,-2.239 -5.135,-5.17 0,-2.935 2.108,-5.156 5.135,-5.156 3.027,0 5.153,2.221 5.153,5.156 C 5.153,-2.239 3.027,0 0,0"
         style="fill:#000000;fill-opacity:1;fill-rule:nonzero;stroke:none"
         id="path3057"
         inkscape:connector-curvature="0" /></g><g
       id="g3059"
       transform="translate(111.1758,-7.5439)"><path
         d="m 0,0 3.107,0 0,-1.711 0.035,0 c 0.47,1.236 1.558,1.899 2.933,1.899 0.243,0 0.507,-0.024 0.751,-0.074 l 0,-2.915 C 6.414,-2.693 6.038,-2.62 5.603,-2.62 4.024,-2.62 3.197,-3.708 3.197,-4.927 l 0,-4.835 L 0,-9.762 0,0 z"
         style="fill:#000000;fill-opacity:1;fill-rule:nonzero;stroke:none"
         id="path3061"
         inkscape:connector-curvature="0" /></g><g
       id="g3063"
       transform="translate(41.4951,-7.5439)"><path
         d="m 0,0 3.106,0 0,-1.711 0.037,0 c 0.468,1.236 1.561,1.899 2.935,1.899 0.244,0 0.509,-0.024 0.749,-0.074 l 0,-2.915 C 6.415,-2.693 6.042,-2.62 5.604,-2.62 4.029,-2.62 3.198,-3.708 3.198,-4.927 l 0,-4.835 L 0,-9.762 0,0 z"
         style="fill:#000000;fill-opacity:1;fill-rule:nonzero;stroke:none"
         id="path3065"
         inkscape:connector-curvature="0" /></g><g
       id="g3067"
       transform="translate(50.375,-13.208)"><path
         d="m 0,0 c 0.055,-1.335 0.825,-2.219 2.181,-2.219 0.769,0 1.524,0.361 1.823,1.073 l 2.993,0 C 6.411,-3.403 4.326,-4.383 2.145,-4.383 -1.036,-4.383 -3.2,-2.461 -3.2,0.81 -3.2,3.8 -0.81,5.943 2.07,5.943 5.568,5.943 7.315,3.312 7.166,0 L 0,0 z"
         style="fill:#000000;fill-opacity:1;fill-rule:nonzero;stroke:none"
         id="path3069"
         inkscape:connector-curvature="0" /></g><g
       id="g3071"
       transform="translate(60.458,-13.208)"><path
         d="m 0,0 c 0.055,-1.335 0.826,-2.219 2.182,-2.219 0.769,0 1.522,0.361 1.823,1.073 l 2.991,0 c -0.582,-2.257 -2.67,-3.237 -4.851,-3.237 -3.179,0 -5.341,1.922 -5.341,5.193 0,2.99 2.384,5.133 5.266,5.133 C 5.567,5.943 7.317,3.312 7.167,0 L 0,0 z"
         style="fill:#000000;fill-opacity:1;fill-rule:nonzero;stroke:none"
         id="path3073"
         inkscape:connector-curvature="0" /></g><g
       id="g3075"
       transform="translate(40.9141,-6.1377)"><path
         d="m 0,0 c 0.283,0 0.564,-0.018 0.864,-0.055 l 0,2.259 c -0.509,0.02 -1.035,0.055 -1.543,0.055 -2.725,0 -3.704,-0.865 -3.704,-3.665 l -1.541,0 0,-2.071 1.541,0 0,-7.691 3.195,0 0,7.691 1.919,0 0,2.071 -1.919,0 0,0.431 C -1.188,-0.092 -0.735,0 0,0"
         style="fill:#000000;fill-opacity:1;fill-rule:nonzero;stroke:none"
         id="path3077"
         inkscape:connector-curvature="0" /></g><g
       id="g3079"
       transform="translate(31.8374,-10.6475)"><path
         d="m 0,0 c 0,-3.982 -3.228,-7.212 -7.211,-7.212 -3.983,0 -7.212,3.23 -7.212,7.212 0,3.981 3.229,7.21 7.212,7.21 C -3.228,7.21 0,3.981 0,0"
         style="fill:#ffffff;fill-opacity:1;fill-rule:nonzero;stroke:none"
         id="path3081"
         inkscape:connector-curvature="0" /></g><g
       id="g3083"
       transform="translate(27.1284,-13.9258)"><path
         d="m 0,0 0.019,-0.013 c 0,0 -0.007,0.005 -0.013,0.01 -0.001,0 -0.004,0 -0.006,0.003 m -3.204,1.693 c -0.35,-0.123 -0.816,0.196 -1.023,0.356 -0.177,0.203 -1.242,1.338 -1.365,1.48 -0.266,0.307 -0.063,0.942 0.594,1.161 0.186,0.063 0.471,0.068 0.644,-0.125 0.776,-0.928 1.586,-1.918 1.646,-2.109 0.1,-0.333 -0.084,-0.62 -0.496,-0.763 m 0.682,8.825 c -0.659,0 -1.294,-0.086 -1.9,-0.246 0.249,-0.021 0.412,-0.178 0.497,-0.492 0,0 1.356,-4.485 1.518,-4.989 0.159,-0.506 0.35,-1.059 0.35,-1.059 C -2.164,3.643 -2.262,3.529 -2.336,3.38 -2.476,3.089 -2.552,2.853 -2.585,2.617 c -0.21,0.36 -1.033,1.368 -1.589,2.04 0,0 -0.036,0.446 -0.155,0.873 -0.12,0.425 -0.886,3.309 -0.886,3.309 C -5.351,9.375 -5.294,9.841 -5,10.094 -7.829,9.093 -9.854,6.425 -9.854,3.286 c 0,-2.85 1.674,-5.315 4.108,-6.493 -0.25,0.366 -0.538,0.937 -0.673,1.743 -0.224,1.325 -0.268,2.183 -0.436,2.922 -0.223,0.988 -0.156,1.217 0.184,1.652 0.168,0.215 0.359,0.348 0.537,0.407 0.178,0.047 0.362,-0.059 0.43,-0.135 C -5.276,2.924 -4.458,2.044 -4.358,1.919 -4.16,1.687 -4.133,1.395 -4.28,1.047 -4.338,0.906 -4.498,0.843 -4.623,0.813 -4.906,0.747 -5.227,0.806 -5.337,0.9 c -0.23,0.193 -1.35,1.217 -1.35,1.166 0,-0.269 0.833,-0.928 1.229,-1.305 0.161,-0.157 0.558,-0.201 0.879,-0.126 0.238,0.056 0.4,0.174 0.471,0.343 0.11,0.259 0.135,0.501 0.076,0.717 0.26,-0.15 0.595,-0.278 0.891,-0.176 0.288,0.1 0.462,0.255 0.556,0.422 0.019,-0.192 0.05,-0.407 0.091,-0.663 0.099,-0.646 0.22,-1.007 0.293,-1.222 0.027,-0.08 0.054,-0.163 0.051,-0.189 -0.002,-0.005 -0.005,-0.009 -0.011,-0.014 -0.17,-0.239 -0.422,-0.628 -0.582,-1.111 -0.106,-0.321 -0.186,-0.758 -0.196,-1.169 -0.005,-0.144 0,-0.367 0.042,-0.367 0.044,10e-4 0.038,0.228 0.054,0.367 0.045,0.416 0.112,0.835 0.233,1.137 0.159,0.392 0.37,0.712 0.6,1.035 0.01,0.012 0.015,0.021 0.02,0.026 0.053,0.079 0.024,0.166 -0.034,0.341 -0.072,0.211 -0.188,0.562 -0.288,1.195 -0.143,0.933 -0.198,1.284 0.145,1.993 0.276,0.576 1.01,0.583 1.168,0.517 0.061,-0.033 0.065,-0.384 0.072,-0.697 0.008,-0.349 0.015,-0.782 0.073,-1.309 0.072,-0.665 0.344,-1.184 0.589,-1.486 0.199,-0.24 0.358,-0.347 0.397,-0.31 0.037,0.036 -0.136,0.167 -0.313,0.443 -0.196,0.304 -0.421,0.763 -0.488,1.373 -0.058,0.517 -0.065,0.948 -0.071,1.294 -0.012,0.526 -0.016,0.789 -0.187,0.86 -0.085,0.037 -0.264,0.057 -0.47,0.03 l 1.353,4.533 c 0.236,0.817 0.485,1.151 1.007,1.098 0.005,0 0.01,-0.004 0.017,-0.005 -1.041,0.558 -2.233,0.877 -3.502,0.877"
         style="fill:#000000;fill-opacity:1;fill-rule:nonzero;stroke:none"
         id="path3085"
         inkscape:connector-curvature="0" /></g><g
       id="g3087"
       transform="translate(28.5015,-4.5146)"><path
         d="m 0,0 c 0.174,-0.181 0.245,-0.433 0.171,-0.7 l -1.215,-5.404 c -0.074,-0.419 -0.197,-1.288 -0.086,-1.881 0.149,-0.809 0.468,-1.9 0.235,-3.106 -0.125,-0.64 -0.318,-1.336 -0.641,-1.878 2.889,0.969 4.97,3.667 4.97,6.844 C 3.434,-3.544 2.063,-1.279 0,0"
         style="fill:#000000;fill-opacity:1;fill-rule:nonzero;stroke:none"
         id="path3089"
         inkscape:connector-curvature="0" /></g><path
       d="m 169.155,-7.771 2.498,0 0,-9.587 -2.498,0 0,9.587 z"
       style="fill:#000000;fill-opacity:1;fill-rule:nonzero;stroke:none"
       id="path3091"
       inkscape:connector-curvature="0" /><g
       id="g3093"
       transform="translate(173.2896,-10.3887)"><path
         d="m 0,0 2.215,0 0,-0.953 0.027,0 c 0.416,0.699 1.155,1.155 2.001,1.155 0.873,0 1.652,-0.282 2.028,-1.128 0.55,0.738 1.235,1.128 2.175,1.128 2.216,0 2.457,-1.679 2.457,-3.008 l 0,-4.163 -2.282,0 0,4.096 c 0,0.752 -0.363,1.194 -0.954,1.194 -0.98,0 -1.074,-0.751 -1.074,-1.879 l 0,-3.411 -2.283,0 0,3.961 c 0,0.82 -0.242,1.329 -0.859,1.329 -0.819,0 -1.169,-0.469 -1.169,-1.892 l 0,-3.398 L 0,-6.969 0,0 z"
         style="fill:#000000;fill-opacity:1;fill-rule:nonzero;stroke:none"
         id="path3095"
         inkscape:connector-curvature="0" /></g><g
       id="g3097"
       transform="translate(188.5796,-16.1484)"><path
         d="M 0,0 C 1.088,0 1.451,0.617 1.396,2.055 1.075,1.853 0.483,1.813 -0.013,1.678 -0.524,1.557 -0.954,1.343 -0.954,0.792 -0.954,0.228 -0.51,0 0,0 m -2.954,3.611 c 0.04,0.913 0.47,1.505 1.087,1.868 0.618,0.348 1.424,0.483 2.216,0.483 1.652,0 3.25,-0.362 3.25,-2.337 l 0,-3.048 c 0,-0.591 0,-1.236 0.269,-1.786 l -2.297,0 c -0.08,0.214 -0.107,0.43 -0.134,0.658 -0.591,-0.618 -1.463,-0.859 -2.296,-0.859 -1.329,0 -2.377,0.671 -2.377,2.107 0,2.271 2.47,2.095 4.055,2.417 0.389,0.081 0.605,0.216 0.605,0.646 0,0.523 -0.632,0.724 -1.102,0.724 -0.631,0 -1.033,-0.281 -1.141,-0.873 l -2.135,0 z"
         style="fill:#000000;fill-opacity:1;fill-rule:nonzero;stroke:none"
         id="path3099"
         inkscape:connector-curvature="0" /></g><g
       id="g3101"
       transform="translate(196.8892,-11.9326)"><path
         d="m 0,0 c -1.007,0 -1.33,-0.886 -1.33,-1.745 0,-0.819 0.376,-1.639 1.316,-1.639 0.967,0 1.384,0.751 1.384,1.625 C 1.37,-0.872 1.02,0 0,0 m 3.532,-4.579 c 0,-1.142 -0.215,-3.29 -3.478,-3.29 -1.625,0 -3.156,0.362 -3.425,2.229 l 2.283,0 c 0.054,-0.308 0.174,-0.497 0.389,-0.604 0.202,-0.108 0.484,-0.148 0.833,-0.148 1.088,0 1.196,0.766 1.196,1.625 l 0,0.658 -0.027,0 c -0.417,-0.644 -1.115,-1.02 -1.854,-1.02 -2.108,0 -3.061,1.503 -3.061,3.464 0,1.853 1.088,3.411 3.061,3.411 0.833,0 1.464,-0.362 1.867,-1.075 l 0.027,0 0,0.873 2.189,0 0,-6.123 z"
         style="fill:#000000;fill-opacity:1;fill-rule:nonzero;stroke:none"
         id="path3103"
         inkscape:connector-curvature="0" /></g><g
       id="g3105"
       transform="translate(206.6621,-13.1543)"><path
         d="M 0,0 C -0.041,0.779 -0.591,1.423 -1.357,1.423 -2.162,1.423 -2.7,0.846 -2.833,0 L 0,0 z m -2.833,-1.275 c 0.04,-0.954 0.59,-1.585 1.557,-1.585 0.55,0 1.088,0.255 1.303,0.765 l 2.135,0 c -0.416,-1.612 -1.907,-2.309 -3.465,-2.309 -2.269,0 -3.813,1.369 -3.813,3.706 0,2.135 1.705,3.666 3.759,3.666 2.498,0 3.747,-1.881 3.639,-4.243 l -5.115,0 z"
         style="fill:#000000;fill-opacity:1;fill-rule:nonzero;stroke:none"
         id="path3107"
         inkscape:connector-curvature="0" /></g><g
       id="g3109"
       transform="translate(211.856,-15.0615)"><path
         d="m 0,0 c 0,-0.349 0.147,-0.604 0.376,-0.778 0.215,-0.162 0.523,-0.243 0.846,-0.243 0.443,0 1.074,0.188 1.074,0.74 0,0.537 -0.712,0.643 -1.115,0.737 -1.436,0.363 -3.236,0.403 -3.236,2.284 0,1.679 1.813,2.135 3.182,2.135 1.531,0 3.13,-0.443 3.21,-2.257 l -2.108,0 c 0,0.296 -0.107,0.485 -0.295,0.605 -0.188,0.121 -0.444,0.174 -0.726,0.174 -0.375,0 -0.98,-0.04 -0.98,-0.523 0,-0.658 1.531,-0.779 2.578,-1.007 1.41,-0.282 1.773,-1.303 1.773,-1.881 0,-1.866 -1.773,-2.483 -3.344,-2.483 -1.652,0 -3.343,0.551 -3.41,2.497 L 0,0 z"
         style="fill:#000000;fill-opacity:1;fill-rule:nonzero;stroke:none"
         id="path3111"
         inkscape:connector-curvature="0" /></g><g
       id="g3113"
       transform="translate(224.6348,-16.1484)"><path
         d="M 0,0 C 1.088,0 1.451,0.617 1.396,2.055 1.075,1.853 0.483,1.813 -0.013,1.678 -0.524,1.557 -0.954,1.343 -0.954,0.792 -0.954,0.228 -0.51,0 0,0 m -2.954,3.611 c 0.04,0.913 0.47,1.505 1.087,1.868 0.618,0.348 1.424,0.483 2.216,0.483 1.652,0 3.25,-0.362 3.25,-2.337 l 0,-3.048 c 0,-0.591 0,-1.236 0.269,-1.786 l -2.297,0 c -0.08,0.214 -0.107,0.43 -0.134,0.658 -0.591,-0.618 -1.463,-0.859 -2.296,-0.859 -1.329,0 -2.377,0.671 -2.377,2.107 0,2.271 2.47,2.095 4.055,2.417 0.389,0.081 0.605,0.216 0.605,0.646 0,0.523 -0.632,0.724 -1.102,0.724 -0.631,0 -1.033,-0.281 -1.141,-0.873 l -2.135,0 z"
         style="fill:#000000;fill-opacity:1;fill-rule:nonzero;stroke:none"
         id="path3115"
         inkscape:connector-curvature="0" /></g><g
       id="g3117"
       transform="translate(229.8154,-10.3887)"><path
         d="m 0,0 2.215,0 0,-1.222 0.027,0 c 0.336,0.886 1.115,1.357 2.095,1.357 0.175,0 0.363,-0.014 0.538,-0.054 l 0,-2.081 c -0.296,0.08 -0.564,0.134 -0.873,0.134 -1.128,0 -1.719,-0.78 -1.719,-1.652 l 0,-3.451 L 0,-6.969 0,0 z"
         style="fill:#000000;fill-opacity:1;fill-rule:nonzero;stroke:none"
         id="path3119"
         inkscape:connector-curvature="0" /></g><g
       id="g3121"
       transform="translate(239.9917,-13.1543)"><path
         d="M 0,0 C -0.041,0.779 -0.591,1.423 -1.357,1.423 -2.162,1.423 -2.7,0.846 -2.833,0 L 0,0 z m -2.833,-1.275 c 0.04,-0.954 0.59,-1.585 1.557,-1.585 0.55,0 1.088,0.255 1.303,0.765 l 2.135,0 c -0.416,-1.612 -1.907,-2.309 -3.465,-2.309 -2.269,0 -3.814,1.369 -3.814,3.706 0,2.135 1.706,3.666 3.76,3.666 2.498,0 3.747,-1.881 3.639,-4.243 l -5.115,0 z"
         style="fill:#000000;fill-opacity:1;fill-rule:nonzero;stroke:none"
         id="path3123"
         inkscape:connector-curvature="0" /></g><g
       id="g3125"
       transform="translate(249.8433,-13.7998)"><path
         d="m 0,0 c 0,-1.222 0.349,-2.013 1.383,-2.013 1.02,0 1.37,1.06 1.37,2.013 0,0.887 -0.35,1.867 -1.357,1.867 C 0.778,1.867 0,1.438 0,0 m -2.202,3.411 2.175,0 0,-0.806 0.027,0 c 0.443,0.659 1.114,1.008 1.92,1.008 2.189,0 3.115,-1.881 3.115,-3.841 0,-1.812 -0.966,-3.531 -2.94,-3.531 -0.86,0 -1.517,0.321 -1.988,0.953 l -0.026,0 0,-3.088 -2.283,0 0,9.305 z"
         style="fill:#000000;fill-opacity:1;fill-rule:nonzero;stroke:none"
         id="path3127"
         inkscape:connector-curvature="0" /></g><g
       id="g3129"
       transform="translate(256.1782,-10.3887)"><path
         d="m 0,0 2.215,0 0,-1.222 0.027,0 c 0.336,0.886 1.115,1.357 2.095,1.357 0.175,0 0.363,-0.014 0.538,-0.054 l 0,-2.081 c -0.296,0.08 -0.564,0.134 -0.873,0.134 -1.128,0 -1.719,-0.78 -1.719,-1.652 l 0,-3.451 L 0,-6.969 0,0 z"
         style="fill:#000000;fill-opacity:1;fill-rule:nonzero;stroke:none"
         id="path3131"
         inkscape:connector-curvature="0" /></g><g
       id="g3133"
       transform="translate(264.9038,-15.8125)"><path
         d="M 0,0 C 1.061,0 1.397,1.047 1.397,1.933 1.397,2.819 1.061,3.88 0,3.88 -1.061,3.88 -1.383,2.819 -1.383,1.933 -1.383,1.047 -1.061,0 0,0 m 0,5.626 c 2.162,0 3.68,-1.599 3.68,-3.693 0,-2.095 -1.518,-3.679 -3.68,-3.679 -2.162,0 -3.666,1.584 -3.666,3.679 0,2.094 1.504,3.693 3.666,3.693"
         style="fill:#000000;fill-opacity:1;fill-rule:nonzero;stroke:none"
         id="path3135"
         inkscape:connector-curvature="0" /></g><g
       id="g3137"
       transform="translate(271.978,-13.7998)"><path
         d="m 0,0 c 0,-1.222 0.349,-2.013 1.383,-2.013 1.02,0 1.37,1.06 1.37,2.013 0,0.887 -0.35,1.867 -1.357,1.867 C 0.778,1.867 0,1.438 0,0 m -2.202,3.411 2.175,0 0,-0.806 0.027,0 c 0.443,0.659 1.114,1.008 1.92,1.008 2.189,0 3.115,-1.881 3.115,-3.841 0,-1.812 -0.966,-3.531 -2.94,-3.531 -0.86,0 -1.518,0.321 -1.988,0.953 l -0.027,0 0,-3.088 -2.282,0 0,9.305 z"
         style="fill:#000000;fill-opacity:1;fill-rule:nonzero;stroke:none"
         id="path3139"
         inkscape:connector-curvature="0" /></g><g
       id="g3141"
       transform="translate(283.0127,-13.1543)"><path
         d="M 0,0 C -0.041,0.779 -0.591,1.423 -1.356,1.423 -2.162,1.423 -2.7,0.846 -2.833,0 L 0,0 z m -2.833,-1.275 c 0.04,-0.954 0.59,-1.585 1.557,-1.585 0.55,0 1.088,0.255 1.302,0.765 l 2.136,0 c -0.416,-1.612 -1.907,-2.309 -3.465,-2.309 -2.269,0 -3.814,1.369 -3.814,3.706 0,2.135 1.706,3.666 3.761,3.666 2.497,0 3.746,-1.881 3.638,-4.243 l -5.115,0 z"
         style="fill:#000000;fill-opacity:1;fill-rule:nonzero;stroke:none"
         id="path3143"
         inkscape:connector-curvature="0" /></g><g
       id="g3145"
       transform="translate(286.5142,-10.3887)"><path
         d="m 0,0 2.216,0 0,-1.222 0.026,0 c 0.336,0.886 1.115,1.357 2.095,1.357 0.175,0 0.363,-0.014 0.538,-0.054 l 0,-2.081 c -0.296,0.08 -0.564,0.134 -0.873,0.134 -1.128,0 -1.719,-0.78 -1.719,-1.652 l 0,-3.451 L 0,-6.969 0,0 z"
         style="fill:#000000;fill-opacity:1;fill-rule:nonzero;stroke:none"
         id="path3147"
         inkscape:connector-curvature="0" /></g><g
       id="g3149"
       transform="translate(296.3555,-11.8652)"><path
         d="m 0,0 -1.41,0 0,-3.17 c 0,-0.55 0.322,-0.671 0.819,-0.671 0.188,0 0.389,0.028 0.591,0.028 l 0,-1.679 c -0.417,-0.014 -0.833,-0.068 -1.249,-0.068 -1.947,0 -2.444,0.564 -2.444,2.458 l 0,3.102 -1.155,0 0,1.477 1.155,0 0,2.108 2.283,0 0,-2.108 1.41,0 L 0,0 z"
         style="fill:#000000;fill-opacity:1;fill-rule:nonzero;stroke:none"
         id="path3151"
         inkscape:connector-curvature="0" /></g><g
       id="g3153"
       transform="translate(301.1738,-17.9746)"><path
         d="m 0,0 c -0.55,-1.531 -1.369,-1.719 -2.914,-1.719 l -1.074,0 0,1.853 0.792,0 c 0.524,0 0.914,0.296 0.914,0.779 0,0.376 -0.444,1.449 -0.578,1.825 l -1.799,4.848 2.417,0 1.316,-4.538 0.027,0 1.316,4.538 2.336,0 L 0,0 z"
         style="fill:#000000;fill-opacity:1;fill-rule:nonzero;stroke:none"
         id="path3155"
         inkscape:connector-curvature="0" /></g><g
       id="g3157"
       transform="translate(312.1406,-15.8125)"><path
         d="M 0,0 C 1.061,0 1.397,1.047 1.397,1.933 1.397,2.819 1.061,3.88 0,3.88 -1.061,3.88 -1.383,2.819 -1.383,1.933 -1.383,1.047 -1.061,0 0,0 m 0,5.626 c 2.162,0 3.679,-1.599 3.679,-3.693 0,-2.095 -1.517,-3.679 -3.679,-3.679 -2.162,0 -3.666,1.584 -3.666,3.679 0,2.094 1.504,3.693 3.666,3.693"
         style="fill:#000000;fill-opacity:1;fill-rule:nonzero;stroke:none"
         id="path3159"
         inkscape:connector-curvature="0" /></g><g
       id="g3161"
       transform="translate(317.5093,-11.8652)"><path
         d="m 0,0 -1.101,0 0,1.477 1.101,0 c 0,2.001 0.698,2.618 2.645,2.618 0.363,0 0.739,-0.027 1.101,-0.04 l 0,-1.612 C 3.531,2.471 3.33,2.484 3.128,2.484 2.605,2.484 2.283,2.417 2.283,1.786 l 0,-0.309 1.369,0 0,-1.477 -1.369,0 0,-5.492 L 0,-5.492 0,0 z"
         style="fill:#000000;fill-opacity:1;fill-rule:nonzero;stroke:none"
         id="path3163"
         inkscape:connector-curvature="0" /></g><g
       id="g3165"
       transform="translate(330.4102,-11.8652)"><path
         d="m 0,0 -1.41,0 0,-3.17 c 0,-0.55 0.323,-0.671 0.819,-0.671 0.188,0 0.39,0.028 0.591,0.028 l 0,-1.679 c -0.416,-0.014 -0.833,-0.068 -1.249,-0.068 -1.947,0 -2.443,0.564 -2.443,2.458 l 0,3.102 -1.155,0 0,1.477 1.155,0 0,2.108 2.282,0 0,-2.108 1.41,0 L 0,0 z"
         style="fill:#000000;fill-opacity:1;fill-rule:nonzero;stroke:none"
         id="path3167"
         inkscape:connector-curvature="0" /></g><g
       id="g3169"
       transform="translate(331.4297,-7.7705)"><path
         d="m 0,0 2.282,0 0,-3.571 0.027,0 c 0.349,0.712 1.289,1.155 2.122,1.155 2.323,0 2.51,-1.692 2.51,-2.7 l 0,-4.471 -2.283,0 0,3.37 c 0,0.953 0.109,1.92 -1.14,1.92 -0.86,0 -1.236,-0.724 -1.236,-1.49 l 0,-3.8 L 0,-9.587 0,0 z"
         style="fill:#000000;fill-opacity:1;fill-rule:nonzero;stroke:none"
         id="path3171"
         inkscape:connector-curvature="0" /></g><g
       id="g3173"
       transform="translate(344.667,-13.1543)"><path
         d="M 0,0 C -0.04,0.779 -0.592,1.423 -1.357,1.423 -2.163,1.423 -2.7,0.846 -2.834,0 L 0,0 z m -2.834,-1.275 c 0.04,-0.954 0.591,-1.585 1.558,-1.585 0.55,0 1.088,0.255 1.302,0.765 l 2.135,0 c -0.416,-1.612 -1.906,-2.309 -3.465,-2.309 -2.269,0 -3.812,1.369 -3.812,3.706 0,2.135 1.705,3.666 3.759,3.666 2.498,0 3.747,-1.881 3.638,-4.243 l -5.115,0 z"
         style="fill:#000000;fill-opacity:1;fill-rule:nonzero;stroke:none"
         id="path3175"
         inkscape:connector-curvature="0" /></g><g
       id="g3177"
       transform="translate(354.2637,-13.7998)"><path
         d="m 0,0 c 0,-0.953 0.349,-2.013 1.396,-2.013 1.114,0 1.356,1.06 1.356,1.947 0,1.006 -0.363,1.933 -1.356,1.933 C 0.349,1.867 0,0.887 0,0 m 4.953,-3.558 -2.174,0 0,0.806 -0.027,0 C 2.309,-3.41 1.637,-3.759 0.831,-3.759 c -2.188,0 -3.114,1.88 -3.114,3.84 0,1.814 0.967,3.532 2.939,3.532 0.86,0 1.519,-0.322 1.989,-0.954 l 0.027,0 0,3.37 2.281,0 0,-9.587 z"
         style="fill:#000000;fill-opacity:1;fill-rule:nonzero;stroke:none"
         id="path3179"
         inkscape:connector-curvature="0" /></g><g
       id="g3181"
       transform="translate(365.5527,-13.1543)"><path
         d="M 0,0 C -0.04,0.779 -0.592,1.423 -1.357,1.423 -2.162,1.423 -2.699,0.846 -2.832,0 L 0,0 z m -2.832,-1.275 c 0.039,-0.954 0.589,-1.585 1.557,-1.585 0.55,0 1.087,0.255 1.302,0.765 l 2.135,0 c -0.416,-1.612 -1.907,-2.309 -3.465,-2.309 -2.268,0 -3.812,1.369 -3.812,3.706 0,2.135 1.705,3.666 3.758,3.666 2.498,0 3.748,-1.881 3.64,-4.243 l -5.115,0 z"
         style="fill:#000000;fill-opacity:1;fill-rule:nonzero;stroke:none"
         id="path3183"
         inkscape:connector-curvature="0" /></g><g
       id="g3185"
       transform="translate(370.7471,-15.0615)"><path
         d="m 0,0 c 0,-0.349 0.147,-0.604 0.376,-0.778 0.215,-0.162 0.523,-0.243 0.846,-0.243 0.443,0 1.074,0.188 1.074,0.74 0,0.537 -0.713,0.643 -1.114,0.737 -1.438,0.363 -3.238,0.403 -3.238,2.284 0,1.679 1.814,2.135 3.184,2.135 1.53,0 3.129,-0.443 3.209,-2.257 l -2.108,0 c 0,0.296 -0.107,0.485 -0.294,0.605 -0.19,0.121 -0.446,0.174 -0.727,0.174 -0.375,0 -0.979,-0.04 -0.979,-0.523 0,-0.658 1.53,-0.779 2.578,-1.007 1.409,-0.282 1.772,-1.303 1.772,-1.881 0,-1.866 -1.772,-2.483 -3.344,-2.483 -1.652,0 -3.343,0.551 -3.41,2.497 L 0,0 z"
         style="fill:#000000;fill-opacity:1;fill-rule:nonzero;stroke:none"
         id="path3187"
         inkscape:connector-curvature="0" /></g><path
       d="m 376.519,-10.389 2.284,0 0,-6.969 -2.284,0 0,6.969 z m 2.284,0.873 -2.284,0 0,1.745 2.284,0 0,-1.745 z"
       style="fill:#000000;fill-opacity:1;fill-rule:nonzero;stroke:none"
       id="path3189"
       inkscape:connector-curvature="0" /><g
       id="g3191"
       transform="translate(383.6201,-11.9326)"><path
         d="m 0,0 c -1.007,0 -1.329,-0.886 -1.329,-1.745 0,-0.819 0.375,-1.639 1.315,-1.639 0.968,0 1.384,0.751 1.384,1.625 C 1.37,-0.872 1.021,0 0,0 m 3.532,-4.579 c 0,-1.142 -0.215,-3.29 -3.478,-3.29 -1.625,0 -3.155,0.362 -3.424,2.229 l 2.283,0 c 0.053,-0.308 0.174,-0.497 0.389,-0.604 0.202,-0.108 0.484,-0.148 0.833,-0.148 1.088,0 1.195,0.766 1.195,1.625 l 0,0.658 -0.026,0 c -0.417,-0.644 -1.116,-1.02 -1.854,-1.02 -2.109,0 -3.062,1.503 -3.062,3.464 0,1.853 1.088,3.411 3.062,3.411 0.833,0 1.463,-0.362 1.867,-1.075 l 0.026,0 0,0.873 2.189,0 0,-6.123 z"
         style="fill:#000000;fill-opacity:1;fill-rule:nonzero;stroke:none"
         id="path3193"
         inkscape:connector-curvature="0" /></g><g
       id="g3195"
       transform="translate(388.6133,-10.3887)"><path
         d="m 0,0 2.215,0 0,-0.953 0.027,0 c 0.417,0.712 1.357,1.155 2.19,1.155 2.322,0 2.511,-1.692 2.511,-2.7 l 0,-4.471 -2.284,0 0,3.37 c 0,0.953 0.108,1.92 -1.14,1.92 -0.86,0 -1.238,-0.724 -1.238,-1.49 l 0,-3.8 L 0,-6.969 0,0 z"
         style="fill:#000000;fill-opacity:1;fill-rule:nonzero;stroke:none"
         id="path3197"
         inkscape:connector-curvature="0" /></g><g
       id="g3199"
       transform="translate(401.8506,-13.1543)"><path
         d="M 0,0 C -0.04,0.779 -0.591,1.423 -1.356,1.423 -2.162,1.423 -2.7,0.846 -2.834,0 L 0,0 z m -2.834,-1.275 c 0.04,-0.954 0.591,-1.585 1.558,-1.585 0.55,0 1.088,0.255 1.302,0.765 l 2.135,0 c -0.416,-1.612 -1.906,-2.309 -3.464,-2.309 -2.27,0 -3.813,1.369 -3.813,3.706 0,2.135 1.705,3.666 3.76,3.666 2.498,0 3.746,-1.881 3.638,-4.243 l -5.116,0 z"
         style="fill:#000000;fill-opacity:1;fill-rule:nonzero;stroke:none"
         id="path3201"
         inkscape:connector-curvature="0" /></g><g
       id="g3203"
       transform="translate(405.3516,-10.3887)"><path
         d="m 0,0 2.217,0 0,-1.222 0.026,0 c 0.335,0.886 1.114,1.357 2.095,1.357 0.174,0 0.363,-0.014 0.537,-0.054 l 0,-2.081 c -0.296,0.08 -0.564,0.134 -0.872,0.134 -1.13,0 -1.719,-0.78 -1.719,-1.652 l 0,-3.451 L 0,-6.969 0,0 z"
         style="fill:#000000;fill-opacity:1;fill-rule:nonzero;stroke:none"
         id="path3205"
         inkscape:connector-curvature="0" /></g><path
       d="m 409.861,-14.859 2.498,0 0,-2.498 -2.498,0 0,2.498 z"
       style="fill:#000000;fill-opacity:1;fill-rule:nonzero;stroke:none"
       id="path3207"
       inkscape:connector-curvature="0" /><g
       id="g3209"
       transform="translate(427.624,-11.1943)"><path
         d="m 0,0 c -0.136,0.968 -0.886,1.478 -1.935,1.478 -1.609,0 -2.228,-1.424 -2.228,-2.847 0,-1.424 0.619,-2.847 2.228,-2.847 1.169,0 1.841,0.671 1.935,1.773 l 2.498,0 c -0.136,-2.471 -1.948,-3.921 -4.38,-3.921 -2.899,0 -4.779,2.216 -4.779,4.995 0,2.78 1.88,4.995 4.779,4.995 2.07,0 4.311,-1.315 4.38,-3.626 L 0,0 z"
         style="fill:#000000;fill-opacity:1;fill-rule:nonzero;stroke:none"
         id="path3211"
         inkscape:connector-curvature="0" /></g><g
       id="g3213"
       transform="translate(431.3535,-7.7705)"><path
         d="m 0,0 2.283,0 0,-3.571 0.027,0 c 0.348,0.712 1.288,1.155 2.12,1.155 2.324,0 2.511,-1.692 2.511,-2.7 l 0,-4.471 -2.281,0 0,3.37 c 0,0.953 0.108,1.92 -1.142,1.92 -0.86,0 -1.235,-0.724 -1.235,-1.49 l 0,-3.8 L 0,-9.587 0,0 z"
         style="fill:#000000;fill-opacity:1;fill-rule:nonzero;stroke:none"
         id="path3215"
         inkscape:connector-curvature="0" /></g><g
       id="g3217"
       transform="translate(444.5898,-13.1543)"><path
         d="M 0,0 C -0.039,0.779 -0.591,1.423 -1.356,1.423 -2.162,1.423 -2.698,0.846 -2.834,0 L 0,0 z m -2.834,-1.275 c 0.04,-0.954 0.592,-1.585 1.559,-1.585 0.55,0 1.086,0.255 1.302,0.765 l 2.135,0 c -0.416,-1.612 -1.906,-2.309 -3.465,-2.309 -2.267,0 -3.812,1.369 -3.812,3.706 0,2.135 1.705,3.666 3.759,3.666 2.498,0 3.745,-1.881 3.638,-4.243 l -5.116,0 z"
         style="fill:#000000;fill-opacity:1;fill-rule:nonzero;stroke:none"
         id="path3219"
         inkscape:connector-curvature="0" /></g><g
       id="g3221"
       transform="translate(452.5488,-12.9395)"><path
         d="m 0,0 c -0.014,0.591 -0.535,1.007 -1.113,1.007 -1.276,0 -1.479,-1.088 -1.479,-2.055 0,-0.899 0.391,-1.825 1.358,-1.825 0.793,0 1.194,0.456 1.301,1.194 l 2.216,0 c -0.2,-1.866 -1.651,-2.94 -3.504,-2.94 -2.093,0 -3.652,1.436 -3.652,3.571 0,2.216 1.408,3.801 3.652,3.801 C 0.512,2.753 2.057,1.84 2.217,0 L 0,0 z"
         style="fill:#000000;fill-opacity:1;fill-rule:nonzero;stroke:none"
         id="path3223"
         inkscape:connector-curvature="0" /></g><g
       id="g3225"
       transform="translate(455.9717,-7.7705)"><path
         d="m 0,0 2.283,0 0,-4.94 2.081,2.322 2.645,0 -2.551,-2.632 2.875,-4.337 -2.755,0 -1.706,2.807 -0.589,-0.578 0,-2.229 L 0,-9.587 0,0 z"
         style="fill:#000000;fill-opacity:1;fill-rule:nonzero;stroke:none"
         id="path3227"
         inkscape:connector-curvature="0" /></g><path
       d="m 468.24,-7.771 2.281,0 0,-9.587 -2.281,0 0,9.587 z"
       style="fill:#000000;fill-opacity:1;fill-rule:nonzero;stroke:none"
       id="path3229"
       inkscape:connector-curvature="0" /><path
       d="m 472.215,-10.389 2.281,0 0,-6.969 -2.281,0 0,6.969 z m 2.281,0.873 -2.281,0 0,1.745 2.281,0 0,-1.745 z"
       style="fill:#000000;fill-opacity:1;fill-rule:nonzero;stroke:none"
       id="path3231"
       inkscape:connector-curvature="0" /><g
       id="g3233"
       transform="translate(480.6455,-12.9395)"><path
         d="m 0,0 c -0.013,0.591 -0.538,1.007 -1.114,1.007 -1.277,0 -1.477,-1.088 -1.477,-2.055 0,-0.899 0.388,-1.825 1.355,-1.825 0.792,0 1.196,0.456 1.303,1.194 l 2.217,0 c -0.203,-1.866 -1.652,-2.94 -3.508,-2.94 -2.093,0 -3.651,1.436 -3.651,3.571 0,2.216 1.411,3.801 3.651,3.801 C 0.511,2.753 2.054,1.84 2.215,0 L 0,0 z"
         style="fill:#000000;fill-opacity:1;fill-rule:nonzero;stroke:none"
         id="path3235"
         inkscape:connector-curvature="0" /></g><g
       id="g3237"
       transform="translate(488.8477,-13.1543)"><path
         d="M 0,0 C -0.041,0.779 -0.592,1.423 -1.357,1.423 -2.163,1.423 -2.699,0.846 -2.835,0 L 0,0 z m -2.835,-1.275 c 0.04,-0.954 0.591,-1.585 1.558,-1.585 0.551,0 1.088,0.255 1.303,0.765 l 2.134,0 c -0.414,-1.612 -1.906,-2.309 -3.464,-2.309 -2.268,0 -3.813,1.369 -3.813,3.706 0,2.135 1.706,3.666 3.76,3.666 2.498,0 3.746,-1.881 3.638,-4.243 l -5.116,0 z"
         style="fill:#000000;fill-opacity:1;fill-rule:nonzero;stroke:none"
         id="path3239"
         inkscape:connector-curvature="0" /></g><g
       id="g3241"
       transform="translate(492.2676,-10.3887)"><path
         d="m 0,0 2.217,0 0,-0.953 0.027,0 c 0.414,0.712 1.356,1.155 2.188,1.155 2.324,0 2.511,-1.692 2.511,-2.7 l 0,-4.471 -2.283,0 0,3.37 c 0,0.953 0.108,1.92 -1.142,1.92 -0.86,0 -1.235,-0.724 -1.235,-1.49 l 0,-3.8 L 0,-6.969 0,0 z"
         style="fill:#000000;fill-opacity:1;fill-rule:nonzero;stroke:none"
         id="path3243"
         inkscape:connector-curvature="0" /></g><g
       id="g3245"
       transform="translate(502.4961,-15.0615)"><path
         d="M 0,0 C 0,-0.349 0.148,-0.604 0.377,-0.778 0.592,-0.94 0.9,-1.021 1.223,-1.021 c 0.443,0 1.074,0.188 1.074,0.74 0,0.537 -0.711,0.643 -1.113,0.737 -1.438,0.363 -3.237,0.403 -3.237,2.284 0,1.679 1.813,2.135 3.182,2.135 1.529,0 3.129,-0.443 3.209,-2.257 l -2.108,0 C 2.23,2.914 2.123,3.103 1.934,3.223 1.746,3.344 1.492,3.397 1.211,3.397 0.834,3.397 0.229,3.357 0.229,2.874 0.229,2.216 1.76,2.095 2.807,1.867 4.217,1.585 4.58,0.564 4.58,-0.014 c 0,-1.866 -1.773,-2.483 -3.344,-2.483 -1.65,0 -3.343,0.551 -3.41,2.497 L 0,0 z"
         style="fill:#000000;fill-opacity:1;fill-rule:nonzero;stroke:none"
         id="path3247"
         inkscape:connector-curvature="0" /></g><g
       id="g3249"
       transform="translate(512.9688,-13.1543)"><path
         d="M 0,0 C -0.041,0.779 -0.59,1.423 -1.355,1.423 -2.162,1.423 -2.699,0.846 -2.834,0 L 0,0 z m -2.834,-1.275 c 0.041,-0.954 0.592,-1.585 1.559,-1.585 0.548,0 1.087,0.255 1.302,0.765 l 2.135,0 c -0.416,-1.612 -1.908,-2.309 -3.465,-2.309 -2.269,0 -3.814,1.369 -3.814,3.706 0,2.135 1.705,3.666 3.762,3.666 2.498,0 3.746,-1.881 3.638,-4.243 l -5.117,0 z"
         style="fill:#000000;fill-opacity:1;fill-rule:nonzero;stroke:none"
         id="path3251"
         inkscape:connector-curvature="0" /></g><g
       id="g3253"
       transform="translate(521.1152,-11.8652)"><path
         d="m 0,0 -1.102,0 0,1.477 1.102,0 c 0,2.001 0.697,2.618 2.645,2.618 0.363,0 0.738,-0.027 1.103,-0.04 l 0,-1.612 C 3.531,2.471 3.33,2.484 3.129,2.484 2.604,2.484 2.283,2.417 2.283,1.786 l 0,-0.309 1.369,0 0,-1.477 -1.369,0 0,-5.492 L 0,-5.492 0,0 z"
         style="fill:#000000;fill-opacity:1;fill-rule:nonzero;stroke:none"
         id="path3255"
         inkscape:connector-curvature="0" /></g><g
       id="g3257"
       transform="translate(528.916,-15.8125)"><path
         d="M 0,0 C 1.061,0 1.396,1.047 1.396,1.933 1.396,2.819 1.061,3.88 0,3.88 -1.063,3.88 -1.383,2.819 -1.383,1.933 -1.383,1.047 -1.063,0 0,0 m 0,5.626 c 2.162,0 3.68,-1.599 3.68,-3.693 0,-2.095 -1.518,-3.679 -3.68,-3.679 -2.162,0 -3.666,1.584 -3.666,3.679 0,2.094 1.504,3.693 3.666,3.693"
         style="fill:#000000;fill-opacity:1;fill-rule:nonzero;stroke:none"
         id="path3259"
         inkscape:connector-curvature="0" /></g><g
       id="g3261"
       transform="translate(533.8672,-10.3887)"><path
         d="m 0,0 2.215,0 0,-1.222 0.027,0 c 0.338,0.886 1.115,1.357 2.096,1.357 0.174,0 0.361,-0.014 0.537,-0.054 l 0,-2.081 c -0.295,0.08 -0.564,0.134 -0.873,0.134 -1.129,0 -1.719,-0.78 -1.719,-1.652 l 0,-3.451 L 0,-6.969 0,0 z"
         style="fill:#000000;fill-opacity:1;fill-rule:nonzero;stroke:none"
         id="path3263"
         inkscape:connector-curvature="0" /></g><g
       id="g3265"
       transform="translate(545.9355,-13.7998)"><path
         d="m 0,0 c 0,-1.222 0.35,-2.013 1.383,-2.013 1.019,0 1.371,1.06 1.371,2.013 0,0.887 -0.352,1.867 -1.358,1.867 C 0.779,1.867 0,1.438 0,0 m -2.203,3.411 2.178,0 0,-0.806 0.025,0 c 0.443,0.659 1.115,1.008 1.92,1.008 2.187,0 3.117,-1.881 3.117,-3.841 0,-1.812 -0.969,-3.531 -2.943,-3.531 -0.86,0 -1.518,0.321 -1.987,0.953 l -0.025,0 0,-3.088 -2.285,0 0,9.305 z"
         style="fill:#000000;fill-opacity:1;fill-rule:nonzero;stroke:none"
         id="path3267"
         inkscape:connector-curvature="0" /></g><g
       id="g3269"
       transform="translate(556.9707,-13.1543)"><path
         d="M 0,0 C -0.041,0.779 -0.59,1.423 -1.355,1.423 -2.16,1.423 -2.699,0.846 -2.832,0 L 0,0 z m -2.832,-1.275 c 0.039,-0.954 0.59,-1.585 1.557,-1.585 0.55,0 1.087,0.255 1.302,0.765 l 2.135,0 c -0.416,-1.612 -1.908,-2.309 -3.463,-2.309 -2.271,0 -3.814,1.369 -3.814,3.706 0,2.135 1.705,3.666 3.76,3.666 2.498,0 3.746,-1.881 3.638,-4.243 l -5.115,0 z"
         style="fill:#000000;fill-opacity:1;fill-rule:nonzero;stroke:none"
         id="path3271"
         inkscape:connector-curvature="0" /></g><g
       id="g3273"
       transform="translate(560.4727,-10.3887)"><path
         d="m 0,0 2.215,0 0,-1.222 0.027,0 c 0.338,0.886 1.115,1.357 2.096,1.357 0.174,0 0.361,-0.014 0.537,-0.054 l 0,-2.081 c -0.295,0.08 -0.564,0.134 -0.873,0.134 -1.129,0 -1.719,-0.78 -1.719,-1.652 l 0,-3.451 L 0,-6.969 0,0 z"
         style="fill:#000000;fill-opacity:1;fill-rule:nonzero;stroke:none"
         id="path3275"
         inkscape:connector-curvature="0" /></g><g
       id="g3277"
       transform="translate(566.1113,-10.3887)"><path
         d="m 0,0 2.215,0 0,-0.953 0.027,0 c 0.416,0.699 1.154,1.155 2,1.155 0.873,0 1.653,-0.282 2.028,-1.128 0.55,0.738 1.236,1.128 2.175,1.128 2.217,0 2.459,-1.679 2.459,-3.008 l 0,-4.163 -2.285,0 0,4.096 c 0,0.752 -0.361,1.194 -0.953,1.194 -0.978,0 -1.072,-0.751 -1.072,-1.879 l 0,-3.411 -2.283,0 0,3.961 c 0,0.82 -0.243,1.329 -0.862,1.329 -0.818,0 -1.166,-0.469 -1.166,-1.892 l 0,-3.398 L 0,-6.969 0,0 z"
         style="fill:#000000;fill-opacity:1;fill-rule:nonzero;stroke:none"
         id="path3279"
         inkscape:connector-curvature="0" /></g><path
       d="m 578.621,-10.389 2.283,0 0,-6.969 -2.283,0 0,6.969 z m 2.283,0.873 -2.283,0 0,1.745 2.283,0 0,-1.745 z"
       style="fill:#000000;fill-opacity:1;fill-rule:nonzero;stroke:none"
       id="path3281"
       inkscape:connector-curvature="0" /><g
       id="g3283"
       transform="translate(586.7168,-11.8652)"><path
         d="m 0,0 -1.41,0 0,-3.17 c 0,-0.55 0.324,-0.671 0.818,-0.671 0.19,0 0.391,0.028 0.592,0.028 l 0,-1.679 c -0.414,-0.014 -0.832,-0.068 -1.248,-0.068 -1.947,0 -2.443,0.564 -2.443,2.458 l 0,3.102 -1.157,0 0,1.477 1.157,0 0,2.108 2.281,0 0,-2.108 1.41,0 L 0,0 z"
         style="fill:#000000;fill-opacity:1;fill-rule:nonzero;stroke:none"
         id="path3285"
         inkscape:connector-curvature="0" /></g><g
       id="g3287"
       transform="translate(591.9395,-11.8652)"><path
         d="m 0,0 -1.412,0 0,-3.17 c 0,-0.55 0.324,-0.671 0.82,-0.671 0.19,0 0.391,0.028 0.592,0.028 l 0,-1.679 c -0.416,-0.014 -0.834,-0.068 -1.248,-0.068 -1.949,0 -2.445,0.564 -2.445,2.458 l 0,3.102 -1.157,0 0,1.477 1.157,0 0,2.108 2.281,0 0,-2.108 L 0,1.477 0,0 z"
         style="fill:#000000;fill-opacity:1;fill-rule:nonzero;stroke:none"
         id="path3289"
         inkscape:connector-curvature="0" /></g><g
       id="g3291"
       transform="translate(597.7383,-13.1543)"><path
         d="M 0,0 C -0.041,0.779 -0.592,1.423 -1.357,1.423 -2.162,1.423 -2.699,0.846 -2.834,0 L 0,0 z m -2.834,-1.275 c 0.039,-0.954 0.592,-1.585 1.557,-1.585 0.552,0 1.088,0.255 1.304,0.765 l 2.133,0 c -0.414,-1.612 -1.906,-2.309 -3.463,-2.309 -2.269,0 -3.812,1.369 -3.812,3.706 0,2.135 1.705,3.666 3.758,3.666 2.498,0 3.746,-1.881 3.638,-4.243 l -5.115,0 z"
         style="fill:#000000;fill-opacity:1;fill-rule:nonzero;stroke:none"
         id="path3293"
         inkscape:connector-curvature="0" /></g><g
       id="g3295"
       transform="translate(603.1055,-13.7998)"><path
         d="m 0,0 c 0,-0.953 0.35,-2.013 1.396,-2.013 1.116,0 1.358,1.06 1.358,1.947 0,1.006 -0.363,1.933 -1.358,1.933 C 0.35,1.867 0,0.887 0,0 m 4.955,-3.558 -2.174,0 0,0.806 -0.027,0 C 2.311,-3.41 1.639,-3.759 0.832,-3.759 c -2.187,0 -3.113,1.88 -3.113,3.84 0,1.814 0.967,3.532 2.939,3.532 0.86,0 1.518,-0.322 1.987,-0.954 l 0.029,0 0,3.37 2.281,0 0,-9.587 z"
         style="fill:#000000;fill-opacity:1;fill-rule:nonzero;stroke:none"
         id="path3297"
         inkscape:connector-curvature="0" /></g><g
       id="g3299"
       transform="translate(620.7734,-17.3574)"><path
         d="m 0,0 -2.215,0 0,0.953 -0.027,0 c -0.43,-0.711 -1.315,-1.154 -2.121,-1.154 -2.002,0 -2.578,1.154 -2.578,2.98 l 0,4.19 2.281,0 0,-4.041 c 0,-0.927 0.404,-1.249 1.129,-1.249 0.496,0 1.248,0.322 1.248,1.557 l 0,3.733 L 0,6.969 0,0 z"
         style="fill:#000000;fill-opacity:1;fill-rule:nonzero;stroke:none"
         id="path3301"
         inkscape:connector-curvature="0" /></g><g
       id="g3303"
       transform="translate(624.0742,-15.0615)"><path
         d="m 0,0 c 0,-0.349 0.146,-0.604 0.375,-0.778 0.215,-0.162 0.523,-0.243 0.846,-0.243 0.443,0 1.074,0.188 1.074,0.74 0,0.537 -0.711,0.643 -1.113,0.737 -1.438,0.363 -3.239,0.403 -3.239,2.284 0,1.679 1.813,2.135 3.184,2.135 1.531,0 3.129,-0.443 3.211,-2.257 l -2.109,0 c 0,0.296 -0.108,0.485 -0.295,0.605 -0.188,0.121 -0.446,0.174 -0.727,0.174 -0.375,0 -0.978,-0.04 -0.978,-0.523 0,-0.658 1.531,-0.779 2.578,-1.007 1.41,-0.282 1.771,-1.303 1.771,-1.881 0,-1.866 -1.771,-2.483 -3.344,-2.483 -1.652,0 -3.343,0.551 -3.41,2.497 L 0,0 z"
         style="fill:#000000;fill-opacity:1;fill-rule:nonzero;stroke:none"
         id="path3305"
         inkscape:connector-curvature="0" /></g><g
       id="g3307"
       transform="translate(634.5449,-13.1543)"><path
         d="M 0,0 C -0.039,0.779 -0.59,1.423 -1.355,1.423 -2.162,1.423 -2.697,0.846 -2.834,0 L 0,0 z m -2.834,-1.275 c 0.041,-0.954 0.592,-1.585 1.559,-1.585 0.55,0 1.086,0.255 1.302,0.765 l 2.135,0 c -0.416,-1.612 -1.906,-2.309 -3.465,-2.309 -2.267,0 -3.812,1.369 -3.812,3.706 0,2.135 1.705,3.666 3.76,3.666 2.498,0 3.746,-1.881 3.638,-4.243 l -5.117,0 z"
         style="fill:#000000;fill-opacity:1;fill-rule:nonzero;stroke:none"
         id="path3309"
         inkscape:connector-curvature="0" /></g><path
       d="m 638.074,-14.859 2.498,0 0,-2.498 -2.498,0 0,2.498 z"
       style="fill:#000000;fill-opacity:1;fill-rule:nonzero;stroke:none"
       id="path3311"
       inkscape:connector-curvature="0" /></g></g>
<g
   id="g6253"><g
     transform="matrix(0.67215369,0,0,0.67216365,-10.6301,-88.664501)"
     id="g3645"><g
       id="g3647" /><g
       id="g3685"><g
         id="g3687"
         clip-path="url(#clipPath3649)"><g
           id="g3689"><g
             id="g3691" /><g
             id="g3693"><g
               id="g3695"
               clip-path="url(#clipPath3653)"><g
                 id="g3697"
                 transform="translate(121.7881,145.2451)"><path
                   inkscape:connector-curvature="0"
                   id="path3699"
                   style="fill:#ffffff;fill-opacity:1;fill-rule:nonzero;stroke:none"
                   d="m 0,0 c -55.963,0 -101.492,45.529 -101.492,101.493 0,55.962 45.529,101.491 101.492,101.491 27.488,0 56.879,-15.448 87.358,-45.913 22.645,-22.637 37.577,-45.446 39.205,-47.972 l 4.749,-7.37 -4.537,-7.502 C 125.242,91.689 111.144,68.778 88.865,46.054 58.909,15.494 29.01,0 0,0" /></g></g></g></g><g
           id="g3701"><g
             id="g3703" /><g
             id="g3705"><g
               id="g3707"
               clip-path="url(#clipPath3657)"><g
                 id="g3709"
                 transform="translate(121.7881,347.4033)"><path
                   inkscape:connector-curvature="0"
                   id="path3711"
                   style="fill:#fbfcfc;fill-opacity:1;fill-rule:nonzero;stroke:none"
                   d="m 0,0 c 27.958,0 57.371,-16.304 86.677,-45.575 22.171,-22.143 36.949,-44.506 38.982,-47.617 0.112,-0.166 1.27,-1.961 1.297,-2.001 l 3.383,-5.249 -3.028,-5.006 c -0.021,-0.035 -1.315,-2.175 -1.397,-2.305 -1.862,-3.043 -15.83,-25.536 -37.673,-47.809 C 59.43,-184.942 29.547,-201.331 0,-201.331 c -55.508,0 -100.667,45.158 -100.667,100.665 C -100.667,-45.159 -55.508,0 0,0" /></g></g></g></g><g
           id="g3713"><g
             id="g3715" /><g
             id="g3717"><g
               id="g3719"
               clip-path="url(#clipPath3661)"><g
                 id="g3721"
                 transform="translate(121.7881,346.5771)"><path
                   inkscape:connector-curvature="0"
                   id="path3723"
                   style="fill:#f8f8f8;fill-opacity:1;fill-rule:nonzero;stroke:none"
                   d="m 0,0 c 28.429,0 57.862,-17.16 85.997,-45.237 21.697,-21.649 36.322,-43.565 38.76,-47.261 0.224,-0.333 1.271,-1.955 1.323,-2.036 l 3.285,-5.096 -2.968,-4.908 c -0.042,-0.068 -1.181,-1.951 -1.344,-2.211 -2.192,-3.548 -16.029,-25.623 -37.438,-47.443 C 59.953,-182.396 30.084,-199.68 0,-199.68 c -55.053,0 -99.841,44.788 -99.841,99.841 C -99.841,-44.788 -55.053,0 0,0" /></g></g></g></g><g
           id="g3725"><g
             id="g3727" /><g
             id="g3729"><g
               id="g3731"
               clip-path="url(#clipPath3665)"><g
                 id="g3733"
                 transform="translate(121.7881,345.751)"><path
                   inkscape:connector-curvature="0"
                   id="path3735"
                   style="fill:#f4f5f5;fill-opacity:1;fill-rule:nonzero;stroke:none"
                   d="m 0,0 c 28.899,0 58.354,-18.016 85.316,-44.899 21.223,-21.156 35.696,-42.625 38.538,-46.905 0.336,-0.499 1.272,-1.95 1.35,-2.071 l 3.187,-4.942 -2.908,-4.81 c -0.063,-0.103 -1.047,-1.729 -1.292,-2.116 -2.521,-4.056 -16.227,-25.711 -37.2,-47.082 C 60.475,-179.847 30.622,-198.027 0,-198.027 c -54.597,0 -99.015,44.417 -99.015,99.014 C -99.015,-44.417 -54.597,0 0,0" /></g></g></g></g><g
           id="g3737"><g
             id="g3739" /><g
             id="g3741"><g
               id="g3743"
               clip-path="url(#clipPath3669)"><g
                 id="g3745"
                 transform="translate(121.7881,344.9253)"><path
                   inkscape:connector-curvature="0"
                   id="path3747"
                   style="fill:#f1f1f2;fill-opacity:1;fill-rule:nonzero;stroke:none"
                   d="m 0,0 c 29.369,0 58.845,-18.872 84.636,-44.562 20.749,-20.661 35.068,-41.684 38.315,-46.548 0.448,-0.666 1.274,-1.944 1.378,-2.105 l 3.088,-4.791 -2.848,-4.709 c -0.084,-0.139 -0.913,-1.507 -1.239,-2.024 -2.85,-4.561 -16.426,-25.8 -36.964,-46.718 -25.37,-25.842 -55.207,-44.919 -86.366,-44.919 -54.142,0 -98.189,44.046 -98.189,98.188 C -98.189,-44.047 -54.142,0 0,0" /></g></g></g></g><g
           id="g3749"><g
             id="g3751" /><g
             id="g3753"><g
               id="g3755"
               clip-path="url(#clipPath3673)"><g
                 id="g3757"
                 transform="translate(121.7881,344.0996)"><path
                   inkscape:connector-curvature="0"
                   id="path3759"
                   style="fill:#edeeef;fill-opacity:1;fill-rule:nonzero;stroke:none"
                   d="m 0,0 c 29.84,0 59.336,-19.729 83.956,-44.224 20.274,-20.168 34.44,-40.744 38.092,-46.193 0.561,-0.833 1.276,-1.937 1.405,-2.139 l 2.991,-4.638 -2.789,-4.612 c -0.105,-0.173 -0.779,-1.283 -1.186,-1.929 -3.179,-5.069 -16.625,-25.886 -36.728,-46.353 C 61.518,-174.752 31.695,-194.724 0,-194.724 c -53.686,0 -97.363,43.676 -97.363,97.362 C -97.363,-43.677 -53.686,0 0,0" /></g></g></g></g><g
           id="g3761"><g
             id="g3763" /><g
             id="g3765"><g
               id="g3767"
               clip-path="url(#clipPath3677)"><g
                 id="g3769"
                 transform="translate(121.7881,343.2734)"><path
                   inkscape:connector-curvature="0"
                   id="path3771"
                   style="fill:#eaeaeb;fill-opacity:1;fill-rule:nonzero;stroke:none"
                   d="m 0,0 c 30.31,0 59.828,-20.584 83.275,-43.886 19.8,-19.674 33.813,-39.802 37.87,-45.837 0.673,-0.999 1.277,-1.931 1.433,-2.173 l 2.893,-4.486 -2.729,-4.513 c -0.126,-0.207 -0.645,-1.061 -1.135,-1.835 -3.508,-5.575 -16.823,-25.975 -36.491,-45.989 C 62.041,-172.205 32.233,-193.072 0,-193.072 c -53.23,0 -96.537,43.305 -96.537,96.536 C -96.537,-43.306 -53.23,0 0,0" /></g></g></g></g><g
           id="g3773"><g
             id="g3775" /><g
             id="g3777"><g
               id="g3779"
               clip-path="url(#clipPath3681)"><g
                 id="g3781"
                 transform="translate(121.7881,151.0264)"><path
                   inkscape:connector-curvature="0"
                   id="path3783"
                   style="fill:#e6e7e8;fill-opacity:1;fill-rule:nonzero;stroke:none"
                   d="m 0,0 c -52.775,0 -95.711,42.937 -95.711,95.711 0,52.775 42.936,95.71 95.711,95.71 62.185,0 119.301,-87.51 121.703,-91.236 l 2.794,-4.334 -2.669,-4.413 C 119.571,87.704 65.785,0 0,0" /></g></g></g></g></g></g></g><g
     transform="matrix(0.67215369,0,0,0.67216365,153.03308,80.19067)"
     id="g3785"><path
       inkscape:connector-curvature="0"
       id="path3787"
       style="fill:#00a14b;fill-opacity:1;fill-rule:nonzero;stroke:none"
       d="m 0,0 c -2.401,3.726 -59.518,91.236 -121.703,91.236 -52.775,0 -95.711,-42.935 -95.711,-95.71 0,-52.775 42.936,-95.711 95.711,-95.711 65.785,0 119.571,87.704 121.828,91.438 L 2.794,-4.334 0,0 z" /></g><g
     transform="matrix(0.67215369,0,0,0.67216365,71.23022,12.849956)"
     id="g3789"><path
       inkscape:connector-curvature="0"
       id="path3791"
       style="fill:#f1f1f2;fill-opacity:1;fill-rule:nonzero;stroke:none"
       d="m 0,0 c -52.775,0 -95.711,42.937 -95.711,95.711 0,52.775 42.936,95.71 95.711,95.71 62.185,0 119.301,-87.51 121.703,-91.236 l 2.794,-4.334 -2.669,-4.413 C 119.571,87.704 65.785,0 0,0" /></g><g
     transform="matrix(0.67215369,0,0,0.67216365,148.36671,77.183679)"
     id="g3793"><path
       inkscape:connector-curvature="0"
       id="path3795"
       style="fill:#f1f1f2;fill-opacity:1;fill-rule:nonzero;stroke:none"
       d="m 0,0 c 0,0 -52.877,-87.453 -114.76,-87.453 -48.299,0 -87.451,39.155 -87.451,87.453 0,48.297 39.152,87.45 87.451,87.45 C -56.363,87.45 0,0 0,0" /></g><g
     style="fill:#6bc6c0;fill-opacity:1"
     transform="matrix(0.67215369,0,0,0.67216365,148.36671,77.183679)"
     id="g3797"><path
       inkscape:connector-curvature="0"
       id="path3799"
       style="fill:#6bc6c0;fill-opacity:1;fill-rule:nonzero;stroke:none"
       d="m 0,0 c 0,0 -52.877,-87.453 -114.76,-87.453 -48.299,0 -87.451,39.155 -87.451,87.453 0,48.297 39.152,87.45 87.451,87.45 C -56.363,87.45 0,0 0,0" /></g><g
     id="text5196"
     style="font-size:27.04218674px;font-style:normal;font-variant:normal;font-weight:normal;font-stretch:normal;text-align:start;line-height:125%;letter-spacing:0px;word-spacing:0px;writing-mode:lr-tb;text-anchor:start;fill:#ffffff;fill-opacity:1;stroke:none;font-family:FZZhunYuan-M02S;-inkscape-font-specification:FZZhunYuan-M02S"
     transform="scale(1,-1)"><path
       id="path6249"
       style=""
       d="m 72.597724,-85.527722 c 0.633777,1.8e-5 1.021099,0.35213 1.161969,1.056336 -0.07045,0.70424 -0.422559,1.091562 -1.056335,1.161969 l -9.612653,0 0,6.232379 8.133783,0 c 0.774622,0.07043 1.197156,0.457754 1.267603,1.161969 -0.07045,0.704231 -0.492981,1.091554 -1.267603,1.161969 l -8.133783,0 0,6.971813 10.246454,0 c 0.845042,0.07042 1.302787,0.422534 1.373236,1.056336 -0.07045,0.6338 -0.528194,0.985911 -1.373236,1.056335 l -22.922479,0 c -0.704225,-0.07042 -1.091547,-0.422535 -1.161969,-1.056335 0.07042,-0.633802 0.457744,-0.985913 1.161969,-1.056336 l 10.352088,0 0,-6.971813 -7.922516,0 c -0.77465,-0.07041 -1.197184,-0.457738 -1.267603,-1.161969 -3e-6,-0.774637 0.422531,-1.16196 1.267603,-1.161969 l 7.922516,0 0,-6.232379 -9.401386,0 c -0.84507,-0.07041 -1.302815,-0.457729 -1.373236,-1.161969 0.07042,-0.633784 0.528166,-0.985895 1.373236,-1.056336 l 9.401386,0 c -0.422547,-0.845049 -0.950714,-1.654905 -1.584504,-2.429571 -0.422544,-0.704203 -0.316911,-1.302792 0.316901,-1.79577 0.633789,-0.35209 1.197168,-0.176034 1.690137,0.528167 1.478855,2.253535 2.147867,3.485926 2.007037,3.697174 z" /><path
       id="path6251"
       style=""
       d="m 89.815992,-89.119262 11.091518,0 c 0.63378,0.07044 0.95068,0.422555 0.95071,1.056335 -0.0705,0.633822 -0.42256,0.950722 -1.05634,0.950702 l -4.753509,0 -0.845069,2.429572 3.591541,0 c 1.126733,-0.140828 1.654897,0.528184 1.584507,2.007037 l 0,9.084485 c -3e-5,0.633806 -0.31693,0.985918 -0.950706,1.056335 -0.704247,-0.07042 -1.056359,-0.422529 -1.056336,-1.056335 l 0,-8.02815 c 0.0704,-0.704208 -0.211289,-1.05632 -0.845068,-1.056335 l -4.753509,0 c -0.633818,1.5e-5 -0.950719,0.387338 -0.950702,1.161969 l 0,7.922516 c -0.07044,0.704229 -0.42255,1.05634 -1.056336,1.056335 -0.633816,-0.07042 -0.950716,-0.45774 -0.950701,-1.161969 l 0,-9.084485 c -0.07044,-1.338008 0.563363,-1.971808 1.901403,-1.901403 l 1.373236,0 0.845069,-2.429572 -4.225342,0 c -0.633815,-0.0704 -0.950715,-0.422514 -0.950702,-1.056335 0.07041,-0.63378 0.42252,-0.95068 1.056336,-0.950702 z m 6.338012,8.34505 c 0.140824,4.22535 -0.246499,7.112664 -1.161969,8.66195 -0.704242,1.478873 -2.711278,2.92253 -6.021112,4.330975 -0.704236,0.211268 -1.197192,0.03521 -1.478869,-0.528167 -0.211279,-0.6338 0.0352,-1.091545 0.739434,-1.373236 2.887301,-1.197177 4.577436,-2.359145 5.07041,-3.485907 0.704205,-0.985907 1.021106,-3.55632 0.950702,-7.711249 -1.9e-5,-0.704209 0.316882,-1.056321 0.950702,-1.056335 0.633781,0.07044 0.950681,0.457759 0.950702,1.161969 z m 1.056336,8.34505 c 1.056312,0.704227 2.112646,1.584506 3.16901,2.640838 0.56335,0.563381 0.66898,1.091548 0.3169,1.584503 -0.42256,0.422535 -0.915519,0.387324 -1.478873,-0.105633 -0.140869,-0.07042 -0.316924,-0.211266 -0.528168,-0.422534 -1.056358,-1.056334 -1.936636,-1.760556 -2.640838,-2.112671 -0.563399,-0.422531 -0.704244,-0.915487 -0.422535,-1.47887 0.422514,-0.422529 0.950681,-0.45774 1.584504,-0.105633 z m -17.429535,-16.584467 6.443646,0 c 1.408435,-0.140823 2.042236,0.528189 1.901404,2.007038 l 0,5.38731 c 0.07041,1.267616 -0.598602,1.866205 -2.007037,1.795771 l -6.232379,0 c -1.408451,0.07043 -2.042251,-0.528155 -1.901404,-1.795771 l 0,-5.492944 c -0.07043,-1.338004 0.528164,-1.971804 1.79577,-1.901404 z m 5.809845,1.901404 -5.07041,0 c -0.422539,-0.0704 -0.598595,0.140864 -0.528168,0.633801 l 0,1.161969 6.126746,0 0,-1.161969 c 0.07041,-0.422514 -0.105645,-0.633781 -0.528168,-0.633801 z m -5.598578,3.591541 0,1.056335 c -4e-6,0.492971 0.211262,0.739449 0.633801,0.739435 l 4.964777,0 c 0.422523,1.4e-5 0.598579,-0.211253 0.528168,-0.633801 l 0,-1.161969 z m -2.535205,5.281677 10.774621,0 c 0.563366,1.1e-5 0.845055,0.352122 0.845069,1.056335 -1.4e-5,0.704233 -0.281703,1.056344 -0.845069,1.056336 l -3.274639,0 0,2.640838 2.852105,0 c 0.633788,6e-6 0.9859,0.316906 1.056336,0.950702 -0.07044,0.704228 -0.422548,1.056339 -1.056336,1.056335 l -2.852105,0 0,4.014075 c 1.408436,0.352111 3.168993,0.528167 5.281677,0.528168 l 10.668984,0 c 0.63378,-10e-7 0.98589,0.352111 1.05634,1.056335 -0.0704,0.633799 -0.42256,0.950699 -1.05634,0.950702 l -10.985885,0 c -4.647886,0.07042 -8.063367,-1.232393 -10.246453,-3.908441 -0.140849,0.281691 -0.316905,0.704224 -0.528168,1.267602 -0.352115,0.985913 -0.669016,1.725347 -0.950702,2.218305 -0.422537,0.704221 -0.915493,0.915488 -1.47887,0.633801 -0.563379,-0.352114 -0.669013,-0.880281 -0.3169,-1.584503 1.126755,-1.830981 1.901401,-4.401394 2.323938,-7.711249 0.07042,-0.633794 0.42253,-0.985905 1.056335,-1.056335 0.633796,0.140852 0.915485,0.528175 0.845068,1.161969 -0.07043,0.42254 -0.140849,0.915496 -0.211267,1.47887 -0.07043,0.422538 -0.105638,0.809861 -0.105633,1.161969 0.704218,0.915493 1.549285,1.795772 2.535205,2.640838 l 0,-7.499981 -5.492944,0 c -0.633803,-0.07041 -0.950703,-0.422526 -0.950702,-1.056336 0.07042,-0.704213 0.422532,-1.056324 1.056335,-1.056335 z" /></g><g
     id="text5752"
     style="font-size:18.94256401px;font-style:normal;font-variant:normal;font-weight:normal;font-stretch:normal;text-align:start;line-height:125%;letter-spacing:0px;word-spacing:0px;writing-mode:lr-tb;text-anchor:start;fill:#000000;fill-opacity:1;stroke:none;font-family:FZLanTingHeiS-UL-GB;-inkscape-font-specification:FZLanTingHeiS-UL-GB"
     transform="scale(1.0248223,-0.9757789)"><path
       id="path5899"
       style=""
       d="m 192.96376,-90.644575 9.54528,0 0,6.511506 c -2e-5,0.591955 -0.17267,1.035921 -0.51796,1.331899 -0.34532,0.295976 -0.91261,0.443965 -1.70187,0.443967 l -2.14584,-0.07399 0,-0.369972 2.14584,0.07399 c 0.73993,-2e-6 1.23322,-0.123326 1.47989,-0.369972 0.24663,-0.197319 0.36995,-0.542626 0.36997,-1.035922 l 0,-1.18391 -8.80534,0 0,3.107764 -0.36997,0 z m 0.36997,0.369972 0,2.145837 8.80534,0 0,-2.145837 z m 0,2.515809 0,2.071843 8.80534,0 0,-2.071843 z m 4.21768,-11.617119 0.36998,0 0,2.071843 5.84555,0 0,0.295977 -5.84555,0 0,1.923854 5.1796,0 0,0.369972 -5.1796,0 0,1.84986 6.14153,0 0,0.369972 -12.72703,0 0,-0.369972 6.21552,0 0,-1.84986 -5.2536,0 0,-0.369972 5.2536,0 0,-1.923854 -5.77156,0 0,-0.295977 5.77156,0 z m -10.87717,6.363517 2.6638,0 0,9.323294 2.07184,-2.071843 0.29598,0.221983 -2.29383,2.36782 c -0.0987,0.09866 -0.24665,0.271312 -0.44396,0.517961 l -0.29598,-0.221983 c 0.24664,-0.345308 0.3453,-0.542626 0.29598,-0.591955 l 0,-9.175305 -2.29383,0 z m 1.18391,-5.771562 0.29598,-0.221983 2.29382,3.181758 -0.29597,0.221984 z" /><path
       id="path5901"
       style=""
       d="m 212.42429,-92.346446 4.29167,0 0,8.287372 c 0.0493,1.08525 -0.41931,1.60321 -1.40589,1.553882 -0.54264,-2e-6 -0.91261,-0.02467 -1.10992,-0.074 l 0,-0.369972 c 0.19731,0.04933 0.56728,0.07399 1.10992,0.07399 0.73993,0.04933 1.08524,-0.345308 1.03592,-1.18391 l 0,-2.071843 -3.55173,0 0,3.847708 -0.36997,0 z m -6.5855,-3.921703 1.92385,0 c 0.0493,-0.197306 0.12332,-0.493283 0.22198,-0.887933 0.19732,-0.591941 0.36997,-1.331884 0.51796,-2.219831 l 0.36998,0.07399 c -0.0493,0.246663 -0.12333,0.616635 -0.22199,1.109916 -0.24665,0.838616 -0.4193,1.4799 -0.51796,1.923854 l 3.25576,0 0,0.295978 -3.32975,0 c -0.34531,1.430568 -0.83861,3.181767 -1.47989,5.253601 l 2.36782,0 0,-3.773713 0.29598,0 0,3.773713 1.84986,0 0,0.295978 -1.84986,0 0,3.477736 2.36782,-0.369972 0.074,0.369972 -2.44181,0.369972 0,4.439664 -0.29598,0 0,-4.439664 -3.25575,0.443967 -0.074,-0.369972 3.32975,-0.443967 0,-3.477736 -2.73779,0 0,-0.295978 c 0.59195,-1.775857 1.08525,-3.527055 1.47989,-5.253601 l -1.84986,0 z m 6.95547,7.177456 0,2.589804 3.55173,0 0,-2.589804 z m 0,-2.885781 0,2.515809 3.55173,0 0,-2.515809 z m -1.40589,-1.479888 c 2.61446,-1.479877 4.66163,-3.477724 6.14153,-5.993546 l 0.36997,0.221984 -0.36997,0.51796 c 1.43054,2.121185 3.25574,3.79839 5.47559,5.031619 l -0.14799,0.369972 c -2.31851,-1.381218 -4.16837,-3.083088 -5.54958,-5.105613 -1.4799,2.219844 -3.40375,3.971042 -5.77157,5.253602 z m 9.91524,1.18391 0.36998,0 0,8.213378 c 0.0986,1.134579 -0.46865,1.652539 -1.70187,1.553882 l -1.25791,0 0,-0.369972 1.25791,0 c 0.98657,0.09866 1.43054,-0.295979 1.33189,-1.18391 z m -2.5898,0.66595 0.36997,0 0,6.289523 -0.36997,0 z m -3.84771,-3.255753 4.80964,0 0,0.369972 -4.80964,0 z" /><path
       id="path5903"
       style=""
       d="m 230.18294,-98.487981 0.14799,-0.295977 c 1.77586,1.282583 3.0091,2.885793 3.69972,4.809635 1.67719,4.39034 4.26699,8.040726 7.76941,10.95117 l -0.22198,0.221983 c -3.60108,-2.959774 -6.21554,-6.634825 -7.84341,-11.025164 -0.0493,-0.147979 -0.12333,-0.320632 -0.22198,-0.517961 -0.0987,-0.246637 -0.17266,-0.419291 -0.22198,-0.51796 -1.33191,4.932965 -4.09437,9.027317 -8.28738,12.283068 l -0.22198,-0.295977 c 4.19301,-3.206422 6.9308,-7.350103 8.21338,-12.431058 -0.49331,-1.035909 -1.43057,-2.096494 -2.81179,-3.181759 z" /><path
       id="path5905"
       style=""
       d="m 248.53355,-93.308373 5.99354,0 0,-4.069692 c -1.23325,0.04934 -2.91045,0.07401 -5.03161,0.074 l 0,-0.369972 c 3.79836,-0.04932 7.2761,-0.22197 10.4332,-0.517961 l 0,0.369972 c -1.57856,0.197332 -3.25576,0.320656 -5.03161,0.369972 l 0,4.143686 5.99354,0 0,0.369972 -5.99354,0 0,3.847708 4.51365,0 0,6.807484 -0.36997,0 0,-1.405893 -8.65734,0 0,1.405893 -0.36997,0 0,-6.807484 4.51365,0 0,-3.847708 -5.99354,0 z m 1.84986,4.587652 0,4.661647 8.65734,0 0,-4.661647 z m -5.84556,6.289523 2.36782,-6.585501 0.36997,0.147989 -2.36782,6.511507 z m -1.03592,-11.46913 0.22198,-0.295978 3.62573,2.589804 -0.22199,0.295977 z m 1.3319,-4.513658 0.22198,-0.295978 3.10777,2.441815 -0.22199,0.295978 z" /><path
       id="path5907"
       style=""
       d="m 270.95385,-95.158233 2.5898,0 0.074,-4.21768 0.36997,0 -0.074,4.21768 4.66164,0 -0.22198,10.359215 c -2e-5,1.282569 -0.73996,1.899188 -2.21983,1.849859 -0.93728,-1e-6 -1.5539,-0.02466 -1.84986,-0.07399 l 0,-0.369972 c 0.29596,0.04933 0.91258,0.07399 1.84986,0.07399 1.23322,0.04933 1.84984,-0.443967 1.84986,-1.479888 l 0.22198,-9.989243 -4.29167,0 c -0.0494,3.551738 -0.32066,6.116874 -0.81394,7.695417 -0.44398,1.677207 -1.40591,3.305082 -2.88578,4.883629 l -0.29598,-0.221983 c 1.43055,-1.578547 2.36781,-3.157092 2.81179,-4.735641 0.49328,-1.578542 0.76459,-4.119014 0.81393,-7.621422 l -2.5898,0 z m -7.8434,10.211226 c 1.13457,-2.07184 2.14583,-4.464323 3.03377,-7.177456 l -3.62573,0 0,-0.369972 8.21338,0 0,0.369972 -4.21768,0 c -0.73995,2.269167 -1.72654,4.66165 -2.95978,7.177456 l 5.91955,-0.443966 -1.77586,-4.217681 0.36997,-0.147988 2.29383,5.549579 -0.29598,0.147989 -0.44397,-0.961927 -6.21553,0.443966 -0.44396,0.07399 -0.14799,-0.295977 z m 0.29597,-12.505052 6.5855,0 0,0.369972 -6.5855,0 z" /><path
       id="path5909"
       style=""
       d="m 282.27499,-95.676194 15.61282,0 0,0.369972 -7.62142,0 0,5.475585 6.95547,0 0,0.369972 -6.95547,0 0,5.771563 8.28737,0 0,0.369972 -16.94472,0 0,-0.369972 8.28738,0 0,-5.771563 -6.95548,0 0,-0.369972 6.95548,0 0,-5.475585 -7.62143,0 z m 6.80749,-3.477736 0.29598,-0.221983 0.074,0.07399 c 0.14798,0.246663 0.46862,0.789288 0.96193,1.627877 0.39462,0.542638 0.64127,0.91261 0.73994,1.109916 l -0.36997,0.147988 c -0.24666,-0.443953 -0.81395,-1.331885 -1.70187,-2.663798 z" /><path
       id="path5911"
       style=""
       d="m 301.8835,-98.265997 5.47559,0 0,5.771562 -5.47559,0 z m -1.55388,15.834799 c 1.03592,-1.726535 1.60321,-3.872371 1.70187,-6.437512 l 0.36997,0 c 0,0.147994 -0.0247,0.345312 -0.074,0.591955 0,0.246652 0,0.419306 0,0.517961 0.19731,2.121174 1.01125,3.403742 2.44181,3.847708 l 0,-6.141534 -4.29167,0 0,-0.369972 7.99139,0 0,0.369972 -3.32974,0 0,2.959776 2.95977,0 0,0.369972 -2.95977,0 0,2.959775 c 0.59194,0.197318 1.33189,0.295977 2.21983,0.295978 l 10.43321,0 0,0.369972 -10.43321,0 c -2.91045,0.04933 -4.63699,-1.085251 -5.17961,-3.403742 -0.24665,1.479888 -0.76461,2.88578 -1.55388,4.21768 z m 8.65734,-15.538822 8.50936,0 0,0.369972 -4.36567,0 c -0.0987,0.641298 -0.29599,1.553894 -0.59196,2.737793 l 3.69972,0 0,7.029467 -0.36997,0 0,-6.659495 -5.77156,0 0,6.659495 -0.36997,0 0,-7.029467 2.44181,0 c 0.14798,-0.443956 0.32063,-1.233228 0.51796,-2.367821 0.0493,-0.147975 0.074,-0.271299 0.074,-0.369972 l -3.77372,0 z m -6.73349,5.105613 4.73564,0 0,-2.36782 -4.73564,0 z m 4.73564,-5.031618 -4.73564,0 0,2.36782 4.73564,0 z m 5.84556,7.769411 0,-2.737793 0.36997,0 0,2.737793 c 0.14798,2.614471 -1.33191,4.612318 -4.43966,5.993545 l -0.14799,-0.295977 c 3.00909,-1.381227 4.41499,-3.280415 4.21768,-5.697568 z m 0.22199,2.36782 0.22198,-0.295977 c 0.29596,0.246651 0.96191,0.838606 1.99785,1.775865 0.98657,0.887934 1.62786,1.455224 1.92385,1.701871 l -0.29598,0.221983 c -1.62789,-1.479886 -2.91046,-2.614466 -3.8477,-3.403742 z" /><path
       id="path5913"
       style=""
       d="m 188.00614,-74.513798 14.79888,0 0,15.982788 -0.36998,0 0,-1.553882 -14.05893,0 0,1.553882 -0.36997,0 z m 0.36997,0.369972 0,13.762957 14.05893,0 0,-13.762957 z m 1.55388,3.773714 7.9914,0 0,-2.663798 0.36997,0 0,2.663798 2.88578,0 0,0.369972 -2.88578,0 0,6.215529 c 0.0986,1.43056 -0.54264,2.096509 -1.92386,1.997848 l -2.14583,0 0.074,-0.369972 2.07184,0 c 1.13457,0.09866 1.65253,-0.443964 1.55389,-1.627876 l 0,-6.215529 -0.074,0 c -1.97319,2.861123 -4.68632,5.179612 -8.13938,6.955473 l -0.14799,-0.295978 c 3.40374,-1.775861 6.0182,-3.99569 7.84341,-6.659495 l -7.47344,0 z" /><path
       id="path5915"
       style=""
       d="m 210.13046,-68.742236 c 1.38122,1.282577 2.07184,2.663804 2.07184,4.143686 0.0493,1.775868 -0.81394,2.61447 -2.5898,2.51581 -0.14799,1e-6 -0.39464,-0.02466 -0.73994,-0.07399 -0.34531,2e-6 -0.61663,2e-6 -0.81394,0 l 0,-0.369972 c 0.54262,0.04933 1.06058,0.074 1.55388,0.074 1.57854,0.09866 2.31848,-0.616618 2.21983,-2.145838 -0.0493,-1.430552 -0.76461,-2.76245 -2.14583,-3.995697 l 1.92385,-5.40159 -4.21768,0 0,15.390833 -0.36997,0 0,-15.760805 5.03162,0 0,0.369972 z m 6.36352,-6.659495 0.36997,0 0,2.441815 c -0.148,5.475592 1.87451,10.112569 6.06754,13.910946 l -0.22198,0.295977 c -3.60108,-3.35441 -5.59892,-7.078791 -5.99355,-11.173153 -0.39465,4.143691 -2.41716,7.892737 -6.06754,11.247148 l -0.22198,-0.221984 c 4.29166,-3.897035 6.31418,-8.583342 6.06754,-14.058934 z" /><path
       id="path5917"
       style=""
       d="m 230.18294,-70.888073 5.03162,0 0,-2.293826 -4.14369,0 0,-0.369972 4.14369,0 0,-2.219832 0.36997,0 0,2.219832 4.66165,0 0,2.663798 1.62787,0 0,0.369972 -1.62787,0 0,2.589804 -4.66165,0 0,2.219831 5.10561,0 0,0.369972 -5.10561,0 0,2.293827 5.91955,0 0,0.369972 -5.91955,0 0,2.145837 -0.36997,0 0,-2.145837 -5.2536,0 0,-0.369972 5.2536,0 0,-2.293827 -4.51366,0 0,-0.369972 4.51366,0 0,-2.219831 -4.14369,0 0,-0.295978 4.14369,0 0,-2.293826 -5.03162,0 z m -0.51796,-2.811787 -4.06969,5.253602 3.69972,0 0,0.369972 c -0.19733,2.121178 -0.73995,4.020366 -1.62788,5.697568 1.6772,1.726536 4.267,2.589803 7.76941,2.589804 l 6.51151,0 0,0.369972 -6.51151,0 c -3.50241,-10e-7 -6.14154,-0.887933 -7.9174,-2.663798 -0.54263,1.035922 -1.43056,2.219831 -2.66379,3.55173 l -0.22199,-0.221983 c 1.13458,-1.23324 1.99785,-2.417149 2.58981,-3.551731 -0.9866,-1.085248 -1.70188,-2.515804 -2.14584,-4.291674 l 0.36997,-0.074 c 0.44396,1.627882 1.10991,2.959779 1.99785,3.995698 0.78927,-1.677203 1.30723,-3.477731 1.55388,-5.401591 l -3.84771,0 0,-0.369972 4.06969,-5.253602 -4.21768,0 0,-0.369972 4.66165,0 z m 10.21123,0.517961 -4.29168,0 0,2.293826 4.29168,0 z m -4.29168,4.957624 4.29168,0 0,-2.293826 -4.29168,0 z" /><path
       id="path5919"
       style=""
       d="m 258.96676,-67.63232 0,0.369972 c -0.69063,2.121178 -2.02253,3.946371 -3.9957,5.475585 1.5292,1.035922 3.47772,1.997848 5.84556,2.885781 l -0.074,0.369972 c -2.66381,-1.035922 -4.68632,-2.047178 -6.06754,-3.03377 -1.23325,0.887933 -3.28042,1.923854 -6.14153,3.107765 l -0.14799,-0.369972 c 2.5158,-0.937263 4.51365,-1.923854 5.99355,-2.959776 -1.82521,-1.529214 -3.03378,-3.354407 -3.62573,-5.475585 l -1.55388,0 0,-0.369972 z m -7.84341,0.369972 c 0.59195,2.071848 1.77586,3.823047 3.55173,5.253602 1.92384,-1.479885 3.23108,-3.231084 3.92171,-5.253602 z m 0.44397,-7.177456 6.5115,0 0,3.551731 c -0.0987,0.789283 0.36996,1.159255 1.4059,1.109916 l 1.2579,0 0,0.369972 -1.2579,0 c -1.23326,0.04934 -1.82521,-0.443957 -1.77587,-1.479888 l 0,-3.181759 -5.77156,0 0,1.627877 c 0.0493,1.529228 -0.73995,2.762466 -2.36782,3.699719 l -0.22198,-0.295977 c 1.57854,-0.887923 2.31848,-2.022503 2.21983,-3.403742 z m -7.9914,5.327597 0,-0.369972 2.81179,0 0,9.249298 2.6638,-2.589803 0.22198,0.295977 -2.81178,2.737793 c -0.148,0.197317 -0.29599,0.369971 -0.44397,0.51796 l -0.29598,-0.147988 c 0.19732,-0.345308 0.29598,-0.542626 0.29598,-0.591955 l 0,-9.10131 z m 1.10992,-5.845557 0.22198,-0.221984 2.88578,3.107765 -0.29597,0.221983 z" /><path
       id="path5921"
       style=""
       d="m 264.66433,-63.784611 0.29597,-0.221984 3.9957,4.439664 -0.29598,0.221983 z" /><path
       id="path5923"
       style=""
       d="m 281.68304,-74.735781 8.80533,0 0,0.369972 -1.3319,0 0,5.919551 1.55388,-0.147989 0.074,0.369972 -1.62788,0.147989 0,1.627877 -0.36997,0 0,-1.627877 -7.25145,0.443966 0,-0.369972 1.77587,-0.07399 0,-6.289523 -1.62788,0 z m 1.47989,9.175304 c 4.73563,-0.147983 9.22462,-0.419296 13.46698,-0.813938 l 0,0.369972 c -1.28259,0.09866 -3.40376,0.246653 -6.36352,0.443966 l 0,0.591955 c 0.59194,0.937266 1.38122,1.800533 2.36782,2.589804 2.26915,-0.986589 3.74903,-1.701867 4.43966,-2.145837 l 0.22199,0.369972 c -1.82521,0.887935 -3.28044,1.553884 -4.36567,1.997848 1.33188,0.937263 3.25573,1.751201 5.77156,2.441815 l -0.074,0.369972 c -3.94638,-1.035921 -6.7335,-2.713126 -8.36136,-5.031618 l 0,5.845556 -0.36997,0 0,-6.955472 c -1.18392,0.04933 -2.8118,0.123329 -4.88363,0.221983 -0.88794,0.04933 -1.50456,0.074 -1.84986,0.07399 z m 0.51796,-8.805332 0,1.84986 5.10561,0 0,-1.84986 z m 0,2.219831 0,1.775866 5.10561,0 0,-1.775866 z m 7.39944,-0.07399 0.22198,-0.295977 c 1.43055,0.937273 2.58979,1.751211 3.47774,2.441814 1.18389,-1.134569 2.04716,-2.367808 2.5898,-3.699719 l -6.21553,0 0,-0.369972 6.5855,0 0,0.369972 c -0.59197,1.4799 -1.4799,2.762468 -2.6638,3.847708 1.67719,1.282578 2.76244,2.096515 3.25576,2.441815 l -0.22199,0.295978 c -0.39465,-0.295971 -1.23325,-0.91259 -2.51581,-1.84986 -0.34532,-0.246639 -0.61663,-0.443957 -0.81393,-0.591955 -1.08527,0.93727 -2.4665,1.849867 -4.14369,2.737792 l -0.14799,-0.295977 c 1.82518,-0.986584 3.15708,-1.874516 3.9957,-2.663798 -1.67722,-1.1839 -2.8118,-1.973173 -3.40374,-2.367821 z m -7.39944,2.219832 0,1.84986 5.10561,-0.295978 0,-1.553882 z m -2.21983,10.433209 c 2.86111,-0.838603 5.15493,-1.70187 6.88147,-2.589804 l 0.22199,0.369972 c -1.77587,0.887933 -4.11903,1.7512 -7.02947,2.589804 z m 0.29597,-2.663798 c 1.87453,-0.542623 3.74905,-1.233237 5.62358,-2.071843 l 0.14799,0.369972 c -1.67722,0.739947 -3.5764,1.43056 -5.69757,2.071843 z" /><path
       id="path5925"
       style=""
       d="m 300.32962,-65.190505 c 3.8477,-1.282563 6.90614,-2.984432 9.1753,-5.105613 l 0.22199,0.295978 c -0.0987,0.147998 -0.222,0.271322 -0.36997,0.369972 2.0225,1.677214 4.80962,3.10777 8.36136,4.291674 l -0.14799,0.295978 c -1.08527,-0.295973 -2.19518,-0.715274 -3.32974,-1.257905 l 0,4.143686 -10.13724,0 0,3.181759 c 0.14799,-0.04933 0.86327,-0.19732 2.14584,-0.443966 1.72653,-0.345308 2.61446,-0.542626 2.6638,-0.591955 l 0.074,0.369972 -4.88363,1.035921 c 0,-2e-6 -0.0493,0.02466 -0.14799,0.07399 -0.0493,0.04933 -0.12332,0.07399 -0.22198,0.074 l -0.14799,-0.295978 c 0.0493,-1e-6 0.0987,-0.02467 0.14799,-0.07399 l 0,-7.325445 c -1.03592,0.493301 -2.12117,0.937267 -3.25575,1.331899 z m 13.61497,-0.887932 -9.84126,0 0,1.701871 9.84126,0 z m -9.84126,3.625725 9.84126,0 0,-1.553883 -9.84126,0 z m 4.36567,-5.327596 0.29598,-0.147989 0.88793,1.479888 4.21768,0 c -1.97319,-0.937256 -3.5764,-1.923847 -4.80963,-2.959776 -1.23325,1.085259 -2.78713,2.07185 -4.66165,2.959776 l 4.80964,0 z m -7.8434,-2.663799 c 1.38122,-1.183899 2.34315,-2.269149 2.88578,-3.255753 l 0.29598,0.221983 c -0.0493,0.09867 -0.148,0.246661 -0.29598,0.443967 -0.14799,0.24666 -0.27132,0.419314 -0.36997,0.517961 l 2.44181,0 0,-3.181759 0.36997,0 0,1.405893 3.03377,0 0,0.295978 -3.03377,0 0,1.479888 2.95978,0 0,0.369971 c -1.57856,1.874535 -4.26702,3.45308 -8.06539,4.735641 l -0.074,-0.369971 c 3.30507,-1.085243 5.87021,-2.540465 7.69541,-4.36567 l -5.62357,0 -0.29598,0.369972 2.36782,1.479888 -0.22198,0.295978 -2.44182,-1.479888 c -0.39464,0.443977 -0.88793,0.863278 -1.47988,1.257905 z m 9.61927,-1.997848 0.14799,-0.295978 c 0.14797,0.09867 0.36996,0.221996 0.66595,0.369972 0.83859,0.443978 1.50454,0.81395 1.99785,1.109916 1.28255,-0.739932 2.29381,-1.627864 3.03377,-2.663798 l -5.99355,0 0,-0.295977 6.43751,0 0,0.295977 c -0.73996,1.134593 -1.77588,2.096519 -3.10776,2.885781 0.73993,0.443977 1.77585,1.035931 3.10776,1.775866 0.39462,0.246656 0.66593,0.41931 0.81394,0.51796 l -0.14799,0.295978 c -0.39465,-0.24664 -1.23326,-0.71527 -2.51581,-1.405893 -0.73996,-0.443957 -1.28258,-0.764599 -1.62787,-0.961927 -0.6413,0.345317 -1.4799,0.715288 -2.51581,1.109915 l -0.14799,-0.295977 c 0.0493,-0.04932 0.14797,-0.09865 0.29597,-0.147989 0.69061,-0.246638 1.35656,-0.542615 1.99785,-0.887933 -0.93727,-0.493284 -1.75121,-0.961915 -2.44181,-1.405893 z m -3.25576,11.321142 0.074,-0.369972 3.62572,1.035921 c 1.62787,-0.443966 3.25574,-0.937261 4.88363,-1.479888 l 0.074,0.295978 c -1.43057,0.493297 -2.86113,0.912598 -4.29168,1.257905 l 5.17961,1.479887 -0.074,0.369972 z" /><path
       id="path5927"
       style=""
       d="m 321.49202,-63.784611 0.29598,-0.221984 3.99569,4.439664 -0.29598,0.221983 z" /><path
       id="path5929"
       style=""
       d="m 345.76218,-75.697708 0.36997,0 0,3.255753 7.62142,0 0,0.369972 -7.62142,0 0,3.699719 9.47128,0 0,0.369972 -17.38868,0 0,-0.369972 7.54743,0 z m 0,8.657343 0.36997,0 0,8.58335 -0.36997,0 z m 1.2579,1.997849 0.14799,-0.369972 c 0.29597,0.147994 0.86326,0.419306 1.70187,0.813938 2.56513,1.282573 4.193,2.121175 4.88363,2.51581 l -0.14799,0.295977 c -2.41716,-1.282567 -4.61232,-2.367817 -6.5855,-3.255753 z" /><path
       id="path5931"
       style=""
       d="m 360.26508,-75.623714 0.36997,0 0,3.921703 2.51581,0 0,0.369972 -2.51581,0 0,4.513658 2.58981,-0.739944 0.074,0.369972 -2.6638,0.813938 0,5.919551 c 0,0.986591 -0.59195,1.479887 -1.77586,1.479888 l -1.40589,-0.07399 0,-0.295978 1.40589,0 c 0.98659,0.04933 1.45522,-0.320643 1.40589,-1.109916 l 0,-5.845557 -2.95977,0.887933 -0.14799,-0.369972 3.10776,-0.887933 0,-4.661646 -2.81178,0 0,-0.369972 2.81178,0 z m 2.58981,15.390833 6.43751,0 c 1.08523,-3.157091 2.04716,-6.314181 2.88578,-9.471282 l 0.36997,0.147989 c -1.33191,4.636987 -2.29384,7.744748 -2.88578,9.323293 l 4.80963,0 0,0.295978 -11.61711,0 z m 1.03592,-11.46913 10.13723,0 0,0.369972 -10.13723,0 z m 1.10991,2.293826 0.36997,-0.07399 1.92386,7.325444 -0.29598,0.07399 z m 2.95978,-6.141534 0.29598,-0.147989 1.2579,3.255753 -0.29598,0.07399 z" /><path
       id="path5933"
       style=""
       d="m 377.28379,-67.040365 c 0.39464,4.242348 2.5898,6.536172 6.5855,6.881479 3.99569,-0.345307 6.19085,-2.639131 6.58551,-6.881479 -0.39466,-4.291663 -2.58982,-6.634817 -6.58551,-7.029467 -3.9957,0.39465 -6.19086,2.737804 -6.5855,7.029467 z m -0.36997,0 c 0.39464,-4.488981 2.71313,-6.955459 6.95547,-7.399439 4.24234,0.44398 6.56083,2.910458 6.95548,7.399439 -0.39465,4.439666 -2.71314,6.832149 -6.95548,7.177456 -4.24234,-0.345307 -6.56083,-2.73779 -6.95547,-7.177456 z" /><path
       id="path5935"
       style=""
       d="m 406.06761,-60.010897 -0.29598,0.221983 -6.73349,-8.139383 -4.06969,3.921702 0,4.069692 -0.36997,0 0,-14.354912 0.36997,0 0,9.841254 10.28522,-9.915248 0.29598,0.295977 -6.21553,5.919552 z" /><path
       id="path5937"
       style=""
       d="m 409.69333,-63.784611 0.29597,-0.221984 3.9957,4.439664 -0.29598,0.221983 z" /><path
       id="path5939"
       style=""
       d="m 435.29539,-69.334191 c 2.46647,-0.147979 5.05627,-0.468621 7.76941,-0.961927 l 0.074,0.295978 c -0.83862,0.197328 -2.29384,0.443975 -4.36567,0.739944 0.14798,1.578554 0.41929,3.05844 0.81394,4.439663 1.23323,-0.54262 2.46647,-1.208569 3.69972,-1.997848 l 0.22199,0.295977 c -1.18393,0.739949 -2.44184,1.430563 -3.77372,2.071843 0.64127,1.825197 1.99783,3.502402 4.06969,5.031619 l -0.22198,0.221983 c -3.25577,-2.170501 -4.9823,-5.52491 -5.17961,-10.063237 -0.34532,0.04934 -0.86328,0.09867 -1.55388,0.147989 -0.54264,0.09867 -0.96194,0.147997 -1.2579,0.147988 l 0,9.545277 3.62572,-1.701871 0.22198,0.369972 -3.69972,1.701871 c -0.14799,0.09866 -0.39464,0.246646 -0.73994,0.443966 l -0.22198,-0.295978 c 0.24664,-0.14799 0.41929,-0.271314 0.51796,-0.369972 z m -8.50936,-2.811787 6.6595,0 0,0.369972 -4.36567,0 -0.074,3.403742 3.47774,0 -0.14799,7.251451 c 0.0493,1.430557 -0.56729,2.121171 -1.84986,2.071843 -0.14799,-2e-6 -0.4193,-0.02467 -0.81394,-0.074 -0.39464,-10e-7 -0.64128,-10e-7 -0.73994,0 l 0,-0.369972 c 0.0987,-1e-6 0.3453,-1e-6 0.73994,0 0.39464,0.04933 0.66595,0.07399 0.81394,0.07399 1.03592,0.09866 1.52921,-0.493297 1.47989,-1.775866 l 0.14799,-6.807484 -3.10777,0 c 0,4.587656 -0.73994,7.744746 -2.21983,9.471282 l -0.29597,-0.221983 c 0.88793,-1.23324 1.45522,-2.491143 1.70187,-3.773714 0.24664,-1.183907 0.39463,-3.206418 0.44396,-6.06754 l 0.074,-3.181759 -1.92386,0 z m 6.73349,2.441815 c 1.47988,-1.825183 2.61446,-3.82303 3.40374,-5.993545 l 0.36998,0.147989 c -0.0987,0.148003 -0.222,0.394651 -0.36998,0.739943 -0.0987,0.345322 -0.36998,0.961941 -0.81393,1.84986 l 7.62142,0 0,0.369972 -7.84341,0 c -0.59196,1.134592 -1.28258,2.170512 -2.07184,3.107765 z m -4.14368,-5.771562 0.29597,-0.147989 1.47989,3.03377 -0.29598,0.147989 z" /><path
       id="path5941"
       style=""
       d="m 449.28033,-72.071983 5.91955,0 0,0.369972 -3.9957,0 -0.074,3.329747 3.32975,0 -0.14799,7.029468 c 0.0493,1.430557 -0.54264,2.121171 -1.77587,2.071842 l -1.47989,-0.07399 0.074,-0.295977 1.40589,0 c 0.98659,0.09866 1.45522,-0.468632 1.4059,-1.701871 l 0.14798,-6.659496 -2.95977,0 c -0.0493,2.565144 -0.22199,4.439667 -0.51796,5.623574 -0.29598,1.28257 -0.88794,2.515809 -1.77587,3.69972 l -0.29597,-0.221984 c 0.88792,-1.18391 1.47988,-2.392484 1.77586,-3.625725 0.24664,-1.233236 0.39463,-3.231083 0.44397,-5.993545 l 0.074,-3.181759 -1.55388,0 z m 12.87502,2.293826 0,0.295978 -2.73779,2.959775 0,1.18391 3.40374,0 0,0.369972 -3.40374,0 0,4.439664 c 0.0493,1.08525 -0.49331,1.60321 -1.62788,1.553882 l -0.074,0 -1.47989,-0.07399 0.074,-0.295978 1.40589,0 0.074,0 c 0.93725,0.04933 1.38122,-0.345308 1.3319,-1.18391 l 0,-4.439664 -3.8477,0 0,-0.369972 3.8477,0 0,-1.331899 2.51581,-2.811786 -5.1796,0 0,-0.295978 z m -6.95547,-0.369972 c 1.23323,-1.578536 2.17049,-3.428394 2.81179,-5.549579 l 0.36997,0.147989 c -0.29599,0.887946 -0.6413,1.775878 -1.03592,2.663798 l 5.40159,0 0,0.295977 -5.62358,0 c -0.69062,1.282581 -1.23325,2.170512 -1.62787,2.663798 z m -9.61927,11.247147 2.44181,-6.807484 0.36998,0.07399 -2.44182,6.807484 z m -0.22198,-11.395136 0.22198,-0.221983 3.18176,2.293826 -0.29598,0.295978 z m 0.44396,-4.661646 0.22199,-0.295978 2.88578,2.293826 -0.22199,0.295978 z m 5.69757,-0.591955 0.29598,-0.147989 1.40589,3.03377 -0.29598,0.147989 z" /><path
       id="path5943"
       style=""
       d="m 466.52102,-63.784611 0.29598,-0.221984 3.9957,4.439664 -0.29598,0.221983 z" /><path
       id="path5945"
       style=""
       d="m 486.05555,-67.114359 11.7651,0 0,3.847708 -11.7651,0 z m 11.39513,0.369972 -11.02516,0 0,3.107764 11.02516,0 z m -12.80103,-5.771562 0.22199,-0.295978 3.25575,2.36782 c 1.08524,-0.98658 1.97317,-2.195154 2.6638,-3.625725 l -6.73349,0 0,-0.369972 7.17745,0 0,0.369972 c -1.13459,2.663809 -3.74905,5.056292 -7.8434,7.177456 l -0.14799,-0.295977 c 1.92385,-1.035914 3.45307,-2.04717 4.58765,-3.03377 z m -1.40589,12.727035 9.98924,0 c 1.28256,-0.937262 2.34314,-1.899188 3.18176,-2.885781 l 0.29598,0.221983 c -0.69063,0.838604 -1.67722,1.726536 -2.95978,2.663798 l 6.80749,0 0,0.369972 -17.31469,0 z m 9.1753,-15.8348 0.29598,-0.07399 c 0.44396,1.035935 0.91259,1.997862 1.40589,2.885781 0.64128,-0.345294 1.82519,-1.011243 3.55173,-1.997849 0.24664,-0.147974 0.41929,-0.246633 0.51797,-0.295977 l 0.14798,0.295977 c -1.52923,0.937276 -2.88579,1.701884 -4.06969,2.293827 0.49329,0.690625 1.06058,1.331909 1.70187,1.923854 1.87451,-0.887922 3.18175,-1.553871 3.92171,-1.997849 l 0.22198,0.295978 c -0.88795,0.542637 -2.17052,1.208585 -3.84771,1.997848 1.13457,1.035931 2.58979,1.923862 4.36567,2.663798 l -0.14799,0.369972 c -4.1437,-1.775856 -6.83216,-4.562976 -8.06539,-8.361366 z m -3.55173,5.771563 6.06754,0 0,0.369972 -6.06754,0 z m -1.62787,7.473433 0.22198,-0.295977 2.51581,2.219831 -0.22199,0.147989 z" /><path
       id="path5947"
       style=""
       d="m 510.76967,-75.253742 0.36998,0 0,14.798878 6.43751,0 0,-11.543125 0.36997,0 0,13.171002 -0.36997,0 0,-1.405894 -13.61497,0 0,-11.617119 0.36997,0 0,11.395136 6.43751,0 z" /><path
       id="path5949"
       style=""
       d="m 523.34872,-63.784611 0.29598,-0.221984 3.9957,4.439664 -0.29598,0.221983 z" /><path
       id="path5951"
       style=""
       d="m 540.07146,-58.752993 c 2.1705,-2.071842 3.32974,-4.784967 3.47773,-8.139383 l 0.29598,0 c 0,0.197325 -0.0247,0.443973 -0.074,0.739944 -10e-6,0.295983 -10e-6,0.517966 0,0.66595 0.29597,3.551732 2.07183,5.426255 5.32759,5.623573 l 0,-8.953321 -6.28952,0 0,-5.475585 12.65304,0 0,5.475585 -5.99355,0 0,4.069692 6.95548,0 0,0.369972 -6.95548,0 0,4.587652 c 0.24664,-1e-6 0.51795,-1e-6 0.81394,0 l 7.17746,0 0,0.369972 -7.17746,0 c -3.89704,0.04933 -6.14154,-1.603211 -6.73349,-4.957624 -0.34531,2.121174 -1.40589,4.069691 -3.18176,5.845556 z m 15.02086,-15.242844 -11.9131,0 0,4.809635 11.9131,0 z" /><path
       id="path5953"
       style=""
       d="m 570.18718,-75.697708 0.36997,0 0,3.995697 5.77156,0 0,0.369972 -5.77156,0 0,0.887932 c 0.44395,1.677215 0.98658,3.181766 1.62787,4.513658 1.43055,-1.57854 2.49113,-2.762449 3.18176,-3.55173 l 0.29598,0.221983 c -0.98661,1.233247 -2.09652,2.441821 -3.32975,3.625725 0.98658,1.825198 2.34314,3.453073 4.06969,4.88363 l -0.22198,0.221983 c -2.76247,-2.1705 -4.63699,-5.056278 -5.62357,-8.657344 l 0,8.583349 c 0.0986,1.282569 -0.59197,1.874523 -2.07185,1.775866 l -1.55388,0 0,-0.369972 1.55388,0 c 1.23323,0.09866 1.80052,-0.369973 1.70188,-1.405894 l 0,-4.809635 -4.88363,3.625725 -0.22199,-0.295977 5.10562,-3.773714 0,-5.475585 -5.10562,0 0,-0.369972 5.10562,0 z m -10.95117,2.219831 5.40159,0 0,0.369972 -2.51581,0 0,5.623574 2.29382,0 0,0.369972 -2.29382,0 0,6.06754 2.51581,-0.369972 0.074,0.369972 -5.54958,0.66595 -0.074,-0.221984 2.66379,-0.369972 0,-6.141534 -2.29382,0 0,-0.369972 2.29382,0 0,-5.623574 -2.5158,0 z m 6.21552,4.217681 0.29598,-0.221983 2.44182,3.255753 -0.22199,0.221983 z m 6.95548,-5.475585 0.22198,-0.221983 c 0.88792,0.789287 1.65253,1.504565 2.29383,2.145837 l -0.22199,0.295978 z" /><path
       id="path5955"
       style=""
       d="m 586.46594,-70.962067 0.36998,0 0,1.701871 6.88147,0 0,0.369972 -6.88147,0 0,2.441815 8.50935,0 0,0.295977 -17.31469,0 0,-0.295977 8.43536,0 0,-2.441815 -6.80748,0 0,-0.369972 6.80748,0 z m -8.21337,7.25145 12.50505,0 0,-1.627877 0.29598,0 0,1.627877 3.99569,0 0,0.369972 -3.99569,0 0,2.219832 c 0.0986,1.677205 -0.78929,2.466478 -2.6638,2.36782 l -2.07185,-0.07399 0.074,-0.369972 1.99785,0.07399 c 1.72652,0.09866 2.51579,-0.567291 2.36782,-1.997848 l 0,-2.219832 -12.50505,0 z m -0.22199,-7.103461 c 1.38123,-1.233229 2.63913,-2.861104 3.77372,-4.88363 l 0.36997,0.147989 c -10e-6,0.04934 -0.0247,0.09867 -0.074,0.147988 -0.39464,0.690629 -0.73994,1.233254 -1.03592,1.627877 l 5.91955,0 0,0.369972 -6.21552,0 c -0.83861,1.183922 -1.67721,2.121183 -2.51581,2.811787 z m 8.58335,-0.813939 c 1.03591,-1.134568 1.94851,-2.466466 2.73779,-3.995697 l 0.29598,0.147989 c -0.29599,0.59197 -0.61663,1.159259 -0.96193,1.701871 l 6.6595,0 0,0.369972 -6.88148,0 c -0.29599,0.493308 -0.81395,1.159257 -1.55388,1.997848 z m -4.95762,9.175305 0.22198,-0.295978 3.10777,2.219832 -0.22199,0.147989 z m 8.43536,-10.063237 0.29598,-0.221984 1.70187,1.627877 -0.29598,0.221983 z m -7.84341,-0.07399 0.22199,-0.221983 1.62787,1.701871 -0.29597,0.221983 z" /></g></g></g></svg>