<?xml version="1.0" encoding="UTF-8" standalone="no"?>
<svg
   xmlns:dc="http://purl.org/dc/elements/1.1/"
   xmlns:cc="http://creativecommons.org/ns#"
   xmlns:rdf="http://www.w3.org/1999/02/22-rdf-syntax-ns#"
   xmlns:svg="http://www.w3.org/2000/svg"
   xmlns="http://www.w3.org/2000/svg"
   xmlns:xlink="http://www.w3.org/1999/xlink"
   xmlns:sodipodi="http://sodipodi.sourceforge.net/DTD/sodipodi-0.dtd"
   xmlns:inkscape="http://www.inkscape.org/namespaces/inkscape"
   viewBox="0 0 1140 470"
   height="470"
   width="1140"
   xml:space="preserve"
   id="svg2"
   version="1.1"
   inkscape:version="0.91 r13725"
   sodipodi:docname="bg1.svg"><sodipodi:namedview
     pagecolor="#ffffff"
     bordercolor="#666666"
     borderopacity="1"
     objecttolerance="10"
     gridtolerance="10"
     guidetolerance="10"
     inkscape:pageopacity="0"
     inkscape:pageshadow="2"
     inkscape:window-width="1366"
     inkscape:window-height="666"
     id="namedview4358"
     showgrid="false"
     inkscape:zoom="0.43902917"
     inkscape:cx="741.82205"
     inkscape:cy="333.4051"
     inkscape:window-x="0"
     inkscape:window-y="0"
     inkscape:window-maximized="1"
     inkscape:current-layer="layer4" /><metadata
     id="metadata8"><rdf:RDF><cc:Work
         rdf:about=""><dc:format>image/svg+xml</dc:format><dc:type
           rdf:resource="http://purl.org/dc/dcmitype/StillImage" /><dc:title /></cc:Work></rdf:RDF></metadata><defs
     id="defs6"><linearGradient
       inkscape:collect="always"
       id="linearGradient5536"><stop
         style="stop-color:#d0ecec;stop-opacity:1;"
         offset="0"
         id="stop5538" /><stop
         style="stop-color:#d0ecec;stop-opacity:0;"
         offset="1"
         id="stop5540" /></linearGradient><clipPath
       id="clipPath20"
       clipPathUnits="userSpaceOnUse"><path
         id="path18"
         d="m 0,0 0,2351.9 3359.86,0 L 3359.86,0 0,0"
         inkscape:connector-curvature="0" /></clipPath><clipPath
       id="clipPath110"
       clipPathUnits="userSpaceOnUse"><path
         id="path108"
         d="M 0,2351.9 0,0 l 3359.86,0 0,2351.9 z"
         inkscape:connector-curvature="0" /></clipPath><clipPath
       id="clipPath218"
       clipPathUnits="userSpaceOnUse"><path
         id="path216"
         d="m 1055.36,465.949 -55.887,0 0,74.012 55.887,0 0,-74.012"
         inkscape:connector-curvature="0" /></clipPath><clipPath
       id="clipPath228"
       clipPathUnits="userSpaceOnUse"><path
         id="path226"
         d="M 0,2351.9 0,0 l 3359.86,0 0,2351.9 z"
         inkscape:connector-curvature="0" /></clipPath><clipPath
       id="clipPath494"
       clipPathUnits="userSpaceOnUse"><path
         id="path492"
         d="m 108.34,1864.14 c 0,115.06 93.273,208.33 208.34,208.33 13.843,0 27.367,-1.38 40.453,-3.96 21.422,57.84 77.062,99.07 142.34,99.07 63.593,0 118.011,-39.15 140.574,-94.63 12.23,5.84 25.906,9.12 40.344,9.12 51.703,0 93.609,-41.91 93.609,-93.6 0,-2.28 -0.109,-4.54 -0.273,-6.79 69.066,-5.9 123.289,-63.78 123.289,-134.36 l -787.954,0 c -0.433,5.55 -0.722,11.16 -0.722,16.82"
         inkscape:connector-curvature="0" /></clipPath><clipPath
       id="clipPath522"
       clipPathUnits="userSpaceOnUse"><path
         id="path520"
         d="m 1464.59,2006.21 c 0,81.47 -66.04,147.52 -147.51,147.52 -9.82,0 -19.39,-0.98 -28.67,-2.81 -15.14,40.96 -54.56,70.15 -100.77,70.15 -45.02,0 -83.56,-27.71 -99.54,-67.01 -8.66,4.14 -18.34,6.46 -28.57,6.46 -36.61,0 -66.272,-29.67 -66.272,-66.27 0,-1.62 0.078,-3.22 0.187,-4.8 -48.902,-4.19 -87.289,-45.17 -87.289,-95.15 l 557.924,0 c 0.3,3.93 0.51,7.9 0.51,11.91"
         inkscape:connector-curvature="0" /></clipPath><clipPath
       id="clipPath544"
       clipPathUnits="userSpaceOnUse"><path
         id="path542"
         d="M 0,2351.9 0,0 l 3359.86,0 0,2351.9 z"
         inkscape:connector-curvature="0" /></clipPath><clipPath
       id="clipPath558"
       clipPathUnits="userSpaceOnUse"><path
         id="path556"
         d="m 1836.02,1793.82 c 0,54.7 -44.35,99.04 -99.03,99.04 -6.59,0 -13.02,-0.66 -19.25,-1.88 -10.16,27.49 -36.61,47.09 -67.64,47.09 -30.23,0 -56.1,-18.61 -66.83,-44.99 -5.81,2.78 -12.32,4.34 -19.19,4.34 -24.56,0 -44.48,-19.92 -44.48,-44.49 0,-1.09 0.05,-2.17 0.12,-3.24 -32.82,-2.8 -58.61,-30.31 -58.61,-63.87 l 374.56,0 c 0.21,2.65 0.35,5.31 0.35,8"
         inkscape:connector-curvature="0" /></clipPath><clipPath
       id="clipPath584"
       clipPathUnits="userSpaceOnUse"><path
         id="path582"
         d="m 2191.7,1605.66 c 0,30.54 -24.77,55.3 -55.31,55.3 -3.67,0 -7.27,-0.37 -10.74,-1.06 -5.68,15.35 -20.46,26.3 -37.78,26.3 -16.88,0 -31.33,-10.39 -37.31,-25.12 -3.25,1.55 -6.88,2.42 -10.71,2.42 -13.74,0 -24.85,-11.12 -24.85,-24.85 l 0.07,-1.8 c -18.33,-1.56 -32.73,-16.92 -32.73,-35.66 l 209.16,0 c 0.12,1.47 0.2,2.96 0.2,4.47"
         inkscape:connector-curvature="0" /></clipPath><clipPath
       id="clipPath600"
       clipPathUnits="userSpaceOnUse"><path
         id="path598"
         d="m 3095.01,2069.65 c 0,30.54 -24.74,55.3 -55.23,55.3 -3.69,0 -7.26,-0.37 -10.74,-1.05 -5.66,15.35 -20.42,26.3 -37.72,26.3 -16.87,0 -31.29,-10.4 -37.27,-25.13 -3.24,1.55 -6.87,2.43 -10.7,2.43 -13.69,0 -24.81,-11.13 -24.81,-24.85 l 0.07,-1.8 c -18.31,-1.56 -32.68,-16.93 -32.68,-35.67 l 208.87,0 c 0.13,1.48 0.21,2.96 0.21,4.47"
         inkscape:connector-curvature="0" /></clipPath><clipPath
       id="clipPath612"
       clipPathUnits="userSpaceOnUse"><path
         id="path610"
         d="m 2024.79,2003.7 c 0,49.36 -40.02,89.37 -89.39,89.37 -5.95,0 -11.75,-0.59 -17.37,-1.69 -9.18,24.81 -33.05,42.5 -61.06,42.5 -27.29,0 -50.63,-16.79 -60.31,-40.6 -5.24,2.51 -11.12,3.91 -17.3,3.91 -22.18,0 -40.16,-17.97 -40.16,-40.15 0,-0.98 0.04,-1.95 0.12,-2.92 -29.64,-2.52 -52.91,-27.36 -52.91,-57.64 l 338.06,0 c 0.19,2.38 0.32,4.79 0.32,7.22"
         inkscape:connector-curvature="0" /></clipPath><clipPath
       id="clipPath628"
       clipPathUnits="userSpaceOnUse"><path
         id="path626"
         d="M 0,2351.9 0,0 l 3359.86,0 0,2351.9 z"
         inkscape:connector-curvature="0" /></clipPath><linearGradient
       inkscape:collect="always"
       xlink:href="#linearGradient5536"
       id="linearGradient5542"
       x1="1899.3547"
       y1="-8.6463461"
       x2="1898.5441"
       y2="322.47168"
       gradientUnits="userSpaceOnUse"
       gradientTransform="matrix(0.93643984,0,0,0.56771626,-1209.4811,336.11391)" /></defs><g
     inkscape:groupmode="layer"
     id="layer1"
     inkscape:label="Layer 1"
     style="display:none"
     transform="translate(0,-330.00001)"><path
       style="opacity:1;fill:#000000;fill-opacity:0;stroke:none;stroke-width:2;stroke-linecap:round;stroke-linejoin:round;stroke-miterlimit:4;stroke-dasharray:none;stroke-opacity:1"
       d="m 1295.5819,643.63896 0,-52.58182 95.8316,-0.0493 c 52.7074,-0.0271 93.9542,-1.24029 91.6596,-2.69591 -2.2946,-1.45563 70.1831,-2.06294 161.0615,-1.3496 99.1646,0.77839 163.5596,0.13089 161.0473,-1.61935 -2.5105,-1.74894 61.182,-2.29859 159.1132,-1.3731 105.7193,0.99909 162.6146,0.43519 161.3573,-1.59926 -1.2567,-2.03329 56.2812,-2.68563 163.0096,-1.84813 115.8188,0.90883 163.5126,0.28653 160.12,-2.08922 -3.512,-2.45934 4.1872,-3.39707 28.1857,-3.43292 l 33.0176,-0.0493 0,54.7609 0,54.7609 -39.46,-0.0113 c -45.1247,-0.0129 -958.3917,8.89468 -1088.7755,10.61944 l -86.1679,1.13983 0,-52.58182 z"
       id="path5518"
       inkscape:connector-curvature="0" /><path
       style="opacity:1;fill:#000000;fill-opacity:0;stroke:none;stroke-width:2;stroke-linecap:round;stroke-linejoin:round;stroke-miterlimit:4;stroke-dasharray:none;stroke-opacity:1"
       d="m 1295.5819,643.63896 0,-52.58182 95.8316,-0.0493 c 52.7074,-0.0271 93.9542,-1.24029 91.6596,-2.69591 -2.2946,-1.45563 70.1831,-2.06294 161.0615,-1.3496 99.1646,0.77839 163.5596,0.13089 161.0473,-1.61935 -2.5105,-1.74894 61.182,-2.29859 159.1132,-1.3731 105.7193,0.99909 162.6146,0.43519 161.3573,-1.59926 -1.2567,-2.03329 56.2812,-2.68563 163.0096,-1.84813 115.8188,0.90883 163.5126,0.28653 160.12,-2.08922 -3.512,-2.45934 4.1872,-3.39707 28.1857,-3.43292 l 33.0176,-0.0493 0,54.7609 0,54.7609 -39.46,-0.0113 c -45.1247,-0.0129 -958.3917,8.89468 -1088.7755,10.61944 l -86.1679,1.13983 0,-52.58182 z"
       id="path5520"
       inkscape:connector-curvature="0" /><path
       style="opacity:1;fill:#000000;fill-opacity:0;stroke:none;stroke-width:2;stroke-linecap:round;stroke-linejoin:round;stroke-miterlimit:4;stroke-dasharray:none;stroke-opacity:1"
       d="m 1295.5819,643.63896 0,-52.58182 95.8316,-0.0493 c 52.7074,-0.0271 93.9542,-1.24029 91.6596,-2.69591 -2.2946,-1.45563 70.1831,-2.06294 161.0615,-1.3496 99.1646,0.77839 163.5596,0.13089 161.0473,-1.61935 -2.5105,-1.74894 61.182,-2.29859 159.1132,-1.3731 105.7193,0.99909 162.6146,0.43519 161.3573,-1.59926 -1.2567,-2.03329 56.2812,-2.68563 163.0096,-1.84813 115.8188,0.90883 163.5126,0.28653 160.12,-2.08922 -3.512,-2.45934 4.1872,-3.39707 28.1857,-3.43292 l 33.0176,-0.0493 0,54.7609 0,54.7609 -39.46,-0.0113 c -45.1247,-0.0129 -958.3917,8.89468 -1088.7755,10.61944 l -86.1679,1.13983 0,-52.58182 z"
       id="path5522"
       inkscape:connector-curvature="0" /><path
       style="opacity:1;fill:#000000;fill-opacity:0;stroke:none;stroke-width:2;stroke-linecap:round;stroke-linejoin:round;stroke-miterlimit:4;stroke-dasharray:none;stroke-opacity:1"
       d="m 1295.5819,643.63896 0,-52.58182 95.8316,-0.0493 c 52.7074,-0.0271 93.9542,-1.24029 91.6596,-2.69591 -2.2946,-1.45563 70.1831,-2.06294 161.0615,-1.3496 99.1646,0.77839 163.5596,0.13089 161.0473,-1.61935 -2.5105,-1.74894 61.182,-2.29859 159.1132,-1.3731 105.7193,0.99909 162.6146,0.43519 161.3573,-1.59926 -1.2567,-2.03329 56.2812,-2.68563 163.0096,-1.84813 115.8188,0.90883 163.5126,0.28653 160.12,-2.08922 -3.512,-2.45934 4.1872,-3.39707 28.1857,-3.43292 l 33.0176,-0.0493 0,54.7609 0,54.7609 -39.46,-0.0113 c -45.1247,-0.0129 -958.3917,8.89468 -1088.7755,10.61944 l -86.1679,1.13983 0,-52.58182 z"
       id="path5524"
       inkscape:connector-curvature="0" /></g><g
     inkscape:groupmode="layer"
     id="layer2"
     inkscape:label="Layer 2"
     style="display:none;opacity:1"
     transform="translate(0,-330.00001)" /><g
     inkscape:groupmode="layer"
     id="layer3"
     inkscape:label="Layer 3"
     style="display:none"
     transform="translate(0,-330.00001)" /><g
     inkscape:groupmode="layer"
     id="layer4"
     inkscape:label="Layer 4"
     style="display:inline"
     transform="translate(0,-330.00001)"><g
       id="g4355"><rect
         y="329.93713"
         x="2.0507679"
         height="470.6947"
         width="1139.0106"
         id="rect5425"
         style="display:inline;opacity:1;fill:url(#linearGradient5542);fill-opacity:1;stroke:none;stroke-width:2;stroke-linecap:round;stroke-linejoin:round;stroke-miterlimit:4;stroke-dasharray:none;stroke-opacity:1" /><path
         id="path458"
         d="m 417.47852,434.52582 c -7.27459,0 -13.61349,3.66667 -16.95899,9.0901 -0.40716,0.66352 -0.77234,1.35303 -1.08789,2.06951 -1.57096,-0.68844 -3.32567,-1.07858 -5.18164,-1.07858 -6.63331,0 -12.01562,4.94122 -12.01562,11.0344 l 0.0351,0.79776 c -4.88591,0.38627 -9.19551,2.63162 -12.07617,5.96169 -2.34795,2.71015 -3.75,6.14209 -3.75,9.87712 l 101.15625,0 c 0.0577,-0.65418 0.0918,-1.31391 0.0918,-1.98365 0,-2.76311 -0.496,-5.41696 -1.41211,-7.89347 -3.57961,-9.68804 -13.57242,-16.65982 -25.33594,-16.65982 -1.77793,0 -3.51044,0.15799 -5.19336,0.46326 -0.36305,-0.90025 -0.8055,-1.76272 -1.31445,-2.58822 -3.3455,-5.42343 -9.68244,-9.0901 -16.95703,-9.0901 z"
         style="display:inline;opacity:1;fill:#f2f9fa;fill-opacity:1;fill-rule:nonzero;stroke:none"
         inkscape:connector-curvature="0" /><path
         id="path464"
         d="m 1005.4586,431.20406 c -7.11407,0 -13.40719,3.86825 -17.27877,9.81008 -0.99382,1.52336 -1.82623,3.18485 -2.47434,4.95187 -1.71631,-0.91133 -3.64067,-1.42332 -5.66807,-1.42332 -5.14193,0 -9.59224,3.27237 -11.75791,8.04195 -0.89357,1.97231 -1.39785,4.19791 -1.39785,6.55585 0,0.35686 0.0166,0.70977 0.0408,1.06088 -3.54491,0.33575 -6.81129,1.75206 -9.52831,3.95267 -3.45676,2.79729 -6.02632,6.85847 -7.15841,11.5705 -0.41654,1.73441 -0.63973,3.55527 -0.63973,5.43549 l 97.92159,0 c -1.1943,-1.72289 -2.3719,-3.56103 -3.4176,-5.43549 -2.1777,-3.90239 -3.7846,-7.95739 -3.7846,-11.42618 l 0,-0.14432 c 0.026,-4.6161 1.3294,-8.56874 3.4882,-11.5694 0.5841,-0.81348 1.2314,-1.55572 1.9331,-2.22531 -4.2968,-2.74741 -9.2797,-4.31842 -14.5944,-4.31842 -1.9445,0 -3.8467,0.21513 -5.684,0.61802 -0.6758,-2.02601 -1.5954,-3.92382 -2.7171,-5.64479 -3.8733,-5.94376 -10.1704,-9.81008 -17.2826,-9.81008 z"
         style="display:inline;opacity:0.81999966;fill:#f2f9fa;fill-opacity:1;fill-rule:nonzero;stroke:none"
         inkscape:connector-curvature="0" /><path
         inkscape:connector-curvature="0"
         d="m 38.853546,351.34333 0,0"
         style="display:inline;opacity:1;fill:#f8fdfd;fill-opacity:1;fill-rule:nonzero;stroke:none"
         id="path496" /><path
         id="path498"
         d="m 248.70154,419.24353 c -9.71584,0 -18.37831,4.13345 -24.01767,10.59208 -2.04372,2.34215 -3.69104,4.98786 -4.84673,7.85319 -2.65371,-0.48036 -5.39674,-0.73764 -8.20395,-0.73764 -6.81657,0 -13.25516,1.48186 -18.95617,4.11261 -5.78821,2.67356 -10.81456,6.53187 -14.70244,11.22922 -2.778,3.35499 -4.9761,7.14149 -6.45179,11.22817 -1.28021,3.54303 -2.01863,7.31354 -2.1257,11.22708 -0.009,0.32955 -0.0128,0.66039 -0.0128,0.98994 0,1.05379 0.0581,2.09899 0.14592,3.1323 l 88.56598,0 c -0.53942,-1.38892 -1.00844,-2.76311 -1.39961,-4.12224 -0.86267,-2.99565 -1.3436,-5.90622 -1.3436,-8.671 0,-0.86016 0.0219,-1.71269 0.0631,-2.55608 0.19245,-3.9545 0.83381,-7.70747 1.87005,-11.22817 1.19525,-4.06434 2.91711,-7.8221 5.08837,-11.22922 2.7695,-4.34361 6.26549,-8.11521 10.33081,-11.22816 8.7e-4,-0.002 0.003,-0.003 0.003,-0.003 -5.63693,-6.45677 -14.29398,-10.58994 -24.00717,-10.58994 z"
         style="display:inline;opacity:1;fill:#f8fdfd;fill-opacity:1;fill-rule:nonzero;stroke:none"
         inkscape:connector-curvature="0" /><path
         inkscape:connector-curvature="0"
         d="m 497.84822,375.74097 0,0"
         style="display:inline;opacity:1;fill:#f8fdfd;fill-opacity:1;fill-rule:nonzero;stroke:none"
         id="path560" /><path
         id="path454"
         d="m 838.66057,444.86215 c -7.28579,0 -13.52238,4.12166 -16.10547,9.9594 -1.39825,-0.61679 -2.96896,-0.96231 -4.62305,-0.96231 -5.44067,0 -9.9369,3.71876 -10.63281,8.54097 l -1.01953,0 c -0.0611,0.42677 -0.0918,0.86339 -0.0918,1.30574 l 0.0312,0.71369 c -7.91247,0.61991 -14.13281,6.70906 -14.13281,14.1324 l 90.28515,0 c 0.0475,-0.58252 0.084,-1.17091 0.084,-1.76901 0,-5.50442 -2.21241,-10.53564 -5.86328,-14.38282 l 1.02148,0 c -4.37629,-4.6135 -10.82068,-7.52858 -18.00976,-7.52858 -1.58657,0 -3.13303,0.14217 -4.63477,0.41319 -2.45212,-6.08695 -8.8294,-10.42267 -16.30859,-10.42267 z"
         style="display:inline;opacity:1;fill:#ffffff;fill-opacity:1;fill-rule:nonzero;stroke:none"
         inkscape:connector-curvature="0" /><path
         id="path450"
         d="m 135.81223,481.73746 c -7.28579,0 -13.52432,4.12166 -16.10741,9.9594 -1.39825,-0.61678 -2.96701,-0.96231 -4.6211,-0.96231 -5.44067,0 -9.9369,3.71876 -10.63281,8.54097 -0.0611,0.42677 -0.0937,0.86339 -0.0937,1.30574 l 0.0312,0.71369 c -7.912474,0.61991 -14.125004,6.70907 -14.125004,14.13241 l 90.277334,0 c 0.0516,-0.58253 0.0859,-1.17092 0.0859,-1.76901 0,-5.50442 -2.20978,-10.53565 -5.86133,-14.38283 -4.37629,-4.61349 -10.82067,-7.52858 -18.00976,-7.52858 -1.58656,0 -3.13303,0.14218 -4.63477,0.41319 -2.45212,-6.08695 -8.8294,-10.42267 -16.30859,-10.42267 z"
         style="display:inline;opacity:1;fill:#ffffff;fill-opacity:1;fill-rule:nonzero;stroke:none"
         inkscape:connector-curvature="0" /><g
         transform="matrix(0.59766955,0,0,0.54735004,146.16269,309.6007)"
         id="g4535"><path
           id="path510"
           style="display:inline;opacity:1;fill:#f5806c;fill-opacity:1;fill-rule:nonzero;stroke:none"
           d="m 209.36903,315.69529 -22.08503,0 c -0.90254,-2.53752 -1.68869,-5.04783 -2.3432,-7.53093 -1.44338,-5.47302 -2.24685,-10.78958 -2.24685,-15.84081 0,-1.5715 0.036,-3.12939 0.10485,-4.67027 0.32199,-7.2248 1.39418,-14.08223 3.128,-20.51448 1.99984,-7.42548 4.88253,-14.28972 8.51541,-20.51447 4.63382,-7.93571 10.48267,-14.82716 17.28461,-20.51448 0.003,-0.003 0.004,-0.003 0.006,-0.003 2.81517,3.51716 5.18247,7.41868 7.00892,11.60934 -7.90196,14.20128 -12.63112,32.85513 -12.63112,54.60776 0,7.34045 1.20214,15.23534 3.25796,23.37174"
           inkscape:connector-curvature="0" /><path
           id="path512"
           style="display:inline;opacity:1;fill:#ffffff;fill-opacity:1;fill-rule:nonzero;stroke:none"
           d="m 306.4512,315.69529 -17.99239,0 c 0.95445,-8.1364 1.5109,-16.03129 1.5109,-23.37174 0,-4.13963 -0.078,-8.16361 -0.2331,-12.07194 10.20682,8.41192 16.71459,21.16416 16.71459,35.44368 m -68.12259,0 -28.95958,0 c -2.05582,-8.1364 -3.25796,-16.03129 -3.25796,-23.37174 0,-21.75263 4.72916,-40.40648 12.63112,-54.60777 0.17881,0.40819 0.35253,0.81977 0.51947,1.23135 4.14963,-1.98648 8.7899,-3.10217 13.68871,-3.10217 3.42455,0 6.72085,0.54084 9.81052,1.54768 -3.71636,14.2421 -5.94454,33.01501 -5.94454,54.93091 0,7.34045 0.55815,15.23534 1.51226,23.37174"
           inkscape:connector-curvature="0" /><path
           id="path514"
           style="display:inline;opacity:1;fill:#f5806c;fill-opacity:1;fill-rule:nonzero;stroke:none"
           d="m 288.45881,315.69529 -50.1302,0 c -0.95411,-8.1364 -1.51226,-16.03129 -1.51226,-23.37174 0,-21.9159 2.22818,-40.68881 5.94454,-54.93091 12.74071,4.14304 21.951,16.14014 21.951,30.29041 0,0.77554 -0.037,1.54428 -0.0926,2.30962 9.49633,0.81296 18.16442,4.5308 25.11735,10.25894 0.15506,3.90833 0.2331,7.93231 0.2331,12.07194 0,7.34045 -0.55645,15.23534 -1.5109,23.37174"
           inkscape:connector-curvature="0" /><path
           id="path532"
           style="display:inline;opacity:1;fill:#f5806c;fill-opacity:1;fill-rule:nonzero;stroke:none"
           d="m 340.4633,265.69997 -22.36461,0 c -1.14378,-5.60228 -2.64688,-10.87461 -4.46926,-15.78639 2.9078,-5.23151 7.21793,-9.57183 12.42007,-12.51754 2.29163,2.89468 4.39767,5.97305 6.29842,9.22829 3.39708,5.81997 6.13794,12.2012 8.11538,19.07564"
           inkscape:connector-curvature="0" /><path
           id="path534"
           style="display:inline;opacity:1;fill:#ffffff;fill-opacity:1;fill-rule:nonzero;stroke:none"
           d="m 318.09869,265.69997 -8.54629,0 c 0,-5.72814 1.48071,-11.11272 4.07703,-15.78639 1.82238,4.91178 3.32548,10.18411 4.46926,15.78639"
           inkscape:connector-curvature="0" /><path
           id="path404"
           style="display:inline;fill:#f89f21;fill-opacity:1;fill-rule:nonzero;stroke:none"
           d="m 280.30645,437.74469 c 0,2.36065 -1.91772,4.2825 -4.27586,4.2825 l -5.28561,0 c 0.38443,-1.26876 0.5741,-2.77563 0.5741,-4.2825 l 0,-18.79671 8.98737,0 z m -21.77083,4.2825 c -0.29553,-0.46941 -0.8245,-1.90144 -0.8245,-4.2825 l 0,-18.79671 10.35407,0 0,18.79671 c 0,2.38446 -0.52761,3.81309 -0.8245,4.2825 z m -13.05898,-4.2825 0,-18.79671 8.97923,0 0,18.79671 c 0,1.50687 0.18967,3.01374 0.57681,4.2825 l -5.28459,0 c -2.35644,0 -4.27145,-1.92185 -4.27145,-4.2825 z m 38.17497,-39.03907 -3.2549,0 0,16.97351 -34.92007,0 0,-16.97351 -3.26067,0 0,39.03907 c 0,4.16345 3.37977,7.54794 7.53212,7.54794 l 26.2825,0 c 4.15405,0 7.5311,-3.38449 7.5311,-7.54794 l 0,-20.43284 0.0899,0 0,-18.60623"
           inkscape:connector-curvature="0" /><path
           id="path406"
           style="display:inline;fill:#e24644;fill-opacity:1;fill-rule:nonzero;stroke:none"
           d="m 283.62514,399.06618 c 23.9047,-26.51473 60.46935,-72.63914 60.46935,-106.74263 0,-50.65862 -36.12967,-84.50019 -80.7001,-84.50019 -44.56873,0 -80.70044,33.84157 -80.70044,84.50019 0,34.10349 36.56499,80.2279 60.46833,106.74263 l 40.46286,0"
           inkscape:connector-curvature="0" /><path
           id="path408"
           style="display:inline;fill:#ffffff;fill-opacity:1;fill-rule:nonzero;stroke:none"
           d="m 277.75763,399.06618 c 16.96771,-26.51473 42.92008,-72.63914 42.92008,-106.74263 0,-50.65862 -25.64768,-84.50019 -57.28332,-84.50019 -31.637,0 -57.28332,33.84157 -57.28332,84.50019 0,34.10349 25.95373,80.2279 42.92279,106.74263 l 28.72377,0"
           inkscape:connector-curvature="0" /><path
           id="path410"
           style="display:inline;fill:#e24644;fill-opacity:1;fill-rule:nonzero;stroke:none"
           d="m 270.05858,399.06618 c 7.87277,-26.51473 19.91113,-72.63914 19.91113,-106.74263 0,-50.65862 -11.89653,-84.50019 -26.57532,-84.50019 -14.67879,0 -26.57804,33.84157 -26.57804,84.50019 0,34.10349 12.04006,80.2279 19.91419,106.74263 l 13.32804,0"
           inkscape:connector-curvature="0" /><path
           id="path412"
           style="display:inline;fill:#fbbf58;fill-opacity:1;fill-rule:nonzero;stroke:none"
           d="m 245.47664,437.74469 0,-18.79671 8.97923,0 0,18.79671 c 0,1.50687 0.18967,3.01374 0.57681,4.2825 l -5.28459,0 c -2.35644,0 -4.27145,-1.92185 -4.27145,-4.2825"
           inkscape:connector-curvature="0" /><path
           id="path414"
           style="display:inline;fill:#fbbf58;fill-opacity:1;fill-rule:nonzero;stroke:none"
           d="m 258.53562,442.02719 c -0.29553,-0.46941 -0.8245,-1.90144 -0.8245,-4.2825 l 0,-18.79671 10.35407,0 0,18.79671 c 0,2.38446 -0.52761,3.81309 -0.8245,4.2825 l -8.70507,0"
           inkscape:connector-curvature="0" /><path
           id="path416"
           style="display:inline;fill:#fbbf58;fill-opacity:1;fill-rule:nonzero;stroke:none"
           d="m 280.30645,437.74469 c 0,2.36065 -1.91772,4.2825 -4.27586,4.2825 l -5.28561,0 c 0.38443,-1.26876 0.5741,-2.77563 0.5741,-4.2825 l 0,-18.79671 8.98737,0 0,18.79671"
           inkscape:connector-curvature="0" /></g><g
         transform="matrix(0.90268197,0,0,0.82668261,207.26876,198.81809)"
         id="g4549"><path
           id="path478"
           style="display:inline;opacity:1;fill:#f9bc24;fill-opacity:1;fill-rule:nonzero;stroke:none"
           d="m 952.39467,338.3153 -10.68455,0 c -2.38189,-9.41537 -4.6552,-20.7934 -4.6552,-29.89583 0,-6.22816 0.47502,-11.78281 1.3097,-16.43607 8.85233,8.47315 15.01062,19.74914 17.05321,32.40954 -0.84146,4.77911 -1.92044,9.56163 -3.02316,13.92236"
           inkscape:connector-curvature="0" /><path
           id="path418"
           style="display:inline;fill:#183654;fill-opacity:1;fill-rule:nonzero;stroke:none"
           d="m 953.41257,363.19391 c 0,0.88779 -0.71932,1.61231 -1.60828,1.61231 l -1.98491,0 c 0.1459,-0.47961 0.21715,-1.04766 0.21715,-1.61231 l 0,-7.08194 3.37604,0 0,7.08194 m -8.18392,1.61231 c -0.11196,-0.17688 -0.30876,-0.71772 -0.30876,-1.61231 l 0,-7.08194 3.88838,0 0,7.08194 c 0,0.89459 -0.1934,1.43543 -0.30537,1.61231 l -3.27425,0 m -4.91306,-1.61231 0,-7.08194 3.37604,0 0,7.08194 c 0,0.56465 0.0679,1.1327 0.21715,1.61231 l -1.9883,0 c -0.88557,0 -1.60489,-0.72452 -1.60489,-1.61231 m 14.35578,-14.70471 -1.21809,0 0,6.39483 -13.13769,0 0,-6.39483 -1.23166,0 0,14.70471 c 0,1.56809 1.27238,2.84025 2.83655,2.84025 l 9.88381,0 c 1.56417,0 2.83654,-1.27216 2.83654,-2.84025 l 0,-7.69761 0.0305,0 0,-7.0071"
           inkscape:connector-curvature="0" /><path
           id="path420"
           style="display:inline;fill:#f89f21;fill-opacity:1;fill-rule:nonzero;stroke:none"
           d="m 954.66458,348.62186 c 8.99145,-9.98682 22.74667,-27.36171 22.74667,-40.20239 0,-19.08584 -13.59236,-31.83469 -30.36055,-31.83469 -16.75802,0 -30.35377,12.74885 -30.35377,31.83469 0,12.84068 13.75522,30.21557 22.74666,40.20239 l 15.22099,0"
           inkscape:connector-curvature="0" /><path
           id="path422"
           style="display:inline;fill:#ffffff;fill-opacity:1;fill-rule:nonzero;stroke:none"
           d="m 952.45574,348.62186 c 6.38902,-9.98682 16.14728,-27.36171 16.14728,-40.20239 0,-19.08584 -9.64969,-31.83469 -21.55232,-31.83469 -11.89925,0 -21.54555,12.74885 -21.54555,31.83469 0,12.84068 9.76166,30.21557 16.14728,40.20239 l 10.80331,0"
           inkscape:connector-curvature="0" /><path
           id="path424"
           style="display:inline;fill:#f89f21;fill-opacity:1;fill-rule:nonzero;stroke:none"
           d="m 949.56151,348.62186 c 2.9587,-9.98682 7.48835,-27.36171 7.48835,-40.20239 0,-19.08584 -4.47536,-31.83469 -9.99916,-31.83469 -5.52041,0 -9.99578,12.74885 -9.99578,31.83469 0,12.84068 4.52965,30.21557 7.49174,40.20239 l 5.01485,0"
           inkscape:connector-curvature="0" /><path
           id="path426"
           style="display:inline;fill:#528a92;fill-opacity:1;fill-rule:nonzero;stroke:none"
           d="m 940.31559,363.19391 0,-7.08194 3.37604,0 0,7.08194 c 0,0.56465 0.0679,1.1327 0.21715,1.61231 l -1.9883,0 c -0.88557,0 -1.60489,-0.72452 -1.60489,-1.61231"
           inkscape:connector-curvature="0" /><path
           id="path428"
           style="display:inline;fill:#528a92;fill-opacity:1;fill-rule:nonzero;stroke:none"
           d="m 945.22865,364.80622 c -0.11196,-0.17688 -0.30876,-0.71772 -0.30876,-1.61231 l 0,-7.08194 3.88838,0 0,7.08194 c 0,0.89459 -0.1934,1.43543 -0.30537,1.61231 l -3.27425,0"
           inkscape:connector-curvature="0" /><path
           id="path430"
           style="display:inline;fill:#528a92;fill-opacity:1;fill-rule:nonzero;stroke:none"
           d="m 953.41257,363.19391 c 0,0.88779 -0.71932,1.61231 -1.60828,1.61231 l -1.98491,0 c 0.1459,-0.47961 0.21715,-1.04766 0.21715,-1.61231 l 0,-7.08194 3.37604,0 0,7.08194"
           inkscape:connector-curvature="0" /><path
           id="path474"
           style="display:inline;fill:#f9bc24;fill-opacity:1;fill-rule:nonzero;stroke:none"
           d="m 935.54164,338.3153 -4.70609,0 c -2.34456,-3.05455 -4.65519,-6.31319 -6.70795,-9.63647 -4.27518,-6.91866 -7.43067,-14.10944 -7.43067,-20.25936 0,-0.085 0,-0.17007 0,-0.25511 0.0509,-8.18402 2.60922,-15.19112 6.84707,-20.51108 1.14683,-1.44224 2.41921,-2.75862 3.79677,-3.94574 1.34023,0.77554 2.64314,1.6021 3.91212,2.47629 -3.56604,5.52064 -5.74774,13.16042 -5.74774,22.23564 0,9.10243 4.90628,20.48046 10.03649,29.89583"
           inkscape:connector-curvature="0" /><path
           id="path476"
           style="display:inline;fill:#ffffff;fill-opacity:1;fill-rule:nonzero;stroke:none"
           d="m 955.96071,338.3153 -3.56604,0 c 1.10272,-4.36073 2.1817,-9.14325 3.02316,-13.92236 0.48859,3.01713 0.73967,6.1125 0.73967,9.2691 0,1.56469 -0.0746,3.11238 -0.19679,4.65326 m -14.25059,0 -6.16848,0 c -5.13021,-9.41537 -10.03649,-20.7934 -10.03649,-29.89583 0,-9.07522 2.1817,-16.715 5.74774,-22.23564 2.521,1.74497 4.90289,3.68383 7.11173,5.79957 -0.83468,4.65326 -1.3097,10.20791 -1.3097,16.43607 0,9.10243 2.27331,20.48046 4.6552,29.89583"
           inkscape:connector-curvature="0" /></g><g
         transform="matrix(0.33929986,0,0,-0.31151227,2.0937991,932.04581)"
         id="g104"><g
           id="g106"
           clip-path="url(#clipPath110)"><path
             inkscape:connector-curvature="0"
             d="m 3092.98,1263.82 0,-364.172 -281.87,0 0,373.842 -136.89,120.03 -132.5,-117.24 0,-306.792 -19.95,0 0,162.132 -172.11,0 0,-152.159 -82.32,0 0,473.919 -389.12,0 0,-483.892 -144.67,0 0,364.162 -174.59,0 0,-364.162 -172.12,0 0,289.342 -79.93,0 0,39.64 -41.58,0 0,40.31 -42.08,0 0,81.28 -13.47,0 0,-81.28 -41.6,0 0,-40.31 -42.05,0 0,-39.64 -68.54,0 0,-209.36 -239.457,0 0,118.31 -239.442,0 0,-198.292 -276.879,0 0,266.892 -159.64,129.69 L 0,1243.86 0,420.73 l 3359.86,0 0,843.09 -266.88,0"
             style="fill:#a8b9c0;fill-opacity:1;fill-rule:nonzero;stroke:none"
             id="path112" /><path
             inkscape:connector-curvature="0"
             d="m 449.996,421.102 432.484,0 0,628.867 -432.484,0 z"
             style="fill:#528a92;fill-opacity:1;fill-rule:nonzero;stroke:none"
             id="path114" /><path
             inkscape:connector-curvature="0"
             d="m 502.672,946.211 37.0195,0 0,54.1406 -37.0195,0 z"
             style="fill:#ffffff;fill-opacity:1;fill-rule:nonzero;stroke:none"
             id="path116" /><path
             inkscape:connector-curvature="0"
             d="m 575.879,946.211 37.0273,0 0,54.1406 -37.0273,0 z"
             style="fill:#afcecd;fill-opacity:1;fill-rule:nonzero;stroke:none"
             id="path118" /><path
             inkscape:connector-curvature="0"
             d="m 649.094,946.211 37.0195,0 0,54.1406 -37.0195,0 z"
             style="fill:#fbbf58;fill-opacity:1;fill-rule:nonzero;stroke:none"
             id="path120" /><path
             inkscape:connector-curvature="0"
             d="m 722.301,946.211 37.0234,0 0,54.1406 -37.0234,0 z"
             style="fill:#afcecd;fill-opacity:1;fill-rule:nonzero;stroke:none"
             id="path122" /><path
             inkscape:connector-curvature="0"
             d="m 795.508,946.211 37.0273,0 0,54.1406 -37.0273,0 z"
             style="fill:#ffffff;fill-opacity:1;fill-rule:nonzero;stroke:none"
             id="path124" /><path
             inkscape:connector-curvature="0"
             d="m 502.672,854.391 37.0195,0 0,54.1289 -37.0195,0 z"
             style="fill:#afcecd;fill-opacity:1;fill-rule:nonzero;stroke:none"
             id="path126" /><path
             inkscape:connector-curvature="0"
             d="m 575.879,854.391 37.0273,0 0,54.1289 -37.0273,0 z"
             style="fill:#afcecd;fill-opacity:1;fill-rule:nonzero;stroke:none"
             id="path128" /><path
             inkscape:connector-curvature="0"
             d="m 649.094,854.391 37.0195,0 0,54.1289 -37.0195,0 z"
             style="fill:#ffffff;fill-opacity:1;fill-rule:nonzero;stroke:none"
             id="path130" /><path
             inkscape:connector-curvature="0"
             d="m 722.301,854.391 37.0234,0 0,54.1289 -37.0234,0 z"
             style="fill:#afcecd;fill-opacity:1;fill-rule:nonzero;stroke:none"
             id="path132" /><path
             inkscape:connector-curvature="0"
             d="m 795.508,854.391 37.0273,0 0,54.1289 -37.0273,0 z"
             style="fill:#ffffff;fill-opacity:1;fill-rule:nonzero;stroke:none"
             id="path134" /><path
             inkscape:connector-curvature="0"
             d="m 502.672,767.059 37.0195,0 0,54.1211 -37.0195,0 z"
             style="fill:#ffffff;fill-opacity:1;fill-rule:nonzero;stroke:none"
             id="path136" /><path
             inkscape:connector-curvature="0"
             d="m 575.879,767.059 37.0273,0 0,54.1211 -37.0273,0 z"
             style="fill:#fbbf58;fill-opacity:1;fill-rule:nonzero;stroke:none"
             id="path138" /><path
             inkscape:connector-curvature="0"
             d="m 649.094,767.059 37.0195,0 0,54.1211 -37.0195,0 z"
             style="fill:#ffffff;fill-opacity:1;fill-rule:nonzero;stroke:none"
             id="path140" /><path
             inkscape:connector-curvature="0"
             d="m 722.301,767.059 37.0234,0 0,54.1211 -37.0234,0 z"
             style="fill:#ffffff;fill-opacity:1;fill-rule:nonzero;stroke:none"
             id="path142" /><path
             inkscape:connector-curvature="0"
             d="m 795.508,767.059 37.0273,0 0,54.1211 -37.0273,0 z"
             style="fill:#afcecd;fill-opacity:1;fill-rule:nonzero;stroke:none"
             id="path144" /><path
             inkscape:connector-curvature="0"
             d="m 502.672,578.93 37.0195,0 0,54.1406 -37.0195,0 z"
             style="fill:#afcecd;fill-opacity:1;fill-rule:nonzero;stroke:none"
             id="path146" /><path
             inkscape:connector-curvature="0"
             d="m 575.879,578.93 37.0273,0 0,54.1406 -37.0273,0 z"
             style="fill:#afcecd;fill-opacity:1;fill-rule:nonzero;stroke:none"
             id="path148" /><path
             inkscape:connector-curvature="0"
             d="m 649.094,578.93 37.0195,0 0,54.1406 -37.0195,0 z"
             style="fill:#ffffff;fill-opacity:1;fill-rule:nonzero;stroke:none"
             id="path150" /><path
             inkscape:connector-curvature="0"
             d="m 722.301,578.93 37.0234,0 0,54.1406 -37.0234,0 z"
             style="fill:#ffffff;fill-opacity:1;fill-rule:nonzero;stroke:none"
             id="path152" /><path
             inkscape:connector-curvature="0"
             d="m 795.508,578.93 37.0273,0 0,54.1406 -37.0273,0 z"
             style="fill:#ffffff;fill-opacity:1;fill-rule:nonzero;stroke:none"
             id="path154" /><path
             inkscape:connector-curvature="0"
             d="m 502.672,670.719 37.0195,0 0,54.1211 -37.0195,0 z"
             style="fill:#ffffff;fill-opacity:1;fill-rule:nonzero;stroke:none"
             id="path156" /><path
             inkscape:connector-curvature="0"
             d="m 575.879,670.719 37.0273,0 0,54.1211 -37.0273,0 z"
             style="fill:#ffffff;fill-opacity:1;fill-rule:nonzero;stroke:none"
             id="path158" /><path
             inkscape:connector-curvature="0"
             d="m 649.094,670.719 37.0195,0 0,54.1211 -37.0195,0 z"
             style="fill:#afcecd;fill-opacity:1;fill-rule:nonzero;stroke:none"
             id="path160" /><path
             inkscape:connector-curvature="0"
             d="m 722.301,670.719 37.0234,0 0,54.1211 -37.0234,0 z"
             style="fill:#ffffff;fill-opacity:1;fill-rule:nonzero;stroke:none"
             id="path162" /><path
             inkscape:connector-curvature="0"
             d="m 795.508,670.719 37.0273,0 0,54.1211 -37.0273,0 z"
             style="fill:#ffffff;fill-opacity:1;fill-rule:nonzero;stroke:none"
             id="path164" /><path
             inkscape:connector-curvature="0"
             d="m 502.672,487.051 37.0195,0 0,54.1211 -37.0195,0 z"
             style="fill:#ffffff;fill-opacity:1;fill-rule:nonzero;stroke:none"
             id="path166" /><path
             inkscape:connector-curvature="0"
             d="m 575.879,487.051 37.0273,0 0,54.1211 -37.0273,0 z"
             style="fill:#ffffff;fill-opacity:1;fill-rule:nonzero;stroke:none"
             id="path168" /><path
             inkscape:connector-curvature="0"
             d="m 649.094,487.051 37.0195,0 0,54.1211 -37.0195,0 z"
             style="fill:#ffffff;fill-opacity:1;fill-rule:nonzero;stroke:none"
             id="path170" /><path
             inkscape:connector-curvature="0"
             d="m 722.301,487.051 37.0234,0 0,54.1211 -37.0234,0 z"
             style="fill:#afcecd;fill-opacity:1;fill-rule:nonzero;stroke:none"
             id="path172" /><path
             inkscape:connector-curvature="0"
             d="m 795.508,487.051 37.0273,0 0,54.1211 -37.0273,0 z"
             style="fill:#fbbf58;fill-opacity:1;fill-rule:nonzero;stroke:none"
             id="path174" /><path
             inkscape:connector-curvature="0"
             d="m 1915.47,971.531 7.2109,0 0,92.1289 -7.2109,0 z"
             style="fill:#183654;fill-opacity:1;fill-rule:nonzero;stroke:none"
             id="path176" /><path
             inkscape:connector-curvature="0"
             d="m 2014.99,1014.44 -92.31,0 0,49.22 92.31,0 -13.12,-24.45 13.12,-24.77"
             style="fill:#e24644;fill-opacity:1;fill-rule:nonzero;stroke:none"
             id="path178" /><path
             inkscape:connector-curvature="0"
             d="m 61.9688,419.59 302.777,0 0,525.031 -302.777,0 z"
             style="fill:#d0ecec;fill-opacity:1;fill-rule:nonzero;stroke:none"
             id="path180" /><path
             inkscape:connector-curvature="0"
             d="m 48.4688,944.621 329.785,0 0,30 -329.785,0 z"
             style="fill:#e24644;fill-opacity:1;fill-rule:nonzero;stroke:none"
             id="path182" /><path
             inkscape:connector-curvature="0"
             d="m 2856.8,1180.04 483.898,0 0,30 -483.898,0 z"
             style="fill:#e24644;fill-opacity:1;fill-rule:nonzero;stroke:none"
             id="path184" /><path
             inkscape:connector-curvature="0"
             d="m 224.734,566.648 105.672,0 0,88.8711 -105.672,0 z"
             style="fill:#ffffff;fill-opacity:1;fill-rule:nonzero;stroke:none"
             id="path186" /><path
             inkscape:connector-curvature="0"
             d="m 96.3125,566.648 105.664,0 0,88.8711 -105.664,0 z"
             style="fill:#fbbf58;fill-opacity:1;fill-rule:nonzero;stroke:none"
             id="path188" /><path
             inkscape:connector-curvature="0"
             d="m 224.734,675.629 105.672,0 0,88.8828 -105.672,0 z"
             style="fill:#ffffff;fill-opacity:1;fill-rule:nonzero;stroke:none"
             id="path190" /><path
             inkscape:connector-curvature="0"
             d="m 96.3125,675.629 105.664,0 0,88.8828 -105.664,0 z"
             style="fill:#ffffff;fill-opacity:1;fill-rule:nonzero;stroke:none"
             id="path192" /><path
             inkscape:connector-curvature="0"
             d="m 224.734,784.609 105.672,0 0,88.8789 -105.672,0 z"
             style="fill:#ffffff;fill-opacity:1;fill-rule:nonzero;stroke:none"
             id="path194" /><path
             inkscape:connector-curvature="0"
             d="m 96.3125,784.609 105.664,0 0,88.8789 -105.664,0 z"
             style="fill:#ffffff;fill-opacity:1;fill-rule:nonzero;stroke:none"
             id="path196" /><path
             inkscape:connector-curvature="0"
             d="m 96.3125,419.59 105.664,0 0,115.699 -105.664,0 z"
             style="fill:#183654;fill-opacity:1;fill-rule:nonzero;stroke:none"
             id="path198" /><path
             inkscape:connector-curvature="0"
             d="m 2381.45,422.609 405.293,0 0,519.16 -405.293,0 z"
             style="fill:#e24644;fill-opacity:1;fill-rule:nonzero;stroke:none"
             id="path200" /><path
             inkscape:connector-curvature="0"
             d="m 957.555,420.941 307.387,0 0,411.027 -307.387,0 z"
             style="fill:#e24644;fill-opacity:1;fill-rule:nonzero;stroke:none"
             id="path202" /><path
             inkscape:connector-curvature="0"
             d="m 2358.67,941.77 450.828,0 0,28.4609 -450.828,0 z"
             style="fill:#183654;fill-opacity:1;fill-rule:nonzero;stroke:none"
             id="path204" /><path
             inkscape:connector-curvature="0"
             d="m 941.34,831.969 339.832,0 0,28.4609 -339.832,0 z"
             style="fill:#183654;fill-opacity:1;fill-rule:nonzero;stroke:none"
             id="path206" /><path
             inkscape:connector-curvature="0"
             d="m 1265.17,555.148 178.359,0 0,28.4609 -178.359,0 z"
             style="fill:#183654;fill-opacity:1;fill-rule:nonzero;stroke:none"
             id="path208" /><path
             inkscape:connector-curvature="0"
             d="m 2430.38,463.309 55.9102,0 0,74.0312 -55.9102,0 z"
             style="fill:#498c95;fill-opacity:1;fill-rule:nonzero;stroke:none"
             id="path210" /></g></g><g
         transform="matrix(0.33929986,0,0,-0.31151227,2.0937991,932.04581)"
         id="g212"><g
           id="g214"
           clip-path="url(#clipPath218)"><path
             inkscape:connector-curvature="0"
             d="m 999.473,465.949 55.8867,0 0,74.0117 -55.8867,0 z"
             style="fill:#f1a7a6;fill-opacity:1;fill-rule:nonzero;stroke:none"
             id="path220" /></g></g><path
         inkscape:connector-curvature="0"
         d="m 369.65734,786.89698 18.96632,0 0,-23.05556 -18.96632,0 z"
         style="fill:#fbbf58;fill-opacity:1;fill-rule:nonzero;stroke:none"
         id="path230" /><path
         inkscape:connector-curvature="0"
         d="m 398.10084,786.89698 18.96368,0 0,-23.05556 -18.96368,0 z"
         style="fill:#f1a7a6;fill-opacity:1;fill-rule:nonzero;stroke:none"
         id="path232" /><path
         inkscape:connector-curvature="0"
         d="m 341.21485,749.1286 18.96235,0 0,-23.05433 -18.96235,0 z"
         style="fill:#ffffff;fill-opacity:1;fill-rule:nonzero;stroke:none"
         id="path234" /><path
         inkscape:connector-curvature="0"
         d="m 369.65734,749.1286 18.96632,0 0,-23.05433 -18.96632,0 z"
         style="fill:#f1a7a6;fill-opacity:1;fill-rule:nonzero;stroke:none"
         id="path236" /><path
         inkscape:connector-curvature="0"
         d="m 398.10084,749.1286 18.96368,0 0,-23.05433 -18.96368,0 z"
         style="fill:#f89f21;fill-opacity:1;fill-rule:nonzero;stroke:none"
         id="path238" /><path
         inkscape:connector-curvature="0"
         d="m 341.21485,711.35525 18.96235,0 0,-23.05555 -18.96235,0 z"
         style="fill:#f89f21;fill-opacity:1;fill-rule:nonzero;stroke:none"
         id="path240" /><path
         inkscape:connector-curvature="0"
         d="m 369.65734,711.35525 18.96632,0 0,-23.05555 -18.96632,0 z"
         style="fill:#ffffff;fill-opacity:1;fill-rule:nonzero;stroke:none"
         id="path242" /><path
         inkscape:connector-curvature="0"
         d="m 398.10084,711.35525 18.96368,0 0,-23.05555 -18.96368,0 z"
         style="fill:#ffffff;fill-opacity:1;fill-rule:nonzero;stroke:none"
         id="path244" /><path
         inkscape:connector-curvature="0"
         d="m 859.94564,800.39792 37.85568,0 0,-35.7398 -37.85568,0 z"
         style="fill:#183654;fill-opacity:1;fill-rule:nonzero;stroke:none"
         id="path246" /><path
         inkscape:connector-curvature="0"
         d="m 912.0587,787.71937 18.96367,0 0,-23.06163 -18.96367,0 z"
         style="fill:#d0ecec;fill-opacity:1;fill-rule:nonzero;stroke:none"
         id="path248" /><path
         inkscape:connector-curvature="0"
         d="m 826.72139,749.94259 18.97033,0 0,-23.05191 -18.97033,0 z"
         style="fill:#ffffff;fill-opacity:1;fill-rule:nonzero;stroke:none"
         id="path250" /><path
         inkscape:connector-curvature="0"
         d="m 855.17169,749.94259 18.96367,0 0,-23.05191 -18.96367,0 z"
         style="fill:#d0ecec;fill-opacity:1;fill-rule:nonzero;stroke:none"
         id="path252" /><path
         inkscape:connector-curvature="0"
         d="m 883.61519,749.94259 18.96368,0 0,-23.05191 -18.96368,0 z"
         style="fill:#d0ecec;fill-opacity:1;fill-rule:nonzero;stroke:none"
         id="path254" /><path
         inkscape:connector-curvature="0"
         d="m 912.0587,749.94259 18.96367,0 0,-23.05191 -18.96367,0 z"
         style="fill:#d0ecec;fill-opacity:1;fill-rule:nonzero;stroke:none"
         id="path256" /><path
         inkscape:connector-curvature="0"
         d="m 826.72139,712.17422 18.97033,0 0,-23.05191 -18.97033,0 z"
         style="fill:#d0ecec;fill-opacity:1;fill-rule:nonzero;stroke:none"
         id="path258" /><path
         inkscape:connector-curvature="0"
         d="m 855.17169,712.17422 18.96367,0 0,-23.05191 -18.96367,0 z"
         style="fill:#d0ecec;fill-opacity:1;fill-rule:nonzero;stroke:none"
         id="path260" /><path
         inkscape:connector-curvature="0"
         d="m 883.61519,712.17422 18.96368,0 0,-23.05191 -18.96368,0 z"
         style="fill:#ffffff;fill-opacity:1;fill-rule:nonzero;stroke:none"
         id="path262" /><path
         inkscape:connector-curvature="0"
         d="m 912.0587,712.17422 18.96367,0 0,-23.05191 -18.96367,0 z"
         style="fill:#ffffff;fill-opacity:1;fill-rule:nonzero;stroke:none"
         id="path264" /><path
         inkscape:connector-curvature="0"
         d="m 826.72139,674.40087 18.97033,0 0,-23.05191 -18.97033,0 z"
         style="fill:#d0ecec;fill-opacity:1;fill-rule:nonzero;stroke:none"
         id="path266" /><path
         inkscape:connector-curvature="0"
         d="m 855.17169,674.40087 18.96367,0 0,-23.05191 -18.96367,0 z"
         style="fill:#ffffff;fill-opacity:1;fill-rule:nonzero;stroke:none"
         id="path268" /><path
         inkscape:connector-curvature="0"
         d="m 883.61519,674.40087 18.96368,0 0,-23.05191 -18.96368,0 z"
         style="fill:#d0ecec;fill-opacity:1;fill-rule:nonzero;stroke:none"
         id="path270" /><path
         inkscape:connector-curvature="0"
         d="m 912.0587,674.40087 18.96367,0 0,-23.05191 -18.96367,0 z"
         style="fill:#d0ecec;fill-opacity:1;fill-rule:nonzero;stroke:none"
         id="path272" /><path
         inkscape:connector-curvature="0"
         d="m 826.72139,787.71937 18.97026,0 0,-23.06157 -16.97517,0 -1.99509,1.83138 0,21.23019"
         style="fill:#d0ecec;fill-opacity:1;fill-rule:nonzero;stroke:none"
         id="path274" /><path
         inkscape:connector-curvature="0"
         d="m 845.69165,749.07845 -0.94665,0.86414 0.94665,0 0,-0.86414"
         style="fill:#39707e;fill-opacity:1;fill-rule:nonzero;stroke:none"
         id="path276" /><path
         inkscape:connector-curvature="0"
         d="m 34.772617,687.63048 35.85178,0 0,-7.33637 -35.85178,0 z"
         style="fill:#183654;fill-opacity:1;fill-rule:nonzero;stroke:none"
         id="path278" /><path
         inkscape:connector-curvature="0"
         d="m 78.346014,687.63048 35.854496,0 0,-7.33637 -35.854496,0 z"
         style="fill:#183654;fill-opacity:1;fill-rule:nonzero;stroke:none"
         id="path280" /><path
         inkscape:connector-curvature="0"
         d="m 34.772617,721.57908 35.85178,0 0,-7.34001 -35.85178,0 z"
         style="fill:#183654;fill-opacity:1;fill-rule:nonzero;stroke:none"
         id="path282" /><path
         inkscape:connector-curvature="0"
         d="m 78.346014,721.57908 35.854496,0 0,-7.34001 -35.854496,0 z"
         style="fill:#183654;fill-opacity:1;fill-rule:nonzero;stroke:none"
         id="path284" /><path
         inkscape:connector-curvature="0"
         d="m 34.772617,755.79185 35.85178,0 0,-7.33636 -35.85178,0 z"
         style="fill:#183654;fill-opacity:1;fill-rule:nonzero;stroke:none"
         id="path286" /><path
         inkscape:connector-curvature="0"
         d="m 78.346014,755.79185 35.854496,0 0,-7.33636 -35.854496,0 z"
         style="fill:#183654;fill-opacity:1;fill-rule:nonzero;stroke:none"
         id="path288" /><path
         inkscape:connector-curvature="0"
         d="m 977.9168,800.66177 148.5523,0 0,-236.21259 -148.5523,0 z"
         style="fill:#d0ecec;fill-opacity:1;fill-rule:nonzero;stroke:none"
         id="path290" /><path
         inkscape:connector-curvature="0"
         d="m 993.85032,603.36921 22.90938,0 0,-16.41037 -22.90938,0 z"
         style="fill:#ffffff;fill-opacity:1;fill-rule:nonzero;stroke:none"
         id="path292" /><path
         inkscape:connector-curvature="0"
         d="m 993.85032,627.39303 22.90938,0 0,-16.41036 -22.90938,0 z"
         style="fill:#f1faf8;fill-opacity:1;fill-rule:nonzero;stroke:none"
         id="path294" /><path
         inkscape:connector-curvature="0"
         d="m 993.85032,651.41935 22.90938,0 0,-16.41036 -22.90938,0 z"
         style="fill:#ffffff;fill-opacity:1;fill-rule:nonzero;stroke:none"
         id="path296" /><path
         inkscape:connector-curvature="0"
         d="m 993.85032,675.4438 22.90938,0 0,-16.40673 -22.90938,0 z"
         style="fill:#fbbf58;fill-opacity:1;fill-rule:nonzero;stroke:none"
         id="path298" /><path
         inkscape:connector-curvature="0"
         d="m 993.85032,708.61737 22.90938,0 0,-16.41402 -22.90938,0 z"
         style="fill:#f1faf8;fill-opacity:1;fill-rule:nonzero;stroke:none"
         id="path300" /><path
         inkscape:connector-curvature="0"
         d="m 993.85032,732.64027 22.90938,0 0,-16.41038 -22.90938,0 z"
         style="fill:#ffffff;fill-opacity:1;fill-rule:nonzero;stroke:none"
         id="path302" /><path
         inkscape:connector-curvature="0"
         d="m 993.85032,756.66813 22.90938,0 0,-16.41401 -22.90938,0 z"
         style="fill:#ffffff;fill-opacity:1;fill-rule:nonzero;stroke:none"
         id="path304" /><path
         inkscape:connector-curvature="0"
         d="m 993.85032,780.69103 22.90938,0 0,-16.41038 -22.90938,0 z"
         style="fill:#ffffff;fill-opacity:1;fill-rule:nonzero;stroke:none"
         id="path306" /><path
         inkscape:connector-curvature="0"
         d="m 1025.11,603.36921 22.9094,0 0,-16.41037 -22.9094,0 z"
         style="fill:#fbbf58;fill-opacity:1;fill-rule:nonzero;stroke:none"
         id="path308" /><path
         inkscape:connector-curvature="0"
         d="m 1025.11,627.39303 22.9094,0 0,-16.41036 -22.9094,0 z"
         style="fill:#ffffff;fill-opacity:1;fill-rule:nonzero;stroke:none"
         id="path310" /><path
         inkscape:connector-curvature="0"
         d="m 1025.11,651.41935 22.9094,0 0,-16.41036 -22.9094,0 z"
         style="fill:#ffffff;fill-opacity:1;fill-rule:nonzero;stroke:none"
         id="path312" /><path
         inkscape:connector-curvature="0"
         d="m 1025.11,675.4438 22.9094,0 0,-16.40673 -22.9094,0 z"
         style="fill:#ffffff;fill-opacity:1;fill-rule:nonzero;stroke:none"
         id="path314" /><path
         inkscape:connector-curvature="0"
         d="m 1025.11,708.61737 22.9094,0 0,-16.41402 -22.9094,0 z"
         style="fill:#ffffff;fill-opacity:1;fill-rule:nonzero;stroke:none"
         id="path316" /><path
         inkscape:connector-curvature="0"
         d="m 1025.11,732.64027 22.9094,0 0,-16.41038 -22.9094,0 z"
         style="fill:#f1faf8;fill-opacity:1;fill-rule:nonzero;stroke:none"
         id="path318" /><path
         inkscape:connector-curvature="0"
         d="m 1025.11,756.66813 22.9094,0 0,-16.41401 -22.9094,0 z"
         style="fill:#ffffff;fill-opacity:1;fill-rule:nonzero;stroke:none"
         id="path320" /><path
         inkscape:connector-curvature="0"
         d="m 1025.11,780.69103 22.9094,0 0,-16.41038 -22.9094,0 z"
         style="fill:#fbbf58;fill-opacity:1;fill-rule:nonzero;stroke:none"
         id="path322" /><path
         inkscape:connector-curvature="0"
         d="m 1056.3663,603.36921 22.9067,0 0,-16.41037 -22.9067,0 z"
         style="fill:#ffffff;fill-opacity:1;fill-rule:nonzero;stroke:none"
         id="path324" /><path
         inkscape:connector-curvature="0"
         d="m 1056.3663,627.39303 22.9067,0 0,-16.41036 -22.9067,0 z"
         style="fill:#f1faf8;fill-opacity:1;fill-rule:nonzero;stroke:none"
         id="path326" /><path
         inkscape:connector-curvature="0"
         d="m 1056.3663,651.41935 22.9067,0 0,-16.41036 -22.9067,0 z"
         style="fill:#ffffff;fill-opacity:1;fill-rule:nonzero;stroke:none"
         id="path328" /><path
         inkscape:connector-curvature="0"
         d="m 1056.3663,675.4438 22.9067,0 0,-16.40673 -22.9067,0 z"
         style="fill:#f1faf8;fill-opacity:1;fill-rule:nonzero;stroke:none"
         id="path330" /><path
         inkscape:connector-curvature="0"
         d="m 1056.3663,708.61737 22.9067,0 0,-16.41402 -22.9067,0 z"
         style="fill:#ffffff;fill-opacity:1;fill-rule:nonzero;stroke:none"
         id="path332" /><path
         inkscape:connector-curvature="0"
         d="m 1056.3663,732.64027 22.9067,0 0,-16.41038 -22.9067,0 z"
         style="fill:#ffffff;fill-opacity:1;fill-rule:nonzero;stroke:none"
         id="path334" /><path
         inkscape:connector-curvature="0"
         d="m 1056.3663,756.66813 22.9067,0 0,-16.41401 -22.9067,0 z"
         style="fill:#ffffff;fill-opacity:1;fill-rule:nonzero;stroke:none"
         id="path336" /><path
         inkscape:connector-curvature="0"
         d="m 1056.3663,780.69103 22.9067,0 0,-16.41038 -22.9067,0 z"
         style="fill:#ffffff;fill-opacity:1;fill-rule:nonzero;stroke:none"
         id="path338" /><path
         inkscape:connector-curvature="0"
         d="m 1087.6294,603.36921 22.9067,0 0,-16.41037 -22.9067,0 z"
         style="fill:#ffffff;fill-opacity:1;fill-rule:nonzero;stroke:none"
         id="path340" /><path
         inkscape:connector-curvature="0"
         d="m 1087.6294,627.39303 22.9067,0 0,-16.41036 -22.9067,0 z"
         style="fill:#ffffff;fill-opacity:1;fill-rule:nonzero;stroke:none"
         id="path342" /><path
         inkscape:connector-curvature="0"
         d="m 1087.6294,651.41935 22.9067,0 0,-16.41036 -22.9067,0 z"
         style="fill:#fbbf58;fill-opacity:1;fill-rule:nonzero;stroke:none"
         id="path344" /><path
         inkscape:connector-curvature="0"
         d="m 1087.6294,675.4438 22.9067,0 0,-16.40673 -22.9067,0 z"
         style="fill:#f1faf8;fill-opacity:1;fill-rule:nonzero;stroke:none"
         id="path346" /><path
         inkscape:connector-curvature="0"
         d="m 1087.6294,708.61737 22.9067,0 0,-16.41402 -22.9067,0 z"
         style="fill:#fbbf58;fill-opacity:1;fill-rule:nonzero;stroke:none"
         id="path348" /><path
         inkscape:connector-curvature="0"
         d="m 1087.6294,732.64027 22.9067,0 0,-16.41038 -22.9067,0 z"
         style="fill:#ffffff;fill-opacity:1;fill-rule:nonzero;stroke:none"
         id="path350" /><path
         inkscape:connector-curvature="0"
         d="m 1087.6294,756.66813 22.9067,0 0,-16.41401 -22.9067,0 z"
         style="fill:#ffffff;fill-opacity:1;fill-rule:nonzero;stroke:none"
         id="path352" /><path
         inkscape:connector-curvature="0"
         d="m 1087.6294,780.69103 22.9067,0 0,-16.41038 -22.9067,0 z"
         style="fill:#f1faf8;fill-opacity:1;fill-rule:nonzero;stroke:none"
         id="path354" /><path
         inkscape:connector-curvature="0"
         d="m 431.13508,801.01097 60.74926,0 0,-41.69279 -60.74926,0 z"
         style="fill:#4b5f7c;fill-opacity:1;fill-rule:nonzero;stroke:none"
         id="path356" /><path
         inkscape:connector-curvature="0"
         d="m 473.6731,787.05865 11.49908,0 0,-10.55734 -11.49908,0 z"
         style="fill:#ffffff;fill-opacity:1;fill-rule:nonzero;stroke:none"
         id="path358" /><path
         inkscape:connector-curvature="0"
         d="m 456.85062,787.05865 11.49907,0 0,-10.55734 -11.49907,0 z"
         style="fill:#ffffff;fill-opacity:1;fill-rule:nonzero;stroke:none"
         id="path360" /><path
         inkscape:connector-curvature="0"
         d="m 440.02474,787.05865 11.50172,0 0,-10.55734 -11.50172,0 z"
         style="fill:#ffffff;fill-opacity:1;fill-rule:nonzero;stroke:none"
         id="path362" /><path
         inkscape:connector-curvature="0"
         d="m 514.61302,801.12655 99.73686,0 0,-119.44658 -99.73686,0 z"
         style="fill:#f89f21;fill-opacity:1;fill-rule:nonzero;stroke:none"
         id="path364" /><path
         inkscape:connector-curvature="0"
         d="m 551.47456,801.12655 26.01344,0 0,-33.84301 -26.01344,0 z"
         style="fill:#4b5f7c;fill-opacity:1;fill-rule:nonzero;stroke:none"
         id="path366" /><path
         inkscape:connector-curvature="0"
         d="m 692.40954,801.12655 99.74738,0 0,-119.44658 -99.74738,0 z"
         style="fill:#f89f21;fill-opacity:1;fill-rule:nonzero;stroke:none"
         id="path368" /><path
         inkscape:connector-curvature="0"
         d="m 729.27447,801.12655 26.02138,0 0,-33.84301 -26.02138,0 z"
         style="fill:#4b5f7c;fill-opacity:1;fill-rule:nonzero;stroke:none"
         id="path370" /><path
         inkscape:connector-curvature="0"
         d="m 603.50959,801.12655 99.74737,0 0,-171.20777 -99.74737,0 z"
         style="fill:#fbbf58;fill-opacity:1;fill-rule:nonzero;stroke:none"
         id="path372" /><path
         inkscape:connector-curvature="0"
         d="m 531.95803,755.34421 21.68472,0 0,-27.87184 -21.68472,0 z"
         style="fill:#fad58d;fill-opacity:1;fill-rule:nonzero;stroke:none"
         id="path374" /><path
         inkscape:connector-curvature="0"
         d="m 575.32055,755.34421 21.68473,0 0,-27.87184 -21.68473,0 z"
         style="fill:#fad58d;fill-opacity:1;fill-rule:nonzero;stroke:none"
         id="path376" /><path
         inkscape:connector-curvature="0"
         d="m 531.95803,719.50441 21.68472,0 0,-27.87185 -21.68472,0 z"
         style="fill:#ffffff;fill-opacity:1;fill-rule:nonzero;stroke:none"
         id="path378" /><path
         inkscape:connector-curvature="0"
         d="m 575.32055,719.50441 21.68473,0 0,-27.87185 -21.68473,0 z"
         style="fill:#ffffff;fill-opacity:1;fill-rule:nonzero;stroke:none"
         id="path380" /><path
         inkscape:connector-curvature="0"
         d="m 709.75455,755.34421 21.68869,0 0,-27.87184 -21.68869,0 z"
         style="fill:#ffffff;fill-opacity:1;fill-rule:nonzero;stroke:none"
         id="path382" /><path
         inkscape:connector-curvature="0"
         d="m 753.12386,755.34421 21.68204,0 0,-27.87184 -21.68204,0 z"
         style="fill:#ffffff;fill-opacity:1;fill-rule:nonzero;stroke:none"
         id="path384" /><path
         inkscape:connector-curvature="0"
         d="m 709.75455,719.50441 21.68869,0 0,-27.87185 -21.68869,0 z"
         style="fill:#ffffff;fill-opacity:1;fill-rule:nonzero;stroke:none"
         id="path386" /><path
         inkscape:connector-curvature="0"
         d="m 753.12386,719.50441 21.68204,0 0,-27.87185 -21.68204,0 z"
         style="fill:#fce9c2;fill-opacity:1;fill-rule:nonzero;stroke:none"
         id="path388" /><path
         inkscape:connector-curvature="0"
         d="m 620.85799,682.01703 21.68204,0 0,-27.87428 -21.68204,0 z"
         style="fill:#ffffff;fill-opacity:1;fill-rule:nonzero;stroke:none"
         id="path390" /><path
         inkscape:connector-curvature="0"
         d="m 664.2239,682.01703 21.68072,0 0,-27.87428 -21.68072,0 z"
         style="fill:#ffffff;fill-opacity:1;fill-rule:nonzero;stroke:none"
         id="path392" /><path
         inkscape:connector-curvature="0"
         d="m 620.85799,755.34421 21.68204,0 0,-27.87184 -21.68204,0 z"
         style="fill:#ffffff;fill-opacity:1;fill-rule:nonzero;stroke:none"
         id="path394" /><path
         inkscape:connector-curvature="0"
         d="m 664.2239,755.34421 21.68072,0 0,-27.87184 -21.68072,0 z"
         style="fill:#ffffff;fill-opacity:1;fill-rule:nonzero;stroke:none"
         id="path396" /><path
         inkscape:connector-curvature="0"
         d="m 620.85799,719.50441 21.68204,0 0,-27.87185 -21.68204,0 z"
         style="fill:#fcd790;fill-opacity:1;fill-rule:nonzero;stroke:none"
         id="path398" /><path
         inkscape:connector-curvature="0"
         d="m 664.2239,719.50441 21.68072,0 0,-27.87185 -21.68072,0 z"
         style="fill:#ffffff;fill-opacity:1;fill-rule:nonzero;stroke:none"
         id="path400" /><path
         inkscape:connector-curvature="0"
         d="m 640.36773,801.12655 26.02535,0 0,-33.84301 -26.02535,0 z"
         style="fill:#4b5f7c;fill-opacity:1;fill-rule:nonzero;stroke:none"
         id="path402" /><path
         inkscape:connector-curvature="0"
         d="m 172.65034,604.96726 12.56071,0 0,-10.4612 -12.56071,0 z"
         style="fill:#6bc6c0;fill-opacity:1;fill-rule:nonzero;stroke:none"
         id="path630" /><path
         inkscape:connector-curvature="0"
         d="m 247.17043,604.96726 12.56203,0 0,-10.4612 -12.56203,0 z"
         style="fill:#6bc6c0;fill-opacity:1;fill-rule:nonzero;stroke:none"
         id="path632" /><path
         inkscape:connector-curvature="0"
         style="display:inline;opacity:1;fill:#f2f9fa;fill-opacity:1;fill-rule:nonzero;stroke:none"
         d="m 613.68387,400.88297 c -6.23167,0 -11.56594,3.52534 -13.77531,8.51846 -1.19594,-0.52755 -2.5394,-0.82308 -3.95417,-0.82308 -4.65351,0 -8.49922,3.18072 -9.09444,7.30525 l -0.87203,0 c -0.0523,0.36502 -0.0785,0.73847 -0.0785,1.11682 l 0.0267,0.61043 c -6.76768,0.53022 -12.08805,5.73839 -12.08805,12.08771 l 77.22256,0 c 0.0407,-0.49824 0.0718,-1.0015 0.0718,-1.51307 0,-4.70803 -1.89231,-9.01133 -5.01496,-12.30189 l 0.87368,0 c -3.74312,-3.94601 -9.25512,-6.43934 -15.40408,-6.43934 -1.35702,0 -2.67974,0.12161 -3.9642,0.35341 -2.09734,-5.20628 -7.55195,-8.9147 -13.94904,-8.9147 z"
         id="path4561" /><path
         id="path4353"
         d="m 536.96755,397.66175 c -8.84401,0 -16.41443,5.00317 -19.54997,12.08943 -1.69729,-0.7487 -3.60393,-1.16812 -5.61178,-1.16812 -6.60428,0 -12.06212,4.5141 -12.90687,10.36764 l -1.23758,0 c -0.0742,0.51804 -0.11143,1.04804 -0.11143,1.585 l 0.0379,0.86632 c -9.60472,0.7525 -17.15541,8.14395 -17.15541,17.15493 l 109.59456,0 c 0.0577,-0.70711 0.10196,-1.42134 0.10196,-2.14735 0,-6.68166 -2.68558,-12.78892 -7.11726,-17.4589 l 1.23994,0 c -5.31225,-5.60019 -13.13491,-9.13873 -21.86153,-9.13873 -1.92589,0 -3.8031,0.17259 -5.62601,0.50156 -2.97656,-7.38877 -10.71776,-12.65178 -19.79654,-12.65178 z"
         style="display:inline;opacity:1;fill:#f8fdfd;fill-opacity:1;fill-rule:nonzero;stroke:none"
         inkscape:connector-curvature="0" /></g></g></svg>