<?xml version="1.0" encoding="UTF-8" standalone="no"?>
<!--?xml version="1.0" encoding="utf-8"?-->

<!-- Generator: Adobe Illustrator 18.1.1, SVG Export Plug-In . SVG Version: 6.00 Build 0)  -->

<svg
   xmlns:dc="http://purl.org/dc/elements/1.1/"
   xmlns:cc="http://creativecommons.org/ns#"
   xmlns:rdf="http://www.w3.org/1999/02/22-rdf-syntax-ns#"
   xmlns:svg="http://www.w3.org/2000/svg"
   xmlns="http://www.w3.org/2000/svg"
   xmlns:sodipodi="http://sodipodi.sourceforge.net/DTD/sodipodi-0.dtd"
   xmlns:inkscape="http://www.inkscape.org/namespaces/inkscape"
   version="1.1"
   id="_x32_"
   x="0px"
   y="0px"
   viewBox="0 0 504 512"
   style="opacity:1"
   xml:space="preserve"
   inkscape:version="0.91 r13725"
   sodipodi:docname="calendar.svg"
   width="504"
   height="512"><metadata
     id="metadata8165"><rdf:RDF><cc:Work
         rdf:about=""><dc:format>image/svg+xml</dc:format><dc:type
           rdf:resource="http://purl.org/dc/dcmitype/StillImage" /><dc:title></dc:title></cc:Work></rdf:RDF></metadata><defs
     id="defs8163" /><sodipodi:namedview
     pagecolor="#ffffff"
     bordercolor="#666666"
     borderopacity="1"
     objecttolerance="10"
     gridtolerance="10"
     guidetolerance="10"
     inkscape:pageopacity="0"
     inkscape:pageshadow="2"
     inkscape:window-width="1366"
     inkscape:window-height="666"
     id="namedview8161"
     showgrid="false"
     inkscape:zoom="0.4609375"
     inkscape:cx="256"
     inkscape:cy="256"
     inkscape:window-x="0"
     inkscape:window-y="0"
     inkscape:window-maximized="1"
     inkscape:current-layer="_x32_" /><style
     type="text/css"
     id="style8131">
	.st0{fill:#4B4B4B;}
</style><g
     id="g8133"
     transform="translate(-4.175,0)"><path
       class="st0"
       d="m 164.893,89.791 c 13.875,0 25.126,-11.243 25.126,-25.134 l 0,-39.539 C 190.019,11.252 178.768,0 164.893,0 151.018,0 139.758,11.252 139.758,25.118 l 0,39.538 c 0,13.892 11.26,25.135 25.135,25.135 z"
       style="fill:#4b4b4b"
       id="path8135"
       inkscape:connector-curvature="0" /><path
       class="st0"
       d="m 350.184,89.791 c 13.867,0 25.126,-11.243 25.126,-25.134 l 0,-39.539 C 375.31,11.252 364.05,0 350.184,0 336.309,0 325.049,11.252 325.049,25.118 l 0,39.538 c -10e-4,13.892 11.26,25.135 25.135,25.135 z"
       style="fill:#4b4b4b"
       id="path8137"
       inkscape:connector-curvature="0" /><path
       class="st0"
       d="m 437.25,35.807 -39.865,0 0,28.849 c 0,26.04 -21.169,47.218 -47.201,47.218 -26.032,0 -47.209,-21.178 -47.209,-47.218 l 0,-28.849 -90.881,0 0,28.849 c 0,26.04 -21.178,47.218 -47.2,47.218 -26.032,0 -47.21,-21.178 -47.21,-47.218 l 0,-28.849 -42.934,0 c -38.977,0 -70.575,31.599 -70.575,70.575 l 0,335.043 C 4.175,480.401 35.773,512 74.75,512 l 362.5,0 c 38.976,0 70.575,-31.599 70.575,-70.575 l 0,-335.043 c 0,-38.976 -31.599,-70.575 -70.575,-70.575 z m 36.234,405.618 c 0,19.978 -16.256,36.235 -36.235,36.235 l -362.499,0 c -19.979,0 -36.235,-16.257 -36.235,-36.235 l 0,-290.441 434.969,0 0,290.441 z"
       style="fill:#4b4b4b"
       id="path8139"
       inkscape:connector-curvature="0" /><rect
       x="174.92799"
       y="382.51199"
       class="st0"
       width="63.591"
       height="63.591"
       style="fill:#4b4b4b"
       id="rect8141" /><rect
       x="174.92799"
       y="283.95999"
       class="st0"
       width="63.591"
       height="63.591"
       style="fill:#4b4b4b"
       id="rect8143" /><rect
       x="76.385002"
       y="382.51199"
       class="st0"
       width="63.582001"
       height="63.591"
       style="fill:#4b4b4b"
       id="rect8145" /><rect
       x="76.385002"
       y="283.95999"
       class="st0"
       width="63.582001"
       height="63.591"
       style="fill:#4b4b4b"
       id="rect8147" /><rect
       x="372.03201"
       y="185.41701"
       class="st0"
       width="63.583"
       height="63.582001"
       style="fill:#4b4b4b"
       id="rect8149" /><rect
       x="273.48001"
       y="185.41701"
       class="st0"
       width="63.591"
       height="63.582001"
       style="fill:#4b4b4b"
       id="rect8151" /><polygon
       class="st0"
       points="331.127,278.51 296.686,322.811 276.238,306.454 261.273,325.142 300.677,356.673 350.041,293.216 "
       style="fill:#4b4b4b"
       id="polygon8153" /><rect
       x="372.03201"
       y="283.95999"
       class="st0"
       width="63.583"
       height="63.591"
       style="fill:#4b4b4b"
       id="rect8155" /><rect
       x="273.48001"
       y="382.51199"
       class="st0"
       width="63.591"
       height="63.591"
       style="fill:#4b4b4b"
       id="rect8157" /><rect
       x="174.92799"
       y="185.41701"
       class="st0"
       width="63.591"
       height="63.582001"
       style="fill:#4b4b4b"
       id="rect8159" /></g></svg>