<?xml version="1.0" encoding="UTF-8" standalone="no"?>
<svg
   xmlns:dc="http://purl.org/dc/elements/1.1/"
   xmlns:cc="http://creativecommons.org/ns#"
   xmlns:rdf="http://www.w3.org/1999/02/22-rdf-syntax-ns#"
   xmlns:svg="http://www.w3.org/2000/svg"
   xmlns="http://www.w3.org/2000/svg"
   xmlns:sodipodi="http://sodipodi.sourceforge.net/DTD/sodipodi-0.dtd"
   xmlns:inkscape="http://www.inkscape.org/namespaces/inkscape"
   viewBox="0 0 1461.3333 1040"
   height="1040"
   width="1461.3333"
   xml:space="preserve"
   id="svg2"
   version="1.1"
   inkscape:version="0.48.0 r9654"
   sodipodi:docname="12-05.svg"><sodipodi:namedview
     pagecolor="#ffffff"
     bordercolor="#666666"
     borderopacity="1"
     objecttolerance="10"
     gridtolerance="10"
     guidetolerance="10"
     inkscape:pageopacity="0"
     inkscape:pageshadow="2"
     inkscape:window-width="1680"
     inkscape:window-height="975"
     id="namedview4304"
     showgrid="false"
     inkscape:zoom="0.32091769"
     inkscape:cx="600.20125"
     inkscape:cy="517.1166"
     inkscape:window-x="-9"
     inkscape:window-y="-9"
     inkscape:window-maximized="1"
     inkscape:current-layer="svg2" /><metadata
     id="metadata8"><rdf:RDF><cc:Work
         rdf:about=""><dc:format>image/svg+xml</dc:format><dc:type
           rdf:resource="http://purl.org/dc/dcmitype/StillImage" /><dc:title></dc:title></cc:Work></rdf:RDF></metadata><defs
     id="defs6" /><path
     transform="translate(-372.36963,-578.02987)"
     d="m 900.54245,814.86438 a 197.09103,197.09103 0 1 1 -394.18207,0 197.09103,197.09103 0 1 1 394.18207,0 z"
     sodipodi:ry="197.09103"
     sodipodi:rx="197.09103"
     sodipodi:cy="814.86438"
     sodipodi:cx="703.45142"
     id="path6115"
     style="fill:#656263;fill-opacity:1;stroke:none"
     sodipodi:type="arc" /><path
     sodipodi:type="arc"
     style="fill:#656263;fill-opacity:1;stroke:none"
     id="path6109"
     sodipodi:cx="703.45142"
     sodipodi:cy="814.86438"
     sodipodi:rx="197.09103"
     sodipodi:ry="197.09103"
     d="m 900.54245,814.86438 a 197.09103,197.09103 0 1 1 -394.18207,0 197.09103,197.09103 0 1 1 394.18207,0 z"
     transform="translate(-437.72867,-86.604443)" /><path
     style="fill:#fbbf58;fill-opacity:1;stroke:none"
     d="m 199.66519,125.04014 c -7.47631,0.45517 -12.24233,24.41304 -14.3125,37.625 -11.58379,14.22623 -29.42553,44.10606 -45.59375,76.59375 -1.73527,0.78003 -3.67667,1.63755 -5.65625,2.5625 -0.87811,7.83034 -1.26475,15.60892 -1.21875,23.3125 1.79314,12.47157 4.76712,24.55352 8.78125,36.15625 1.09503,-2.62762 2.26065,-4.93899 3.4375,-6.8125 13.49863,-21.48817 39.62498,-47.45146 82.875,-35.5625 12.01875,3.30388 22.10966,7.21475 30.4375,11.6875 24.98355,13.41826 34.48072,31.71077 35.1875,52.5625 0.71295,21.02561 -11.59393,76.10959 -50.75,91.46875 18.2727,8.76152 38.10601,14.79795 58.96875,17.5625 9.18294,-28.94957 19.24736,-74.88666 24.75,-114 7.70306,3.97937 17.77519,8.19328 19.5,4.25 2.02551,-4.63248 -8.90708,-21.87934 -16.34375,-31.8125 3.313,-39.58344 0.0296,-68.6001 -3.375,-84.28125 6.97654,-10.72787 20.05938,-32.99987 11.6875,-37.5625 -9.18723,-5.00721 -30.10854,8.54633 -37.125,13.40625 -22.75235,-10.05397 -58.21519,-22.55461 -82.875,-27.15625 -3.058,-9.73294 -10.09548,-29.19505 -17.625,-29.96875 -0.24287,-0.025 -0.50623,-0.046 -0.75,-0.0312 z m -0.1875,10.15625 c 0.26233,-0.007 0.53963,0.098 0.84375,0.28125 3.28451,1.97897 8.61214,14.10482 8.71875,17.25 0.12605,3.72862 -10.24948,5.56293 -14.21875,1.3125 0,0 1.23656,-15.64078 3.9375,-18.53125 0.21101,-0.22582 0.45641,-0.30562 0.71875,-0.3125 z m 129.3125,41.5 c 0.18709,-0.003 0.35971,-0.0203 0.53125,0 0.17704,0.0212 0.3722,0.078 0.53125,0.125 0.15903,0.0471 0.27852,0.11004 0.40625,0.1875 3.95949,2.4013 -6.75564,18.88324 -8.5,20.75 -1.80063,1.92698 -12.55588,-7.39146 -11.71875,-10.21875 0,0 12.95024,-10.76091 18.75,-10.84375 z"
     id="path6107"
     inkscape:connector-curvature="0" /><path
     transform="translate(408.20437,-467.4096)"
     d="m 900.54245,814.86438 a 197.09103,197.09103 0 1 1 -394.18207,0 197.09103,197.09103 0 1 1 394.18207,0 z"
     sodipodi:ry="197.09103"
     sodipodi:rx="197.09103"
     sodipodi:cy="814.86438"
     sodipodi:cx="703.45142"
     id="path5295"
     style="fill:#656263;fill-opacity:1;stroke:#656263;stroke-width:6;stroke-miterlimit:4;stroke-opacity:1;stroke-dasharray:none"
     sodipodi:type="arc" /><path
     style="fill:#fbbf58;fill-opacity:1;fill-rule:nonzero;stroke:none"
     d="m 1111.6562,150.37498 c -108.8503,0 -197.0937,88.24338 -197.0937,197.09375 0,32.28013 7.77447,62.73376 21.53125,89.625 8.62199,1.80178 16.78358,3.76276 23.8125,5.65625 5.6134,-5.32164 21.4414,-19.4163 31.6875,-19.375 1.06,0.004 2.04595,0.13603 2.96875,0.46875 8.9692,3.23389 -0.5519,27.27197 -5.8125,38.9375 3.87401,10.08557 8.60536,26.17033 12.125,47.6875 31.5724,21.49793 69.7043,34.0625 110.7812,34.0625 108.8504,0 197.0938,-88.21213 197.0938,-197.0625 0,-108.85037 -88.2434,-197.09375 -197.0938,-197.09375 z"
     id="path6542" /><path
     style="fill:#fbbf58;fill-opacity:1;fill-rule:nonzero;stroke:none"
     d="m 987.15625,433.03123 c -5.5244,0.19339 -17.40625,13.65625 -17.40625,13.65625 -0.3966,2.92183 11.67025,10.49132 13.15625,8.3125 1.4396,-2.11072 9.49785,-20.04247 5.21875,-21.8125 -0.1381,-0.0571 -0.2732,-0.13395 -0.4375,-0.15625 -0.1644,-0.0223 -0.35305,-0.006 -0.53125,0 z"
     id="path5901" /><g
     id="g6111"><path
       inkscape:connector-curvature="0"
       id="path6096"
       d="m 217.03823,244.94884 c -40.40665,-6.1969 -65.58197,20.0362 -79.10368,42.00116 -0.11137,0.18097 -0.23111,0.39187 -0.3423,0.57961 10.24045,56.6738 45.0388,106.22732 94.54154,135.16909 50.96469,-10.24983 66.79349,-79.48114 66.05499,-104.62648 -0.90277,-30.75144 -18.66627,-56.40243 -70.53337,-70.82272 -3.64542,-1.0135 -7.19288,-1.7755 -10.61718,-2.30066 z"
       style="fill:#ffffff;fill-opacity:1;stroke:none" /></g><path
     inkscape:connector-curvature="0"
     id="path6098"
     d="m 316.31781,249.18917 49.4619,2.42566"
     style="fill:none;stroke:#ffffff;stroke-width:2.39509273000000000;stroke-linecap:butt;stroke-linejoin:miter;stroke-miterlimit:4;stroke-opacity:1;stroke-dasharray:none" /><path
     inkscape:connector-curvature="0"
     id="path6100"
     d="m 315.07282,254.16439 51.43536,11.93812"
     style="fill:none;stroke:#ffffff;stroke-width:2.39509273000000000;stroke-linecap:butt;stroke-linejoin:miter;stroke-miterlimit:4;stroke-opacity:1;stroke-dasharray:none" /><path
     inkscape:connector-curvature="0"
     id="path6102"
     d="m 313.54701,260.82545 45.32986,17.45658"
     style="fill:none;stroke:#ffffff;stroke-width:2.39509273000000000;stroke-linecap:butt;stroke-linejoin:miter;stroke-miterlimit:4;stroke-opacity:1;stroke-dasharray:none" /><path
     inkscape:connector-curvature="0"
     d="m 219.84663,209.03452 c 4.21542,1.24815 8.6455,-1.15697 9.89396,-5.37342 1.24845,-4.21645 -1.15798,-8.64581 -5.37341,-9.89396 -4.21645,-1.24846 -8.64654,1.15667 -9.89499,5.37311 -1.24847,4.21645 1.15799,8.64582 5.37444,9.89427"
     style="fill:#393536;fill-opacity:1;fill-rule:nonzero;stroke:none"
     id="path5857" /><path
     inkscape:connector-curvature="0"
     d="m 286.85552,228.87531 c 4.21644,1.24846 8.64552,-1.15697 9.89396,-5.37342 1.24846,-4.21644 -1.15696,-8.64552 -5.37341,-9.89396 -4.21644,-1.24847 -8.64552,1.15697 -9.89397,5.37341 -1.24846,4.21644 1.15697,8.64551 5.37342,9.89397"
     style="fill:#393536;fill-opacity:1;fill-rule:nonzero;stroke:none"
     id="path5859" /><path
     inkscape:connector-curvature="0"
     d="m 235.96704,220.66625 c -2.13593,6.08519 4.48566,15.6893 11.18338,17.67243 8.48187,2.51143 15.92604,-0.81972 17.93519,-7.60522 2.00913,-6.7855 -16.84025,-17.90305 -25.38506,-13.97415 l -0.26775,0.13942 c -1.81326,0.90855 -2.92296,2.22303 -3.46576,3.76752"
     style="fill:#393536;fill-opacity:1;fill-rule:nonzero;stroke:none"
     id="path5861" /><path
     style="fill:none;stroke:#ffffff;stroke-width:2.39509273000000000;stroke-linecap:butt;stroke-linejoin:miter;stroke-miterlimit:4;stroke-opacity:1;stroke-dasharray:none"
     d="m 190.19472,210.1055 -45.8489,-18.71466"
     id="path5879"
     inkscape:connector-curvature="0" /><path
     style="fill:none;stroke:#ffffff;stroke-width:2.39509273000000000;stroke-linecap:butt;stroke-linejoin:miter;stroke-miterlimit:4;stroke-opacity:1;stroke-dasharray:none"
     d="M 193.02134,205.82612 148.47019,177.48355"
     id="path5881"
     inkscape:connector-curvature="0" /><path
     style="fill:none;stroke:#ffffff;stroke-width:2.39509273000000000;stroke-linecap:butt;stroke-linejoin:miter;stroke-miterlimit:4;stroke-opacity:1;stroke-dasharray:none"
     d="M 195.29913,199.31458 158.3396,167.79443"
     id="path5883"
     inkscape:connector-curvature="0" /><path
     id="path5925"
     style="fill:#393536;fill-opacity:1;fill-rule:nonzero;stroke:none"
     d="m 219.84663,209.03452 c 4.21542,1.24815 8.6455,-1.15697 9.89396,-5.37342 1.24845,-4.21645 -1.15798,-8.64581 -5.37341,-9.89396 -4.21645,-1.24846 -8.64654,1.15667 -9.89499,5.37311 -1.24847,4.21645 1.15799,8.64582 5.37444,9.89427"
     inkscape:connector-curvature="0" /><path
     id="path5929"
     style="fill:#393536;fill-opacity:1;fill-rule:nonzero;stroke:none"
     d="m 235.96704,220.66625 c -2.13593,6.08519 4.48566,15.6893 11.18338,17.67243 8.48187,2.51143 15.92604,-0.81972 17.93519,-7.60522 2.00913,-6.7855 -16.84025,-17.90305 -25.38506,-13.97415 l -0.26775,0.13942 c -1.81326,0.90855 -2.92296,2.22303 -3.46576,3.76752"
     inkscape:connector-curvature="0" /><path
     inkscape:connector-curvature="0"
     id="path5947"
     d="m 190.19472,210.1055 -45.8489,-18.71466"
     style="fill:none;stroke:#ffffff;stroke-width:2.39509273000000000;stroke-linecap:butt;stroke-linejoin:miter;stroke-miterlimit:4;stroke-opacity:1;stroke-dasharray:none" /><path
     inkscape:connector-curvature="0"
     id="path5949"
     d="M 193.02134,205.82612 148.47019,177.48355"
     style="fill:none;stroke:#ffffff;stroke-width:2.39509273000000000;stroke-linecap:butt;stroke-linejoin:miter;stroke-miterlimit:4;stroke-opacity:1;stroke-dasharray:none" /><path
     inkscape:connector-curvature="0"
     id="path5951"
     d="M 195.29913,199.31458 158.3396,167.79443"
     style="fill:none;stroke:#ffffff;stroke-width:2.39509273000000000;stroke-linecap:butt;stroke-linejoin:miter;stroke-miterlimit:4;stroke-opacity:1;stroke-dasharray:none" /><path
     id="path6104"
     style="fill:#393536;fill-opacity:1;fill-rule:nonzero;stroke:none"
     d="m 286.85552,228.87531 c 4.21644,1.24846 8.64552,-1.15697 9.89396,-5.37342 1.24846,-4.21644 -1.15696,-8.64552 -5.37341,-9.89396 -4.21644,-1.24847 -8.64552,1.15697 -9.89397,5.37341 -1.24846,4.21644 1.15697,8.64551 5.37342,9.89397"
     inkscape:connector-curvature="0" /><path
     inkscape:connector-curvature="0"
     d="m 180.17475,767.46524 c 0.0968,0.25664 0.19407,0.50932 0.29059,0.76404 -0.0966,-0.2547 -0.19377,-0.5074 -0.29059,-0.76404"
     style="fill:#ffffff;fill-opacity:1;fill-rule:nonzero;stroke:none"
     id="path6322" /><path
     inkscape:connector-curvature="0"
     d="m 161.59755,718.40458 c 0.59345,1.4808 1.18398,2.96879 1.77017,4.4602 -0.58631,-1.49238 -1.17672,-2.9794 -1.77017,-4.4602"
     style="fill:#ffffff;fill-opacity:1;fill-rule:nonzero;stroke:none"
     id="path6324" /><path
     inkscape:connector-curvature="0"
     d="m 163.59565,723.44711 c 0.581,1.48032 1.15765,2.96409 1.73173,4.45012 -0.57408,-1.48603 -1.15073,-2.9698 -1.73173,-4.45012"
     style="fill:#ffffff;fill-opacity:1;fill-rule:nonzero;stroke:none"
     id="path6326" /><path
     inkscape:connector-curvature="0"
     d="m 134.20481,825.53872 c -0.80305,-0.43934 -1.60529,-0.89048 -2.40595,-1.34959 0.80078,0.46009 1.60278,0.9093 2.40595,1.34959"
     style="fill:#ffffff;fill-opacity:1;fill-rule:nonzero;stroke:none"
     id="path6328" /><path
     inkscape:connector-curvature="0"
     d="m 185.13583,780.1609 -0.008,-0.0176 -0.0335,-0.0847 0.0335,0.0847 0.008,0.0176"
     style="fill:#ffffff;fill-opacity:1;fill-rule:nonzero;stroke:none"
     id="path6332" /><path
     inkscape:connector-curvature="0"
     d="m 127.79442,821.8001 c -0.97784,-0.60781 -1.9532,-1.22858 -2.92541,-1.86922 0.97183,0.64068 1.94745,1.26046 2.92541,1.86922"
     style="fill:#ffffff;fill-opacity:1;fill-rule:nonzero;stroke:none"
     id="path6334" /><path
     inkscape:connector-curvature="0"
     d="m 183.65815,776.4645 c 0.11719,0.2981 0.23586,0.59992 0.35377,0.89598 -0.11791,-0.29606 -0.23658,-0.59788 -0.35377,-0.89598"
     style="fill:#ffffff;fill-opacity:1;fill-rule:nonzero;stroke:none"
     id="path6340" /><path
     inkscape:connector-curvature="0"
     d="m 182.47667,773.45448 c 0.13302,0.34107 0.26513,0.68224 0.39786,1.02042 -0.13268,-0.33819 -0.26479,-0.67936 -0.39786,-1.02042"
     style="fill:#ffffff;fill-opacity:1;fill-rule:nonzero;stroke:none"
     id="path6342" /><path
     inkscape:connector-curvature="0"
     d="m 181.3277,770.48351 c 0.12291,0.32082 0.24549,0.63874 0.36905,0.95753 -0.12363,-0.31878 -0.24611,-0.63672 -0.36905,-0.95753"
     style="fill:#ffffff;fill-opacity:1;fill-rule:nonzero;stroke:none"
     id="path6344" /><path
     inkscape:connector-curvature="0"
     d="m 130.89776,823.66779 c -0.73637,-0.43065 -1.47077,-0.87224 -2.20446,-1.31977 0.73382,0.44849 1.46838,0.88909 2.20446,1.31977"
     style="fill:#ffffff;fill-opacity:1;fill-rule:nonzero;stroke:none"
     id="path6346" /><path
     inkscape:connector-curvature="0"
     d="m 151.50684,694.98959 c 0.63478,1.34628 1.26669,2.70947 1.89477,4.09164 -0.62808,-1.38217 -1.25999,-2.74536 -1.89477,-4.09164"
     style="fill:#ffffff;fill-opacity:1;fill-rule:nonzero;stroke:none"
     id="path6348" /><path
     inkscape:connector-curvature="0"
     d="m 149.26936,690.34966 c 0.65241,1.31788 1.30034,2.6626 1.94548,4.02326 -0.64514,-1.36066 -1.29307,-2.70538 -1.94548,-4.02326"
     style="fill:#ffffff;fill-opacity:1;fill-rule:nonzero;stroke:none"
     id="path6350" /><path
     inkscape:connector-curvature="0"
     d="m 157.67255,708.8531 c 1.24149,2.94054 2.46875,5.92762 3.68187,8.94657 -1.21312,-3.01895 -2.44038,-6.00603 -3.68187,-8.94657"
     style="fill:#ffffff;fill-opacity:1;fill-rule:nonzero;stroke:none"
     id="path6352" /><path
     inkscape:connector-curvature="0"
     d="m 155.55141,703.90991 c 0.62023,1.42014 1.23661,2.85534 1.84972,4.30263 -0.61311,-1.44729 -1.22949,-2.88249 -1.84972,-4.30263"
     style="fill:#ffffff;fill-opacity:1;fill-rule:nonzero;stroke:none"
     id="path6354" /><path
     inkscape:connector-curvature="0"
     d="m 153.54413,699.39875 c 0.61422,1.35651 1.22565,2.72894 1.83322,4.11645 -0.60757,-1.38751 -1.219,-2.75994 -1.83322,-4.11645"
     style="fill:#ffffff;fill-opacity:1;fill-rule:nonzero;stroke:none"
     id="path6356" /><path
     inkscape:connector-curvature="0"
     d="m 328.02486,832.8862 c 70.86713,-7.47533 57.31132,-88.2212 46.58,-111.11992 -10.73143,-22.89968 -32.55486,-36.43354 -76.45249,-30.35387 -39.49181,5.46961 -51.49016,36.51375 -54.7851,59.28037 -3.29412,22.76553 13.79127,89.66768 84.65759,82.19342"
     style="fill:#ffffff;fill-opacity:1;fill-rule:nonzero;stroke:none"
     id="path6358" /><path
     inkscape:connector-curvature="0"
     d="m 272.09393,658.03278 c 3.88116,-0.45841 6.62791,-4.04644 6.13381,-8.01498 -0.49411,-3.96852 -4.04176,-6.81313 -7.92293,-6.35472 -3.88209,0.45852 -6.62885,4.04657 -6.13474,8.01509 0.4941,3.96852 4.04176,6.81314 7.92386,6.35461"
     style="fill:#ffffff;fill-opacity:1;fill-rule:nonzero;stroke:none"
     id="path6360" /><path
     inkscape:connector-curvature="0"
     d="m 333.78927,650.74588 c 3.88211,-0.45851 6.62793,-4.04645 6.13381,-8.01497 -0.49409,-3.96854 -4.04082,-6.81326 -7.92292,-6.35473 -3.88209,0.45851 -6.62792,4.04645 -6.13381,8.01498 0.4941,3.96852 4.04083,6.81324 7.92292,6.35472"
     style="fill:#ffffff;fill-opacity:1;fill-rule:nonzero;stroke:none"
     id="path6362" /><path
     inkscape:connector-curvature="0"
     d="m 289.39404,662.01174 c 0.44089,5.84643 9.27669,11.5143 15.44331,10.78595 7.8093,-0.92235 12.67944,-6.35792 11.88428,-12.74445 -0.79516,-6.38653 -20.13397,-8.96371 -25.68648,-2.63654 l -0.16813,0.21189 c -1.15146,1.40519 -1.58433,2.89902 -1.47298,4.38315"
     style="fill:#ffffff;fill-opacity:1;fill-rule:nonzero;stroke:none"
     id="path6364" /><path
     inkscape:connector-curvature="0"
     d="m 352.63632,606.93596 c 0.77619,-2.25182 3.7293,-20.96288 -0.95628,-20.40946 -4.68558,0.55342 -12.26844,16.03103 -12.26844,16.03103 0.33132,2.66106 12.44853,6.63026 13.22472,4.37843"
     style="fill:#ffffff;fill-opacity:1;fill-rule:nonzero;stroke:none"
     id="path6366" /><path
     inkscape:connector-curvature="0"
     d="m 244.64634,609.42908 c -1.43884,-3.07028 -13.37622,-14.08121 -14.54051,-10.70347 -1.16428,3.37774 3.4221,16.87799 3.4221,16.87799 4.7566,2.13838 12.55735,-3.10327 11.11841,-6.17452"
     style="fill:#ffffff;fill-opacity:1;fill-rule:nonzero;stroke:none"
     id="path6368" /><path
     id="path6388"
     style="fill:#ffffff;fill-opacity:1;fill-rule:nonzero;stroke:none"
     d="m 180.17475,767.46524 c 0.0968,0.25664 0.19407,0.50932 0.29059,0.76404 -0.0966,-0.2547 -0.19377,-0.5074 -0.29059,-0.76404"
     inkscape:connector-curvature="0" /><path
     id="path6390"
     style="fill:#ffffff;fill-opacity:1;fill-rule:nonzero;stroke:none"
     d="m 161.59755,718.40458 c 0.59345,1.4808 1.18398,2.96879 1.77017,4.4602 -0.58631,-1.49238 -1.17672,-2.9794 -1.77017,-4.4602"
     inkscape:connector-curvature="0" /><path
     id="path6392"
     style="fill:#ffffff;fill-opacity:1;fill-rule:nonzero;stroke:none"
     d="m 163.59565,723.44711 c 0.581,1.48032 1.15765,2.96409 1.73173,4.45012 -0.57408,-1.48603 -1.15073,-2.9698 -1.73173,-4.45012"
     inkscape:connector-curvature="0" /><path
     id="path6394"
     style="fill:#ffffff;fill-opacity:1;fill-rule:nonzero;stroke:none"
     d="m 134.20481,825.53872 c -0.80305,-0.43934 -1.60529,-0.89048 -2.40595,-1.34959 0.80078,0.46009 1.60278,0.9093 2.40595,1.34959"
     inkscape:connector-curvature="0" /><path
     id="path6398"
     style="fill:#ffffff;fill-opacity:1;fill-rule:nonzero;stroke:none"
     d="m 185.13583,780.1609 -0.008,-0.0176 -0.0335,-0.0847 0.0335,0.0847 0.008,0.0176"
     inkscape:connector-curvature="0" /><path
     id="path6400"
     style="fill:#ffffff;fill-opacity:1;fill-rule:nonzero;stroke:none"
     d="m 127.79442,821.8001 c -0.97784,-0.60781 -1.9532,-1.22858 -2.92541,-1.86922 0.97183,0.64068 1.94745,1.26046 2.92541,1.86922"
     inkscape:connector-curvature="0" /><path
     style="fill:#656263;fill-opacity:0;fill-rule:nonzero;stroke:none"
     d="m 355.75412,577.05699 c -9.2783,-0.91222 -21.4895,17.87332 -25.46335,24.43418 -22.13698,-0.29807 -55.48147,1.89888 -77.21825,6.83694 -6.17197,-7.27216 -19.51615,-21.69936 -25.70018,-18.52221 -5.92701,3.04345 -1.21936,24.7507 1.82919,36.52979 -4.33766,16.01551 -8.18442,47.32044 -9.71198,80.23065 -7.6917,8.61425 -20.14664,23.31145 -18.64289,26.52027 1.2569,2.68139 10.4822,0.28511 17.96818,-2.16944 -0.0888,10.58315 0.10804,20.98821 0.65504,30.74275 1.33743,23.83081 3.53045,43.8424 6.05753,59.68171 -3.68097,-0.83638 -7.64908,-2.18495 -11.71175,-4.34095 -1.24485,8.58196 0.38431,18.13681 2.77584,26.49984 4.79958,-0.21338 9.18326,-0.57585 13.02422,-1.01964 2.4862,10.44862 5.01928,17.22909 7.15745,20.0267 0.77808,1.0184 4.66024,1.45963 10.78921,1.46293 2.49896,6.62201 7.43972,17.42984 12.88087,16.78718 5.03893,-0.59515 8.54589,-10.7784 10.40475,-17.93656 33.49818,-2.63956 84.15581,-9.37619 117.00197,-15.56011 2.98103,5.86809 6.82837,12.34561 9.4349,12.47933 2.81758,0.14389 5.62862,-8.69999 7.45227,-15.99533 8.56182,-2.01626 14.13717,-3.85222 15.26076,-5.32039 6.31753,-8.25504 -5.36839,-79.11067 -20.03668,-132.41231 7.70097,0.58187 17.3961,0.55225 17.38797,-3.35767 -0.0102,-4.59301 -15.08864,-15.14481 -24.70636,-20.79734 -11.4871,-34.26137 -24.54393,-57.3477 -32.93703,-69.24028 1.83837,-11.4507 4.50313,-34.72895 -3.95168,-35.56004 z m -3.39236,9.65259 c 4.08594,0.59648 1.28557,18.20872 0.53365,20.39017 -0.77619,2.25183 -12.89431,-1.70137 -13.22563,-4.36241 0,0 7.58407,-15.48931 12.26965,-16.04272 0.14643,-0.0173 0.29054,-0.004 0.42233,0.015 z M 231.62295,598.2768 c 3.38475,0.48395 12.07331,8.73246 13.28731,11.32302 1.43894,3.07125 -6.35508,8.30638 -11.11169,6.16799 0,0 -4.58917,-13.49743 -3.42489,-16.87517 0.18192,-0.52777 0.62247,-0.70546 1.24927,-0.61584 z m 95.74409,92.25605 c 25.16019,2.31498 39.4481,14.2254 47.49666,31.40016 10.73132,22.89871 24.29093,103.64989 -46.5762,111.12522 -70.86631,7.47425 -87.95232,-59.43223 -84.6582,-82.19777 3.29494,-22.76661 15.28454,-53.80604 54.77636,-59.27565 10.9744,-1.51991 20.57466,-1.82362 28.96138,-1.05196 z M 211.87809,843.64809 c -1.3597,0.0262 -2.73408,0.0433 -4.14816,0.0389 1.41563,0.004 2.78668,-0.0121 4.14816,-0.0389 z m -7.28829,0.009 c -0.95275,-0.0188 -1.91814,-0.0416 -2.89156,-0.0762 0.97112,0.035 1.94098,0.057 2.89156,0.0762 z m -4.95724,-0.16966 c -0.89711,-0.0425 -1.7952,-0.0936 -2.70772,-0.15074 0.91263,0.0569 1.81063,0.1085 2.70772,0.15074 z m -4.8586,-0.29725 c -1.12676,-0.0841 -2.26364,-0.17342 -3.41114,-0.28173 1.15145,0.10858 2.28028,0.19696 3.41114,0.28173 z"
     id="path6402"
     inkscape:connector-curvature="0" /><path
     id="path6406"
     style="fill:#ffffff;fill-opacity:1;fill-rule:nonzero;stroke:none"
     d="m 183.65815,776.4645 c 0.11719,0.2981 0.23586,0.59992 0.35377,0.89598 -0.11791,-0.29606 -0.23658,-0.59788 -0.35377,-0.89598"
     inkscape:connector-curvature="0" /><path
     id="path6408"
     style="fill:#ffffff;fill-opacity:1;fill-rule:nonzero;stroke:none"
     d="m 182.47667,773.45448 c 0.13302,0.34107 0.26513,0.68224 0.39786,1.02042 -0.13268,-0.33819 -0.26479,-0.67936 -0.39786,-1.02042"
     inkscape:connector-curvature="0" /><path
     id="path6410"
     style="fill:#ffffff;fill-opacity:1;fill-rule:nonzero;stroke:none"
     d="m 181.3277,770.48351 c 0.12291,0.32082 0.24549,0.63874 0.36905,0.95753 -0.12363,-0.31878 -0.24611,-0.63672 -0.36905,-0.95753"
     inkscape:connector-curvature="0" /><path
     id="path6412"
     style="fill:#ffffff;fill-opacity:1;fill-rule:nonzero;stroke:none"
     d="m 130.89776,823.66779 c -0.73637,-0.43065 -1.47077,-0.87224 -2.20446,-1.31977 0.73382,0.44849 1.46838,0.88909 2.20446,1.31977"
     inkscape:connector-curvature="0" /><path
     id="path6414"
     style="fill:#ffffff;fill-opacity:1;fill-rule:nonzero;stroke:none"
     d="m 151.50684,694.98959 c 0.63478,1.34628 1.26669,2.70947 1.89477,4.09164 -0.62808,-1.38217 -1.25999,-2.74536 -1.89477,-4.09164"
     inkscape:connector-curvature="0" /><path
     id="path6416"
     style="fill:#ffffff;fill-opacity:1;fill-rule:nonzero;stroke:none"
     d="m 149.26936,690.34966 c 0.65241,1.31788 1.30034,2.6626 1.94548,4.02326 -0.64514,-1.36066 -1.29307,-2.70538 -1.94548,-4.02326"
     inkscape:connector-curvature="0" /><path
     id="path6418"
     style="fill:#ffffff;fill-opacity:1;fill-rule:nonzero;stroke:none"
     d="m 157.67255,708.8531 c 1.24149,2.94054 2.46875,5.92762 3.68187,8.94657 -1.21312,-3.01895 -2.44038,-6.00603 -3.68187,-8.94657"
     inkscape:connector-curvature="0" /><path
     id="path6420"
     style="fill:#ffffff;fill-opacity:1;fill-rule:nonzero;stroke:none"
     d="m 155.55141,703.90991 c 0.62023,1.42014 1.23661,2.85534 1.84972,4.30263 -0.61311,-1.44729 -1.22949,-2.88249 -1.84972,-4.30263"
     inkscape:connector-curvature="0" /><path
     id="path6422"
     style="fill:#ffffff;fill-opacity:1;fill-rule:nonzero;stroke:none"
     d="m 153.54413,699.39875 c 0.61422,1.35651 1.22565,2.72894 1.83322,4.11645 -0.60757,-1.38751 -1.219,-2.75994 -1.83322,-4.11645"
     inkscape:connector-curvature="0" /><path
     id="path6424"
     style="fill:#ffffff;fill-opacity:1;fill-rule:nonzero;stroke:none"
     d="m 328.02486,832.8862 c 70.86713,-7.47533 57.31132,-88.2212 46.58,-111.11992 -10.73143,-22.89968 -32.55486,-36.43354 -76.45249,-30.35387 -39.49181,5.46961 -51.49016,36.51375 -54.7851,59.28037 -3.29412,22.76553 13.79127,89.66768 84.65759,82.19342"
     inkscape:connector-curvature="0" /><path
     id="path6426"
     style="fill:#ffffff;fill-opacity:1;fill-rule:nonzero;stroke:none"
     d="m 272.09393,658.03278 c 3.88116,-0.45841 6.62791,-4.04644 6.13381,-8.01498 -0.49411,-3.96852 -4.04176,-6.81313 -7.92293,-6.35472 -3.88209,0.45852 -6.62885,4.04657 -6.13474,8.01509 0.4941,3.96852 4.04176,6.81314 7.92386,6.35461"
     inkscape:connector-curvature="0" /><path
     id="path6428"
     style="fill:#ffffff;fill-opacity:1;fill-rule:nonzero;stroke:none"
     d="m 333.78927,650.74588 c 3.88211,-0.45851 6.62793,-4.04645 6.13381,-8.01497 -0.49409,-3.96854 -4.04082,-6.81326 -7.92292,-6.35473 -3.88209,0.45851 -6.62792,4.04645 -6.13381,8.01498 0.4941,3.96852 4.04083,6.81324 7.92292,6.35472"
     inkscape:connector-curvature="0" /><path
     id="path6430"
     style="fill:#ffffff;fill-opacity:1;fill-rule:nonzero;stroke:none"
     d="m 289.39404,662.01174 c 0.44089,5.84643 9.27669,11.5143 15.44331,10.78595 7.8093,-0.92235 12.67944,-6.35792 11.88428,-12.74445 -0.79516,-6.38653 -20.13397,-8.96371 -25.68648,-2.63654 l -0.16813,0.21189 c -1.15146,1.40519 -1.58433,2.89902 -1.47298,4.38315"
     inkscape:connector-curvature="0" /><path
     id="path6432"
     style="fill:#ffffff;fill-opacity:1;fill-rule:nonzero;stroke:none"
     d="m 352.63632,606.93596 c 0.77619,-2.25182 3.7293,-20.96288 -0.95628,-20.40946 -4.68558,0.55342 -12.26844,16.03103 -12.26844,16.03103 0.33132,2.66106 12.44853,6.63026 13.22472,4.37843"
     inkscape:connector-curvature="0" /><path
     id="path6434"
     style="fill:#ffffff;fill-opacity:1;fill-rule:nonzero;stroke:none"
     d="m 244.64634,609.42908 c -1.43884,-3.07028 -13.37622,-14.08121 -14.54051,-10.70347 -1.16428,3.37774 3.4221,16.87799 3.4221,16.87799 4.7566,2.13838 12.55735,-3.10327 11.11841,-6.17452"
     inkscape:connector-curvature="0" /><path
     id="path44"
     style="fill:#656263;fill-opacity:1;fill-rule:nonzero;stroke:none"
     d="m 177.69774,767.42082 c 0.094,0.24728 0.18843,0.49073 0.28214,0.73616 -0.0938,-0.24541 -0.18815,-0.48888 -0.28214,-0.73616"
     inkscape:connector-curvature="0" /><path
     id="path46"
     style="fill:#656263;fill-opacity:1;fill-rule:nonzero;stroke:none"
     d="m 159.66201,720.15061 c 0.57664,1.42657 1.15035,2.8601 1.71978,4.29696 -0.56954,-1.43779 -1.14314,-2.87039 -1.71978,-4.29696"
     inkscape:connector-curvature="0" /><path
     id="path48"
     style="fill:#656263;fill-opacity:1;fill-rule:nonzero;stroke:none"
     d="m 161.60319,725.00861 c 0.56437,1.42618 1.12443,2.85572 1.68194,4.28745 -0.55751,-1.43173 -1.11757,-2.86127 -1.68194,-4.28745"
     inkscape:connector-curvature="0" /><path
     id="path50"
     style="fill:#656263;fill-opacity:1;fill-rule:nonzero;stroke:none"
     d="m 132.05482,823.75848 c -0.78913,-0.41972 -1.5774,-0.85083 -2.36407,-1.28965 0.78678,0.43976 1.57482,0.86901 2.36407,1.28965"
     inkscape:connector-curvature="0" /><path
     id="path52"
     style="fill:#c8beb7;fill-opacity:1;fill-rule:nonzero;stroke:none;opacity:1"
     d="m 148.7324,831.22862 c -5.36847,-1.988 -10.74755,-4.35191 -16.075,-7.14914 19.18901,10.08891 39.05457,14.52241 56.6182,16.06532 -1.2703,-0.11206 -2.55165,-0.23782 -3.84534,-0.37996 0.30771,-14.78938 6.63796,-30.10918 10.55373,-37.38891 -4.02854,-4.66492 -7.86963,-10.5058 -11.30183,-17.7988 -17.21033,6.93454 -29.12952,29.4963 -35.94976,46.65149"
     inkscape:connector-curvature="0" /><path
     id="path54"
     style="fill:#656263;fill-opacity:1;fill-rule:nonzero;stroke:none"
     d="m 182.51651,779.65229 -0.008,-0.0169 -0.0325,-0.0816 0.0325,0.0816 0.008,0.0169"
     inkscape:connector-curvature="0" /><path
     id="path56"
     style="fill:#656263;fill-opacity:1;fill-rule:nonzero;stroke:none"
     d="m 125.75683,820.18448 c -0.96048,-0.58141 -1.91845,-1.17535 -2.87319,-1.78849 0.95437,0.61319 1.91259,1.20616 2.87319,1.78849"
     inkscape:connector-curvature="0" /><path
     style="fill:#fbbf58;fill-opacity:1;fill-rule:nonzero;stroke:none"
     d="m 351.85087,582.56366 c -9.141,-0.82852 -21.28429,17.38051 -25.23856,23.73838 -21.82001,-0.16291 -54.70196,2.14675 -76.15701,7.03781 -6.04303,-6.98747 -19.11573,-20.84369 -25.22961,-17.7408 -5.85976,2.97233 -1.34167,23.90722 1.59699,35.2644 -4.36626,15.48973 -8.3349,45.74082 -10.02643,77.52894 -7.63076,8.36169 -19.99124,22.62422 -18.52702,25.71431 1.22386,2.58217 10.33129,0.21616 17.72451,-2.19631 -0.1473,10.22004 -0.012,20.2665 0.47221,29.68281 1.18389,23.0045 3.23275,42.31616 5.63444,57.59701 -3.62381,-0.78687 -7.52779,-2.06671 -11.52043,-4.1257 -1.27556,8.29412 0.27648,17.5115 2.58675,25.5737 4.73242,-0.23313 9.05571,-0.60789 12.84447,-1.0581 2.39183,10.07559 4.85056,16.60881 6.94248,19.29824 0.76126,0.97901 4.58563,1.38318 10.62729,1.35178 2.426,6.38039 7.2354,16.78901 12.60267,16.13772 4.97052,-0.60314 8.485,-10.45631 10.35778,-17.37902 33.03596,-2.73791 83.01009,-9.52898 115.42332,-15.68579 2.90545,5.64965 6.66144,11.88291 9.2301,11.99732 2.77663,0.12305 5.59754,-8.43285 7.43638,-15.48783 8.45126,-1.9953 13.95756,-3.79964 15.07343,-5.22371 6.27413,-8.00707 -4.84548,-76.36233 -19.00404,-127.74989 7.588,0.51842 17.14521,0.43511 17.15926,-3.34044 0.0159,-4.43514 -14.78826,-14.53931 -24.2371,-19.94337 -11.13014,-33.0194 -23.87071,-55.23886 -32.07716,-66.67547 1.8768,-11.06766 4.63498,-33.56117 -3.69472,-34.31599 z m -3.39851,9.3401 c 4.02437,0.55292 1.1645,17.57585 0.41098,19.6866 -0.77785,2.17884 -12.70105,-1.57015 -13.01264,-4.1379 0,0 7.56346,-14.99993 12.18543,-15.56077 0.14444,-0.0175 0.28642,-0.006 0.41623,0.0121 z m -119.0844,11.85117 c 3.3338,0.44822 11.85206,8.3643 13.03416,10.85901 1.40111,2.9576 -6.31145,8.05685 -10.98824,6.01877 0,0 -4.44764,-13.00779 -3.28088,-16.27605 0.18231,-0.51066 0.61759,-0.68473 1.23496,-0.60173 z m 93.85976,88.54604 c 24.78877,2.09346 38.80596,13.51404 46.64296,30.05329 10.44925,22.05141 23.36003,99.95167 -46.53993,107.5701 -69.89914,7.61737 -86.36421,-56.89395 -82.98853,-78.89591 3.37649,-22.00301 15.37048,-52.04366 54.33068,-57.54822 10.82667,-1.52962 20.29191,-1.87707 28.55482,-1.17926 z M 208.5196,840.80731 c -1.34049,0.0329 -2.69538,0.0573 -4.0893,0.061 1.39545,-0.004 2.74706,-0.0274 4.0893,-0.061 z m -7.18453,0.0495 c -0.93907,-0.0127 -1.89058,-0.0293 -2.84994,-0.0573 0.95708,0.0283 1.913,0.0441 2.84994,0.0573 z m -4.88568,-0.13585 c -0.88409,-0.036 -1.7691,-0.0803 -2.6683,-0.13028 0.8993,0.0498 1.78423,0.0946 2.6683,0.13028 z m -4.78772,-0.25961 c -1.11024,-0.0749 -2.23042,-0.1547 -3.36097,-0.25281 1.13444,0.0983 2.2467,0.17733 3.36097,0.25281 z"
     id="path58"
     inkscape:connector-curvature="0" /><path
     id="path60"
     style="fill:#c8beb7;fill-opacity:1;fill-rule:nonzero;stroke:none;opacity:1"
     d="m 172.86124,754.60925 c -3.06149,-8.1836 -6.23808,-16.72668 -9.53377,-25.20452 -25.65332,1.38398 -56.46975,32.22315 -73.616363,51.90971 -5.535712,-10.87554 -9.124611,-22.61097 -10.875156,-34.44812 19.524974,-40.75951 49.878779,-50.87201 68.828969,-53.74247 -13.93307,-27.80866 -29.60984,-45.13867 -47.10457,-27.95429 -33.995462,33.39216 -33.313483,117.44196 22.2142,153.1569 -2.00479,-1.28998 -3.91888,-2.65963 -5.78182,-4.07122 12.19314,-30.68543 41.19453,-50.36192 55.86851,-59.64599"
     inkscape:connector-curvature="0" /><path
     id="path62"
     style="fill:#656263;fill-opacity:1;fill-rule:nonzero;stroke:none"
     d="m 181.08074,776.09124 c 0.11383,0.2872 0.22912,0.57797 0.34367,0.86319 -0.11455,-0.28522 -0.22984,-0.57599 -0.34367,-0.86319"
     inkscape:connector-curvature="0" /><path
     id="path64"
     style="fill:#656263;fill-opacity:1;fill-rule:nonzero;stroke:none"
     d="m 179.93307,773.1913 c 0.1292,0.3286 0.2575,0.65731 0.38644,0.98311 -0.12889,-0.32581 -0.25719,-0.65452 -0.38644,-0.98311"
     inkscape:connector-curvature="0" /><path
     id="path66"
     style="fill:#656263;fill-opacity:1;fill-rule:nonzero;stroke:none"
     d="m 178.81724,770.32889 c 0.11935,0.3091 0.23838,0.6154 0.35839,0.92255 -0.12008,-0.30713 -0.23901,-0.61346 -0.35839,-0.92255"
     inkscape:connector-curvature="0" /><path
     id="path68"
     style="fill:#656263;fill-opacity:1;fill-rule:nonzero;stroke:none"
     d="m 128.80543,821.97049 c -0.72345,-0.4117 -1.4449,-0.83397 -2.16562,-1.26199 0.72084,0.42895 1.44246,0.85026 2.16562,1.26199"
     inkscape:connector-curvature="0" /><path
     id="path70"
     style="fill:#656263;fill-opacity:1;fill-rule:nonzero;stroke:none"
     d="m 149.84716,697.59704 c 0.61814,1.29644 1.23335,2.60923 1.84469,3.94037 -0.61134,-1.33114 -1.22655,-2.64393 -1.84469,-3.94037"
     inkscape:connector-curvature="0" /><path
     id="path72"
     style="fill:#656263;fill-opacity:1;fill-rule:nonzero;stroke:none"
     d="m 147.66773,693.12915 c 0.63568,1.26892 1.26679,2.56378 1.89507,3.87406 -0.62828,-1.31028 -1.25939,-2.60514 -1.89507,-3.87406"
     inkscape:connector-curvature="0" /><path
     id="path74"
     style="fill:#656263;fill-opacity:1;fill-rule:nonzero;stroke:none"
     d="m 155.84681,710.94944 c 1.20721,2.8325 2.40013,5.71003 3.57894,8.61841 -1.17881,-2.90838 -2.37173,-5.78591 -3.57894,-8.61841"
     inkscape:connector-curvature="0" /><path
     id="path76"
     style="fill:#656263;fill-opacity:1;fill-rule:nonzero;stroke:none"
     d="m 153.78378,706.18805 c 0.60337,1.36785 1.20288,2.75026 1.79909,4.14437 -0.59621,-1.39411 -1.19572,-2.77652 -1.79909,-4.14437"
     inkscape:connector-curvature="0" /><path
     id="path78"
     style="fill:#656263;fill-opacity:1;fill-rule:nonzero;stroke:none"
     d="m 151.83054,701.84321 c 0.59782,1.30644 1.19279,2.62827 1.78388,3.96468 -0.59109,-1.33641 -1.18606,-2.65824 -1.78388,-3.96468"
     inkscape:connector-curvature="0" /><path
     id="path80"
     style="fill:#ffffff;fill-opacity:1;fill-rule:nonzero;stroke:none"
     d="m 323.07282,829.75971 c 69.89996,-7.61842 56.9929,-85.51357 46.54365,-107.56498 -10.44935,-22.05235 -31.88557,-34.99806 -75.19227,-28.87954 -38.9602,5.50455 -50.96285,35.5498 -54.33934,57.55282 -3.37567,22.00195 13.08881,86.50909 82.98796,78.8917"
     inkscape:connector-curvature="0" /><path
     id="path86"
     style="fill:#393536;fill-opacity:1;fill-rule:nonzero;stroke:none"
     d="m 268.92528,661.22945 c 3.82847,-0.46456 6.55635,-3.94482 6.09167,-7.77422 -0.46467,-3.82938 -3.94574,-6.55624 -7.77421,-6.09168 -3.82939,0.46468 -6.55728,3.94495 -6.0926,7.77434 0.46467,3.82938 3.94575,6.55624 7.77514,6.09156"
     inkscape:connector-curvature="0" /><path
     id="path88"
     style="fill:#393536;fill-opacity:1;fill-rule:nonzero;stroke:none"
     d="m 329.78302,653.84474 c 3.8294,-0.46466 6.55636,-3.94483 6.09168,-7.77421 -0.46467,-3.8294 -3.94483,-6.55637 -7.77422,-6.09168 -3.82939,0.46466 -6.55635,3.94482 -6.09168,7.77421 0.46467,3.82939 3.94483,6.55636 7.77422,6.09168"
     inkscape:connector-curvature="0" /><path
     id="path90"
     style="fill:#393536;fill-opacity:1;fill-rule:nonzero;stroke:none"
     d="m 285.95653,664.97407 c 0.40162,5.64307 9.07959,11.06635 15.16248,10.32822 7.70328,-0.93473 12.53473,-6.21103 11.78693,-12.37365 -0.74779,-6.16261 -19.79662,-8.54212 -25.30574,-2.40099 l -0.16693,0.20556 c -1.143,1.36341 -1.57813,2.80835 -1.47674,4.24086"
     inkscape:connector-curvature="0" /><path
     id="path92"
     style="fill:#ffd42a;fill-opacity:1;fill-rule:nonzero;stroke:none"
     d="m 348.60887,611.43366 c 0.77783,-2.17884 3.79448,-20.2637 -0.82749,-19.70285 -4.62197,0.56085 -12.18417,15.54948 -12.18417,15.54948 0.31159,2.56776 12.23381,6.33221 13.01166,4.15337"
     inkscape:connector-curvature="0" /><path
     id="path94"
     style="fill:#ffcc00;fill-opacity:1;fill-rule:nonzero;stroke:none"
     d="m 242.14291,614.45055 c -1.40101,-2.95667 -13.10623,-13.52193 -14.273,-10.25367 -1.16676,3.26826 3.27811,16.27879 3.27811,16.27879 4.67678,2.03807 12.396,-3.06752 10.99489,-6.02512"
     inkscape:connector-curvature="0" /><path
     id="path112"
     style="fill:#fbbf58;fill-opacity:1;fill-rule:nonzero;stroke:none"
     d="m 122.88364,818.39599 c 0.95474,0.61314 1.91271,1.20708 2.87319,1.78849 0.29378,0.17693 0.58877,0.34902 0.88298,0.52402 0.72072,0.42802 1.44217,0.85029 2.16562,1.26199 0.2948,0.1674 0.59002,0.33288 0.88532,0.49834 0.78667,0.43882 1.57494,0.86993 2.36407,1.28965 0.20105,0.10635 0.40167,0.21558 0.60258,0.321 5.32745,2.79723 10.70653,5.16114 16.075,7.14914 6.82023,-17.1552 18.73944,-39.71697 35.94976,-46.6515 l 0.005,-0.003 c -0.74242,-1.57579 -1.46901,-3.2071 -2.17005,-4.92243 l -0.008,-0.0169 -0.0325,-0.0816 c -0.34902,-0.85312 -0.69985,-1.72109 -1.05192,-2.59925 -0.11456,-0.28523 -0.22984,-0.576 -0.34367,-0.86321 -0.25384,-0.63422 -0.50701,-1.27136 -0.76123,-1.91682 -0.12888,-0.32581 -0.25719,-0.65453 -0.38644,-0.98311 -0.25195,-0.64199 -0.50428,-1.28769 -0.75744,-1.93987 -0.12008,-0.30713 -0.23901,-0.61345 -0.3584,-0.92255 -0.27807,-0.71782 -0.5569,-1.44214 -0.83734,-2.17191 -0.0937,-0.24543 -0.18815,-0.48888 -0.28214,-0.73615 -1.57899,-4.12122 -3.19004,-8.41351 -4.83649,-12.81157 -14.67399,9.28407 -43.67538,28.96055 -55.86851,59.64599 1.86292,1.4116 3.77702,2.78123 5.78181,4.07121 l 0.032,0.0215 0.0771,0.0479"
     inkscape:connector-curvature="0" /><path
     id="path114"
     style="fill:#fbbf58;fill-opacity:1;fill-rule:nonzero;stroke:none"
     d="m 78.835951,746.86632 c 1.750545,11.83715 5.339444,23.57258 10.875156,34.44812 17.146613,-19.68656 47.963043,-50.52573 73.616363,-51.90971 v 0 l -0.0424,-0.10867 c -0.55751,-1.43172 -1.11757,-2.86127 -1.68194,-4.28745 -0.0734,-0.18676 -0.14693,-0.37348 -0.22138,-0.56104 -0.56942,-1.43686 -1.14314,-2.87039 -1.71979,-4.29697 -0.0782,-0.19464 -0.15718,-0.38822 -0.23625,-0.58275 -1.17881,-2.90838 -2.37173,-5.78591 -3.57894,-8.61842 -0.088,-0.20567 -0.17504,-0.41145 -0.26392,-0.61702 -0.5962,-1.39411 -1.1957,-2.77652 -1.79908,-4.14436 -0.0569,-0.12763 -0.11347,-0.25339 -0.16935,-0.38017 -0.59109,-1.33641 -1.18606,-2.65824 -1.78387,-3.96469 -0.0462,-0.10162 -0.0925,-0.20416 -0.13875,-0.30579 -0.61133,-1.33113 -1.22654,-2.64392 -1.84468,-3.94036 -0.0948,-0.1992 -0.18964,-0.3965 -0.28437,-0.59384 -0.62827,-1.31027 -1.25938,-2.60513 -1.89506,-3.87405 l -0.002,-0.006 c -18.95019,2.87045 -49.303998,12.98292 -68.828964,53.74246"
     inkscape:connector-curvature="0" /><path
     id="path116"
     style="fill:#fbbf58;fill-opacity:1;fill-rule:nonzero;stroke:none"
     d="m 189.2756,840.1448 0.16165,0.0139 c 9.04445,0.78471 17.46241,0.80174 24.87061,0.4352 -2.31024,-8.0622 -3.86063,-17.29643 -2.58509,-25.59056 l 0.003,-0.0163 c -5.24897,-2.70703 -10.64161,-6.71447 -15.73914,-12.61548 l -0.001,0.003 c -3.91578,7.27973 -10.24602,22.59954 -10.55373,37.38891 1.29369,0.14214 2.57504,0.2679 3.84534,0.37995"
     inkscape:connector-curvature="0" /><path
     style="fill:none;stroke:#000000;stroke-width:2.10102439;stroke-linecap:butt;stroke-linejoin:miter;stroke-miterlimit:4;stroke-opacity:1;stroke-dasharray:none"
     d="m 347.23707,652.11471 40.66221,-15.28769"
     id="path5178"
     inkscape:connector-curvature="0" /><path
     style="fill:none;stroke:#000000;stroke-width:2.10102439;stroke-linecap:butt;stroke-linejoin:miter;stroke-miterlimit:4;stroke-opacity:1;stroke-dasharray:none"
     d="m 347.96901,656.55371 45.56647,-8.31804"
     id="path5180"
     inkscape:connector-curvature="0" /><path
     style="fill:none;stroke:#000000;stroke-width:2.10102439;stroke-linecap:butt;stroke-linejoin:miter;stroke-miterlimit:4;stroke-opacity:1;stroke-dasharray:none"
     d="m 350.38482,662.10204 42.5751,-1.74758"
     id="path5182"
     inkscape:connector-curvature="0" /><path
     inkscape:connector-curvature="0"
     id="path5184"
     d="m 245.42884,672.42702 -43.43145,0.91574"
     style="fill:none;stroke:#000000;stroke-width:2.10102439;stroke-linecap:butt;stroke-linejoin:miter;stroke-miterlimit:4;stroke-opacity:1;stroke-dasharray:none" /><path
     inkscape:connector-curvature="0"
     id="path5186"
     d="m 246.21266,667.99688 -45.74267,-7.28706"
     style="fill:none;stroke:#000000;stroke-width:2.10102439;stroke-linecap:butt;stroke-linejoin:miter;stroke-miterlimit:4;stroke-opacity:1;stroke-dasharray:none" /><path
     inkscape:connector-curvature="0"
     id="path5188"
     d="M 245.77661,661.96115 205.03764,649.47003"
     style="fill:none;stroke:#000000;stroke-width:2.10102439;stroke-linecap:butt;stroke-linejoin:miter;stroke-miterlimit:4;stroke-opacity:1;stroke-dasharray:none" /><path
     inkscape:connector-curvature="0"
     d="m 177.69774,767.42082 c 0.094,0.24728 0.18843,0.49073 0.28214,0.73616 -0.0938,-0.24541 -0.18815,-0.48888 -0.28214,-0.73616"
     style="fill:#656263;fill-opacity:1;fill-rule:nonzero;stroke:none"
     id="path5229" /><path
     inkscape:connector-curvature="0"
     d="m 159.66201,720.15061 c 0.57664,1.42657 1.15035,2.8601 1.71978,4.29696 -0.56954,-1.43779 -1.14314,-2.87039 -1.71978,-4.29696"
     style="fill:#656263;fill-opacity:1;fill-rule:nonzero;stroke:none"
     id="path5231" /><path
     inkscape:connector-curvature="0"
     d="m 161.60319,725.00861 c 0.56437,1.42618 1.12443,2.85572 1.68194,4.28745 -0.55751,-1.43173 -1.11757,-2.86127 -1.68194,-4.28745"
     style="fill:#656263;fill-opacity:1;fill-rule:nonzero;stroke:none"
     id="path5233" /><path
     inkscape:connector-curvature="0"
     d="m 132.05482,823.75848 c -0.78913,-0.41972 -1.5774,-0.85083 -2.36407,-1.28965 0.78678,0.43976 1.57482,0.86901 2.36407,1.28965"
     style="fill:#656263;fill-opacity:1;fill-rule:nonzero;stroke:none"
     id="path5235" /><path
     inkscape:connector-curvature="0"
     d="m 182.51651,779.65229 -0.008,-0.0169 -0.0325,-0.0816 0.0325,0.0816 0.008,0.0169"
     style="fill:#656263;fill-opacity:1;fill-rule:nonzero;stroke:none"
     id="path5239" /><path
     inkscape:connector-curvature="0"
     d="m 125.75683,820.18448 c -0.96048,-0.58141 -1.91845,-1.17535 -2.87319,-1.78849 0.95437,0.61319 1.91259,1.20616 2.87319,1.78849"
     style="fill:#656263;fill-opacity:1;fill-rule:nonzero;stroke:none"
     id="path5241" /><path
     inkscape:connector-curvature="0"
     id="path5243"
     d="m 351.85087,582.56366 c -9.141,-0.82852 -21.28429,17.38051 -25.23856,23.73838 -21.82001,-0.16291 -54.70196,2.14675 -76.15701,7.03781 -6.04303,-6.98747 -19.11573,-20.84369 -25.22961,-17.7408 -5.85976,2.97233 -1.34167,23.90722 1.59699,35.2644 -4.36626,15.48973 -8.3349,45.74082 -10.02643,77.52894 -7.63076,8.36169 -19.99124,22.62422 -18.52702,25.71431 1.22386,2.58217 10.33129,0.21616 17.72451,-2.19631 -0.1473,10.22004 -0.012,20.2665 0.47221,29.68281 1.18389,23.0045 3.23275,42.31616 5.63444,57.59701 -3.62381,-0.78687 -7.52779,-2.06671 -11.52043,-4.1257 -1.27556,8.29412 0.27648,17.5115 2.58675,25.5737 4.73242,-0.23313 9.05571,-0.60789 12.84447,-1.0581 2.39183,10.07559 4.85056,16.60881 6.94248,19.29824 0.76126,0.97901 4.58563,1.38318 10.62729,1.35178 2.426,6.38039 7.2354,16.78901 12.60267,16.13772 4.97052,-0.60314 8.485,-10.45631 10.35778,-17.37902 33.03596,-2.73791 83.01009,-9.52898 115.42332,-15.68579 2.90545,5.64965 6.66144,11.88291 9.2301,11.99732 2.77663,0.12305 5.59754,-8.43285 7.43638,-15.48783 8.45126,-1.9953 13.95756,-3.79964 15.07343,-5.22371 6.27413,-8.00707 -4.84548,-76.36233 -19.00404,-127.74989 7.588,0.51842 17.14521,0.43511 17.15926,-3.34044 0.0159,-4.43514 -14.78826,-14.53931 -24.2371,-19.94337 -11.13014,-33.0194 -23.87071,-55.23886 -32.07716,-66.67547 1.8768,-11.06766 4.63498,-33.56117 -3.69472,-34.31599 z m -3.39851,9.3401 c 4.02437,0.55292 1.1645,17.57585 0.41098,19.6866 -0.77785,2.17884 -12.70105,-1.57015 -13.01264,-4.1379 0,0 7.56346,-14.99993 12.18543,-15.56077 0.14444,-0.0175 0.28642,-0.006 0.41623,0.0121 z m -119.0844,11.85117 c 3.3338,0.44822 11.85206,8.3643 13.03416,10.85901 1.40111,2.9576 -6.31145,8.05685 -10.98824,6.01877 0,0 -4.44764,-13.00779 -3.28088,-16.27605 0.18231,-0.51066 0.61759,-0.68473 1.23496,-0.60173 z m 93.85976,88.54604 c 24.78877,2.09346 38.80596,13.51404 46.64296,30.05329 10.44925,22.05141 23.36003,99.95167 -46.53993,107.5701 -69.89914,7.61737 -86.36421,-56.89395 -82.98853,-78.89591 3.37649,-22.00301 15.37048,-52.04366 54.33068,-57.54822 10.82667,-1.52962 20.29191,-1.87707 28.55482,-1.17926 z M 208.5196,840.80731 c -1.34049,0.0329 -2.69538,0.0573 -4.0893,0.061 1.39545,-0.004 2.74706,-0.0274 4.0893,-0.061 z m -7.18453,0.0495 c -0.93907,-0.0127 -1.89058,-0.0293 -2.84994,-0.0573 0.95708,0.0283 1.913,0.0441 2.84994,0.0573 z m -4.88568,-0.13585 c -0.88409,-0.036 -1.7691,-0.0803 -2.6683,-0.13028 0.8993,0.0498 1.78423,0.0946 2.6683,0.13028 z m -4.78772,-0.25961 c -1.11024,-0.0749 -2.23042,-0.1547 -3.36097,-0.25281 1.13444,0.0983 2.2467,0.17733 3.36097,0.25281 z"
     style="fill:#fbbf58;fill-opacity:1;fill-rule:nonzero;stroke:none" /><path
     inkscape:connector-curvature="0"
     d="m 181.08074,776.09124 c 0.11383,0.2872 0.22912,0.57797 0.34367,0.86319 -0.11455,-0.28522 -0.22984,-0.57599 -0.34367,-0.86319"
     style="fill:#656263;fill-opacity:1;fill-rule:nonzero;stroke:none"
     id="path5247" /><path
     inkscape:connector-curvature="0"
     d="m 179.93307,773.1913 c 0.1292,0.3286 0.2575,0.65731 0.38644,0.98311 -0.12889,-0.32581 -0.25719,-0.65452 -0.38644,-0.98311"
     style="fill:#656263;fill-opacity:1;fill-rule:nonzero;stroke:none"
     id="path5249" /><path
     inkscape:connector-curvature="0"
     d="m 178.81724,770.32889 c 0.11935,0.3091 0.23838,0.6154 0.35839,0.92255 -0.12008,-0.30713 -0.23901,-0.61346 -0.35839,-0.92255"
     style="fill:#656263;fill-opacity:1;fill-rule:nonzero;stroke:none"
     id="path5251" /><path
     inkscape:connector-curvature="0"
     d="m 128.80543,821.97049 c -0.72345,-0.4117 -1.4449,-0.83397 -2.16562,-1.26199 0.72084,0.42895 1.44246,0.85026 2.16562,1.26199"
     style="fill:#656263;fill-opacity:1;fill-rule:nonzero;stroke:none"
     id="path5253" /><path
     inkscape:connector-curvature="0"
     d="m 149.84716,697.59704 c 0.61814,1.29644 1.23335,2.60923 1.84469,3.94037 -0.61134,-1.33114 -1.22655,-2.64393 -1.84469,-3.94037"
     style="fill:#656263;fill-opacity:1;fill-rule:nonzero;stroke:none"
     id="path5255" /><path
     inkscape:connector-curvature="0"
     d="m 147.66773,693.12915 c 0.63568,1.26892 1.26679,2.56378 1.89507,3.87406 -0.62828,-1.31028 -1.25939,-2.60514 -1.89507,-3.87406"
     style="fill:#656263;fill-opacity:1;fill-rule:nonzero;stroke:none"
     id="path5257" /><path
     inkscape:connector-curvature="0"
     d="m 155.84681,710.94944 c 1.20721,2.8325 2.40013,5.71003 3.57894,8.61841 -1.17881,-2.90838 -2.37173,-5.78591 -3.57894,-8.61841"
     style="fill:#656263;fill-opacity:1;fill-rule:nonzero;stroke:none"
     id="path5259" /><path
     inkscape:connector-curvature="0"
     d="m 153.78378,706.18805 c 0.60337,1.36785 1.20288,2.75026 1.79909,4.14437 -0.59621,-1.39411 -1.19572,-2.77652 -1.79909,-4.14437"
     style="fill:#656263;fill-opacity:1;fill-rule:nonzero;stroke:none"
     id="path5261" /><path
     inkscape:connector-curvature="0"
     d="m 151.83054,701.84321 c 0.59782,1.30644 1.19279,2.62827 1.78388,3.96468 -0.59109,-1.33641 -1.18606,-2.65824 -1.78388,-3.96468"
     style="fill:#656263;fill-opacity:1;fill-rule:nonzero;stroke:none"
     id="path5263" /><path
     inkscape:connector-curvature="0"
     d="m 323.07282,829.75971 c 69.89996,-7.61842 56.9929,-85.51357 46.54365,-107.56498 -10.44935,-22.05235 -31.88557,-34.99806 -75.19227,-28.87954 -38.9602,5.50455 -50.96285,35.5498 -54.33934,57.55282 -3.37567,22.00195 13.08881,86.50909 82.98796,78.8917"
     style="fill:#ffffff;fill-opacity:1;fill-rule:nonzero;stroke:none"
     id="path5265" /><path
     inkscape:connector-curvature="0"
     d="m 268.92528,661.22945 c 3.82847,-0.46456 6.55635,-3.94482 6.09167,-7.77422 -0.46467,-3.82938 -3.94574,-6.55624 -7.77421,-6.09168 -3.82939,0.46468 -6.55728,3.94495 -6.0926,7.77434 0.46467,3.82938 3.94575,6.55624 7.77514,6.09156"
     style="fill:#393536;fill-opacity:1;fill-rule:nonzero;stroke:none"
     id="path5267" /><path
     inkscape:connector-curvature="0"
     d="m 329.78302,653.84474 c 3.8294,-0.46466 6.55636,-3.94483 6.09168,-7.77421 -0.46467,-3.8294 -3.94483,-6.55637 -7.77422,-6.09168 -3.82939,0.46466 -6.55635,3.94482 -6.09168,7.77421 0.46467,3.82939 3.94483,6.55636 7.77422,6.09168"
     style="fill:#393536;fill-opacity:1;fill-rule:nonzero;stroke:none"
     id="path5269" /><path
     inkscape:connector-curvature="0"
     d="m 285.95653,664.97407 c 0.40162,5.64307 9.07959,11.06635 15.16248,10.32822 7.70328,-0.93473 12.53473,-6.21103 11.78693,-12.37365 -0.74779,-6.16261 -19.79662,-8.54212 -25.30574,-2.40099 l -0.16693,0.20556 c -1.143,1.36341 -1.57813,2.80835 -1.47674,4.24086"
     style="fill:#393536;fill-opacity:1;fill-rule:nonzero;stroke:none"
     id="path5271" /><path
     inkscape:connector-curvature="0"
     d="m 348.60887,611.43366 c 0.77783,-2.17884 3.79448,-20.2637 -0.82749,-19.70285 -4.62197,0.56085 -12.18417,15.54948 -12.18417,15.54948 0.31159,2.56776 12.23381,6.33221 13.01166,4.15337"
     style="fill:#ffd42a;fill-opacity:1;fill-rule:nonzero;stroke:none"
     id="path5273" /><path
     inkscape:connector-curvature="0"
     d="m 242.14291,614.45055 c -1.40101,-2.95667 -13.10623,-13.52193 -14.273,-10.25367 -1.16676,3.26826 3.27811,16.27879 3.27811,16.27879 4.67678,2.03807 12.396,-3.06752 10.99489,-6.02512"
     style="fill:#ffcc00;fill-opacity:1;fill-rule:nonzero;stroke:none"
     id="path5275" /><path
     inkscape:connector-curvature="0"
     d="m 122.88364,818.39599 c 0.95474,0.61314 1.91271,1.20708 2.87319,1.78849 0.29378,0.17693 0.58877,0.34902 0.88298,0.52402 0.72072,0.42802 1.44217,0.85029 2.16562,1.26199 0.2948,0.1674 0.59002,0.33288 0.88532,0.49834 0.78667,0.43882 1.57494,0.86993 2.36407,1.28965 0.20105,0.10635 0.40167,0.21558 0.60258,0.321 5.32745,2.79723 10.70653,5.16114 16.075,7.14914 6.82023,-17.1552 18.73944,-39.71697 35.94976,-46.6515 l 0.005,-0.003 c -0.74242,-1.57579 -1.46901,-3.2071 -2.17005,-4.92243 l -0.008,-0.0169 -0.0325,-0.0816 c -0.34902,-0.85312 -0.69985,-1.72109 -1.05192,-2.59925 -0.11456,-0.28523 -0.22984,-0.576 -0.34367,-0.86321 -0.25384,-0.63422 -0.50701,-1.27136 -0.76123,-1.91682 -0.12888,-0.32581 -0.25719,-0.65453 -0.38644,-0.98311 -0.25195,-0.64199 -0.50428,-1.28769 -0.75744,-1.93987 -0.12008,-0.30713 -0.23901,-0.61345 -0.3584,-0.92255 -0.27807,-0.71782 -0.5569,-1.44214 -0.83734,-2.17191 -0.0937,-0.24543 -0.18815,-0.48888 -0.28214,-0.73615 -1.57899,-4.12122 -3.19004,-8.41351 -4.83649,-12.81157 -14.67399,9.28407 -43.67538,28.96055 -55.86851,59.64599 1.86292,1.4116 3.77702,2.78123 5.78181,4.07121 l 0.032,0.0215 0.0771,0.0479"
     style="fill:#fbbf58;fill-opacity:1;fill-rule:nonzero;stroke:none"
     id="path5277" /><path
     inkscape:connector-curvature="0"
     d="m 78.835951,746.86632 c 1.750545,11.83715 5.339444,23.57258 10.875156,34.44812 17.146613,-19.68656 47.963043,-50.52573 73.616363,-51.90971 v 0 l -0.0424,-0.10867 c -0.55751,-1.43172 -1.11757,-2.86127 -1.68194,-4.28745 -0.0734,-0.18676 -0.14693,-0.37348 -0.22138,-0.56104 -0.56942,-1.43686 -1.14314,-2.87039 -1.71979,-4.29697 -0.0782,-0.19464 -0.15718,-0.38822 -0.23625,-0.58275 -1.17881,-2.90838 -2.37173,-5.78591 -3.57894,-8.61842 -0.088,-0.20567 -0.17504,-0.41145 -0.26392,-0.61702 -0.5962,-1.39411 -1.1957,-2.77652 -1.79908,-4.14436 -0.0569,-0.12763 -0.11347,-0.25339 -0.16935,-0.38017 -0.59109,-1.33641 -1.18606,-2.65824 -1.78387,-3.96469 -0.0462,-0.10162 -0.0925,-0.20416 -0.13875,-0.30579 -0.61133,-1.33113 -1.22654,-2.64392 -1.84468,-3.94036 -0.0948,-0.1992 -0.18964,-0.3965 -0.28437,-0.59384 -0.62827,-1.31027 -1.25938,-2.60513 -1.89506,-3.87405 l -0.002,-0.006 c -18.95019,2.87045 -49.303998,12.98292 -68.828964,53.74246"
     style="fill:#fbbf58;fill-opacity:1;fill-rule:nonzero;stroke:none"
     id="path5279" /><path
     inkscape:connector-curvature="0"
     d="m 189.2756,840.1448 0.16165,0.0139 c 9.04445,0.78471 17.46241,0.80174 24.87061,0.4352 -2.31024,-8.0622 -3.86063,-17.29643 -2.58509,-25.59056 l 0.003,-0.0163 c -5.24897,-2.70703 -10.64161,-6.71447 -15.73914,-12.61548 l -0.001,0.003 c -3.91578,7.27973 -10.24602,22.59954 -10.55373,37.38891 1.29369,0.14214 2.57504,0.2679 3.84534,0.37995"
     style="fill:#fbbf58;fill-opacity:1;fill-rule:nonzero;stroke:none"
     id="path5281" /><path
     inkscape:connector-curvature="0"
     id="path5283"
     d="m 347.23707,652.11471 40.66221,-15.28769"
     style="fill:#ffffff;fill-opacity:1;stroke:#ffffff;stroke-width:3;stroke-linecap:butt;stroke-linejoin:miter;stroke-miterlimit:4;stroke-opacity:1;stroke-dasharray:none" /><path
     inkscape:connector-curvature="0"
     id="path5285"
     d="m 347.96901,656.55371 45.56647,-8.31804"
     style="fill:#656263;fill-opacity:1;stroke:#ffffff;stroke-width:3;stroke-linecap:butt;stroke-linejoin:miter;stroke-miterlimit:4;stroke-opacity:1;stroke-dasharray:none" /><path
     inkscape:connector-curvature="0"
     id="path5287"
     d="m 350.38482,662.10204 42.5751,-1.74758"
     style="fill:#ffffff;fill-opacity:1;stroke:#ffffff;stroke-width:3;stroke-linecap:butt;stroke-linejoin:miter;stroke-miterlimit:4;stroke-opacity:1;stroke-dasharray:none" /><path
     style="fill:#656263;fill-opacity:1;stroke:#ffffff;stroke-width:3;stroke-linecap:butt;stroke-linejoin:miter;stroke-miterlimit:4;stroke-opacity:1;stroke-dasharray:none"
     d="m 245.42884,672.42702 -43.43145,0.91574"
     id="path5289"
     inkscape:connector-curvature="0" /><path
     style="fill:#656263;fill-opacity:1;stroke:#ffffff;stroke-width:3;stroke-linecap:butt;stroke-linejoin:miter;stroke-miterlimit:4;stroke-opacity:1;stroke-dasharray:none"
     d="m 246.21266,667.99688 -45.74267,-7.28706"
     id="path5291"
     inkscape:connector-curvature="0" /><path
     style="fill:#656263;fill-opacity:1;stroke:#ffffff;stroke-width:3;stroke-linecap:butt;stroke-linejoin:miter;stroke-miterlimit:4;stroke-opacity:1;stroke-dasharray:none"
     d="M 245.77661,661.96115 205.03764,649.47003"
     id="path5293"
     inkscape:connector-curvature="0" /><text
     xml:space="preserve"
     style="font-size:73.38443996999998800px;font-style:normal;font-variant:normal;font-weight:normal;font-stretch:normal;text-align:start;line-height:125%;letter-spacing:0px;word-spacing:0px;writing-mode:lr;text-anchor:start;fill:#656263;fill-opacity:1;stroke:none;font-family:FZCuQian-M17S;-inkscape-font-specification:FZCuQian-M17S"
     x="1082.1733"
     y="362.76404"
     id="text6544"
     sodipodi:linespacing="125%"><tspan
       sodipodi:role="line"
       id="tspan6546"
       x="1082.1733"
       y="362.76404"></tspan></text>
<path
     id="path6614"
     style="fill:#ffd42a;fill-opacity:1;fill-rule:nonzero;stroke:none"
     d="m 321.66792,198.85887 c 1.90337,-2.0734 14.0487,-21.19168 8.86247,-23.1116 -5.18624,-1.91989 -20.62854,11.11633 -20.62854,11.11633 -0.93858,3.12506 9.86268,14.06866 11.76607,11.99527"
     inkscape:connector-curvature="0"
     inkscape:transform-center-x="-11.806104"
     inkscape:transform-center-y="10.158033" /><path
     inkscape:transform-center-y="-2.328202"
     inkscape:transform-center-x="15.180409"
     inkscape:connector-curvature="0"
     d="m 193.49917,156.17137 c -0.15635,-2.81022 2.58073,-25.29413 7.80795,-23.48883 5.22723,1.80531 8.89682,21.67848 8.89682,21.67848 -1.25659,3.01129 -16.54842,4.62058 -16.70478,1.81034"
     style="fill:#ffd42a;fill-opacity:1;fill-rule:nonzero;stroke:none"
     id="path6616" /></svg>