<?xml version="1.0" encoding="UTF-8" standalone="no"?>
<svg
   xmlns:dc="http://purl.org/dc/elements/1.1/"
   xmlns:cc="http://creativecommons.org/ns#"
   xmlns:rdf="http://www.w3.org/1999/02/22-rdf-syntax-ns#"
   xmlns:svg="http://www.w3.org/2000/svg"
   xmlns="http://www.w3.org/2000/svg"
   xmlns:sodipodi="http://sodipodi.sourceforge.net/DTD/sodipodi-0.dtd"
   xmlns:inkscape="http://www.inkscape.org/namespaces/inkscape"
   viewBox="0 0 50.000002 56.318001"
   height="56.318001"
   width="50"
   xml:space="preserve"
   id="svg2"
   version="1.1"
   inkscape:version="0.91 r13725"
   sodipodi:docname="comment.svg"><sodipodi:namedview
     pagecolor="#ffffff"
     bordercolor="#666666"
     borderopacity="1"
     objecttolerance="10"
     gridtolerance="10"
     guidetolerance="10"
     inkscape:pageopacity="0"
     inkscape:pageshadow="2"
     inkscape:window-width="1366"
     inkscape:window-height="666"
     id="namedview4701"
     showgrid="false"
     inkscape:zoom="2.5673415"
     inkscape:cx="76.103256"
     inkscape:cy="25.629473"
     inkscape:window-x="0"
     inkscape:window-y="0"
     inkscape:window-maximized="1"
     inkscape:current-layer="svg2" /><metadata
     id="metadata8"><rdf:RDF><cc:Work
         rdf:about=""><dc:format>image/svg+xml</dc:format><dc:type
           rdf:resource="http://purl.org/dc/dcmitype/StillImage" /><dc:title></dc:title></cc:Work></rdf:RDF></metadata><defs
     id="defs6" /><g
     id="g5414"><path
       inkscape:connector-curvature="0"
       d="M 6.6219113,33.901702 3.0822249,44.520577 12.709944,37.803389 c 3.629623,1.659413 7.822623,2.607617 12.290205,2.607617 C 38.807206,40.411006 50,31.364679 50,20.20535 50,9.0462493 38.807206,-7.7560037e-5 25.000149,-7.7560037e-5 11.192862,-7.7560037e-5 3.3356121e-7,9.0462493 3.3356121e-7,20.20535 3.3356121e-7,25.490491 2.5118122,30.300958 6.6219113,33.901702"
       style="fill:#de5233;fill-opacity:1;fill-rule:nonzero;stroke:none"
       id="path22" /><path
       inkscape:connector-curvature="0"
       d="m 2.7656303,53.190098 c 0,1.727486 9.9546277,3.127904 22.2345187,3.127904 12.279664,0 22.234313,-1.400418 22.234313,-3.127904 0,-1.727716 -9.954649,-3.128134 -22.234313,-3.128134 -12.279891,0 -22.2345187,1.400418 -22.2345187,3.128134"
       style="fill:#565656;fill-opacity:1;fill-rule:nonzero;stroke:none"
       id="path70" /><g
       id="text5385"
       style="font-style:italic;font-variant:normal;font-weight:bold;font-stretch:normal;font-size:16.40498734px;line-height:125%;font-family:Sans;-inkscape-font-specification:'Sans, Bold Italic';text-align:start;letter-spacing:0px;word-spacing:0px;writing-mode:lr-tb;text-anchor:start;fill:#ffffff;fill-opacity:1;stroke:none;stroke-width:1px;stroke-linecap:butt;stroke-linejoin:miter;stroke-opacity:1"><path
         id="path5390"
         style="fill:#ffffff;fill-opacity:1"
         d="m 18.335473,21.42624 -0.09612,0.456584 -6.712587,0 q 0,0.04806 -0.008,0.144184 -0.008,0.08811 -0.008,0.136175 0,0.873117 0.520666,1.30567 0.528677,0.432553 1.578019,0.432553 0.905158,0 1.906439,-0.272348 1.009291,-0.272348 2.114706,-0.809035 l -0.440564,2.226849 q -1.049343,0.384492 -2.090675,0.568727 -1.033322,0.192246 -2.106695,0.192246 -2.098685,0 -3.2441502,-0.96924 -1.1374552,-0.96924 -1.1374552,-2.739504 0,-1.025312 0.3604612,-1.986542 0.3684714,-0.96924 1.0653632,-1.770265 0.825055,-0.961229 1.970521,-1.457865 1.153475,-0.496635 2.555269,-0.496635 1.818326,0 2.883689,0.96924 1.073373,0.96924 1.073373,2.611341 0,0.32041 -0.04806,0.680871 -0.04005,0.352451 -0.136175,0.776994 z M 15.62801,20.112559 q 0.02403,-0.104133 0.03204,-0.208266 0.01602,-0.112144 0.01602,-0.216277 0,-0.64082 -0.384492,-1.017301 -0.384492,-0.376482 -1.041332,-0.376482 -0.841076,0 -1.433834,0.464594 -0.584748,0.456584 -0.897148,1.353732 l 3.708745,0 z"
         inkscape:connector-curvature="0" /><path
         id="path5392"
         style="fill:#ffffff;fill-opacity:1"
         d="m 20.498241,22.475582 2.883689,0 -0.600769,3.099966 -2.891699,0 0.608779,-3.099966 z"
         inkscape:connector-curvature="0" /><path
         id="path5394"
         style="fill:#ffffff;fill-opacity:1"
         d="m 32.241263,24.053601 q -0.688881,0.785004 -1.401793,1.153476 -0.712912,0.368471 -1.553988,0.368471 -1.521947,0 -2.411085,-0.97725 -0.881127,-0.985261 -0.881127,-2.683433 0,-0.905158 0.304389,-1.810316 0.3124,-0.913168 0.889138,-1.714193 0.704902,-0.96924 1.61807,-1.473886 0.913168,-0.512655 1.96251,-0.512655 0.94521,0 1.586029,0.368471 0.648831,0.368471 1.089394,1.161486 l 0.240308,-1.329701 2.891699,0 -1.513937,7.793971 q -0.464594,2.411084 -1.986541,3.56456 -1.521947,1.153476 -4.229411,1.153476 -0.833066,0 -1.61006,-0.128164 -0.768984,-0.128164 -1.521947,-0.392502 l 0.424543,-2.23486 q 0.680871,0.432554 1.361742,0.64082 0.680871,0.216277 1.393783,0.216277 1.425825,0 2.186798,-0.608779 0.768984,-0.608779 1.033322,-1.93848 l 0.128164,-0.616789 z m -0.801025,-5.583143 q -1.057352,0 -1.762254,0.95322 -0.696892,0.953219 -0.696892,2.395064 0,0.817045 0.376482,1.249599 0.376481,0.424543 1.097404,0.424543 1.049342,0 1.754244,-0.945209 0.704902,-0.95322 0.704902,-2.371034 0,-0.833066 -0.376482,-1.265619 -0.376481,-0.440564 -1.097404,-0.440564 z"
         inkscape:connector-curvature="0" /><path
         id="path5396"
         style="fill:#ffffff;fill-opacity:1"
         d="m 38.505278,22.475582 2.883689,0 -0.600769,3.099966 -2.891699,0 0.608779,-3.099966 z"
         inkscape:connector-curvature="0" /></g></g></svg>