<?xml version="1.0" encoding="UTF-8" standalone="no"?>
<svg
   xmlns:dc="http://purl.org/dc/elements/1.1/"
   xmlns:cc="http://creativecommons.org/ns#"
   xmlns:rdf="http://www.w3.org/1999/02/22-rdf-syntax-ns#"
   xmlns:svg="http://www.w3.org/2000/svg"
   xmlns="http://www.w3.org/2000/svg"
   xmlns:sodipodi="http://sodipodi.sourceforge.net/DTD/sodipodi-0.dtd"
   xmlns:inkscape="http://www.inkscape.org/namespaces/inkscape"
   viewBox="0 0 200 100"
   height="100"
   width="200"
   xml:space="preserve"
   version="1.1"
   id="svg2"
   inkscape:version="0.48.0 r9654"
   sodipodi:docname="present.svg"><sodipodi:namedview
     pagecolor="#ffffff"
     bordercolor="#666666"
     borderopacity="1"
     objecttolerance="10"
     gridtolerance="10"
     guidetolerance="10"
     inkscape:pageopacity="0"
     inkscape:pageshadow="2"
     inkscape:window-width="1680"
     inkscape:window-height="975"
     id="namedview7678"
     showgrid="false"
     inkscape:zoom="1.3870313"
     inkscape:cx="312.75395"
     inkscape:cy="219.32415"
     inkscape:window-x="-9"
     inkscape:window-y="-9"
     inkscape:window-maximized="1"
     inkscape:current-layer="svg2" /><metadata
     id="metadata8"><rdf:RDF><cc:Work
         rdf:about=""><dc:format>image/svg+xml</dc:format><dc:type
           rdf:resource="http://purl.org/dc/dcmitype/StillImage" /><dc:title></dc:title></cc:Work></rdf:RDF></metadata><defs
     id="defs6" /><g
     id="g7997"
     transform="matrix(0.34210451,0,0,0.34210451,-11.330627,9.7698371)"><path
       inkscape:connector-curvature="0"
       d="m 527.9655,139.09504 c -0.9425,0 -1.7025,-0.76363 -1.7025,-1.7065 0,-0.93987 0.76,-1.70363 1.7025,-1.70363 0.9425,0 1.705,0.76376 1.705,1.70363 0,0.94287 -0.7625,1.7065 -1.705,1.7065 z m -4.15625,14.75637 c -0.9425,0 -1.70375,-0.76362 -1.70375,-1.7065 0,-0.94 0.76125,-1.70362 1.70375,-1.70362 0.9425,0 1.705,0.76362 1.705,1.70362 0,0.94288 -0.7625,1.7065 -1.705,1.7065 z M 519.443,142.50379 c -0.94125,0 -1.705,-0.76363 -1.705,-1.70363 0,-0.93987 0.76375,-1.70512 1.705,-1.70512 0.9425,0 1.705,0.76525 1.705,1.70512 0,0.94 -0.7625,1.70363 -1.705,1.70363 z m -2.44875,-18.43012 c 0,-0.94238 0.76125,-1.70363 1.70375,-1.70363 0.9425,0 1.705,0.76125 1.705,1.70363 0,0.93987 -0.7625,1.70399 -1.705,1.70399 -0.9425,0 -1.70375,-0.76412 -1.70375,-1.70399 z m -2.1325,31.47899 c -0.94125,0 -1.70375,-0.76125 -1.70375,-1.70125 0,-0.94287 0.7625,-1.7065 1.70375,-1.7065 0.9425,0 1.70625,0.76363 1.70625,1.7065 0,0.94 -0.76375,1.70125 -1.70625,1.70125 z M 511.453,133.70491 c -0.9425,0 -1.705,-0.76362 -1.705,-1.70362 0,-0.93988 0.7625,-1.705 1.705,-1.705 0.9425,0 1.705,0.76512 1.705,1.705 0,0.94 -0.7625,1.70362 -1.705,1.70362 z m 23.21625,-17.44137 -31.68125,0 0,25.31787 c 0,10.10501 7.325,22.30863 16.42,22.30863 9.09625,0 16.42,-12.20363 16.42,-22.30863 l 0,-22.8325 -1.15875,-2.48537"
       style="fill:#fbda4c;fill-opacity:1;fill-rule:nonzero;stroke:none"
       id="path54" /><path
       inkscape:connector-curvature="0"
       d="m 502.10425,114.64729 0,-19.819751 34.6075,0 0,4.615 -6.98875,3.258751 5.57125,11.946 -33.19,0"
       style="fill:#a2e0e9;fill-opacity:1;fill-rule:nonzero;stroke:none"
       id="path56" /><path
       inkscape:connector-curvature="0"
       d="m 534.6955,112.49379 -0.36625,0.0825 -4.60625,-9.87625 6.98875,-3.257501 0,0.405 24.8625,-11.595 8.37875,17.963751 -31.365,14.62638 -3.8925,-8.34888"
       style="fill:#a2e0e9;fill-opacity:1;fill-rule:nonzero;stroke:none"
       id="path58" /><path
       inkscape:connector-curvature="0"
       d="m 574.82675,147.19867 c -0.85625,0.39737 -1.8675,0.0287 -2.265,-0.82475 -0.39875,-0.85501 -0.0325,-1.86526 0.8225,-2.26663 0.85375,-0.3945 1.87,-0.0259 2.265,0.82525 0.39875,0.8525 0.0325,1.86862 -0.8225,2.26613 z M 570.093,131.24354 c -0.395,-0.85113 -0.0288,-1.86725 0.8225,-2.26463 0.855,-0.399 1.8675,-0.0279 2.26625,0.82463 0.3975,0.85163 0.0288,1.86775 -0.825,2.26525 -0.8525,0.39888 -1.86625,0.0272 -2.26375,-0.82525 z m -2.65625,21.28025 c -0.8525,0.39987 -1.865,0.0289 -2.26375,-0.82375 -0.3975,-0.854 -0.0288,-1.86763 0.82375,-2.26513 0.85375,-0.39987 1.87,-0.0298 2.2675,0.82275 0.39625,0.85263 0.0275,1.86725 -0.8275,2.26613 z m -3.6275,-14.58737 c -0.39875,-0.85251 -0.03,-1.86763 0.8225,-2.26663 0.85625,-0.3975 1.87,-0.0259 2.265,0.82525 0.39875,0.8525 0.0325,1.86612 -0.8225,2.26613 -0.85375,0.39737 -1.8675,0.0264 -2.265,-0.82475 z m -5.48125,-14.019 c -0.8525,0.39737 -1.865,0.0264 -2.26375,-0.82475 -0.3975,-0.85501 -0.0288,-1.86763 0.82375,-2.26663 0.85375,-0.3975 1.87,-0.0283 2.2675,0.82525 0.3975,0.8525 0.0288,1.86862 -0.8275,2.26613 z m -3.215,10.24649 c -0.8525,0.3975 -1.8675,0.0274 -2.26625,-0.82512 -0.3975,-0.85263 -0.0263,-1.86775 0.825,-2.26613 0.855,-0.39987 1.87,-0.0289 2.26875,0.82613 0.3975,0.85112 0.0263,1.86475 -0.8275,2.26512 z m 25.42,-3.164 -10.69875,-22.94487 -29.76375,13.8775 10.7,22.94375 c 3.66375,7.8575 12.52375,14.24862 19.75125,14.24862 1.64875,0 3.18375,-0.32475 4.5575,-0.96737 8.245,-3.84513 9.725,-18.00238 5.45375,-27.15763"
       style="fill:#f14459;fill-opacity:1;fill-rule:nonzero;stroke:none"
       id="path60" /><path
       inkscape:connector-curvature="0"
       d="m 515.213,72.540039 c -0.6275,1.06 -1.52625,2.075 -2.775,2.845 1.04375,0.63 2.05375,1.535 2.8125,2.7925 0.615,-1.07875 1.47125,-2.13125 2.61875,-2.925 -0.985,-0.605 -1.93375,-1.48375 -2.65625,-2.7125"
       style="fill:#fac508;fill-opacity:1;fill-rule:nonzero;stroke:none"
       id="path62" /><path
       inkscape:connector-curvature="0"
       d="m 529.83925,51.881289 c -0.6275,1.06 -1.52625,2.0775 -2.77625,2.84625 1.045,0.63 2.05625,1.53375 2.81375,2.79125 0.615,-1.08 1.47,-2.13125 2.61875,-2.925 -0.985,-0.605 -1.93375,-1.4825 -2.65625,-2.7125"
       style="fill:#fac508;fill-opacity:1;fill-rule:nonzero;stroke:none"
       id="path64" /><path
       inkscape:connector-curvature="0"
       d="m 539.75175,65.966289 c -0.62625,1.06125 -1.52625,2.08 -2.775,2.84875 1.04375,0.6275 2.05375,1.53 2.81125,2.7875 0.61625,-1.07875 1.4725,-2.13125 2.62,-2.925 -0.985,-0.6075 -1.93375,-1.48375 -2.65625,-2.71125"
       style="fill:#fac508;fill-opacity:1;fill-rule:nonzero;stroke:none"
       id="path66" /><path
       inkscape:connector-curvature="0"
       d="m 519.443,139.09504 c -0.94125,0 -1.705,0.76525 -1.705,1.70512 0,0.94 0.76375,1.70363 1.705,1.70363 0.9425,0 1.705,-0.76363 1.705,-1.70363 0,-0.93987 -0.7625,-1.70512 -1.705,-1.70512"
       style="fill:#39393a;fill-opacity:1;fill-rule:nonzero;stroke:none"
       id="path68" /><path
       inkscape:connector-curvature="0"
       d="m 514.86175,152.14491 c -0.94125,0 -1.70375,0.76363 -1.70375,1.7065 0,0.94 0.7625,1.70125 1.70375,1.70125 0.9425,0 1.70625,-0.76125 1.70625,-1.70125 0,-0.94287 -0.76375,-1.7065 -1.70625,-1.7065"
       style="fill:#39393a;fill-opacity:1;fill-rule:nonzero;stroke:none"
       id="path70" /><path
       inkscape:connector-curvature="0"
       d="m 527.9655,135.68491 c -0.9425,0 -1.7025,0.76376 -1.7025,1.70363 0,0.94287 0.76,1.7065 1.7025,1.7065 0.9425,0 1.705,-0.76363 1.705,-1.7065 0,-0.93987 -0.7625,-1.70363 -1.705,-1.70363"
       style="fill:#39393a;fill-opacity:1;fill-rule:nonzero;stroke:none"
       id="path72" /><path
       inkscape:connector-curvature="0"
       d="m 520.403,124.07367 c 0,-0.94238 -0.7625,-1.70363 -1.705,-1.70363 -0.9425,0 -1.70375,0.76125 -1.70375,1.70363 0,0.93987 0.76125,1.70399 1.70375,1.70399 0.9425,0 1.705,-0.76412 1.705,-1.70399"
       style="fill:#39393a;fill-opacity:1;fill-rule:nonzero;stroke:none"
       id="path74" /><path
       inkscape:connector-curvature="0"
       d="m 523.80925,150.44129 c -0.9425,0 -1.70375,0.76362 -1.70375,1.70362 0,0.94288 0.76125,1.7065 1.70375,1.7065 0.9425,0 1.705,-0.76362 1.705,-1.7065 0,-0.94 -0.7625,-1.70362 -1.705,-1.70362"
       style="fill:#39393a;fill-opacity:1;fill-rule:nonzero;stroke:none"
       id="path76" /><path
       inkscape:connector-curvature="0"
       d="m 511.453,130.29629 c -0.9425,0 -1.705,0.76513 -1.705,1.705 0,0.94 0.7625,1.70362 1.705,1.70362 0.9425,0 1.705,-0.76362 1.705,-1.70362 0,-0.93987 -0.7625,-1.705 -1.705,-1.705"
       style="fill:#39393a;fill-opacity:1;fill-rule:nonzero;stroke:none"
       id="path78" /><path
       inkscape:connector-curvature="0"
       d="m 566.07425,138.76117 c 0.855,-0.40001 1.22125,-1.41363 0.8225,-2.26613 -0.395,-0.85113 -1.40875,-1.22275 -2.265,-0.82525 -0.8525,0.399 -1.22125,1.41412 -0.8225,2.26663 0.3975,0.85112 1.41125,1.22212 2.265,0.82475"
       style="fill:#39393a;fill-opacity:1;fill-rule:nonzero;stroke:none"
       id="path80" /><path
       inkscape:connector-curvature="0"
       d="m 565.99675,149.43491 c -0.8525,0.3975 -1.22125,1.41113 -0.82375,2.26513 0.39875,0.85262 1.41125,1.22362 2.26375,0.82375 0.855,-0.39888 1.22375,-1.4135 0.8275,-2.26613 -0.3975,-0.8525 -1.41375,-1.22262 -2.2675,-0.82275"
       style="fill:#39393a;fill-opacity:1;fill-rule:nonzero;stroke:none"
       id="path82" /><path
       inkscape:connector-curvature="0"
       d="m 572.35675,132.06879 c 0.85375,-0.3975 1.2225,-1.41362 0.825,-2.26525 -0.39875,-0.8525 -1.41125,-1.22363 -2.26625,-0.82463 -0.85125,0.39738 -1.2175,1.4135 -0.8225,2.26463 0.3975,0.8525 1.41125,1.22413 2.26375,0.82525"
       style="fill:#39393a;fill-opacity:1;fill-rule:nonzero;stroke:none"
       id="path84" /><path
       inkscape:connector-curvature="0"
       d="m 556.888,120.82604 c -0.8525,0.399 -1.22125,1.41162 -0.82375,2.26663 0.39875,0.85112 1.41125,1.22212 2.26375,0.82475 0.85625,-0.39751 1.225,-1.41363 0.8275,-2.26613 -0.3975,-0.8535 -1.41375,-1.22275 -2.2675,-0.82525"
       style="fill:#39393a;fill-opacity:1;fill-rule:nonzero;stroke:none"
       id="path86" /><path
       inkscape:connector-curvature="0"
       d="m 572.56175,146.37392 c 0.3975,0.85349 1.40875,1.22212 2.265,0.82475 0.855,-0.39751 1.22125,-1.41363 0.8225,-2.26613 -0.395,-0.85113 -1.41125,-1.21975 -2.265,-0.82525 -0.855,0.40137 -1.22125,1.41162 -0.8225,2.26663"
       style="fill:#39393a;fill-opacity:1;fill-rule:nonzero;stroke:none"
       id="path88" /><path
       inkscape:connector-curvature="0"
       d="m 553.67175,131.07266 c -0.85125,0.39838 -1.2225,1.4135 -0.825,2.26613 0.39875,0.8525 1.41375,1.22263 2.26625,0.82512 0.85375,-0.40037 1.225,-1.414 0.8275,-2.26512 -0.39875,-0.855 -1.41375,-1.226 -2.26875,-0.82613"
       style="fill:#39393a;fill-opacity:1;fill-rule:nonzero;stroke:none"
       id="path90" /><path
       inkscape:connector-curvature="0"
       d="m 502.988,95.711289 32.84,0 0,2.76375 -0.36625,0.17125 -6.2675,2.922501 c -0.3,0.13875 -0.5325,0.3925 -0.645,0.705 -0.11375,0.31 -0.0987,0.655 0.0412,0.955 l 4.74125,10.1685 0.17125,0.36625 -30.515,0 0,-18.052251 z m 58.16125,-6.28375 7.62875,16.362501 -29.7625,13.87738 -7.63125,-16.36238 29.765,-13.877501 z M 535.828,141.58141 c 0,10.10501 -7.32375,22.30863 -16.42,22.30863 -9.095,0 -16.42,-12.20363 -16.42,-22.30863 l 0,-25.31787 31.68125,0 1.15875,2.48537 0,22.8325 z m 14.9425,3.29488 -10.7,-22.94375 29.76375,-13.8775 10.69875,22.94487 c 4.27125,9.15526 2.79125,23.3125 -5.45375,27.15763 -1.37375,0.64262 -2.90875,0.96737 -4.5575,0.96737 -7.2275,0 -16.0875,-6.39112 -19.75125,-14.24862 z m 49.9575,28.15725 c -0.2925,-0.625 -1.035,-0.8935 -1.66125,-0.6035 l -13.1025,6.10887 -8.73625,-18.73537 c 8.53125,-5.10975 10.12875,-20.08738 5.57,-29.86125 L 562.8855,87.237539 c -0.14,-0.3 -0.39375,-0.5325 -0.705,-0.64625 -0.31,-0.1125 -0.655,-0.0987 -0.95625,0.0413 l -22.89625,10.6775 0,-2.84875 c 0,-0.69 -0.56,-1.25 -1.25,-1.25 l -35.34,0 c -0.69,0 -1.25,0.56 -1.25,1.25 l 0,47.120121 c 0,10.78713 7.7775,23.71488 17.67,24.73738 l 0,20.6425 -14.455,0 c -0.69125,0 -1.25,0.56012 -1.25,1.25 0,0.69138 0.55875,1.25 1.25,1.25 l 31.4125,0 c 0.69,0 1.25,-0.55862 1.25,-1.25 0,-0.68988 -0.56,-1.25 -1.25,-1.25 l -14.4575,0 0,-20.6425 c 9.8925,-1.0225 17.67,-13.95025 17.67,-24.73738 l 0,-17.47112 10.1775,21.82362 c 4.10125,8.79838 13.7725,15.691 22.01625,15.691 1.57125,0 3.06125,-0.25099 4.4525,-0.73737 l 8.725,18.7085 -13.1025,6.10887 c -0.625,0.2925 -0.895,1.03525 -0.60375,1.66263 0.2125,0.45363 0.6625,0.72025 1.13375,0.72025 0.1775,0 0.35625,-0.0366 0.5275,-0.11775 L 600.123,174.69621 c 0.625,-0.2925 0.89625,-1.03462 0.605,-1.66262"
       style="fill:#39393a;fill-opacity:1;fill-rule:nonzero;stroke:none"
       id="path92" /><path
       inkscape:connector-curvature="0"
       d="m 515.213,72.540039 c 0.7225,1.22875 1.67125,2.1075 2.65625,2.7125 -1.1475,0.79375 -2.00375,1.84625 -2.61875,2.925 -0.75875,-1.2575 -1.76875,-2.1625 -2.8125,-2.7925 1.24875,-0.77 2.1475,-1.785 2.775,-2.845 z m -6.6825,4.11125 c 0.19625,0.015 4.81875,0.4225 5.4475,5.46375 0.0775,0.62375 0.605,1.0925 1.2325,1.09375 0.002,0 0.006,0 0.009,0 0.62375,0 1.1525,-0.45875 1.2375,-1.07875 0.007,-0.0513 0.77,-5.1975 5.26375,-5.715 0.65,-0.0763 1.13125,-0.6375 1.10625,-1.29125 -0.025,-0.6525 -0.55,-1.1775 -1.20375,-1.19875 -0.18875,-0.007 -4.6325,-0.235 -5.16,-5.655 -0.0625,-0.64125 -0.6025,-1.125 -1.24375,-1.125 -0.0113,0 -0.0225,0 -0.0337,0 -0.65625,0.0175 -1.18625,0.54125 -1.215,1.19875 -0.01,0.2075 -0.285,5.11 -5.52,5.8225 -0.63375,0.085 -1.0975,0.6375 -1.07875,1.2775 0.02,0.63625 0.52125,1.15875 1.15875,1.2075"
       style="fill:#39393a;fill-opacity:1;fill-rule:nonzero;stroke:none"
       id="path94" /><path
       inkscape:connector-curvature="0"
       d="m 529.83925,51.881289 c 0.7225,1.23 1.67125,2.1075 2.65625,2.7125 -1.14875,0.79375 -2.00375,1.845 -2.61875,2.925 -0.7575,-1.2575 -1.76875,-2.16125 -2.81375,-2.79125 1.25,-0.76875 2.14875,-1.78625 2.77625,-2.84625 z m -6.68375,4.11375 c 0.19625,0.0175 4.8225,0.4225 5.45125,5.45625 0.0775,0.6225 0.60125,1.08625 1.2275,1.09375 0.004,0 0.009,0 0.0125,0 0.62,0 1.14875,-0.45875 1.2375,-1.07375 0.03,-0.21 0.80375,-5.2 5.2625,-5.715 0.65,-0.0738 1.13125,-0.6375 1.10625,-1.29 -0.025,-0.65375 -0.55,-1.17625 -1.20375,-1.20125 -0.18875,-0.006 -4.6325,-0.23125 -5.15875,-5.65125 -0.0637,-0.655 -0.59125,-1.1275 -1.2825,-1.13 -0.65875,0.0213 -1.1875,0.54875 -1.21125,1.205 -0.007,0.21 -0.2375,5.1025 -5.5225,5.82125 -0.63375,0.0875 -1.0975,0.63625 -1.07875,1.27625 0.02,0.64 0.52125,1.1625 1.16,1.20875"
       style="fill:#39393a;fill-opacity:1;fill-rule:nonzero;stroke:none"
       id="path96" /><path
       inkscape:connector-curvature="0"
       d="m 539.75175,65.966289 c 0.7225,1.2275 1.67125,2.10375 2.65625,2.71125 -1.1475,0.79375 -2.00375,1.84625 -2.62,2.925 -0.7575,-1.2575 -1.7675,-2.16 -2.81125,-2.7875 1.24875,-0.76875 2.14875,-1.7875 2.775,-2.84875 z m -6.7625,1.63 c -0.635,0.0888 -1.1025,0.6425 -1.08,1.285 0.0225,0.64125 0.5275,1.16125 1.1675,1.2025 0.19625,0.0125 4.80625,0.37125 5.44,5.455 0.0775,0.62 0.6025,1.08625 1.22875,1.09375 0.004,0 0.009,0 0.0125,0 0.62,0 1.1475,-0.45875 1.2375,-1.075 0.03,-0.2125 0.80375,-5.205 5.26625,-5.72 0.65,-0.0725 1.13125,-0.6375 1.105,-1.28875 -0.025,-0.65375 -0.55,-1.17625 -1.2025,-1.20125 -0.18875,-0.007 -4.6375,-0.2325 -5.1625,-5.65125 -0.0637,-0.655 -0.59625,-1.11875 -1.2775,-1.12625 -0.65625,0.0175 -1.1875,0.5425 -1.21625,1.19625 -0.009,0.21 -0.28625,5.12 -5.51875,5.83"
       style="fill:#39393a;fill-opacity:1;fill-rule:nonzero;stroke:none"
       id="path98" /></g><g
     id="g8070"
     transform="matrix(0.34210451,0,0,0.34210451,-11.330627,9.7696971)"><g
       id="g8022"><path
         id="path104"
         style="fill:#ffffff;fill-opacity:1;fill-rule:nonzero;stroke:none"
         d="m 315.157,131.34754 0,7.12013 12.956,0 0,-7.12013 -12.956,0"
         inkscape:connector-curvature="0" /><path
         id="path106"
         style="fill:#f14459;fill-opacity:1;fill-rule:nonzero;stroke:none"
         d="M 313.74387,114.98379 C 310.096,106.09754 302.4905,94.947539 287.24875,94.563789 l -3.3715,3.32875 c 0.88575,-0.10875 1.88275,-0.18 2.97162,-0.18 6.27888,0 17.23,2.492501 26.895,17.271251"
         inkscape:connector-curvature="0" /><path
         id="path108"
         style="fill:#f14459;fill-opacity:1;fill-rule:nonzero;stroke:none"
         d="m 353.26675,89.293789 -4.08875,-2.41 c -14.65625,4.08875 -19.32175,16.716251 -20.69875,26.218751 6.485,-18.826251 18.36625,-22.991251 24.7875,-23.808751"
         inkscape:connector-curvature="0" /><path
         id="path110"
         style="fill:#f14459;fill-opacity:1;fill-rule:nonzero;stroke:none"
         d="m 353.37425,140.96767 -23.99162,0 0,41.64749 36.48912,0 0,-41.64749 -12.4975,0"
         inkscape:connector-curvature="0" /><path
         id="path112"
         style="fill:#f14459;fill-opacity:1;fill-rule:nonzero;stroke:none"
         d="m 312.657,140.96767 -34.69488,0 0,41.64749 36.49276,0 0,-41.64749 -1.79788,0"
         inkscape:connector-curvature="0" /><path
         id="path114"
         style="fill:#65ccd7;fill-opacity:1;fill-rule:nonzero;stroke:none"
         d="m 292.95775,138.46767 19.69925,0 0,-4.99663 -19.69925,-8.14838 0,13.14501"
         inkscape:connector-curvature="0" /><path
         id="path116"
         style="fill:#65ccd7;fill-opacity:1;fill-rule:nonzero;stroke:none"
         d="m 330.613,133.70491 0,4.76276 20.26125,0 0,-13.14501 -20.26125,8.38225"
         inkscape:connector-curvature="0" /><path
         id="path118"
         style="fill:#65ccd7;fill-opacity:1;fill-rule:nonzero;stroke:none"
         d="m 325.10763,140.96767 -8.15275,0 0,41.64749 9.92775,0 0,-41.64749 -1.775,0"
         inkscape:connector-curvature="0" /><path
         id="path120"
         style="fill:#fac508;fill-opacity:1;fill-rule:nonzero;stroke:none"
         d="m 335.33675,70.700039 c 0.6475,-1.2375 1.61375,-2.47125 2.98125,-3.32625 -1.13,-0.63125 -2.24125,-1.62 -3.02,-3.09875 -0.65125,1.22 -1.6625,2.41 -3.16125,3.24125 1.20125,0.655 2.385,1.675 3.2,3.18375"
         inkscape:connector-curvature="0" /><path
         id="path122"
         style="fill:#fac508;fill-opacity:1;fill-rule:nonzero;stroke:none"
         d="m 306.72725,66.385039 c 0.85062,-1.88875 2.32275,-4.10375 4.81163,-5.4125 -1.74663,-0.81375 -3.71975,-2.30125 -4.90538,-5.02125 -0.84463,1.89625 -2.36663,4.01375 -5.10688,5.285 1.84963,0.845 3.96188,2.37875 5.20063,5.14875"
         inkscape:connector-curvature="0" /><path
         id="path124"
         style="fill:#fac508;fill-opacity:1;fill-rule:nonzero;stroke:none"
         d="m 319.9885,85.231289 c 0.85112,-1.89125 2.32175,-4.105 4.8115,-5.415 -1.746,-0.81375 -3.72013,-2.3025 -4.90525,-5.02 -0.84475,1.8975 -2.36713,4.01375 -5.10688,5.28625 1.84863,0.84375 3.96188,2.37875 5.20063,5.14875"
         inkscape:connector-curvature="0" /><path
         id="path126"
         style="fill:#39393a;fill-opacity:1;fill-rule:nonzero;stroke:none"
         d="m 313.74387,114.98379 c -9.665,-14.77875 -20.61612,-17.271251 -26.895,-17.271251 -1.08887,0 -2.08587,0.0712 -2.97162,0.18 l 3.3715,-3.32875 c 15.24175,0.38375 22.84725,11.533751 26.49512,20.420001 z m -33.40675,-13.73 c 0.0254,-0.0113 2.6045,-1.04125 6.51175,-1.04125 8.43213,0 20.49801,4.50375 30.09963,25.96262 0.20512,0.45851 0.65863,0.73875 1.14063,0.73875 0.11475,0 0.23137,-0.0151 0.34662,-0.0487 0.59963,-0.17237 0.979,-0.76024 0.89113,-1.3775 -0.0474,-0.3315 -5.04488,-33.181371 -32.57076,-33.432621 -0.004,0 -0.008,0 -0.0118,0 -0.32812,0 -0.6435,0.12875 -0.87787,0.36125 l -6.88188,6.79 c -0.42437,0.41875 -0.49225,1.080001 -0.16412,1.577501 0.32962,0.49875 0.96537,0.695 1.51662,0.47"
         inkscape:connector-curvature="0" /><path
         id="path128"
         style="fill:#39393a;fill-opacity:1;fill-rule:nonzero;stroke:none"
         d="m 349.178,86.883789 4.08875,2.41 c -6.42125,0.8175 -18.3025,4.9825 -24.7875,23.808751 1.377,-9.5025 6.0425,-22.130001 20.69875,-26.218751 z m -23.55525,37.823621 c 0.066,0.62013 0.57863,1.09763 1.20125,1.11763 0.0146,0.001 0.0292,0.001 0.0415,0.001 0.6055,0 1.1255,-0.43363 1.23287,-1.03362 5.41213,-30.789881 22.75588,-33.182381 27.94463,-33.182381 0.92,0 1.465,0.0763 1.4675,0.0763 0.5925,0.0825 1.15875,-0.25875 1.36,-0.8225 0.1975,-0.56375 -0.03,-1.18875 -0.545,-1.4925 l -8.33,-4.90875 c -0.28875,-0.16875 -0.63,-0.215 -0.9525,-0.1325 -26.63012,6.97 -23.45437,40.043881 -23.42025,40.377371"
         inkscape:connector-curvature="0" /><path
         id="path130"
         style="fill:#39393a;fill-opacity:1;fill-rule:nonzero;stroke:none"
         d="m 350.87425,138.46767 -20.26125,0 0,-4.76276 20.26125,-8.38225 0,13.14501 z m -23.99162,44.14749 -9.92775,0 0,-41.64749 9.92775,0 0,41.64749 z m -11.72563,-50.814 0,-0.45362 12.956,0 0,7.12013 -12.956,0 0,-6.66651 z m -22.19925,-6.4785 19.69925,8.14838 0,4.99663 -19.69925,0 0,-13.14501 z m -14.99563,15.64501 36.49275,0 0,41.64749 -36.49275,0 0,-41.64749 z m 87.90963,41.64749 -36.48913,0 0,-41.64749 36.48913,0 0,41.64749 z m 1.25,-44.14749 -13.7475,0 0,-15.01513 c 0,-0.4175 -0.21,-0.80863 -0.55625,-1.04 -0.3475,-0.2325 -0.79125,-0.27637 -1.1725,-0.11475 l -21.0325,8.70212 0,-0.90237 c 0,-0.69138 -0.559,-1.25 -1.25,-1.25 l -15.456,0 c -0.6905,0 -1.25,0.55862 -1.25,1.25 l 0,0.669 -20.47125,-8.46875 c -0.38613,-0.16263 -0.82563,-0.11775 -1.17238,0.11475 -0.34712,0.23137 -0.55562,0.6225 -0.55562,1.04 l 0,15.01512 -13.74563,0 c -0.68987,0 -1.25,0.56 -1.25,1.25 l 0,44.1475 c 0,0.68988 0.56013,1.25 1.25,1.25 l 90.40963,0 c 0.69125,0 1.25,-0.56012 1.25,-1.25 l 0,-44.1475 c 0,-0.69 -0.55875,-1.25 -1.25,-1.25"
         inkscape:connector-curvature="0" /><path
         id="path132"
         style="fill:#39393a;fill-opacity:1;fill-rule:nonzero;stroke:none"
         d="m 335.298,64.275039 c 0.77875,1.47875 1.89,2.4675 3.02,3.09875 -1.3675,0.855 -2.33375,2.08875 -2.98125,3.32625 -0.815,-1.50875 -1.99875,-2.52875 -3.2,-3.18375 1.49875,-0.83125 2.51,-2.02125 3.16125,-3.24125 z m -6.57213,4.28 c 0.20013,0.0138 4.91713,0.37875 5.56338,5.565 0.0637,0.50875 0.49625,0.89125 1.00875,0.89625 0,0 0.002,0 0.005,0 0.51,0 0.9425,-0.37625 1.01125,-0.88125 0.006,-0.0538 0.78125,-5.28625 5.3775,-5.81625 0.53,-0.06 0.91875,-0.5175 0.90125,-1.0475 -0.0175,-0.53125 -0.44375,-0.96125 -0.97375,-0.98625 -0.19625,-0.009 -4.77125,-0.29 -5.30125,-5.7675 -0.0488,-0.52375 -0.49,-0.92 -1.015,-0.92 -0.007,0 -0.0175,0 -0.0262,0 -0.5375,0.015 -0.97,0.4425 -0.99375,0.98 -0.007,0.2125 -0.28125,5.22 -5.628,5.9475 -0.52,0.07 -0.90088,0.5225 -0.88375,1.0475 0.0195,0.52375 0.43212,0.9475 0.95462,0.9825"
         inkscape:connector-curvature="0" /><path
         id="path134"
         style="fill:#39393a;fill-opacity:1;fill-rule:nonzero;stroke:none"
         d="m 306.6335,55.951289 c 1.18563,2.72 3.15875,4.2075 4.90538,5.02125 -2.48888,1.30875 -3.961,3.52375 -4.81163,5.4125 -1.23875,-2.77 -3.351,-4.30375 -5.20063,-5.14875 2.74025,-1.27125 4.26225,-3.38875 5.10688,-5.285 z m -8.87738,6.30625 c 0.28413,0.02 6.9805,0.57875 7.88913,7.8675 0.0635,0.50875 0.49362,0.89125 1.00687,0.895 0.002,0 0.004,0 0.006,0 0.50975,0 0.94187,-0.37625 1.01113,-0.8825 0.0108,-0.0738 1.10162,-7.44625 7.61187,-8.1975 0.53025,-0.0612 0.92387,-0.52 0.90287,-1.055 -0.0205,-0.5325 -0.44875,-0.95875 -0.982,-0.97875 -0.27687,-0.0112 -6.77249,-0.3425 -7.52774,-8.15375 -0.0519,-0.535 -0.52501,-0.93875 -1.04788,-0.92125 -0.53762,0.0175 -0.97025,0.4475 -0.98875,0.985 -0.01,0.3 -0.33837,7.375 -7.95125,8.4125 -0.518,0.0687 -0.8975,0.52 -0.88037,1.04375 0.0171,0.52375 0.42775,0.9475 0.94975,0.985"
         inkscape:connector-curvature="0" /><path
         id="path136"
         style="fill:#39393a;fill-opacity:1;fill-rule:nonzero;stroke:none"
         d="m 319.89475,74.796289 c 1.18512,2.7175 3.15925,4.20625 4.90525,5.02 -2.48975,1.31 -3.96038,3.52375 -4.8115,5.415 -1.23875,-2.77 -3.352,-4.305 -5.20063,-5.14875 2.73975,-1.2725 4.26213,-3.38875 5.10688,-5.28625 z m -8.94525,4.275 c -0.51963,0.0713 -0.90138,0.5225 -0.88338,1.0475 0.0186,0.52375 0.43125,0.94875 0.95413,0.9825 0.28425,0.0187 6.97213,0.5375 7.88675,7.86875 0.0635,0.50875 0.49463,0.89125 1.00725,0.895 0.001,0 0.004,0 0.006,0 0.50937,0 0.9415,-0.37625 1.01075,-0.88125 0.0113,-0.075 1.10262,-7.44875 7.61187,-8.2 0.52975,-0.0612 0.92038,-0.51875 0.90088,-1.05125 -0.0171,-0.53125 -0.44438,-0.95875 -0.97663,-0.98375 -0.27587,-0.0125 -6.78025,-0.39125 -7.53125,-8.14875 -0.0513,-0.53375 -0.57125,-0.9375 -1.04337,-0.92125 -0.53713,0.015 -0.97075,0.445 -0.99275,0.98125 -0.0121,0.30125 -0.38375,7.38375 -7.95013,8.41125"
         inkscape:connector-curvature="0" /></g></g><g
     id="g8041"
     transform="matrix(0.34210451,0,0,0.34210451,-11.330627,8.9693271)"><path
       inkscape:connector-curvature="0"
       d="M 118.48538,117.44 C 122.09963,101.24375 120.6665,86.29875 114.147,73.44875 108.35113,62.02875 100.1675,55.48 97.4185,53.4975 l -5.38575,7.18125 c 25.47063,13.52 28.371,38.5 26.45263,56.76125"
       style="fill:#65ccd7;fill-opacity:1;fill-rule:nonzero;stroke:none"
       id="path238" /><path
       inkscape:connector-curvature="0"
       d="m 147.97875,145.02625 c 8.105,0 12.87875,3.4525 15.10875,5.67375 l 2.45625,-7.3675 c -4.225,-2.05625 -8.54125,-3.09625 -12.84625,-3.09625 -9.45625,0 -17.27625,5 -22.18,9.20375 6.32875,-2.93375 12.17875,-4.41375 17.46125,-4.41375"
       style="fill:#65ccd7;fill-opacity:1;fill-rule:nonzero;stroke:none"
       id="path240" /><path
       inkscape:connector-curvature="0"
       d="m 88.88675,156.28875 18.9965,22.2625 3.711,-1.36125 -20.640625,-24.2825 -2.066875,3.38125"
       style="fill:#fac508;fill-opacity:1;fill-rule:nonzero;stroke:none"
       id="path242" /><path
       inkscape:connector-curvature="0"
       d="m 82.27875,167.1025 c 0.03175,0.0288 0.07237,0.0438 0.101625,0.0763 l 13.671875,15.7112 9.32712,-3.42125 -17.864745,-20.93625 -5.235875,8.57"
       style="fill:#a2e0e9;fill-opacity:1;fill-rule:nonzero;stroke:none"
       id="path244" /><path
       inkscape:connector-curvature="0"
       d="m 78.880875,172.66375 c 0.02537,0.0238 0.05862,0.0362 0.083,0.0637 L 89.791,185.185 l 3.749,-1.37375 -12.61475,-14.495 -2.044375,3.3475"
       style="fill:#f14459;fill-opacity:1;fill-rule:nonzero;stroke:none"
       id="path246" /><path
       inkscape:connector-curvature="0"
       d="M 72.0605,183.82125 76.961375,189.89 87.27875,186.10625 77.524375,174.8825 72.0605,183.82125"
       style="fill:#fac508;fill-opacity:1;fill-rule:nonzero;stroke:none"
       id="path248" /><path
       inkscape:connector-curvature="0"
       d="m 65.86675,193.9575 8.615625,-3.15875 -3.806125,-4.7125 -4.8095,7.87125"
       style="fill:#65ccd7;fill-opacity:1;fill-rule:nonzero;stroke:none"
       id="path250" /><path
       inkscape:connector-curvature="0"
       d="m 92.3105,150.68625 c 0.03175,0.0312 0.07325,0.0462 0.103125,0.0813 l 21.680625,25.5075 8.63038,-3.16625 -25.583505,-30.32625 -4.830625,7.90375"
       style="fill:#f14459;fill-opacity:1;fill-rule:nonzero;stroke:none"
       id="path252" /><path
       inkscape:connector-curvature="0"
       d="m 129.69875,57.21125 -0.84,4.9075 4.405,-2.3175 c 0.38375,-0.2025 0.84625,-0.20375 1.23,-0.0013 l 4.40875,2.31875 -0.84375,-4.90625 c -0.0737,-0.43 0.0687,-0.8675 0.38,-1.17125 l 3.56625,-3.475 -4.9225,-0.71625 c -0.43,-0.0625 -0.80375,-0.33375 -0.995,-0.7225 l -2.2075,-4.46625 -2.2025,4.465 c -0.1925,0.39 -0.56375,0.66125 -0.995,0.72375 l -4.9275,0.71625 3.565,3.475 c 0.31,0.30375 0.4525,0.74125 0.37875,1.17"
       style="fill:#fac508;fill-opacity:1;fill-rule:nonzero;stroke:none"
       id="path254" /><path
       inkscape:connector-curvature="0"
       d="m 87.292,113.11125 -0.84275,4.905 4.40725,-2.315 c 0.192375,-0.1025 0.40375,-0.1525 0.61475,-0.1525 0.211375,0 0.42325,0.05 0.615625,0.1525 l 4.403875,2.315 -0.839375,-4.90625 c -0.07425,-0.42875 0.06838,-0.86625 0.379375,-1.17 L 99.596625,108.46375 94.6685,107.75 c -0.42975,-0.0625 -0.80225,-0.3325 -0.995125,-0.72375 l -2.202125,-4.46375 -2.206625,4.465 c -0.192375,0.39 -0.565375,0.66 -0.995625,0.7225 l -4.922375,0.71375 3.5655,3.47625 c 0.3115,0.30375 0.453625,0.74125 0.379875,1.17125"
       style="fill:#fac508;fill-opacity:1;fill-rule:nonzero;stroke:none"
       id="path256" /><path
       inkscape:connector-curvature="0"
       d="m 114.147,73.44875 c 6.5195,12.85 7.95263,27.795 4.33838,43.99125 1.91837,-18.26125 -0.982,-43.24125 -26.45263,-56.76125 L 97.4185,53.4975 c 2.749,1.9825 10.93263,8.53125 16.7285,19.95125 z M 89.586,62.23125 c 42.7415,21.36875 21.75825,75.965 21.541,76.51375 -0.2495,0.62875 0.0483,1.34125 0.66988,1.60875 0.16112,0.0688 0.32712,0.1 0.49225,0.1 0.47362,0 0.92525,-0.27 1.13525,-0.72625 14.65937,-31.76375 9.6625,-54.25375 2.8915,-67.5275 C 108.9575,57.77875 98.248,51.00875 97.796375,50.7275 97.2475,50.385 96.525875,50.52 96.13675,51.03875 L 89.144,60.3625 c -0.221625,0.29625 -0.30125,0.6775 -0.21575,1.0375 0.08537,0.36125 0.325625,0.665 0.65775,0.83125"
       style="fill:#39393a;fill-opacity:1;fill-rule:nonzero;stroke:none"
       id="path258" /><path
       inkscape:connector-curvature="0"
       d="M 165.54375,143.3325 163.0875,150.7 c -2.23,-2.22125 -7.00375,-5.67375 -15.10875,-5.67375 -5.2825,0 -11.1325,1.48 -17.46125,4.41375 4.90375,-4.20375 12.72375,-9.20375 22.18,-9.20375 4.305,0 8.62125,1.04 12.84625,3.09625 z M 167.65,141.595 c -4.8875,-2.55875 -9.9175,-3.85875 -14.9525,-3.85875 -17.46,0 -29.25263,15.2175 -29.74688,15.8675 -0.36275,0.47625 -0.33737,1.14375 0.063,1.59 0.24425,0.2725 0.5865,0.41625 0.93175,0.41625 0.22063,0 0.44275,-0.0588 0.6435,-0.1775 8.74363,-5.2475 16.61363,-7.90625 23.38988,-7.90625 10.26875,0 14.37625,6.09 14.54375,6.345 0.26,0.40375 0.72875,0.625 1.20625,0.56375 0.4775,-0.06 0.87875,-0.39 1.03125,-0.845 l 3.495,-10.49125 C 168.45,142.5175 168.1937,141.88 167.65,141.595"
       style="fill:#39393a;fill-opacity:1;fill-rule:nonzero;stroke:none"
       id="path260" /><path
       inkscape:connector-curvature="0"
       d="M 114.09425,176.275 92.413625,150.7675 c -0.02987,-0.035 -0.07137,-0.05 -0.103125,-0.0813 l 4.830625,-7.90375 25.583495,30.32625 -8.63037,3.16625 z m -6.211,2.27625 -18.9965,-22.2625 2.066875,-3.38125 20.640625,24.2825 -3.711,1.36125 z M 96.05225,182.89 82.380375,167.17875 c -0.02925,-0.0325 -0.06987,-0.0475 -0.101625,-0.0763 l 5.235875,-8.57 17.864745,20.93625 -9.32712,3.42125 z M 89.791,185.185 78.963875,172.7275 c -0.02438,-0.0275 -0.05763,-0.04 -0.083,-0.0637 l 2.044375,-3.3475 12.61475,14.495 -3.749,1.37375 z M 76.961375,189.89 72.0605,183.82125 77.524375,174.8825 87.27875,186.10625 76.961375,189.89 z m -11.094625,4.0675 4.8095,-7.87125 3.806125,4.7125 -8.615625,3.15875 z m 32.067875,-54.11375 c -0.258875,-0.30625 -0.654375,-0.47125 -1.051375,-0.44 -0.400375,0.0312 -0.761125,0.2525 -0.971125,0.595 l -34.049375,55.715 c -0.27675,0.45375 -0.23675,1.03375 0.100125,1.445 0.24275,0.295 0.600625,0.4575 0.966875,0.4575 0.144,0 0.2905,-0.0263 0.431125,-0.0775 L 95.748,185.66375 c 0.266125,-0.005 0.528875,-0.1 0.7495,-0.275 l 28.765,-10.5475 c 0.3825,-0.13875 0.6725,-0.45875 0.7775,-0.8525 0.105,-0.395 0.01,-0.815 -0.2525,-1.1275 l -27.852875,-33.0175"
       style="fill:#39393a;fill-opacity:1;fill-rule:nonzero;stroke:none"
       id="path262" /><path
       inkscape:connector-curvature="0"
       d="m 137.74875,92.0725 c -0.69,0 -1.25,0.55875 -1.25,1.25 0,0.69 0.56,1.25 1.25,1.25 l 3.5175,0 c 0.68875,0 1.25,-0.56 1.25,-1.25 0,-0.69125 -0.56125,-1.25 -1.25,-1.25 l -3.5175,0"
       style="fill:#39393a;fill-opacity:1;fill-rule:nonzero;stroke:none"
       id="path264" /><path
       inkscape:connector-curvature="0"
       d="m 146.735,94.5725 3.51375,0 c 0.69125,0 1.25,-0.56 1.25,-1.25 0,-0.69125 -0.55875,-1.25 -1.25,-1.25 l -3.51375,0 c -0.69125,0 -1.25,0.55875 -1.25,1.25 0,0.69 0.55875,1.25 1.25,1.25"
       style="fill:#39393a;fill-opacity:1;fill-rule:nonzero;stroke:none"
       id="path266" /><path
       inkscape:connector-curvature="0"
       d="m 145.24875,87.465 c 0,-0.69 -0.55875,-1.25 -1.25,-1.25 -0.69,0 -1.25,0.56 -1.25,1.25 l 0,3.515 c 0,0.69 0.56,1.25 1.25,1.25 0.69125,0 1.25,-0.56 1.25,-1.25 l 0,-3.515"
       style="fill:#39393a;fill-opacity:1;fill-rule:nonzero;stroke:none"
       id="path268" /><path
       inkscape:connector-curvature="0"
       d="m 143.99875,95.1975 c -0.69,0 -1.25,0.56 -1.25,1.25 l 0,3.51625 c 0,0.69 0.56,1.25 1.25,1.25 0.69125,0 1.25,-0.56 1.25,-1.25 l 0,-3.51625 c 0,-0.69 -0.55875,-1.25 -1.25,-1.25"
       style="fill:#39393a;fill-opacity:1;fill-rule:nonzero;stroke:none"
       id="path270" /><path
       inkscape:connector-curvature="0"
       d="m 154.2775,116.29875 3.16375,0 c 0.69125,0 1.25,-0.56 1.25,-1.25 0,-0.69125 -0.55875,-1.25 -1.25,-1.25 l -3.16375,0 c -0.69,0 -1.25,0.55875 -1.25,1.25 0,0.69 0.56,1.25 1.25,1.25"
       style="fill:#39393a;fill-opacity:1;fill-rule:nonzero;stroke:none"
       id="path272" /><path
       inkscape:connector-curvature="0"
       d="m 162.36375,116.29875 3.16375,0 c 0.69125,0 1.25,-0.56 1.25,-1.25 0,-0.69125 -0.55875,-1.25 -1.25,-1.25 l -3.16375,0 c -0.69,0 -1.25,0.55875 -1.25,1.25 0,0.69 0.56,1.25 1.25,1.25"
       style="fill:#39393a;fill-opacity:1;fill-rule:nonzero;stroke:none"
       id="path274" /><path
       inkscape:connector-curvature="0"
       d="m 159.90375,114.19 c 0.69,0 1.25,-0.56 1.25,-1.25 l 0,-3.165 c 0,-0.69 -0.56,-1.25 -1.25,-1.25 -0.69125,0 -1.25,0.56 -1.25,1.25 l 0,3.165 c 0,0.69 0.55875,1.25 1.25,1.25"
       style="fill:#39393a;fill-opacity:1;fill-rule:nonzero;stroke:none"
       id="path276" /><path
       inkscape:connector-curvature="0"
       d="m 159.90375,116.61125 c -0.69125,0 -1.25,0.55875 -1.25,1.25 l 0,3.165 c 0,0.69 0.55875,1.25 1.25,1.25 0.69,0 1.25,-0.56 1.25,-1.25 l 0,-3.165 c 0,-0.69125 -0.56,-1.25 -1.25,-1.25"
       style="fill:#39393a;fill-opacity:1;fill-rule:nonzero;stroke:none"
       id="path278" /><path
       inkscape:connector-curvature="0"
       d="m 138.64625,165.8475 -3.16375,0 c -0.69,0 -1.25,0.55875 -1.25,1.25 0,0.69 0.56,1.25 1.25,1.25 l 3.16375,0 c 0.69125,0 1.25,-0.56 1.25,-1.25 0,-0.69125 -0.55875,-1.25 -1.25,-1.25"
       style="fill:#39393a;fill-opacity:1;fill-rule:nonzero;stroke:none"
       id="path280" /><path
       inkscape:connector-curvature="0"
       d="m 146.7325,165.8475 -3.16375,0 c -0.69,0 -1.25,0.55875 -1.25,1.25 0,0.69 0.56,1.25 1.25,1.25 l 3.16375,0 c 0.69,0 1.25,-0.56 1.25,-1.25 0,-0.69125 -0.56,-1.25 -1.25,-1.25"
       style="fill:#39393a;fill-opacity:1;fill-rule:nonzero;stroke:none"
       id="path282" /><path
       inkscape:connector-curvature="0"
       d="m 141.1075,166.23625 c 0.69,0 1.25,-0.56 1.25,-1.25 l 0,-3.16375 c 0,-0.69 -0.56,-1.25 -1.25,-1.25 -0.69,0 -1.25,0.56 -1.25,1.25 l 0,3.16375 c 0,0.69 0.56,1.25 1.25,1.25"
       style="fill:#39393a;fill-opacity:1;fill-rule:nonzero;stroke:none"
       id="path284" /><path
       inkscape:connector-curvature="0"
       d="m 141.1075,168.66 c -0.69,0 -1.25,0.55875 -1.25,1.25 l 0,3.16375 c 0,0.69125 0.56,1.25 1.25,1.25 0.69,0 1.25,-0.55875 1.25,-1.25 l 0,-3.16375 c 0,-0.69125 -0.56,-1.25 -1.25,-1.25"
       style="fill:#39393a;fill-opacity:1;fill-rule:nonzero;stroke:none"
       id="path286" /><path
       inkscape:connector-curvature="0"
       d="m 131.6775,51.12625 2.2025,-4.465 2.2075,4.46625 c 0.19125,0.38875 0.565,0.66 0.995,0.7225 l 4.9225,0.71625 -3.56625,3.475 c -0.31125,0.30375 -0.45375,0.74125 -0.38,1.17125 L 138.9025,62.11875 134.49375,59.8 c -0.38375,-0.2025 -0.84625,-0.20125 -1.23,0.0013 l -4.405,2.3175 0.84,-4.9075 C 129.7725,56.7825 129.63,56.345 129.32,56.04125 l -3.565,-3.475 4.9275,-0.71625 c 0.43125,-0.0625 0.8025,-0.33375 0.995,-0.72375 z m -4.325,6.15625 -1.11,6.49 c -0.08,0.46875 0.1125,0.94375 0.49875,1.2225 0.385,0.28 0.895,0.3175 1.315,0.09375 L 133.88,62.025 l 5.8275,3.065 c 0.1825,0.095 0.3825,0.1425 0.58125,0.1425 0.25875,0 0.5175,-0.08 0.735,-0.2375 0.385,-0.28125 0.5775,-0.75375 0.4975,-1.22375 l -1.115,-6.48875 4.71375,-4.59375 c 0.34,-0.3325 0.46375,-0.82875 0.31625,-1.2825 -0.1475,-0.45125 -0.53875,-0.78125 -1.00875,-0.85 l -6.51,-0.9475 L 135,43.705 c -0.21125,-0.42625 -0.64625,-0.69625 -1.12,-0.69625 l -0.001,0 c -0.475,0 -0.91,0.27 -1.12125,0.6975 l -2.91,5.9025 -6.5165,0.9475 c -0.47062,0.06875 -0.86125,0.39875 -1.00925,0.85 -0.1465,0.45375 -0.0244,0.95 0.31638,1.2825 l 4.71437,4.59375"
       style="fill:#39393a;fill-opacity:1;fill-rule:nonzero;stroke:none"
       id="path288" /><path
       inkscape:connector-curvature="0"
       d="m 89.264625,107.0275 2.206625,-4.465 2.202125,4.46375 c 0.192875,0.39125 0.565375,0.66125 0.995125,0.72375 l 4.928125,0.71375 -3.565875,3.47625 c -0.311,0.30375 -0.453625,0.74125 -0.379375,1.17 l 0.839375,4.90625 -4.403875,-2.315 c -0.192375,-0.1025 -0.40425,-0.1525 -0.615625,-0.1525 -0.211,0 -0.422375,0.05 -0.61475,0.1525 l -4.40725,2.315 0.84275,-4.905 c 0.07375,-0.43 -0.06838,-0.8675 -0.379875,-1.17125 l -3.5655,-3.47625 L 88.269,107.75 c 0.43025,-0.0625 0.80325,-0.3325 0.995625,-0.7225 z m -4.32075,6.15375 -1.11425,6.4875 c -0.08112,0.46875 0.11175,0.9425 0.4965,1.2225 0.38575,0.27875 0.895125,0.3175 1.317,0.095 l 5.828125,-3.06125 5.82275,3.06125 c 0.182625,0.0962 0.38325,0.14375 0.582,0.14375 0.25875,0 0.516625,-0.08 0.733875,-0.23875 0.38575,-0.27875 0.578625,-0.7525 0.4975,-1.22125 l -1.109375,-6.48875 4.71587,-4.595 c 0.34038,-0.33375 0.46388,-0.83 0.31588,-1.2825 -0.1465,-0.4525 -0.538,-0.7825 -1.00975,-0.85125 l -6.516125,-0.94375 -2.911125,-5.9025 c -0.210875,-0.4275 -0.646,-0.6975 -1.120625,-0.6975 -8.75e-4,0 -8.75e-4,0 -8.75e-4,0 -0.475125,0 -0.90975,0.27 -1.120625,0.69625 l -2.9165,5.90375 -6.50975,0.94375 c -0.47175,0.0687 -0.863375,0.39875 -1.009875,0.85125 -0.147375,0.4525 -0.02438,0.94875 0.3165,1.28125 l 4.712875,4.59625"
       style="fill:#39393a;fill-opacity:1;fill-rule:nonzero;stroke:none"
       id="path290" /></g></svg>