<?xml version="1.0" encoding="UTF-8" standalone="no"?>
<svg
   xmlns:dc="http://purl.org/dc/elements/1.1/"
   xmlns:cc="http://creativecommons.org/ns#"
   xmlns:rdf="http://www.w3.org/1999/02/22-rdf-syntax-ns#"
   xmlns:svg="http://www.w3.org/2000/svg"
   xmlns="http://www.w3.org/2000/svg"
   xmlns:sodipodi="http://sodipodi.sourceforge.net/DTD/sodipodi-0.dtd"
   xmlns:inkscape="http://www.inkscape.org/namespaces/inkscape"
   viewBox="0 0 200 100"
   height="100"
   width="200"
   xml:space="preserve"
   id="svg2"
   version="1.1"
   inkscape:version="0.91 r13725"
   sodipodi:docname="logo01.svg"><sodipodi:namedview
     pagecolor="#183654"
     bordercolor="#666666"
     borderopacity="1"
     objecttolerance="10"
     gridtolerance="10"
     guidetolerance="10"
     inkscape:pageopacity="1"
     inkscape:pageshadow="2"
     inkscape:window-width="1366"
     inkscape:window-height="666"
     id="namedview4358"
     showgrid="false"
     inkscape:zoom="2.56"
     inkscape:cx="42.554224"
     inkscape:cy="35.032236"
     inkscape:window-x="0"
     inkscape:window-y="0"
     inkscape:window-maximized="1"
     inkscape:current-layer="layer4" /><metadata
     id="metadata8"><rdf:RDF><cc:Work
         rdf:about=""><dc:format>image/svg+xml</dc:format><dc:type
           rdf:resource="http://purl.org/dc/dcmitype/StillImage" /><dc:title /></cc:Work></rdf:RDF></metadata><defs
     id="defs6"><clipPath
       id="clipPath20"
       clipPathUnits="userSpaceOnUse"><path
         id="path18"
         d="m 0,0 0,2351.9 3359.86,0 L 3359.86,0 0,0"
         inkscape:connector-curvature="0" /></clipPath><clipPath
       id="clipPath110"
       clipPathUnits="userSpaceOnUse"><path
         id="path108"
         d="M 0,2351.9 0,0 l 3359.86,0 0,2351.9 z"
         inkscape:connector-curvature="0" /></clipPath><clipPath
       id="clipPath218"
       clipPathUnits="userSpaceOnUse"><path
         id="path216"
         d="m 1055.36,465.949 -55.887,0 0,74.012 55.887,0 0,-74.012"
         inkscape:connector-curvature="0" /></clipPath><clipPath
       id="clipPath228"
       clipPathUnits="userSpaceOnUse"><path
         id="path226"
         d="M 0,2351.9 0,0 l 3359.86,0 0,2351.9 z"
         inkscape:connector-curvature="0" /></clipPath><clipPath
       id="clipPath494"
       clipPathUnits="userSpaceOnUse"><path
         id="path492"
         d="m 108.34,1864.14 c 0,115.06 93.273,208.33 208.34,208.33 13.843,0 27.367,-1.38 40.453,-3.96 21.422,57.84 77.062,99.07 142.34,99.07 63.593,0 118.011,-39.15 140.574,-94.63 12.23,5.84 25.906,9.12 40.344,9.12 51.703,0 93.609,-41.91 93.609,-93.6 0,-2.28 -0.109,-4.54 -0.273,-6.79 69.066,-5.9 123.289,-63.78 123.289,-134.36 l -787.954,0 c -0.433,5.55 -0.722,11.16 -0.722,16.82"
         inkscape:connector-curvature="0" /></clipPath><clipPath
       id="clipPath522"
       clipPathUnits="userSpaceOnUse"><path
         id="path520"
         d="m 1464.59,2006.21 c 0,81.47 -66.04,147.52 -147.51,147.52 -9.82,0 -19.39,-0.98 -28.67,-2.81 -15.14,40.96 -54.56,70.15 -100.77,70.15 -45.02,0 -83.56,-27.71 -99.54,-67.01 -8.66,4.14 -18.34,6.46 -28.57,6.46 -36.61,0 -66.272,-29.67 -66.272,-66.27 0,-1.62 0.078,-3.22 0.187,-4.8 -48.902,-4.19 -87.289,-45.17 -87.289,-95.15 l 557.924,0 c 0.3,3.93 0.51,7.9 0.51,11.91"
         inkscape:connector-curvature="0" /></clipPath><clipPath
       id="clipPath544"
       clipPathUnits="userSpaceOnUse"><path
         id="path542"
         d="M 0,2351.9 0,0 l 3359.86,0 0,2351.9 z"
         inkscape:connector-curvature="0" /></clipPath><clipPath
       id="clipPath558"
       clipPathUnits="userSpaceOnUse"><path
         id="path556"
         d="m 1836.02,1793.82 c 0,54.7 -44.35,99.04 -99.03,99.04 -6.59,0 -13.02,-0.66 -19.25,-1.88 -10.16,27.49 -36.61,47.09 -67.64,47.09 -30.23,0 -56.1,-18.61 -66.83,-44.99 -5.81,2.78 -12.32,4.34 -19.19,4.34 -24.56,0 -44.48,-19.92 -44.48,-44.49 0,-1.09 0.05,-2.17 0.12,-3.24 -32.82,-2.8 -58.61,-30.31 -58.61,-63.87 l 374.56,0 c 0.21,2.65 0.35,5.31 0.35,8"
         inkscape:connector-curvature="0" /></clipPath><clipPath
       id="clipPath584"
       clipPathUnits="userSpaceOnUse"><path
         id="path582"
         d="m 2191.7,1605.66 c 0,30.54 -24.77,55.3 -55.31,55.3 -3.67,0 -7.27,-0.37 -10.74,-1.06 -5.68,15.35 -20.46,26.3 -37.78,26.3 -16.88,0 -31.33,-10.39 -37.31,-25.12 -3.25,1.55 -6.88,2.42 -10.71,2.42 -13.74,0 -24.85,-11.12 -24.85,-24.85 l 0.07,-1.8 c -18.33,-1.56 -32.73,-16.92 -32.73,-35.66 l 209.16,0 c 0.12,1.47 0.2,2.96 0.2,4.47"
         inkscape:connector-curvature="0" /></clipPath><clipPath
       id="clipPath600"
       clipPathUnits="userSpaceOnUse"><path
         id="path598"
         d="m 3095.01,2069.65 c 0,30.54 -24.74,55.3 -55.23,55.3 -3.69,0 -7.26,-0.37 -10.74,-1.05 -5.66,15.35 -20.42,26.3 -37.72,26.3 -16.87,0 -31.29,-10.4 -37.27,-25.13 -3.24,1.55 -6.87,2.43 -10.7,2.43 -13.69,0 -24.81,-11.13 -24.81,-24.85 l 0.07,-1.8 c -18.31,-1.56 -32.68,-16.93 -32.68,-35.67 l 208.87,0 c 0.13,1.48 0.21,2.96 0.21,4.47"
         inkscape:connector-curvature="0" /></clipPath><clipPath
       id="clipPath612"
       clipPathUnits="userSpaceOnUse"><path
         id="path610"
         d="m 2024.79,2003.7 c 0,49.36 -40.02,89.37 -89.39,89.37 -5.95,0 -11.75,-0.59 -17.37,-1.69 -9.18,24.81 -33.05,42.5 -61.06,42.5 -27.29,0 -50.63,-16.79 -60.31,-40.6 -5.24,2.51 -11.12,3.91 -17.3,3.91 -22.18,0 -40.16,-17.97 -40.16,-40.15 0,-0.98 0.04,-1.95 0.12,-2.92 -29.64,-2.52 -52.91,-27.36 -52.91,-57.64 l 338.06,0 c 0.19,2.38 0.32,4.79 0.32,7.22"
         inkscape:connector-curvature="0" /></clipPath><clipPath
       id="clipPath628"
       clipPathUnits="userSpaceOnUse"><path
         id="path626"
         d="M 0,2351.9 0,0 l 3359.86,0 0,2351.9 z"
         inkscape:connector-curvature="0" /></clipPath></defs><g
     inkscape:groupmode="layer"
     id="layer1"
     inkscape:label="Layer 1"
     style="display:none"
     transform="translate(0,-700.00001)"><path
       style="fill:#000000;fill-opacity:0;stroke:none"
       d="m 1295.5819,643.63896 0,-52.58182 95.8316,-0.0493 c 52.7074,-0.0271 93.9542,-1.24029 91.6596,-2.69591 -2.2946,-1.45563 70.1831,-2.06294 161.0615,-1.3496 99.1646,0.77839 163.5596,0.13089 161.0473,-1.61935 -2.5105,-1.74894 61.182,-2.29859 159.1132,-1.3731 105.7193,0.99909 162.6146,0.43519 161.3573,-1.59926 -1.2567,-2.03329 56.2812,-2.68563 163.0096,-1.84813 115.8188,0.90883 163.5126,0.28653 160.12,-2.08922 -3.512,-2.45934 4.1872,-3.39707 28.1857,-3.43292 l 33.0176,-0.0493 0,54.7609 0,54.7609 -39.46,-0.0113 c -45.1247,-0.0129 -958.3917,8.89468 -1088.7755,10.61944 l -86.1679,1.13983 0,-52.58182 z"
       id="path5518"
       inkscape:connector-curvature="0" /><path
       style="fill:#000000;fill-opacity:0;stroke:none"
       d="m 1295.5819,643.63896 0,-52.58182 95.8316,-0.0493 c 52.7074,-0.0271 93.9542,-1.24029 91.6596,-2.69591 -2.2946,-1.45563 70.1831,-2.06294 161.0615,-1.3496 99.1646,0.77839 163.5596,0.13089 161.0473,-1.61935 -2.5105,-1.74894 61.182,-2.29859 159.1132,-1.3731 105.7193,0.99909 162.6146,0.43519 161.3573,-1.59926 -1.2567,-2.03329 56.2812,-2.68563 163.0096,-1.84813 115.8188,0.90883 163.5126,0.28653 160.12,-2.08922 -3.512,-2.45934 4.1872,-3.39707 28.1857,-3.43292 l 33.0176,-0.0493 0,54.7609 0,54.7609 -39.46,-0.0113 c -45.1247,-0.0129 -958.3917,8.89468 -1088.7755,10.61944 l -86.1679,1.13983 0,-52.58182 z"
       id="path5520"
       inkscape:connector-curvature="0" /><path
       style="fill:#000000;fill-opacity:0;stroke:none"
       d="m 1295.5819,643.63896 0,-52.58182 95.8316,-0.0493 c 52.7074,-0.0271 93.9542,-1.24029 91.6596,-2.69591 -2.2946,-1.45563 70.1831,-2.06294 161.0615,-1.3496 99.1646,0.77839 163.5596,0.13089 161.0473,-1.61935 -2.5105,-1.74894 61.182,-2.29859 159.1132,-1.3731 105.7193,0.99909 162.6146,0.43519 161.3573,-1.59926 -1.2567,-2.03329 56.2812,-2.68563 163.0096,-1.84813 115.8188,0.90883 163.5126,0.28653 160.12,-2.08922 -3.512,-2.45934 4.1872,-3.39707 28.1857,-3.43292 l 33.0176,-0.0493 0,54.7609 0,54.7609 -39.46,-0.0113 c -45.1247,-0.0129 -958.3917,8.89468 -1088.7755,10.61944 l -86.1679,1.13983 0,-52.58182 z"
       id="path5522"
       inkscape:connector-curvature="0" /><path
       style="fill:#000000;fill-opacity:0;stroke:none"
       d="m 1295.5819,643.63896 0,-52.58182 95.8316,-0.0493 c 52.7074,-0.0271 93.9542,-1.24029 91.6596,-2.69591 -2.2946,-1.45563 70.1831,-2.06294 161.0615,-1.3496 99.1646,0.77839 163.5596,0.13089 161.0473,-1.61935 -2.5105,-1.74894 61.182,-2.29859 159.1132,-1.3731 105.7193,0.99909 162.6146,0.43519 161.3573,-1.59926 -1.2567,-2.03329 56.2812,-2.68563 163.0096,-1.84813 115.8188,0.90883 163.5126,0.28653 160.12,-2.08922 -3.512,-2.45934 4.1872,-3.39707 28.1857,-3.43292 l 33.0176,-0.0493 0,54.7609 0,54.7609 -39.46,-0.0113 c -45.1247,-0.0129 -958.3917,8.89468 -1088.7755,10.61944 l -86.1679,1.13983 0,-52.58182 z"
       id="path5524"
       inkscape:connector-curvature="0" /></g><g
     inkscape:groupmode="layer"
     id="layer2"
     inkscape:label="Layer 2"
     style="display:none"
     transform="translate(0,-700.00001)" /><g
     inkscape:groupmode="layer"
     id="layer3"
     inkscape:label="Layer 3"
     style="display:none"
     transform="translate(0,-700.00001)" /><g
     inkscape:groupmode="layer"
     id="layer4"
     inkscape:label="Layer 4"
     style="display:inline"
     transform="translate(0,-700.00001)"><g
       id="g7390"><g
         transform="translate(-469.45558,353.05171)"
         id="text3431"
         style="font-size:40px;font-style:normal;font-variant:normal;font-weight:normal;font-stretch:normal;text-align:start;line-height:125%;letter-spacing:0px;word-spacing:0px;writing-mode:lr-tb;text-anchor:start;fill:#ffffff;fill-opacity:1;stroke:none;font-family:Showcard Gothic;-inkscape-font-specification:Showcard Gothic"><path
           id="path4761"
           style="fill:#ffffff;fill-opacity:1"
           d="m 496.22269,405.55954 -0.83985,12.36328 c -0.48179,-0.0781 -1.52345,-0.21482 -3.125,-0.41016 -1.09376,-0.10414 -2.29168,-0.16925 -3.59375,-0.19531 l -0.29297,3.73047 c 1.43228,0.0391 3.76952,0.007 7.01172,-0.0977 -0.14325,0.48179 -0.37111,1.38023 -0.68359,2.69532 -0.18231,0.79428 -0.34507,1.71225 -0.48828,2.7539 -0.37763,-0.0911 -1.32163,-0.20832 -2.83203,-0.35156 -0.70314,-0.039 -1.74481,-0.0521 -3.125,-0.0391 l -0.19532,4.35547 c 0.97655,-0.013 2.77343,-0.0977 5.39063,-0.25391 0.49477,-0.0391 1.30857,-0.19531 2.44141,-0.46875 -0.10419,0.40365 -0.34508,1.3737 -0.72266,2.91016 -0.18231,0.79427 -0.40367,1.79687 -0.66406,3.00781 l -17.48047,0 -0.56641,-15.3125 c -0.10417,-3.50259 -0.35807,-8.39841 -0.76172,-14.6875 z"
           inkscape:connector-curvature="0" /><path
           id="path4763"
           style="fill:#ffffff;fill-opacity:1"
           d="m 521.88675,405.55954 c -0.18232,2.63024 -0.43622,7.22007 -0.76172,13.76953 -0.19534,4.81772 -0.3581,10.35808 -0.48828,16.62109 -1.70575,-1.34114 -4.30341,-3.33984 -7.79297,-5.99609 -1.51043,-1.05468 -3.76303,-2.63671 -6.75781,-4.74609 l -0.19531,10.35156 -6.28907,0 c -0.10417,-2.64323 -0.34505,-7.6302 -0.72265,-14.96094 -0.32553,-5.93748 -0.65756,-10.95049 -0.9961,-15.03906 l 9.80469,0 7.26563,6.875 c -2e-5,-1.5755 -0.0261,-2.81247 -0.0781,-3.71094 -0.0391,-0.79424 -0.1172,-1.84893 -0.23437,-3.16406 z"
           inkscape:connector-curvature="0" /><path
           id="path4765"
           style="fill:#ffffff;fill-opacity:1"
           d="m 543.78128,429.64157 c -0.13023,0.52084 -0.37111,1.50391 -0.72266,2.94922 -0.18231,0.84636 -0.33856,1.83594 -0.46875,2.96875 l -17.67578,0 c -0.0651,-3.05989 -0.22786,-8.09895 -0.48828,-15.11719 -0.16927,-3.59373 -0.47526,-8.55466 -0.91797,-14.88281 l 13.55469,0 -1.11328,24.88281 c 1.26301,1e-5 3.15753,-0.13671 5.68359,-0.41015 0.52082,-0.0521 1.23696,-0.18229 2.14844,-0.39063 z"
           inkscape:connector-curvature="0" /><path
           id="path4767"
           style="fill:#ffffff;fill-opacity:1"
           d="m 568.56644,435.55954 -10.6836,0 -0.72265,-2.59766 c -0.2995,0.11719 -1.04819,0.51433 -2.2461,1.19141 -0.76824,0.49479 -1.6211,1.15234 -2.55859,1.97266 l -1.11328,-2.36329 c -0.22136,-0.46874 -0.54037,-1.12629 -0.95703,-1.97265 l -1.05469,3.76953 -5.66406,0 c 0.83333,-3.21614 2.12239,-8.52213 3.86718,-15.91797 1.06771,-4.94789 1.95963,-9.6419 2.67579,-14.08203 l 11.73828,0 c 0.36456,2.0443 1.36065,6.80341 2.98828,14.27734 0.89841,3.90627 2.1419,9.14715 3.73047,15.72266 z m -12.32422,-6.40625 c -0.22137,-0.6901 -0.61199,-1.80989 -1.17188,-3.35938 -0.33855,-0.85936 -0.85287,-2.04425 -1.54297,-3.55468 -0.29948,0.75522 -0.76823,1.9922 -1.40625,3.71093 -0.35157,0.9896 -0.76823,2.33725 -1.25,4.04297 0.39062,10e-6 1.27604,-0.0781 2.65625,-0.23437 0.83333,-0.11718 1.73827,-0.31901 2.71485,-0.60547 z"
           inkscape:connector-curvature="0" /><path
           id="path4769"
           style="fill:#ffffff;fill-opacity:1"
           d="m 600.85159,405.55954 c -0.18232,2.7344 -0.44925,7.72138 -0.80078,14.96094 -0.18232,4.45313 -0.31904,9.46615 -0.41015,15.03906 l -7.07032,0 -0.19531,-9.19922 -6.89453,9.92188 -7.44141,-9.84375 -0.19531,9.12109 -7.03125,0 c -0.0912,-2.98177 -0.26693,-8.02083 -0.52734,-15.11719 -0.1823,-4.08852 -0.51433,-9.04945 -0.9961,-14.88281 l 11.19141,0 c 0.39061,0.95055 1.06118,2.48701 2.01172,4.60937 0.72915,1.51045 1.72524,3.2943 2.98828,5.35157 0.55988,-0.8854 1.58852,-2.71482 3.08594,-5.48828 0.53383,-1.02862 1.21742,-2.51951 2.05078,-4.47266 z"
           inkscape:connector-curvature="0" /><path
           id="path4771"
           style="fill:#ffffff;fill-opacity:1"
           d="m 616.04691,405.55954 -0.76172,15.95703 c -0.14325,3.43751 -0.31252,8.1185 -0.50782,14.04297 l -10.95703,0 -1.32812,-30 z"
           inkscape:connector-curvature="0" /><path
           id="path4773"
           style="fill:#ffffff;fill-opacity:1"
           d="m 641.53519,435.55954 -10.6836,0 -0.72265,-2.59766 c -0.2995,0.11719 -1.04819,0.51433 -2.2461,1.19141 -0.76824,0.49479 -1.6211,1.15234 -2.55859,1.97266 l -1.11328,-2.36329 c -0.22136,-0.46874 -0.54037,-1.12629 -0.95703,-1.97265 l -1.05469,3.76953 -5.66406,0 c 0.83333,-3.21614 2.12239,-8.52213 3.86718,-15.91797 1.06771,-4.94789 1.95963,-9.6419 2.67579,-14.08203 l 11.73828,0 c 0.36456,2.0443 1.36065,6.80341 2.98828,14.27734 0.89841,3.90627 2.1419,9.14715 3.73047,15.72266 z m -12.32422,-6.40625 c -0.22137,-0.6901 -0.61199,-1.80989 -1.17188,-3.35938 -0.33855,-0.85936 -0.85287,-2.04425 -1.54297,-3.55468 -0.29948,0.75522 -0.76823,1.9922 -1.40625,3.71093 -0.35157,0.9896 -0.76823,2.33725 -1.25,4.04297 0.39062,10e-6 1.27604,-0.0781 2.65625,-0.23437 0.83333,-0.11718 1.73827,-0.31901 2.71485,-0.60547 z"
           inkscape:connector-curvature="0" /><path
           id="path4775"
           style="fill:#ffffff;fill-opacity:1"
           d="m 668.44925,419.91501 c -3e-5,4.59636 -1.18492,8.48308 -3.55469,11.66015 -2.487,3.32032 -5.67059,4.98047 -9.55078,4.98047 -3.99741,0 -7.23308,-1.67317 -9.70703,-5.01953 -2.33073,-3.15103 -3.4961,-7.02473 -3.49609,-11.62109 -10e-6,-4.90884 1.26952,-8.763 3.80859,-11.5625 2.39583,-2.63018 5.52733,-3.94528 9.39453,-3.94531 3.80207,3e-5 6.90102,1.32164 9.29688,3.96484 2.53903,2.81252 3.80856,6.66018 3.80859,11.54297 z m -9.39453,3.4375 c -2e-5,-3.61978 -1.22398,-5.42967 -3.67188,-5.42969 -2.38282,2e-5 -3.57423,1.82293 -3.57422,5.46875 -10e-6,1.45835 0.31249,2.81902 0.9375,4.08203 0.70312,1.41928 1.569,2.12891 2.59766,2.12891 1.00259,0 1.88801,-0.72265 2.65625,-2.16797 0.70311,-1.31509 1.05467,-2.67577 1.05469,-4.08203 z"
           inkscape:connector-curvature="0" /></g><text
         sodipodi:linespacing="125%"
         id="text6990"
         y="741.9173"
         x="30.194855"
         style="font-size:40px;font-style:normal;font-variant:normal;font-weight:normal;font-stretch:normal;text-align:start;line-height:125%;letter-spacing:0px;word-spacing:0px;writing-mode:lr-tb;text-anchor:start;fill:#ffffff;fill-opacity:1;stroke:none;font-family:FZLanTingHeiS-UL-GB;-inkscape-font-specification:FZLanTingHeiS-UL-GB"
         xml:space="preserve"><tspan
           y="741.9173"
           x="30.194855"
           id="tspan6992"
           sodipodi:role="line">嗯 啦 喵</tspan></text>
</g></g></svg>