<?xml version="1.0" encoding="UTF-8" standalone="no"?>
<svg
   xmlns:dc="http://purl.org/dc/elements/1.1/"
   xmlns:cc="http://creativecommons.org/ns#"
   xmlns:rdf="http://www.w3.org/1999/02/22-rdf-syntax-ns#"
   xmlns:svg="http://www.w3.org/2000/svg"
   xmlns="http://www.w3.org/2000/svg"
   xmlns:sodipodi="http://sodipodi.sourceforge.net/DTD/sodipodi-0.dtd"
   xmlns:inkscape="http://www.inkscape.org/namespaces/inkscape"
   viewBox="0 0 1140 800"
   height="800"
   width="1140"
   xml:space="preserve"
   id="svg2"
   version="1.1"
   inkscape:version="0.91 r13725"
   sodipodi:docname="logo9.svg"><sodipodi:namedview
     pagecolor="#ffffff"
     bordercolor="#666666"
     borderopacity="1"
     objecttolerance="10"
     gridtolerance="10"
     guidetolerance="10"
     inkscape:pageopacity="0"
     inkscape:pageshadow="2"
     inkscape:window-width="1366"
     inkscape:window-height="666"
     id="namedview4358"
     showgrid="false"
     inkscape:zoom="0.620881"
     inkscape:cx="574.78281"
     inkscape:cy="401.28464"
     inkscape:window-x="0"
     inkscape:window-y="0"
     inkscape:window-maximized="1"
     inkscape:current-layer="svg2" /><metadata
     id="metadata8"><rdf:RDF><cc:Work
         rdf:about=""><dc:format>image/svg+xml</dc:format><dc:type
           rdf:resource="http://purl.org/dc/dcmitype/StillImage" /><dc:title></dc:title></cc:Work></rdf:RDF></metadata><defs
     id="defs6"><clipPath
       id="clipPath20"
       clipPathUnits="userSpaceOnUse"><path
         id="path18"
         d="m 0,0 0,2351.9 3359.86,0 L 3359.86,0 0,0"
         inkscape:connector-curvature="0" /></clipPath><clipPath
       id="clipPath110"
       clipPathUnits="userSpaceOnUse"><path
         id="path108"
         d="M 0,2351.9 0,0 l 3359.86,0 0,2351.9 z"
         inkscape:connector-curvature="0" /></clipPath><clipPath
       id="clipPath218"
       clipPathUnits="userSpaceOnUse"><path
         id="path216"
         d="m 1055.36,465.949 -55.887,0 0,74.012 55.887,0 0,-74.012"
         inkscape:connector-curvature="0" /></clipPath><clipPath
       id="clipPath228"
       clipPathUnits="userSpaceOnUse"><path
         id="path226"
         d="M 0,2351.9 0,0 l 3359.86,0 0,2351.9 z"
         inkscape:connector-curvature="0" /></clipPath><clipPath
       id="clipPath494"
       clipPathUnits="userSpaceOnUse"><path
         id="path492"
         d="m 108.34,1864.14 c 0,115.06 93.273,208.33 208.34,208.33 13.843,0 27.367,-1.38 40.453,-3.96 21.422,57.84 77.062,99.07 142.34,99.07 63.593,0 118.011,-39.15 140.574,-94.63 12.23,5.84 25.906,9.12 40.344,9.12 51.703,0 93.609,-41.91 93.609,-93.6 0,-2.28 -0.109,-4.54 -0.273,-6.79 69.066,-5.9 123.289,-63.78 123.289,-134.36 l -787.954,0 c -0.433,5.55 -0.722,11.16 -0.722,16.82"
         inkscape:connector-curvature="0" /></clipPath><clipPath
       id="clipPath522"
       clipPathUnits="userSpaceOnUse"><path
         id="path520"
         d="m 1464.59,2006.21 c 0,81.47 -66.04,147.52 -147.51,147.52 -9.82,0 -19.39,-0.98 -28.67,-2.81 -15.14,40.96 -54.56,70.15 -100.77,70.15 -45.02,0 -83.56,-27.71 -99.54,-67.01 -8.66,4.14 -18.34,6.46 -28.57,6.46 -36.61,0 -66.272,-29.67 -66.272,-66.27 0,-1.62 0.078,-3.22 0.187,-4.8 -48.902,-4.19 -87.289,-45.17 -87.289,-95.15 l 557.924,0 c 0.3,3.93 0.51,7.9 0.51,11.91"
         inkscape:connector-curvature="0" /></clipPath><clipPath
       id="clipPath544"
       clipPathUnits="userSpaceOnUse"><path
         id="path542"
         d="M 0,2351.9 0,0 l 3359.86,0 0,2351.9 z"
         inkscape:connector-curvature="0" /></clipPath><clipPath
       id="clipPath558"
       clipPathUnits="userSpaceOnUse"><path
         id="path556"
         d="m 1836.02,1793.82 c 0,54.7 -44.35,99.04 -99.03,99.04 -6.59,0 -13.02,-0.66 -19.25,-1.88 -10.16,27.49 -36.61,47.09 -67.64,47.09 -30.23,0 -56.1,-18.61 -66.83,-44.99 -5.81,2.78 -12.32,4.34 -19.19,4.34 -24.56,0 -44.48,-19.92 -44.48,-44.49 0,-1.09 0.05,-2.17 0.12,-3.24 -32.82,-2.8 -58.61,-30.31 -58.61,-63.87 l 374.56,0 c 0.21,2.65 0.35,5.31 0.35,8"
         inkscape:connector-curvature="0" /></clipPath><clipPath
       id="clipPath584"
       clipPathUnits="userSpaceOnUse"><path
         id="path582"
         d="m 2191.7,1605.66 c 0,30.54 -24.77,55.3 -55.31,55.3 -3.67,0 -7.27,-0.37 -10.74,-1.06 -5.68,15.35 -20.46,26.3 -37.78,26.3 -16.88,0 -31.33,-10.39 -37.31,-25.12 -3.25,1.55 -6.88,2.42 -10.71,2.42 -13.74,0 -24.85,-11.12 -24.85,-24.85 l 0.07,-1.8 c -18.33,-1.56 -32.73,-16.92 -32.73,-35.66 l 209.16,0 c 0.12,1.47 0.2,2.96 0.2,4.47"
         inkscape:connector-curvature="0" /></clipPath><clipPath
       id="clipPath600"
       clipPathUnits="userSpaceOnUse"><path
         id="path598"
         d="m 3095.01,2069.65 c 0,30.54 -24.74,55.3 -55.23,55.3 -3.69,0 -7.26,-0.37 -10.74,-1.05 -5.66,15.35 -20.42,26.3 -37.72,26.3 -16.87,0 -31.29,-10.4 -37.27,-25.13 -3.24,1.55 -6.87,2.43 -10.7,2.43 -13.69,0 -24.81,-11.13 -24.81,-24.85 l 0.07,-1.8 c -18.31,-1.56 -32.68,-16.93 -32.68,-35.67 l 208.87,0 c 0.13,1.48 0.21,2.96 0.21,4.47"
         inkscape:connector-curvature="0" /></clipPath><clipPath
       id="clipPath612"
       clipPathUnits="userSpaceOnUse"><path
         id="path610"
         d="m 2024.79,2003.7 c 0,49.36 -40.02,89.37 -89.39,89.37 -5.95,0 -11.75,-0.59 -17.37,-1.69 -9.18,24.81 -33.05,42.5 -61.06,42.5 -27.29,0 -50.63,-16.79 -60.31,-40.6 -5.24,2.51 -11.12,3.91 -17.3,3.91 -22.18,0 -40.16,-17.97 -40.16,-40.15 0,-0.98 0.04,-1.95 0.12,-2.92 -29.64,-2.52 -52.91,-27.36 -52.91,-57.64 l 338.06,0 c 0.19,2.38 0.32,4.79 0.32,7.22"
         inkscape:connector-curvature="0" /></clipPath><clipPath
       id="clipPath628"
       clipPathUnits="userSpaceOnUse"><path
         id="path626"
         d="M 0,2351.9 0,0 l 3359.86,0 0,2351.9 z"
         inkscape:connector-curvature="0" /></clipPath></defs><g
     id="g5454"
     transform="matrix(2.544749,0,0,2.5511289,2.0937991,0.56367562)"><g
       transform="matrix(0.13333333,0,0,-0.13333333,0,313.58667)"
       id="g14"><g
         id="g16"
         clip-path="url(#clipPath20)"><path
           inkscape:connector-curvature="0"
           d="M 0,0 3359.86,0 0,0"
           style="fill:#ffffff;fill-opacity:1;fill-rule:nonzero;stroke:none"
           id="path22" /><path
           inkscape:connector-curvature="0"
           d="m 0,0 3359.86,0 0,60.3203 -3359.86,0 z"
           style="fill:#ffffff;fill-opacity:1;fill-rule:nonzero;stroke:none"
           id="path24" /><path
           inkscape:connector-curvature="0"
           d="m 0,60.3203 3359.86,0 0,60.2891 -3359.86,0 z"
           style="fill:#ffffff;fill-opacity:1;fill-rule:nonzero;stroke:none"
           id="path26" /><path
           inkscape:connector-curvature="0"
           d="m 0,120.609 3359.86,0 0,60.3008 -3359.86,0 z"
           style="fill:#feffff;fill-opacity:1;fill-rule:nonzero;stroke:none"
           id="path28" /><path
           inkscape:connector-curvature="0"
           d="m 0,180.91 3359.86,0 0,60.3086 -3359.86,0 z"
           style="fill:#fcfeff;fill-opacity:1;fill-rule:nonzero;stroke:none"
           id="path30" /><path
           inkscape:connector-curvature="0"
           d="m 0,241.219 3359.86,0 0,60.3203 -3359.86,0 z"
           style="fill:#fbfefd;fill-opacity:1;fill-rule:nonzero;stroke:none"
           id="path32" /><path
           inkscape:connector-curvature="0"
           d="m 0,301.539 3359.86,0 0,60.2891 -3359.86,0 z"
           style="fill:#fafdfd;fill-opacity:1;fill-rule:nonzero;stroke:none"
           id="path34" /><path
           inkscape:connector-curvature="0"
           d="m 0,361.828 3359.86,0 0,60.3008 -3359.86,0 z"
           style="fill:#f8fdfd;fill-opacity:1;fill-rule:nonzero;stroke:none"
           id="path36" /><path
           inkscape:connector-curvature="0"
           d="m 0,422.129 3359.86,0 0,60.3008 -3359.86,0 z"
           style="fill:#f7fbfb;fill-opacity:1;fill-rule:nonzero;stroke:none"
           id="path38" /><path
           inkscape:connector-curvature="0"
           d="m 0,482.43 3359.86,0 0,60.3203 -3359.86,0 z"
           style="fill:#f6fcfb;fill-opacity:1;fill-rule:nonzero;stroke:none"
           id="path40" /><path
           inkscape:connector-curvature="0"
           d="m 0,542.75 3359.86,0 0,60.3008 -3359.86,0 z"
           style="fill:#f5fafa;fill-opacity:1;fill-rule:nonzero;stroke:none"
           id="path42" /><path
           inkscape:connector-curvature="0"
           d="m 0,603.051 3359.86,0 0,60.3008 -3359.86,0 z"
           style="fill:#f3fbfa;fill-opacity:1;fill-rule:nonzero;stroke:none"
           id="path44" /><path
           inkscape:connector-curvature="0"
           d="m 0,663.352 3359.86,0 0,60.3203 -3359.86,0 z"
           style="fill:#f2f9fa;fill-opacity:1;fill-rule:nonzero;stroke:none"
           id="path46" /><path
           inkscape:connector-curvature="0"
           d="m 0,723.672 3359.86,0 0,60.2969 -3359.86,0 z"
           style="fill:#f1faf8;fill-opacity:1;fill-rule:nonzero;stroke:none"
           id="path48" /><path
           inkscape:connector-curvature="0"
           d="m 0,783.969 3359.86,0 0,60.3008 -3359.86,0 z"
           style="fill:#eff8f8;fill-opacity:1;fill-rule:nonzero;stroke:none"
           id="path50" /><path
           inkscape:connector-curvature="0"
           d="m 0,844.27 3359.86,0 0,60.3008 -3359.86,0 z"
           style="fill:#edf8f6;fill-opacity:1;fill-rule:nonzero;stroke:none"
           id="path52" /><path
           inkscape:connector-curvature="0"
           d="m 0,904.57 3359.86,0 0,60.3203 -3359.86,0 z"
           style="fill:#ecf7f6;fill-opacity:1;fill-rule:nonzero;stroke:none"
           id="path54" /><path
           inkscape:connector-curvature="0"
           d="m 0,964.891 3359.86,0 0,60.3008 -3359.86,0 z"
           style="fill:#ebf7f6;fill-opacity:1;fill-rule:nonzero;stroke:none"
           id="path56" /><path
           inkscape:connector-curvature="0"
           d="m 0,1025.19 3359.86,0 0,60.2969 -3359.86,0 z"
           style="fill:#e9f6f4;fill-opacity:1;fill-rule:nonzero;stroke:none"
           id="path58" /><path
           inkscape:connector-curvature="0"
           d="m 0,1085.49 3359.86,0 0,60.3203 -3359.86,0 z"
           style="fill:#e8f6f4;fill-opacity:1;fill-rule:nonzero;stroke:none"
           id="path60" /><path
           inkscape:connector-curvature="0"
           d="m 0,1145.81 3359.86,0 0,60.293 -3359.86,0 z"
           style="fill:#e7f4f5;fill-opacity:1;fill-rule:nonzero;stroke:none"
           id="path62" /><path
           inkscape:connector-curvature="0"
           d="m 0,1206.1 3359.86,0 0,60.3086 -3359.86,0 z"
           style="fill:#e4f3f3;fill-opacity:1;fill-rule:nonzero;stroke:none"
           id="path64" /><path
           inkscape:connector-curvature="0"
           d="m 0,1266.41 3359.86,0 0,60.3008 -3359.86,0 z"
           style="fill:#e3f4f3;fill-opacity:1;fill-rule:nonzero;stroke:none"
           id="path66" /><path
           inkscape:connector-curvature="0"
           d="m 0,1326.71 3359.86,0 0,60.3125 -3359.86,0 z"
           style="fill:#e2f2f2;fill-opacity:1;fill-rule:nonzero;stroke:none"
           id="path68" /><path
           inkscape:connector-curvature="0"
           d="m 0,1387.02 3359.86,0 0,60.3047 -3359.86,0 z"
           style="fill:#e1f3f2;fill-opacity:1;fill-rule:nonzero;stroke:none"
           id="path70" /><path
           inkscape:connector-curvature="0"
           d="m 0,1447.33 3359.86,0 0,60.3047 -3359.86,0 z"
           style="fill:#e0f1f2;fill-opacity:1;fill-rule:nonzero;stroke:none"
           id="path72" /><path
           inkscape:connector-curvature="0"
           d="m 0,1507.63 3359.86,0 0,60.2969 -3359.86,0 z"
           style="fill:#dff2f1;fill-opacity:1;fill-rule:nonzero;stroke:none"
           id="path74" /><path
           inkscape:connector-curvature="0"
           d="m 0,1567.93 3359.86,0 0,60.3086 -3359.86,0 z"
           style="fill:#ddf1f1;fill-opacity:1;fill-rule:nonzero;stroke:none"
           id="path76" /><path
           inkscape:connector-curvature="0"
           d="m 0,1628.24 3359.86,0 0,60.3086 -3359.86,0 z"
           style="fill:#dcf1f0;fill-opacity:1;fill-rule:nonzero;stroke:none"
           id="path78" /><path
           inkscape:connector-curvature="0"
           d="m 0,1688.55 3359.86,0 0,60.3047 -3359.86,0 z"
           style="fill:#dbf0f0;fill-opacity:1;fill-rule:nonzero;stroke:none"
           id="path80" /><path
           inkscape:connector-curvature="0"
           d="m 0,1748.85 3359.86,0 0,60.2969 -3359.86,0 z"
           style="fill:#daf1f0;fill-opacity:1;fill-rule:nonzero;stroke:none"
           id="path82" /><path
           inkscape:connector-curvature="0"
           d="m 0,1809.15 3359.86,0 0,60.3125 -3359.86,0 z"
           style="fill:#d9efef;fill-opacity:1;fill-rule:nonzero;stroke:none"
           id="path84" /><path
           inkscape:connector-curvature="0"
           d="m 0,1869.46 3359.86,0 0,60.3008 -3359.86,0 z"
           style="fill:#d8f0ef;fill-opacity:1;fill-rule:nonzero;stroke:none"
           id="path86" /><path
           inkscape:connector-curvature="0"
           d="m 0,1929.76 3359.86,0 0,60.3125 -3359.86,0 z"
           style="fill:#d7efee;fill-opacity:1;fill-rule:nonzero;stroke:none"
           id="path88" /><path
           inkscape:connector-curvature="0"
           d="m 0,1990.07 3359.86,0 0,60.3047 -3359.86,0 z"
           style="fill:#d6efee;fill-opacity:1;fill-rule:nonzero;stroke:none"
           id="path90" /><path
           inkscape:connector-curvature="0"
           d="m 0,2050.38 3359.86,0 0,60.3086 -3359.86,0 z"
           style="fill:#d5eeee;fill-opacity:1;fill-rule:nonzero;stroke:none"
           id="path92" /><path
           inkscape:connector-curvature="0"
           d="m 0,2170.98 3359.86,0.01 0,-60.3 -3359.86,0 0,60.29"
           style="fill:#d3eeed;fill-opacity:1;fill-rule:nonzero;stroke:none"
           id="path94" /><path
           inkscape:connector-curvature="0"
           d="m 0,2231.29 3359.86,0 0,-60.3 L 0,2170.98 l 0,60.31"
           style="fill:#d2eded;fill-opacity:1;fill-rule:nonzero;stroke:none"
           id="path96" /><path
           inkscape:connector-curvature="0"
           d="m 0,2231.29 3359.86,0 0,60.3086 -3359.86,0 z"
           style="fill:#d1edec;fill-opacity:1;fill-rule:nonzero;stroke:none"
           id="path98" /><path
           inkscape:connector-curvature="0"
           d="m 0,2291.6 3359.86,0 0,60.3008 -3359.86,0 z"
           style="fill:#d0ecec;fill-opacity:1;fill-rule:nonzero;stroke:none"
           id="path100" /><path
           inkscape:connector-curvature="0"
           d="m 3359.86,2351.9 -3359.86,0 3359.86,0"
           style="fill:#d0ecec;fill-opacity:1;fill-rule:nonzero;stroke:none"
           id="path102" /></g></g><g
       transform="matrix(0.13333333,0,0,-0.13333333,0,313.58667)"
       id="g104"><g
         id="g106"
         clip-path="url(#clipPath110)"><path
           inkscape:connector-curvature="0"
           d="m 3092.98,1263.82 0,-364.172 -281.87,0 0,373.842 -136.89,120.03 -132.5,-117.24 0,-306.792 -19.95,0 0,162.132 -172.11,0 0,-152.159 -82.32,0 0,473.919 -389.12,0 0,-483.892 -144.67,0 0,364.162 -174.59,0 0,-364.162 -172.12,0 0,289.342 -79.93,0 0,39.64 -41.58,0 0,40.31 -42.08,0 0,81.28 -13.47,0 0,-81.28 -41.6,0 0,-40.31 -42.05,0 0,-39.64 -68.54,0 0,-209.36 -239.457,0 0,118.31 -239.442,0 0,-198.292 -276.879,0 0,266.892 -159.64,129.69 L 0,1243.86 0,420.73 l 3359.86,0 0,843.09 -266.88,0"
           style="fill:#a8b9c0;fill-opacity:1;fill-rule:nonzero;stroke:none"
           id="path112" /><path
           inkscape:connector-curvature="0"
           d="m 449.996,421.102 432.484,0 0,628.867 -432.484,0 z"
           style="fill:#528a92;fill-opacity:1;fill-rule:nonzero;stroke:none"
           id="path114" /><path
           inkscape:connector-curvature="0"
           d="m 502.672,946.211 37.0195,0 0,54.1406 -37.0195,0 z"
           style="fill:#ffffff;fill-opacity:1;fill-rule:nonzero;stroke:none"
           id="path116" /><path
           inkscape:connector-curvature="0"
           d="m 575.879,946.211 37.0273,0 0,54.1406 -37.0273,0 z"
           style="fill:#afcecd;fill-opacity:1;fill-rule:nonzero;stroke:none"
           id="path118" /><path
           inkscape:connector-curvature="0"
           d="m 649.094,946.211 37.0195,0 0,54.1406 -37.0195,0 z"
           style="fill:#fbbf58;fill-opacity:1;fill-rule:nonzero;stroke:none"
           id="path120" /><path
           inkscape:connector-curvature="0"
           d="m 722.301,946.211 37.0234,0 0,54.1406 -37.0234,0 z"
           style="fill:#afcecd;fill-opacity:1;fill-rule:nonzero;stroke:none"
           id="path122" /><path
           inkscape:connector-curvature="0"
           d="m 795.508,946.211 37.0273,0 0,54.1406 -37.0273,0 z"
           style="fill:#ffffff;fill-opacity:1;fill-rule:nonzero;stroke:none"
           id="path124" /><path
           inkscape:connector-curvature="0"
           d="m 502.672,854.391 37.0195,0 0,54.1289 -37.0195,0 z"
           style="fill:#afcecd;fill-opacity:1;fill-rule:nonzero;stroke:none"
           id="path126" /><path
           inkscape:connector-curvature="0"
           d="m 575.879,854.391 37.0273,0 0,54.1289 -37.0273,0 z"
           style="fill:#afcecd;fill-opacity:1;fill-rule:nonzero;stroke:none"
           id="path128" /><path
           inkscape:connector-curvature="0"
           d="m 649.094,854.391 37.0195,0 0,54.1289 -37.0195,0 z"
           style="fill:#ffffff;fill-opacity:1;fill-rule:nonzero;stroke:none"
           id="path130" /><path
           inkscape:connector-curvature="0"
           d="m 722.301,854.391 37.0234,0 0,54.1289 -37.0234,0 z"
           style="fill:#afcecd;fill-opacity:1;fill-rule:nonzero;stroke:none"
           id="path132" /><path
           inkscape:connector-curvature="0"
           d="m 795.508,854.391 37.0273,0 0,54.1289 -37.0273,0 z"
           style="fill:#ffffff;fill-opacity:1;fill-rule:nonzero;stroke:none"
           id="path134" /><path
           inkscape:connector-curvature="0"
           d="m 502.672,767.059 37.0195,0 0,54.1211 -37.0195,0 z"
           style="fill:#ffffff;fill-opacity:1;fill-rule:nonzero;stroke:none"
           id="path136" /><path
           inkscape:connector-curvature="0"
           d="m 575.879,767.059 37.0273,0 0,54.1211 -37.0273,0 z"
           style="fill:#fbbf58;fill-opacity:1;fill-rule:nonzero;stroke:none"
           id="path138" /><path
           inkscape:connector-curvature="0"
           d="m 649.094,767.059 37.0195,0 0,54.1211 -37.0195,0 z"
           style="fill:#ffffff;fill-opacity:1;fill-rule:nonzero;stroke:none"
           id="path140" /><path
           inkscape:connector-curvature="0"
           d="m 722.301,767.059 37.0234,0 0,54.1211 -37.0234,0 z"
           style="fill:#ffffff;fill-opacity:1;fill-rule:nonzero;stroke:none"
           id="path142" /><path
           inkscape:connector-curvature="0"
           d="m 795.508,767.059 37.0273,0 0,54.1211 -37.0273,0 z"
           style="fill:#afcecd;fill-opacity:1;fill-rule:nonzero;stroke:none"
           id="path144" /><path
           inkscape:connector-curvature="0"
           d="m 502.672,578.93 37.0195,0 0,54.1406 -37.0195,0 z"
           style="fill:#afcecd;fill-opacity:1;fill-rule:nonzero;stroke:none"
           id="path146" /><path
           inkscape:connector-curvature="0"
           d="m 575.879,578.93 37.0273,0 0,54.1406 -37.0273,0 z"
           style="fill:#afcecd;fill-opacity:1;fill-rule:nonzero;stroke:none"
           id="path148" /><path
           inkscape:connector-curvature="0"
           d="m 649.094,578.93 37.0195,0 0,54.1406 -37.0195,0 z"
           style="fill:#ffffff;fill-opacity:1;fill-rule:nonzero;stroke:none"
           id="path150" /><path
           inkscape:connector-curvature="0"
           d="m 722.301,578.93 37.0234,0 0,54.1406 -37.0234,0 z"
           style="fill:#ffffff;fill-opacity:1;fill-rule:nonzero;stroke:none"
           id="path152" /><path
           inkscape:connector-curvature="0"
           d="m 795.508,578.93 37.0273,0 0,54.1406 -37.0273,0 z"
           style="fill:#ffffff;fill-opacity:1;fill-rule:nonzero;stroke:none"
           id="path154" /><path
           inkscape:connector-curvature="0"
           d="m 502.672,670.719 37.0195,0 0,54.1211 -37.0195,0 z"
           style="fill:#ffffff;fill-opacity:1;fill-rule:nonzero;stroke:none"
           id="path156" /><path
           inkscape:connector-curvature="0"
           d="m 575.879,670.719 37.0273,0 0,54.1211 -37.0273,0 z"
           style="fill:#ffffff;fill-opacity:1;fill-rule:nonzero;stroke:none"
           id="path158" /><path
           inkscape:connector-curvature="0"
           d="m 649.094,670.719 37.0195,0 0,54.1211 -37.0195,0 z"
           style="fill:#afcecd;fill-opacity:1;fill-rule:nonzero;stroke:none"
           id="path160" /><path
           inkscape:connector-curvature="0"
           d="m 722.301,670.719 37.0234,0 0,54.1211 -37.0234,0 z"
           style="fill:#ffffff;fill-opacity:1;fill-rule:nonzero;stroke:none"
           id="path162" /><path
           inkscape:connector-curvature="0"
           d="m 795.508,670.719 37.0273,0 0,54.1211 -37.0273,0 z"
           style="fill:#ffffff;fill-opacity:1;fill-rule:nonzero;stroke:none"
           id="path164" /><path
           inkscape:connector-curvature="0"
           d="m 502.672,487.051 37.0195,0 0,54.1211 -37.0195,0 z"
           style="fill:#ffffff;fill-opacity:1;fill-rule:nonzero;stroke:none"
           id="path166" /><path
           inkscape:connector-curvature="0"
           d="m 575.879,487.051 37.0273,0 0,54.1211 -37.0273,0 z"
           style="fill:#ffffff;fill-opacity:1;fill-rule:nonzero;stroke:none"
           id="path168" /><path
           inkscape:connector-curvature="0"
           d="m 649.094,487.051 37.0195,0 0,54.1211 -37.0195,0 z"
           style="fill:#ffffff;fill-opacity:1;fill-rule:nonzero;stroke:none"
           id="path170" /><path
           inkscape:connector-curvature="0"
           d="m 722.301,487.051 37.0234,0 0,54.1211 -37.0234,0 z"
           style="fill:#afcecd;fill-opacity:1;fill-rule:nonzero;stroke:none"
           id="path172" /><path
           inkscape:connector-curvature="0"
           d="m 795.508,487.051 37.0273,0 0,54.1211 -37.0273,0 z"
           style="fill:#fbbf58;fill-opacity:1;fill-rule:nonzero;stroke:none"
           id="path174" /><path
           inkscape:connector-curvature="0"
           d="m 1915.47,971.531 7.2109,0 0,92.1289 -7.2109,0 z"
           style="fill:#183654;fill-opacity:1;fill-rule:nonzero;stroke:none"
           id="path176" /><path
           inkscape:connector-curvature="0"
           d="m 2014.99,1014.44 -92.31,0 0,49.22 92.31,0 -13.12,-24.45 13.12,-24.77"
           style="fill:#e24644;fill-opacity:1;fill-rule:nonzero;stroke:none"
           id="path178" /><path
           inkscape:connector-curvature="0"
           d="m 61.9688,419.59 302.777,0 0,525.031 -302.777,0 z"
           style="fill:#d0ecec;fill-opacity:1;fill-rule:nonzero;stroke:none"
           id="path180" /><path
           inkscape:connector-curvature="0"
           d="m 48.4688,944.621 329.785,0 0,30 -329.785,0 z"
           style="fill:#e24644;fill-opacity:1;fill-rule:nonzero;stroke:none"
           id="path182" /><path
           inkscape:connector-curvature="0"
           d="m 2856.8,1180.04 483.898,0 0,30 -483.898,0 z"
           style="fill:#e24644;fill-opacity:1;fill-rule:nonzero;stroke:none"
           id="path184" /><path
           inkscape:connector-curvature="0"
           d="m 224.734,566.648 105.672,0 0,88.8711 -105.672,0 z"
           style="fill:#ffffff;fill-opacity:1;fill-rule:nonzero;stroke:none"
           id="path186" /><path
           inkscape:connector-curvature="0"
           d="m 96.3125,566.648 105.664,0 0,88.8711 -105.664,0 z"
           style="fill:#fbbf58;fill-opacity:1;fill-rule:nonzero;stroke:none"
           id="path188" /><path
           inkscape:connector-curvature="0"
           d="m 224.734,675.629 105.672,0 0,88.8828 -105.672,0 z"
           style="fill:#ffffff;fill-opacity:1;fill-rule:nonzero;stroke:none"
           id="path190" /><path
           inkscape:connector-curvature="0"
           d="m 96.3125,675.629 105.664,0 0,88.8828 -105.664,0 z"
           style="fill:#ffffff;fill-opacity:1;fill-rule:nonzero;stroke:none"
           id="path192" /><path
           inkscape:connector-curvature="0"
           d="m 224.734,784.609 105.672,0 0,88.8789 -105.672,0 z"
           style="fill:#ffffff;fill-opacity:1;fill-rule:nonzero;stroke:none"
           id="path194" /><path
           inkscape:connector-curvature="0"
           d="m 96.3125,784.609 105.664,0 0,88.8789 -105.664,0 z"
           style="fill:#ffffff;fill-opacity:1;fill-rule:nonzero;stroke:none"
           id="path196" /><path
           inkscape:connector-curvature="0"
           d="m 96.3125,419.59 105.664,0 0,115.699 -105.664,0 z"
           style="fill:#183654;fill-opacity:1;fill-rule:nonzero;stroke:none"
           id="path198" /><path
           inkscape:connector-curvature="0"
           d="m 2381.45,422.609 405.293,0 0,519.16 -405.293,0 z"
           style="fill:#e24644;fill-opacity:1;fill-rule:nonzero;stroke:none"
           id="path200" /><path
           inkscape:connector-curvature="0"
           d="m 957.555,420.941 307.387,0 0,411.027 -307.387,0 z"
           style="fill:#e24644;fill-opacity:1;fill-rule:nonzero;stroke:none"
           id="path202" /><path
           inkscape:connector-curvature="0"
           d="m 2358.67,941.77 450.828,0 0,28.4609 -450.828,0 z"
           style="fill:#183654;fill-opacity:1;fill-rule:nonzero;stroke:none"
           id="path204" /><path
           inkscape:connector-curvature="0"
           d="m 941.34,831.969 339.832,0 0,28.4609 -339.832,0 z"
           style="fill:#183654;fill-opacity:1;fill-rule:nonzero;stroke:none"
           id="path206" /><path
           inkscape:connector-curvature="0"
           d="m 1265.17,555.148 178.359,0 0,28.4609 -178.359,0 z"
           style="fill:#183654;fill-opacity:1;fill-rule:nonzero;stroke:none"
           id="path208" /><path
           inkscape:connector-curvature="0"
           d="m 2430.38,463.309 55.9102,0 0,74.0312 -55.9102,0 z"
           style="fill:#498c95;fill-opacity:1;fill-rule:nonzero;stroke:none"
           id="path210" /></g></g><g
       transform="matrix(0.13333333,0,0,-0.13333333,0,313.58667)"
       id="g212"><g
         id="g214"
         clip-path="url(#clipPath218)"><path
           inkscape:connector-curvature="0"
           d="m 999.473,465.949 55.8867,0 0,74.0117 -55.8867,0 z"
           style="fill:#f1a7a6;fill-opacity:1;fill-rule:nonzero;stroke:none"
           id="path220" /></g></g><g
       transform="matrix(0.13333333,0,0,-0.13333333,0,313.58667)"
       id="g222"><g
         id="g224"
         clip-path="url(#clipPath228)"><path
           inkscape:connector-curvature="0"
           d="m 1083.3,465.949 55.8984,0 0,74.0117 -55.8984,0 z"
           style="fill:#fbbf58;fill-opacity:1;fill-rule:nonzero;stroke:none"
           id="path230" /><path
           inkscape:connector-curvature="0"
           d="m 1167.13,465.949 55.8906,0 0,74.0117 -55.8906,0 z"
           style="fill:#f1a7a6;fill-opacity:1;fill-rule:nonzero;stroke:none"
           id="path232" /><path
           inkscape:connector-curvature="0"
           d="m 999.473,587.191 55.8867,0 0,74.0078 -55.8867,0 z"
           style="fill:#ffffff;fill-opacity:1;fill-rule:nonzero;stroke:none"
           id="path234" /><path
           inkscape:connector-curvature="0"
           d="m 1083.3,587.191 55.8984,0 0,74.0078 -55.8984,0 z"
           style="fill:#f1a7a6;fill-opacity:1;fill-rule:nonzero;stroke:none"
           id="path236" /><path
           inkscape:connector-curvature="0"
           d="m 1167.13,587.191 55.8906,0 0,74.0078 -55.8906,0 z"
           style="fill:#f89f21;fill-opacity:1;fill-rule:nonzero;stroke:none"
           id="path238" /><path
           inkscape:connector-curvature="0"
           d="m 999.473,708.449 55.8867,0 0,74.0117 -55.8867,0 z"
           style="fill:#f89f21;fill-opacity:1;fill-rule:nonzero;stroke:none"
           id="path240" /><path
           inkscape:connector-curvature="0"
           d="m 1083.3,708.449 55.8984,0 0,74.0117 -55.8984,0 z"
           style="fill:#ffffff;fill-opacity:1;fill-rule:nonzero;stroke:none"
           id="path242" /><path
           inkscape:connector-curvature="0"
           d="m 1167.13,708.449 55.8906,0 0,74.0117 -55.8906,0 z"
           style="fill:#ffffff;fill-opacity:1;fill-rule:nonzero;stroke:none"
           id="path244" /><path
           inkscape:connector-curvature="0"
           d="m 2528.3,422.609 111.57,0 0,114.73 -111.57,0 z"
           style="fill:#183654;fill-opacity:1;fill-rule:nonzero;stroke:none"
           id="path246" /><path
           inkscape:connector-curvature="0"
           d="m 2681.89,463.309 55.8906,0 0,74.0312 -55.8906,0 z"
           style="fill:#d0ecec;fill-opacity:1;fill-rule:nonzero;stroke:none"
           id="path248" /><path
           inkscape:connector-curvature="0"
           d="m 2430.38,584.578 55.9102,0 0,74 -55.9102,0 z"
           style="fill:#ffffff;fill-opacity:1;fill-rule:nonzero;stroke:none"
           id="path250" /><path
           inkscape:connector-curvature="0"
           d="m 2514.23,584.578 55.8906,0 0,74 -55.8906,0 z"
           style="fill:#d0ecec;fill-opacity:1;fill-rule:nonzero;stroke:none"
           id="path252" /><path
           inkscape:connector-curvature="0"
           d="m 2598.06,584.578 55.8906,0 0,74 -55.8906,0 z"
           style="fill:#d0ecec;fill-opacity:1;fill-rule:nonzero;stroke:none"
           id="path254" /><path
           inkscape:connector-curvature="0"
           d="m 2681.89,584.578 55.8906,0 0,74 -55.8906,0 z"
           style="fill:#d0ecec;fill-opacity:1;fill-rule:nonzero;stroke:none"
           id="path256" /><path
           inkscape:connector-curvature="0"
           d="m 2430.38,705.82 55.9102,0 0,74 -55.9102,0 z"
           style="fill:#d0ecec;fill-opacity:1;fill-rule:nonzero;stroke:none"
           id="path258" /><path
           inkscape:connector-curvature="0"
           d="m 2514.23,705.82 55.8906,0 0,74 -55.8906,0 z"
           style="fill:#d0ecec;fill-opacity:1;fill-rule:nonzero;stroke:none"
           id="path260" /><path
           inkscape:connector-curvature="0"
           d="m 2598.06,705.82 55.8906,0 0,74 -55.8906,0 z"
           style="fill:#ffffff;fill-opacity:1;fill-rule:nonzero;stroke:none"
           id="path262" /><path
           inkscape:connector-curvature="0"
           d="m 2681.89,705.82 55.8906,0 0,74 -55.8906,0 z"
           style="fill:#ffffff;fill-opacity:1;fill-rule:nonzero;stroke:none"
           id="path264" /><path
           inkscape:connector-curvature="0"
           d="m 2430.38,827.078 55.9102,0 0,74 -55.9102,0 z"
           style="fill:#d0ecec;fill-opacity:1;fill-rule:nonzero;stroke:none"
           id="path266" /><path
           inkscape:connector-curvature="0"
           d="m 2514.23,827.078 55.8906,0 0,74 -55.8906,0 z"
           style="fill:#ffffff;fill-opacity:1;fill-rule:nonzero;stroke:none"
           id="path268" /><path
           inkscape:connector-curvature="0"
           d="m 2598.06,827.078 55.8906,0 0,74 -55.8906,0 z"
           style="fill:#d0ecec;fill-opacity:1;fill-rule:nonzero;stroke:none"
           id="path270" /><path
           inkscape:connector-curvature="0"
           d="m 2681.89,827.078 55.8906,0 0,74 -55.8906,0 z"
           style="fill:#d0ecec;fill-opacity:1;fill-rule:nonzero;stroke:none"
           id="path272" /><path
           inkscape:connector-curvature="0"
           d="m 2430.38,463.309 55.91,0 0,74.031 -50.03,0 -5.88,-5.879 0,-68.152"
           style="fill:#d0ecec;fill-opacity:1;fill-rule:nonzero;stroke:none"
           id="path274" /><path
           inkscape:connector-curvature="0"
           d="m 2486.29,587.352 -2.79,-2.774 2.79,0 0,2.774"
           style="fill:#39707e;fill-opacity:1;fill-rule:nonzero;stroke:none"
           id="path276" /><path
           inkscape:connector-curvature="0"
           d="m 96.3125,784.609 105.664,0 0,23.5508 -105.664,0 z"
           style="fill:#183654;fill-opacity:1;fill-rule:nonzero;stroke:none"
           id="path278" /><path
           inkscape:connector-curvature="0"
           d="m 224.734,784.609 105.672,0 0,23.5508 -105.672,0 z"
           style="fill:#183654;fill-opacity:1;fill-rule:nonzero;stroke:none"
           id="path280" /><path
           inkscape:connector-curvature="0"
           d="m 96.3125,675.629 105.664,0 0,23.5625 -105.664,0 z"
           style="fill:#183654;fill-opacity:1;fill-rule:nonzero;stroke:none"
           id="path282" /><path
           inkscape:connector-curvature="0"
           d="m 224.734,675.629 105.672,0 0,23.5625 -105.672,0 z"
           style="fill:#183654;fill-opacity:1;fill-rule:nonzero;stroke:none"
           id="path284" /><path
           inkscape:connector-curvature="0"
           d="m 96.3125,565.801 105.664,0 0,23.5508 -105.664,0 z"
           style="fill:#183654;fill-opacity:1;fill-rule:nonzero;stroke:none"
           id="path286" /><path
           inkscape:connector-curvature="0"
           d="m 224.734,565.801 105.672,0 0,23.5508 -105.672,0 z"
           style="fill:#183654;fill-opacity:1;fill-rule:nonzero;stroke:none"
           id="path288" /><path
           inkscape:connector-curvature="0"
           d="m 2875.99,421.762 437.82,0 0,758.277 -437.82,0 z"
           style="fill:#d0ecec;fill-opacity:1;fill-rule:nonzero;stroke:none"
           id="path290" /><path
           inkscape:connector-curvature="0"
           d="m 2922.95,1055.1 67.5195,0 0,52.6797 -67.5195,0 z"
           style="fill:#ffffff;fill-opacity:1;fill-rule:nonzero;stroke:none"
           id="path292" /><path
           inkscape:connector-curvature="0"
           d="m 2922.95,977.98 67.5195,0 0,52.6797 -67.5195,0 z"
           style="fill:#f1faf8;fill-opacity:1;fill-rule:nonzero;stroke:none"
           id="path294" /><path
           inkscape:connector-curvature="0"
           d="m 2922.95,900.852 67.5195,0 0,52.6797 -67.5195,0 z"
           style="fill:#ffffff;fill-opacity:1;fill-rule:nonzero;stroke:none"
           id="path296" /><path
           inkscape:connector-curvature="0"
           d="m 2922.95,823.73 67.5195,0 0,52.668 -67.5195,0 z"
           style="fill:#fbbf58;fill-opacity:1;fill-rule:nonzero;stroke:none"
           id="path298" /><path
           inkscape:connector-curvature="0"
           d="m 2922.95,717.238 67.5195,0 0,52.6914 -67.5195,0 z"
           style="fill:#f1faf8;fill-opacity:1;fill-rule:nonzero;stroke:none"
           id="path300" /><path
           inkscape:connector-curvature="0"
           d="m 2922.95,640.121 67.5195,0 0,52.6797 -67.5195,0 z"
           style="fill:#ffffff;fill-opacity:1;fill-rule:nonzero;stroke:none"
           id="path302" /><path
           inkscape:connector-curvature="0"
           d="m 2922.95,562.988 67.5195,0 0,52.6914 -67.5195,0 z"
           style="fill:#ffffff;fill-opacity:1;fill-rule:nonzero;stroke:none"
           id="path304" /><path
           inkscape:connector-curvature="0"
           d="m 2922.95,485.871 67.5195,0 0,52.6797 -67.5195,0 z"
           style="fill:#ffffff;fill-opacity:1;fill-rule:nonzero;stroke:none"
           id="path306" /><path
           inkscape:connector-curvature="0"
           d="m 3015.08,1055.1 67.5195,0 0,52.6797 -67.5195,0 z"
           style="fill:#fbbf58;fill-opacity:1;fill-rule:nonzero;stroke:none"
           id="path308" /><path
           inkscape:connector-curvature="0"
           d="m 3015.08,977.98 67.5195,0 0,52.6797 -67.5195,0 z"
           style="fill:#ffffff;fill-opacity:1;fill-rule:nonzero;stroke:none"
           id="path310" /><path
           inkscape:connector-curvature="0"
           d="m 3015.08,900.852 67.5195,0 0,52.6797 -67.5195,0 z"
           style="fill:#ffffff;fill-opacity:1;fill-rule:nonzero;stroke:none"
           id="path312" /><path
           inkscape:connector-curvature="0"
           d="m 3015.08,823.73 67.5195,0 0,52.668 -67.5195,0 z"
           style="fill:#ffffff;fill-opacity:1;fill-rule:nonzero;stroke:none"
           id="path314" /><path
           inkscape:connector-curvature="0"
           d="m 3015.08,717.238 67.5195,0 0,52.6914 -67.5195,0 z"
           style="fill:#ffffff;fill-opacity:1;fill-rule:nonzero;stroke:none"
           id="path316" /><path
           inkscape:connector-curvature="0"
           d="m 3015.08,640.121 67.5195,0 0,52.6797 -67.5195,0 z"
           style="fill:#f1faf8;fill-opacity:1;fill-rule:nonzero;stroke:none"
           id="path318" /><path
           inkscape:connector-curvature="0"
           d="m 3015.08,562.988 67.5195,0 0,52.6914 -67.5195,0 z"
           style="fill:#ffffff;fill-opacity:1;fill-rule:nonzero;stroke:none"
           id="path320" /><path
           inkscape:connector-curvature="0"
           d="m 3015.08,485.871 67.5195,0 0,52.6797 -67.5195,0 z"
           style="fill:#fbbf58;fill-opacity:1;fill-rule:nonzero;stroke:none"
           id="path322" /><path
           inkscape:connector-curvature="0"
           d="m 3107.2,1055.1 67.5117,0 0,52.6797 -67.5117,0 z"
           style="fill:#ffffff;fill-opacity:1;fill-rule:nonzero;stroke:none"
           id="path324" /><path
           inkscape:connector-curvature="0"
           d="m 3107.2,977.98 67.5117,0 0,52.6797 -67.5117,0 z"
           style="fill:#f1faf8;fill-opacity:1;fill-rule:nonzero;stroke:none"
           id="path326" /><path
           inkscape:connector-curvature="0"
           d="m 3107.2,900.852 67.5117,0 0,52.6797 -67.5117,0 z"
           style="fill:#ffffff;fill-opacity:1;fill-rule:nonzero;stroke:none"
           id="path328" /><path
           inkscape:connector-curvature="0"
           d="m 3107.2,823.73 67.5117,0 0,52.668 -67.5117,0 z"
           style="fill:#f1faf8;fill-opacity:1;fill-rule:nonzero;stroke:none"
           id="path330" /><path
           inkscape:connector-curvature="0"
           d="m 3107.2,717.238 67.5117,0 0,52.6914 -67.5117,0 z"
           style="fill:#ffffff;fill-opacity:1;fill-rule:nonzero;stroke:none"
           id="path332" /><path
           inkscape:connector-curvature="0"
           d="m 3107.2,640.121 67.5117,0 0,52.6797 -67.5117,0 z"
           style="fill:#ffffff;fill-opacity:1;fill-rule:nonzero;stroke:none"
           id="path334" /><path
           inkscape:connector-curvature="0"
           d="m 3107.2,562.988 67.5117,0 0,52.6914 -67.5117,0 z"
           style="fill:#ffffff;fill-opacity:1;fill-rule:nonzero;stroke:none"
           id="path336" /><path
           inkscape:connector-curvature="0"
           d="m 3107.2,485.871 67.5117,0 0,52.6797 -67.5117,0 z"
           style="fill:#ffffff;fill-opacity:1;fill-rule:nonzero;stroke:none"
           id="path338" /><path
           inkscape:connector-curvature="0"
           d="m 3199.34,1055.1 67.5117,0 0,52.6797 -67.5117,0 z"
           style="fill:#ffffff;fill-opacity:1;fill-rule:nonzero;stroke:none"
           id="path340" /><path
           inkscape:connector-curvature="0"
           d="m 3199.34,977.98 67.5117,0 0,52.6797 -67.5117,0 z"
           style="fill:#ffffff;fill-opacity:1;fill-rule:nonzero;stroke:none"
           id="path342" /><path
           inkscape:connector-curvature="0"
           d="m 3199.34,900.852 67.5117,0 0,52.6797 -67.5117,0 z"
           style="fill:#fbbf58;fill-opacity:1;fill-rule:nonzero;stroke:none"
           id="path344" /><path
           inkscape:connector-curvature="0"
           d="m 3199.34,823.73 67.5117,0 0,52.668 -67.5117,0 z"
           style="fill:#f1faf8;fill-opacity:1;fill-rule:nonzero;stroke:none"
           id="path346" /><path
           inkscape:connector-curvature="0"
           d="m 3199.34,717.238 67.5117,0 0,52.6914 -67.5117,0 z"
           style="fill:#fbbf58;fill-opacity:1;fill-rule:nonzero;stroke:none"
           id="path348" /><path
           inkscape:connector-curvature="0"
           d="m 3199.34,640.121 67.5117,0 0,52.6797 -67.5117,0 z"
           style="fill:#ffffff;fill-opacity:1;fill-rule:nonzero;stroke:none"
           id="path350" /><path
           inkscape:connector-curvature="0"
           d="m 3199.34,562.988 67.5117,0 0,52.6914 -67.5117,0 z"
           style="fill:#ffffff;fill-opacity:1;fill-rule:nonzero;stroke:none"
           id="path352" /><path
           inkscape:connector-curvature="0"
           d="m 3199.34,485.871 67.5117,0 0,52.6797 -67.5117,0 z"
           style="fill:#f1faf8;fill-opacity:1;fill-rule:nonzero;stroke:none"
           id="path354" /><path
           inkscape:connector-curvature="0"
           d="m 1264.49,420.641 179.043,0 0,133.84 -179.043,0 z"
           style="fill:#4b5f7c;fill-opacity:1;fill-rule:nonzero;stroke:none"
           id="path356" /><path
           inkscape:connector-curvature="0"
           d="m 1389.86,465.43 33.8906,0 0,33.8906 -33.8906,0 z"
           style="fill:#ffffff;fill-opacity:1;fill-rule:nonzero;stroke:none"
           id="path358" /><path
           inkscape:connector-curvature="0"
           d="m 1340.28,465.43 33.8906,0 0,33.8906 -33.8906,0 z"
           style="fill:#ffffff;fill-opacity:1;fill-rule:nonzero;stroke:none"
           id="path360" /><path
           inkscape:connector-curvature="0"
           d="m 1290.69,465.43 33.8984,0 0,33.8906 -33.8984,0 z"
           style="fill:#ffffff;fill-opacity:1;fill-rule:nonzero;stroke:none"
           id="path362" /><path
           inkscape:connector-curvature="0"
           d="m 1510.52,420.27 293.949,0 0,383.441 -293.949,0 z"
           style="fill:#f89f21;fill-opacity:1;fill-rule:nonzero;stroke:none"
           id="path364" /><path
           inkscape:connector-curvature="0"
           d="m 1619.16,420.27 76.668,0 0,108.641 -76.668,0 z"
           style="fill:#4b5f7c;fill-opacity:1;fill-rule:nonzero;stroke:none"
           id="path366" /><path
           inkscape:connector-curvature="0"
           d="m 2034.53,420.27 293.98,0 0,383.441 -293.98,0 z"
           style="fill:#f89f21;fill-opacity:1;fill-rule:nonzero;stroke:none"
           id="path368" /><path
           inkscape:connector-curvature="0"
           d="m 2143.18,420.27 76.6914,0 0,108.641 -76.6914,0 z"
           style="fill:#4b5f7c;fill-opacity:1;fill-rule:nonzero;stroke:none"
           id="path370" /><path
           inkscape:connector-curvature="0"
           d="m 1772.52,420.27 293.98,0 0,549.602 -293.98,0 z"
           style="fill:#fbbf58;fill-opacity:1;fill-rule:nonzero;stroke:none"
           id="path372" /><path
           inkscape:connector-curvature="0"
           d="m 1561.64,567.238 63.9102,0 0,89.4727 -63.9102,0 z"
           style="fill:#fad58d;fill-opacity:1;fill-rule:nonzero;stroke:none"
           id="path374" /><path
           inkscape:connector-curvature="0"
           d="m 1689.44,567.238 63.9102,0 0,89.4727 -63.9102,0 z"
           style="fill:#fad58d;fill-opacity:1;fill-rule:nonzero;stroke:none"
           id="path376" /><path
           inkscape:connector-curvature="0"
           d="m 1561.64,682.289 63.9102,0 0,89.4727 -63.9102,0 z"
           style="fill:#ffffff;fill-opacity:1;fill-rule:nonzero;stroke:none"
           id="path378" /><path
           inkscape:connector-curvature="0"
           d="m 1689.44,682.289 63.9102,0 0,89.4727 -63.9102,0 z"
           style="fill:#ffffff;fill-opacity:1;fill-rule:nonzero;stroke:none"
           id="path380" /><path
           inkscape:connector-curvature="0"
           d="m 2085.65,567.238 63.9219,0 0,89.4727 -63.9219,0 z"
           style="fill:#ffffff;fill-opacity:1;fill-rule:nonzero;stroke:none"
           id="path382" /><path
           inkscape:connector-curvature="0"
           d="m 2213.47,567.238 63.9023,0 0,89.4727 -63.9023,0 z"
           style="fill:#ffffff;fill-opacity:1;fill-rule:nonzero;stroke:none"
           id="path384" /><path
           inkscape:connector-curvature="0"
           d="m 2085.65,682.289 63.9219,0 0,89.4727 -63.9219,0 z"
           style="fill:#ffffff;fill-opacity:1;fill-rule:nonzero;stroke:none"
           id="path386" /><path
           inkscape:connector-curvature="0"
           d="m 2213.47,682.289 63.9023,0 0,89.4727 -63.9023,0 z"
           style="fill:#fce9c2;fill-opacity:1;fill-rule:nonzero;stroke:none"
           id="path388" /><path
           inkscape:connector-curvature="0"
           d="m 1823.65,802.629 63.9023,0 0,89.4805 -63.9023,0 z"
           style="fill:#ffffff;fill-opacity:1;fill-rule:nonzero;stroke:none"
           id="path390" /><path
           inkscape:connector-curvature="0"
           d="m 1951.46,802.629 63.8984,0 0,89.4805 -63.8984,0 z"
           style="fill:#ffffff;fill-opacity:1;fill-rule:nonzero;stroke:none"
           id="path392" /><path
           inkscape:connector-curvature="0"
           d="m 1823.65,567.238 63.9023,0 0,89.4727 -63.9023,0 z"
           style="fill:#ffffff;fill-opacity:1;fill-rule:nonzero;stroke:none"
           id="path394" /><path
           inkscape:connector-curvature="0"
           d="m 1951.46,567.238 63.8984,0 0,89.4727 -63.8984,0 z"
           style="fill:#ffffff;fill-opacity:1;fill-rule:nonzero;stroke:none"
           id="path396" /><path
           inkscape:connector-curvature="0"
           d="m 1823.65,682.289 63.9023,0 0,89.4727 -63.9023,0 z"
           style="fill:#fcd790;fill-opacity:1;fill-rule:nonzero;stroke:none"
           id="path398" /><path
           inkscape:connector-curvature="0"
           d="m 1951.46,682.289 63.8984,0 0,89.4727 -63.8984,0 z"
           style="fill:#ffffff;fill-opacity:1;fill-rule:nonzero;stroke:none"
           id="path400" /><path
           inkscape:connector-curvature="0"
           d="m 1881.15,420.27 76.7031,0 0,108.641 -76.7031,0 z"
           style="fill:#4b5f7c;fill-opacity:1;fill-rule:nonzero;stroke:none"
           id="path402" /><path
           inkscape:connector-curvature="0"
           d="m 819.961,1488.51 c 0,-6.94 -5.652,-12.59 -12.602,-12.59 l -15.578,0 c 1.133,3.73 1.692,8.16 1.692,12.59 l 0,55.26 26.488,0 z m -64.164,-12.59 c -0.871,1.38 -2.43,5.59 -2.43,12.59 l 0,55.26 30.516,0 0,-55.26 c 0,-7.01 -1.555,-11.21 -2.43,-12.59 z m -38.488,12.59 0,55.26 26.464,0 0,-55.26 c 0,-4.43 0.559,-8.86 1.7,-12.59 l -15.575,0 c -6.945,0 -12.589,5.65 -12.589,12.59 z m 112.511,114.77 -9.593,0 0,-49.9 -102.918,0 0,49.9 -9.61,0 0,-114.77 c 0,-12.24 9.961,-22.19 22.199,-22.19 l 77.461,0 c 12.243,0 22.196,9.95 22.196,22.19 l 0,60.07 0.265,0 0,54.7"
           style="fill:#f89f21;fill-opacity:1;fill-rule:nonzero;stroke:none"
           id="path404" /><path
           inkscape:connector-curvature="0"
           d="m 829.742,1602.22 c 70.453,77.95 178.218,213.55 178.218,313.81 0,148.93 -106.483,248.42 -237.843,248.42 -131.355,0 -237.844,-99.49 -237.844,-248.42 0,-100.26 107.766,-235.86 178.215,-313.81 l 119.254,0"
           style="fill:#e24644;fill-opacity:1;fill-rule:nonzero;stroke:none"
           id="path406" /><path
           inkscape:connector-curvature="0"
           d="m 812.449,1602.22 c 50.008,77.95 126.496,213.55 126.496,313.81 0,148.93 -75.59,248.42 -168.828,248.42 -93.242,0 -168.828,-99.49 -168.828,-248.42 0,-100.26 76.492,-235.86 126.504,-313.81 l 84.656,0"
           style="fill:#ffffff;fill-opacity:1;fill-rule:nonzero;stroke:none"
           id="path408" /><path
           inkscape:connector-curvature="0"
           d="m 789.758,1602.22 c 23.203,77.95 58.683,213.55 58.683,313.81 0,148.93 -35.062,248.42 -78.324,248.42 -43.262,0 -78.332,-99.49 -78.332,-248.42 0,-100.26 35.485,-235.86 58.692,-313.81 l 39.281,0"
           style="fill:#e24644;fill-opacity:1;fill-rule:nonzero;stroke:none"
           id="path410" /><path
           inkscape:connector-curvature="0"
           d="m 717.309,1488.51 0,55.26 26.464,0 0,-55.26 c 0,-4.43 0.559,-8.86 1.7,-12.59 l -15.575,0 c -6.945,0 -12.589,5.65 -12.589,12.59"
           style="fill:#fbbf58;fill-opacity:1;fill-rule:nonzero;stroke:none"
           id="path412" /><path
           inkscape:connector-curvature="0"
           d="m 755.797,1475.92 c -0.871,1.38 -2.43,5.59 -2.43,12.59 l 0,55.26 30.516,0 0,-55.26 c 0,-7.01 -1.555,-11.21 -2.43,-12.59 l -25.656,0"
           style="fill:#fbbf58;fill-opacity:1;fill-rule:nonzero;stroke:none"
           id="path414" /><path
           inkscape:connector-curvature="0"
           d="m 819.961,1488.51 c 0,-6.94 -5.652,-12.59 -12.602,-12.59 l -15.578,0 c 1.133,3.73 1.692,8.16 1.692,12.59 l 0,55.26 26.488,0 0,-55.26"
           style="fill:#fbbf58;fill-opacity:1;fill-rule:nonzero;stroke:none"
           id="path416" /><path
           inkscape:connector-curvature="0"
           d="m 2803.77,1707.68 c 0,-2.61 -2.12,-4.74 -4.74,-4.74 l -5.85,0 c 0.43,1.41 0.64,3.08 0.64,4.74 l 0,20.82 9.95,0 0,-20.82 m -24.12,-4.74 c -0.33,0.52 -0.91,2.11 -0.91,4.74 l 0,20.82 11.46,0 0,-20.82 c 0,-2.63 -0.57,-4.22 -0.9,-4.74 l -9.65,0 m -14.48,4.74 0,20.82 9.95,0 0,-20.82 c 0,-1.66 0.2,-3.33 0.64,-4.74 l -5.86,0 c -2.61,0 -4.73,2.13 -4.73,4.74 m 42.31,43.23 -3.59,0 0,-18.8 -38.72,0 0,18.8 -3.63,0 0,-43.23 c 0,-4.61 3.75,-8.35 8.36,-8.35 l 29.13,0 c 4.61,0 8.36,3.74 8.36,8.35 l 0,22.63 0.09,0 0,20.6"
           style="fill:#183654;fill-opacity:1;fill-rule:nonzero;stroke:none"
           id="path418" /><path
           inkscape:connector-curvature="0"
           d="m 2807.46,1750.52 c 26.5,29.36 67.04,80.44 67.04,118.19 0,56.11 -40.06,93.59 -89.48,93.59 -49.39,0 -89.46,-37.48 -89.46,-93.59 0,-37.75 40.54,-88.83 67.04,-118.19 l 44.86,0"
           style="fill:#f89f21;fill-opacity:1;fill-rule:nonzero;stroke:none"
           id="path420" /><path
           inkscape:connector-curvature="0"
           d="m 2800.95,1750.52 c 18.83,29.36 47.59,80.44 47.59,118.19 0,56.11 -28.44,93.59 -63.52,93.59 -35.07,0 -63.5,-37.48 -63.5,-93.59 0,-37.75 28.77,-88.83 47.59,-118.19 l 31.84,0"
           style="fill:#ffffff;fill-opacity:1;fill-rule:nonzero;stroke:none"
           id="path422" /><path
           inkscape:connector-curvature="0"
           d="m 2792.42,1750.52 c 8.72,29.36 22.07,80.44 22.07,118.19 0,56.11 -13.19,93.59 -29.47,93.59 -16.27,0 -29.46,-37.48 -29.46,-93.59 0,-37.75 13.35,-88.83 22.08,-118.19 l 14.78,0"
           style="fill:#f89f21;fill-opacity:1;fill-rule:nonzero;stroke:none"
           id="path424" /><path
           inkscape:connector-curvature="0"
           d="m 2765.17,1707.68 0,20.82 9.95,0 0,-20.82 c 0,-1.66 0.2,-3.33 0.64,-4.74 l -5.86,0 c -2.61,0 -4.73,2.13 -4.73,4.74"
           style="fill:#528a92;fill-opacity:1;fill-rule:nonzero;stroke:none"
           id="path426" /><path
           inkscape:connector-curvature="0"
           d="m 2779.65,1702.94 c -0.33,0.52 -0.91,2.11 -0.91,4.74 l 0,20.82 11.46,0 0,-20.82 c 0,-2.63 -0.57,-4.22 -0.9,-4.74 l -9.65,0"
           style="fill:#528a92;fill-opacity:1;fill-rule:nonzero;stroke:none"
           id="path428" /><path
           inkscape:connector-curvature="0"
           d="m 2803.77,1707.68 c 0,-2.61 -2.12,-4.74 -4.74,-4.74 l -5.85,0 c 0.43,1.41 0.64,3.08 0.64,4.74 l 0,20.82 9.95,0 0,-20.82"
           style="fill:#528a92;fill-opacity:1;fill-rule:nonzero;stroke:none"
           id="path430" /><path
           inkscape:connector-curvature="0"
           d="m 3257.88,1606 -531.45,0 c 0,7.67 0.94,15.12 2.73,22.24 l 528.79,0 c 0.27,-3.59 0.41,-7.22 0.41,-10.88 0,-3.83 -0.19,-7.61 -0.48,-11.36"
           style="fill:#ffffff;fill-opacity:1;fill-rule:nonzero;stroke:none"
           id="path432" /><path
           inkscape:connector-curvature="0"
           d="m 3257.95,1628.24 -528.79,0 c 6.71,26.78 25.25,48.84 49.75,60.31 l 460.17,0 c 10.52,-17.94 17.19,-38.43 18.87,-60.31"
           style="fill:#ffffff;fill-opacity:1;fill-rule:nonzero;stroke:none"
           id="path434" /><path
           inkscape:connector-curvature="0"
           d="m 3239.08,1688.55 -460.17,0 c 9.45,4.42 19.79,7.26 30.67,8.19 -0.11,1.52 -0.19,3.05 -0.19,4.58 0,18.95 8.32,35.95 21.51,47.53 l 337.06,0 c 29.99,-11.46 55.05,-32.92 71.12,-60.3"
           style="fill:#ffffff;fill-opacity:1;fill-rule:nonzero;stroke:none"
           id="path436" /><path
           inkscape:connector-curvature="0"
           d="m 3167.96,1748.85 -337.06,0 c 11.11,9.77 25.68,15.69 41.63,15.69 9.74,0 18.97,-2.21 27.22,-6.16 8.74,21.55 24.59,39.44 44.64,50.77 l 100.35,0 c 20.98,-11.85 37.36,-30.88 45.82,-53.76 8.82,1.74 17.95,2.68 27.28,2.68 17.66,0 34.55,-3.27 50.12,-9.22"
           style="fill:#ffffff;fill-opacity:1;fill-rule:nonzero;stroke:none"
           id="path438" /><path
           inkscape:connector-curvature="0"
           d="m 3044.74,1809.15 -100.35,0 c 14.82,8.37 31.94,13.15 50.17,13.15 18.23,0 35.35,-4.78 50.18,-13.15"
           style="fill:#ffffff;fill-opacity:1;fill-rule:nonzero;stroke:none"
           id="path440" /><path
           inkscape:connector-curvature="0"
           d="m 1982.4,1603.27 -595.01,0 c 0,8.59 0.98,16.94 2.82,24.97 l 604.49,0 c -7.08,-6.14 -11.72,-15.01 -12.3,-24.97"
           style="fill:#f2f9fa;fill-opacity:1;fill-rule:nonzero;stroke:none"
           id="path442" /><path
           inkscape:connector-curvature="0"
           d="m 1994.7,1628.24 -604.49,0 c 5.51,24 18.8,45.03 37.07,60.31 l 594.32,0 c 3.9,-8.51 7.13,-17.4 9.61,-26.59 -9.47,-3.51 -16.21,-12.62 -16.21,-23.31 l 0.07,-1.8 c -7.76,-0.66 -14.82,-3.8 -20.37,-8.61"
           style="fill:#f2f9fa;fill-opacity:1;fill-rule:nonzero;stroke:none"
           id="path444" /><path
           inkscape:connector-curvature="0"
           d="m 2021.6,1688.55 -594.32,0 c 17,14.2 38.31,23.42 61.68,25.41 -0.14,1.85 -0.21,3.71 -0.21,5.59 0,10.38 2.04,20.27 5.75,29.3 l 481.03,0 c 19.52,-16.32 35.35,-36.89 46.07,-60.3"
           style="fill:#f1faf9;fill-opacity:1;fill-rule:nonzero;stroke:none"
           id="path446" /><path
           inkscape:connector-curvature="0"
           d="m 1975.53,1748.85 -481.03,0 c 6.37,15.51 17.65,28.47 31.9,36.97 l 305.63,0 c 0.04,-0.11 0.08,-0.21 0.12,-0.32 0.56,0.11 1.13,0.22 1.7,0.32 l 1.82,0 c 0.01,0.12 0.02,0.23 0.03,0.34 9.66,1.7 19.62,2.61 29.79,2.61 41.87,0 80.24,-15 110.04,-39.92"
           style="fill:#f1faf9;fill-opacity:1;fill-rule:nonzero;stroke:none"
           id="path448" /><path
           inkscape:connector-curvature="0"
           d="m 654.094,1455.78 -266.071,0 c 0,23.83 18.309,43.38 41.629,45.37 l -0.09,2.29 c 0,1.42 0.094,2.82 0.274,4.19 l 207.234,0 c 10.762,-12.35 17.278,-28.5 17.278,-46.17 0,-1.92 -0.102,-3.81 -0.254,-5.68"
           style="fill:#ffffff;fill-opacity:1;fill-rule:nonzero;stroke:none"
           id="path450" /><path
           inkscape:connector-curvature="0"
           d="m 637.07,1507.63 -207.234,0 c 2.051,15.48 15.301,27.42 31.336,27.42 4.875,0 9.504,-1.11 13.625,-3.09 7.613,18.74 25.996,31.97 47.469,31.97 22.043,0 40.839,-13.92 48.066,-33.46 4.426,0.87 8.984,1.33 13.66,1.33 21.188,0 40.18,-9.36 53.078,-24.17"
           style="fill:#ffffff;fill-opacity:1;fill-rule:nonzero;stroke:none"
           id="path452" /><path
           inkscape:connector-curvature="0"
           d="m 2675.09,1455.78 -266.09,0 c 0,23.83 18.33,43.38 41.65,45.37 l -0.09,2.29 c 0,1.42 0.09,2.82 0.27,4.19 l 207.23,0 c 10.76,-12.35 17.28,-28.5 17.28,-46.17 0,-1.92 -0.11,-3.81 -0.25,-5.68"
           style="fill:#ffffff;fill-opacity:1;fill-rule:nonzero;stroke:none"
           id="path454" /><path
           inkscape:connector-curvature="0"
           d="m 2658.06,1507.63 -207.23,0 c 2.05,15.48 15.29,27.42 31.33,27.42 4.87,0 9.51,-1.11 13.62,-3.09 7.61,18.74 26.01,31.97 47.47,31.97 22.05,0 40.83,-13.92 48.05,-33.46 4.44,0.87 8.99,1.33 13.69,1.33 21.17,0 40.17,-9.36 53.07,-24.17"
           style="fill:#ffffff;fill-opacity:1;fill-rule:nonzero;stroke:none"
           id="path456" /><path
           inkscape:connector-curvature="0"
           d="m 1371.96,1475.92 -298.13,0 c 0,11.99 4.13,23.01 11.05,31.71 l 283.19,0 c 2.7,-7.95 4.16,-16.47 4.16,-25.34 0,-2.15 -0.1,-4.27 -0.27,-6.37"
           style="fill:#f2f9fa;fill-opacity:1;fill-rule:nonzero;stroke:none"
           id="path458" /><path
           inkscape:connector-curvature="0"
           d="m 1368.07,1507.63 -283.19,0 c 8.49,10.69 21.19,17.9 35.59,19.14 l -0.1,2.56 c 0,19.56 15.86,35.42 35.41,35.42 5.47,0 10.64,-1.25 15.27,-3.46 0.93,2.3 2.01,4.51 3.21,6.64 l 99.96,0 c 1.5,-2.65 2.8,-5.42 3.87,-8.31 4.96,0.98 10.07,1.49 15.31,1.49 34.67,0 64.12,-22.38 74.67,-53.48"
           style="fill:#f2f9fa;fill-opacity:1;fill-rule:nonzero;stroke:none"
           id="path460" /><path
           inkscape:connector-curvature="0"
           d="m 1274.22,1567.93 -99.96,0 c 9.86,17.41 28.54,29.18 49.98,29.18 21.44,0 40.12,-11.77 49.98,-29.18"
           style="fill:#f1faf9;fill-opacity:1;fill-rule:nonzero;stroke:none"
           id="path462" /><path
           inkscape:connector-curvature="0"
           d="m 2737.23,1780.82 -566.55,0 c 0,9.8 1.29,19.29 3.7,28.33 l 543.08,0 c 6.05,-9.77 12.86,-19.35 19.77,-28.33"
           style="fill:#e4f5f3;fill-opacity:1;fill-rule:nonzero;stroke:none"
           id="path464" /><path
           inkscape:connector-curvature="0"
           d="m 2717.46,1809.15 -543.08,0 c 6.55,24.56 21.42,45.73 41.42,60.31 l 479.76,0 c 0,-0.25 0,-0.5 0,-0.75 0,-18.08 9.3,-39.22 21.9,-59.56"
           style="fill:#e3f4f3;fill-opacity:1;fill-rule:nonzero;stroke:none"
           id="path466" /><path
           inkscape:connector-curvature="0"
           d="m 2695.56,1869.46 -479.76,0 c 15.72,11.47 34.62,18.85 55.13,20.6 -0.14,1.83 -0.24,3.67 -0.24,5.53 0,12.29 2.92,23.89 8.09,34.17 l 436.96,0 c -12.49,-15.64 -20.03,-36.24 -20.18,-60.3"
           style="fill:#e3f4f3;fill-opacity:1;fill-rule:nonzero;stroke:none"
           id="path468" /><path
           inkscape:connector-curvature="0"
           d="m 2715.74,1929.76 -436.96,0 c 12.53,24.86 38.28,41.92 68.03,41.92 11.73,0 22.86,-2.67 32.79,-7.42 3.75,9.21 8.57,17.87 14.32,25.81 l 199.96,0 c 6.49,-8.97 11.81,-18.86 15.72,-29.42 10.63,2.1 21.64,3.22 32.89,3.22 30.75,0 59.58,-8.19 84.44,-22.51 -4.06,-3.49 -7.81,-7.36 -11.19,-11.6"
           style="fill:#e2f2f2;fill-opacity:1;fill-rule:nonzero;stroke:none"
           id="path470" /><path
           inkscape:connector-curvature="0"
           d="m 2593.88,1990.07 -199.96,0 c 22.4,30.97 58.81,51.13 99.97,51.13 41.15,0 77.58,-20.15 99.99,-51.13"
           style="fill:#e1f3f2;fill-opacity:1;fill-rule:nonzero;stroke:none"
           id="path472" /><path
           inkscape:connector-curvature="0"
           d="m 2751.1,1780.82 -13.87,0 c -6.91,8.98 -13.72,18.56 -19.77,28.33 -12.6,20.34 -21.9,41.48 -21.9,59.56 0,0.25 0,0.5 0,0.75 0.15,24.06 7.69,44.66 20.18,60.3 3.38,4.24 7.13,8.11 11.19,11.6 3.95,-2.28 7.79,-4.71 11.53,-7.28 -10.51,-16.23 -16.94,-38.69 -16.94,-65.37 0,-26.76 14.46,-60.21 29.58,-87.89"
           style="fill:#f9bc24;fill-opacity:1;fill-rule:nonzero;stroke:none"
           id="path474" /><path
           inkscape:connector-curvature="0"
           d="m 2811.28,1780.82 -10.51,0 c 3.25,12.82 6.43,26.88 8.91,40.93 1.44,-8.87 2.18,-17.97 2.18,-27.25 0,-4.6 -0.22,-9.15 -0.58,-13.68 m -42,0 -18.18,0 c -15.12,27.68 -29.58,61.13 -29.58,87.89 0,26.68 6.43,49.14 16.94,65.37 7.43,-5.13 14.45,-10.83 20.96,-17.05 -2.46,-13.68 -3.86,-30.01 -3.86,-48.32 0,-26.76 6.7,-60.21 13.72,-87.89"
           style="fill:#ffffff;fill-opacity:1;fill-rule:nonzero;stroke:none"
           id="path476" /><path
           inkscape:connector-curvature="0"
           d="m 2800.77,1780.82 -31.49,0 c -7.02,27.68 -13.72,61.13 -13.72,87.89 0,18.31 1.4,34.64 3.86,48.32 26.09,-24.91 44.24,-58.06 50.26,-95.28 -2.48,-14.05 -5.66,-28.11 -8.91,-40.93"
           style="fill:#f9bc24;fill-opacity:1;fill-rule:nonzero;stroke:none"
           id="path478" /><path
           inkscape:connector-curvature="0"
           d="m 1495.51,1842.64 -422.87,0 c 0,9.4 1.61,18.43 4.58,26.82 l 445.56,0 c -2.05,-5.11 -3.18,-10.69 -3.18,-16.53 0,-1.09 0.05,-2.17 0.12,-3.24 -8.68,-0.74 -16.86,-3.2 -24.21,-7.05"
           style="fill:#e0f2f1;fill-opacity:1;fill-rule:nonzero;stroke:none"
           id="path480" /><path
           inkscape:connector-curvature="0"
           d="m 1522.78,1869.46 -445.56,0 c 10.31,29.12 36.93,50.52 68.88,53.25 -0.08,1.34 -0.15,2.68 -0.15,4.04 0,1.01 0.02,2.02 0.08,3.01 l 369.79,0 c 9.61,-12.12 17,-26.06 21.57,-41.24 -6.46,-4.86 -11.56,-11.44 -14.61,-19.06"
           style="fill:#dff2f1;fill-opacity:1;fill-rule:nonzero;stroke:none"
           id="path482" /><path
           inkscape:connector-curvature="0"
           d="m 1515.82,1929.76 -369.79,0 c 1.56,29.41 25.89,52.78 55.7,52.78 8.61,0 16.76,-1.96 24.04,-5.44 1.84,4.52 4.03,8.85 6.55,12.97 l 154.49,0 c 2.99,-4.91 5.53,-10.14 7.56,-15.61 7.81,1.54 15.86,2.36 24.13,2.36 39.43,0 74.57,-18.39 97.32,-47.06"
           style="fill:#def0f1;fill-opacity:1;fill-rule:nonzero;stroke:none"
           id="path484" /><path
           inkscape:connector-curvature="0"
           d="m 1386.81,1990.07 -154.49,0 c 0.87,1.44 1.79,2.85 2.74,4.23 l 149.01,0 c 0.95,-1.38 1.86,-2.79 2.74,-4.23"
           style="fill:#ddf1f1;fill-opacity:1;fill-rule:nonzero;stroke:none"
           id="path486" /></g></g><g
       transform="matrix(0.13333333,0,0,-0.13333333,0,313.58667)"
       id="g488"><g
         id="g490"
         clip-path="url(#clipPath494)"><path
           inkscape:connector-curvature="0"
           d="m 108.34,1864.14 0,0"
           style="fill:#f8fdfd;fill-opacity:1;fill-rule:nonzero;stroke:none"
           id="path496" /><path
           inkscape:connector-curvature="0"
           d="m 545.801,1847.32 -436.739,0 c -0.433,5.55 -0.722,11.16 -0.722,16.82 l 0,0 c 0,1.77 0.023,3.55 0.066,5.32 l 430.489,0 c 1.929,-7.3 4.246,-14.68 6.906,-22.14"
           style="fill:#f8fdfd;fill-opacity:1;fill-rule:nonzero;stroke:none"
           id="path498" /><path
           inkscape:connector-curvature="0"
           d="m 538.895,1869.46 -430.489,0 c 0.528,21.02 4.168,41.27 10.481,60.3 l 413.695,0 c -0.203,-4.53 -0.309,-9.11 -0.309,-13.73 0,-14.85 2.368,-30.48 6.622,-46.57"
           style="fill:#f8fdfd;fill-opacity:1;fill-rule:nonzero;stroke:none"
           id="path500" /><path
           inkscape:connector-curvature="0"
           d="m 532.582,1929.76 -413.695,0 c 7.277,21.95 18.113,42.29 31.812,60.31 l 391.102,0 c -5.11,-18.91 -8.27,-39.07 -9.219,-60.31"
           style="fill:#f7fcfb;fill-opacity:1;fill-rule:nonzero;stroke:none"
           id="path502" /><path
           inkscape:connector-curvature="0"
           d="m 541.801,1990.07 -391.102,0 c 19.172,25.23 43.961,45.95 72.504,60.31 l 343.695,0 c -10.707,-18.3 -19.203,-38.48 -25.097,-60.31"
           style="fill:#f7fcfb;fill-opacity:1;fill-rule:nonzero;stroke:none"
           id="path504" /><path
           inkscape:connector-curvature="0"
           d="m 566.898,2050.38 -343.695,0 c 28.113,14.13 59.863,22.09 93.477,22.09 13.843,0 27.367,-1.38 40.453,-3.96 5.699,15.39 13.824,29.6 23.902,42.18 l 236.805,0 c -20.047,-16.72 -37.285,-36.98 -50.942,-60.31"
           style="fill:#f7fbfb;fill-opacity:1;fill-rule:nonzero;stroke:none"
           id="path506" /><path
           inkscape:connector-curvature="0"
           d="m 617.84,2110.69 -236.805,0 c 27.809,34.69 70.527,56.89 118.438,56.89 47.898,0 90.589,-22.2 118.386,-56.88 -0.007,0 -0.011,0 -0.019,-0.01"
           style="fill:#f7fbfb;fill-opacity:1;fill-rule:nonzero;stroke:none"
           id="path508" /><path
           inkscape:connector-curvature="0"
           d="m 610.891,1847.32 -65.09,0 c -2.66,7.46 -4.977,14.84 -6.906,22.14 -4.254,16.09 -6.622,31.72 -6.622,46.57 0,4.62 0.106,9.2 0.309,13.73 0.949,21.24 4.109,41.4 9.219,60.31 5.894,21.83 14.39,42.01 25.097,60.31 13.657,23.33 30.895,43.59 50.942,60.31 0.008,0.01 0.012,0.01 0.019,0.01 8.297,-10.34 15.274,-21.81 20.657,-34.13 -23.289,-41.75 -37.227,-96.59 -37.227,-160.54 0,-21.58 3.543,-44.79 9.602,-68.71"
           style="fill:#f5806c;fill-opacity:1;fill-rule:nonzero;stroke:none"
           id="path510" /><path
           inkscape:connector-curvature="0"
           d="m 897.016,1847.32 -53.028,0 c 2.813,23.92 4.453,47.13 4.453,68.71 0,12.17 -0.23,24 -0.687,35.49 30.082,-24.73 49.262,-62.22 49.262,-104.2 m -200.774,0 -85.351,0 c -6.059,23.92 -9.602,47.13 -9.602,68.71 0,63.95 13.938,118.79 37.227,160.54 0.527,-1.2 1.039,-2.41 1.531,-3.62 12.23,5.84 25.906,9.12 40.344,9.12 10.093,0 19.808,-1.59 28.914,-4.55 -10.953,-41.87 -17.52,-97.06 -17.52,-161.49 0,-21.58 1.645,-44.79 4.457,-68.71"
           style="fill:#ffffff;fill-opacity:1;fill-rule:nonzero;stroke:none"
           id="path512" /><path
           inkscape:connector-curvature="0"
           d="m 843.988,1847.32 -147.746,0 c -2.812,23.92 -4.457,47.13 -4.457,68.71 0,64.43 6.567,119.62 17.52,161.49 37.55,-12.18 64.695,-47.45 64.695,-89.05 0,-2.28 -0.109,-4.54 -0.273,-6.79 27.988,-2.39 53.535,-13.32 74.027,-30.16 0.457,-11.49 0.687,-23.32 0.687,-35.49 0,-21.58 -1.64,-44.79 -4.453,-68.71"
           style="fill:#f5806c;fill-opacity:1;fill-rule:nonzero;stroke:none"
           id="path514" /></g></g><g
       transform="matrix(0.13333333,0,0,-0.13333333,0,313.58667)"
       id="g516"><g
         id="g518"
         clip-path="url(#clipPath522)"><path
           inkscape:connector-curvature="0"
           d="m 1464.08,1994.3 -80.01,0 c -16.31,23.68 -43.59,39.2 -74.51,39.2 -30.92,0 -58.19,-15.53 -74.5,-39.2 l -237.802,0 c -5.828,20.21 -13.906,38.97 -23.918,56.08 l 484.53,0 c 4.37,-13.95 6.72,-28.79 6.72,-44.17 0,-4.01 -0.21,-7.98 -0.51,-11.91"
           style="fill:#f7fcfb;fill-opacity:1;fill-rule:nonzero;stroke:none"
           id="path524" /><path
           inkscape:connector-curvature="0"
           d="m 1457.87,2050.38 -484.53,0 c -5.602,9.57 -11.809,18.62 -18.563,27.13 11.602,6.54 24.707,10.74 38.668,11.94 -0.109,1.58 -0.187,3.18 -0.187,4.8 0,5.67 0.711,11.18 2.054,16.44 l 425.908,0 c 16.7,-16.64 29.42,-37.26 36.65,-60.31"
           style="fill:#f7fbfb;fill-opacity:1;fill-rule:nonzero;stroke:none"
           id="path526" /><path
           inkscape:connector-curvature="0"
           d="m 1421.22,2110.69 -425.908,0 c 7.308,28.65 33.288,49.83 64.218,49.83 10.23,0 19.91,-2.32 28.57,-6.46 2.41,5.92 5.33,11.58 8.71,16.92 l 181.68,0 c 3.97,-6.27 7.31,-12.99 9.92,-20.06 9.28,1.83 18.85,2.81 28.67,2.81 40.64,0 77.45,-16.45 104.14,-43.04"
           style="fill:#f7fbfb;fill-opacity:1;fill-rule:nonzero;stroke:none"
           id="path528" /><path
           inkscape:connector-curvature="0"
           d="m 1096.81,2170.98 c 18.86,29.82 51.98,49.73 89.78,50.09 l 2.1,0 c 37.8,-0.36 70.95,-20.26 89.8,-50.09 l -181.68,0"
           style="fill:#f7fbfb;fill-opacity:1;fill-rule:nonzero;stroke:none"
           id="path530" /><path
           inkscape:connector-curvature="0"
           d="m 997.258,1994.3 -65.914,0 c -3.371,16.47 -7.801,31.97 -13.172,46.41 8.57,15.38 21.273,28.14 36.605,36.8 6.754,-8.51 12.961,-17.56 18.563,-27.13 10.012,-17.11 18.09,-35.87 23.918,-56.08"
           style="fill:#f5806c;fill-opacity:1;fill-rule:nonzero;stroke:none"
           id="path532" /><path
           inkscape:connector-curvature="0"
           d="m 931.344,1994.3 -25.188,0 c 0,16.84 4.364,32.67 12.016,46.41 5.371,-14.44 9.801,-29.94 13.172,-46.41"
           style="fill:#ffffff;fill-opacity:1;fill-rule:nonzero;stroke:none"
           id="path534" /><path
           inkscape:connector-curvature="0"
           d="m 1384.07,1994.3 -149.01,0 c 16.31,23.67 43.58,39.2 74.5,39.2 30.92,0 58.2,-15.52 74.51,-39.2"
           style="fill:#fafdfd;fill-opacity:1;fill-rule:nonzero;stroke:none"
           id="path536" /></g></g><g
       transform="matrix(0.13333333,0,0,-0.13333333,0,313.58667)"
       id="g538"><g
         id="g540"
         clip-path="url(#clipPath544)"><path
           inkscape:connector-curvature="0"
           d="m 493.254,1638.02 -384.914,0 c 0,20.29 9.172,38.44 23.594,50.53 l 352.5,0 c 5.894,-12.89 9.179,-27.22 9.179,-42.31 0,-2.77 -0.144,-5.5 -0.359,-8.22"
           style="fill:#ffffff;fill-opacity:1;fill-rule:nonzero;stroke:none"
           id="path546" /><path
           inkscape:connector-curvature="0"
           d="m 484.434,1688.55 -352.5,0 c 10.089,8.45 22.746,13.93 36.628,15.12 -0.078,1.09 -0.128,2.19 -0.128,3.31 0,18.71 11.234,34.79 27.328,41.87 l 36.781,0 c 0.445,-0.19 0.883,-0.39 1.32,-0.6 0.082,0.2 0.164,0.4 0.246,0.6 l 136.871,0 c 0.383,-0.91 0.747,-1.83 1.09,-2.76 6.391,1.25 13,1.93 19.766,1.93 41.113,0 76.539,-24.38 92.598,-59.47"
           style="fill:#ffffff;fill-opacity:1;fill-rule:nonzero;stroke:none"
           id="path548" /><path
           inkscape:connector-curvature="0"
           d="m 370.98,1748.85 -136.871,0 c 11.164,26.79 37.59,45.63 68.43,45.63 30.84,0 57.27,-18.83 68.441,-45.63 m -138.437,0 -36.781,0 c 5.625,2.48 11.851,3.86 18.394,3.86 6.539,0 12.762,-1.38 18.387,-3.86"
           style="fill:#ffffff;fill-opacity:1;fill-rule:nonzero;stroke:none"
           id="path550" /></g></g><g
       transform="matrix(0.13333333,0,0,-0.13333333,0,313.58667)"
       id="g552"><g
         id="g554"
         clip-path="url(#clipPath558)"><path
           inkscape:connector-curvature="0"
           d="m 1461.11,1785.82 0,0"
           style="fill:#f8fdfd;fill-opacity:1;fill-rule:nonzero;stroke:none"
           id="path560" /><path
           inkscape:connector-curvature="0"
           d="m 1833.85,1785.82 -1.82,0 c -3.07,8.22 -6.98,16.03 -11.62,23.33 l 14.43,0 c 0.77,-5 1.18,-10.11 1.18,-15.33 0,-2.58 -0.13,-5.13 -0.32,-7.66 -0.62,-0.11 -1.23,-0.22 -1.85,-0.34 m -307.45,0 -65.29,0 c 0,8.23 1.55,16.1 4.38,23.33 l 143.92,0 c -4.01,-6.31 -7.47,-13 -10.32,-20 -10.07,4.81 -21.34,7.51 -33.24,7.51 -14.41,0 -27.91,-3.95 -39.45,-10.84"
           style="fill:#f8fdfd;fill-opacity:1;fill-rule:nonzero;stroke:none"
           id="path562" /><path
           inkscape:connector-curvature="0"
           d="m 1834.84,1809.15 -14.43,0 c -22.18,34.84 -61.15,57.96 -105.51,57.96 -44.37,0 -83.32,-23.12 -105.49,-57.96 l -143.92,0 c 5.65,14.45 16.39,26.35 30.02,33.49 l 46.71,0 c 0.24,3.31 0.43,6.65 0.43,10.02 0,5.7 -0.38,11.31 -1.13,16.8 l 259.39,0 c 17.78,-15.05 30.19,-36.25 33.93,-60.31"
           style="fill:#f8fdfd;fill-opacity:1;fill-rule:nonzero;stroke:none"
           id="path564" /><path
           inkscape:connector-curvature="0"
           d="m 1800.91,1869.46 -259.39,0 c -0.88,6.53 -2.27,12.9 -4.13,19.06 7.44,5.59 16.68,8.9 26.69,8.9 6.87,0 13.38,-1.56 19.19,-4.34 6.42,15.78 18.26,28.78 33.2,36.68 l 67.26,0 c 15.61,-8.24 27.83,-22.05 34.01,-38.78 6.23,1.22 12.66,1.88 19.25,1.88 24.36,0 46.67,-8.8 63.92,-23.4"
           style="fill:#f8fdfd;fill-opacity:1;fill-rule:nonzero;stroke:none"
           id="path566" /><path
           inkscape:connector-curvature="0"
           d="m 1683.73,1929.76 -67.26,0 c 10.04,5.3 21.48,8.31 33.63,8.31 12.14,0 23.59,-3 33.63,-8.31"
           style="fill:#f7fcfb;fill-opacity:1;fill-rule:nonzero;stroke:none"
           id="path568" /><path
           inkscape:connector-curvature="0"
           d="m 1835.67,1785.82 -1.82,0 c 0.62,0.12 1.23,0.23 1.85,0.34 -0.01,-0.11 -0.02,-0.22 -0.03,-0.34 m -3.64,0 -305.63,0 c 11.54,6.89 25.04,10.84 39.45,10.84 11.9,0 23.17,-2.7 33.24,-7.51 2.85,7 6.31,13.69 10.32,20 l 211,0 c 4.64,-7.3 8.55,-15.11 11.62,-23.33"
           style="fill:#feffff;fill-opacity:1;fill-rule:nonzero;stroke:none"
           id="path570" /><path
           inkscape:connector-curvature="0"
           d="m 1820.41,1809.15 -211,0 c 22.17,34.84 61.12,57.96 105.49,57.96 44.36,0 83.33,-23.12 105.51,-57.96"
           style="fill:#feffff;fill-opacity:1;fill-rule:nonzero;stroke:none"
           id="path572" /><path
           inkscape:connector-curvature="0"
           d="m 1542.22,1842.64 -46.71,0 c 7.35,3.85 15.53,6.31 24.21,7.05 -0.07,1.07 -0.12,2.15 -0.12,3.24 0,5.84 1.13,11.42 3.18,16.53 l 18.74,0 c 0.75,-5.49 1.13,-11.1 1.13,-16.8 0,-3.37 -0.19,-6.71 -0.43,-10.02"
           style="fill:#fafdfd;fill-opacity:1;fill-rule:nonzero;stroke:none"
           id="path574" /><path
           inkscape:connector-curvature="0"
           d="m 1541.52,1869.46 -18.74,0 c 3.05,7.62 8.15,14.2 14.61,19.06 1.86,-6.16 3.25,-12.53 4.13,-19.06"
           style="fill:#fafdfd;fill-opacity:1;fill-rule:nonzero;stroke:none"
           id="path576" /></g></g><g
       transform="matrix(0.13333333,0,0,-0.13333333,0,313.58667)"
       id="g578"><g
         id="g580"
         clip-path="url(#clipPath584)"><path
           inkscape:connector-curvature="0"
           d="m 2191.5,1601.19 -209.16,0 c 0,0.7 0.02,1.39 0.06,2.08 l 54.12,0 c 0.37,4.58 0.6,9.19 0.6,13.87 0,3.73 -0.12,7.43 -0.35,11.1 l 150.12,0 c 3.09,-6.9 4.81,-14.54 4.81,-22.58 0,-1.51 -0.08,-3 -0.2,-4.47"
           style="fill:#ffffff;fill-opacity:1;fill-rule:nonzero;stroke:none"
           id="path586" /><path
           inkscape:connector-curvature="0"
           d="m 2186.89,1628.24 -150.12,0 c -0.74,11.58 -2.64,22.87 -5.56,33.72 2.69,1 5.6,1.54 8.64,1.54 3.83,0 7.46,-0.87 10.71,-2.42 5.98,14.73 20.43,25.12 37.31,25.12 l 0,0 c 17.32,0 32.1,-10.95 37.78,-26.3 3.47,0.69 7.07,1.06 10.74,1.06 22.5,0 41.86,-13.44 50.5,-32.72"
           style="fill:#ffffff;fill-opacity:1;fill-rule:nonzero;stroke:none"
           id="path588" /><path
           inkscape:connector-curvature="0"
           d="m 2036.52,1603.27 -54.12,0 c 0.58,9.96 5.22,18.83 12.3,24.97 l 42.07,0 c 0.23,-3.67 0.35,-7.37 0.35,-11.1 0,-4.68 -0.23,-9.29 -0.6,-13.87"
           style="fill:#ffffff;fill-opacity:1;fill-rule:nonzero;stroke:none"
           id="path590" /><path
           inkscape:connector-curvature="0"
           d="m 2036.77,1628.24 -42.07,0 c 5.55,4.81 12.61,7.95 20.37,8.61 l -0.07,1.8 c 0,10.69 6.74,19.8 16.21,23.31 2.92,-10.85 4.82,-22.14 5.56,-33.72"
           style="fill:#ffffff;fill-opacity:1;fill-rule:nonzero;stroke:none"
           id="path592" /></g></g><g
       transform="matrix(0.13333333,0,0,-0.13333333,0,313.58667)"
       id="g594"><g
         id="g596"
         clip-path="url(#clipPath600)"><path
           inkscape:connector-curvature="0"
           d="m 3094.8,2065.18 -208.87,0 c 0,18.74 14.37,34.11 32.68,35.67 l -0.07,1.8 c 0,2.81 0.47,5.52 1.33,8.04 l 156.92,0 c 11.19,-10.12 18.22,-24.76 18.22,-41.04 0,-1.5 -0.08,-2.99 -0.21,-4.47"
           style="fill:#ffffff;fill-opacity:1;fill-rule:nonzero;stroke:none"
           id="path602" /><path
           inkscape:connector-curvature="0"
           d="m 3076.79,2110.69 -156.92,0 c 3.34,9.77 12.6,16.81 23.48,16.81 3.83,0 7.46,-0.88 10.7,-2.43 5.98,14.73 20.4,25.13 37.27,25.13 l 0,0 c 17.3,0 32.06,-10.95 37.72,-26.3 3.48,0.68 7.05,1.05 10.74,1.05 14.23,0 27.22,-5.4 37.01,-14.26"
           style="fill:#ffffff;fill-opacity:1;fill-rule:nonzero;stroke:none"
           id="path604" /></g></g><g
       transform="matrix(0.13333333,0,0,-0.13333333,0,313.58667)"
       id="g606"><g
         id="g608"
         clip-path="url(#clipPath612)"><path
           inkscape:connector-curvature="0"
           d="m 1686.41,1996.48 0,0"
           style="fill:#ffffff;fill-opacity:1;fill-rule:nonzero;stroke:none"
           id="path614" /><path
           inkscape:connector-curvature="0"
           d="m 2024.47,1996.48 -338.06,0 c 0,24.52 15.26,45.47 36.8,53.9 l 288.43,0 c 8.34,-13.59 13.15,-29.58 13.15,-46.68 0,-2.43 -0.13,-4.84 -0.32,-7.22"
           style="fill:#ffffff;fill-opacity:1;fill-rule:nonzero;stroke:none"
           id="path616" /><path
           inkscape:connector-curvature="0"
           d="m 2011.64,2050.38 -288.43,0 c 5.06,1.98 10.47,3.26 16.11,3.74 -0.08,0.97 -0.12,1.94 -0.12,2.92 0,22.18 17.98,40.15 40.16,40.15 6.18,0 12.06,-1.4 17.3,-3.91 2.59,6.36 6.15,12.23 10.51,17.41 l 99.61,0 c 4.79,-5.69 8.62,-12.21 11.25,-19.31 5.62,1.1 11.42,1.69 17.37,1.69 32.26,0 60.52,-17.08 76.24,-42.69"
           style="fill:#ffffff;fill-opacity:1;fill-rule:nonzero;stroke:none"
           id="path618" /><path
           inkscape:connector-curvature="0"
           d="m 1906.78,2110.69 -99.61,0 c 11.93,14.18 29.81,23.19 49.8,23.19 19.99,0 37.87,-9.01 49.81,-23.19"
           style="fill:#ffffff;fill-opacity:1;fill-rule:nonzero;stroke:none"
           id="path620" /></g></g><path
       inkscape:connector-curvature="0"
       d="m 67.022932,173.59067 4.935933,0 0,-4.4776 -4.935933,0 z"
       style="fill:#6bc6c0;fill-opacity:1;fill-rule:nonzero;stroke:none"
       id="path630" /><path
       inkscape:connector-curvature="0"
       d="m 96.306798,173.59067 4.936452,0 0,-4.4776 -4.936452,0 z"
       style="fill:#6bc6c0;fill-opacity:1;fill-rule:nonzero;stroke:none"
       id="path632" /><path
       inkscape:connector-curvature="0"
       d="m 0,275.52934 447.98132,0 0,-7.36251 -447.98132,0 z"
       style="fill:#a8b9c0;fill-opacity:1;fill-rule:nonzero;stroke:none"
       id="path822" /><path
       inkscape:connector-curvature="0"
       d="m 0,313.58667 447.98132,0 0,-38.05733 -447.98132,0 z"
       style="fill:#183654;fill-opacity:1;fill-rule:nonzero;stroke:none"
       id="path824" /><path
       inkscape:connector-curvature="0"
       d="m 34.325999,291.51587 c -2.685333,0 -5.190533,-1.12653 -6.702,-3.0156 -0.112,-0.1376 -0.08853,-0.33907 0.0484,-0.4496 0.05933,-0.0468 0.130267,-0.0708 0.2,-0.0708 0.09373,0 0.1864,0.0417 0.25,0.1204 1.3912,1.73853 3.7104,2.7744 6.2036,2.7744 2.486533,0 4.800533,-1.03067 6.193333,-2.76147 -0.08133,0.11467 -0.0808,0.27347 0.0104,0.38707 0.08067,0.10093 0.164,0.1984 0.25,0.29573 -1.529733,1.7104 -3.910933,2.71987 -6.453733,2.71987 m 6.7152,-3.40107 c -0.0037,-0.004 -0.0079,-0.009 -0.012,-0.0145 -0.06253,-0.0787 -0.1552,-0.1204 -0.248933,-0.1204 l 4e-4,0 c 0.0704,0 0.140666,0.024 0.2,0.0708 0.02347,0.0188 0.04387,0.0412 0.06053,0.0641"
       style="fill:#c6d2d6;fill-opacity:1;fill-rule:nonzero;stroke:none"
       id="path826" /><path
       inkscape:connector-curvature="0"
       d="m 47.233865,291.51587 c -2.543199,0 -4.924533,-1.00947 -6.454133,-2.71987 -0.086,-0.0973 -0.169333,-0.1948 -0.25,-0.29573 -0.0912,-0.1136 -0.09173,-0.2724 -0.0104,-0.38707 0.01667,-0.0224 0.03693,-0.0437 0.0604,-0.0625 0.0588,-0.0468 0.1296,-0.0708 0.2,-0.0708 l 5.34e-4,0 c 0.09373,0 0.1864,0.0417 0.248933,0.1204 0.0041,0.005 0.0083,0.0104 0.012,0.0145 1.393733,1.7292 3.706667,2.75987 6.192666,2.75987 2.492667,0 4.812,-1.03587 6.202134,-2.7744 0.05987,-0.0735 0.144266,-0.1136 0.2312,-0.1188 -0.0636,0.004 -0.126534,0.0265 -0.180267,0.0692 -0.138533,0.11053 -0.160933,0.312 -0.05093,0.4496 0.08067,0.10093 0.164,0.1984 0.2504,0.29573 -1.5296,1.7104 -3.911467,2.71987 -6.452534,2.71987 m 6.472934,-3.5344 c 0,0 0,0 -5.34e-4,0 l 5.34e-4,0 m -0.03907,0 c 5.33e-4,0 0.0016,0 0.0025,0 -9.33e-4,0 -0.002,0 -0.0025,0 m 0.03587,0 c -5.34e-4,0 -9.34e-4,0 -0.0015,0 5.33e-4,0 9.33e-4,0 0.0015,0 m -0.03227,0 c 0.0016,-0.002 0.0032,-0.002 0.0041,-0.002 -9.33e-4,0 -0.0025,0 -0.0041,0.002 m 0.02707,-0.002 c -0.0011,0 -0.0015,0 -0.002,0 5.33e-4,0 9.33e-4,0 0.002,0 m -0.02133,0 c 0.0011,0 0.0016,0 0.0021,0 -5.34e-4,0 -0.0011,0 -0.0021,0 m 0.01773,0 c -0.0011,0 -0.0016,0 -0.0027,0 0.0011,0 0.0016,0 0.0027,0 m -0.0136,0 c 5.33e-4,0 0.0011,0 0.0016,0 -5.34e-4,0 -0.0011,0 -0.0016,0 m 0.0095,0 c -0.0011,0 -0.0021,0 -0.0037,0 0.0016,0 0.0027,0 0.0037,0 m -0.0043,0 5.33e-4,0 0,0 -5.33e-4,0"
       style="fill:#c6d2d6;fill-opacity:1;fill-rule:nonzero;stroke:none"
       id="path828" /><path
       inkscape:connector-curvature="0"
       d="m 60.140665,291.51587 c -2.541733,0 -4.924533,-1.00947 -6.454266,-2.71987 -0.0864,-0.0973 -0.169734,-0.1948 -0.2504,-0.29573 -0.11,-0.1376 -0.0876,-0.33907 0.05093,-0.4496 0.05373,-0.0427 0.116667,-0.0656 0.180267,-0.0692 0,0 0,0 5.33e-4,0 5.33e-4,0 0.0016,0 0.0025,0 5.34e-4,0 5.34e-4,0 0.0011,0 0.0016,-0.002 0.0032,-0.002 0.0041,-0.002 5.34e-4,0 0.0011,0 0.0016,0 0.0011,0 0.0016,0 0.0021,0 0.0011,0 0.0015,0 0.002,0 5.33e-4,0 0.0011,0 0.0016,0 0.0016,0 0.0027,0 0.0036,0 l 5.33e-4,0 0,0 0,0 c 0.0016,0 0.0027,0 0.0037,0 5.34e-4,0 0.0011,0 0.0015,0 0.0011,0 0.0016,0 0.0027,0 5.33e-4,0 0.0011,0 0.0016,0 5.33e-4,0 9.33e-4,0 0.002,0 0.0011,0 0.0027,0 0.0037,0.002 5.33e-4,0 9.33e-4,0 0.0015,0 5.33e-4,0 0.0016,0 0.0027,0 5.34e-4,0 5.34e-4,0 5.34e-4,0 0.08693,0.005 0.1708,0.0453 0.2296,0.1188 1.391733,1.73853 3.710533,2.7744 6.204266,2.7744 2.4916,0 4.812,-1.03587 6.2036,-2.7744 0.06307,-0.0787 0.155733,-0.1204 0.249467,-0.1204 0.0021,0 0.0041,0 0.0057,0 -0.06827,0.002 -0.136933,0.024 -0.1948,0.0708 -0.1364,0.11053 -0.158267,0.312 -0.0484,0.4496 0.07867,0.0984 0.159867,0.19427 0.243733,0.28907 -1.530266,1.71453 -3.914,2.72653 -6.459333,2.72653"
       style="fill:#c6d2d6;fill-opacity:1;fill-rule:nonzero;stroke:none"
       id="path830" /><path
       inkscape:connector-curvature="0"
       d="m 73.058798,291.51587 c -2.545733,0 -4.9296,-1.012 -6.4588,-2.72653 -0.08387,-0.0948 -0.165066,-0.19067 -0.243733,-0.28907 -0.109867,-0.1376 -0.088,-0.33907 0.0484,-0.4496 0.05787,-0.0468 0.126533,-0.0692 0.1948,-0.0708 0.0021,0 0.0036,0 0.0057,0 0.09373,0 0.186934,0.0417 0.250534,0.1204 1.3916,1.73853 3.709866,2.7744 6.203066,2.7744 2.493333,0 4.811467,-1.03587 6.203733,-2.7744 0.06293,-0.0787 0.156267,-0.1204 0.25,-0.1204 0.002,0 0.0041,0 0.0063,0 -0.06773,0.002 -0.136,0.0256 -0.193333,0.0708 -0.138,0.11053 -0.159867,0.312 -0.05,0.4496 0.07813,0.0984 0.159466,0.1932 0.2428,0.288 -1.5292,1.71453 -3.914134,2.7276 -6.459467,2.7276"
       style="fill:#c6d2d6;fill-opacity:1;fill-rule:nonzero;stroke:none"
       id="path832" /><path
       inkscape:connector-curvature="0"
       d="m 85.979198,291.51587 c -2.547467,0 -4.932267,-1.01307 -6.460933,-2.7276 -0.08333,-0.0948 -0.164667,-0.1896 -0.2428,-0.288 -0.109867,-0.1376 -0.088,-0.33907 0.05,-0.4496 0.05733,-0.0452 0.1256,-0.0692 0.193333,-0.0708 0.0025,0 0.0047,0 0.0067,0 0.09387,0 0.186533,0.0417 0.249066,0.1204 1.3916,1.73853 3.711467,2.7744 6.204667,2.7744 2.483866,0 4.795333,-1.0292 6.1896,-2.75627 -0.07867,0.1136 -0.0776,0.26987 0.01347,0.38187 0.0808,0.10093 0.164134,0.1984 0.25,0.29573 -1.5292,1.7104 -3.912,2.71987 -6.453066,2.71987 m 6.702533,-3.4156 c -0.064,-0.0787 -0.156667,-0.1204 -0.249467,-0.1204 l 5.34e-4,0 c 0.07027,0 0.1412,0.024 0.2,0.0708 0.01827,0.0147 0.03493,0.0308 0.04893,0.0496"
       style="fill:#c6d2d6;fill-opacity:1;fill-rule:nonzero;stroke:none"
       id="path834" /><path
       inkscape:connector-curvature="0"
       d="m 98.885464,291.51587 c -2.541733,0 -4.923466,-1.00947 -6.4532,-2.71987 -0.08587,-0.0973 -0.1692,-0.1948 -0.25,-0.29573 -0.09107,-0.112 -0.09213,-0.26827 -0.01347,-0.38187 0.0176,-0.0249 0.03853,-0.0479 0.06347,-0.0677 0.05893,-0.0468 0.1292,-0.0708 0.198934,-0.0708 5.33e-4,0 5.33e-4,0 0.0011,0 0.0928,0 0.185467,0.0417 0.249467,0.1204 l 5.33e-4,0 c 1.390667,1.73853 3.709867,2.7744 6.2032,2.7744 2.493732,0 4.812392,-1.03587 6.203592,-2.7744 0.036,-0.0443 0.0807,-0.0776 0.13027,-0.0975 -0.0281,0.012 -0.0557,0.0276 -0.0808,0.0479 -0.13693,0.11053 -0.15933,0.312 -0.0495,0.4496 0.0807,0.1 0.164,0.1984 0.24947,0.29427 -1.5292,1.71093 -3.90987,2.72133 -6.453062,2.72133 m 6.598932,-3.50107 c -5.4e-4,0 -5.4e-4,0 -10e-4,0 5.3e-4,0 5.3e-4,0 10e-4,0 m -0.002,0 c -0.0448,-0.0229 -0.0943,-0.0349 -0.14373,-0.0349 l 0,0 c 0.0489,0 0.0984,0.012 0.14373,0.0349"
       style="fill:#c6d2d6;fill-opacity:1;fill-rule:nonzero;stroke:none"
       id="path836" /><path
       inkscape:connector-curvature="0"
       d="m 111.79213,291.51587 c -2.5432,0 -4.9244,-1.0104 -6.4536,-2.72133 -0.0855,-0.0959 -0.1688,-0.19427 -0.24947,-0.29427 -0.10986,-0.1376 -0.0875,-0.33907 0.0495,-0.4496 0.0251,-0.0203 0.0527,-0.0359 0.0808,-0.0479 0.0385,-0.0145 0.0785,-0.0229 0.1192,-0.0229 l 0,0 c 0.0495,0 0.0989,0.012 0.14373,0.0349 5.4e-4,0 5.4e-4,0 10e-4,0 5.3e-4,0 5.3e-4,0 0.001,0 0.0391,0.0197 0.0749,0.0489 0.10413,0.0855 1.39173,1.73853 3.71093,2.7744 6.2036,2.7744 2.49333,0 4.812,-1.03587 6.20373,-2.7744 0.0489,-0.0605 0.1156,-0.0991 0.18587,-0.1136 -0.0479,0.009 -0.0948,0.0307 -0.13533,0.064 -0.13854,0.11053 -0.1604,0.312 -0.0511,0.4496 0.0807,0.1 0.164,0.1984 0.25,0.29427 -1.52973,1.71093 -3.91147,2.72133 -6.4532,2.72133 m 6.7136,-3.40107 c -0.004,-0.005 -0.007,-0.009 -0.0109,-0.0145 -0.009,-0.012 -0.0193,-0.0229 -0.0297,-0.0324 0.0152,0.0147 0.0287,0.0292 0.0407,0.0469 m -0.16827,-0.12133 -5.3e-4,0 5.3e-4,0 m -0.002,0 c -0.001,0 -0.002,-0.002 -0.003,-0.002 0.001,0 0.002,0.002 0.003,0.002 m -0.004,-0.002 c -0.0265,-0.007 -0.0536,-0.0104 -0.0812,-0.012 0.0271,0.002 0.0547,0.004 0.0812,0.012 m -0.14733,-0.005 c 5.3e-4,0 5.3e-4,0 0.001,0 -5.3e-4,0 -5.3e-4,0 -0.001,0 m 0.0568,-0.007 4e-4,0 -4e-4,0 m 0.009,0 c -0.002,0 -0.003,0 -0.004,0 l 0,0 c 10e-4,0 0.003,0 0.004,0"
       style="fill:#c6d2d6;fill-opacity:1;fill-rule:nonzero;stroke:none"
       id="path838" /><path
       inkscape:connector-curvature="0"
       d="m 124.7,291.51587 c -2.54374,0 -4.92547,-1.0104 -6.45467,-2.72133 -0.086,-0.0959 -0.16933,-0.19427 -0.25,-0.29427 -0.10933,-0.1376 -0.0875,-0.33907 0.0511,-0.4496 0.0405,-0.0333 0.0875,-0.0547 0.13533,-0.064 0.001,0 0.002,0 0.003,0 5.3e-4,0 5.3e-4,0 0.001,0 0.0181,-0.004 0.0369,-0.007 0.0557,-0.007 l 4e-4,0 c 10e-4,0 0.003,0 0.004,0 l 0,0 c 0.001,0 0.003,0 0.004,0 0,0 0,0 5.3e-4,0 0.0276,0.002 0.0547,0.005 0.0812,0.012 5.3e-4,0 5.3e-4,0 5.3e-4,0 10e-4,0 0.002,0.002 0.003,0.002 5.4e-4,0 9.4e-4,0 10e-4,0 l 5.3e-4,0 c 0.0469,0.0145 0.0907,0.0385 0.1276,0.0744 0.0104,0.009 0.0204,0.0204 0.0297,0.0324 0.004,0.005 0.007,0.009 0.0109,0.0145 1.3932,1.7292 3.70733,2.75987 6.19427,2.75987 2.488,0 4.80466,-1.03333 6.19786,-2.76827 -0.0869,0.1152 -0.0891,0.2776 0.006,0.39387 0.0808,0.1 0.1636,0.1984 0.24946,0.29427 -1.5296,1.71093 -3.91186,2.72133 -6.45306,2.72133 m 6.70733,-3.4104 c -0.002,-0.002 -0.003,-0.003 -0.004,-0.005 -0.0171,-0.0204 -0.0353,-0.0391 -0.0557,-0.0548 0.002,0.003 0.004,0.004 0.006,0.005 0.0204,0.0163 0.0381,0.0344 0.0537,0.0548 m -0.48907,-0.0215 c 0.0604,-0.0667 0.1432,-0.10146 0.2276,-0.10413 -0.0677,0.002 -0.13546,0.0256 -0.1928,0.0708 -0.0124,0.0105 -0.0244,0.0215 -0.0348,0.0333 m 0.2416,-0.10413 c -5.3e-4,0 -5.3e-4,0 -0.001,0 5.3e-4,0 5.3e-4,0 0.001,0 m -0.0129,0 c 9.3e-4,0 0.001,0 0.002,0 -5.3e-4,0 -10e-4,0 -0.002,0 m 0.01,0 c -0.001,0 -0.002,0 -0.003,0 0.001,0 0.002,0 0.003,0 m -0.005,0 c 5.3e-4,0 5.3e-4,0 5.3e-4,0 l 0,0 c 0,0 0,0 -5.3e-4,0"
       style="fill:#c6d2d6;fill-opacity:1;fill-rule:nonzero;stroke:none"
       id="path840" /><path
       inkscape:connector-curvature="0"
       d="m 137.60666,291.51587 c -2.54266,0 -4.9244,-1.0104 -6.4536,-2.72133 -0.0859,-0.0959 -0.16866,-0.19427 -0.24946,-0.29427 -0.0948,-0.11627 -0.0927,-0.27867 -0.006,-0.39387 0.006,-0.008 0.0131,-0.0156 0.0204,-0.0224 0.0104,-0.0119 0.0224,-0.0228 0.0348,-0.0333 0.0573,-0.0452 0.12507,-0.0692 0.1928,-0.0708 5.4e-4,0 5.4e-4,0 0.001,0 9.3e-4,0 0.001,0 0.002,0 0.001,0 0.002,0 0.003,0 5.3e-4,0 5.3e-4,0 5.3e-4,0 4e-4,0 4e-4,0 4e-4,0 0,0 0,0 5.4e-4,0 10e-4,0 0.002,0 0.003,0 5.3e-4,0 0.001,0 0.002,0 5.3e-4,0 5.3e-4,0 0.001,0 0.0667,0.002 0.13227,0.024 0.18747,0.0656 0.0204,0.0157 0.0387,0.0344 0.0557,0.0548 0.001,0.003 0.003,0.004 0.004,0.005 1.3916,1.73427 3.70733,2.7692 6.19933,2.7692 2.492,0 4.81067,-1.03587 6.20267,-2.7744 0.064,-0.0787 0.156,-0.1204 0.25067,-0.1204 0.0707,0 0.14133,0.024 0.2,0.0708 0.13733,0.11053 0.15866,0.312 0.0493,0.4496 -1.512,1.88907 -4.01733,3.0156 -6.70267,3.0156"
       style="fill:#c6d2d6;fill-opacity:1;fill-rule:nonzero;stroke:none"
       id="path842" /><path
       inkscape:connector-curvature="0"
       d="m 313.13066,301.70959 c -2.688,0 -5.19333,-1.12813 -6.70533,-3.01612 -0.112,-0.13853 -0.088,-0.33747 0.0507,-0.448 0.06,-0.0495 0.12934,-0.0724 0.2,-0.0724 0.0933,0 0.18667,0.0417 0.24934,0.12147 1.38933,1.73746 3.712,2.77598 6.20533,2.77598 2.492,0 4.812,-1.03852 6.20267,-2.77598 0.0253,-0.0319 0.0547,-0.0573 0.088,-0.0761 -0.0133,0.008 -0.0253,0.0161 -0.0373,0.0271 -0.13866,0.11053 -0.16266,0.30947 -0.0507,0.448 0.08,0.1 0.164,0.1984 0.24933,0.2948 -1.52933,1.70881 -3.91067,2.72132 -6.452,2.72132 m 6.71733,-3.39745 c -0.005,-0.007 -0.009,-0.0119 -0.0147,-0.0176 -0.0627,-0.0787 -0.156,-0.12147 -0.24934,-0.12147 l 0.001,0 c 0.0693,0 0.14,0.0229 0.2,0.0724 0.024,0.0183 0.0453,0.0412 0.0627,0.0667"
       style="fill:#7b93a4;fill-opacity:1;fill-rule:nonzero;stroke:none"
       id="path844" /><path
       inkscape:connector-curvature="0"
       d="m 326.03599,301.70959 c -2.54133,0 -4.924,-1.01251 -6.45333,-2.72132 -0.0853,-0.0964 -0.16933,-0.1948 -0.24933,-0.2948 -0.112,-0.13853 -0.088,-0.33747 0.0507,-0.448 0.012,-0.0109 0.024,-0.0187 0.0373,-0.0271 0.0493,-0.0301 0.10533,-0.0453 0.16133,-0.0453 l 0.001,0 c 0.0933,0 0.18667,0.0428 0.24934,0.12147 0.005,0.006 0.009,0.0109 0.0147,0.0176 1.39067,1.7276 3.704,2.75838 6.188,2.75838 2.484,0 4.79467,-1.03172 6.19067,-2.75838 -0.0773,0.112 -0.0773,0.26666 0.0147,0.38133 0.08,0.1 0.16266,0.19733 0.24933,0.2932 -1.52933,1.71041 -3.912,2.72292 -6.45467,2.72292 m 6.64534,-3.47079 c -0.056,-0.0428 -0.12267,-0.0657 -0.19067,-0.0657 l 0,0 c 0.068,0 0.13467,0.0215 0.19067,0.0657"
       style="fill:#7b93a4;fill-opacity:1;fill-rule:nonzero;stroke:none"
       id="path846" /><path
       inkscape:connector-curvature="0"
       d="m 338.94399,301.70959 c -2.54267,0 -4.92533,-1.01251 -6.45333,-2.72292 -0.0867,-0.0959 -0.16933,-0.1932 -0.24933,-0.2932 -0.092,-0.11467 -0.092,-0.26933 -0.0147,-0.38133 0.0173,-0.0255 0.0387,-0.0484 0.0627,-0.0667 0.0587,-0.0495 0.12933,-0.0724 0.2,-0.0724 0,0 0,0 10e-4,0 0.068,0 0.13467,0.0229 0.19067,0.0657 0.0213,0.0161 0.0413,0.0343 0.0587,0.0557 1.392,1.73746 3.712,2.77598 6.204,2.77598 2.49333,0 4.80933,-1.03852 6.204,-2.77598 0.0627,-0.0797 0.156,-0.12147 0.24933,-0.12147 0.001,0 0.004,0 0.005,0 -0.068,0.002 -0.136,0.024 -0.19334,0.0724 -0.13866,0.11053 -0.16133,0.30947 -0.0507,0.448 0.0787,0.0973 0.16,0.1932 0.244,0.288 -1.52934,1.71301 -3.91334,2.72812 -6.45867,2.72812"
       style="fill:#7b93a4;fill-opacity:1;fill-rule:nonzero;stroke:none"
       id="path848" /><path
       inkscape:connector-curvature="0"
       d="m 351.86266,301.70959 c -2.54667,0 -4.932,-1.01511 -6.46,-2.72812 -0.084,-0.0948 -0.16534,-0.19067 -0.244,-0.288 -0.11067,-0.13853 -0.088,-0.33747 0.0507,-0.448 0.0573,-0.0484 0.12534,-0.0708 0.19334,-0.0724 0.003,0 0.004,0 0.005,0 0.0933,0 0.18667,0.0417 0.248,0.12147 1.39467,1.73746 3.71333,2.77598 6.20667,2.77598 2.492,0 4.812,-1.03852 6.204,-2.77598 0.06,-0.0761 0.148,-0.1172 0.23866,-0.12147 -0.0627,0.004 -0.124,0.0272 -0.176,0.0699 -0.13866,0.11306 -0.16,0.312 -0.048,0.45053 0.0773,0.0973 0.15867,0.1932 0.24134,0.2864 -1.52934,1.71461 -3.91467,2.72972 -6.46,2.72972"
       style="fill:#7b93a4;fill-opacity:1;fill-rule:nonzero;stroke:none"
       id="path850" /><path
       inkscape:connector-curvature="0"
       d="m 364.78266,301.70959 c -2.54934,0 -4.93467,-1.01511 -6.46,-2.72972 -0.0827,-0.0932 -0.164,-0.18907 -0.24134,-0.2864 -0.112,-0.13853 -0.0907,-0.33747 0.048,-0.45053 0.052,-0.0427 0.11334,-0.0656 0.176,-0.0699 0.007,0 0.0133,0 0.0213,0 0.0947,0 0.18933,0.0417 0.25333,0.12147 1.38933,1.73746 3.70667,2.77598 6.20267,2.77598 2.49066,0 4.81066,-1.03852 6.20266,-2.77598 0.0627,-0.0797 0.156,-0.12147 0.25067,-0.12147 0.0707,0 0.14133,0.0229 0.2,0.0724 0.13867,0.11053 0.15867,0.30947 0.0493,0.448 -1.51333,1.88799 -4.01866,3.01612 -6.70266,3.01612"
       style="fill:#7b93a4;fill-opacity:1;fill-rule:nonzero;stroke:none"
       id="path852" /><path
       inkscape:connector-curvature="0"
       d="m 272.37466,292.8372 c -1.28133,0 -2.47333,-0.53693 -3.19867,-1.4412 -0.10933,-0.13853 -0.0867,-0.34 0.0507,-0.45053 0.136,-0.10933 0.34,-0.088 0.44933,0.0491 0.60267,0.7536 1.612,1.20253 2.69867,1.20253 1.08667,0 2.096,-0.44893 2.69733,-1.20253 0.11067,-0.13707 0.31067,-0.1584 0.45067,-0.0491 0.13733,0.11053 0.16133,0.312 0.0507,0.45053 -0.72534,0.90427 -1.92,1.4412 -3.19867,1.4412"
       style="fill:#ffffff;fill-opacity:1;fill-rule:nonzero;stroke:none"
       id="path854" /><path
       inkscape:connector-curvature="0"
       d="m 278.26799,292.8372 c -1.28,0 -2.47066,-0.53693 -3.196,-1.4412 -0.112,-0.13853 -0.088,-0.34 0.0507,-0.45053 0.136,-0.10933 0.33867,-0.088 0.44933,0.0491 0.60267,0.7536 1.61067,1.20253 2.696,1.20253 1.088,0 2.096,-0.44893 2.7,-1.20253 0.11067,-0.13707 0.312,-0.1584 0.44934,-0.0491 0.13866,0.11053 0.16133,0.312 0.0507,0.45053 -0.724,0.90427 -1.92,1.4412 -3.2,1.4412"
       style="fill:#ffffff;fill-opacity:1;fill-rule:nonzero;stroke:none"
       id="path856" /><path
       inkscape:connector-curvature="0"
       d="m 180.276,300.9226 c -1.27867,0 -2.47467,-0.53853 -3.19867,-1.4438 -0.10933,-0.13746 -0.0867,-0.33746 0.0507,-0.4484 0.13733,-0.112 0.33866,-0.0875 0.45066,0.0511 0.60267,0.75213 1.61067,1.2026 2.69734,1.2026 1.08533,0 2.09466,-0.45047 2.69866,-1.2026 0.10934,-0.13853 0.31067,-0.16307 0.448,-0.0511 0.13867,0.11094 0.16134,0.31094 0.0507,0.4484 -0.72267,0.90527 -1.91733,1.4438 -3.19733,1.4438"
       style="fill:#ffffff;fill-opacity:1;fill-rule:nonzero;stroke:none"
       id="path858" /><path
       inkscape:connector-curvature="0"
       d="m 186.16933,300.9226 c -1.27733,0 -2.472,-0.53853 -3.196,-1.4438 -0.11067,-0.13746 -0.0867,-0.33746 0.0507,-0.4484 0.13733,-0.112 0.33733,-0.0875 0.44933,0.0511 0.60267,0.75213 1.61067,1.2026 2.696,1.2026 1.08667,0 2.09733,-0.45047 2.7,-1.2026 0.10933,-0.13853 0.312,-0.16307 0.45067,-0.0511 0.136,0.11094 0.15733,0.31094 0.048,0.4484 -0.724,0.90527 -1.92,1.4438 -3.19867,1.4438"
       style="fill:#ffffff;fill-opacity:1;fill-rule:nonzero;stroke:none"
       id="path860" /><path
       inkscape:connector-curvature="0"
       d="m 403.50932,292.8372 c -1.27866,0 -2.476,-0.53693 -3.19866,-1.4412 -0.10934,-0.13853 -0.088,-0.34 0.0507,-0.45053 0.0587,-0.0468 0.12934,-0.0692 0.2,-0.0692 0.0933,0 0.18667,0.0396 0.248,0.11827 0.60267,0.7536 1.612,1.20253 2.7,1.20253 1.08534,0 2.09334,-0.44893 2.696,-1.20253 0.064,-0.0787 0.156,-0.11827 0.25067,-0.11827 l 0,0 c -0.0707,0 -0.14133,0.0224 -0.2,0.0692 -0.13733,0.11053 -0.16,0.312 -0.0507,0.45053 0.0787,0.0975 0.16267,0.19067 0.25067,0.28027 -0.732,0.73333 -1.80667,1.16093 -2.94667,1.16093"
       style="fill:#7b93a4;fill-opacity:1;fill-rule:nonzero;stroke:none"
       id="path862" /><path
       inkscape:connector-curvature="0"
       d="m 409.40399,292.8372 c -1.14133,0 -2.21467,-0.4276 -2.948,-1.16093 -0.088,-0.0896 -0.172,-0.1828 -0.25067,-0.28027 -0.10933,-0.13853 -0.0867,-0.34 0.0507,-0.45053 0.0587,-0.0468 0.12933,-0.0692 0.2,-0.0692 l 0,0 c 0.0947,0 0.188,0.0396 0.25067,0.11827 0.6,0.7536 1.60933,1.20253 2.69733,1.20253 1.08667,0 2.09333,-0.44893 2.69733,-1.20253 0.064,-0.0787 0.156,-0.11827 0.24934,-0.11827 0.0707,0 0.14133,0.0224 0.20133,0.0692 0.13867,0.11053 0.16,0.312 0.0507,0.45053 -0.72534,0.90427 -1.91867,1.4412 -3.19867,1.4412"
       style="fill:#7b93a4;fill-opacity:1;fill-rule:nonzero;stroke:none"
       id="path864" /></g></svg>