<?xml version="1.0" encoding="UTF-8" standalone="no"?>
<!-- Created with Inkscape (http://www.inkscape.org/) -->

<svg
   xmlns:dc="http://purl.org/dc/elements/1.1/"
   xmlns:cc="http://creativecommons.org/ns#"
   xmlns:rdf="http://www.w3.org/1999/02/22-rdf-syntax-ns#"
   xmlns:svg="http://www.w3.org/2000/svg"
   xmlns="http://www.w3.org/2000/svg"
   xmlns:xlink="http://www.w3.org/1999/xlink"
   xmlns:sodipodi="http://sodipodi.sourceforge.net/DTD/sodipodi-0.dtd"
   xmlns:inkscape="http://www.inkscape.org/namespaces/inkscape"
   width="800"
   height="600"
   id="svg2"
   version="1.1"
   inkscape:version="0.48.5 r10040"
   sodipodi:docname="logo4.svg">
  <defs
     id="defs4">
    <linearGradient
       inkscape:collect="always"
       id="linearGradient5797">
      <stop
         style="stop-color:#000000;stop-opacity:1;"
         offset="0"
         id="stop5799" />
      <stop
         style="stop-color:#000000;stop-opacity:0;"
         offset="1"
         id="stop5801" />
    </linearGradient>
    <linearGradient
       id="linearGradient3910"
       inkscape:collect="always">
      <stop
         id="stop3912"
         offset="0"
         style="stop-color:#2b0000;stop-opacity:1;" />
      <stop
         id="stop3914"
         offset="1"
         style="stop-color:#000000;stop-opacity:0" />
    </linearGradient>
    <linearGradient
       inkscape:collect="always"
       id="linearGradient3895">
      <stop
         style="stop-color:#2b0000;stop-opacity:1;"
         offset="0"
         id="stop3897" />
      <stop
         style="stop-color:#2b0000;stop-opacity:0;"
         offset="1"
         id="stop3899" />
    </linearGradient>
    <linearGradient
       inkscape:collect="always"
       xlink:href="#linearGradient3895"
       id="linearGradient3901"
       x1="371.95544"
       y1="455.05585"
       x2="472.58124"
       y2="455.05585"
       gradientUnits="userSpaceOnUse" />
    <linearGradient
       inkscape:collect="always"
       xlink:href="#linearGradient3895"
       id="linearGradient3903"
       x1="277.14288"
       y1="529.50507"
       x2="540"
       y2="529.50507"
       gradientUnits="userSpaceOnUse" />
    <linearGradient
       inkscape:collect="always"
       xlink:href="#linearGradient3895"
       id="linearGradient3905"
       x1="197.95544"
       y1="455.05585"
       x2="298.58124"
       y2="455.05585"
       gradientUnits="userSpaceOnUse" />
    <linearGradient
       inkscape:collect="always"
       xlink:href="#linearGradient3910"
       id="linearGradient4137"
       gradientUnits="userSpaceOnUse"
       x1="214.37164"
       y1="472.22845"
       x2="816.03314"
       y2="464.14725" />
    <filter
       id="filter5187"
       inkscape:label="滤镜1"
       color-interpolation-filters="sRGB">
      <feBlend
         blend="normal"
         id="feBlend5189"
         in2="SourceGraphic"
         mode="normal" />
    </filter>
    <filter
       inkscape:menu-tooltip="Draws a black outline around"
       inkscape:menu="ABCs"
       inkscape:label="Black outline"
       color-interpolation-filters="sRGB"
       id="filter5217">
      <feGaussianBlur
         stdDeviation="2"
         in="SourceAlpha"
         result="result0"
         id="feGaussianBlur5219" />
      <feComposite
         result="result3"
         operator="arithmetic"
         in2="result0"
         in="SourceGraphic"
         k2="1"
         k3="10"
         id="feComposite5221"
         k1="0"
         k4="0" />
      <feComposite
         operator="in"
         in="result3"
         result="result4"
         in2="result3"
         id="feComposite5223" />
    </filter>
    <filter
       inkscape:menu-tooltip="Draws a black outline around"
       inkscape:menu="ABCs"
       inkscape:label="Black outline"
       color-interpolation-filters="sRGB"
       id="filter3124">
      <feGaussianBlur
         stdDeviation="2"
         in="SourceAlpha"
         result="result0"
         id="feGaussianBlur3126" />
      <feComposite
         result="result3"
         operator="arithmetic"
         in2="result0"
         in="SourceGraphic"
         k2="1"
         k3="10"
         id="feComposite3128"
         k1="0"
         k4="0" />
      <feComposite
         operator="in"
         in="result3"
         result="result4"
         in2="result3"
         id="feComposite3130" />
    </filter>
    <filter
       inkscape:menu-tooltip="Draws a black outline around"
       inkscape:menu="ABCs"
       inkscape:label="Black outline"
       color-interpolation-filters="sRGB"
       id="filter5457">
      <feGaussianBlur
         stdDeviation="3.5"
         in="SourceAlpha"
         result="result0"
         id="feGaussianBlur5459" />
      <feComposite
         result="result3"
         operator="arithmetic"
         in2="result0"
         in="SourceGraphic"
         k2="1"
         k3="10"
         id="feComposite5461"
         k1="0"
         k4="0" />
      <feComposite
         operator="in"
         in="result3"
         result="result4"
         in2="result3"
         id="feComposite5463" />
    </filter>
    <linearGradient
       inkscape:collect="always"
       xlink:href="#linearGradient5797"
       id="linearGradient5803"
       x1="871.71674"
       y1="642.7146"
       x2="1097.1842"
       y2="642.7146"
       gradientUnits="userSpaceOnUse" />
    <filter
       inkscape:menu-tooltip="Draws a black outline around"
       inkscape:menu="ABCs"
       inkscape:label="Black outline"
       color-interpolation-filters="sRGB"
       id="filter5816">
      <feGaussianBlur
         stdDeviation="2"
         in="SourceAlpha"
         result="result0"
         id="feGaussianBlur5818" />
      <feComposite
         result="result3"
         operator="arithmetic"
         in2="result0"
         in="SourceGraphic"
         k2="1"
         k3="10"
         id="feComposite5820"
         k1="0"
         k4="0" />
      <feComposite
         operator="in"
         in="result3"
         result="result4"
         in2="result3"
         id="feComposite5822" />
    </filter>
    <filter
       inkscape:menu-tooltip="Draws a black outline around"
       inkscape:menu="ABCs"
       inkscape:label="Black outline"
       color-interpolation-filters="sRGB"
       id="filter5845">
      <feGaussianBlur
         stdDeviation="2"
         in="SourceAlpha"
         result="result0"
         id="feGaussianBlur5847" />
      <feComposite
         result="result3"
         operator="arithmetic"
         in2="result0"
         in="SourceGraphic"
         k2="1"
         k3="10"
         id="feComposite5849"
         k1="0"
         k4="0" />
      <feComposite
         operator="in"
         in="result3"
         result="result4"
         in2="result3"
         id="feComposite5851" />
    </filter>
    <filter
       inkscape:menu-tooltip="Draws a black outline around"
       inkscape:menu="ABCs"
       inkscape:label="Black outline"
       color-interpolation-filters="sRGB"
       id="filter5863">
      <feGaussianBlur
         stdDeviation="2"
         in="SourceAlpha"
         result="result0"
         id="feGaussianBlur5865" />
      <feComposite
         result="result3"
         operator="arithmetic"
         in2="result0"
         in="SourceGraphic"
         k2="1"
         k3="10"
         id="feComposite5867"
         k1="0"
         k4="0" />
      <feComposite
         operator="in"
         in="result3"
         result="result4"
         in2="result3"
         id="feComposite5869" />
    </filter>
    <filter
       inkscape:menu-tooltip="Draws a black outline around"
       inkscape:menu="ABCs"
       inkscape:label="Black outline"
       color-interpolation-filters="sRGB"
       id="filter5891">
      <feGaussianBlur
         stdDeviation="2"
         in="SourceAlpha"
         result="result0"
         id="feGaussianBlur5893" />
      <feComposite
         result="result3"
         operator="arithmetic"
         in2="result0"
         in="SourceGraphic"
         k2="1"
         k3="10"
         id="feComposite5895"
         k1="0"
         k4="0" />
      <feComposite
         operator="in"
         in="result3"
         result="result4"
         in2="result3"
         id="feComposite5897" />
    </filter>
    <filter
       inkscape:menu-tooltip="Draws a black outline around"
       inkscape:menu="ABCs"
       inkscape:label="Black outline"
       color-interpolation-filters="sRGB"
       id="filter5899">
      <feGaussianBlur
         stdDeviation="2"
         in="SourceAlpha"
         result="result0"
         id="feGaussianBlur5901" />
      <feComposite
         result="result3"
         operator="arithmetic"
         in2="result0"
         in="SourceGraphic"
         k2="1"
         k3="10"
         id="feComposite5903"
         k1="0"
         k4="0" />
      <feComposite
         operator="in"
         in="result3"
         result="result4"
         in2="result3"
         id="feComposite5905" />
    </filter>
    <filter
       inkscape:menu-tooltip="Draws a black outline around"
       inkscape:menu="ABCs"
       inkscape:label="Black outline"
       color-interpolation-filters="sRGB"
       id="filter5907">
      <feGaussianBlur
         stdDeviation="2"
         in="SourceAlpha"
         result="result0"
         id="feGaussianBlur5909" />
      <feComposite
         result="result3"
         operator="arithmetic"
         in2="result0"
         in="SourceGraphic"
         k2="1"
         k3="10"
         id="feComposite5911"
         k1="0"
         k4="0" />
      <feComposite
         operator="in"
         in="result3"
         result="result4"
         in2="result3"
         id="feComposite5913" />
    </filter>
    <filter
       inkscape:menu-tooltip="Draws a black outline around"
       inkscape:menu="ABCs"
       inkscape:label="Black outline"
       color-interpolation-filters="sRGB"
       id="filter4215">
      <feGaussianBlur
         stdDeviation="7"
         in="SourceAlpha"
         result="result0"
         id="feGaussianBlur4217" />
      <feComposite
         result="result3"
         operator="arithmetic"
         in2="result0"
         in="SourceGraphic"
         k2="1"
         k3="10"
         id="feComposite4219" />
      <feComposite
         k2="1"
         operator="in"
         in="result3"
         result="result4"
         in2="result3"
         id="feComposite4221" />
    </filter>
  </defs>
  <sodipodi:namedview
     id="base"
     pagecolor="#000000"
     bordercolor="#666666"
     borderopacity="1.0"
     inkscape:pageopacity="0"
     inkscape:pageshadow="2"
     inkscape:zoom="0.70710678"
     inkscape:cx="309.42676"
     inkscape:cy="313.9952"
     inkscape:document-units="px"
     inkscape:current-layer="layer1"
     showgrid="true"
     inkscape:window-width="1366"
     inkscape:window-height="666"
     inkscape:window-x="0"
     inkscape:window-y="0"
     inkscape:window-maximized="1"
     showborder="true" />
  <metadata
     id="metadata7">
    <rdf:RDF>
      <cc:Work
         rdf:about="">
        <dc:format>image/svg+xml</dc:format>
        <dc:type
           rdf:resource="http://purl.org/dc/dcmitype/StillImage" />
        <dc:title></dc:title>
      </cc:Work>
    </rdf:RDF>
  </metadata>
  <g
     inkscape:label="Layer 1"
     inkscape:groupmode="layer"
     id="layer1"
     transform="translate(0,-452.36218)">
    <rect
       style="fill:#483737;fill-opacity:0;stroke:none"
       id="rect3879"
       width="743.47229"
       height="120.20815"
       x="-1.0101526"
       y="-0.21676964" />
    <use
       id="use3881"
       xlink:href="#rect3879"
       x="0"
       y="0"
       width="744.09448"
       height="1052.3622"
       transform="translate(-206.2511,-39.679443)" />
    <flowRoot
       xml:space="preserve"
       id="flowRoot4139"
       style="font-size:40px;font-style:normal;font-variant:normal;font-weight:normal;font-stretch:normal;text-align:start;line-height:125%;letter-spacing:0px;word-spacing:0px;writing-mode:lr-tb;text-anchor:start;fill:#e3dbdb;fill-opacity:1;stroke:none;font-family:Serif;-inkscape-font-specification:Serif"><flowRegion
         id="flowRegion4141"><rect
           id="rect4143"
           width="160.61426"
           height="42.426407"
           x="147.48227"
           y="62.412689"
           style="font-size:40px;font-style:normal;font-variant:normal;font-weight:normal;font-stretch:normal;text-align:start;line-height:125%;writing-mode:lr-tb;text-anchor:start;fill:#e3dbdb;font-family:Serif;-inkscape-font-specification:Serif" /></flowRegion><flowPara
         id="flowPara4145">enlamiao</flowPara><flowPara
         id="flowPara4147" /></flowRoot>    <flowRoot
       xml:space="preserve"
       id="flowRoot4149"
       style="font-size:40px;font-style:normal;font-weight:normal;line-height:125%;letter-spacing:0px;word-spacing:0px;fill:#000000;fill-opacity:1;stroke:none;font-family:Sans"><flowRegion
         id="flowRegion4151"><rect
           id="rect4153"
           width="285.87317"
           height="40.406101"
           x="110.10663"
           y="211.91527" /></flowRegion><flowPara
         id="flowPara4155">enlamiao </flowPara><flowPara
         id="flowPara4157" /></flowRoot>    <g
       id="g3381"
       style="stroke:none;filter:url(#filter4215);stroke-width:2;stroke-miterlimit:4;stroke-dasharray:none"
       transform="translate(-12.727922,1.4142136)">
      <path
         transform="matrix(3.4951729,0,0,3.4951729,35.332357,-2606.2289)"
         sodipodi:nodetypes="ccccc"
         inkscape:connector-curvature="0"
         id="rect4079"
         d="m 45.881441,944.79836 c 14.207162,3.24291 53.504403,-18.23483 124.020199,0 l -1.83977,38.03307 c -31.0738,-1.2823 -67.34936,-11.64945 -120.034035,-0.91989 -4.664771,-19.1413 -1.661922,-25.13811 -2.146394,-37.11318 z"
         style="fill:#784421;fill-opacity:1;stroke:none;stroke-width:0.57221776;stroke-miterlimit:4;stroke-dasharray:none" />
      <path
         transform="matrix(3.4951729,0,0,3.4951729,35.332357,-2606.2289)"
         id="path4117"
         d="m 117.98678,900.6213 c -0.43352,0.0164 -0.78998,0.12835 -1.05131,0.34133 -3.28047,2.67356 -1.95311,16.32389 -0.53031,23.91153 0.57206,3.05072 1.28708,5.3672 2.09331,7.0962 -0.31134,1.51391 -0.47447,3.06352 -0.47447,4.64394 0,16.45437 17.52101,29.7951 39.131,29.7951 21.61,0 39.12171,-13.34073 39.12171,-29.7951 0,-3.09202 -0.61952,-6.07952 -1.76768,-8.8837 0.22352,-0.87201 0.43854,-1.82129 0.63264,-2.85644 1.42279,-7.58764 2.75016,-21.23797 -0.5303,-23.91153 -2.33563,-1.90352 -12.14906,4.5924 -18.38394,9.62929 -5.6442,-2.40469 -12.145,-3.77267 -19.07243,-3.77267 -7.66354,0 -14.81382,1.67303 -20.8494,4.57211 -5.47772,-4.56892 -14.66929,-10.90777 -18.31882,-10.77006 z"
         style="fill:#784421;fill-opacity:1;stroke:none;stroke-width:0.57221776;stroke-miterlimit:4;stroke-dasharray:none"
         inkscape:connector-curvature="0" />
      <path
         transform="matrix(3.4951729,0,0,3.4951729,35.332357,-2606.2289)"
         inkscape:connector-curvature="0"
         id="path4275"
         d="m 184.35877,947.0207 c -1.89155,0.0611 -3.84533,0.62605 -5.6156,1.74539 -4.72074,2.9849 -6.38157,8.71911 -3.6805,12.82482 0.26313,0.39995 0.58886,0.76172 0.91064,1.10035 6.7983,-2.72547 12.392,-6.94394 16.08794,-12.06595 -1.70563,-2.45984 -4.61668,-3.70415 -7.70248,-3.60461 z"
         style="fill:#deaa87;fill-opacity:1;stroke:none;stroke-width:0.57221776;stroke-miterlimit:4;stroke-dasharray:none" />
      <path
         sodipodi:open="true"
         sodipodi:end="12.434668"
         sodipodi:start="6.2132296"
         transform="matrix(2.5075664,0,0,2.5412602,327.43273,395.59923)"
         d="m 111.57615,125.24728 c 0.72142,5.98267 -7.0401,11.17241 -17.33586,11.59162 -10.295755,0.4192 -19.226943,-4.09088 -19.948367,-10.07354 -0.721425,-5.98267 7.040104,-11.17242 17.335859,-11.59162 9.849048,-0.40102 18.535668,3.71909 19.832238,9.40653"
         sodipodi:ry="10.859139"
         sodipodi:rx="18.687822"
         sodipodi:cy="126.00632"
         sodipodi:cx="92.934036"
         id="path3062"
         style="fill:#deaa87;fill-opacity:1;stroke:none;stroke-width:0.79228094;stroke-miterlimit:4;stroke-dasharray:none"
         sodipodi:type="arc" />
      <path
         transform="matrix(3.4951729,0,0,3.4951729,35.332357,-2606.2289)"
         sodipodi:nodetypes="cc"
         inkscape:connector-curvature="0"
         id="path3064"
         d="m 142.97919,951.46706 c 7.77904,3.698 11.15837,1.56252 14.78081,-0.25061"
         style="fill:none;stroke:none;stroke-width:0.57221776;stroke-miterlimit:4;stroke-dasharray:none" />
      <path
         sodipodi:open="true"
         sodipodi:end="12.434668"
         sodipodi:start="6.2132296"
         transform="matrix(1.7342269,0,0,1.7342269,397.11243,515.67998)"
         d="m 63.625405,98.831284 c 0.224226,3.200036 -2.188141,5.975946 -5.388173,6.200166 -3.200032,0.22423 -5.975942,-2.18814 -6.200169,-5.38817 -0.224226,-3.200032 2.188141,-5.975942 5.388173,-6.200169 3.06119,-0.214497 5.761085,1.989282 6.164073,5.031402"
         sodipodi:ry="5.8083773"
         sodipodi:rx="5.8083773"
         sodipodi:cy="99.237282"
         sodipodi:cx="57.831234"
         id="path3836"
         style="fill:#000000;fill-opacity:1;stroke:none;stroke-width:1.15325163;stroke-miterlimit:4;stroke-dasharray:none"
         sodipodi:type="arc" />
      <path
         sodipodi:type="arc"
         style="fill:#000000;fill-opacity:1;stroke:none;stroke-width:1.15325163;stroke-miterlimit:4;stroke-dasharray:none"
         id="path3838"
         sodipodi:cx="57.831234"
         sodipodi:cy="99.237282"
         sodipodi:rx="5.8083773"
         sodipodi:ry="5.8083773"
         d="m 63.625405,98.831284 c 0.224226,3.200036 -2.188141,5.975946 -5.388173,6.200166 -3.200032,0.22423 -5.975942,-2.18814 -6.200169,-5.38817 -0.224226,-3.200032 2.188141,-5.975942 5.388173,-6.200169 3.06119,-0.214497 5.761085,1.989282 6.164073,5.031402"
         transform="matrix(1.7342269,0,0,1.7342269,517.11304,513.05221)"
         sodipodi:start="6.2132296"
         sodipodi:end="12.434668"
         sodipodi:open="true" />
      <path
         sodipodi:type="arc"
         style="fill:#deaa87;fill-opacity:1;stroke:none;stroke-width:0.79228094;stroke-miterlimit:4;stroke-dasharray:none"
         id="path3922"
         sodipodi:cx="92.934036"
         sodipodi:cy="126.00632"
         sodipodi:rx="18.687822"
         sodipodi:ry="10.859139"
         d="m 111.57615,125.24728 c 0.72142,5.98267 -7.0401,11.17241 -17.33586,11.59162 -10.295755,0.4192 -19.226943,-4.09088 -19.948367,-10.07354 -0.721425,-5.98267 7.040104,-11.17242 17.335859,-11.59162 9.849048,-0.40102 18.535668,3.71909 19.832238,9.40653"
         transform="matrix(2.4777311,0.38566552,-0.39084764,2.511024,379.45472,363.56771)"
         sodipodi:start="6.2132296"
         sodipodi:end="12.434668"
         sodipodi:open="true" />
      <path
         transform="matrix(3.4951729,0,0,3.4951729,35.332357,-2606.2289)"
         style="fill:none;stroke:none;stroke-width:0.57221776;stroke-miterlimit:4;stroke-dasharray:none"
         d="m 146.28241,948.71271 c 1.11293,3.4132 8.2445,3.5311 9.77,0.2606"
         id="path3924"
         inkscape:connector-curvature="0"
         sodipodi:nodetypes="cc" />
      <path
         sodipodi:type="arc"
         style="fill:#000000;fill-opacity:1;stroke:none;stroke-width:1.15325163;stroke-miterlimit:4;stroke-dasharray:none"
         id="path3926"
         sodipodi:cx="57.831234"
         sodipodi:cy="99.237282"
         sodipodi:rx="5.8083773"
         sodipodi:ry="5.8083773"
         d="m 63.625405,98.831284 c 0.224226,3.200036 -2.188141,5.975946 -5.388173,6.200166 -3.200032,0.22423 -5.975942,-2.18814 -6.200169,-5.38817 -0.224226,-3.200032 2.188141,-5.975942 5.388173,-6.200169 3.06119,-0.214497 5.761085,1.989282 6.164073,5.031402"
         transform="matrix(1.7342269,0,0,1.7342269,397.11243,515.67998)"
         sodipodi:start="6.2132296"
         sodipodi:end="12.434668"
         sodipodi:open="true" />
      <path
         sodipodi:open="true"
         sodipodi:end="12.434668"
         sodipodi:start="6.2132296"
         transform="matrix(1.7342269,0,0,1.7342269,517.11304,513.05221)"
         d="m 63.625405,98.831284 c 0.224226,3.200036 -2.188141,5.975946 -5.388173,6.200166 -3.200032,0.22423 -5.975942,-2.18814 -6.200169,-5.38817 -0.224226,-3.200032 2.188141,-5.975942 5.388173,-6.200169 3.06119,-0.214497 5.761085,1.989282 6.164073,5.031402"
         sodipodi:ry="5.8083773"
         sodipodi:rx="5.8083773"
         sodipodi:cy="99.237282"
         sodipodi:cx="57.831234"
         id="path3928"
         style="fill:#000000;fill-opacity:1;stroke:none;stroke-width:1.15325163;stroke-miterlimit:4;stroke-dasharray:none"
         sodipodi:type="arc" />
      <path
         sodipodi:type="arc"
         style="fill:#000000;fill-opacity:1;stroke:none;stroke-width:1.15325163;stroke-miterlimit:4;stroke-dasharray:none"
         id="path3930"
         sodipodi:cx="57.831234"
         sodipodi:cy="99.237282"
         sodipodi:rx="5.8083773"
         sodipodi:ry="5.8083773"
         d="m 63.625405,98.831284 c 0.224226,3.200036 -2.188141,5.975946 -5.388173,6.200166 -3.200032,0.22423 -5.975942,-2.18814 -6.200169,-5.38817 -0.224226,-3.200032 2.188141,-5.975942 5.388173,-6.200169 3.06119,-0.214497 5.761085,1.989282 6.164073,5.031402"
         transform="matrix(1.7342269,0,0,1.7342269,463.19825,520.64431)"
         sodipodi:start="6.2132296"
         sodipodi:end="12.434668"
         sodipodi:open="true" />
      <path
         transform="matrix(3.4951729,0,0,3.4951729,35.332357,-2606.2289)"
         sodipodi:nodetypes="sssssss"
         inkscape:connector-curvature="0"
         id="rect4081"
         d="m 18.00723,933.45267 c 22.872375,5.14069 23.930661,9.98983 33.734232,12.8109 3.463516,0.99666 5.681933,9.69116 3.982803,8.29347 -2.783373,-2.28959 -1.876307,36.07994 -8.293469,10.921 -1.41808,-5.55967 2.732764,-18.45677 -33.427607,-18.6759 -3.604003,-0.0218 -8.5497647,-5.96613 -7.3557107,-9.36666 1.194054,-3.40053 7.8433997,-4.77313 11.3597517,-3.98281 z"
         style="fill:#784421;fill-opacity:1;stroke:none;stroke-width:0.57221776;stroke-miterlimit:4;stroke-dasharray:none" />
      <path
         transform="matrix(3.4951729,0,0,3.4951729,35.332357,-2606.2289)"
         style="fill:#784421;fill-opacity:1;stroke:none;stroke-width:0.57221776;stroke-miterlimit:4;stroke-dasharray:none"
         d="m 56.858399,973.34401 c 3.603528,0 6.910357,2.92397 6.504553,6.50456 -0.25986,2.29295 -0.536548,4.09831 0,29.48733 0.07613,3.6027 -1.061257,6.5045 -4.664785,6.5045 -3.603528,0 -3.91344,-3.2868 -4.664785,-6.8111 -2.65534,-12.45532 -8.442054,-26.17095 -6.132563,-37.94721 0.693488,-3.53615 5.354052,2.26192 8.95758,2.26192 z"
         id="path4090"
         inkscape:connector-curvature="0"
         sodipodi:nodetypes="sssssss" />
      <path
         transform="matrix(3.4951729,0,0,3.4951729,35.332357,-2606.2289)"
         sodipodi:nodetypes="sssssss"
         inkscape:connector-curvature="0"
         id="path4094"
         d="m 73.02712,971.47339 c 3.587993,-0.33424 7.151773,2.27039 7.079827,5.87319 -0.04607,2.30718 -0.154106,4.13041 2.735023,29.36022 0.409962,3.5801 -0.01214,6.5544 -3.600074,6.8886 -3.587994,0.3343 -4.883046,-2.823 -5.71772,-6.3286 -3.071001,-12.89779 -5.006135,-22.52848 -9.040232,-30.92851 -1.560006,-3.24833 4.955183,-4.53067 8.543176,-4.8649 z"
         style="fill:#784421;fill-opacity:1;stroke:none;stroke-width:0.57221776;stroke-miterlimit:4;stroke-dasharray:none" />
      <path
         transform="matrix(3.4951729,0,0,3.4951729,35.332357,-2606.2289)"
         sodipodi:nodetypes="sssssss"
         inkscape:connector-curvature="0"
         id="path4096"
         d="m 144.24729,972.11751 c 3.60353,0 6.91036,2.92396 6.50456,6.50455 -0.25986,2.29295 -0.53655,4.09831 0,29.48734 0.0761,3.6027 -1.06126,6.5044 -4.66479,6.5044 -3.60353,0 -4.06137,-3.2584 -4.66478,-6.8111 -2.19099,-12.89939 -3.38282,-21.63689 -6.13257,-31.63367 -0.95569,-3.47446 5.35406,-4.05152 8.95758,-4.05152 z"
         style="fill:#784421;fill-opacity:1;stroke:none;stroke-width:0.57221776;stroke-miterlimit:4;stroke-dasharray:none" />
      <path
         transform="matrix(3.4951729,0,0,3.4951729,35.332357,-2606.2289)"
         style="fill:#784421;fill-opacity:1;stroke:none;stroke-width:0.57221776;stroke-miterlimit:4;stroke-dasharray:none"
         d="m 160.61777,971.19805 c 3.57326,-0.4661 7.23051,2.00557 7.29125,5.60857 0.0388,2.30731 -0.002,4.13328 3.81408,29.23958 0.54147,3.5626 -0.14235,6.296 -3.71561,6.7621 -3.57326,0.4661 -4.67933,-2.369 -5.57525,-5.8594 -3.41419,-13.30104 -5.40966,-23.03594 -10.17275,-30.57473 -1.92476,-3.0464 4.78502,-4.71001 8.35828,-5.17612 z"
         id="path4098"
         inkscape:connector-curvature="0"
         sodipodi:nodetypes="sssssss" />
      <path
         transform="matrix(3.4951729,0,0,3.4951729,35.332357,-2606.2289)"
         inkscape:connector-curvature="0"
         id="path3083"
         d="m 150.57199,951.46975 c -0.0242,1.01433 -0.0484,2.02866 -0.0726,3.04297"
         style="fill:none;stroke:none;stroke-width:0.57221776;stroke-miterlimit:4;stroke-dasharray:none" />
    </g>
    <flowRoot
       xml:space="preserve"
       id="flowRoot5484"
       style="font-size:40px;font-style:normal;font-weight:normal;line-height:125%;letter-spacing:0px;word-spacing:0px;fill:#000000;fill-opacity:1;stroke:none;font-family:Sans"
       transform="translate(0,452.36218)"><flowRegion
         id="flowRegion5486"><rect
           id="rect5488"
           width="354.58246"
           height="82.912315"
           x="148.1837"
           y="74.300652" /></flowRegion><flowPara
         id="flowPara5490" /></flowRoot>  </g>
</svg>
