<?xml version="1.0" encoding="UTF-8" standalone="no"?>
<!-- Created with Inkscape (http://www.inkscape.org/) -->

<svg
   xmlns:dc="http://purl.org/dc/elements/1.1/"
   xmlns:cc="http://creativecommons.org/ns#"
   xmlns:rdf="http://www.w3.org/1999/02/22-rdf-syntax-ns#"
   xmlns:svg="http://www.w3.org/2000/svg"
   xmlns="http://www.w3.org/2000/svg"
   xmlns:xlink="http://www.w3.org/1999/xlink"
   xmlns:sodipodi="http://sodipodi.sourceforge.net/DTD/sodipodi-0.dtd"
   xmlns:inkscape="http://www.inkscape.org/namespaces/inkscape"
   width="200"
   height="200"
   id="svg2"
   version="1.1"
   inkscape:version="0.48.5 r10040"
   sodipodi:docname="logo2.svg">
  <defs
     id="defs4">
    <linearGradient
       id="linearGradient3910"
       inkscape:collect="always">
      <stop
         id="stop3912"
         offset="0"
         style="stop-color:#2b0000;stop-opacity:1;" />
      <stop
         id="stop3914"
         offset="1"
         style="stop-color:#000000;stop-opacity:0" />
    </linearGradient>
    <linearGradient
       inkscape:collect="always"
       id="linearGradient3895">
      <stop
         style="stop-color:#2b0000;stop-opacity:1;"
         offset="0"
         id="stop3897" />
      <stop
         style="stop-color:#2b0000;stop-opacity:0;"
         offset="1"
         id="stop3899" />
    </linearGradient>
    <linearGradient
       inkscape:collect="always"
       xlink:href="#linearGradient3895"
       id="linearGradient3901"
       x1="371.95544"
       y1="455.05585"
       x2="472.58124"
       y2="455.05585"
       gradientUnits="userSpaceOnUse" />
    <linearGradient
       inkscape:collect="always"
       xlink:href="#linearGradient3895"
       id="linearGradient3903"
       x1="277.14288"
       y1="529.50507"
       x2="540"
       y2="529.50507"
       gradientUnits="userSpaceOnUse" />
    <linearGradient
       inkscape:collect="always"
       xlink:href="#linearGradient3895"
       id="linearGradient3905"
       x1="197.95544"
       y1="455.05585"
       x2="298.58124"
       y2="455.05585"
       gradientUnits="userSpaceOnUse" />
    <linearGradient
       inkscape:collect="always"
       xlink:href="#linearGradient3910"
       id="linearGradient4137"
       gradientUnits="userSpaceOnUse"
       x1="214.37164"
       y1="472.22845"
       x2="816.03314"
       y2="464.14725" />
    <filter
       inkscape:label="Bloom"
       inkscape:menu="Bevels"
       inkscape:menu-tooltip="Soft, cushion-like bevel with matte highlights"
       color-interpolation-filters="sRGB"
       id="filter5120">
      <feGaussianBlur
         result="result1"
         in="SourceAlpha"
         stdDeviation="2.2"
         id="feGaussianBlur5122" />
      <feSpecularLighting
         result="result0"
         specularExponent="18.1"
         specularConstant="2"
         surfaceScale="5"
         id="feSpecularLighting5124">
        <feDistantLight
           azimuth="225"
           elevation="24"
           id="feDistantLight5126" />
      </feSpecularLighting>
      <feComposite
         result="result6"
         operator="in"
         in2="SourceAlpha"
         id="feComposite5128" />
      <feMorphology
         radius="5.7"
         operator="dilate"
         id="feMorphology5130" />
      <feGaussianBlur
         result="result11"
         stdDeviation="5.7"
         id="feGaussianBlur5132" />
      <feDiffuseLighting
         surfaceScale="5"
         result="result3"
         diffuseConstant="2"
         in="result1"
         id="feDiffuseLighting5134">
        <feDistantLight
           elevation="25"
           azimuth="225"
           id="feDistantLight5136" />
      </feDiffuseLighting>
      <feBlend
         result="result7"
         mode="multiply"
         in="result3"
         in2="SourceGraphic"
         id="feBlend5138" />
      <feComposite
         in="result7"
         operator="in"
         in2="SourceAlpha"
         result="result91"
         id="feComposite5140" />
      <feBlend
         result="result9"
         mode="lighten"
         in="result6"
         in2="result91"
         id="feBlend5142" />
      <feComposite
         in="result11"
         in2="result9"
         id="feComposite5144" />
    </filter>
  </defs>
  <sodipodi:namedview
     id="base"
     pagecolor="#000000"
     bordercolor="#666666"
     borderopacity="1.0"
     inkscape:pageopacity="0"
     inkscape:pageshadow="2"
     inkscape:zoom="1.979899"
     inkscape:cx="110.72152"
     inkscape:cy="78.180281"
     inkscape:document-units="px"
     inkscape:current-layer="layer1"
     showgrid="false"
     inkscape:window-width="1366"
     inkscape:window-height="666"
     inkscape:window-x="0"
     inkscape:window-y="0"
     inkscape:window-maximized="1"
     showborder="true" />
  <metadata
     id="metadata7">
    <rdf:RDF>
      <cc:Work
         rdf:about="">
        <dc:format>image/svg+xml</dc:format>
        <dc:type
           rdf:resource="http://purl.org/dc/dcmitype/StillImage" />
        <dc:title></dc:title>
      </cc:Work>
    </rdf:RDF>
  </metadata>
  <g
     inkscape:label="Layer 1"
     inkscape:groupmode="layer"
     id="layer1"
     transform="translate(0,-852.36218)">
    <rect
       style="fill:#483737;fill-opacity:0;stroke:none"
       id="rect3879"
       width="743.47229"
       height="120.20815"
       x="-1.0101526"
       y="-0.21676964" />
    <use
       id="use3881"
       xlink:href="#rect3879"
       x="0"
       y="0"
       width="744.09448"
       height="1052.3622"
       transform="translate(-206.2511,-39.679443)" />
    <flowRoot
       xml:space="preserve"
       id="flowRoot4139"
       style="font-size:40px;font-style:normal;font-variant:normal;font-weight:normal;font-stretch:normal;text-align:start;line-height:125%;letter-spacing:0px;word-spacing:0px;writing-mode:lr-tb;text-anchor:start;fill:#e3dbdb;fill-opacity:1;stroke:none;font-family:Serif;-inkscape-font-specification:Serif"><flowRegion
         id="flowRegion4141"><rect
           id="rect4143"
           width="160.61426"
           height="42.426407"
           x="147.48227"
           y="62.412689"
           style="font-size:40px;font-style:normal;font-variant:normal;font-weight:normal;font-stretch:normal;text-align:start;line-height:125%;writing-mode:lr-tb;text-anchor:start;fill:#e3dbdb;font-family:Serif;-inkscape-font-specification:Serif" /></flowRegion><flowPara
         id="flowPara4145">enlamiao</flowPara><flowPara
         id="flowPara4147" /></flowRoot>    <flowRoot
       xml:space="preserve"
       id="flowRoot4149"
       style="font-size:40px;font-style:normal;font-weight:normal;line-height:125%;letter-spacing:0px;word-spacing:0px;fill:#000000;fill-opacity:1;stroke:none;font-family:Sans"><flowRegion
         id="flowRegion4151"><rect
           id="rect4153"
           width="285.87317"
           height="40.406101"
           x="110.10663"
           y="211.91527" /></flowRegion><flowPara
         id="flowPara4155">enlamiao </flowPara><flowPara
         id="flowPara4157" /></flowRoot>    <rect
       transform="matrix(-0.99632698,0.08563032,-0.08563032,-0.99632698,0,0)"
       y="-1022.3069"
       x="-353.90137"
       height="8.2708855"
       width="49.850513"
       id="rect3949"
       style="fill:#483737;fill-opacity:1;stroke:none" />
    <rect
       y="-1080.2272"
       x="-42.735535"
       height="8.2708855"
       width="49.850513"
       id="rect3951"
       style="fill:#483737;fill-opacity:1;stroke:none"
       transform="matrix(-0.93025044,0.36692523,-0.36692523,-0.93025044,0,0)" />
    <rect
       style="fill:#483737;fill-opacity:1;stroke:none"
       id="rect3953"
       width="49.850513"
       height="8.2708855"
       x="-550.9408"
       y="-922.10052"
       transform="matrix(-0.99257019,-0.12167339,0.12167339,-0.99257019,0,0)" />
    <rect
       y="979.48822"
       x="530.61774"
       height="8.2708855"
       width="49.850513"
       id="rect3955"
       style="fill:#483737;fill-opacity:1;stroke:none" />
    <rect
       y="981.53558"
       x="532.66486"
       height="4.1762099"
       width="45.75629"
       id="rect3957"
       style="fill:#ac9393;fill-opacity:1;stroke:none" />
    <rect
       style="fill:#483737;fill-opacity:1;stroke:none"
       id="rect3959"
       width="49.850513"
       height="8.2708855"
       x="530.25226"
       y="979.48822" />
    <rect
       transform="matrix(0.95825353,-0.28591986,0.28591986,0.95825353,0,0)"
       style="fill:#483737;fill-opacity:1;stroke:none"
       id="rect3961"
       width="49.850513"
       height="8.2708855"
       x="232.34682"
       y="1089.3372" />
    <path
       inkscape:connector-curvature="0"
       id="path3963"
       d="m 427.72103,1014.6048 0.70374,16.0581 -1.53544,15.7383 33.90756,-8.253 24.75892,-5.3101 24.69494,5.3101 33.84359,8.253 -1.53544,-15.7383 0.76772,-16.0581 -32.88394,8.4449 -24.95085,5.566 -24.95084,-5.566 -32.81996,-8.4449 z"
       style="fill:#784421;fill-opacity:1;stroke:#483737;stroke-width:4.09449816;stroke-miterlimit:4;stroke-opacity:1;stroke-dasharray:none" />
    <rect
       transform="matrix(0.97850553,0.20622059,-0.20622059,0.97850553,0,0)"
       y="852.96179"
       x="726.49152"
       height="8.2708855"
       width="49.850513"
       id="rect3965"
       style="fill:#483737;fill-opacity:1;stroke:none" />
    <rect
       transform="matrix(-0.99632698,0.08563032,-0.08563032,-0.99632698,0,0)"
       style="fill:#483737;fill-opacity:1;stroke:none"
       id="rect3967"
       width="49.850513"
       height="8.2708855"
       x="-353.53592"
       y="-1022.3069" />
    <path
       inkscape:connector-curvature="0"
       style="fill:#784421;fill-opacity:1;stroke:#483737;stroke-width:4.09449816;stroke-miterlimit:4;stroke-opacity:1;stroke-dasharray:none"
       d="m 406.78488,884.89312 c -0.87372,0.033 -1.59213,0.25869 -2.11881,0.68793 -6.61146,5.3883 -3.93629,32.89927 -1.06879,48.19145 1.15293,6.14844 2.59401,10.81711 4.21888,14.30173 -0.62748,3.05114 -0.95628,6.17424 -0.95628,9.35949 0,33.16208 35.31199,60.04928 78.86492,60.04928 43.55294,0 78.84616,-26.8872 78.84616,-60.04928 0,-6.23174 -1.24859,-12.25276 -3.5626,-17.90434 0.45048,-1.75746 0.88384,-3.67063 1.27503,-5.75688 2.8675,-15.29218 5.54268,-42.80315 -1.06877,-48.19145 -4.70724,-3.83638 -24.4853,9.25553 -37.05114,19.40692 -11.37533,-4.84641 -24.4771,-7.60346 -38.43868,-7.60346 -15.44515,0 -29.85589,3.37184 -42.02004,9.21467 -11.03983,-9.20824 -29.56458,-21.98361 -36.91988,-21.70606 z"
       id="path3969" />
    <rect
       transform="matrix(0.95825353,-0.28591986,0.28591986,0.95825353,0,0)"
       y="1091.3845"
       x="234.39394"
       height="4.1762099"
       width="45.75629"
       id="rect3971"
       style="fill:#784421;fill-opacity:1;stroke:none" />
    <rect
       style="fill:#784421;fill-opacity:1;stroke:none"
       id="rect3973"
       width="45.75629"
       height="4.1762099"
       x="532.2995"
       y="981.53558" />
    <rect
       transform="matrix(0.97850553,0.20622059,-0.20622059,0.97850553,0,0)"
       style="fill:#784421;fill-opacity:1;stroke:none"
       id="rect3975"
       width="45.75629"
       height="4.1762099"
       x="728.41388"
       y="855.00922" />
    <path
       sodipodi:open="true"
       sodipodi:end="12.434668"
       sodipodi:start="6.2132296"
       transform="matrix(1.4459275,0,0,1.4653562,350.67255,801.32431)"
       d="m 111.57615,125.24728 a 18.687822,10.859139 0 1 1 -0.11613,-0.66701"
       sodipodi:ry="10.859139"
       sodipodi:rx="18.687822"
       sodipodi:cy="126.00632"
       sodipodi:cx="92.934036"
       id="path3977"
       style="fill:#deaa87;fill-opacity:1;stroke:none"
       sodipodi:type="arc" />
    <path
       sodipodi:nodetypes="cc"
       inkscape:connector-curvature="0"
       id="path3979"
       d="m 470.40121,987.98599 c 15.67795,7.45299 22.48866,3.14913 29.78935,-0.50508"
       style="fill:none;stroke:#000000;stroke-width:2.26466036;stroke-linecap:butt;stroke-linejoin:miter;stroke-miterlimit:4;stroke-opacity:1;stroke-dasharray:none" />
    <path
       sodipodi:open="true"
       sodipodi:end="12.434668"
       sodipodi:start="6.2132296"
       transform="translate(390.8517,870.56596)"
       d="m 63.625405,98.831284 a 5.8083773,5.8083773 0 1 1 -0.0361,-0.356771"
       sodipodi:ry="5.8083773"
       sodipodi:rx="5.8083773"
       sodipodi:cy="99.237282"
       sodipodi:cx="57.831234"
       id="path3981"
       style="fill:#000000;fill-opacity:1;stroke:none"
       sodipodi:type="arc" />
    <path
       sodipodi:type="arc"
       style="fill:#000000;fill-opacity:1;stroke:none"
       id="path3983"
       sodipodi:cx="57.831234"
       sodipodi:cy="99.237282"
       sodipodi:rx="5.8083773"
       sodipodi:ry="5.8083773"
       d="m 63.625405,98.831284 a 5.8083773,5.8083773 0 1 1 -0.0361,-0.356771"
       transform="translate(460.04715,869.05072)"
       sodipodi:start="6.2132296"
       sodipodi:end="12.434668"
       sodipodi:open="true" />
    <path
       sodipodi:open="true"
       sodipodi:end="12.434668"
       sodipodi:start="6.2132296"
       transform="translate(427.21719,872.08118)"
       d="m 63.625405,98.831284 a 5.8083773,5.8083773 0 1 1 -0.0361,-0.356771"
       sodipodi:ry="5.8083773"
       sodipodi:rx="5.8083773"
       sodipodi:cy="99.237282"
       sodipodi:cx="57.831234"
       id="path3985"
       style="fill:#000000;fill-opacity:1;stroke:none"
       sodipodi:type="arc" />
    <rect
       transform="matrix(4.009823e-4,0.99999992,-0.99999992,4.009823e-4,0,0)"
       style="fill:#ac9393;fill-opacity:1;stroke:none"
       id="rect3987"
       width="29.652128"
       height="2.7063713"
       x="899.59607"
       y="-482.98248" />
    <rect
       transform="matrix(4.009823e-4,0.99999992,-0.99999992,4.009823e-4,0,0)"
       style="fill:#483737;fill-opacity:1;stroke:none"
       id="rect3989"
       width="32.305367"
       height="5.3599048"
       x="898.26941"
       y="-484.30927" />
    <rect
       transform="matrix(4.009823e-4,0.99999992,-0.99999992,4.009823e-4,0,0)"
       y="-484.30927"
       x="898.50623"
       height="5.3599048"
       width="32.305367"
       id="rect3991"
       style="fill:#483737;fill-opacity:1;stroke:none" />
    <rect
       style="fill:#483737;fill-opacity:1;stroke:none"
       id="rect3993"
       width="32.305367"
       height="5.3599048"
       x="898.51129"
       y="-496.93616"
       transform="matrix(4.009823e-4,0.99999992,-0.99999992,4.009823e-4,0,0)" />
    <rect
       style="fill:#483737;fill-opacity:1;stroke:none"
       id="rect3995"
       width="32.305367"
       height="5.3599048"
       x="899.00604"
       y="-471.17709"
       transform="matrix(4.009823e-4,0.99999992,-0.99999992,4.009823e-4,0,0)" />
    <rect
       style="fill:#784421;fill-opacity:1;stroke:none"
       id="rect3997"
       width="45.75629"
       height="4.1762099"
       x="-40.688416"
       y="-1078.1799"
       transform="matrix(-0.93025044,0.36692523,-0.36692523,-0.93025044,0,0)" />
    <rect
       transform="matrix(-0.99632698,0.08563032,-0.08563032,-0.99632698,0,0)"
       y="-1020.2596"
       x="-351.85413"
       height="4.1762099"
       width="45.75629"
       id="rect3999"
       style="fill:#784421;fill-opacity:1;stroke:none" />
    <rect
       y="-920.0531"
       x="-549.01843"
       height="4.1762099"
       width="45.75629"
       id="rect4001"
       style="fill:#784421;fill-opacity:1;stroke:none"
       transform="matrix(-0.99257019,-0.12167339,0.12167339,-0.99257019,0,0)" />
    <rect
       style="fill:#483737;fill-opacity:1;stroke:none"
       id="rect4003"
       width="49.850513"
       height="8.2708855"
       x="-353.90137"
       y="-1022.3069"
       transform="matrix(-0.99632698,0.08563032,-0.08563032,-0.99632698,0,0)" />
    <rect
       transform="matrix(-0.93025044,0.36692523,-0.36692523,-0.93025044,0,0)"
       style="fill:#483737;fill-opacity:1;stroke:none"
       id="rect4005"
       width="49.850513"
       height="8.2708855"
       x="-42.735535"
       y="-1080.2272" />
    <rect
       transform="matrix(-0.99257019,-0.12167339,0.12167339,-0.99257019,0,0)"
       y="-922.10052"
       x="-550.9408"
       height="8.2708855"
       width="49.850513"
       id="rect4007"
       style="fill:#483737;fill-opacity:1;stroke:none" />
    <rect
       style="fill:#483737;fill-opacity:1;stroke:none"
       id="rect4009"
       width="49.850513"
       height="8.2708855"
       x="530.61774"
       y="979.48822" />
    <rect
       style="fill:#ac9393;fill-opacity:1;stroke:none"
       id="rect4011"
       width="45.75629"
       height="4.1762099"
       x="532.66486"
       y="981.53558" />
    <rect
       y="979.48822"
       x="530.25226"
       height="8.2708855"
       width="49.850513"
       id="rect4013"
       style="fill:#483737;fill-opacity:1;stroke:none" />
    <rect
       y="1089.3372"
       x="232.34682"
       height="8.2708855"
       width="49.850513"
       id="rect4015"
       style="fill:#483737;fill-opacity:1;stroke:none"
       transform="matrix(0.95825353,-0.28591986,0.28591986,0.95825353,0,0)" />
    <path
       style="fill:#784421;fill-opacity:1;stroke:#483737;stroke-width:4.09449816;stroke-miterlimit:4;stroke-opacity:1;stroke-dasharray:none"
       d="m 427.72103,1014.6048 0.70374,16.0581 -1.53544,15.7383 33.90756,-8.253 24.75892,-5.3101 24.69494,5.3101 33.84359,8.253 -1.53544,-15.7383 0.76772,-16.0581 -32.88394,8.4449 -24.95085,5.566 -24.95084,-5.566 -32.81996,-8.4449 z"
       id="path4017"
       inkscape:connector-curvature="0" />
    <rect
       style="fill:#483737;fill-opacity:1;stroke:none"
       id="rect4019"
       width="49.850513"
       height="8.2708855"
       x="726.49152"
       y="852.96179"
       transform="matrix(0.97850553,0.20622059,-0.20622059,0.97850553,0,0)" />
    <rect
       y="-1022.3069"
       x="-353.53592"
       height="8.2708855"
       width="49.850513"
       id="rect4021"
       style="fill:#483737;fill-opacity:1;stroke:none"
       transform="matrix(-0.99632698,0.08563032,-0.08563032,-0.99632698,0,0)" />
    <path
       id="path4023"
       d="m 406.78488,884.89312 c -0.87372,0.033 -1.59213,0.25869 -2.11881,0.68793 -6.61146,5.3883 -3.93629,32.89927 -1.06879,48.19145 1.15293,6.14844 2.59401,10.81711 4.21888,14.30173 -0.62748,3.05114 -0.95628,6.17424 -0.95628,9.35949 0,33.16208 35.31199,60.04928 78.86492,60.04928 43.55294,0 78.84616,-26.8872 78.84616,-60.04928 0,-6.23174 -1.24859,-12.25276 -3.5626,-17.90434 0.45048,-1.75746 0.88384,-3.67063 1.27503,-5.75688 2.8675,-15.29218 5.54268,-42.80315 -1.06877,-48.19145 -4.70724,-3.83638 -24.4853,9.25553 -37.05114,19.40692 -11.37533,-4.84641 -24.4771,-7.60346 -38.43868,-7.60346 -15.44515,0 -29.85589,3.37184 -42.02004,9.21467 -11.03983,-9.20824 -29.56458,-21.98361 -36.91988,-21.70606 z"
       style="fill:#784421;fill-opacity:1;stroke:#483737;stroke-width:4.09449816;stroke-miterlimit:4;stroke-opacity:1;stroke-dasharray:none"
       inkscape:connector-curvature="0" />
    <rect
       style="fill:#784421;fill-opacity:1;stroke:none"
       id="rect4025"
       width="45.75629"
       height="4.1762099"
       x="234.39394"
       y="1091.3845"
       transform="matrix(0.95825353,-0.28591986,0.28591986,0.95825353,0,0)" />
    <rect
       y="981.53558"
       x="532.2995"
       height="4.1762099"
       width="45.75629"
       id="rect4027"
       style="fill:#784421;fill-opacity:1;stroke:none" />
    <rect
       y="855.00922"
       x="728.41388"
       height="4.1762099"
       width="45.75629"
       id="rect4029"
       style="fill:#784421;fill-opacity:1;stroke:none"
       transform="matrix(0.97850553,0.20622059,-0.20622059,0.97850553,0,0)" />
    <path
       sodipodi:type="arc"
       style="fill:#deaa87;fill-opacity:1;stroke:none"
       id="path4031"
       sodipodi:cx="92.934036"
       sodipodi:cy="126.00632"
       sodipodi:rx="18.687822"
       sodipodi:ry="10.859139"
       d="m 111.57615,125.24728 a 18.687822,10.859139 0 1 1 -0.11613,-0.66701"
       transform="matrix(1.4459275,0,0,1.4653562,350.67255,801.32431)"
       sodipodi:start="6.2132296"
       sodipodi:end="12.434668"
       sodipodi:open="true" />
    <path
       style="fill:none;stroke:#000000;stroke-width:2.26466036;stroke-linecap:butt;stroke-linejoin:miter;stroke-miterlimit:4;stroke-opacity:1;stroke-dasharray:none"
       d="m 470.40121,987.98599 c 15.67795,7.45299 22.48866,3.14913 29.78935,-0.50508"
       id="path4033"
       inkscape:connector-curvature="0"
       sodipodi:nodetypes="cc" />
    <path
       sodipodi:type="arc"
       style="fill:#000000;fill-opacity:1;stroke:none"
       id="path4035"
       sodipodi:cx="57.831234"
       sodipodi:cy="99.237282"
       sodipodi:rx="5.8083773"
       sodipodi:ry="5.8083773"
       d="m 63.625405,98.831284 a 5.8083773,5.8083773 0 1 1 -0.0361,-0.356771"
       transform="translate(390.8517,870.56596)"
       sodipodi:start="6.2132296"
       sodipodi:end="12.434668"
       sodipodi:open="true" />
    <path
       sodipodi:open="true"
       sodipodi:end="12.434668"
       sodipodi:start="6.2132296"
       transform="translate(460.04715,869.05072)"
       d="m 63.625405,98.831284 a 5.8083773,5.8083773 0 1 1 -0.0361,-0.356771"
       sodipodi:ry="5.8083773"
       sodipodi:rx="5.8083773"
       sodipodi:cy="99.237282"
       sodipodi:cx="57.831234"
       id="path4037"
       style="fill:#000000;fill-opacity:1;stroke:none"
       sodipodi:type="arc" />
    <path
       sodipodi:type="arc"
       style="fill:#000000;fill-opacity:1;stroke:none"
       id="path4039"
       sodipodi:cx="57.831234"
       sodipodi:cy="99.237282"
       sodipodi:rx="5.8083773"
       sodipodi:ry="5.8083773"
       d="m 63.625405,98.831284 a 5.8083773,5.8083773 0 1 1 -0.0361,-0.356771"
       transform="translate(427.21719,872.08118)"
       sodipodi:start="6.2132296"
       sodipodi:end="12.434668"
       sodipodi:open="true" />
    <rect
       y="-482.98248"
       x="899.59607"
       height="2.7063713"
       width="29.652128"
       id="rect4041"
       style="fill:#ac9393;fill-opacity:1;stroke:none"
       transform="matrix(4.009823e-4,0.99999992,-0.99999992,4.009823e-4,0,0)" />
    <rect
       y="-484.30927"
       x="898.26941"
       height="5.3599048"
       width="32.305367"
       id="rect4043"
       style="fill:#483737;fill-opacity:1;stroke:none"
       transform="matrix(4.009823e-4,0.99999992,-0.99999992,4.009823e-4,0,0)" />
    <rect
       style="fill:#483737;fill-opacity:1;stroke:none"
       id="rect4045"
       width="32.305367"
       height="5.3599048"
       x="898.50623"
       y="-484.30927"
       transform="matrix(4.009823e-4,0.99999992,-0.99999992,4.009823e-4,0,0)" />
    <rect
       transform="matrix(4.009823e-4,0.99999992,-0.99999992,4.009823e-4,0,0)"
       y="-496.93616"
       x="898.51129"
       height="5.3599048"
       width="32.305367"
       id="rect4047"
       style="fill:#483737;fill-opacity:1;stroke:none" />
    <rect
       transform="matrix(4.009823e-4,0.99999992,-0.99999992,4.009823e-4,0,0)"
       y="-471.17709"
       x="899.00604"
       height="5.3599048"
       width="32.305367"
       id="rect4049"
       style="fill:#483737;fill-opacity:1;stroke:none" />
    <rect
       transform="matrix(-0.93025044,0.36692523,-0.36692523,-0.93025044,0,0)"
       y="-1078.1799"
       x="-40.688416"
       height="4.1762099"
       width="45.75629"
       id="rect4051"
       style="fill:#784421;fill-opacity:1;stroke:none" />
    <rect
       style="fill:#784421;fill-opacity:1;stroke:none"
       id="rect4053"
       width="45.75629"
       height="4.1762099"
       x="-351.85413"
       y="-1020.2596"
       transform="matrix(-0.99632698,0.08563032,-0.08563032,-0.99632698,0,0)" />
    <rect
       transform="matrix(-0.99257019,-0.12167339,0.12167339,-0.99257019,0,0)"
       style="fill:#784421;fill-opacity:1;stroke:none"
       id="rect4055"
       width="45.75629"
       height="4.1762099"
       x="-549.01843"
       y="-920.0531" />
    <g
       id="g4890"
       style="filter:url(#filter5120)">
      <path
         sodipodi:nodetypes="ccccc"
         inkscape:connector-curvature="0"
         id="rect4079"
         d="m 45.881441,944.79836 c 14.207162,3.24291 53.504403,-18.23483 124.020199,0 l -1.83977,38.03307 c -31.0738,-1.2823 -67.34936,-11.64945 -120.034035,-0.91989 -4.664771,-19.1413 -1.661922,-25.13811 -2.146394,-37.11318 z"
         style="fill:#784421;fill-opacity:1;stroke:none" />
      <path
         id="path4117"
         d="m 117.98678,900.6213 c -0.43352,0.0164 -0.78998,0.12835 -1.05131,0.34133 -3.28047,2.67356 -1.95311,16.32389 -0.53031,23.91153 0.57206,3.05072 1.28708,5.3672 2.09331,7.0962 -0.31134,1.51391 -0.47447,3.06352 -0.47447,4.64394 0,16.45437 17.52101,29.7951 39.131,29.7951 21.61,0 39.12171,-13.34073 39.12171,-29.7951 0,-3.09202 -0.61952,-6.07952 -1.76768,-8.8837 0.22352,-0.87201 0.43854,-1.82129 0.63264,-2.85644 1.42279,-7.58764 2.75016,-21.23797 -0.5303,-23.91153 -2.33563,-1.90352 -12.14906,4.5924 -18.38394,9.62929 -5.6442,-2.40469 -12.145,-3.77267 -19.07243,-3.77267 -7.66354,0 -14.81382,1.67303 -20.8494,4.57211 -5.47772,-4.56892 -14.66929,-10.90777 -18.31882,-10.77006 z"
         style="fill:#784421;fill-opacity:1;stroke:#483737;stroke-width:0;stroke-miterlimit:4;stroke-opacity:1;stroke-dasharray:none"
         inkscape:connector-curvature="0" />
      <path
         inkscape:connector-curvature="0"
         id="path4275"
         d="m 184.35877,947.0207 c -1.89155,0.0611 -3.84533,0.62605 -5.6156,1.74539 -4.72074,2.9849 -6.38157,8.71911 -3.6805,12.82482 0.26313,0.39995 0.58886,0.76172 0.91064,1.10035 6.7983,-2.72547 12.392,-6.94394 16.08794,-12.06595 -1.70563,-2.45984 -4.61668,-3.70415 -7.70248,-3.60461 z"
         style="fill:#deaa87;fill-opacity:1;stroke:#483737;stroke-width:0;stroke-miterlimit:4;stroke-opacity:1;stroke-dasharray:none" />
      <path
         sodipodi:open="true"
         sodipodi:end="12.434668"
         sodipodi:start="6.2132296"
         transform="matrix(0.71743701,0,0,0.7270771,83.572509,858.84968)"
         d="m 111.57615,125.24728 a 18.687822,10.859139 0 1 1 -0.11613,-0.66701"
         sodipodi:ry="10.859139"
         sodipodi:rx="18.687822"
         sodipodi:cy="126.00632"
         sodipodi:cx="92.934036"
         id="path3062"
         style="fill:#deaa87;fill-opacity:1;stroke:none"
         sodipodi:type="arc" />
      <path
         sodipodi:nodetypes="cc"
         inkscape:connector-curvature="0"
         id="path3064"
         d="m 142.97919,951.46706 c 7.77904,3.698 11.15837,1.56252 14.78081,-0.25061"
         style="fill:none;stroke:#000000;stroke-width:1.12367404;stroke-linecap:butt;stroke-linejoin:miter;stroke-miterlimit:4;stroke-opacity:1;stroke-dasharray:none" />
      <path
         sodipodi:open="true"
         sodipodi:end="12.434668"
         sodipodi:start="6.2132296"
         transform="matrix(0.49617772,0,0,0.49617772,103.50849,893.20585)"
         d="m 63.625405,98.831284 a 5.8083773,5.8083773 0 1 1 -0.0361,-0.356771"
         sodipodi:ry="5.8083773"
         sodipodi:rx="5.8083773"
         sodipodi:cy="99.237282"
         sodipodi:cx="57.831234"
         id="path3836"
         style="fill:#000000;fill-opacity:1;stroke:none"
         sodipodi:type="arc" />
      <path
         sodipodi:type="arc"
         style="fill:#000000;fill-opacity:1;stroke:none"
         id="path3838"
         sodipodi:cx="57.831234"
         sodipodi:cy="99.237282"
         sodipodi:rx="5.8083773"
         sodipodi:ry="5.8083773"
         d="m 63.625405,98.831284 a 5.8083773,5.8083773 0 1 1 -0.0361,-0.356771"
         transform="matrix(0.49617772,0,0,0.49617772,137.84173,892.45402)"
         sodipodi:start="6.2132296"
         sodipodi:end="12.434668"
         sodipodi:open="true" />
      <path
         sodipodi:type="arc"
         style="fill:#deaa87;fill-opacity:1;stroke:none"
         id="path3922"
         sodipodi:cx="92.934036"
         sodipodi:cy="126.00632"
         sodipodi:rx="18.687822"
         sodipodi:ry="10.859139"
         d="m 111.57615,125.24728 a 18.687822,10.859139 0 1 1 -0.11613,-0.66701"
         transform="matrix(0.70890086,0.11034233,-0.11182498,0.71842625,98.456464,849.68518)"
         sodipodi:start="6.2132296"
         sodipodi:end="12.434668"
         sodipodi:open="true" />
      <path
         style="fill:none;stroke:#000000;stroke-width:1.12367404;stroke-linecap:butt;stroke-linejoin:miter;stroke-miterlimit:4;stroke-opacity:1;stroke-dasharray:none"
         d="m 146.28241,948.71271 c 1.11293,3.4132 8.2445,3.5311 9.77,0.2606"
         id="path3924"
         inkscape:connector-curvature="0"
         sodipodi:nodetypes="cc" />
      <path
         sodipodi:type="arc"
         style="fill:#000000;fill-opacity:1;stroke:none"
         id="path3926"
         sodipodi:cx="57.831234"
         sodipodi:cy="99.237282"
         sodipodi:rx="5.8083773"
         sodipodi:ry="5.8083773"
         d="m 63.625405,98.831284 a 5.8083773,5.8083773 0 1 1 -0.0361,-0.356771"
         transform="matrix(0.49617772,0,0,0.49617772,103.50849,893.20585)"
         sodipodi:start="6.2132296"
         sodipodi:end="12.434668"
         sodipodi:open="true" />
      <path
         sodipodi:open="true"
         sodipodi:end="12.434668"
         sodipodi:start="6.2132296"
         transform="matrix(0.49617772,0,0,0.49617772,137.84173,892.45402)"
         d="m 63.625405,98.831284 a 5.8083773,5.8083773 0 1 1 -0.0361,-0.356771"
         sodipodi:ry="5.8083773"
         sodipodi:rx="5.8083773"
         sodipodi:cy="99.237282"
         sodipodi:cx="57.831234"
         id="path3928"
         style="fill:#000000;fill-opacity:1;stroke:none"
         sodipodi:type="arc" />
      <path
         sodipodi:type="arc"
         style="fill:#000000;fill-opacity:1;stroke:none"
         id="path3930"
         sodipodi:cx="57.831234"
         sodipodi:cy="99.237282"
         sodipodi:rx="5.8083773"
         sodipodi:ry="5.8083773"
         d="m 63.625405,98.831284 a 5.8083773,5.8083773 0 1 1 -0.0361,-0.356771"
         transform="matrix(0.49617772,0,0,0.49617772,122.41623,894.62619)"
         sodipodi:start="6.2132296"
         sodipodi:end="12.434668"
         sodipodi:open="true" />
      <path
         sodipodi:nodetypes="sssssss"
         inkscape:connector-curvature="0"
         id="rect4081"
         d="m 18.00723,933.45267 c 22.872375,5.14069 23.930661,9.98983 33.734232,12.8109 3.463516,0.99666 5.681933,9.69116 3.982803,8.29347 -2.783373,-2.28959 -1.876307,36.07994 -8.293469,10.921 -1.41808,-5.55967 2.732764,-18.45677 -33.427607,-18.6759 -3.604003,-0.0218 -8.5497647,-5.96613 -7.3557107,-9.36666 1.194054,-3.40053 7.8433997,-4.77313 11.3597517,-3.98281 z"
         style="fill:#784421;fill-opacity:1;stroke:none" />
      <path
         style="fill:#784421;fill-opacity:1;stroke:none"
         d="m 56.858399,973.34401 c 3.603528,0 6.910357,2.92397 6.504553,6.50456 -0.25986,2.29295 -0.536548,4.09831 0,29.48733 0.07613,3.6027 -1.061257,6.5045 -4.664785,6.5045 -3.603528,0 -3.91344,-3.2868 -4.664785,-6.8111 -2.65534,-12.45532 -8.442054,-26.17095 -6.132563,-37.94721 0.693488,-3.53615 5.354052,2.26192 8.95758,2.26192 z"
         id="path4090"
         inkscape:connector-curvature="0"
         sodipodi:nodetypes="sssssss" />
      <path
         sodipodi:nodetypes="sssssss"
         inkscape:connector-curvature="0"
         id="path4094"
         d="m 73.02712,971.47339 c 3.587993,-0.33424 7.151773,2.27039 7.079827,5.87319 -0.04607,2.30718 -0.154106,4.13041 2.735023,29.36022 0.409962,3.5801 -0.01214,6.5544 -3.600074,6.8886 -3.587994,0.3343 -4.883046,-2.823 -5.71772,-6.3286 -3.071001,-12.89779 -5.006135,-22.52848 -9.040232,-30.92851 -1.560006,-3.24833 4.955183,-4.53067 8.543176,-4.8649 z"
         style="fill:#784421;fill-opacity:1;stroke:none" />
      <path
         sodipodi:nodetypes="sssssss"
         inkscape:connector-curvature="0"
         id="path4096"
         d="m 144.24729,972.11751 c 3.60353,0 6.91036,2.92396 6.50456,6.50455 -0.25986,2.29295 -0.53655,4.09831 0,29.48734 0.0761,3.6027 -1.06126,6.5044 -4.66479,6.5044 -3.60353,0 -4.06137,-3.2584 -4.66478,-6.8111 -2.19099,-12.89939 -3.38282,-21.63689 -6.13257,-31.63367 -0.95569,-3.47446 5.35406,-4.05152 8.95758,-4.05152 z"
         style="fill:#784421;fill-opacity:1;stroke:none" />
      <path
         style="fill:#784421;fill-opacity:1;stroke:none"
         d="m 160.61777,971.19805 c 3.57326,-0.4661 7.23051,2.00557 7.29125,5.60857 0.0388,2.30731 -0.002,4.13328 3.81408,29.23958 0.54147,3.5626 -0.14235,6.296 -3.71561,6.7621 -3.57326,0.4661 -4.67933,-2.369 -5.57525,-5.8594 -3.41419,-13.30104 -5.40966,-23.03594 -10.17275,-30.57473 -1.92476,-3.0464 4.78502,-4.71001 8.35828,-5.17612 z"
         id="path4098"
         inkscape:connector-curvature="0"
         sodipodi:nodetypes="sssssss" />
      <path
         inkscape:connector-curvature="0"
         id="path3083"
         d="m 150.57199,951.46975 c -0.0242,1.01433 -0.0484,2.02866 -0.0726,3.04297"
         style="fill:none;stroke:#000000;stroke-width:1.19182801px;stroke-linecap:butt;stroke-linejoin:miter;stroke-opacity:1" />
    </g>
  </g>
</svg>
