<?xml version="1.0" encoding="UTF-8" standalone="no"?>
<!-- Created with Inkscape (http://www.inkscape.org/) -->

<svg
   xmlns:dc="http://purl.org/dc/elements/1.1/"
   xmlns:cc="http://creativecommons.org/ns#"
   xmlns:rdf="http://www.w3.org/1999/02/22-rdf-syntax-ns#"
   xmlns:svg="http://www.w3.org/2000/svg"
   xmlns="http://www.w3.org/2000/svg"
   xmlns:xlink="http://www.w3.org/1999/xlink"
   xmlns:sodipodi="http://sodipodi.sourceforge.net/DTD/sodipodi-0.dtd"
   xmlns:inkscape="http://www.inkscape.org/namespaces/inkscape"
   width="200"
   height="200"
   id="svg2"
   version="1.1"
   inkscape:version="0.48.5 r10040"
   sodipodi:docname="logo.svg">
  <defs
     id="defs4">
    <linearGradient
       id="linearGradient3910"
       inkscape:collect="always">
      <stop
         id="stop3912"
         offset="0"
         style="stop-color:#2b0000;stop-opacity:1;" />
      <stop
         id="stop3914"
         offset="1"
         style="stop-color:#000000;stop-opacity:0" />
    </linearGradient>
    <linearGradient
       inkscape:collect="always"
       id="linearGradient3895">
      <stop
         style="stop-color:#2b0000;stop-opacity:1;"
         offset="0"
         id="stop3897" />
      <stop
         style="stop-color:#2b0000;stop-opacity:0;"
         offset="1"
         id="stop3899" />
    </linearGradient>
    <linearGradient
       inkscape:collect="always"
       xlink:href="#linearGradient3895"
       id="linearGradient3901"
       x1="371.95544"
       y1="455.05585"
       x2="472.58124"
       y2="455.05585"
       gradientUnits="userSpaceOnUse" />
    <linearGradient
       inkscape:collect="always"
       xlink:href="#linearGradient3895"
       id="linearGradient3903"
       x1="277.14288"
       y1="529.50507"
       x2="540"
       y2="529.50507"
       gradientUnits="userSpaceOnUse" />
    <linearGradient
       inkscape:collect="always"
       xlink:href="#linearGradient3895"
       id="linearGradient3905"
       x1="197.95544"
       y1="455.05585"
       x2="298.58124"
       y2="455.05585"
       gradientUnits="userSpaceOnUse" />
    <linearGradient
       inkscape:collect="always"
       xlink:href="#linearGradient3910"
       id="linearGradient4137"
       gradientUnits="userSpaceOnUse"
       x1="214.37164"
       y1="472.22845"
       x2="816.03314"
       y2="464.14725" />
  </defs>
  <sodipodi:namedview
     id="base"
     pagecolor="#000000"
     bordercolor="#666666"
     borderopacity="1.0"
     inkscape:pageopacity="0"
     inkscape:pageshadow="2"
     inkscape:zoom="1.979899"
     inkscape:cx="90.518466"
     inkscape:cy="78.180281"
     inkscape:document-units="px"
     inkscape:current-layer="layer1"
     showgrid="false"
     inkscape:window-width="1366"
     inkscape:window-height="666"
     inkscape:window-x="0"
     inkscape:window-y="0"
     inkscape:window-maximized="1"
     showborder="true" />
  <metadata
     id="metadata7">
    <rdf:RDF>
      <cc:Work
         rdf:about="">
        <dc:format>image/svg+xml</dc:format>
        <dc:type
           rdf:resource="http://purl.org/dc/dcmitype/StillImage" />
        <dc:title></dc:title>
      </cc:Work>
    </rdf:RDF>
  </metadata>
  <g
     inkscape:label="Layer 1"
     inkscape:groupmode="layer"
     id="layer1"
     transform="translate(0,-852.36218)">
    <path
       style="fill:#ffffff;fill-opacity:1;stroke:none"
       d="m 113.06346,899.31342 c -0.43897,0.0161 -0.81125,0.13122 -1.07587,0.34489 -3.32175,2.68192 -1.97865,16.37001 -0.53793,23.9815 0.57925,3.06031 1.30373,5.3817 2.12009,7.11615 -0.31525,1.51868 -0.47464,3.05419 -0.47464,4.63957 0,0.26824 0.0223,0.54852 0.0316,0.81506 -36.176472,-0.7311 -59.05931,8.215 -70.501237,7.71172 -7.172034,-2.89751 -10.523715,-7.18075 -30.788908,-11.69302 -3.5606058,-0.79279 -10.3090723,0.60139 -11.51815317,4.0126 -1.2090811,3.41131 3.81845397,9.38246 7.46781297,9.40453 22.2016862,0.13333 29.3841532,4.92858 31.9280682,9.93751 -0.333048,5.95671 -0.419818,12.34848 1.961882,22.91569 0.659323,9.62793 4.549839,19.97209 6.613445,29.56158 0.7608,3.5354 1.097613,6.834 4.746491,6.834 3.648878,0 4.791936,-2.9065 4.714848,-6.5205 -0.5433,-25.46894 -0.263131,-27.29268 0,-29.5929 0.02202,-0.1925 0.03068,-0.37588 0.03164,-0.56426 0.772184,-0.10514 1.545082,-0.1856 2.30996,-0.2822 3.293514,7.79819 5.157197,16.75045 7.942463,28.33896 0.845178,3.5166 2.157571,6.6991 5.790719,6.3637 3.633088,-0.3352 4.054098,-3.3366 3.638977,-6.928 -2.834067,-24.51823 -2.799025,-26.94987 -2.752965,-29.18529 21.63952,-1.39367 40.145897,0.36215 56.831337,2.22569 2.13694,8.5969 3.30659,16.73702 5.25278,28.0882 0.611,3.5639 1.06596,6.8026 4.71484,6.8026 3.64889,0 4.79192,-2.9064 4.71485,-6.5204 -0.37486,-17.57269 -0.32295,-23.79232 -0.18985,-26.77157 1.5557,0.16582 3.09424,0.32271 4.61991,0.47017 2.91423,6.67426 4.7318,14.82603 7.40453,25.1414 0.9072,3.5014 2.04591,6.3611 5.66414,5.8935 3.61824,-0.4676 4.31384,-3.2287 3.76556,-6.8026 -2.34715,-15.29805 -3.28041,-21.92235 -3.63898,-25.32944 l 0.79108,-15.79965 c 3.45054,-0.81947 6.68005,-1.98964 9.6512,-3.44832 0.1934,-0.0913 0.37845,-0.1884 0.56958,-0.2822 0.52685,-0.26853 1.04212,-0.52815 1.55052,-0.81505 4.7928,-2.60418 8.78403,-5.97858 11.64472,-9.90611 -0.0606,-0.0863 -0.12629,-0.16712 -0.18985,-0.25079 2.85458,-4.12926 4.46169,-8.84517 4.46169,-13.82461 0,-3.10174 -0.60941,-6.08993 -1.77202,-8.90295 0.22633,-0.87475 0.43633,-1.8143 0.63286,-2.85277 1.44071,-7.61149 2.78382,-21.29958 -0.53793,-23.9815 -2.36501,-1.9095 -12.2929,4.60255 -18.60624,9.65532 -5.71523,-2.41228 -12.31943,-3.79322 -19.33405,-3.79322 -7.75999,0 -14.99451,1.66865 -21.10605,4.57688 -5.54667,-4.58329 -14.84752,-10.922 -18.54297,-10.78387 z"
       id="path4734"
       inkscape:connector-curvature="0" />
    <path
       style="fill:#784421;fill-opacity:1;stroke:none"
       d="m 42.679263,946.36945 c 13.498774,3.08121 50.836601,-17.32562 117.836387,0 l -1.74804,36.13669 C 129.24319,981.28778 94.776381,971.43755 44.718635,981.63212 40.286456,963.44523 43.139579,957.74743 42.679263,946.36945 z"
       id="rect4079"
       inkscape:connector-curvature="0"
       sodipodi:nodetypes="ccccc" />
    <path
       inkscape:connector-curvature="0"
       style="fill:#784421;fill-opacity:1;stroke:#483737;stroke-width:0;stroke-miterlimit:4;stroke-opacity:1;stroke-dasharray:none"
       d="m 111.18933,904.39512 c -0.4119,0.0156 -0.75059,0.12195 -0.99889,0.32431 -3.1169,2.54025 -1.85572,15.50996 -0.50386,22.71927 0.54353,2.8986 1.2229,5.09958 1.98893,6.74237 -0.29582,1.43842 -0.45081,2.91077 -0.45081,4.41239 0,15.63393 16.64739,28.30947 37.17987,28.30947 20.5325,0 37.17105,-12.67554 37.17105,-28.30947 0,-2.93785 -0.58863,-5.77639 -1.67954,-8.44075 0.21238,-0.82853 0.41668,-1.73048 0.6011,-2.71401 1.35184,-7.20931 2.61303,-20.17902 -0.50386,-22.71927 -2.21917,-1.80861 -11.54329,4.36341 -17.46729,9.14916 -5.36278,-2.28479 -11.53944,-3.58456 -18.12146,-3.58456 -7.28142,0 -14.07518,1.58961 -19.80982,4.34414 -5.20459,-4.34111 -13.93786,-10.3639 -17.40542,-10.23305 z"
       id="path4117" />
    <rect
       style="fill:#483737;fill-opacity:0;stroke:none"
       id="rect3879"
       width="743.47229"
       height="120.20815"
       x="-1.0101526"
       y="-0.21676964" />
    <use
       id="use3881"
       xlink:href="#rect3879"
       x="0"
       y="0"
       width="744.09448"
       height="1052.3622"
       transform="translate(-206.2511,-39.679443)" />
    <flowRoot
       xml:space="preserve"
       id="flowRoot4139"
       style="font-size:40px;font-style:normal;font-variant:normal;font-weight:normal;font-stretch:normal;text-align:start;line-height:125%;letter-spacing:0px;word-spacing:0px;writing-mode:lr-tb;text-anchor:start;fill:#e3dbdb;fill-opacity:1;stroke:none;font-family:Serif;-inkscape-font-specification:Serif"><flowRegion
         id="flowRegion4141"><rect
           id="rect4143"
           width="160.61426"
           height="42.426407"
           x="147.48227"
           y="62.412689"
           style="font-size:40px;font-style:normal;font-variant:normal;font-weight:normal;font-stretch:normal;text-align:start;line-height:125%;writing-mode:lr-tb;text-anchor:start;fill:#e3dbdb;font-family:Serif;-inkscape-font-specification:Serif" /></flowRegion><flowPara
         id="flowPara4145">enlamiao</flowPara><flowPara
         id="flowPara4147" /></flowRoot>    <flowRoot
       xml:space="preserve"
       id="flowRoot4149"
       style="font-size:40px;font-style:normal;font-weight:normal;line-height:125%;letter-spacing:0px;word-spacing:0px;fill:#000000;fill-opacity:1;stroke:none;font-family:Sans"><flowRegion
         id="flowRegion4151"><rect
           id="rect4153"
           width="285.87317"
           height="40.406101"
           x="110.10663"
           y="211.91527" /></flowRegion><flowPara
         id="flowPara4155">enlamiao </flowPara><flowPara
         id="flowPara4157" /></flowRoot>    <path
       style="fill:#deaa87;fill-opacity:1;stroke:#483737;stroke-width:0;stroke-miterlimit:4;stroke-opacity:1;stroke-dasharray:none"
       d="m 174.25193,948.48098 c -1.79724,0.058 -3.6536,0.59483 -5.3356,1.65836 -4.48536,2.83607 -6.06338,8.28437 -3.49699,12.18536 0.25001,0.38001 0.5595,0.72374 0.86524,1.04548 6.45933,-2.58957 11.77412,-6.5977 15.28577,-11.46432 -1.62058,-2.33719 -4.38649,-3.51946 -7.31842,-3.42488 z"
       id="path4275"
       inkscape:connector-curvature="0" />
    <path
       sodipodi:type="arc"
       style="fill:#deaa87;fill-opacity:1;stroke:none"
       id="path3062"
       sodipodi:cx="92.934036"
       sodipodi:cy="126.00632"
       sodipodi:rx="18.687822"
       sodipodi:ry="10.859139"
       d="m 111.57615,125.24728 a 18.687822,10.859139 0 1 1 -0.11613,-0.66701"
       transform="matrix(0.68166463,0,0,0.69082405,78.491003,864.70629)"
       sodipodi:start="6.2132296"
       sodipodi:end="12.434668"
       sodipodi:open="true" />
    <path
       style="fill:none;stroke:#000000;stroke-width:1.06764615;stroke-linecap:butt;stroke-linejoin:miter;stroke-miterlimit:4;stroke-opacity:1;stroke-dasharray:none"
       d="m 134.93559,952.70564 c 7.39117,3.51361 10.602,1.48461 14.04382,-0.23812"
       id="path3064"
       inkscape:connector-curvature="0"
       sodipodi:nodetypes="cc" />
    <path
       sodipodi:type="arc"
       style="fill:#000000;fill-opacity:1;stroke:none"
       id="path3836"
       sodipodi:cx="57.831234"
       sodipodi:cy="99.237282"
       sodipodi:rx="5.8083773"
       sodipodi:ry="5.8083773"
       d="m 63.625405,98.831284 a 5.8083773,5.8083773 0 1 1 -0.0361,-0.356771"
       transform="matrix(0.47143763,0,0,0.47143763,97.432949,897.34941)"
       sodipodi:start="6.2132296"
       sodipodi:end="12.434668"
       sodipodi:open="true" />
    <path
       sodipodi:open="true"
       sodipodi:end="12.434668"
       sodipodi:start="6.2132296"
       transform="matrix(0.47143763,0,0,0.47143763,130.05429,896.63507)"
       d="m 63.625405,98.831284 a 5.8083773,5.8083773 0 1 1 -0.0361,-0.356771"
       sodipodi:ry="5.8083773"
       sodipodi:rx="5.8083773"
       sodipodi:cy="99.237282"
       sodipodi:cx="57.831234"
       id="path3838"
       style="fill:#000000;fill-opacity:1;stroke:none"
       sodipodi:type="arc" />
    <path
       sodipodi:open="true"
       sodipodi:end="12.434668"
       sodipodi:start="6.2132296"
       transform="matrix(0.6735541,0.10484051,-0.10624924,0.68260455,92.632824,855.99874)"
       d="m 111.57615,125.24728 a 18.687822,10.859139 0 1 1 -0.11613,-0.66701"
       sodipodi:ry="10.859139"
       sodipodi:rx="18.687822"
       sodipodi:cy="126.00632"
       sodipodi:cx="92.934036"
       id="path3922"
       style="fill:#deaa87;fill-opacity:1;stroke:none"
       sodipodi:type="arc" />
    <path
       sodipodi:nodetypes="cc"
       inkscape:connector-curvature="0"
       id="path3924"
       d="m 138.07411,950.08862 c 1.05743,3.24302 7.83341,3.35504 9.28285,0.24761"
       style="fill:none;stroke:#000000;stroke-width:1.06764615;stroke-linecap:butt;stroke-linejoin:miter;stroke-miterlimit:4;stroke-opacity:1;stroke-dasharray:none" />
    <path
       sodipodi:open="true"
       sodipodi:end="12.434668"
       sodipodi:start="6.2132296"
       transform="matrix(0.47143763,0,0,0.47143763,97.432949,897.34941)"
       d="m 63.625405,98.831284 a 5.8083773,5.8083773 0 1 1 -0.0361,-0.356771"
       sodipodi:ry="5.8083773"
       sodipodi:rx="5.8083773"
       sodipodi:cy="99.237282"
       sodipodi:cx="57.831234"
       id="path3926"
       style="fill:#000000;fill-opacity:1;stroke:none"
       sodipodi:type="arc" />
    <path
       sodipodi:type="arc"
       style="fill:#000000;fill-opacity:1;stroke:none"
       id="path3928"
       sodipodi:cx="57.831234"
       sodipodi:cy="99.237282"
       sodipodi:rx="5.8083773"
       sodipodi:ry="5.8083773"
       d="m 63.625405,98.831284 a 5.8083773,5.8083773 0 1 1 -0.0361,-0.356771"
       transform="matrix(0.47143763,0,0,0.47143763,130.05429,896.63507)"
       sodipodi:start="6.2132296"
       sodipodi:end="12.434668"
       sodipodi:open="true" />
    <path
       sodipodi:open="true"
       sodipodi:end="12.434668"
       sodipodi:start="6.2132296"
       transform="matrix(0.47143763,0,0,0.47143763,115.39793,898.69893)"
       d="m 63.625405,98.831284 a 5.8083773,5.8083773 0 1 1 -0.0361,-0.356771"
       sodipodi:ry="5.8083773"
       sodipodi:rx="5.8083773"
       sodipodi:cy="99.237282"
       sodipodi:cx="57.831234"
       id="path3930"
       style="fill:#000000;fill-opacity:1;stroke:none"
       sodipodi:type="arc" />
    <rect
       transform="matrix(-0.99632698,0.08563032,-0.08563032,-0.99632698,0,0)"
       y="-1022.3069"
       x="-353.90137"
       height="8.2708855"
       width="49.850513"
       id="rect3949"
       style="fill:#483737;fill-opacity:1;stroke:none" />
    <rect
       y="-1080.2272"
       x="-42.735535"
       height="8.2708855"
       width="49.850513"
       id="rect3951"
       style="fill:#483737;fill-opacity:1;stroke:none"
       transform="matrix(-0.93025044,0.36692523,-0.36692523,-0.93025044,0,0)" />
    <rect
       style="fill:#483737;fill-opacity:1;stroke:none"
       id="rect3953"
       width="49.850513"
       height="8.2708855"
       x="-550.9408"
       y="-922.10052"
       transform="matrix(-0.99257019,-0.12167339,0.12167339,-0.99257019,0,0)" />
    <rect
       y="979.48822"
       x="530.61774"
       height="8.2708855"
       width="49.850513"
       id="rect3955"
       style="fill:#483737;fill-opacity:1;stroke:none" />
    <rect
       y="981.53558"
       x="532.66486"
       height="4.1762099"
       width="45.75629"
       id="rect3957"
       style="fill:#ac9393;fill-opacity:1;stroke:none" />
    <rect
       style="fill:#483737;fill-opacity:1;stroke:none"
       id="rect3959"
       width="49.850513"
       height="8.2708855"
       x="530.25226"
       y="979.48822" />
    <rect
       transform="matrix(0.95825353,-0.28591986,0.28591986,0.95825353,0,0)"
       style="fill:#483737;fill-opacity:1;stroke:none"
       id="rect3961"
       width="49.850513"
       height="8.2708855"
       x="232.34682"
       y="1089.3372" />
    <path
       inkscape:connector-curvature="0"
       id="path3963"
       d="m 427.72103,1014.6048 0.70374,16.0581 -1.53544,15.7383 33.90756,-8.253 24.75892,-5.3101 24.69494,5.3101 33.84359,8.253 -1.53544,-15.7383 0.76772,-16.0581 -32.88394,8.4449 -24.95085,5.566 -24.95084,-5.566 -32.81996,-8.4449 z"
       style="fill:#784421;fill-opacity:1;stroke:#483737;stroke-width:4.09449816;stroke-miterlimit:4;stroke-opacity:1;stroke-dasharray:none" />
    <rect
       transform="matrix(0.97850553,0.20622059,-0.20622059,0.97850553,0,0)"
       y="852.96179"
       x="726.49152"
       height="8.2708855"
       width="49.850513"
       id="rect3965"
       style="fill:#483737;fill-opacity:1;stroke:none" />
    <rect
       transform="matrix(-0.99632698,0.08563032,-0.08563032,-0.99632698,0,0)"
       style="fill:#483737;fill-opacity:1;stroke:none"
       id="rect3967"
       width="49.850513"
       height="8.2708855"
       x="-353.53592"
       y="-1022.3069" />
    <path
       inkscape:connector-curvature="0"
       style="fill:#784421;fill-opacity:1;stroke:#483737;stroke-width:4.09449816;stroke-miterlimit:4;stroke-opacity:1;stroke-dasharray:none"
       d="m 406.78488,884.89312 c -0.87372,0.033 -1.59213,0.25869 -2.11881,0.68793 -6.61146,5.3883 -3.93629,32.89927 -1.06879,48.19145 1.15293,6.14844 2.59401,10.81711 4.21888,14.30173 -0.62748,3.05114 -0.95628,6.17424 -0.95628,9.35949 0,33.16208 35.31199,60.04928 78.86492,60.04928 43.55294,0 78.84616,-26.8872 78.84616,-60.04928 0,-6.23174 -1.24859,-12.25276 -3.5626,-17.90434 0.45048,-1.75746 0.88384,-3.67063 1.27503,-5.75688 2.8675,-15.29218 5.54268,-42.80315 -1.06877,-48.19145 -4.70724,-3.83638 -24.4853,9.25553 -37.05114,19.40692 -11.37533,-4.84641 -24.4771,-7.60346 -38.43868,-7.60346 -15.44515,0 -29.85589,3.37184 -42.02004,9.21467 -11.03983,-9.20824 -29.56458,-21.98361 -36.91988,-21.70606 z"
       id="path3969" />
    <rect
       transform="matrix(0.95825353,-0.28591986,0.28591986,0.95825353,0,0)"
       y="1091.3845"
       x="234.39394"
       height="4.1762099"
       width="45.75629"
       id="rect3971"
       style="fill:#784421;fill-opacity:1;stroke:none" />
    <rect
       style="fill:#784421;fill-opacity:1;stroke:none"
       id="rect3973"
       width="45.75629"
       height="4.1762099"
       x="532.2995"
       y="981.53558" />
    <rect
       transform="matrix(0.97850553,0.20622059,-0.20622059,0.97850553,0,0)"
       style="fill:#784421;fill-opacity:1;stroke:none"
       id="rect3975"
       width="45.75629"
       height="4.1762099"
       x="728.41388"
       y="855.00922" />
    <path
       sodipodi:open="true"
       sodipodi:end="12.434668"
       sodipodi:start="6.2132296"
       transform="matrix(1.4459275,0,0,1.4653562,350.67255,801.32431)"
       d="m 111.57615,125.24728 a 18.687822,10.859139 0 1 1 -0.11613,-0.66701"
       sodipodi:ry="10.859139"
       sodipodi:rx="18.687822"
       sodipodi:cy="126.00632"
       sodipodi:cx="92.934036"
       id="path3977"
       style="fill:#deaa87;fill-opacity:1;stroke:none"
       sodipodi:type="arc" />
    <path
       sodipodi:nodetypes="cc"
       inkscape:connector-curvature="0"
       id="path3979"
       d="m 470.40121,987.98599 c 15.67795,7.45299 22.48866,3.14913 29.78935,-0.50508"
       style="fill:none;stroke:#000000;stroke-width:2.26466036;stroke-linecap:butt;stroke-linejoin:miter;stroke-miterlimit:4;stroke-opacity:1;stroke-dasharray:none" />
    <path
       sodipodi:open="true"
       sodipodi:end="12.434668"
       sodipodi:start="6.2132296"
       transform="translate(390.8517,870.56596)"
       d="m 63.625405,98.831284 a 5.8083773,5.8083773 0 1 1 -0.0361,-0.356771"
       sodipodi:ry="5.8083773"
       sodipodi:rx="5.8083773"
       sodipodi:cy="99.237282"
       sodipodi:cx="57.831234"
       id="path3981"
       style="fill:#000000;fill-opacity:1;stroke:none"
       sodipodi:type="arc" />
    <path
       sodipodi:type="arc"
       style="fill:#000000;fill-opacity:1;stroke:none"
       id="path3983"
       sodipodi:cx="57.831234"
       sodipodi:cy="99.237282"
       sodipodi:rx="5.8083773"
       sodipodi:ry="5.8083773"
       d="m 63.625405,98.831284 a 5.8083773,5.8083773 0 1 1 -0.0361,-0.356771"
       transform="translate(460.04715,869.05072)"
       sodipodi:start="6.2132296"
       sodipodi:end="12.434668"
       sodipodi:open="true" />
    <path
       sodipodi:open="true"
       sodipodi:end="12.434668"
       sodipodi:start="6.2132296"
       transform="translate(427.21719,872.08118)"
       d="m 63.625405,98.831284 a 5.8083773,5.8083773 0 1 1 -0.0361,-0.356771"
       sodipodi:ry="5.8083773"
       sodipodi:rx="5.8083773"
       sodipodi:cy="99.237282"
       sodipodi:cx="57.831234"
       id="path3985"
       style="fill:#000000;fill-opacity:1;stroke:none"
       sodipodi:type="arc" />
    <rect
       transform="matrix(4.009823e-4,0.99999992,-0.99999992,4.009823e-4,0,0)"
       style="fill:#ac9393;fill-opacity:1;stroke:none"
       id="rect3987"
       width="29.652128"
       height="2.7063713"
       x="899.59607"
       y="-482.98248" />
    <rect
       transform="matrix(4.009823e-4,0.99999992,-0.99999992,4.009823e-4,0,0)"
       style="fill:#483737;fill-opacity:1;stroke:none"
       id="rect3989"
       width="32.305367"
       height="5.3599048"
       x="898.26941"
       y="-484.30927" />
    <rect
       transform="matrix(4.009823e-4,0.99999992,-0.99999992,4.009823e-4,0,0)"
       y="-484.30927"
       x="898.50623"
       height="5.3599048"
       width="32.305367"
       id="rect3991"
       style="fill:#483737;fill-opacity:1;stroke:none" />
    <rect
       style="fill:#483737;fill-opacity:1;stroke:none"
       id="rect3993"
       width="32.305367"
       height="5.3599048"
       x="898.51129"
       y="-496.93616"
       transform="matrix(4.009823e-4,0.99999992,-0.99999992,4.009823e-4,0,0)" />
    <rect
       style="fill:#483737;fill-opacity:1;stroke:none"
       id="rect3995"
       width="32.305367"
       height="5.3599048"
       x="899.00604"
       y="-471.17709"
       transform="matrix(4.009823e-4,0.99999992,-0.99999992,4.009823e-4,0,0)" />
    <rect
       style="fill:#784421;fill-opacity:1;stroke:none"
       id="rect3997"
       width="45.75629"
       height="4.1762099"
       x="-40.688416"
       y="-1078.1799"
       transform="matrix(-0.93025044,0.36692523,-0.36692523,-0.93025044,0,0)" />
    <rect
       transform="matrix(-0.99632698,0.08563032,-0.08563032,-0.99632698,0,0)"
       y="-1020.2596"
       x="-351.85413"
       height="4.1762099"
       width="45.75629"
       id="rect3999"
       style="fill:#784421;fill-opacity:1;stroke:none" />
    <rect
       y="-920.0531"
       x="-549.01843"
       height="4.1762099"
       width="45.75629"
       id="rect4001"
       style="fill:#784421;fill-opacity:1;stroke:none"
       transform="matrix(-0.99257019,-0.12167339,0.12167339,-0.99257019,0,0)" />
    <rect
       style="fill:#483737;fill-opacity:1;stroke:none"
       id="rect4003"
       width="49.850513"
       height="8.2708855"
       x="-353.90137"
       y="-1022.3069"
       transform="matrix(-0.99632698,0.08563032,-0.08563032,-0.99632698,0,0)" />
    <rect
       transform="matrix(-0.93025044,0.36692523,-0.36692523,-0.93025044,0,0)"
       style="fill:#483737;fill-opacity:1;stroke:none"
       id="rect4005"
       width="49.850513"
       height="8.2708855"
       x="-42.735535"
       y="-1080.2272" />
    <rect
       transform="matrix(-0.99257019,-0.12167339,0.12167339,-0.99257019,0,0)"
       y="-922.10052"
       x="-550.9408"
       height="8.2708855"
       width="49.850513"
       id="rect4007"
       style="fill:#483737;fill-opacity:1;stroke:none" />
    <rect
       style="fill:#483737;fill-opacity:1;stroke:none"
       id="rect4009"
       width="49.850513"
       height="8.2708855"
       x="530.61774"
       y="979.48822" />
    <rect
       style="fill:#ac9393;fill-opacity:1;stroke:none"
       id="rect4011"
       width="45.75629"
       height="4.1762099"
       x="532.66486"
       y="981.53558" />
    <rect
       y="979.48822"
       x="530.25226"
       height="8.2708855"
       width="49.850513"
       id="rect4013"
       style="fill:#483737;fill-opacity:1;stroke:none" />
    <rect
       y="1089.3372"
       x="232.34682"
       height="8.2708855"
       width="49.850513"
       id="rect4015"
       style="fill:#483737;fill-opacity:1;stroke:none"
       transform="matrix(0.95825353,-0.28591986,0.28591986,0.95825353,0,0)" />
    <path
       style="fill:#784421;fill-opacity:1;stroke:#483737;stroke-width:4.09449816;stroke-miterlimit:4;stroke-opacity:1;stroke-dasharray:none"
       d="m 427.72103,1014.6048 0.70374,16.0581 -1.53544,15.7383 33.90756,-8.253 24.75892,-5.3101 24.69494,5.3101 33.84359,8.253 -1.53544,-15.7383 0.76772,-16.0581 -32.88394,8.4449 -24.95085,5.566 -24.95084,-5.566 -32.81996,-8.4449 z"
       id="path4017"
       inkscape:connector-curvature="0" />
    <rect
       style="fill:#483737;fill-opacity:1;stroke:none"
       id="rect4019"
       width="49.850513"
       height="8.2708855"
       x="726.49152"
       y="852.96179"
       transform="matrix(0.97850553,0.20622059,-0.20622059,0.97850553,0,0)" />
    <rect
       y="-1022.3069"
       x="-353.53592"
       height="8.2708855"
       width="49.850513"
       id="rect4021"
       style="fill:#483737;fill-opacity:1;stroke:none"
       transform="matrix(-0.99632698,0.08563032,-0.08563032,-0.99632698,0,0)" />
    <path
       id="path4023"
       d="m 406.78488,884.89312 c -0.87372,0.033 -1.59213,0.25869 -2.11881,0.68793 -6.61146,5.3883 -3.93629,32.89927 -1.06879,48.19145 1.15293,6.14844 2.59401,10.81711 4.21888,14.30173 -0.62748,3.05114 -0.95628,6.17424 -0.95628,9.35949 0,33.16208 35.31199,60.04928 78.86492,60.04928 43.55294,0 78.84616,-26.8872 78.84616,-60.04928 0,-6.23174 -1.24859,-12.25276 -3.5626,-17.90434 0.45048,-1.75746 0.88384,-3.67063 1.27503,-5.75688 2.8675,-15.29218 5.54268,-42.80315 -1.06877,-48.19145 -4.70724,-3.83638 -24.4853,9.25553 -37.05114,19.40692 -11.37533,-4.84641 -24.4771,-7.60346 -38.43868,-7.60346 -15.44515,0 -29.85589,3.37184 -42.02004,9.21467 -11.03983,-9.20824 -29.56458,-21.98361 -36.91988,-21.70606 z"
       style="fill:#784421;fill-opacity:1;stroke:#483737;stroke-width:4.09449816;stroke-miterlimit:4;stroke-opacity:1;stroke-dasharray:none"
       inkscape:connector-curvature="0" />
    <rect
       style="fill:#784421;fill-opacity:1;stroke:none"
       id="rect4025"
       width="45.75629"
       height="4.1762099"
       x="234.39394"
       y="1091.3845"
       transform="matrix(0.95825353,-0.28591986,0.28591986,0.95825353,0,0)" />
    <rect
       y="981.53558"
       x="532.2995"
       height="4.1762099"
       width="45.75629"
       id="rect4027"
       style="fill:#784421;fill-opacity:1;stroke:none" />
    <rect
       y="855.00922"
       x="728.41388"
       height="4.1762099"
       width="45.75629"
       id="rect4029"
       style="fill:#784421;fill-opacity:1;stroke:none"
       transform="matrix(0.97850553,0.20622059,-0.20622059,0.97850553,0,0)" />
    <path
       sodipodi:type="arc"
       style="fill:#deaa87;fill-opacity:1;stroke:none"
       id="path4031"
       sodipodi:cx="92.934036"
       sodipodi:cy="126.00632"
       sodipodi:rx="18.687822"
       sodipodi:ry="10.859139"
       d="m 111.57615,125.24728 a 18.687822,10.859139 0 1 1 -0.11613,-0.66701"
       transform="matrix(1.4459275,0,0,1.4653562,350.67255,801.32431)"
       sodipodi:start="6.2132296"
       sodipodi:end="12.434668"
       sodipodi:open="true" />
    <path
       style="fill:none;stroke:#000000;stroke-width:2.26466036;stroke-linecap:butt;stroke-linejoin:miter;stroke-miterlimit:4;stroke-opacity:1;stroke-dasharray:none"
       d="m 470.40121,987.98599 c 15.67795,7.45299 22.48866,3.14913 29.78935,-0.50508"
       id="path4033"
       inkscape:connector-curvature="0"
       sodipodi:nodetypes="cc" />
    <path
       sodipodi:type="arc"
       style="fill:#000000;fill-opacity:1;stroke:none"
       id="path4035"
       sodipodi:cx="57.831234"
       sodipodi:cy="99.237282"
       sodipodi:rx="5.8083773"
       sodipodi:ry="5.8083773"
       d="m 63.625405,98.831284 a 5.8083773,5.8083773 0 1 1 -0.0361,-0.356771"
       transform="translate(390.8517,870.56596)"
       sodipodi:start="6.2132296"
       sodipodi:end="12.434668"
       sodipodi:open="true" />
    <path
       sodipodi:open="true"
       sodipodi:end="12.434668"
       sodipodi:start="6.2132296"
       transform="translate(460.04715,869.05072)"
       d="m 63.625405,98.831284 a 5.8083773,5.8083773 0 1 1 -0.0361,-0.356771"
       sodipodi:ry="5.8083773"
       sodipodi:rx="5.8083773"
       sodipodi:cy="99.237282"
       sodipodi:cx="57.831234"
       id="path4037"
       style="fill:#000000;fill-opacity:1;stroke:none"
       sodipodi:type="arc" />
    <path
       sodipodi:type="arc"
       style="fill:#000000;fill-opacity:1;stroke:none"
       id="path4039"
       sodipodi:cx="57.831234"
       sodipodi:cy="99.237282"
       sodipodi:rx="5.8083773"
       sodipodi:ry="5.8083773"
       d="m 63.625405,98.831284 a 5.8083773,5.8083773 0 1 1 -0.0361,-0.356771"
       transform="translate(427.21719,872.08118)"
       sodipodi:start="6.2132296"
       sodipodi:end="12.434668"
       sodipodi:open="true" />
    <rect
       y="-482.98248"
       x="899.59607"
       height="2.7063713"
       width="29.652128"
       id="rect4041"
       style="fill:#ac9393;fill-opacity:1;stroke:none"
       transform="matrix(4.009823e-4,0.99999992,-0.99999992,4.009823e-4,0,0)" />
    <rect
       y="-484.30927"
       x="898.26941"
       height="5.3599048"
       width="32.305367"
       id="rect4043"
       style="fill:#483737;fill-opacity:1;stroke:none"
       transform="matrix(4.009823e-4,0.99999992,-0.99999992,4.009823e-4,0,0)" />
    <rect
       style="fill:#483737;fill-opacity:1;stroke:none"
       id="rect4045"
       width="32.305367"
       height="5.3599048"
       x="898.50623"
       y="-484.30927"
       transform="matrix(4.009823e-4,0.99999992,-0.99999992,4.009823e-4,0,0)" />
    <rect
       transform="matrix(4.009823e-4,0.99999992,-0.99999992,4.009823e-4,0,0)"
       y="-496.93616"
       x="898.51129"
       height="5.3599048"
       width="32.305367"
       id="rect4047"
       style="fill:#483737;fill-opacity:1;stroke:none" />
    <rect
       transform="matrix(4.009823e-4,0.99999992,-0.99999992,4.009823e-4,0,0)"
       y="-471.17709"
       x="899.00604"
       height="5.3599048"
       width="32.305367"
       id="rect4049"
       style="fill:#483737;fill-opacity:1;stroke:none" />
    <rect
       transform="matrix(-0.93025044,0.36692523,-0.36692523,-0.93025044,0,0)"
       y="-1078.1799"
       x="-40.688416"
       height="4.1762099"
       width="45.75629"
       id="rect4051"
       style="fill:#784421;fill-opacity:1;stroke:none" />
    <rect
       style="fill:#784421;fill-opacity:1;stroke:none"
       id="rect4053"
       width="45.75629"
       height="4.1762099"
       x="-351.85413"
       y="-1020.2596"
       transform="matrix(-0.99632698,0.08563032,-0.08563032,-0.99632698,0,0)" />
    <rect
       transform="matrix(-0.99257019,-0.12167339,0.12167339,-0.99257019,0,0)"
       style="fill:#784421;fill-opacity:1;stroke:none"
       id="rect4055"
       width="45.75629"
       height="4.1762099"
       x="-549.01843"
       y="-920.0531" />
    <path
       style="fill:#784421;fill-opacity:1;stroke:none"
       d="m 16.194898,935.58947 c 21.731927,4.88437 22.737446,9.49172 32.052197,12.17213 3.290821,0.94697 5.398625,9.20795 3.784215,7.87995 -2.64459,-2.17543 -1.782751,34.28094 -7.879945,10.37646 -1.347373,-5.28246 2.596505,-17.53649 -31.760862,-17.74469 -3.4243022,-0.0207 -8.1234615,-5.66865 -6.9889447,-8.89963 1.1345169,-3.23097 7.4523177,-4.53513 10.7933397,-3.78422 z"
       id="rect4081"
       inkscape:connector-curvature="0"
       sodipodi:nodetypes="sssssss" />
    <path
       sodipodi:nodetypes="sssssss"
       inkscape:connector-curvature="0"
       id="path4090"
       d="m 53.108895,973.49177 c 3.423851,0 6.565797,2.77818 6.180227,6.18024 -0.246903,2.17862 -0.509795,3.89396 0,28.01699 0.07233,3.4231 -1.008341,6.1802 -4.432192,6.1802 -3.423852,0 -3.718311,-3.1229 -4.432193,-6.4715 -2.522941,-11.83423 -8.021122,-24.86598 -5.826785,-36.05506 0.65891,-3.35984 5.087092,2.14913 8.510943,2.14913 z"
       style="fill:#784421;fill-opacity:1;stroke:none" />
    <path
       style="fill:#784421;fill-opacity:1;stroke:none"
       d="m 68.471422,971.71443 c 3.409091,-0.31758 6.795176,2.15718 6.726817,5.58034 -0.04377,2.19214 -0.146422,3.92446 2.598651,27.89623 0.389521,3.4016 -0.01153,6.2276 -3.420569,6.5452 -3.409092,0.3176 -4.639571,-2.6823 -5.432627,-6.0131 -2.917877,-12.25466 -4.756523,-21.40515 -8.589474,-29.38634 -1.482222,-3.08637 4.708111,-4.30477 8.117202,-4.62233 z"
       id="path4094"
       inkscape:connector-curvature="0"
       sodipodi:nodetypes="sssssss" />
    <path
       style="fill:#784421;fill-opacity:1;stroke:none"
       d="m 136.14046,972.32643 c 3.42385,0 6.5658,2.77817 6.18023,6.18022 -0.2469,2.17862 -0.50979,3.89397 0,28.01705 0.0723,3.4231 -1.00834,6.1801 -4.43219,6.1801 -3.42386,0 -3.85887,-3.0959 -4.43219,-6.4715 -2.08175,-12.2562 -3.21415,-20.55804 -5.82679,-30.05637 -0.90804,-3.30121 5.0871,-3.8495 8.51094,-3.8495 z"
       id="path4096"
       inkscape:connector-curvature="0"
       sodipodi:nodetypes="sssssss" />
    <path
       sodipodi:nodetypes="sssssss"
       inkscape:connector-curvature="0"
       id="path4098"
       d="m 151.69469,971.45281 c 3.39509,-0.44286 6.86998,1.90557 6.92769,5.32892 0.0369,2.19227 -0.002,3.92719 3.62391,27.78167 0.51447,3.3849 -0.13525,5.9821 -3.53035,6.4249 -3.39509,0.4429 -4.44601,-2.2509 -5.29726,-5.5672 -3.24395,-12.63785 -5.13992,-21.88736 -9.66552,-29.05025 -1.82879,-2.89451 4.54643,-4.47517 7.94153,-4.91804 z"
       style="fill:#784421;fill-opacity:1;stroke:none" />
    <path
       style="fill:none;stroke:#000000;stroke-width:1.13240182px;stroke-linecap:butt;stroke-linejoin:miter;stroke-opacity:1"
       d="m 142.1498,952.70819 c -0.023,0.96376 -0.046,1.92751 -0.069,2.89125"
       id="path3083"
       inkscape:connector-curvature="0" />
  </g>
</svg>
