<?xml version="1.0" encoding="UTF-8" standalone="no"?>
<svg
   xmlns:dc="http://purl.org/dc/elements/1.1/"
   xmlns:cc="http://creativecommons.org/ns#"
   xmlns:rdf="http://www.w3.org/1999/02/22-rdf-syntax-ns#"
   xmlns:svg="http://www.w3.org/2000/svg"
   xmlns="http://www.w3.org/2000/svg"
   xmlns:xlink="http://www.w3.org/1999/xlink"
   xmlns:sodipodi="http://sodipodi.sourceforge.net/DTD/sodipodi-0.dtd"
   xmlns:inkscape="http://www.inkscape.org/namespaces/inkscape"
   viewBox="0 0 1140 470"
   height="470"
   width="1140"
   xml:space="preserve"
   id="svg2"
   version="1.1"
   inkscape:version="0.91 r13725"
   sodipodi:docname="bg1.svg"><sodipodi:namedview
     pagecolor="#ffffff"
     bordercolor="#666666"
     borderopacity="1"
     objecttolerance="10"
     gridtolerance="10"
     guidetolerance="10"
     inkscape:pageopacity="0"
     inkscape:pageshadow="2"
     inkscape:window-width="1366"
     inkscape:window-height="666"
     id="namedview4358"
     showgrid="false"
     inkscape:zoom="0.43902917"
     inkscape:cx="741.82205"
     inkscape:cy="333.4051"
     inkscape:window-x="0"
     inkscape:window-y="0"
     inkscape:window-maximized="1"
     inkscape:current-layer="layer4" /><metadata
     id="metadata8"><rdf:RDF><cc:Work
         rdf:about=""><dc:format>image/svg+xml</dc:format><dc:type
           rdf:resource="http://purl.org/dc/dcmitype/StillImage" /><dc:title /></cc:Work></rdf:RDF></metadata><defs
     id="defs6"><linearGradient
       inkscape:collect="always"
       id="linearGradient5536"><stop
         style="stop-color:#d0ecec;stop-opacity:1;"
         offset="0"
         id="stop5538" /><stop
         style="stop-color:#d0ecec;stop-opacity:0;"
         offset="1"
         id="stop5540" /></linearGradient><clipPath
       id="clipPath20"
       clipPathUnits="userSpaceOnUse"><path
         id="path18"
         d="m 0,0 0,2351.9 3359.86,0 L 3359.86,0 0,0"
         inkscape:connector-curvature="0" /></clipPath><clipPath
       id="clipPath110"
       clipPathUnits="userSpaceOnUse"><path
         id="path108"
         d="M 0,2351.9 0,0 l 3359.86,0 0,2351.9 z"
         inkscape:connector-curvature="0" /></clipPath><clipPath
       id="clipPath218"
       clipPathUnits="userSpaceOnUse"><path
         id="path216"
         d="m 1055.36,465.949 -55.887,0 0,74.012 55.887,0 0,-74.012"
         inkscape:connector-curvature="0" /></clipPath><clipPath
       id="clipPath228"
       clipPathUnits="userSpaceOnUse"><path
         id="path226"
         d="M 0,2351.9 0,0 l 3359.86,0 0,2351.9 z"
         inkscape:connector-curvature="0" /></clipPath><clipPath
       id="clipPath494"
       clipPathUnits="userSpaceOnUse"><path
         id="path492"
         d="m 108.34,1864.14 c 0,115.06 93.273,208.33 208.34,208.33 13.843,0 27.367,-1.38 40.453,-3.96 21.422,57.84 77.062,99.07 142.34,99.07 63.593,0 118.011,-39.15 140.574,-94.63 12.23,5.84 25.906,9.12 40.344,9.12 51.703,0 93.609,-41.91 93.609,-93.6 0,-2.28 -0.109,-4.54 -0.273,-6.79 69.066,-5.9 123.289,-63.78 123.289,-134.36 l -787.954,0 c -0.433,5.55 -0.722,11.16 -0.722,16.82"
         inkscape:connector-curvature="0" /></clipPath><clipPath
       id="clipPath522"
       clipPathUnits="userSpaceOnUse"><path
         id="path520"
         d="m 1464.59,2006.21 c 0,81.47 -66.04,147.52 -147.51,147.52 -9.82,0 -19.39,-0.98 -28.67,-2.81 -15.14,40.96 -54.56,70.15 -100.77,70.15 -45.02,0 -83.56,-27.71 -99.54,-67.01 -8.66,4.14 -18.34,6.46 -28.57,6.46 -36.61,0 -66.272,-29.67 -66.272,-66.27 0,-1.62 0.078,-3.22 0.187,-4.8 -48.902,-4.19 -87.289,-45.17 -87.289,-95.15 l 557.924,0 c 0.3,3.93 0.51,7.9 0.51,11.91"
         inkscape:connector-curvature="0" /></clipPath><clipPath
       id="clipPath544"
       clipPathUnits="userSpaceOnUse"><path
         id="path542"
         d="M 0,2351.9 0,0 l 3359.86,0 0,2351.9 z"
         inkscape:connector-curvature="0" /></clipPath><clipPath
       id="clipPath558"
       clipPathUnits="userSpaceOnUse"><path
         id="path556"
         d="m 1836.02,1793.82 c 0,54.7 -44.35,99.04 -99.03,99.04 -6.59,0 -13.02,-0.66 -19.25,-1.88 -10.16,27.49 -36.61,47.09 -67.64,47.09 -30.23,0 -56.1,-18.61 -66.83,-44.99 -5.81,2.78 -12.32,4.34 -19.19,4.34 -24.56,0 -44.48,-19.92 -44.48,-44.49 0,-1.09 0.05,-2.17 0.12,-3.24 -32.82,-2.8 -58.61,-30.31 -58.61,-63.87 l 374.56,0 c 0.21,2.65 0.35,5.31 0.35,8"
         inkscape:connector-curvature="0" /></clipPath><clipPath
       id="clipPath584"
       clipPathUnits="userSpaceOnUse"><path
         id="path582"
         d="m 2191.7,1605.66 c 0,30.54 -24.77,55.3 -55.31,55.3 -3.67,0 -7.27,-0.37 -10.74,-1.06 -5.68,15.35 -20.46,26.3 -37.78,26.3 -16.88,0 -31.33,-10.39 -37.31,-25.12 -3.25,1.55 -6.88,2.42 -10.71,2.42 -13.74,0 -24.85,-11.12 -24.85,-24.85 l 0.07,-1.8 c -18.33,-1.56 -32.73,-16.92 -32.73,-35.66 l 209.16,0 c 0.12,1.47 0.2,2.96 0.2,4.47"
         inkscape:connector-curvature="0" /></clipPath><clipPath
       id="clipPath600"
       clipPathUnits="userSpaceOnUse"><path
         id="path598"
         d="m 3095.01,2069.65 c 0,30.54 -24.74,55.3 -55.23,55.3 -3.69,0 -7.26,-0.37 -10.74,-1.05 -5.66,15.35 -20.42,26.3 -37.72,26.3 -16.87,0 -31.29,-10.4 -37.27,-25.13 -3.24,1.55 -6.87,2.43 -10.7,2.43 -13.69,0 -24.81,-11.13 -24.81,-24.85 l 0.07,-1.8 c -18.31,-1.56 -32.68,-16.93 -32.68,-35.67 l 208.87,0 c 0.13,1.48 0.21,2.96 0.21,4.47"
         inkscape:connector-curvature="0" /></clipPath><clipPath
       id="clipPath612"
       clipPathUnits="userSpaceOnUse"><path
         id="path610"
         d="m 2024.79,2003.7 c 0,49.36 -40.02,89.37 -89.39,89.37 -5.95,0 -11.75,-0.59 -17.37,-1.69 -9.18,24.81 -33.05,42.5 -61.06,42.5 -27.29,0 -50.63,-16.79 -60.31,-40.6 -5.24,2.51 -11.12,3.91 -17.3,3.91 -22.18,0 -40.16,-17.97 -40.16,-40.15 0,-0.98 0.04,-1.95 0.12,-2.92 -29.64,-2.52 -52.91,-27.36 -52.91,-57.64 l 338.06,0 c 0.19,2.38 0.32,4.79 0.32,7.22"
         inkscape:connector-curvature="0" /></clipPath><clipPath
       id="clipPath628"
       clipPathUnits="userSpaceOnUse"><path
         id="path626"
         d="M 0,2351.9 0,0 l 3359.86,0 0,2351.9 z"
         inkscape:connector-curvature="0" /></clipPath><linearGradient
       inkscape:collect="always"
       xlink:href="#linearGradient5536"
       id="linearGradient5542"
       x1="1899.3547"
       y1="-8.6463461"
       x2="1898.5441"
       y2="322.47168"
       gradientUnits="userSpaceOnUse"
       gradientTransform="matrix(0.93643984,0,0,0.56771626,-1209.4811,336.11391)" /></defs><g
     inkscape:groupmode="layer"
     id="layer1"
     inkscape:label="Layer 1"
     style="display:none"
     transform="translate(0,-330.00001)"><path
       style="opacity:1;fill:#000000;fill-opacity:0;stroke:none;stroke-width:2;stroke-linecap:round;stroke-linejoin:round;stroke-miterlimit:4;stroke-dasharray:none;stroke-opacity:1"
       d="m 1295.5819,643.63896 0,-52.58182 95.8316,-0.0493 c 52.7074,-0.0271 93.9542,-1.24029 91.6596,-2.69591 -2.2946,-1.45563 70.1831,-2.06294 161.0615,-1.3496 99.1646,0.77839 163.5596,0.13089 161.0473,-1.61935 -2.5105,-1.74894 61.182,-2.29859 159.1132,-1.3731 105.7193,0.99909 162.6146,0.43519 161.3573,-1.59926 -1.2567,-2.03329 56.2812,-2.68563 163.0096,-1.84813 115.8188,0.90883 163.5126,0.28653 160.12,-2.08922 -3.512,-2.45934 4.1872,-3.39707 28.1857,-3.43292 l 33.0176,-0.0493 0,54.7609 0,54.7609 -39.46,-0.0113 c -45.1247,-0.0129 -958.3917,8.89468 -1088.7755,10.61944 l -86.1679,1.13983 0,-52.58182 z"
       id="path5518"
       inkscape:connector-curvature="0" /><path
       style="opacity:1;fill:#000000;fill-opacity:0;stroke:none;stroke-width:2;stroke-linecap:round;stroke-linejoin:round;stroke-miterlimit:4;stroke-dasharray:none;stroke-opacity:1"
       d="m 1295.5819,643.63896 0,-52.58182 95.8316,-0.0493 c 52.7074,-0.0271 93.9542,-1.24029 91.6596,-2.69591 -2.2946,-1.45563 70.1831,-2.06294 161.0615,-1.3496 99.1646,0.77839 163.5596,0.13089 161.0473,-1.61935 -2.5105,-1.74894 61.182,-2.29859 159.1132,-1.3731 105.7193,0.99909 162.6146,0.43519 161.3573,-1.59926 -1.2567,-2.03329 56.2812,-2.68563 163.0096,-1.84813 115.8188,0.90883 163.5126,0.28653 160.12,-2.08922 -3.512,-2.45934 4.1872,-3.39707 28.1857,-3.43292 l 33.0176,-0.0493 0,54.7609 0,54.7609 -39.46,-0.0113 c -45.1247,-0.0129 -958.3917,8.89468 -1088.7755,10.61944 l -86.1679,1.13983 0,-52.58182 z"
       id="path5520"
       inkscape:connector-curvature="0" /><path
       style="opacity:1;fill:#000000;fill-opacity:0;stroke:none;stroke-width:2;stroke-linecap:round;stroke-linejoin:round;stroke-miterlimit:4;stroke-dasharray:none;stroke-opacity:1"
       d="m 1295.5819,643.63896 0,-52.58182 95.8316,-0.0493 c 52.7074,-0.0271 93.9542,-1.24029 91.6596,-2.69591 -2.2946,-1.45563 70.1831,-2.06294 161.0615,-1.3496 99.1646,0.77839 163.5596,0.13089 161.0473,-1.61935 -2.5105,-1.74894 61.182,-2.29859 159.1132,-1.3731 105.7193,0.99909 162.6146,0.43519 161.3573,-1.59926 -1.2567,-2.03329 56.2812,-2.68563 163.0096,-1.84813 115.8188,0.90883 163.5126,0.28653 160.12,-2.08922 -3.512,-2.45934 4.1872,-3.39707 28.1857,-3.43292 l 33.0176,-0.0493 0,54.7609 0,54.7609 -39.46,-0.0113 c -45.1247,-0.0129 -958.3917,8.89468 -1088.7755,10.61944 l -86.1679,1.13983 0,-52.58182 z"
       id="path5522"
       inkscape:connector-curvature="0" /><path
       style="opacity:1;fill:#000000;fill-opacity:0;stroke:none;stroke-width:2;stroke-linecap:round;stroke-linejoin:round;stroke-miterlimit:4;stroke-dasharray:none;stroke-opacity:1"
       d="m 1295.5819,643.63896 0,-52.58182 95.8316,-0.0493 c 52.7074,-0.0271 93.9542,-1.24029 91.6596,-2.69591 -2.2946,-1.45563 70.1831,-2.06294 161.0615,-1.3496 99.1646,0.77839 163.5596,0.13089 161.0473,-1.61935 -2.5105,-1.74894 61.182,-2.29859 159.1132,-1.3731 105.7193,0.99909 162.6146,0.43519 161.3573,-1.59926 -1.2567,-2.03329 56.2812,-2.68563 163.0096,-1.84813 115.8188,0.90883 163.5126,0.28653 160.12,-2.08922 -3.512,-2.45934 4.1872,-3.39707 28.1857,-3.43292 l 33.0176,-0.0493 0,54.7609 0,54.7609 -39.46,-0.0113 c -45.1247,-0.0129 -958.3917,8.89468 -1088.7755,10.61944 l -86.1679,1.13983 0,-52.58182 z"
       id="path5524"
       inkscape:connector-curvature="0" /></g><g
     inkscape:groupmode="layer"
     id="layer2"
     inkscape:label="Layer 2"
     style="display:none;opacity:1"
     transform="translate(0,-330.00001)" /><g
     inkscape:groupmode="layer"
     id="layer3"
     inkscape:label="Layer 3"
     style="display:none"
     transform="translate(0,-330.00001)" /><g
     inkscape:groupmode="layer"
     id="layer4"
     inkscape:label="Layer 4"
     style="display:inline"
     transform="translate(0,-330.00001)"><rect
       style="display:inline;opacity:1;fill:url(#linearGradient5542);fill-opacity:1;stroke:none;stroke-width:2;stroke-linecap:round;stroke-linejoin:round;stroke-miterlimit:4;stroke-dasharray:none;stroke-opacity:1"
       id="rect5425"
       width="1139.0106"
       height="470.6947"
       x="2.0507679"
       y="329.93713" /><path
       inkscape:connector-curvature="0"
       style="display:inline;opacity:1;fill:#f2f9fa;fill-opacity:1;fill-rule:nonzero;stroke:none"
       d="m 417.47852,434.52582 c -7.27459,0 -13.61349,3.66667 -16.95899,9.0901 -0.40716,0.66352 -0.77234,1.35303 -1.08789,2.06951 -1.57096,-0.68844 -3.32567,-1.07858 -5.18164,-1.07858 -6.63331,0 -12.01562,4.94122 -12.01562,11.0344 l 0.0351,0.79776 c -4.88591,0.38627 -9.19551,2.63162 -12.07617,5.96169 -2.34795,2.71015 -3.75,6.14209 -3.75,9.87712 l 101.15625,0 c 0.0577,-0.65418 0.0918,-1.31391 0.0918,-1.98365 0,-2.76311 -0.496,-5.41696 -1.41211,-7.89347 -3.57961,-9.68804 -13.57242,-16.65982 -25.33594,-16.65982 -1.77793,0 -3.51044,0.15799 -5.19336,0.46326 -0.36305,-0.90025 -0.8055,-1.76272 -1.31445,-2.58822 -3.3455,-5.42343 -9.68244,-9.0901 -16.95703,-9.0901 z"
       id="path458" /><path
       inkscape:connector-curvature="0"
       style="display:inline;opacity:0.81999966;fill:#f2f9fa;fill-opacity:1;fill-rule:nonzero;stroke:none"
       d="m 1005.4586,431.20406 c -7.11407,0 -13.40719,3.86825 -17.27877,9.81008 -0.99382,1.52336 -1.82623,3.18485 -2.47434,4.95187 -1.71631,-0.91133 -3.64067,-1.42332 -5.66807,-1.42332 -5.14193,0 -9.59224,3.27237 -11.75791,8.04195 -0.89357,1.97231 -1.39785,4.19791 -1.39785,6.55585 0,0.35686 0.0166,0.70977 0.0408,1.06088 -3.54491,0.33575 -6.81129,1.75206 -9.52831,3.95267 -3.45676,2.79729 -6.02632,6.85847 -7.15841,11.5705 -0.41654,1.73441 -0.63973,3.55527 -0.63973,5.43549 l 97.92159,0 c -1.1943,-1.72289 -2.3719,-3.56103 -3.4176,-5.43549 -2.1777,-3.90239 -3.7846,-7.95739 -3.7846,-11.42618 l 0,-0.14432 c 0.026,-4.6161 1.3294,-8.56874 3.4882,-11.5694 0.5841,-0.81348 1.2314,-1.55572 1.9331,-2.22531 -4.2968,-2.74741 -9.2797,-4.31842 -14.5944,-4.31842 -1.9445,0 -3.8467,0.21513 -5.684,0.61802 -0.6758,-2.02601 -1.5954,-3.92382 -2.7171,-5.64479 -3.8733,-5.94376 -10.1704,-9.81008 -17.2826,-9.81008 z"
       id="path464" /><path
       id="path496"
       style="display:inline;opacity:1;fill:#f8fdfd;fill-opacity:1;fill-rule:nonzero;stroke:none"
       d="m 38.853546,351.34333 0,0"
       inkscape:connector-curvature="0" /><path
       inkscape:connector-curvature="0"
       style="display:inline;opacity:1;fill:#f8fdfd;fill-opacity:1;fill-rule:nonzero;stroke:none"
       d="m 248.70154,419.24353 c -9.71584,0 -18.37831,4.13345 -24.01767,10.59208 -2.04372,2.34215 -3.69104,4.98786 -4.84673,7.85319 -2.65371,-0.48036 -5.39674,-0.73764 -8.20395,-0.73764 -6.81657,0 -13.25516,1.48186 -18.95617,4.11261 -5.78821,2.67356 -10.81456,6.53187 -14.70244,11.22922 -2.778,3.35499 -4.9761,7.14149 -6.45179,11.22817 -1.28021,3.54303 -2.01863,7.31354 -2.1257,11.22708 -0.009,0.32955 -0.0128,0.66039 -0.0128,0.98994 0,1.05379 0.0581,2.09899 0.14592,3.1323 l 88.56598,0 c -0.53942,-1.38892 -1.00844,-2.76311 -1.39961,-4.12224 -0.86267,-2.99565 -1.3436,-5.90622 -1.3436,-8.671 0,-0.86016 0.0219,-1.71269 0.0631,-2.55608 0.19245,-3.9545 0.83381,-7.70747 1.87005,-11.22817 1.19525,-4.06434 2.91711,-7.8221 5.08837,-11.22922 2.7695,-4.34361 6.26549,-8.11521 10.33081,-11.22816 8.7e-4,-0.002 0.003,-0.003 0.003,-0.003 -5.63693,-6.45677 -14.29398,-10.58994 -24.00717,-10.58994 z"
       id="path498" /><path
       id="path560"
       style="display:inline;opacity:1;fill:#f8fdfd;fill-opacity:1;fill-rule:nonzero;stroke:none"
       d="m 497.84822,375.74097 0,0"
       inkscape:connector-curvature="0" /><path
       inkscape:connector-curvature="0"
       style="display:inline;opacity:1;fill:#ffffff;fill-opacity:1;fill-rule:nonzero;stroke:none"
       d="m 838.66057,444.86215 c -7.28579,0 -13.52238,4.12166 -16.10547,9.9594 -1.39825,-0.61679 -2.96896,-0.96231 -4.62305,-0.96231 -5.44067,0 -9.9369,3.71876 -10.63281,8.54097 l -1.01953,0 c -0.0611,0.42677 -0.0918,0.86339 -0.0918,1.30574 l 0.0312,0.71369 c -7.91247,0.61991 -14.13281,6.70906 -14.13281,14.1324 l 90.28515,0 c 0.0475,-0.58252 0.084,-1.17091 0.084,-1.76901 0,-5.50442 -2.21241,-10.53564 -5.86328,-14.38282 l 1.02148,0 c -4.37629,-4.6135 -10.82068,-7.52858 -18.00976,-7.52858 -1.58657,0 -3.13303,0.14217 -4.63477,0.41319 -2.45212,-6.08695 -8.8294,-10.42267 -16.30859,-10.42267 z"
       id="path454" /><path
       inkscape:connector-curvature="0"
       style="display:inline;opacity:1;fill:#ffffff;fill-opacity:1;fill-rule:nonzero;stroke:none"
       d="m 135.81223,481.73746 c -7.28579,0 -13.52432,4.12166 -16.10741,9.9594 -1.39825,-0.61678 -2.96701,-0.96231 -4.6211,-0.96231 -5.44067,0 -9.9369,3.71876 -10.63281,8.54097 -0.0611,0.42677 -0.0937,0.86339 -0.0937,1.30574 l 0.0312,0.71369 c -7.912474,0.61991 -14.125004,6.70907 -14.125004,14.13241 l 90.277334,0 c 0.0516,-0.58253 0.0859,-1.17092 0.0859,-1.76901 0,-5.50442 -2.20978,-10.53565 -5.86133,-14.38283 -4.37629,-4.61349 -10.82067,-7.52858 -18.00976,-7.52858 -1.58656,0 -3.13303,0.14218 -4.63477,0.41319 -2.45212,-6.08695 -8.8294,-10.42267 -16.30859,-10.42267 z"
       id="path450" /><path
       id="path510"
       style="display:inline;opacity:1;fill:#f5806c;fill-opacity:1;fill-rule:nonzero;stroke:none"
       d="m 271.29618,482.39653 -13.19955,0 c -0.53942,-1.38891 -1.00927,-2.76293 -1.40046,-4.12206 -0.86266,-2.99565 -1.34287,-5.90567 -1.34287,-8.67046 0,-0.86016 0.0215,-1.71287 0.0627,-2.55628 0.19244,-3.95449 0.83326,-7.7079 1.86951,-11.2286 1.19524,-4.06433 2.91814,-7.82148 5.0894,-11.22859 2.76949,-4.34361 6.26517,-8.11565 10.33048,-11.2286 0.002,-0.002 0.002,-0.002 0.004,-0.002 1.68254,1.92512 3.0974,4.06062 4.18902,6.35438 -4.72276,7.77307 -7.54924,17.98325 -7.54924,29.88956 0,4.01779 0.71848,8.33906 1.94718,12.79252"
       inkscape:connector-curvature="0" /><path
       id="path512"
       style="display:inline;opacity:1;fill:#ffffff;fill-opacity:1;fill-rule:nonzero;stroke:none"
       d="m 329.31924,482.39653 -10.7535,0 c 0.57044,-4.45346 0.90302,-8.77473 0.90302,-12.79252 0,-2.26583 -0.0466,-4.46836 -0.13932,-6.60758 6.1003,4.60426 9.9898,11.5842 9.9898,19.4001 m -40.7148,0 -17.30826,0 c -1.2287,-4.45346 -1.94718,-8.77473 -1.94718,-12.79252 0,-11.90631 2.82648,-22.11649 7.54924,-29.88957 0.10687,0.22342 0.21069,0.4487 0.31047,0.67398 2.48011,-1.0873 5.25345,-1.69797 8.18132,-1.69797 2.04675,0 4.01685,0.29603 5.86345,0.84712 -2.22115,7.79542 -3.55287,18.07077 -3.55287,30.06644 0,4.01779 0.33359,8.33906 0.90383,12.79252"
       inkscape:connector-curvature="0" /><path
       id="path514"
       style="display:inline;opacity:1;fill:#f5806c;fill-opacity:1;fill-rule:nonzero;stroke:none"
       d="m 318.56574,482.39653 -29.9613,0 c -0.57024,-4.45346 -0.90383,-8.77473 -0.90383,-12.79252 0,-11.99567 1.33172,-22.27102 3.55287,-30.06644 7.61474,2.26769 13.11945,8.83431 13.11945,16.57946 0,0.42449 -0.0221,0.84526 -0.0553,1.26417 5.67567,0.44497 10.85632,2.47993 15.01188,5.61523 0.0927,2.13922 0.13931,4.34175 0.13931,6.60758 0,4.01779 -0.33257,8.33906 -0.90301,12.79252"
       inkscape:connector-curvature="0" /><path
       id="path532"
       style="display:inline;opacity:1;fill:#f5806c;fill-opacity:1;fill-rule:nonzero;stroke:none"
       d="m 349.64724,455.03159 -13.36665,0 c -0.6836,-3.06641 -1.58196,-5.95222 -2.67114,-8.64068 1.7379,-2.86347 4.31394,-5.23914 7.4231,-6.85148 1.36964,1.58441 2.62835,3.26935 3.76437,5.05111 2.03033,3.18556 3.66846,6.67832 4.85032,10.44105"
       inkscape:connector-curvature="0" /><path
       id="path534"
       style="display:inline;opacity:1;fill:#ffffff;fill-opacity:1;fill-rule:nonzero;stroke:none"
       d="m 336.28059,455.03159 -5.10786,0 c 0,-3.1353 0.88498,-6.08255 2.43672,-8.64068 1.08918,2.68846 1.98754,5.57427 2.67114,8.64068"
       inkscape:connector-curvature="0" /><path
       id="path404"
       style="display:inline;fill:#f89f21;fill-opacity:1;fill-rule:nonzero;stroke:none"
       d="m 313.69332,549.20027 c 0,1.29211 -1.14616,2.34403 -2.55555,2.34403 l -3.15905,0 c 0.22976,-0.69446 0.34312,-1.51924 0.34312,-2.34403 l 0,-10.28838 5.37148,0 z m -13.01176,2.34403 c -0.17663,-0.25693 -0.49278,-1.04075 -0.49278,-2.34403 l 0,-10.28838 6.18831,0 0,10.28838 c 0,1.30514 -0.31533,2.0871 -0.49278,2.34403 z m -7.80496,-2.34403 0,-10.28838 5.36662,0 0,10.28838 c 0,0.82479 0.11336,1.64957 0.34474,2.34403 l -3.15844,0 c -1.40837,0 -2.55292,-1.05192 -2.55292,-2.34403 z m 22.81602,-21.36803 -1.94535,0 0,9.29045 -20.87067,0 0,-9.29045 -1.9488,0 0,21.36803 c 0,2.27887 2.01999,4.13137 4.50172,4.13137 l 15.70825,0 c 2.48275,0 4.50111,-1.8525 4.50111,-4.13137 l 0,-11.18391 0.0537,0 0,-10.18412"
       inkscape:connector-curvature="0" /><path
       id="path406"
       style="display:inline;fill:#e24644;fill-opacity:1;fill-rule:nonzero;stroke:none"
       d="m 315.6768,528.02959 c 14.28711,-14.51284 36.14069,-39.75904 36.14069,-58.42558 0,-27.728 -21.5936,-46.25119 -48.23199,-46.25119 -26.63738,0 -48.2322,18.52319 -48.2322,46.25119 0,18.66654 21.85378,43.91274 36.14008,58.42558 l 24.18342,0"
       inkscape:connector-curvature="0" /><path
       id="path408"
       style="display:inline;fill:#ffffff;fill-opacity:1;fill-rule:nonzero;stroke:none"
       d="m 312.16997,528.02959 c 10.14108,-14.51284 25.65202,-39.75904 25.65202,-58.42558 0,-27.728 -15.32883,-46.25119 -34.23649,-46.25119 -18.90848,0 -34.2365,18.52319 -34.2365,46.25119 0,18.66654 15.51175,43.91274 25.65365,58.42558 l 17.16732,0"
       inkscape:connector-curvature="0" /><path
       id="path410"
       style="display:inline;fill:#e24644;fill-opacity:1;fill-rule:nonzero;stroke:none"
       d="m 307.56848,528.02959 c 4.70531,-14.51284 11.90028,-39.75904 11.90028,-58.42558 0,-27.728 -7.1102,-46.25119 -15.88326,-46.25119 -8.77307,0 -15.88489,18.52319 -15.88489,46.25119 0,18.66654 7.19598,43.91274 11.90211,58.42558 l 7.96576,0"
       inkscape:connector-curvature="0" /><path
       id="path412"
       style="display:inline;fill:#fbbf58;fill-opacity:1;fill-rule:nonzero;stroke:none"
       d="m 292.8766,549.20027 0,-10.28838 5.36662,0 0,10.28838 c 0,0.82479 0.11336,1.64957 0.34474,2.34403 l -3.15844,0 c -1.40837,0 -2.55292,-1.05192 -2.55292,-2.34403"
       inkscape:connector-curvature="0" /><path
       id="path414"
       style="display:inline;fill:#fbbf58;fill-opacity:1;fill-rule:nonzero;stroke:none"
       d="m 300.68156,551.5443 c -0.17663,-0.25693 -0.49278,-1.04075 -0.49278,-2.34403 l 0,-10.28838 6.18831,0 0,10.28838 c 0,1.30514 -0.31533,2.0871 -0.49278,2.34403 l -5.20275,0"
       inkscape:connector-curvature="0" /><path
       id="path416"
       style="display:inline;fill:#fbbf58;fill-opacity:1;fill-rule:nonzero;stroke:none"
       d="m 313.69332,549.20027 c 0,1.29211 -1.14616,2.34403 -2.55555,2.34403 l -3.15905,0 c 0.22976,-0.69446 0.34312,-1.51924 0.34312,-2.34403 l 0,-10.28838 5.37148,0 0,10.28838"
       inkscape:connector-curvature="0" /><g
       id="g4549"
       transform="matrix(0.90268197,0,0,0.82668261,207.26876,198.81809)"><path
         inkscape:connector-curvature="0"
         d="m 952.39467,338.3153 -10.68455,0 c -2.38189,-9.41537 -4.6552,-20.7934 -4.6552,-29.89583 0,-6.22816 0.47502,-11.78281 1.3097,-16.43607 8.85233,8.47315 15.01062,19.74914 17.05321,32.40954 -0.84146,4.77911 -1.92044,9.56163 -3.02316,13.92236"
         style="display:inline;opacity:1;fill:#f9bc24;fill-opacity:1;fill-rule:nonzero;stroke:none"
         id="path478" /><path
         inkscape:connector-curvature="0"
         d="m 953.41257,363.19391 c 0,0.88779 -0.71932,1.61231 -1.60828,1.61231 l -1.98491,0 c 0.1459,-0.47961 0.21715,-1.04766 0.21715,-1.61231 l 0,-7.08194 3.37604,0 0,7.08194 m -8.18392,1.61231 c -0.11196,-0.17688 -0.30876,-0.71772 -0.30876,-1.61231 l 0,-7.08194 3.88838,0 0,7.08194 c 0,0.89459 -0.1934,1.43543 -0.30537,1.61231 l -3.27425,0 m -4.91306,-1.61231 0,-7.08194 3.37604,0 0,7.08194 c 0,0.56465 0.0679,1.1327 0.21715,1.61231 l -1.9883,0 c -0.88557,0 -1.60489,-0.72452 -1.60489,-1.61231 m 14.35578,-14.70471 -1.21809,0 0,6.39483 -13.13769,0 0,-6.39483 -1.23166,0 0,14.70471 c 0,1.56809 1.27238,2.84025 2.83655,2.84025 l 9.88381,0 c 1.56417,0 2.83654,-1.27216 2.83654,-2.84025 l 0,-7.69761 0.0305,0 0,-7.0071"
         style="display:inline;fill:#183654;fill-opacity:1;fill-rule:nonzero;stroke:none"
         id="path418" /><path
         inkscape:connector-curvature="0"
         d="m 954.66458,348.62186 c 8.99145,-9.98682 22.74667,-27.36171 22.74667,-40.20239 0,-19.08584 -13.59236,-31.83469 -30.36055,-31.83469 -16.75802,0 -30.35377,12.74885 -30.35377,31.83469 0,12.84068 13.75522,30.21557 22.74666,40.20239 l 15.22099,0"
         style="display:inline;fill:#f89f21;fill-opacity:1;fill-rule:nonzero;stroke:none"
         id="path420" /><path
         inkscape:connector-curvature="0"
         d="m 952.45574,348.62186 c 6.38902,-9.98682 16.14728,-27.36171 16.14728,-40.20239 0,-19.08584 -9.64969,-31.83469 -21.55232,-31.83469 -11.89925,0 -21.54555,12.74885 -21.54555,31.83469 0,12.84068 9.76166,30.21557 16.14728,40.20239 l 10.80331,0"
         style="display:inline;fill:#ffffff;fill-opacity:1;fill-rule:nonzero;stroke:none"
         id="path422" /><path
         inkscape:connector-curvature="0"
         d="m 949.56151,348.62186 c 2.9587,-9.98682 7.48835,-27.36171 7.48835,-40.20239 0,-19.08584 -4.47536,-31.83469 -9.99916,-31.83469 -5.52041,0 -9.99578,12.74885 -9.99578,31.83469 0,12.84068 4.52965,30.21557 7.49174,40.20239 l 5.01485,0"
         style="display:inline;fill:#f89f21;fill-opacity:1;fill-rule:nonzero;stroke:none"
         id="path424" /><path
         inkscape:connector-curvature="0"
         d="m 940.31559,363.19391 0,-7.08194 3.37604,0 0,7.08194 c 0,0.56465 0.0679,1.1327 0.21715,1.61231 l -1.9883,0 c -0.88557,0 -1.60489,-0.72452 -1.60489,-1.61231"
         style="display:inline;fill:#528a92;fill-opacity:1;fill-rule:nonzero;stroke:none"
         id="path426" /><path
         inkscape:connector-curvature="0"
         d="m 945.22865,364.80622 c -0.11196,-0.17688 -0.30876,-0.71772 -0.30876,-1.61231 l 0,-7.08194 3.88838,0 0,7.08194 c 0,0.89459 -0.1934,1.43543 -0.30537,1.61231 l -3.27425,0"
         style="display:inline;fill:#528a92;fill-opacity:1;fill-rule:nonzero;stroke:none"
         id="path428" /><path
         inkscape:connector-curvature="0"
         d="m 953.41257,363.19391 c 0,0.88779 -0.71932,1.61231 -1.60828,1.61231 l -1.98491,0 c 0.1459,-0.47961 0.21715,-1.04766 0.21715,-1.61231 l 0,-7.08194 3.37604,0 0,7.08194"
         style="display:inline;fill:#528a92;fill-opacity:1;fill-rule:nonzero;stroke:none"
         id="path430" /><path
         inkscape:connector-curvature="0"
         d="m 935.54164,338.3153 -4.70609,0 c -2.34456,-3.05455 -4.65519,-6.31319 -6.70795,-9.63647 -4.27518,-6.91866 -7.43067,-14.10944 -7.43067,-20.25936 0,-0.085 0,-0.17007 0,-0.25511 0.0509,-8.18402 2.60922,-15.19112 6.84707,-20.51108 1.14683,-1.44224 2.41921,-2.75862 3.79677,-3.94574 1.34023,0.77554 2.64314,1.6021 3.91212,2.47629 -3.56604,5.52064 -5.74774,13.16042 -5.74774,22.23564 0,9.10243 4.90628,20.48046 10.03649,29.89583"
         style="display:inline;fill:#f9bc24;fill-opacity:1;fill-rule:nonzero;stroke:none"
         id="path474" /><path
         inkscape:connector-curvature="0"
         d="m 955.96071,338.3153 -3.56604,0 c 1.10272,-4.36073 2.1817,-9.14325 3.02316,-13.92236 0.48859,3.01713 0.73967,6.1125 0.73967,9.2691 0,1.56469 -0.0746,3.11238 -0.19679,4.65326 m -14.25059,0 -6.16848,0 c -5.13021,-9.41537 -10.03649,-20.7934 -10.03649,-29.89583 0,-9.07522 2.1817,-16.715 5.74774,-22.23564 2.521,1.74497 4.90289,3.68383 7.11173,5.79957 -0.83468,4.65326 -1.3097,10.20791 -1.3097,16.43607 0,9.10243 2.27331,20.48046 4.6552,29.89583"
         style="display:inline;fill:#ffffff;fill-opacity:1;fill-rule:nonzero;stroke:none"
         id="path476" /></g><g
       id="g104"
       transform="matrix(0.33929986,0,0,-0.31151227,2.0937991,932.04581)"><g
         clip-path="url(#clipPath110)"
         id="g106"><path
           id="path112"
           style="fill:#a8b9c0;fill-opacity:1;fill-rule:nonzero;stroke:none"
           d="m 3092.98,1263.82 0,-364.172 -281.87,0 0,373.842 -136.89,120.03 -132.5,-117.24 0,-306.792 -19.95,0 0,162.132 -172.11,0 0,-152.159 -82.32,0 0,473.919 -389.12,0 0,-483.892 -144.67,0 0,364.162 -174.59,0 0,-364.162 -172.12,0 0,289.342 -79.93,0 0,39.64 -41.58,0 0,40.31 -42.08,0 0,81.28 -13.47,0 0,-81.28 -41.6,0 0,-40.31 -42.05,0 0,-39.64 -68.54,0 0,-209.36 -239.457,0 0,118.31 -239.442,0 0,-198.292 -276.879,0 0,266.892 -159.64,129.69 L 0,1243.86 0,420.73 l 3359.86,0 0,843.09 -266.88,0"
           inkscape:connector-curvature="0" /><path
           id="path114"
           style="fill:#528a92;fill-opacity:1;fill-rule:nonzero;stroke:none"
           d="m 449.996,421.102 432.484,0 0,628.867 -432.484,0 z"
           inkscape:connector-curvature="0" /><path
           id="path116"
           style="fill:#ffffff;fill-opacity:1;fill-rule:nonzero;stroke:none"
           d="m 502.672,946.211 37.0195,0 0,54.1406 -37.0195,0 z"
           inkscape:connector-curvature="0" /><path
           id="path118"
           style="fill:#afcecd;fill-opacity:1;fill-rule:nonzero;stroke:none"
           d="m 575.879,946.211 37.0273,0 0,54.1406 -37.0273,0 z"
           inkscape:connector-curvature="0" /><path
           id="path120"
           style="fill:#fbbf58;fill-opacity:1;fill-rule:nonzero;stroke:none"
           d="m 649.094,946.211 37.0195,0 0,54.1406 -37.0195,0 z"
           inkscape:connector-curvature="0" /><path
           id="path122"
           style="fill:#afcecd;fill-opacity:1;fill-rule:nonzero;stroke:none"
           d="m 722.301,946.211 37.0234,0 0,54.1406 -37.0234,0 z"
           inkscape:connector-curvature="0" /><path
           id="path124"
           style="fill:#ffffff;fill-opacity:1;fill-rule:nonzero;stroke:none"
           d="m 795.508,946.211 37.0273,0 0,54.1406 -37.0273,0 z"
           inkscape:connector-curvature="0" /><path
           id="path126"
           style="fill:#afcecd;fill-opacity:1;fill-rule:nonzero;stroke:none"
           d="m 502.672,854.391 37.0195,0 0,54.1289 -37.0195,0 z"
           inkscape:connector-curvature="0" /><path
           id="path128"
           style="fill:#afcecd;fill-opacity:1;fill-rule:nonzero;stroke:none"
           d="m 575.879,854.391 37.0273,0 0,54.1289 -37.0273,0 z"
           inkscape:connector-curvature="0" /><path
           id="path130"
           style="fill:#ffffff;fill-opacity:1;fill-rule:nonzero;stroke:none"
           d="m 649.094,854.391 37.0195,0 0,54.1289 -37.0195,0 z"
           inkscape:connector-curvature="0" /><path
           id="path132"
           style="fill:#afcecd;fill-opacity:1;fill-rule:nonzero;stroke:none"
           d="m 722.301,854.391 37.0234,0 0,54.1289 -37.0234,0 z"
           inkscape:connector-curvature="0" /><path
           id="path134"
           style="fill:#ffffff;fill-opacity:1;fill-rule:nonzero;stroke:none"
           d="m 795.508,854.391 37.0273,0 0,54.1289 -37.0273,0 z"
           inkscape:connector-curvature="0" /><path
           id="path136"
           style="fill:#ffffff;fill-opacity:1;fill-rule:nonzero;stroke:none"
           d="m 502.672,767.059 37.0195,0 0,54.1211 -37.0195,0 z"
           inkscape:connector-curvature="0" /><path
           id="path138"
           style="fill:#fbbf58;fill-opacity:1;fill-rule:nonzero;stroke:none"
           d="m 575.879,767.059 37.0273,0 0,54.1211 -37.0273,0 z"
           inkscape:connector-curvature="0" /><path
           id="path140"
           style="fill:#ffffff;fill-opacity:1;fill-rule:nonzero;stroke:none"
           d="m 649.094,767.059 37.0195,0 0,54.1211 -37.0195,0 z"
           inkscape:connector-curvature="0" /><path
           id="path142"
           style="fill:#ffffff;fill-opacity:1;fill-rule:nonzero;stroke:none"
           d="m 722.301,767.059 37.0234,0 0,54.1211 -37.0234,0 z"
           inkscape:connector-curvature="0" /><path
           id="path144"
           style="fill:#afcecd;fill-opacity:1;fill-rule:nonzero;stroke:none"
           d="m 795.508,767.059 37.0273,0 0,54.1211 -37.0273,0 z"
           inkscape:connector-curvature="0" /><path
           id="path146"
           style="fill:#afcecd;fill-opacity:1;fill-rule:nonzero;stroke:none"
           d="m 502.672,578.93 37.0195,0 0,54.1406 -37.0195,0 z"
           inkscape:connector-curvature="0" /><path
           id="path148"
           style="fill:#afcecd;fill-opacity:1;fill-rule:nonzero;stroke:none"
           d="m 575.879,578.93 37.0273,0 0,54.1406 -37.0273,0 z"
           inkscape:connector-curvature="0" /><path
           id="path150"
           style="fill:#ffffff;fill-opacity:1;fill-rule:nonzero;stroke:none"
           d="m 649.094,578.93 37.0195,0 0,54.1406 -37.0195,0 z"
           inkscape:connector-curvature="0" /><path
           id="path152"
           style="fill:#ffffff;fill-opacity:1;fill-rule:nonzero;stroke:none"
           d="m 722.301,578.93 37.0234,0 0,54.1406 -37.0234,0 z"
           inkscape:connector-curvature="0" /><path
           id="path154"
           style="fill:#ffffff;fill-opacity:1;fill-rule:nonzero;stroke:none"
           d="m 795.508,578.93 37.0273,0 0,54.1406 -37.0273,0 z"
           inkscape:connector-curvature="0" /><path
           id="path156"
           style="fill:#ffffff;fill-opacity:1;fill-rule:nonzero;stroke:none"
           d="m 502.672,670.719 37.0195,0 0,54.1211 -37.0195,0 z"
           inkscape:connector-curvature="0" /><path
           id="path158"
           style="fill:#ffffff;fill-opacity:1;fill-rule:nonzero;stroke:none"
           d="m 575.879,670.719 37.0273,0 0,54.1211 -37.0273,0 z"
           inkscape:connector-curvature="0" /><path
           id="path160"
           style="fill:#afcecd;fill-opacity:1;fill-rule:nonzero;stroke:none"
           d="m 649.094,670.719 37.0195,0 0,54.1211 -37.0195,0 z"
           inkscape:connector-curvature="0" /><path
           id="path162"
           style="fill:#ffffff;fill-opacity:1;fill-rule:nonzero;stroke:none"
           d="m 722.301,670.719 37.0234,0 0,54.1211 -37.0234,0 z"
           inkscape:connector-curvature="0" /><path
           id="path164"
           style="fill:#ffffff;fill-opacity:1;fill-rule:nonzero;stroke:none"
           d="m 795.508,670.719 37.0273,0 0,54.1211 -37.0273,0 z"
           inkscape:connector-curvature="0" /><path
           id="path166"
           style="fill:#ffffff;fill-opacity:1;fill-rule:nonzero;stroke:none"
           d="m 502.672,487.051 37.0195,0 0,54.1211 -37.0195,0 z"
           inkscape:connector-curvature="0" /><path
           id="path168"
           style="fill:#ffffff;fill-opacity:1;fill-rule:nonzero;stroke:none"
           d="m 575.879,487.051 37.0273,0 0,54.1211 -37.0273,0 z"
           inkscape:connector-curvature="0" /><path
           id="path170"
           style="fill:#ffffff;fill-opacity:1;fill-rule:nonzero;stroke:none"
           d="m 649.094,487.051 37.0195,0 0,54.1211 -37.0195,0 z"
           inkscape:connector-curvature="0" /><path
           id="path172"
           style="fill:#afcecd;fill-opacity:1;fill-rule:nonzero;stroke:none"
           d="m 722.301,487.051 37.0234,0 0,54.1211 -37.0234,0 z"
           inkscape:connector-curvature="0" /><path
           id="path174"
           style="fill:#fbbf58;fill-opacity:1;fill-rule:nonzero;stroke:none"
           d="m 795.508,487.051 37.0273,0 0,54.1211 -37.0273,0 z"
           inkscape:connector-curvature="0" /><path
           id="path176"
           style="fill:#183654;fill-opacity:1;fill-rule:nonzero;stroke:none"
           d="m 1915.47,971.531 7.2109,0 0,92.1289 -7.2109,0 z"
           inkscape:connector-curvature="0" /><path
           id="path178"
           style="fill:#e24644;fill-opacity:1;fill-rule:nonzero;stroke:none"
           d="m 2014.99,1014.44 -92.31,0 0,49.22 92.31,0 -13.12,-24.45 13.12,-24.77"
           inkscape:connector-curvature="0" /><path
           id="path180"
           style="fill:#d0ecec;fill-opacity:1;fill-rule:nonzero;stroke:none"
           d="m 61.9688,419.59 302.777,0 0,525.031 -302.777,0 z"
           inkscape:connector-curvature="0" /><path
           id="path182"
           style="fill:#e24644;fill-opacity:1;fill-rule:nonzero;stroke:none"
           d="m 48.4688,944.621 329.785,0 0,30 -329.785,0 z"
           inkscape:connector-curvature="0" /><path
           id="path184"
           style="fill:#e24644;fill-opacity:1;fill-rule:nonzero;stroke:none"
           d="m 2856.8,1180.04 483.898,0 0,30 -483.898,0 z"
           inkscape:connector-curvature="0" /><path
           id="path186"
           style="fill:#ffffff;fill-opacity:1;fill-rule:nonzero;stroke:none"
           d="m 224.734,566.648 105.672,0 0,88.8711 -105.672,0 z"
           inkscape:connector-curvature="0" /><path
           id="path188"
           style="fill:#fbbf58;fill-opacity:1;fill-rule:nonzero;stroke:none"
           d="m 96.3125,566.648 105.664,0 0,88.8711 -105.664,0 z"
           inkscape:connector-curvature="0" /><path
           id="path190"
           style="fill:#ffffff;fill-opacity:1;fill-rule:nonzero;stroke:none"
           d="m 224.734,675.629 105.672,0 0,88.8828 -105.672,0 z"
           inkscape:connector-curvature="0" /><path
           id="path192"
           style="fill:#ffffff;fill-opacity:1;fill-rule:nonzero;stroke:none"
           d="m 96.3125,675.629 105.664,0 0,88.8828 -105.664,0 z"
           inkscape:connector-curvature="0" /><path
           id="path194"
           style="fill:#ffffff;fill-opacity:1;fill-rule:nonzero;stroke:none"
           d="m 224.734,784.609 105.672,0 0,88.8789 -105.672,0 z"
           inkscape:connector-curvature="0" /><path
           id="path196"
           style="fill:#ffffff;fill-opacity:1;fill-rule:nonzero;stroke:none"
           d="m 96.3125,784.609 105.664,0 0,88.8789 -105.664,0 z"
           inkscape:connector-curvature="0" /><path
           id="path198"
           style="fill:#183654;fill-opacity:1;fill-rule:nonzero;stroke:none"
           d="m 96.3125,419.59 105.664,0 0,115.699 -105.664,0 z"
           inkscape:connector-curvature="0" /><path
           id="path200"
           style="fill:#e24644;fill-opacity:1;fill-rule:nonzero;stroke:none"
           d="m 2381.45,422.609 405.293,0 0,519.16 -405.293,0 z"
           inkscape:connector-curvature="0" /><path
           id="path202"
           style="fill:#e24644;fill-opacity:1;fill-rule:nonzero;stroke:none"
           d="m 957.555,420.941 307.387,0 0,411.027 -307.387,0 z"
           inkscape:connector-curvature="0" /><path
           id="path204"
           style="fill:#183654;fill-opacity:1;fill-rule:nonzero;stroke:none"
           d="m 2358.67,941.77 450.828,0 0,28.4609 -450.828,0 z"
           inkscape:connector-curvature="0" /><path
           id="path206"
           style="fill:#183654;fill-opacity:1;fill-rule:nonzero;stroke:none"
           d="m 941.34,831.969 339.832,0 0,28.4609 -339.832,0 z"
           inkscape:connector-curvature="0" /><path
           id="path208"
           style="fill:#183654;fill-opacity:1;fill-rule:nonzero;stroke:none"
           d="m 1265.17,555.148 178.359,0 0,28.4609 -178.359,0 z"
           inkscape:connector-curvature="0" /><path
           id="path210"
           style="fill:#498c95;fill-opacity:1;fill-rule:nonzero;stroke:none"
           d="m 2430.38,463.309 55.9102,0 0,74.0312 -55.9102,0 z"
           inkscape:connector-curvature="0" /></g></g><g
       id="g212"
       transform="matrix(0.33929986,0,0,-0.31151227,2.0937991,932.04581)"><g
         clip-path="url(#clipPath218)"
         id="g214"><path
           id="path220"
           style="fill:#f1a7a6;fill-opacity:1;fill-rule:nonzero;stroke:none"
           d="m 999.473,465.949 55.8867,0 0,74.0117 -55.8867,0 z"
           inkscape:connector-curvature="0" /></g></g><path
       id="path230"
       style="fill:#fbbf58;fill-opacity:1;fill-rule:nonzero;stroke:none"
       d="m 369.65734,786.89698 18.96632,0 0,-23.05556 -18.96632,0 z"
       inkscape:connector-curvature="0" /><path
       id="path232"
       style="fill:#f1a7a6;fill-opacity:1;fill-rule:nonzero;stroke:none"
       d="m 398.10084,786.89698 18.96368,0 0,-23.05556 -18.96368,0 z"
       inkscape:connector-curvature="0" /><path
       id="path234"
       style="fill:#ffffff;fill-opacity:1;fill-rule:nonzero;stroke:none"
       d="m 341.21485,749.1286 18.96235,0 0,-23.05433 -18.96235,0 z"
       inkscape:connector-curvature="0" /><path
       id="path236"
       style="fill:#f1a7a6;fill-opacity:1;fill-rule:nonzero;stroke:none"
       d="m 369.65734,749.1286 18.96632,0 0,-23.05433 -18.96632,0 z"
       inkscape:connector-curvature="0" /><path
       id="path238"
       style="fill:#f89f21;fill-opacity:1;fill-rule:nonzero;stroke:none"
       d="m 398.10084,749.1286 18.96368,0 0,-23.05433 -18.96368,0 z"
       inkscape:connector-curvature="0" /><path
       id="path240"
       style="fill:#f89f21;fill-opacity:1;fill-rule:nonzero;stroke:none"
       d="m 341.21485,711.35525 18.96235,0 0,-23.05555 -18.96235,0 z"
       inkscape:connector-curvature="0" /><path
       id="path242"
       style="fill:#ffffff;fill-opacity:1;fill-rule:nonzero;stroke:none"
       d="m 369.65734,711.35525 18.96632,0 0,-23.05555 -18.96632,0 z"
       inkscape:connector-curvature="0" /><path
       id="path244"
       style="fill:#ffffff;fill-opacity:1;fill-rule:nonzero;stroke:none"
       d="m 398.10084,711.35525 18.96368,0 0,-23.05555 -18.96368,0 z"
       inkscape:connector-curvature="0" /><path
       id="path246"
       style="fill:#183654;fill-opacity:1;fill-rule:nonzero;stroke:none"
       d="m 859.94564,800.39792 37.85568,0 0,-35.7398 -37.85568,0 z"
       inkscape:connector-curvature="0" /><path
       id="path248"
       style="fill:#d0ecec;fill-opacity:1;fill-rule:nonzero;stroke:none"
       d="m 912.0587,787.71937 18.96367,0 0,-23.06163 -18.96367,0 z"
       inkscape:connector-curvature="0" /><path
       id="path250"
       style="fill:#ffffff;fill-opacity:1;fill-rule:nonzero;stroke:none"
       d="m 826.72139,749.94259 18.97033,0 0,-23.05191 -18.97033,0 z"
       inkscape:connector-curvature="0" /><path
       id="path252"
       style="fill:#d0ecec;fill-opacity:1;fill-rule:nonzero;stroke:none"
       d="m 855.17169,749.94259 18.96367,0 0,-23.05191 -18.96367,0 z"
       inkscape:connector-curvature="0" /><path
       id="path254"
       style="fill:#d0ecec;fill-opacity:1;fill-rule:nonzero;stroke:none"
       d="m 883.61519,749.94259 18.96368,0 0,-23.05191 -18.96368,0 z"
       inkscape:connector-curvature="0" /><path
       id="path256"
       style="fill:#d0ecec;fill-opacity:1;fill-rule:nonzero;stroke:none"
       d="m 912.0587,749.94259 18.96367,0 0,-23.05191 -18.96367,0 z"
       inkscape:connector-curvature="0" /><path
       id="path258"
       style="fill:#d0ecec;fill-opacity:1;fill-rule:nonzero;stroke:none"
       d="m 826.72139,712.17422 18.97033,0 0,-23.05191 -18.97033,0 z"
       inkscape:connector-curvature="0" /><path
       id="path260"
       style="fill:#d0ecec;fill-opacity:1;fill-rule:nonzero;stroke:none"
       d="m 855.17169,712.17422 18.96367,0 0,-23.05191 -18.96367,0 z"
       inkscape:connector-curvature="0" /><path
       id="path262"
       style="fill:#ffffff;fill-opacity:1;fill-rule:nonzero;stroke:none"
       d="m 883.61519,712.17422 18.96368,0 0,-23.05191 -18.96368,0 z"
       inkscape:connector-curvature="0" /><path
       id="path264"
       style="fill:#ffffff;fill-opacity:1;fill-rule:nonzero;stroke:none"
       d="m 912.0587,712.17422 18.96367,0 0,-23.05191 -18.96367,0 z"
       inkscape:connector-curvature="0" /><path
       id="path266"
       style="fill:#d0ecec;fill-opacity:1;fill-rule:nonzero;stroke:none"
       d="m 826.72139,674.40087 18.97033,0 0,-23.05191 -18.97033,0 z"
       inkscape:connector-curvature="0" /><path
       id="path268"
       style="fill:#ffffff;fill-opacity:1;fill-rule:nonzero;stroke:none"
       d="m 855.17169,674.40087 18.96367,0 0,-23.05191 -18.96367,0 z"
       inkscape:connector-curvature="0" /><path
       id="path270"
       style="fill:#d0ecec;fill-opacity:1;fill-rule:nonzero;stroke:none"
       d="m 883.61519,674.40087 18.96368,0 0,-23.05191 -18.96368,0 z"
       inkscape:connector-curvature="0" /><path
       id="path272"
       style="fill:#d0ecec;fill-opacity:1;fill-rule:nonzero;stroke:none"
       d="m 912.0587,674.40087 18.96367,0 0,-23.05191 -18.96367,0 z"
       inkscape:connector-curvature="0" /><path
       id="path274"
       style="fill:#d0ecec;fill-opacity:1;fill-rule:nonzero;stroke:none"
       d="m 826.72139,787.71937 18.97026,0 0,-23.06157 -16.97517,0 -1.99509,1.83138 0,21.23019"
       inkscape:connector-curvature="0" /><path
       id="path276"
       style="fill:#39707e;fill-opacity:1;fill-rule:nonzero;stroke:none"
       d="m 845.69165,749.07845 -0.94665,0.86414 0.94665,0 0,-0.86414"
       inkscape:connector-curvature="0" /><path
       id="path278"
       style="fill:#183654;fill-opacity:1;fill-rule:nonzero;stroke:none"
       d="m 34.772617,687.63048 35.85178,0 0,-7.33637 -35.85178,0 z"
       inkscape:connector-curvature="0" /><path
       id="path280"
       style="fill:#183654;fill-opacity:1;fill-rule:nonzero;stroke:none"
       d="m 78.346014,687.63048 35.854496,0 0,-7.33637 -35.854496,0 z"
       inkscape:connector-curvature="0" /><path
       id="path282"
       style="fill:#183654;fill-opacity:1;fill-rule:nonzero;stroke:none"
       d="m 34.772617,721.57908 35.85178,0 0,-7.34001 -35.85178,0 z"
       inkscape:connector-curvature="0" /><path
       id="path284"
       style="fill:#183654;fill-opacity:1;fill-rule:nonzero;stroke:none"
       d="m 78.346014,721.57908 35.854496,0 0,-7.34001 -35.854496,0 z"
       inkscape:connector-curvature="0" /><path
       id="path286"
       style="fill:#183654;fill-opacity:1;fill-rule:nonzero;stroke:none"
       d="m 34.772617,755.79185 35.85178,0 0,-7.33636 -35.85178,0 z"
       inkscape:connector-curvature="0" /><path
       id="path288"
       style="fill:#183654;fill-opacity:1;fill-rule:nonzero;stroke:none"
       d="m 78.346014,755.79185 35.854496,0 0,-7.33636 -35.854496,0 z"
       inkscape:connector-curvature="0" /><path
       id="path290"
       style="fill:#d0ecec;fill-opacity:1;fill-rule:nonzero;stroke:none"
       d="m 977.9168,800.66177 148.5523,0 0,-236.21259 -148.5523,0 z"
       inkscape:connector-curvature="0" /><path
       id="path292"
       style="fill:#ffffff;fill-opacity:1;fill-rule:nonzero;stroke:none"
       d="m 993.85032,603.36921 22.90938,0 0,-16.41037 -22.90938,0 z"
       inkscape:connector-curvature="0" /><path
       id="path294"
       style="fill:#f1faf8;fill-opacity:1;fill-rule:nonzero;stroke:none"
       d="m 993.85032,627.39303 22.90938,0 0,-16.41036 -22.90938,0 z"
       inkscape:connector-curvature="0" /><path
       id="path296"
       style="fill:#ffffff;fill-opacity:1;fill-rule:nonzero;stroke:none"
       d="m 993.85032,651.41935 22.90938,0 0,-16.41036 -22.90938,0 z"
       inkscape:connector-curvature="0" /><path
       id="path298"
       style="fill:#fbbf58;fill-opacity:1;fill-rule:nonzero;stroke:none"
       d="m 993.85032,675.4438 22.90938,0 0,-16.40673 -22.90938,0 z"
       inkscape:connector-curvature="0" /><path
       id="path300"
       style="fill:#f1faf8;fill-opacity:1;fill-rule:nonzero;stroke:none"
       d="m 993.85032,708.61737 22.90938,0 0,-16.41402 -22.90938,0 z"
       inkscape:connector-curvature="0" /><path
       id="path302"
       style="fill:#ffffff;fill-opacity:1;fill-rule:nonzero;stroke:none"
       d="m 993.85032,732.64027 22.90938,0 0,-16.41038 -22.90938,0 z"
       inkscape:connector-curvature="0" /><path
       id="path304"
       style="fill:#ffffff;fill-opacity:1;fill-rule:nonzero;stroke:none"
       d="m 993.85032,756.66813 22.90938,0 0,-16.41401 -22.90938,0 z"
       inkscape:connector-curvature="0" /><path
       id="path306"
       style="fill:#ffffff;fill-opacity:1;fill-rule:nonzero;stroke:none"
       d="m 993.85032,780.69103 22.90938,0 0,-16.41038 -22.90938,0 z"
       inkscape:connector-curvature="0" /><path
       id="path308"
       style="fill:#fbbf58;fill-opacity:1;fill-rule:nonzero;stroke:none"
       d="m 1025.11,603.36921 22.9094,0 0,-16.41037 -22.9094,0 z"
       inkscape:connector-curvature="0" /><path
       id="path310"
       style="fill:#ffffff;fill-opacity:1;fill-rule:nonzero;stroke:none"
       d="m 1025.11,627.39303 22.9094,0 0,-16.41036 -22.9094,0 z"
       inkscape:connector-curvature="0" /><path
       id="path312"
       style="fill:#ffffff;fill-opacity:1;fill-rule:nonzero;stroke:none"
       d="m 1025.11,651.41935 22.9094,0 0,-16.41036 -22.9094,0 z"
       inkscape:connector-curvature="0" /><path
       id="path314"
       style="fill:#ffffff;fill-opacity:1;fill-rule:nonzero;stroke:none"
       d="m 1025.11,675.4438 22.9094,0 0,-16.40673 -22.9094,0 z"
       inkscape:connector-curvature="0" /><path
       id="path316"
       style="fill:#ffffff;fill-opacity:1;fill-rule:nonzero;stroke:none"
       d="m 1025.11,708.61737 22.9094,0 0,-16.41402 -22.9094,0 z"
       inkscape:connector-curvature="0" /><path
       id="path318"
       style="fill:#f1faf8;fill-opacity:1;fill-rule:nonzero;stroke:none"
       d="m 1025.11,732.64027 22.9094,0 0,-16.41038 -22.9094,0 z"
       inkscape:connector-curvature="0" /><path
       id="path320"
       style="fill:#ffffff;fill-opacity:1;fill-rule:nonzero;stroke:none"
       d="m 1025.11,756.66813 22.9094,0 0,-16.41401 -22.9094,0 z"
       inkscape:connector-curvature="0" /><path
       id="path322"
       style="fill:#fbbf58;fill-opacity:1;fill-rule:nonzero;stroke:none"
       d="m 1025.11,780.69103 22.9094,0 0,-16.41038 -22.9094,0 z"
       inkscape:connector-curvature="0" /><path
       id="path324"
       style="fill:#ffffff;fill-opacity:1;fill-rule:nonzero;stroke:none"
       d="m 1056.3663,603.36921 22.9067,0 0,-16.41037 -22.9067,0 z"
       inkscape:connector-curvature="0" /><path
       id="path326"
       style="fill:#f1faf8;fill-opacity:1;fill-rule:nonzero;stroke:none"
       d="m 1056.3663,627.39303 22.9067,0 0,-16.41036 -22.9067,0 z"
       inkscape:connector-curvature="0" /><path
       id="path328"
       style="fill:#ffffff;fill-opacity:1;fill-rule:nonzero;stroke:none"
       d="m 1056.3663,651.41935 22.9067,0 0,-16.41036 -22.9067,0 z"
       inkscape:connector-curvature="0" /><path
       id="path330"
       style="fill:#f1faf8;fill-opacity:1;fill-rule:nonzero;stroke:none"
       d="m 1056.3663,675.4438 22.9067,0 0,-16.40673 -22.9067,0 z"
       inkscape:connector-curvature="0" /><path
       id="path332"
       style="fill:#ffffff;fill-opacity:1;fill-rule:nonzero;stroke:none"
       d="m 1056.3663,708.61737 22.9067,0 0,-16.41402 -22.9067,0 z"
       inkscape:connector-curvature="0" /><path
       id="path334"
       style="fill:#ffffff;fill-opacity:1;fill-rule:nonzero;stroke:none"
       d="m 1056.3663,732.64027 22.9067,0 0,-16.41038 -22.9067,0 z"
       inkscape:connector-curvature="0" /><path
       id="path336"
       style="fill:#ffffff;fill-opacity:1;fill-rule:nonzero;stroke:none"
       d="m 1056.3663,756.66813 22.9067,0 0,-16.41401 -22.9067,0 z"
       inkscape:connector-curvature="0" /><path
       id="path338"
       style="fill:#ffffff;fill-opacity:1;fill-rule:nonzero;stroke:none"
       d="m 1056.3663,780.69103 22.9067,0 0,-16.41038 -22.9067,0 z"
       inkscape:connector-curvature="0" /><path
       id="path340"
       style="fill:#ffffff;fill-opacity:1;fill-rule:nonzero;stroke:none"
       d="m 1087.6294,603.36921 22.9067,0 0,-16.41037 -22.9067,0 z"
       inkscape:connector-curvature="0" /><path
       id="path342"
       style="fill:#ffffff;fill-opacity:1;fill-rule:nonzero;stroke:none"
       d="m 1087.6294,627.39303 22.9067,0 0,-16.41036 -22.9067,0 z"
       inkscape:connector-curvature="0" /><path
       id="path344"
       style="fill:#fbbf58;fill-opacity:1;fill-rule:nonzero;stroke:none"
       d="m 1087.6294,651.41935 22.9067,0 0,-16.41036 -22.9067,0 z"
       inkscape:connector-curvature="0" /><path
       id="path346"
       style="fill:#f1faf8;fill-opacity:1;fill-rule:nonzero;stroke:none"
       d="m 1087.6294,675.4438 22.9067,0 0,-16.40673 -22.9067,0 z"
       inkscape:connector-curvature="0" /><path
       id="path348"
       style="fill:#fbbf58;fill-opacity:1;fill-rule:nonzero;stroke:none"
       d="m 1087.6294,708.61737 22.9067,0 0,-16.41402 -22.9067,0 z"
       inkscape:connector-curvature="0" /><path
       id="path350"
       style="fill:#ffffff;fill-opacity:1;fill-rule:nonzero;stroke:none"
       d="m 1087.6294,732.64027 22.9067,0 0,-16.41038 -22.9067,0 z"
       inkscape:connector-curvature="0" /><path
       id="path352"
       style="fill:#ffffff;fill-opacity:1;fill-rule:nonzero;stroke:none"
       d="m 1087.6294,756.66813 22.9067,0 0,-16.41401 -22.9067,0 z"
       inkscape:connector-curvature="0" /><path
       id="path354"
       style="fill:#f1faf8;fill-opacity:1;fill-rule:nonzero;stroke:none"
       d="m 1087.6294,780.69103 22.9067,0 0,-16.41038 -22.9067,0 z"
       inkscape:connector-curvature="0" /><path
       id="path356"
       style="fill:#4b5f7c;fill-opacity:1;fill-rule:nonzero;stroke:none"
       d="m 431.13508,801.01097 60.74926,0 0,-41.69279 -60.74926,0 z"
       inkscape:connector-curvature="0" /><path
       id="path358"
       style="fill:#ffffff;fill-opacity:1;fill-rule:nonzero;stroke:none"
       d="m 473.6731,787.05865 11.49908,0 0,-10.55734 -11.49908,0 z"
       inkscape:connector-curvature="0" /><path
       id="path360"
       style="fill:#ffffff;fill-opacity:1;fill-rule:nonzero;stroke:none"
       d="m 456.85062,787.05865 11.49907,0 0,-10.55734 -11.49907,0 z"
       inkscape:connector-curvature="0" /><path
       id="path362"
       style="fill:#ffffff;fill-opacity:1;fill-rule:nonzero;stroke:none"
       d="m 440.02474,787.05865 11.50172,0 0,-10.55734 -11.50172,0 z"
       inkscape:connector-curvature="0" /><path
       id="path364"
       style="fill:#f89f21;fill-opacity:1;fill-rule:nonzero;stroke:none"
       d="m 514.61302,801.12655 99.73686,0 0,-119.44658 -99.73686,0 z"
       inkscape:connector-curvature="0" /><path
       id="path366"
       style="fill:#4b5f7c;fill-opacity:1;fill-rule:nonzero;stroke:none"
       d="m 551.47456,801.12655 26.01344,0 0,-33.84301 -26.01344,0 z"
       inkscape:connector-curvature="0" /><path
       id="path368"
       style="fill:#f89f21;fill-opacity:1;fill-rule:nonzero;stroke:none"
       d="m 692.40954,801.12655 99.74738,0 0,-119.44658 -99.74738,0 z"
       inkscape:connector-curvature="0" /><path
       id="path370"
       style="fill:#4b5f7c;fill-opacity:1;fill-rule:nonzero;stroke:none"
       d="m 729.27447,801.12655 26.02138,0 0,-33.84301 -26.02138,0 z"
       inkscape:connector-curvature="0" /><path
       id="path372"
       style="fill:#fbbf58;fill-opacity:1;fill-rule:nonzero;stroke:none"
       d="m 603.50959,801.12655 99.74737,0 0,-171.20777 -99.74737,0 z"
       inkscape:connector-curvature="0" /><path
       id="path374"
       style="fill:#fad58d;fill-opacity:1;fill-rule:nonzero;stroke:none"
       d="m 531.95803,755.34421 21.68472,0 0,-27.87184 -21.68472,0 z"
       inkscape:connector-curvature="0" /><path
       id="path376"
       style="fill:#fad58d;fill-opacity:1;fill-rule:nonzero;stroke:none"
       d="m 575.32055,755.34421 21.68473,0 0,-27.87184 -21.68473,0 z"
       inkscape:connector-curvature="0" /><path
       id="path378"
       style="fill:#ffffff;fill-opacity:1;fill-rule:nonzero;stroke:none"
       d="m 531.95803,719.50441 21.68472,0 0,-27.87185 -21.68472,0 z"
       inkscape:connector-curvature="0" /><path
       id="path380"
       style="fill:#ffffff;fill-opacity:1;fill-rule:nonzero;stroke:none"
       d="m 575.32055,719.50441 21.68473,0 0,-27.87185 -21.68473,0 z"
       inkscape:connector-curvature="0" /><path
       id="path382"
       style="fill:#ffffff;fill-opacity:1;fill-rule:nonzero;stroke:none"
       d="m 709.75455,755.34421 21.68869,0 0,-27.87184 -21.68869,0 z"
       inkscape:connector-curvature="0" /><path
       id="path384"
       style="fill:#ffffff;fill-opacity:1;fill-rule:nonzero;stroke:none"
       d="m 753.12386,755.34421 21.68204,0 0,-27.87184 -21.68204,0 z"
       inkscape:connector-curvature="0" /><path
       id="path386"
       style="fill:#ffffff;fill-opacity:1;fill-rule:nonzero;stroke:none"
       d="m 709.75455,719.50441 21.68869,0 0,-27.87185 -21.68869,0 z"
       inkscape:connector-curvature="0" /><path
       id="path388"
       style="fill:#fce9c2;fill-opacity:1;fill-rule:nonzero;stroke:none"
       d="m 753.12386,719.50441 21.68204,0 0,-27.87185 -21.68204,0 z"
       inkscape:connector-curvature="0" /><path
       id="path390"
       style="fill:#ffffff;fill-opacity:1;fill-rule:nonzero;stroke:none"
       d="m 620.85799,682.01703 21.68204,0 0,-27.87428 -21.68204,0 z"
       inkscape:connector-curvature="0" /><path
       id="path392"
       style="fill:#ffffff;fill-opacity:1;fill-rule:nonzero;stroke:none"
       d="m 664.2239,682.01703 21.68072,0 0,-27.87428 -21.68072,0 z"
       inkscape:connector-curvature="0" /><path
       id="path394"
       style="fill:#ffffff;fill-opacity:1;fill-rule:nonzero;stroke:none"
       d="m 620.85799,755.34421 21.68204,0 0,-27.87184 -21.68204,0 z"
       inkscape:connector-curvature="0" /><path
       id="path396"
       style="fill:#ffffff;fill-opacity:1;fill-rule:nonzero;stroke:none"
       d="m 664.2239,755.34421 21.68072,0 0,-27.87184 -21.68072,0 z"
       inkscape:connector-curvature="0" /><path
       id="path398"
       style="fill:#fcd790;fill-opacity:1;fill-rule:nonzero;stroke:none"
       d="m 620.85799,719.50441 21.68204,0 0,-27.87185 -21.68204,0 z"
       inkscape:connector-curvature="0" /><path
       id="path400"
       style="fill:#ffffff;fill-opacity:1;fill-rule:nonzero;stroke:none"
       d="m 664.2239,719.50441 21.68072,0 0,-27.87185 -21.68072,0 z"
       inkscape:connector-curvature="0" /><path
       id="path402"
       style="fill:#4b5f7c;fill-opacity:1;fill-rule:nonzero;stroke:none"
       d="m 640.36773,801.12655 26.02535,0 0,-33.84301 -26.02535,0 z"
       inkscape:connector-curvature="0" /><path
       id="path630"
       style="fill:#6bc6c0;fill-opacity:1;fill-rule:nonzero;stroke:none"
       d="m 172.65034,604.96726 12.56071,0 0,-10.4612 -12.56071,0 z"
       inkscape:connector-curvature="0" /><path
       id="path632"
       style="fill:#6bc6c0;fill-opacity:1;fill-rule:nonzero;stroke:none"
       d="m 247.17043,604.96726 12.56203,0 0,-10.4612 -12.56203,0 z"
       inkscape:connector-curvature="0" /><path
       id="path4561"
       d="m 613.68387,400.88297 c -6.23167,0 -11.56594,3.52534 -13.77531,8.51846 -1.19594,-0.52755 -2.5394,-0.82308 -3.95417,-0.82308 -4.65351,0 -8.49922,3.18072 -9.09444,7.30525 l -0.87203,0 c -0.0523,0.36502 -0.0785,0.73847 -0.0785,1.11682 l 0.0267,0.61043 c -6.76768,0.53022 -12.08805,5.73839 -12.08805,12.08771 l 77.22256,0 c 0.0407,-0.49824 0.0718,-1.0015 0.0718,-1.51307 0,-4.70803 -1.89231,-9.01133 -5.01496,-12.30189 l 0.87368,0 c -3.74312,-3.94601 -9.25512,-6.43934 -15.40408,-6.43934 -1.35702,0 -2.67974,0.12161 -3.9642,0.35341 -2.09734,-5.20628 -7.55195,-8.9147 -13.94904,-8.9147 z"
       style="display:inline;opacity:1;fill:#f2f9fa;fill-opacity:1;fill-rule:nonzero;stroke:none"
       inkscape:connector-curvature="0" /><path
       inkscape:connector-curvature="0"
       style="display:inline;opacity:1;fill:#f8fdfd;fill-opacity:1;fill-rule:nonzero;stroke:none"
       d="m 536.96755,397.66175 c -8.84401,0 -16.41443,5.00317 -19.54997,12.08943 -1.69729,-0.7487 -3.60393,-1.16812 -5.61178,-1.16812 -6.60428,0 -12.06212,4.5141 -12.90687,10.36764 l -1.23758,0 c -0.0742,0.51804 -0.11143,1.04804 -0.11143,1.585 l 0.0379,0.86632 c -9.60472,0.7525 -17.15541,8.14395 -17.15541,17.15493 l 109.59456,0 c 0.0577,-0.70711 0.10196,-1.42134 0.10196,-2.14735 0,-6.68166 -2.68558,-12.78892 -7.11726,-17.4589 l 1.23994,0 c -5.31225,-5.60019 -13.13491,-9.13873 -21.86153,-9.13873 -1.92589,0 -3.8031,0.17259 -5.62601,0.50156 -2.97656,-7.38877 -10.71776,-12.65178 -19.79654,-12.65178 z"
       id="path4353" /></g></svg>