<?xml version="1.0" encoding="UTF-8" standalone="no"?>
<!-- Created with Inkscape (http://www.inkscape.org/) -->

<svg
   xmlns:dc="http://purl.org/dc/elements/1.1/"
   xmlns:cc="http://creativecommons.org/ns#"
   xmlns:rdf="http://www.w3.org/1999/02/22-rdf-syntax-ns#"
   xmlns:svg="http://www.w3.org/2000/svg"
   xmlns="http://www.w3.org/2000/svg"
   xmlns:sodipodi="http://sodipodi.sourceforge.net/DTD/sodipodi-0.dtd"
   xmlns:inkscape="http://www.inkscape.org/namespaces/inkscape"
   width="150"
   height="150"
   id="svg2"
   version="1.1"
   inkscape:version="0.48.5 r10040"
   sodipodi:docname="logo7.svg">
  <defs
     id="defs4">
    <inkscape:path-effect
       is_visible="true"
       id="path-effect3867"
       effect="spiro" />
    <inkscape:path-effect
       effect="spiro"
       id="path-effect3863"
       is_visible="true" />
  </defs>
  <sodipodi:namedview
     id="base"
     pagecolor="#ffffff"
     bordercolor="#666666"
     borderopacity="1.0"
     inkscape:pageopacity="0.0"
     inkscape:pageshadow="2"
     inkscape:zoom="1.979899"
     inkscape:cx="86.473922"
     inkscape:cy="80.816171"
     inkscape:document-units="px"
     inkscape:current-layer="layer1"
     showgrid="false"
     showguides="true"
     inkscape:guide-bbox="true"
     inkscape:window-width="1366"
     inkscape:window-height="666"
     inkscape:window-x="0"
     inkscape:window-y="0"
     inkscape:window-maximized="1" />
  <metadata
     id="metadata7">
    <rdf:RDF>
      <cc:Work
         rdf:about="">
        <dc:format>image/svg+xml</dc:format>
        <dc:type
           rdf:resource="http://purl.org/dc/dcmitype/StillImage" />
        <dc:title></dc:title>
      </cc:Work>
    </rdf:RDF>
  </metadata>
  <g
     inkscape:label="Layer 1"
     inkscape:groupmode="layer"
     id="layer1"
     transform="translate(0,-902.36218)">
    <g
       id="g3876"
       transform="matrix(0.41309441,0,0,0.41309441,-69.12039,788.79667)">
      <path
         transform="matrix(0.99999843,0.00177015,0.00177015,-0.99999843,-34.1592,1229.6932)"
         sodipodi:end="9.4339434"
         sodipodi:start="6.2820834"
         d="m 547.14275,655.03985 c 0.0991,89.94346 -72.73413,162.93739 -162.67759,163.0365 -89.94347,0.0991 -162.93739,-72.73413 -163.0365,-162.6776 -6.2e-4,-0.55737 0.002,-1.11474 0.007,-1.67209 l 162.85031,1.49264 z"
         sodipodi:ry="162.85715"
         sodipodi:rx="162.85715"
         sodipodi:cy="655.2193"
         sodipodi:cx="384.28571"
         id="path2985"
         style="fill:#800080;fill-opacity:1;stroke:none"
         sodipodi:type="arc" />
      <path
         inkscape:connector-curvature="0"
         id="path3003"
         d="m 175.68519,345.37504 11.55516,85.35506 10.70576,81.63208 c 22.80511,-56.67965 75.9526,-96.06998 136.8702,-101.34038 l -79.54608,-32.63109 -79.58504,-33.01567 z"
         style="fill:#800080;fill-opacity:1;stroke:none" />
      <path
         style="fill:#800080;fill-opacity:1;stroke:none"
         d="m 522.81505,342.28314 -78.68129,35.04658 -75.34633,33.18645 c 60.80203,5.98071 113.52558,45.9367 135.68137,102.92663 l 8.99403,-85.50716 9.35222,-85.6525 z"
         id="path3005"
         inkscape:connector-curvature="0" />
      <path
         inkscape:connector-curvature="0"
         id="path3871"
         d="m 348.76339,558.08929 c -18.43825,0.51423 -33.31898,8.28307 -35.03125,18.09375 l 35.5625,-0.3125 38.34375,0.0312 c -2.05374,-10.13654 -17.97642,-17.82377 -36.96875,-17.8125 -0.64104,3.8e-4 -1.27322,-0.0177 -1.90625,0 z"
         style="fill:#ffffff;fill-opacity:1;stroke:none" />
      <path
         transform="matrix(0.66666668,0,0,0.66666668,115.95238,206.02548)"
         sodipodi:end="12.558428"
         sodipodi:start="6.2820834"
         d="m 367.14286,531.27542 c 0.008,7.69254 -6.22068,13.93544 -13.91322,13.94391 -7.69253,0.008 -13.93543,-6.22068 -13.94391,-13.91321 -0.008,-7.69253 6.22068,-13.93544 13.91322,-13.94391 7.65535,-0.008 13.88267,6.16282 13.94348,13.81793 l -13.92814,0.11063 z"
         sodipodi:ry="13.928572"
         sodipodi:rx="13.928572"
         sodipodi:cy="531.29077"
         sodipodi:cx="353.21429"
         id="path3855"
         style="fill:#2b0000;fill-opacity:1;stroke:none"
         sodipodi:type="arc" />
      <path
         sodipodi:type="arc"
         style="fill:#2b0000;fill-opacity:1;stroke:none"
         id="path3857"
         sodipodi:cx="353.21429"
         sodipodi:cy="531.29077"
         sodipodi:rx="13.928572"
         sodipodi:ry="13.928572"
         d="m 367.14286,531.27542 c 0.008,7.69254 -6.22068,13.93544 -13.91322,13.94391 -7.69253,0.008 -13.93543,-6.22068 -13.94391,-13.91321 -0.008,-7.69253 6.22068,-13.93544 13.91322,-13.94391 7.65535,-0.008 13.88267,6.16282 13.94348,13.81793 l -13.92814,0.11063 z"
         sodipodi:start="6.2820834"
         sodipodi:end="12.558428"
         transform="matrix(0.66666668,0,0,0.66666668,57.380947,180.31119)" />
      <path
         transform="matrix(0.66666668,0,0,0.66666668,172.38095,178.16833)"
         sodipodi:end="12.558428"
         sodipodi:start="6.2820834"
         d="m 367.14286,531.27542 c 0.008,7.69254 -6.22068,13.93544 -13.91322,13.94391 -7.69253,0.008 -13.93543,-6.22068 -13.94391,-13.91321 -0.008,-7.69253 6.22068,-13.93544 13.91322,-13.94391 7.65535,-0.008 13.88267,6.16282 13.94348,13.81793 l -13.92814,0.11063 z"
         sodipodi:ry="13.928572"
         sodipodi:rx="13.928572"
         sodipodi:cy="531.29077"
         sodipodi:cx="353.21429"
         id="path3859"
         style="fill:#2b0000;fill-opacity:1;stroke:none"
         sodipodi:type="arc" />
      <path
         inkscape:connector-curvature="0"
         inkscape:original-d="M 268.485,558.94327 200.80072,531.73433"
         inkscape:path-effect="#path-effect3863"
         id="path3861"
         d="M 268.485,558.94327 200.80072,531.73433"
         style="fill:none;stroke:#000000;stroke-width:1.17285919px;stroke-linecap:butt;stroke-linejoin:miter;stroke-opacity:1" />
      <path
         style="fill:none;stroke:#000000;stroke-width:1.17285919px;stroke-linecap:butt;stroke-linejoin:miter;stroke-opacity:1"
         d="M 268.485,570.84718 200.80072,543.63824"
         id="path3865"
         inkscape:path-effect="#path-effect3867"
         inkscape:original-d="M 268.485,570.84718 200.80072,543.63824"
         inkscape:connector-curvature="0" />
    </g>
  </g>
</svg>
