<?xml version="1.0" encoding="UTF-8" standalone="no"?>
<svg
   xmlns:dc="http://purl.org/dc/elements/1.1/"
   xmlns:cc="http://creativecommons.org/ns#"
   xmlns:rdf="http://www.w3.org/1999/02/22-rdf-syntax-ns#"
   xmlns:svg="http://www.w3.org/2000/svg"
   xmlns="http://www.w3.org/2000/svg"
   xmlns:xlink="http://www.w3.org/1999/xlink"
   xmlns:sodipodi="http://sodipodi.sourceforge.net/DTD/sodipodi-0.dtd"
   xmlns:inkscape="http://www.inkscape.org/namespaces/inkscape"
   viewBox="0 0 400 425.41101"
   height="425.41101"
   width="400"
   xml:space="preserve"
   id="svg2"
   version="1.1"
   inkscape:version="0.91 r13725"
   sodipodi:docname="no1.svg"><sodipodi:namedview
     pagecolor="#ffffff"
     bordercolor="#666666"
     borderopacity="1"
     objecttolerance="10"
     gridtolerance="10"
     guidetolerance="10"
     inkscape:pageopacity="0"
     inkscape:pageshadow="2"
     inkscape:window-width="1366"
     inkscape:window-height="666"
     id="namedview4304"
     showgrid="false"
     inkscape:zoom="0.45384615"
     inkscape:cx="561.36431"
     inkscape:cy="2.4657381"
     inkscape:window-x="0"
     inkscape:window-y="0"
     inkscape:window-maximized="1"
     inkscape:current-layer="svg2"
     showguides="true"
     inkscape:guide-bbox="true" /><metadata
     id="metadata8"><rdf:RDF><cc:Work
         rdf:about=""><dc:format>image/svg+xml</dc:format><dc:type
           rdf:resource="http://purl.org/dc/dcmitype/StillImage" /><dc:title></dc:title></cc:Work></rdf:RDF></metadata><defs
     id="defs6"><linearGradient
       inkscape:collect="always"
       id="linearGradient4588"><stop
         style="stop-color:#565656;stop-opacity:1;"
         offset="0"
         id="stop4590" /><stop
         style="stop-color:#565656;stop-opacity:0;"
         offset="1"
         id="stop4592" /></linearGradient><linearGradient
       inkscape:collect="always"
       xlink:href="#linearGradient4588"
       id="linearGradient4594"
       x1="329.43665"
       y1="531.22864"
       x2="476.77029"
       y2="533.38757"
       gradientUnits="userSpaceOnUse"
       gradientTransform="matrix(0.53096036,0.84739666,-0.84739666,0.53096036,411.67328,-419.3277)" /></defs><g
     inkscape:groupmode="layer"
     id="layer3"
     inkscape:label="レイヤー"
     style="display:none"
     transform="translate(0,-614.58904)" /><g
     inkscape:groupmode="layer"
     id="layer4"
     inkscape:label="レイヤー#1"
     style="display:inline"
     transform="translate(0,-614.58904)" /><flowRoot
     xml:space="preserve"
     id="flowRoot12579"
     style="font-style:normal;font-weight:normal;font-size:40px;line-height:125%;font-family:sans-serif;letter-spacing:0px;word-spacing:0px;fill:#000000;fill-opacity:1;stroke:none"
     transform="translate(0,-614.58905)"><flowRegion
       id="flowRegion12581"><rect
         id="rect12583"
         width="1124.899"
         height="994.02435"
         x="697.99829"
         y="535.19769" /></flowRegion><flowPara
       id="flowPara12585" /></flowRoot><g
     id="layer1"
     inkscape:label="レイヤー"
     style="display:none"
     transform="matrix(7.3865926,0,0,7.3865926,1712.3145,-436.44186)" /><g
     id="layer2"
     inkscape:label="レイヤー#1"
     style="display:inline"
     transform="matrix(7.3865926,0,0,7.3865926,1712.3145,-436.44186)" /><flowRoot
     xml:space="preserve"
     id="flowRoot12571"
     style="font-style:normal;font-weight:normal;font-size:40px;line-height:125%;font-family:sans-serif;letter-spacing:0px;word-spacing:0px;fill:#000000;fill-opacity:1;stroke:none"
     transform="matrix(7.3865926,0,0,7.3865926,1712.3145,-436.44186)"><flowRegion
       id="flowRegion12573"><rect
         id="rect12575"
         width="141.28352"
         height="119.25288"
         x="77.586205"
         y="40.229885" /></flowRegion><flowPara
       id="flowPara12577" /></flowRoot><g
     id="g4613"
     transform="matrix(1.2699536,0,0,1.2699536,-3.7436176,-0.98720549)"><path
       sodipodi:nodetypes="ccccc"
       inkscape:connector-curvature="0"
       id="rect3762"
       d="M 220.32419,47.406209 317.91997,219.89804 145.00663,335.75888 12.251934,177.77977 Z"
       style="opacity:0.27843137;fill:url(#linearGradient4594);fill-opacity:1;stroke:none;stroke-width:1.59033811;stroke-linecap:round;stroke-linejoin:round;stroke-miterlimit:4;stroke-dasharray:none;stroke-opacity:1" /><g
       transform="translate(1.1017,-1.101694)"
       id="g3750"><ellipse
         ry="121.28733"
         rx="121.28439"
         cy="123.16654"
         cx="123.13053"
         id="ellipse3752"
         style="fill:#5bc3b5;fill-opacity:1;stroke:none;stroke-width:3.69227934;stroke-miterlimit:4;stroke-dasharray:none;stroke-opacity:1" /><g
         style="stroke:none"
         transform="matrix(0.61537242,0,0,0.61538734,-675.00547,-673.63237)"
         id="g3754"><path
           style="fill:#565656;fill-opacity:1;stroke:none"
           d="m 1297.0122,1097.7144 c -108.8432,0 -197.0938,88.2506 -197.0938,197.0938 0,81.8856 49.9464,152.1141 121.0312,181.875 0.1852,-3.2273 0.2962,-6.1311 0.063,-8.375 -3.295,-31.8253 -7.946,-69.9674 2.8437,-101.4688 22.2271,20.291 56.8441,20.9923 92.75,8.8438 17.3312,-5.864 32.4965,-11.8918 43.7813,-22 14.8552,32.8975 9.624,79.9925 6.0312,114.625 -0.2911,2.8276 -0.055,6.6434 0.2188,10.9062 74.4762,-28.1373 127.4374,-100.0792 127.4374,-184.4062 0,-108.8432 -88.2193,-197.0938 -197.0624,-197.0938 z"
           id="path3756"
           inkscape:connector-curvature="0" /><path
           style="fill:#565656;fill-opacity:1;stroke:none"
           d="m 1334.7493,1488.8706 c 1.2055,-9.5535 3.5003,-19.1541 1.8125,-28.5 -1.4668,-8.0121 -6.8174,-17.0641 -16.8438,-18.8437 -5.8042,-1.0276 -14.0178,-2.4354 -22.7187,-3.1875 -8.701,0.7521 -16.9382,2.1599 -22.75,3.1875 -10.0189,1.7796 -15.3493,10.8204 -16.8125,18.8437 -1.6156,8.9238 0.3879,18.0679 1.625,27.1876 13.2945,2.8292 27.0806,4.3124 41.2188,4.3124 11.7631,0 23.2723,-1.0241 34.4687,-3 z"
           id="path3758"
           inkscape:connector-curvature="0" /><path
           style="fill:#5bc3b5;fill-opacity:1;stroke:none"
           d="m 1299.7603,1165.9956 c 14.3133,0.3698 31.5097,45.7813 31.5,45.7813 64.9351,37.086 60.6477,118.8109 -7.9062,148.7187 -49.4507,21.5905 -101.1447,20.6789 -121,-38.1874 -3.9727,-11.7651 -4.4309,-23.9459 -3.3438,-36.1876 0.2867,-3.1944 4.5797,-16.4652 3.5,-19.0937 -0.037,-0.052 -15.1262,-48.1657 -9.75,-52.4063 3.6711,-2.904 22.408,9.5137 41.1875,28.2188 2.6546,2.6509 56.2334,-19.7508 56.5313,-24.5312 0.026,-0.2904 2.9321,-51.2606 7.9062,-52.1876 0.455,-0.085 0.9133,-0.1369 1.375,-0.125 z"
           id="path3760"
           inkscape:connector-curvature="0" /></g></g></g></svg>