<?xml version="1.0" encoding="UTF-8" standalone="no"?>
<svg
   xmlns:dc="http://purl.org/dc/elements/1.1/"
   xmlns:cc="http://creativecommons.org/ns#"
   xmlns:rdf="http://www.w3.org/1999/02/22-rdf-syntax-ns#"
   xmlns:svg="http://www.w3.org/2000/svg"
   xmlns="http://www.w3.org/2000/svg"
   xmlns:sodipodi="http://sodipodi.sourceforge.net/DTD/sodipodi-0.dtd"
   xmlns:inkscape="http://www.inkscape.org/namespaces/inkscape"
   viewBox="0 0 246.30001 246.3"
   height="246.3"
   width="246.3"
   xml:space="preserve"
   id="svg2"
   version="1.1"
   inkscape:version="0.91 r13725"
   sodipodi:docname="no2.svg"><sodipodi:namedview
     pagecolor="#ffffff"
     bordercolor="#666666"
     borderopacity="1"
     objecttolerance="10"
     gridtolerance="10"
     guidetolerance="10"
     inkscape:pageopacity="0"
     inkscape:pageshadow="2"
     inkscape:window-width="1366"
     inkscape:window-height="666"
     id="namedview4304"
     showgrid="false"
     inkscape:zoom="0.64183538"
     inkscape:cx="178.0271"
     inkscape:cy="100.52681"
     inkscape:window-x="0"
     inkscape:window-y="0"
     inkscape:window-maximized="1"
     inkscape:current-layer="svg2"
     showguides="true"
     inkscape:guide-bbox="true" /><metadata
     id="metadata8"><rdf:RDF><cc:Work
         rdf:about=""><dc:format>image/svg+xml</dc:format><dc:type
           rdf:resource="http://purl.org/dc/dcmitype/StillImage" /><dc:title></dc:title></cc:Work></rdf:RDF></metadata><defs
     id="defs6" /><g
     inkscape:groupmode="layer"
     id="layer3"
     inkscape:label="レイヤー"
     style="display:none"
     transform="translate(0,-793.70003)" /><g
     inkscape:groupmode="layer"
     id="layer4"
     inkscape:label="レイヤー#1"
     style="display:inline"
     transform="translate(0,-793.70003)" /><flowRoot
     xml:space="preserve"
     id="flowRoot12579"
     style="font-style:normal;font-weight:normal;font-size:40px;line-height:125%;font-family:sans-serif;letter-spacing:0px;word-spacing:0px;fill:#000000;fill-opacity:1;stroke:none"
     transform="translate(0,-793.70004)"><flowRegion
       id="flowRegion12581"><rect
         id="rect12583"
         width="1124.899"
         height="994.02435"
         x="697.99829"
         y="535.19769" /></flowRegion><flowPara
       id="flowPara12585" /></flowRoot><g
     id="layer1"
     inkscape:label="レイヤー"
     style="display:none"
     transform="matrix(7.3865926,0,0,7.3865926,1712.3145,-615.55285)" /><g
     id="layer2"
     inkscape:label="レイヤー#1"
     style="display:inline"
     transform="matrix(7.3865926,0,0,7.3865926,1712.3145,-615.55285)" /><g
     id="g6761"><ellipse
       ry="121.28733"
       rx="121.28439"
       cy="123.16654"
       cx="123.13053"
       id="path12493"
       style="fill:#5bc3b5;fill-opacity:1;stroke:none;stroke-width:3.69227934;stroke-miterlimit:4;stroke-dasharray:none;stroke-opacity:1" /><path
       sodipodi:nodetypes="sscccscccsss"
       inkscape:connector-curvature="0"
       id="path12511"
       d="M 123.14007,1.8871747 C 56.160963,1.8871747 1.8539776,56.195477 1.8539776,123.1762 c 0,50.39137 30.7356374,93.6091 74.4792624,111.92358 0.113967,-1.98604 0.182273,-3.773 0.03877,-5.15387 -2.027653,-19.58489 -6.105529,-44.98502 0.534155,-64.37059 13.363373,7.23421 27.538905,16.77424 56.733545,9.70739 15.83343,-3.83264 21.55547,-9.65512 28.49983,-15.87558 9.14148,20.24471 5.92234,49.22638 3.71143,70.53878 -0.17913,1.74007 -0.0338,4.08826 0.13465,6.71153 45.8306,-17.31533 78.42146,-61.58747 78.42146,-113.48124 0,-66.980723 -54.28773,-121.2890253 -121.26677,-121.2890253 z"
       style="fill:#565656;fill-opacity:1;stroke:none" /><path
       inkscape:connector-curvature="0"
       id="path12507"
       d="m 146.36244,242.59975 c 0.74183,-5.8791 2.15398,-11.78719 1.11536,-17.53854 -0.90263,-4.93055 -4.19524,-10.50103 -10.36521,-11.59618 -3.57175,-0.63237 -8.62617,-1.49871 -13.98046,-1.96154 -5.35436,0.46283 -10.4233,1.32917 -13.99972,1.96154 -6.16536,1.09515 -9.44554,6.65874 -10.345953,11.59618 -0.994196,5.49159 0.238703,11.11876 0.99998,16.7309 8.181073,1.74106 16.664653,2.6538 25.364913,2.6538 7.23869,0 14.32113,-0.63022 21.21109,-1.84616 z"
       style="fill:#565656;fill-opacity:1;stroke:none" /><path
       inkscape:connector-curvature="0"
       id="path12496"
       d="m 163.31105,64.949541 c 7.05613,5.276729 -0.46098,34.197931 -0.46586,34.194476 19.41701,41.720233 -11.80501,81.235813 -56.86849,71.871283 -32.512097,-6.74656 -58.146864,-25.59112 -47.17918,-62.21477 2.189817,-7.32123 6.292353,-13.601135 11.192556,-19.362 1.280189,-1.502167 8.156332,-6.639537 8.549088,-8.343554 -1.21e-4,-0.03926 9.536344,-29.567953 13.744447,-29.78526 2.876439,-0.152573 7.868589,12.747766 10.645759,28.820658 0.39013,2.275427 35.26376,10.082931 37.11372,7.78828 0.11635,-0.136569 19.70547,-24.699098 22.53302,-23.395409 0.25873,0.119153 0.50731,0.256091 0.73494,0.426291 z"
       style="fill:#5bc3b5;fill-opacity:1;stroke:none" /></g><flowRoot
     xml:space="preserve"
     id="flowRoot12571"
     style="font-style:normal;font-weight:normal;font-size:40px;line-height:125%;font-family:sans-serif;letter-spacing:0px;word-spacing:0px;fill:#000000;fill-opacity:1;stroke:none"
     transform="matrix(7.3865926,0,0,7.3865926,1712.3145,-615.55285)"><flowRegion
       id="flowRegion12573"><rect
         id="rect12575"
         width="141.28352"
         height="119.25288"
         x="77.586205"
         y="40.229885" /></flowRegion><flowPara
       id="flowPara12577" /></flowRoot></svg>