<?xml version="1.0" encoding="UTF-8" standalone="no"?>
<svg
   xmlns:dc="http://purl.org/dc/elements/1.1/"
   xmlns:cc="http://creativecommons.org/ns#"
   xmlns:rdf="http://www.w3.org/1999/02/22-rdf-syntax-ns#"
   xmlns:svg="http://www.w3.org/2000/svg"
   xmlns="http://www.w3.org/2000/svg"
   viewBox="0 0 666.66669 666.66669"
   height="666.66669"
   width="666.66669"
   xml:space="preserve"
   id="svg2"
   version="1.1"><metadata
     id="metadata8"><rdf:RDF><cc:Work
         rdf:about=""><dc:format>image/svg+xml</dc:format><dc:type
           rdf:resource="http://purl.org/dc/dcmitype/StillImage" /></cc:Work></rdf:RDF></metadata><defs
     id="defs6" /><g
     transform="matrix(1.3333333,0,0,-1.3333333,0,666.66667)"
     id="g10"><g
       transform="scale(0.1)"
       id="g12"><path
         id="path14"
         style="fill:#5fc7d0;fill-opacity:1;fill-rule:nonzero;stroke:none"
         d="M 0,0 H 5000 V 5000 H 0 Z" /><path
         id="path16"
         style="fill:#2fabb8;fill-opacity:1;fill-rule:nonzero;stroke:none"
         d="m 2498.64,2661.29 -31.07,16.34 -31.08,-16.34 5.94,34.61 -25.16,24.49 34.75,5.05 15.55,31.48 15.53,-31.48 34.74,-5.05 -25.14,-24.49 5.94,-34.61" /><path
         id="path18"
         style="fill:#ffffff;fill-opacity:1;fill-rule:nonzero;stroke:none"
         d="m 2334.22,2850.25 15.54,-31.48 34.75,-5.05 -25.15,-24.49 5.94,-34.61 -31.08,16.34 -31.07,-16.34 5.94,34.61 -25.15,24.49 34.75,5.05 15.53,31.48" /><path
         id="path20"
         style="fill:#2fabb8;fill-opacity:1;fill-rule:nonzero;stroke:none"
         d="m 362.855,2042.96 -31.074,16.34 -31.074,-16.34 5.938,34.61 -25.157,24.49 34.746,5.05 15.547,31.48 15.528,-31.48 34.746,-5.05 -25.137,-24.49 5.937,-34.61" /><path
         id="path22"
         style="fill:#ffffff;fill-opacity:1;fill-rule:nonzero;stroke:none"
         d="m 198.441,2231.92 15.539,-31.48 34.747,-5.05 -25.149,-24.49 5.938,-34.61 -31.075,16.34 -31.074,-16.34 5.938,34.61 -25.145,24.49 34.746,5.05 15.535,31.48" /><path
         id="path24"
         style="fill:#2fabb8;fill-opacity:1;fill-rule:nonzero;stroke:none"
         d="m 804.027,3952.57 -52.519,27.62 -52.52,-27.62 10.032,58.5 -42.52,41.39 58.73,8.54 26.278,53.21 26.242,-53.21 58.73,-8.54 -42.492,-41.39 10.039,-58.5" /><path
         id="path26"
         style="fill:#ffffff;fill-opacity:1;fill-rule:nonzero;stroke:none"
         d="m 526.129,4271.96 26.258,-53.21 58.73,-8.54 -42.5,-41.39 10.039,-58.5 -52.527,27.61 -52.52,-27.61 10.028,58.5 -42.5,41.39 58.73,8.54 26.262,53.21" /><path
         id="path28"
         style="fill:#2fabb8;fill-opacity:1;fill-rule:nonzero;stroke:none"
         d="m 4662.87,3034.87 -33.28,17.5 -33.29,-17.5 6.36,37.07 -26.94,26.23 37.21,5.41 16.66,33.72 16.62,-33.72 37.23,-5.41 -26.93,-26.23 6.36,-37.07" /><path
         id="path30"
         style="fill:#ffffff;fill-opacity:1;fill-rule:nonzero;stroke:none"
         d="m 4486.76,3237.27 16.64,-33.72 37.23,-5.41 -26.94,-26.23 6.35,-37.07 -33.28,17.5 -33.28,-17.5 6.36,37.07 -26.94,26.23 37.22,5.41 16.64,33.72" /><path
         id="path32"
         style="fill:#2fabb8;fill-opacity:1;fill-rule:nonzero;stroke:none"
         d="m 4059.53,4546.28 -33.28,17.5 -33.29,-17.5 6.36,37.07 -26.94,26.23 37.21,5.41 16.66,33.72 16.62,-33.72 37.23,-5.41 -26.93,-26.23 6.36,-37.07" /><path
         id="path34"
         style="fill:#ffffff;fill-opacity:1;fill-rule:nonzero;stroke:none"
         d="m 3883.42,4748.68 16.64,-33.72 37.23,-5.41 -26.94,-26.23 6.35,-37.07 -33.28,17.5 -33.28,-17.5 6.36,37.07 -26.94,26.23 37.22,5.41 16.64,33.72" /><path
         id="path36"
         style="fill:#2fabb8;fill-opacity:1;fill-rule:nonzero;stroke:none"
         d="m 2262.96,1637.52 -33.28,17.5 -33.29,-17.5 6.35,37.07 -26.93,26.23 37.21,5.41 16.66,33.72 16.62,-33.72 37.22,-5.41 -26.92,-26.23 6.36,-37.07" /><path
         id="path38"
         style="fill:#ffffff;fill-opacity:1;fill-rule:nonzero;stroke:none"
         d="m 2086.85,1839.92 16.64,-33.72 37.22,-5.41 -26.93,-26.23 6.35,-37.07 -33.28,17.5 -33.29,-17.5 6.37,37.07 -26.94,26.23 37.22,5.41 16.64,33.72" /><path
         id="path40"
         style="fill:#ffffff;fill-opacity:1;fill-rule:nonzero;stroke:none"
         d="m 3276.72,4561.15 -2.38,-2.73 c 5.37,-4.71 10.59,-9.67 15.53,-14.79 l 2.61,2.52 c -5,5.2 -10.31,10.24 -15.76,15" /><path
         id="path42"
         style="fill:#ffffff;fill-opacity:1;fill-rule:nonzero;stroke:none"
         d="m 3221.96,4142.42 1.63,-3.22 c 6.47,3.24 12.86,6.84 18.99,10.62 l -1.92,3.09 c -6.03,-3.73 -12.32,-7.27 -18.7,-10.49" /><path
         id="path44"
         style="fill:#ffffff;fill-opacity:1;fill-rule:nonzero;stroke:none"
         d="m 3258.42,4164.94 2.16,-2.91 c 5.79,4.28 11.48,8.89 16.9,13.67 l -2.4,2.74 c -5.34,-4.73 -10.96,-9.28 -16.66,-13.5" /><path
         id="path46"
         style="fill:#ffffff;fill-opacity:1;fill-rule:nonzero;stroke:none"
         d="m 3202.83,4606.39 -1.35,-3.38 c 6.63,-2.64 13.21,-5.59 19.57,-8.79 l 1.64,3.26 c -6.46,3.22 -13.15,6.23 -19.86,8.91" /><path
         id="path48"
         style="fill:#ffffff;fill-opacity:1;fill-rule:nonzero;stroke:none"
         d="m 3241.7,4586.91 -1.9,-3.1 c 6.08,-3.71 12.08,-7.74 17.81,-11.95 l 2.16,2.91 c -5.82,4.27 -11.9,8.37 -18.07,12.14" /><path
         id="path50"
         style="fill:#ffffff;fill-opacity:1;fill-rule:nonzero;stroke:none"
         d="m 3182.25,4126.43 1.05,-3.48 c 6.91,2.11 13.83,4.55 20.51,7.25 l -1.37,3.37 c -6.58,-2.65 -13.39,-5.07 -20.19,-7.14" /><path
         id="path52"
         style="fill:#ffffff;fill-opacity:1;fill-rule:nonzero;stroke:none"
         d="m 3117.94,4620.66 c 7.12,-0.27 14.31,-0.86 21.37,-1.71 l 0.45,3.59 c -7.16,0.9 -14.47,1.48 -21.67,1.76 l -0.15,-3.64" /><path
         id="path54"
         style="fill:#ffffff;fill-opacity:1;fill-rule:nonzero;stroke:none"
         d="m 3161.21,4618.96 -0.76,-3.55 c 6.99,-1.46 13.98,-3.26 20.78,-5.33 l 1.05,3.47 c -6.91,2.09 -13.99,3.91 -21.07,5.41" /><path
         id="path56"
         style="fill:#ffffff;fill-opacity:1;fill-rule:nonzero;stroke:none"
         d="m 3349.48,4454.47 -3.43,-1.23 c 2.41,-6.7 4.55,-13.57 6.37,-20.47 l 3.5,0.92 c -1.84,6.99 -4.01,13.97 -6.44,20.78" /><path
         id="path58"
         style="fill:#ffffff;fill-opacity:1;fill-rule:nonzero;stroke:none"
         d="m 3338.42,4264.04 3.3,-1.52 c 2.99,6.6 5.71,13.4 8.12,20.21 l -3.42,1.2 c -2.38,-6.72 -5.06,-13.4 -8,-19.89" /><path
         id="path60"
         style="fill:#ffffff;fill-opacity:1;fill-rule:nonzero;stroke:none"
         d="m 3352.68,4304.43 3.51,-0.89 c 1.82,6.99 3.36,14.12 4.57,21.25 l -3.59,0.62 c -1.19,-7.03 -2.7,-14.08 -4.49,-20.98" /><path
         id="path62"
         style="fill:#ffffff;fill-opacity:1;fill-rule:nonzero;stroke:none"
         d="m 3364.39,4369.16 h -3.63 l 0.01,-1.07 c 0,-7.13 -0.3,-14.34 -0.89,-21.41 l 3.61,-0.31 c 0.6,7.18 0.9,14.51 0.9,21.74 v 1.05" /><path
         id="path64"
         style="fill:#ffffff;fill-opacity:1;fill-rule:nonzero;stroke:none"
         d="m 3363.4,4390.9 c -0.64,7.19 -1.58,14.45 -2.83,21.54 l -3.57,-0.62 c 1.22,-7 2.16,-14.14 2.79,-21.25 l 3.61,0.33" /><path
         id="path66"
         style="fill:#ffffff;fill-opacity:1;fill-rule:nonzero;stroke:none"
         d="m 3306.91,4529.88 -2.81,-2.28 c 4.5,-5.53 8.81,-11.31 12.83,-17.21 l 2.99,2.07 c -4.06,5.96 -8.44,11.82 -13.01,17.42" /><path
         id="path68"
         style="fill:#ffffff;fill-opacity:1;fill-rule:nonzero;stroke:none"
         d="m 3317.49,4226.62 3.01,-2.03 c 4.05,5.98 7.9,12.23 11.41,18.52 l -3.16,1.77 c -3.48,-6.23 -7.27,-12.36 -11.26,-18.26" /><path
         id="path70"
         style="fill:#ffffff;fill-opacity:1;fill-rule:nonzero;stroke:none"
         d="m 3331.42,4493.98 -3.17,-1.79 c 3.51,-6.21 6.79,-12.64 9.74,-19.08 l 3.3,1.52 c -3,6.52 -6.32,13.05 -9.87,19.35" /><path
         id="path72"
         style="fill:#ffffff;fill-opacity:1;fill-rule:nonzero;stroke:none"
         d="m 3290.56,4193.28 2.62,-2.52 c 5.02,5.26 9.85,10.72 14.37,16.35 l -2.82,2.27 c -4.46,-5.51 -9.22,-10.92 -14.17,-16.1" /><path
         id="path74"
         style="fill:#ffffff;fill-opacity:1;fill-rule:nonzero;stroke:none"
         d="m 2974.9,4583.01 -1.91,3.08 c -6.15,-3.8 -12.2,-7.93 -17.99,-12.24 l 2.17,-2.91 c 5.7,4.26 11.67,8.32 17.73,12.07" /><path
         id="path76"
         style="fill:#ffffff;fill-opacity:1;fill-rule:nonzero;stroke:none"
         d="m 3013.07,4602.42 -1.36,3.38 c -6.67,-2.71 -13.33,-5.74 -19.78,-9.02 l 1.64,-3.24 c 6.36,3.24 12.92,6.23 19.5,8.88" /><path
         id="path78"
         style="fill:#ffffff;fill-opacity:1;fill-rule:nonzero;stroke:none"
         d="m 3074.67,4622.34 0.47,-3.61 c 7.03,0.92 14.21,1.56 21.34,1.88 l -0.15,3.61 c -7.26,-0.31 -14.53,-0.96 -21.66,-1.88" /><path
         id="path80"
         style="fill:#ffffff;fill-opacity:1;fill-rule:nonzero;stroke:none"
         d="m 3032.2,4613.11 1.07,-3.48 c 6.81,2.11 13.79,3.94 20.73,5.47 l -0.76,3.53 c -7.05,-1.52 -14.13,-3.4 -21.04,-5.52" /><path
         id="path82"
         style="fill:#ffffff;fill-opacity:1;fill-rule:nonzero;stroke:none"
         d="m 2938.13,4560.14 c -5.41,-4.79 -10.68,-9.87 -15.67,-15.1 l 2.64,-2.5 c 4.91,5.16 10.11,10.16 15.43,14.86 l -2.4,2.74" /><path
         id="path84"
         style="fill:#ffffff;fill-opacity:1;fill-rule:nonzero;stroke:none"
         d="m 2947.49,4542.54 c 0,-12.38 -10.03,-22.4 -22.39,-22.4 -12.38,0 -22.4,10.02 -22.4,22.4 0,12.36 10.02,22.38 22.4,22.38 12.36,0 22.39,-10.02 22.39,-22.38" /><path
         id="path86"
         style="fill:#ffffff;fill-opacity:1;fill-rule:nonzero;stroke:none"
         d="m 3158.46,4139.27 c 0.3,-11.76 -8.98,-21.52 -20.71,-21.83 -11.75,-0.3 -21.51,8.97 -21.81,20.71 -0.31,11.74 8.95,21.52 20.7,21.82 11.74,0.3 21.51,-8.97 21.82,-20.7" /><path
         id="path88"
         style="fill:#ffffff;fill-opacity:1;fill-rule:nonzero;stroke:none"
         d="m 2614.46,3953.54 c 0,-18.48 -14.99,-33.47 -33.47,-33.47 -18.49,0 -33.48,14.99 -33.48,33.47 0,18.49 14.99,33.47 33.48,33.47 18.48,0 33.47,-14.98 33.47,-33.47" /><path
         id="path90"
         style="fill:#ffffff;fill-opacity:1;fill-rule:nonzero;stroke:none"
         d="m 1955.63,3957.7 -1.67,-4.71 c 9.21,-3.28 18.43,-6.96 27.4,-10.96 l 2.03,4.57 c -9.08,4.04 -18.42,7.77 -27.76,11.1" /><path
         id="path92"
         style="fill:#ffffff;fill-opacity:1;fill-rule:nonzero;stroke:none"
         d="m 1838.57,3974.86 c 9.84,-0.33 19.73,-1.05 29.39,-2.13 l 0.57,4.97 c -9.81,1.09 -19.82,1.82 -29.78,2.16 l -0.18,-5" /><path
         id="path94"
         style="fill:#ffffff;fill-opacity:1;fill-rule:nonzero;stroke:none"
         d="m 1897.11,3968.36 c 9.62,-1.82 19.29,-4.04 28.72,-6.58 l 1.31,4.82 c -9.56,2.58 -19.36,4.83 -29.1,6.68 l -0.93,-4.92" /><path
         id="path96"
         style="fill:#ffffff;fill-opacity:1;fill-rule:nonzero;stroke:none"
         d="m 1457.69,3705.48 -4.78,1.49 c -2.96,-9.45 -5.6,-19.14 -7.82,-28.81 l 4.86,-1.12 c 2.21,9.54 4.81,19.11 7.74,28.44" /><path
         id="path98"
         style="fill:#ffffff;fill-opacity:1;fill-rule:nonzero;stroke:none"
         d="m 1479.6,3760.2 -4.47,2.22 c -4.4,-8.9 -8.5,-18.09 -12.18,-27.29 l 4.64,-1.86 c 3.63,9.07 7.67,18.14 12.01,26.93" /><path
         id="path100"
         style="fill:#ffffff;fill-opacity:1;fill-rule:nonzero;stroke:none"
         d="m 1440.11,3589.36 -5,-0.01 c 0.02,-9.96 0.43,-19.99 1.19,-29.84 l 4.98,0.39 c -0.75,9.73 -1.15,19.63 -1.17,29.46" /><path
         id="path102"
         style="fill:#ffffff;fill-opacity:1;fill-rule:nonzero;stroke:none"
         d="m 1444.44,3648.1 -4.94,0.74 c -1.48,-9.77 -2.6,-19.75 -3.33,-29.66 l 4.99,-0.37 c 0.72,9.78 1.82,19.65 3.28,29.29" /><path
         id="path104"
         style="fill:#ffffff;fill-opacity:1;fill-rule:nonzero;stroke:none"
         d="m 1509.66,3810.9 -4.1,2.87 c -5.7,-8.13 -11.15,-16.56 -16.19,-25.09 l 4.29,-2.55 c 4.98,8.42 10.37,16.76 16,24.77" /><path
         id="path106"
         style="fill:#ffffff;fill-opacity:1;fill-rule:nonzero;stroke:none"
         d="m 1590.93,3895.74 -3.05,3.97 c -7.85,-6.04 -15.59,-12.44 -22.98,-19.07 l 3.34,-3.73 c 7.3,6.55 14.93,12.88 22.69,18.83" /><path
         id="path108"
         style="fill:#ffffff;fill-opacity:1;fill-rule:nonzero;stroke:none"
         d="m 1779.13,3977.42 0.59,-4.96 c 9.7,1.13 19.59,1.91 29.37,2.31 l -0.19,5 c -9.93,-0.4 -19.93,-1.2 -29.77,-2.35" /><path
         id="path110"
         style="fill:#ffffff;fill-opacity:1;fill-rule:nonzero;stroke:none"
         d="m 1693.86,3952.17 -1.7,4.69 c -9.32,-3.37 -18.62,-7.15 -27.64,-11.24 l 2.06,-4.55 c 8.92,4.03 18.09,7.76 27.28,11.1" /><path
         id="path112"
         style="fill:#ffffff;fill-opacity:1;fill-rule:nonzero;stroke:none"
         d="m 1547.06,3856.43 -3.61,3.45 c -6.86,-7.16 -13.54,-14.67 -19.83,-22.32 l 3.87,-3.19 c 6.21,7.56 12.79,14.99 19.57,22.06" /><path
         id="path114"
         style="fill:#ffffff;fill-opacity:1;fill-rule:nonzero;stroke:none"
         d="m 1439.74,3529.86 c 1.53,-9.82 3.45,-19.67 5.72,-29.29 l 4.86,1.14 c -2.23,9.5 -4.14,19.23 -5.64,28.92 l -4.94,-0.77" /><path
         id="path116"
         style="fill:#ffffff;fill-opacity:1;fill-rule:nonzero;stroke:none"
         d="m 1640.23,3927.91 -2.4,4.38 c -8.64,-4.73 -17.25,-9.89 -25.59,-15.34 l 2.73,-4.18 c 8.22,5.37 16.74,10.46 25.26,15.14" /><path
         id="path118"
         style="fill:#ffffff;fill-opacity:1;fill-rule:nonzero;stroke:none"
         d="m 1720.6,3965.95 1.32,-4.82 c 9.45,2.62 19.1,4.91 28.69,6.78 l -0.96,4.9 c -9.72,-1.89 -19.49,-4.21 -29.05,-6.86" /><path
         id="path120"
         style="fill:#ffffff;fill-opacity:1;fill-rule:nonzero;stroke:none"
         d="m 1453.41,3471.79 c 3.01,-9.47 6.42,-18.91 10.13,-28.08 l 4.63,1.88 c -3.66,9.06 -7.03,18.37 -10,27.71 l -4.76,-1.51" /><path
         id="path122"
         style="fill:#ffffff;fill-opacity:1;fill-rule:nonzero;stroke:none"
         d="m 1506.42,3365.33 c 5.72,-8.1 11.83,-16.07 18.14,-23.71 l 3.85,3.2 c -6.23,7.52 -12.26,15.39 -17.91,23.4 l -4.08,-2.89" /><path
         id="path124"
         style="fill:#ffffff;fill-opacity:1;fill-rule:nonzero;stroke:none"
         d="m 1475.81,3416.52 c 4.43,-8.89 9.26,-17.7 14.33,-26.19 l 4.28,2.58 c -5,8.37 -9.76,17.06 -14.14,25.84 l -4.47,-2.23" /><path
         id="path126"
         style="fill:#ffffff;fill-opacity:1;fill-rule:nonzero;stroke:none"
         d="m 1544.46,3319.37 c 6.9,-7.13 14.14,-14.1 21.55,-20.68 l 3.32,3.75 c -7.31,6.49 -14.46,13.36 -21.27,20.41 l -3.6,-3.48" /><path
         id="path128"
         style="fill:#ffffff;fill-opacity:1;fill-rule:nonzero;stroke:none"
         d="m 2031.68,3965.83 c -23.88,0 -43.29,-19.42 -43.29,-43.29 0,-23.88 19.41,-43.3 43.29,-43.3 23.88,0 43.29,19.42 43.29,43.3 0,23.87 -19.41,43.29 -43.29,43.29 z m 0,-96.59 c -29.39,0 -53.29,23.9 -53.29,53.3 0,29.38 23.9,53.29 53.29,53.29 29.38,0 53.29,-23.91 53.29,-53.29 0,-29.4 -23.91,-53.3 -53.29,-53.3" /><path
         id="path130"
         style="fill:#ffffff;fill-opacity:1;fill-rule:nonzero;stroke:none"
         d="m 1605.19,3304.69 c -23.87,0 -43.3,-19.44 -43.3,-43.3 0,-23.87 19.43,-43.3 43.3,-43.3 23.87,0 43.3,19.43 43.3,43.3 0,23.86 -19.43,43.3 -43.3,43.3 z m 0,-96.6 c -29.39,0 -53.3,23.9 -53.3,53.3 0,29.39 23.91,53.3 53.3,53.3 29.39,0 53.3,-23.91 53.3,-53.3 0,-29.4 -23.91,-53.3 -53.3,-53.3" /><path
         id="path132"
         style="fill:#ffffff;fill-opacity:1;fill-rule:nonzero;stroke:none"
         d="m 1840.69,2482.29 c -17.52,0 -31.76,-14.26 -31.76,-31.78 0,-17.51 14.24,-31.76 31.76,-31.76 17.52,0 31.77,14.25 31.77,31.76 0,17.52 -14.25,31.78 -31.77,31.78 z m 0,-73.54 c -23.02,0 -41.76,18.73 -41.76,41.76 0,23.03 18.74,41.78 41.76,41.78 23.03,0 41.77,-18.75 41.77,-41.78 0,-23.03 -18.74,-41.76 -41.77,-41.76" /><path
         id="path134"
         style="fill:#ffffff;fill-opacity:1;fill-rule:nonzero;stroke:none"
         d="m 1601.71,59.7891 2.11,-4.5391 c 9.18,4.3008 18.3,9.0703 27.11,14.1602 l -2.51,4.3398 c -8.68,-5.0195 -17.67,-9.7305 -26.71,-13.9609" /><path
         id="path136"
         style="fill:#ffffff;fill-opacity:1;fill-rule:nonzero;stroke:none"
         d="m 1425.56,28.6289 -0.42,-4.9805 c 9.97,-0.8593 20.12,-1.289 30.17,-1.289 h 0.37 l -0.37,5 c -9.91,0 -19.91,0.4297 -29.75,1.2695" /><path
         id="path138"
         style="fill:#ffffff;fill-opacity:1;fill-rule:nonzero;stroke:none"
         d="m 1545.13,39.1406 1.3,-4.8203 c 9.81,2.6289 19.61,5.7383 29.17,9.2188 l -1.72,4.6797 c -9.42,-3.418 -19.09,-6.4766 -28.75,-9.0782" /><path
         id="path140"
         style="fill:#ffffff;fill-opacity:1;fill-rule:nonzero;stroke:none"
         d="m 1485.8,28.6914 0.44,-4.9805 c 10.1,0.8789 20.29,2.2305 30.32,3.9883 l -0.87,4.9219 c -9.88,-1.7422 -19.94,-3.0508 -29.89,-3.9297" /><path
         id="path142"
         style="fill:#ffffff;fill-opacity:1;fill-rule:nonzero;stroke:none"
         d="m 1207.63,124.75 c 7.18,-7.168 14.78,-14.129 22.58,-20.648 l 3.22,3.828 c -7.7,6.441 -15.18,13.281 -22.27,20.351 l -3.53,-3.531" /><path
         id="path144"
         style="fill:#ffffff;fill-opacity:1;fill-rule:nonzero;stroke:none"
         d="m 1121.01,461.91 -4.85,1.289 c -2.6,-9.82 -4.78,-19.859 -6.52,-29.879 l 4.94,-0.859 c 1.7,9.879 3.87,19.789 6.43,29.449" /><path
         id="path146"
         style="fill:#ffffff;fill-opacity:1;fill-rule:nonzero;stroke:none"
         d="m 1141.47,518.57 -4.53,2.11 c -4.27,-9.2 -8.19,-18.731 -11.66,-28.301 l 4.71,-1.699 c 3.42,9.441 7.28,18.832 11.48,27.89" /><path
         id="path148"
         style="fill:#ffffff;fill-opacity:1;fill-rule:nonzero;stroke:none"
         d="m 1109.51,373.16 c 0,9.789 0.42,19.672 1.23,29.399 l -4.98,0.41 c -0.83,-9.848 -1.25,-19.879 -1.25,-29.809 v -0.738 h 5 v 0.738" /><path
         id="path150"
         style="fill:#ffffff;fill-opacity:1;fill-rule:nonzero;stroke:none"
         d="m 1171.53,570.801 -4.1,2.871 c -5.82,-8.34 -11.34,-17.031 -16.4,-25.82 l 4.33,-2.5 c 5,8.668 10.43,17.25 16.17,25.449" /><path
         id="path152"
         style="fill:#ffffff;fill-opacity:1;fill-rule:nonzero;stroke:none"
         d="m 1105.89,341.859 c 0.9,-10.097 2.24,-20.3 4.02,-30.32 l 4.92,0.883 c -1.75,9.867 -3.08,19.918 -3.96,29.879 l -4.98,-0.442" /><path
         id="path154"
         style="fill:#ffffff;fill-opacity:1;fill-rule:nonzero;stroke:none"
         d="m 1254.49,85.4922 c 8.31,-5.8008 16.99,-11.332 25.81,-16.4336 l 2.5,4.3398 c -8.69,5.0235 -17.25,10.4727 -25.44,16.1914 l -2.87,-4.0976" /><path
         id="path156"
         style="fill:#ffffff;fill-opacity:1;fill-rule:nonzero;stroke:none"
         d="m 1307.46,54.9609 c 9.26,-4.3203 18.78,-8.2421 28.28,-11.6992 l 1.71,4.7071 c -9.37,3.4023 -18.75,7.2812 -27.88,11.5234 l -2.11,-4.5313" /><path
         id="path158"
         style="fill:#ffffff;fill-opacity:1;fill-rule:nonzero;stroke:none"
         d="m 1116.55,281.699 c 2.65,-9.828 5.76,-19.629 9.25,-29.16 l 4.7,1.723 c -3.44,9.386 -6.51,19.058 -9.12,28.75 l -4.83,-1.313" /><path
         id="path160"
         style="fill:#ffffff;fill-opacity:1;fill-rule:nonzero;stroke:none"
         d="m 1364.93,34.1211 c 9.86,-2.6211 19.9,-4.8008 29.87,-6.5391 l 0.86,4.918 c -9.83,1.6992 -19.73,3.8906 -29.45,6.4492 l -1.28,-4.8281" /><path
         id="path162"
         style="fill:#ffffff;fill-opacity:1;fill-rule:nonzero;stroke:none"
         d="m 1137.57,224.32 c 4.31,-9.199 9.09,-18.32 14.18,-27.09 l 4.33,2.52 c -5.03,8.648 -9.73,17.629 -13.98,26.699 l -4.53,-2.129" /><path
         id="path164"
         style="fill:#ffffff;fill-opacity:1;fill-rule:nonzero;stroke:none"
         d="m 1168.25,171.48 c 5.86,-8.339 12.15,-16.48 18.67,-24.23 l 3.83,3.219 c -6.44,7.64 -12.63,15.679 -18.41,23.89 l -4.09,-2.879" /><path
         id="path166"
         style="fill:#ffffff;fill-opacity:1;fill-rule:nonzero;stroke:none"
         d="m 1195.12,651.09 c -23.88,0 -43.29,-19.41 -43.29,-43.301 0,-23.859 19.41,-43.277 43.29,-43.277 23.87,0 43.29,19.418 43.29,43.277 0,23.891 -19.42,43.301 -43.29,43.301 z m 0,-96.578 c -29.39,0 -53.29,23.91 -53.29,53.277 0,29.402 23.9,53.301 53.29,53.301 29.38,0 53.29,-23.899 53.29,-53.301 0,-29.367 -23.91,-53.277 -53.29,-53.277" /><path
         id="path168"
         style="fill:#ffffff;fill-opacity:1;fill-rule:nonzero;stroke:none"
         d="m 1648.13,69.0586 c 0,-11.5 -9.33,-20.8398 -20.84,-20.8398 -11.5,0 -20.83,9.3398 -20.83,20.8398 0,11.5117 9.33,20.8398 20.83,20.8398 11.51,0 20.84,-9.3281 20.84,-20.8398" /><path
         id="path170"
         style="fill:#ffffff;fill-opacity:1;fill-rule:nonzero;stroke:none"
         d="m 3218.53,3451.1 -2.49,-4.34 c 8.61,-4.94 17.07,-10.41 25.11,-16.21 l 2.93,4.06 c -8.18,5.9 -16.79,11.45 -25.55,16.49" /><path
         id="path172"
         style="fill:#ffffff;fill-opacity:1;fill-rule:nonzero;stroke:none"
         d="m 3242.07,2967.78 2.93,-4.04 c 8.13,5.91 16.07,12.36 23.61,19.16 l -3.34,3.71 c -7.42,-6.68 -15.22,-13.01 -23.2,-18.83" /><path
         id="path174"
         style="fill:#ffffff;fill-opacity:1;fill-rule:nonzero;stroke:none"
         d="m 3102.99,3483.07 c 9.94,-0.99 19.88,-2.54 29.53,-4.55 l 1.02,4.9 c -9.82,2.05 -19.93,3.6 -30.05,4.63 l -0.5,-4.98" /><path
         id="path176"
         style="fill:#ffffff;fill-opacity:1;fill-rule:nonzero;stroke:none"
         d="m 3267.76,3415.53 -3.33,-3.73 c 7.43,-6.64 14.56,-13.73 21.21,-21.05 l 3.71,3.36 c -6.77,7.46 -14.04,14.66 -21.59,21.42" /><path
         id="path178"
         style="fill:#ffffff;fill-opacity:1;fill-rule:nonzero;stroke:none"
         d="m 3363.01,3230.38 c -1.1,10.04 -2.72,20.13 -4.85,30.02 l -4.89,-1.06 c 2.1,-9.71 3.7,-19.63 4.76,-29.49 l 4.98,0.53" /><path
         id="path180"
         style="fill:#ffffff;fill-opacity:1;fill-rule:nonzero;stroke:none"
         d="m 3286.41,3007.76 3.71,-3.34 c 6.76,7.5 13.19,15.45 19.14,23.61 l -4.05,2.95 c -5.83,-8.05 -12.17,-15.86 -18.8,-23.22" /><path
         id="path182"
         style="fill:#ffffff;fill-opacity:1;fill-rule:nonzero;stroke:none"
         d="m 3359.7,3200 v -1.17 c 0,-9.94 -0.52,-19.98 -1.54,-29.86 l 4.97,-0.51 c 1.04,10.04 1.57,20.26 1.57,30.37 v 1.17 h -5" /><path
         id="path184"
         style="fill:#ffffff;fill-opacity:1;fill-rule:nonzero;stroke:none"
         d="m 3339.18,3318.09 -4.55,-2.05 c 4.07,-9.04 7.71,-18.42 10.82,-27.85 l 4.75,1.56 c -3.16,9.61 -6.86,19.14 -11.02,28.34" /><path
         id="path186"
         style="fill:#ffffff;fill-opacity:1;fill-rule:nonzero;stroke:none"
         d="m 3345.8,3110.59 4.77,-1.54 c 3.11,9.59 5.76,19.47 7.85,29.37 l -4.9,1.04 c -2.06,-9.73 -4.65,-19.44 -7.72,-28.87" /><path
         id="path188"
         style="fill:#ffffff;fill-opacity:1;fill-rule:nonzero;stroke:none"
         d="m 3308.57,3370.55 -4.02,-2.95 c 5.88,-8.04 11.41,-16.44 16.39,-25 l 4.31,2.52 c -5.07,8.69 -10.68,17.25 -16.68,25.43" /><path
         id="path190"
         style="fill:#ffffff;fill-opacity:1;fill-rule:nonzero;stroke:none"
         d="m 3321.5,3056.04 4.34,-2.5 c 5.07,8.77 9.72,17.87 13.83,27.09 l -4.57,2.03 c -4.05,-9.04 -8.62,-18.01 -13.6,-26.62" /><path
         id="path192"
         style="fill:#ffffff;fill-opacity:1;fill-rule:nonzero;stroke:none"
         d="m 3162.95,3475.67 -1.52,-4.77 c 9.45,-3.02 18.84,-6.6 27.95,-10.62 l 2.01,4.57 c -9.26,4.08 -18.82,7.73 -28.44,10.82" /><path
         id="path194"
         style="fill:#ffffff;fill-opacity:1;fill-rule:nonzero;stroke:none"
         d="m 3042.76,3487.86 0.53,-4.98 c 9.85,1.05 19.89,1.6 29.84,1.64 v 5 c -10.13,-0.04 -20.34,-0.59 -30.37,-1.66" /><path
         id="path196"
         style="fill:#ffffff;fill-opacity:1;fill-rule:nonzero;stroke:none"
         d="m 2957.07,3459.58 -2.05,4.55 c -9.24,-4.16 -18.33,-8.83 -27.04,-13.91 l 2.51,-4.32 c 8.56,4.98 17.5,9.57 26.58,13.68" /><path
         id="path198"
         style="fill:#ffffff;fill-opacity:1;fill-rule:nonzero;stroke:none"
         d="m 2861.23,3389.48 -3.72,3.34 c -6.76,-7.54 -13.18,-15.51 -19.1,-23.67 l 4.05,-2.93 c 5.81,8.02 12.13,15.86 18.77,23.26" /><path
         id="path200"
         style="fill:#ffffff;fill-opacity:1;fill-rule:nonzero;stroke:none"
         d="m 2905.49,3429.54 -2.97,4.04 c -8.15,-5.98 -16.08,-12.44 -23.56,-19.2 l 3.35,-3.71 c 7.36,6.64 15.15,13.01 23.18,18.87" /><path
         id="path202"
         style="fill:#ffffff;fill-opacity:1;fill-rule:nonzero;stroke:none"
         d="m 2983.38,3475.1 1.56,-4.74 c 9.45,3.1 19.16,5.72 28.84,7.81 l -1.05,4.88 c -9.86,-2.11 -19.73,-4.78 -29.35,-7.95" /><path
         id="path204"
         style="fill:#ffffff;fill-opacity:1;fill-rule:nonzero;stroke:none"
         d="m 3273.07,2963.74 c 0,-15.49 -12.57,-28.05 -28.07,-28.05 -15.49,0 -28.05,12.56 -28.05,28.05 0,15.5 12.56,28.06 28.05,28.06 15.5,0 28.07,-12.56 28.07,-28.06" /><path
         id="path206"
         style="fill:#ffffff;fill-opacity:1;fill-rule:nonzero;stroke:none"
         d="m 2826.39,3366.1 c -12.76,0 -23.13,-10.37 -23.13,-23.13 0,-12.75 10.37,-23.12 23.13,-23.12 12.75,0 23.12,10.37 23.12,23.12 0,12.76 -10.37,23.13 -23.12,23.13 z m 0,-56.25 c -18.26,0 -33.13,14.86 -33.13,33.12 0,18.27 14.87,33.13 33.13,33.13 18.26,0 33.12,-14.86 33.12,-33.13 0,-18.26 -14.86,-33.12 -33.12,-33.12" /><path
         id="path208"
         style="fill:#ffffff;fill-opacity:1;fill-rule:nonzero;stroke:none"
         d="m 1459.33,4471.32 1.76,-4.69 c 9.35,3.5 18.7,7.39 27.78,11.55 l -2.09,4.55 c -8.96,-4.12 -18.2,-7.96 -27.45,-11.41" /><path
         id="path210"
         style="fill:#ffffff;fill-opacity:1;fill-rule:nonzero;stroke:none"
         d="m 1563.35,4528.29 3.01,-4 c 7.98,6 15.86,12.36 23.43,18.92 l -3.28,3.77 c -7.48,-6.48 -15.26,-12.77 -23.16,-18.69" /><path
         id="path212"
         style="fill:#ffffff;fill-opacity:1;fill-rule:nonzero;stroke:none"
         d="m 1513.36,4496.06 2.41,-4.39 c 8.77,4.81 17.47,10 25.87,15.41 l -2.72,4.2 c -8.29,-5.35 -16.89,-10.47 -25.56,-15.22" /><path
         id="path214"
         style="fill:#ffffff;fill-opacity:1;fill-rule:nonzero;stroke:none"
         d="m 1343.36,4446.06 0.36,-4.97 c 9.92,0.7 20,1.77 29.95,3.2 l -0.71,4.94 c -9.84,-1.41 -19.79,-2.46 -29.6,-3.17" /><path
         id="path216"
         style="fill:#ffffff;fill-opacity:1;fill-rule:nonzero;stroke:none"
         d="m 1402.25,4454.52 1.08,-4.88 c 9.83,2.15 19.65,4.65 29.17,7.44 l -1.4,4.81 c -9.42,-2.78 -19.12,-5.26 -28.85,-7.37" /><path
         id="path218"
         style="fill:#ffffff;fill-opacity:1;fill-rule:nonzero;stroke:none"
         d="m 1283.87,4445.98 -0.35,-4.97 c 9.79,-0.69 19.76,-1.02 29.63,-1.02 h 0.47 l -0.47,5 c -9.76,0 -19.61,0.33 -29.28,0.99" /><path
         id="path220"
         style="fill:#ffffff;fill-opacity:1;fill-rule:nonzero;stroke:none"
         d="m 1704.23,4716.5 4.69,-1.74 c 3.51,9.41 6.7,19.04 9.5,28.59 l -4.8,1.41 c -2.77,-9.44 -5.93,-18.95 -9.39,-28.26" /><path
         id="path222"
         style="fill:#ffffff;fill-opacity:1;fill-rule:nonzero;stroke:none"
         d="m 1720.96,4773.61 4.88,-1.06 c 2.12,9.76 3.91,19.75 5.32,29.65 l -4.94,0.7 c -1.4,-9.78 -3.17,-19.63 -5.26,-29.29" /><path
         id="path224"
         style="fill:#ffffff;fill-opacity:1;fill-rule:nonzero;stroke:none"
         d="m 1679.48,4662.34 4.39,-2.41 c 4.82,8.83 9.37,17.89 13.51,26.97 l -4.55,2.08 c -4.09,-8.97 -8.59,-17.93 -13.35,-26.64" /><path
         id="path226"
         style="fill:#ffffff;fill-opacity:1;fill-rule:nonzero;stroke:none"
         d="m 1608.29,4567.3 3.53,-3.54 c 7.05,7.05 13.96,14.47 20.53,22.05 l -3.77,3.28 c -6.5,-7.5 -13.33,-14.82 -20.29,-21.79" /><path
         id="path228"
         style="fill:#ffffff;fill-opacity:1;fill-rule:nonzero;stroke:none"
         d="m 1647.26,4612.27 4,-3 c 6,8.03 11.79,16.35 17.2,24.75 l -4.2,2.71 c -5.35,-8.32 -11.07,-16.54 -17,-24.46" /><path
         id="path230"
         style="fill:#ffffff;fill-opacity:1;fill-rule:nonzero;stroke:none"
         d="m 975.492,4608.66 c 6.016,-8.01 12.395,-15.87 18.957,-23.41 l 3.77,3.27 c -6.485,7.46 -12.785,15.24 -18.731,23.15 l -3.996,-3.01" /><path
         id="path232"
         style="fill:#ffffff;fill-opacity:1;fill-rule:nonzero;stroke:none"
         d="m 1111.25,4491.28 c 8.79,-4.78 17.87,-9.32 26.98,-13.48 l 2.07,4.56 c -9.01,4.1 -17.97,8.57 -26.65,13.32 l -2.4,-4.4" /><path
         id="path234"
         style="fill:#ffffff;fill-opacity:1;fill-rule:nonzero;stroke:none"
         d="m 1166.11,4466.3 c 9.39,-3.5 19.01,-6.68 28.59,-9.47 l 1.41,4.8 c -9.47,2.76 -18.98,5.9 -28.26,9.35 l -1.74,-4.68" /><path
         id="path236"
         style="fill:#ffffff;fill-opacity:1;fill-rule:nonzero;stroke:none"
         d="m 1223.9,4449.44 c 9.71,-2.08 19.69,-3.86 29.66,-5.27 l 0.7,4.94 c -9.85,1.39 -19.71,3.15 -29.3,5.22 l -1.06,-4.89" /><path
         id="path238"
         style="fill:#ffffff;fill-opacity:1;fill-rule:nonzero;stroke:none"
         d="m 1060.56,4523.84 c 7.95,-5.96 16.29,-11.74 24.77,-17.17 l 2.69,4.2 c -8.37,5.37 -16.6,11.07 -24.47,16.97 l -2.99,-4" /><path
         id="path240"
         style="fill:#ffffff;fill-opacity:1;fill-rule:nonzero;stroke:none"
         d="m 942.828,4659.21 c 4.824,-8.77 10.008,-17.46 15.43,-25.86 l 4.199,2.71 c -5.352,8.31 -10.488,16.9 -15.246,25.55 l -4.383,-2.4" /><path
         id="path242"
         style="fill:#ffffff;fill-opacity:1;fill-rule:nonzero;stroke:none"
         d="m 1015,4563.23 c 7.08,-7.07 14.52,-13.96 22.08,-20.5 l 3.27,3.79 c -7.47,6.46 -14.81,13.28 -21.82,20.25 l -3.53,-3.54" /><path
         id="path244"
         style="fill:#ffffff;fill-opacity:1;fill-rule:nonzero;stroke:none"
         d="m 925.609,4723.29 c -17.558,0 -31.843,-14.29 -31.843,-31.85 0,-17.56 14.285,-31.84 31.843,-31.84 17.559,0 31.848,14.28 31.848,31.84 0,17.56 -14.289,31.85 -31.848,31.85 z m 0,-73.69 c -23.074,0 -41.843,18.77 -41.843,41.84 0,23.08 18.769,41.85 41.843,41.85 23.079,0 41.848,-18.77 41.848,-41.85 0,-23.07 -18.769,-41.84 -41.848,-41.84" /><path
         id="path246"
         style="fill:#ffffff;fill-opacity:1;fill-rule:nonzero;stroke:none"
         d="m 4691.02,2153.4 -3.03,3.98 c -7.9,-6.02 -16.25,-11.67 -24.8,-16.76 l 2.56,-4.3 c 8.71,5.2 17.21,10.96 25.27,17.08" /><path
         id="path248"
         style="fill:#ffffff;fill-opacity:1;fill-rule:nonzero;stroke:none"
         d="m 4261.36,2406.01 -4.95,0.66 c -1.38,-10 -2.19,-20.23 -2.44,-30.39 l 5,-0.12 c 0.24,9.98 1.04,20.02 2.39,29.85" /><path
         id="path250"
         style="fill:#ffffff;fill-opacity:1;fill-rule:nonzero;stroke:none"
         d="m 4259.96,2346.26 -4.98,-0.44 c 0.89,-10.07 2.37,-20.22 4.4,-30.17 l 4.9,1 c -2,9.77 -3.44,19.73 -4.32,29.61" /><path
         id="path252"
         style="fill:#ffffff;fill-opacity:1;fill-rule:nonzero;stroke:none"
         d="m 4768.45,2246.39 -4.46,2.28 -0.36,-0.71 c -4.43,-8.64 -9.35,-17.11 -14.67,-25.18 l 4.18,-2.75 c 5.4,8.22 10.42,16.85 14.94,25.64 l 0.37,0.72" /><path
         id="path254"
         style="fill:#ffffff;fill-opacity:1;fill-rule:nonzero;stroke:none"
         d="m 4638.73,2122.16 -2.06,4.55 c -9.04,-4.12 -18.43,-7.76 -27.9,-10.85 l 1.55,-4.76 c 9.64,3.15 19.21,6.87 28.41,11.06" /><path
         id="path256"
         style="fill:#ffffff;fill-opacity:1;fill-rule:nonzero;stroke:none"
         d="m 4735,2195.54 -3.85,3.19 c -6.36,-7.66 -13.22,-15.03 -20.41,-21.89 l 3.46,-3.63 c 7.32,7.01 14.32,14.53 20.8,22.33" /><path
         id="path258"
         style="fill:#ffffff;fill-opacity:1;fill-rule:nonzero;stroke:none"
         d="m 4276.09,2463.92 -4.68,1.75 c -3.58,-9.49 -6.67,-19.27 -9.16,-29.07 l 4.84,-1.24 c 2.44,9.62 5.47,19.23 9,28.56" /><path
         id="path260"
         style="fill:#ffffff;fill-opacity:1;fill-rule:nonzero;stroke:none"
         d="m 4520.24,2097.7 0.11,5.01 c -10,0.19 -20.03,0.95 -29.83,2.28 l -0.68,-4.94 c 9.99,-1.35 20.23,-2.14 30.4,-2.35" /><path
         id="path262"
         style="fill:#ffffff;fill-opacity:1;fill-rule:nonzero;stroke:none"
         d="m 4271.88,2287.71 -4.76,-1.55 c 3.11,-9.64 6.81,-19.21 10.97,-28.44 l 4.55,2.06 c -4.09,9.06 -7.71,18.45 -10.76,27.93" /><path
         id="path264"
         style="fill:#ffffff;fill-opacity:1;fill-rule:nonzero;stroke:none"
         d="m 4303.3,2517.12 -4.18,2.75 c -5.51,-8.36 -10.63,-17.13 -15.22,-26.09 l -0.13,-0.23 4.57,-2.05 c 4.51,8.8 9.55,17.42 14.96,25.62" /><path
         id="path266"
         style="fill:#ffffff;fill-opacity:1;fill-rule:nonzero;stroke:none"
         d="m 4405.17,2131.6 -0.96,0.49 c -8.88,4.54 -17.57,9.64 -25.84,15.1 l -2.76,-4.17 c 8.42,-5.57 17.28,-10.74 26.32,-15.37 l 0.96,-0.49 2.28,4.44" /><path
         id="path268"
         style="fill:#ffffff;fill-opacity:1;fill-rule:nonzero;stroke:none"
         d="m 4332.54,2185.56 -3.62,-3.46 c 6.98,-7.32 14.47,-14.36 22.25,-20.86 l 3.21,3.84 c -7.64,6.37 -14.99,13.27 -21.84,20.48" /><path
         id="path270"
         style="fill:#ffffff;fill-opacity:1;fill-rule:nonzero;stroke:none"
         d="m 4580.85,2103.29 -1.01,4.9 c -9.69,-2.01 -19.64,-3.49 -29.6,-4.41 l 0.47,-4.98 c 10.13,0.95 20.27,2.45 30.14,4.49" /><path
         id="path272"
         style="fill:#ffffff;fill-opacity:1;fill-rule:nonzero;stroke:none"
         d="m 4296.46,2233.21 -4.3,-2.56 c 5.2,-8.74 10.93,-17.26 17.02,-25.31 l 3.98,3.03 c -5.97,7.89 -11.6,16.25 -16.7,24.84" /><path
         id="path274"
         style="fill:#ffffff;fill-opacity:1;fill-rule:nonzero;stroke:none"
         d="m 4790.67,2333.99 4.96,-0.68 c 1.36,10.07 2.15,20.29 2.38,30.41 l -5,0.1 c -0.21,-9.92 -1,-19.96 -2.34,-29.83" /><path
         id="path276"
         style="fill:#ffffff;fill-opacity:1;fill-rule:nonzero;stroke:none"
         d="m 4789.86,2303.39 -4.85,1.23 c -2.43,-9.63 -5.44,-19.26 -8.95,-28.58 l 4.69,-1.75 c 3.57,9.49 6.63,19.28 9.11,29.1" /><path
         id="path278"
         style="fill:#ffffff;fill-opacity:1;fill-rule:nonzero;stroke:none"
         d="m 4430.79,2114.89 c 9.45,-3.55 19.24,-6.62 29.11,-9.09 l 1.22,4.84 c -9.68,2.44 -19.29,5.43 -28.56,8.92 l -1.77,-4.67" /><path
         id="path280"
         style="fill:#ffffff;fill-opacity:1;fill-rule:nonzero;stroke:none"
         d="m 4336.26,2519.87 c 0,-20.5 -16.63,-37.14 -37.14,-37.14 -20.51,0 -37.14,16.64 -37.14,37.14 0,20.51 16.63,37.14 37.14,37.14 20.51,0 37.14,-16.63 37.14,-37.14" /><path
         id="path282"
         style="fill:#ffffff;fill-opacity:1;fill-rule:nonzero;stroke:none"
         d="m 4798.01,2432.02 c -17.42,0 -31.6,-14.18 -31.6,-31.6 0,-17.42 14.18,-31.6 31.6,-31.6 17.42,0 31.6,14.18 31.6,31.6 0,17.42 -14.18,31.6 -31.6,31.6 z m 0,-73.2 c -22.94,0 -41.6,18.66 -41.6,41.6 0,22.94 18.66,41.6 41.6,41.6 22.94,0 41.6,-18.66 41.6,-41.6 0,-22.94 -18.66,-41.6 -41.6,-41.6" /><path
         id="path284"
         style="fill:#ffffff;fill-opacity:1;fill-rule:nonzero;stroke:none"
         d="m 4063.13,112.09 1.99,-4.59 c 9.24,4.039 18.41,8.398 27.23,12.992 l -2.3,4.43 c -8.73,-4.531 -17.79,-8.852 -26.92,-12.832" /><path
         id="path286"
         style="fill:#ffffff;fill-opacity:1;fill-rule:nonzero;stroke:none"
         d="m 4329.9,545.551 c -0.72,10.078 -1.78,20.168 -3.18,30.039 l -4.95,-0.711 c 1.37,-9.738 2.43,-19.719 3.15,-29.68 l 4.98,0.352" /><path
         id="path288"
         style="fill:#ffffff;fill-opacity:1;fill-rule:nonzero;stroke:none"
         d="m 3948.52,79.9219 0.68,-4.961 c 10.01,1.3907 20.02,3.1094 29.76,5.1211 l -1.02,4.8985 c -9.63,-1.9883 -19.52,-3.6914 -29.42,-5.0586" /><path
         id="path290"
         style="fill:#ffffff;fill-opacity:1;fill-rule:nonzero;stroke:none"
         d="m 4006.94,92.0703 1.35,-4.8203 c 9.66,2.7109 19.35,5.7812 28.79,9.1602 l -1.68,4.6988 c -9.34,-3.3395 -18.92,-6.3785 -28.46,-9.0387" /><path
         id="path292"
         style="fill:#ffffff;fill-opacity:1;fill-rule:nonzero;stroke:none"
         d="m 3888.96,75.8203 v -5 c 10.05,0.0195 20.21,0.3711 30.19,1.0508 l -0.35,4.9883 c -9.86,-0.668 -19.9,-1.0196 -29.84,-1.0391" /><path
         id="path294"
         style="fill:#ffffff;fill-opacity:1;fill-rule:nonzero;stroke:none"
         d="m 4164.75,174.039 3.16,-3.859 c 7.78,6.34 15.43,13.039 22.74,19.859 l -3.41,3.652 c -7.23,-6.761 -14.8,-13.359 -22.49,-19.652" /><path
         id="path296"
         style="fill:#ffffff;fill-opacity:1;fill-rule:nonzero;stroke:none"
         d="m 4277.13,312.148 4.43,-2.308 c 4.66,8.992 9.04,18.172 13,27.308 l -4.59,1.993 c -3.92,-9.02 -8.24,-18.102 -12.84,-26.993" /><path
         id="path298"
         style="fill:#ffffff;fill-opacity:1;fill-rule:nonzero;stroke:none"
         d="m 4314.24,634.648 -4.81,-1.367 c 2.72,-9.57 5.14,-19.32 7.18,-28.98 l 4.88,1.031 c -2.06,9.77 -4.5,19.629 -7.25,29.316" /><path
         id="path300"
         style="fill:#ffffff;fill-opacity:1;fill-rule:nonzero;stroke:none"
         d="m 4293.8,691.43 -4.57,-2.02 c 3.98,-9.058 7.7,-18.371 11.05,-27.691 l 4.71,1.703 c -3.4,9.41 -7.16,18.828 -11.19,28.008" /><path
         id="path302"
         style="fill:#ffffff;fill-opacity:1;fill-rule:nonzero;stroke:none"
         d="m 4300.95,366.949 4.7,-1.679 c 3.35,9.441 6.43,19.121 9.14,28.812 l -4.83,1.348 c -2.67,-9.571 -5.7,-19.141 -9.01,-28.481" /><path
         id="path304"
         style="fill:#ffffff;fill-opacity:1;fill-rule:nonzero;stroke:none"
         d="m 4316.99,424.449 4.9,-1.008 c 2.03,9.739 3.73,19.758 5.1,29.758 l -4.96,0.692 c -1.34,-9.911 -3.04,-19.809 -5.04,-29.442" /><path
         id="path306"
         style="fill:#ffffff;fill-opacity:1;fill-rule:nonzero;stroke:none"
         d="m 4326.05,515.371 v -1.949 c 0,-9.891 -0.33,-19.922 -0.99,-29.852 l 4.98,-0.328 c 0.67,10.02 1.01,20.18 1.01,30.18 v 1.949 h -5" /><path
         id="path308"
         style="fill:#ffffff;fill-opacity:1;fill-rule:nonzero;stroke:none"
         d="m 4208.35,214.82 3.65,-3.41 c 6.83,7.301 13.51,14.961 19.87,22.77 l -3.89,3.16 c -6.28,-7.731 -12.88,-15.289 -19.63,-22.52" /><path
         id="path310"
         style="fill:#ffffff;fill-opacity:1;fill-rule:nonzero;stroke:none"
         d="m 4246.04,261.129 4.09,-2.887 c 5.8,8.207 11.38,16.699 16.6,25.278 l -4.28,2.589 c -5.15,-8.468 -10.66,-16.867 -16.41,-24.98" /><path
         id="path312"
         style="fill:#ffffff;fill-opacity:1;fill-rule:nonzero;stroke:none"
         d="m 4265.8,744.84 -4.26,-2.61 c 5.22,-8.48 10.18,-17.21 14.75,-25.96 l 4.43,2.32 c -4.63,8.851 -9.65,17.68 -14.92,26.25" /><path
         id="path314"
         style="fill:#ffffff;fill-opacity:1;fill-rule:nonzero;stroke:none"
         d="m 4116.04,139.59 2.6,-4.281 c 8.48,5.183 16.97,10.742 25.23,16.601 l -2.89,4.09 c -8.17,-5.789 -16.56,-11.309 -24.94,-16.41" /><path
         id="path316"
         style="fill:#ffffff;fill-opacity:1;fill-rule:nonzero;stroke:none"
         d="m 3828.73,74.8203 c 9.97,-1.3398 20.08,-2.3594 30.05,-3 l 0.33,4.9805 c -9.86,0.6406 -19.86,1.6601 -29.72,2.9883 l -0.66,-4.9688" /><path
         id="path318"
         style="fill:#ffffff;fill-opacity:1;fill-rule:nonzero;stroke:none"
         d="m 4285.04,759.199 c 0,-15.82 -12.83,-28.648 -28.65,-28.648 -15.82,0 -28.66,12.828 -28.66,28.648 0,15.821 12.84,28.653 28.66,28.653 15.82,0 28.65,-12.832 28.65,-28.653" /><path
         id="path320"
         style="fill:#ffffff;fill-opacity:1;fill-rule:nonzero;stroke:none"
         d="m 3808.05,100.762 c -8.7,0 -15.78,-7.0706 -15.78,-15.7815 0,-8.6914 7.08,-15.7813 15.78,-15.7813 8.7,0 15.78,7.0899 15.78,15.7813 0,8.7109 -7.08,15.7815 -15.78,15.7815 z m 0,-41.5628 c -14.22,0 -25.78,11.5625 -25.78,25.7813 0,14.2187 11.56,25.7815 25.78,25.7815 14.22,0 25.78,-11.5628 25.78,-25.7815 0,-14.2188 -11.56,-25.7813 -25.78,-25.7813" /><path
         id="path322"
         style="fill:#2fabb8;fill-opacity:1;fill-rule:nonzero;stroke:none"
         d="m 564.191,2978.93 c -23.074,0 -45.832,10.65 -60.449,30.72 -24.277,33.33 -16.906,80.08 16.414,104.34 13.262,9.66 28.649,14.31 43.895,14.31 23.082,0 45.844,-10.66 60.453,-30.74 24.273,-33.32 16.902,-80.07 -16.43,-104.33 -13.258,-9.65 -28.64,-14.3 -43.883,-14.3" /><path
         id="path324"
         style="fill:#2fabb8;fill-opacity:1;fill-rule:nonzero;stroke:none"
         d="m 712.145,2858.12 c -12.122,0 -24.086,5.6 -31.774,16.15 -12.742,17.51 -8.875,42.07 8.633,54.82 6.965,5.07 15.051,7.51 23.062,7.51 12.125,0 24.086,-5.59 31.762,-16.14 12.754,-17.51 8.875,-42.07 -8.64,-54.83 -6.961,-5.06 -15.04,-7.51 -23.043,-7.51" /><path
         id="path326"
         style="fill:#2fabb8;fill-opacity:1;fill-rule:nonzero;stroke:none"
         d="m 428.203,3179.36 c -6.707,0 -13.32,3.09 -17.57,8.93 -7.047,9.66 -4.899,23.26 4.777,30.31 3.848,2.8 8.313,4.15 12.738,4.15 6.711,0 13.329,-3.1 17.582,-8.93 7.051,-9.67 4.907,-23.27 -4.773,-30.32 -3.855,-2.79 -8.324,-4.14 -12.754,-4.14" /><path
         id="path328"
         style="fill:#2fabb8;fill-opacity:1;fill-rule:nonzero;stroke:none"
         d="m 4703.88,4155.61 c -36.19,0 -68.01,26.38 -73.72,63.27 -6.32,40.74 21.64,78.93 62.37,85.23 3.87,0.6 7.72,0.89 11.52,0.89 36.2,0 68.02,-26.39 73.72,-63.26 6.32,-40.76 -21.64,-78.93 -62.39,-85.24 -3.86,-0.6 -7.71,-0.89 -11.5,-0.89" /><path
         id="path330"
         style="fill:#2fabb8;fill-opacity:1;fill-rule:nonzero;stroke:none"
         d="m 4550.26,4332.27 c -13.59,0 -25.52,9.9 -27.66,23.75 -2.38,15.28 8.11,29.6 23.41,31.96 1.45,0.23 2.9,0.34 4.33,0.34 13.57,0 25.51,-9.9 27.65,-23.73 2.36,-15.3 -8.12,-29.62 -23.41,-31.98 -1.45,-0.23 -2.9,-0.34 -4.32,-0.34" /><path
         id="path332"
         style="fill:#2fabb8;fill-opacity:1;fill-rule:nonzero;stroke:none"
         d="m 4832.93,1558.87 c -9.76,0 -17.68,7.92 -17.68,17.67 0,9.76 7.92,17.69 17.68,17.69 9.76,0 17.68,-7.93 17.68,-17.69 0,-9.75 -7.92,-17.67 -17.68,-17.67" /><path
         id="path334"
         style="fill:#5abdc5;fill-opacity:1;fill-rule:nonzero;stroke:none"
         d="M 806.965,0 H 119.789 L 284.25,831.09 h 517.531 l 171.289,952.73 c 0.016,0 0.028,0 0.043,0 7.774,0 243.297,2.55 243.297,2.55 43.96,0.48 79.1,39.83 78.53,87.81 -0.29,26.74 -11.61,50.5 -29.16,66.26 33.03,17.39 55.69,54.43 55.23,97.22 -0.38,32.17 -13.78,60.82 -34.63,80.15 35.09,17.86 59.02,54.29 58.57,96.18 -0.35,30.99 -14.03,58.67 -35.48,77.92 28.32,18.95 47.11,53.17 46.68,92.14 -0.03,1.87 -0.09,3.72 -0.2,5.56 52.38,-1.39 94.72,-47.9 95.4,-105.56 0.43,-38.97 -18.36,-73.19 -46.68,-92.14 21.45,-19.25 35.13,-46.93 35.48,-77.92 0.45,-41.89 -23.47,-78.32 -58.57,-96.18 16.49,-15.3 28.33,-36.42 32.74,-60.51 0.31,-9.95 0.86,-20 1.56,-29.84 -2.91,-38.41 -24.52,-71.03 -54.9,-87.02 17.54,-15.76 28.87,-39.52 29.16,-66.26 0.57,-47.98 -34.57,-87.33 -78.53,-87.81 0,0 -235.52,-2.55 -243.3,-2.55 -0.01,0 -0.03,0 -0.04,0 l -35.84,-199.35 20.17,-3.52 -21.98,-116.31 25.31,-4.43 L 806.965,0 m 193.985,2486.55 15.87,38.3 54.74,234.9 c 0,0 19.06,115.36 10.07,180.66 23.94,-0.73 54.19,-15.71 85.53,-67.25 27.41,-45.1 -0.4,-213.41 -0.4,-213.41 l -40.01,-171.68 -125.8,-1.52" /><path
         id="path336"
         style="fill:#ffd8b5;fill-opacity:1;fill-rule:nonzero;stroke:none"
         d="m 1344.95,2213.99 c -0.35,30.99 -14.03,58.67 -35.48,77.92 28.32,18.95 47.11,53.17 46.68,92.14 -0.7,58.91 -44.87,106.18 -98.82,105.59 l -256.38,-3.09 15.87,38.3 54.74,234.9 c 0,0 27.8,168.31 0.4,213.41 -70.55,116.04 -135.597,46.75 -135.597,46.75 0,0 -78.41,-297.49 -186.578,-517.89 L 546.5,2210.98 265.105,831.09 h 536.676 l 171.289,952.73 c 6.895,-0.01 243.34,2.55 243.34,2.55 43.96,0.48 79.1,39.83 78.53,87.81 -0.29,26.74 -11.61,50.5 -29.16,66.26 33.03,17.39 55.69,54.43 55.23,97.22 -0.38,32.17 -13.78,60.82 -34.63,80.15 35.09,17.86 59.02,54.29 58.57,96.18" /><path
         id="path338"
         style="fill:#bce8eb;fill-opacity:1;fill-rule:nonzero;stroke:none"
         d="m 910.488,2929.49 c -0.746,0.33 -1.492,0.66 -2.246,0.98 l 26.153,90.46 c 0,0 1.312,0.32 3.656,0.62 -1.11,-1.02 -1.688,-1.64 -1.688,-1.64 0,0 -9.285,-35.23 -25.875,-90.42" /><path
         id="path340"
         style="fill:#ffefe0;fill-opacity:1;fill-rule:nonzero;stroke:none"
         d="m 953.469,2889.12 c -4.414,8.71 -12.219,18.71 -20.055,25.98 -6.621,6.08 -14.574,10.66 -22.926,14.39 16.59,55.19 25.875,90.42 25.875,90.42 0,0 0.578,0.62 1.688,1.64 2.16,0.28 5.191,0.55 8.879,0.55 13.414,0 35.5,-3.56 55.77,-23.11 0,0 -12.235,-78.26 -49.231,-109.87" /><path
         id="path342"
         style="fill:#bce8eb;fill-opacity:1;fill-rule:nonzero;stroke:none"
         d="m 895.84,2881.82 c -0.485,0.22 -0.973,0.45 -1.461,0.69 v 0 c 0.492,-0.23 0.98,-0.45 1.469,-0.67 l -0.008,-0.02" /><path
         id="path344"
         style="fill:#ffefe0;fill-opacity:1;fill-rule:nonzero;stroke:none"
         d="m 921.23,2875.8 c -7.902,0 -16.441,1.89 -25.39,6.02 l 0.008,0.02 c 8.859,-3.95 17.039,-5.71 24.597,-5.71 12.727,0 23.668,5 33.024,12.99 0.011,-0.02 0.023,-0.04 0.031,-0.06 -8.441,-8.35 -19.523,-13.26 -32.27,-13.26" /><path
         id="path346"
         style="fill:#bce8eb;fill-opacity:1;fill-rule:nonzero;stroke:none"
         d="m 894.379,2882.51 13.18,48.25 c 0.226,-0.1 0.457,-0.2 0.683,-0.29 l -13.863,-47.96" /><path
         id="path348"
         style="fill:#e3f5f7;fill-opacity:1;fill-rule:nonzero;stroke:none"
         d="m 895.848,2881.84 c -0.489,0.22 -0.977,0.44 -1.469,0.67 v 0 l 13.863,47.96 c 0.754,-0.32 1.5,-0.65 2.246,-0.98 -4.383,-14.59 -9.273,-30.56 -14.64,-47.65" /><path
         id="path350"
         style="fill:#fff8f2;fill-opacity:1;fill-rule:nonzero;stroke:none"
         d="m 920.445,2876.13 c -7.558,0 -15.738,1.76 -24.597,5.71 5.367,17.09 10.257,33.06 14.64,47.65 8.352,-3.73 16.305,-8.31 22.926,-14.39 7.836,-7.27 15.641,-17.27 20.055,-25.98 -9.356,-7.99 -20.297,-12.99 -33.024,-12.99" /><path
         id="path352"
         style="fill:#ffffff;fill-opacity:1;fill-rule:nonzero;stroke:none"
         d="m 357.371,1498.14 565.695,-98.84 34.336,181.65 -565.714,98.9 -34.317,-181.71" /><path
         id="path354"
         style="fill:#243a38;fill-opacity:1;fill-rule:nonzero;stroke:none"
         d="M 693.457,0 960.73,1460.21 316.047,1572.86 4.80078,0 H 693.457" /><path
         id="path356"
         style="fill:#243a38;fill-opacity:1;fill-rule:nonzero;stroke:none"
         d="m 424.988,1609.94 c -2.465,-12.89 6.305,-25.13 19.555,-27.47 13.25,-2.28 25.937,6.23 28.352,19.11 2.433,12.81 -6.352,25.1 -19.559,27.38 -13.238,2.34 -25.863,-6.17 -28.348,-19.02" /><path
         id="path358"
         style="fill:#5abdc5;fill-opacity:1;fill-rule:nonzero;stroke:none"
         d="m 2983.6,0 h -118.3 l 231.21,1263.17 -44.45,7.77 56.79,315.83 c 0.01,0 0.03,0 0.04,0 7.75,0 243.3,2.56 243.3,2.56 43.96,0.46 79.1,39.82 78.53,87.8 -0.29,26.75 -11.62,50.51 -29.16,66.26 33.03,17.39 55.7,54.43 55.23,97.22 -0.37,32.18 -13.79,60.83 -34.63,80.15 35.1,17.86 59.02,54.29 58.57,96.19 -0.35,30.99 -14.03,58.66 -35.48,77.91 28.32,18.96 47.1,53.17 46.67,92.15 -0.02,1.87 -0.08,3.72 -0.19,5.56 l 1.39,0.02 c 0.33,0 0.67,0 1,0 53.48,0 97.12,-47.04 97.8,-105.58 0.43,-38.98 -18.35,-73.19 -46.67,-92.15 21.45,-19.25 35.13,-46.92 35.48,-77.91 0.45,-41.9 -23.47,-78.33 -58.57,-96.19 20.84,-19.32 34.26,-47.97 34.63,-80.15 0.47,-42.79 -22.2,-79.83 -55.23,-97.22 17.54,-15.75 28.87,-39.51 29.16,-66.26 0.57,-47.98 -34.57,-87.33 -78.53,-87.8 0,0 -235.55,-2.56 -243.3,-2.56 -0.01,0 -0.03,0 -0.04,0 l -35.84,-199.35 20.17,-3.52 -21.98,-116.3 25.31,-4.43 L 2983.6,0 m 153.13,2289.51 15.87,38.3 54.74,234.9 c 0,0 19.05,115.3 10.07,180.61 0.97,0.05 1.95,0.07 2.94,0.07 24.23,0 55.24,-14.4 87.38,-67.27 27.42,-45.1 -0.39,-213.42 -0.39,-213.42 l -40,-171.62 -130.61,-1.57" /><path
         id="path360"
         style="fill:#93725c;fill-opacity:1;fill-rule:nonzero;stroke:none"
         d="m 3480.73,2016.95 c -0.35,30.99 -14.03,58.66 -35.48,77.91 28.32,18.96 47.1,53.17 46.67,92.15 -0.69,58.91 -44.87,106.17 -98.81,105.58 l -256.38,-3.08 15.87,38.3 54.74,234.9 c 0,0 27.81,168.31 0.39,213.41 -70.54,116.03 -135.59,46.74 -135.59,46.74 0,0 -78.41,-297.49 -186.57,-517.88 L 2682.28,2013.94 2400.89,634.051 h 536.67 l 171.29,952.719 c 6.89,-0.01 243.34,2.56 243.34,2.56 43.96,0.46 79.1,39.82 78.53,87.8 -0.29,26.75 -11.62,50.51 -29.16,66.26 33.03,17.39 55.7,54.43 55.23,97.22 -0.37,32.18 -13.79,60.83 -34.63,80.15 35.1,17.86 59.02,54.29 58.57,96.19" /><path
         id="path362"
         style="fill:#a3c3bf;fill-opacity:1;fill-rule:nonzero;stroke:none"
         d="m 3046.27,2732.44 c -0.75,0.34 -1.5,0.66 -2.25,0.98 l 26.16,90.46 c 0,0 1.31,0.32 3.65,0.62 -1.11,-1.02 -1.69,-1.64 -1.69,-1.64 0,0 -9.29,-35.22 -25.87,-90.42" /><path
         id="path364"
         style="fill:#b99f8e;fill-opacity:1;fill-rule:nonzero;stroke:none"
         d="m 3089.25,2692.08 c -4.41,8.7 -12.22,18.7 -20.06,25.97 -6.62,6.09 -14.58,10.67 -22.92,14.39 16.58,55.2 25.87,90.42 25.87,90.42 0,0 0.58,0.62 1.69,1.64 2.16,0.28 5.19,0.55 8.87,0.55 13.41,0 35.5,-3.56 55.78,-23.11 0,0 -12.24,-78.26 -49.23,-109.86" /><path
         id="path366"
         style="fill:#b4cdc3;fill-opacity:1;fill-rule:nonzero;stroke:none"
         d="m 3031.62,2684.77 c -0.49,0.23 -0.97,0.46 -1.46,0.69 v 0 c 0.49,-0.23 0.98,-0.45 1.47,-0.67 l -0.01,-0.02" /><path
         id="path368"
         style="fill:#caaa93;fill-opacity:1;fill-rule:nonzero;stroke:none"
         d="m 3057.01,2678.75 c -7.9,0 -16.44,1.89 -25.39,6.02 l 0.01,0.02 c 8.85,-3.95 17.03,-5.71 24.59,-5.71 12.73,0 23.67,5.01 33.03,13 0.01,-0.02 0.02,-0.04 0.03,-0.06 -8.45,-8.36 -19.53,-13.27 -32.27,-13.27" /><path
         id="path370"
         style="fill:#b4cdc3;fill-opacity:1;fill-rule:nonzero;stroke:none"
         d="m 3030.16,2685.46 13.18,48.25 c 0.23,-0.09 0.46,-0.19 0.68,-0.29 l -13.86,-47.96" /><path
         id="path372"
         style="fill:#d1ccbc;fill-opacity:1;fill-rule:nonzero;stroke:none"
         d="m 3031.63,2684.79 c -0.49,0.22 -0.98,0.44 -1.47,0.67 v 0 l 13.86,47.96 c 0.75,-0.32 1.5,-0.64 2.25,-0.98 -4.39,-14.58 -9.28,-30.55 -14.64,-47.65" /><path
         id="path374"
         style="fill:#dabda8;fill-opacity:1;fill-rule:nonzero;stroke:none"
         d="m 3056.22,2679.08 c -7.56,0 -15.74,1.76 -24.59,5.71 5.36,17.1 10.25,33.07 14.64,47.65 8.34,-3.72 16.3,-8.3 22.92,-14.39 7.84,-7.27 15.65,-17.27 20.06,-25.97 -9.36,-7.99 -20.3,-13 -33.03,-13" /><path
         id="path376"
         style="fill:#ffffff;fill-opacity:1;fill-rule:nonzero;stroke:none"
         d="m 2493.14,1301.09 565.71,-98.83 34.33,181.64 -565.72,98.9 -34.32,-181.71" /><path
         id="path378"
         style="fill:#333745;fill-opacity:1;fill-rule:nonzero;stroke:none"
         d="M 2865.3,0 3096.51,1263.17 2451.82,1375.81 2179.57,0 h 685.73" /><path
         id="path380"
         style="fill:#333745;fill-opacity:1;fill-rule:nonzero;stroke:none"
         d="m 2560.77,1412.9 c -2.47,-12.89 6.3,-25.14 19.55,-27.47 13.25,-2.29 25.94,6.22 28.35,19.1 2.43,12.81 -6.36,25.1 -19.56,27.38 -13.23,2.35 -25.86,-6.17 -28.34,-19.01" /><path
         id="path382"
         style="fill:#5abdc5;fill-opacity:1;fill-rule:nonzero;stroke:none"
         d="m 3705.57,0 h -137.96 l 70.48,391.992 c 0.01,0 0.02,0 0.04,0 7.74,0 243.29,2.559 243.29,2.559 43.96,0.469 79.1,39.82 78.53,87.801 -0.28,26.75 -11.62,50.507 -29.16,66.257 33.04,17.403 55.69,54.442 55.23,97.223 -0.38,32.188 -13.78,60.828 -34.63,80.16 35.09,17.86 59.02,54.278 58.57,96.188 -0.34,30.98 -14.03,58.652 -35.48,77.91 28.32,18.949 47.11,53.16 46.68,92.14 -0.02,1.872 -0.09,3.719 -0.2,5.571 l 1.38,0.008 c 0.34,0.011 0.67,0.011 1.01,0.011 53.48,0 97.11,-47.058 97.81,-105.59 0.43,-38.98 -18.36,-73.191 -46.68,-92.14 21.45,-19.258 35.14,-46.93 35.48,-77.91 0.45,-41.91 -23.48,-78.328 -58.57,-96.188 20.85,-19.332 34.25,-47.972 34.63,-80.16 0.46,-42.781 -22.19,-79.82 -55.23,-97.223 17.54,-15.75 28.88,-39.507 29.16,-66.257 0.57,-47.973 -34.57,-87.332 -78.53,-87.801 0,0 -235.67,-2.559 -243.3,-2.559 -0.01,0 -0.02,0 -0.03,0 L 3702.25,92.6523 3722.41,89.1211 3705.57,0 m -39.6,1094.74 15.86,38.3 54.74,234.89 c 0,0 19.05,115.3 10.07,180.62 0.97,0.04 1.94,0.07 2.93,0.07 24.23,0 55.24,-14.39 87.39,-67.27 27.42,-45.11 -0.39,-213.42 -0.39,-213.42 l -40,-171.63 -130.6,-1.56" /><path
         id="path384"
         style="fill:#ffd8b5;fill-opacity:1;fill-rule:nonzero;stroke:none"
         d="m 3567.61,0 70.48,391.992 c 6.88,-0.012 243.33,2.559 243.33,2.559 43.96,0.469 79.1,39.82 78.53,87.801 -0.28,26.75 -11.62,50.507 -29.16,66.257 33.04,17.403 55.69,54.442 55.23,97.223 -0.38,32.188 -13.78,60.828 -34.63,80.16 35.09,17.86 59.02,54.278 58.57,96.188 -0.34,30.98 -14.03,58.652 -35.48,77.91 28.32,18.949 47.11,53.16 46.68,92.14 -0.7,58.9 -44.87,106.18 -98.82,105.58 l -256.37,-3.07 15.86,38.3 54.74,234.89 c 0,0 27.8,168.31 0.39,213.42 -70.54,116.02 -135.59,46.75 -135.59,46.75 0,0 -78.4,-297.5 -186.57,-517.89 L 3211.5,819.16 3044.46,0 h 523.15" /><path
         id="path386"
         style="fill:#bce8eb;fill-opacity:1;fill-rule:nonzero;stroke:none"
         d="m 3575.5,1537.67 c -0.75,0.33 -1.5,0.66 -2.25,0.98 l 26.15,90.46 c 0,0 1.32,0.32 3.66,0.62 -1.11,-1.02 -1.69,-1.63 -1.69,-1.63 0,0 -9.29,-35.24 -25.87,-90.43" /><path
         id="path388"
         style="fill:#ffefe0;fill-opacity:1;fill-rule:nonzero;stroke:none"
         d="m 3618.49,1497.31 c -4.42,8.69 -12.23,18.7 -20.06,25.97 -6.63,6.08 -14.58,10.66 -22.93,14.39 16.58,55.19 25.87,90.43 25.87,90.43 0,0 0.58,0.61 1.69,1.63 2.15,0.28 5.18,0.55 8.87,0.55 13.41,0 35.5,-3.56 55.77,-23.11 0,0 -12.22,-78.27 -49.21,-109.86" /><path
         id="path390"
         style="fill:#bce8eb;fill-opacity:1;fill-rule:nonzero;stroke:none"
         d="m 3560.85,1490 c -0.48,0.23 -0.97,0.46 -1.46,0.69 v 0 c 0.5,-0.23 0.98,-0.45 1.47,-0.67 l -0.01,-0.02" /><path
         id="path392"
         style="fill:#ffefe0;fill-opacity:1;fill-rule:nonzero;stroke:none"
         d="m 3586.25,1483.97 c -7.91,0 -16.45,1.9 -25.4,6.03 l 0.01,0.02 c 8.86,-3.95 17.04,-5.71 24.6,-5.71 12.73,0 23.67,5 33.03,13 0.01,-0.02 0.02,-0.04 0.03,-0.06 -8.45,-8.36 -19.53,-13.28 -32.27,-13.28" /><path
         id="path394"
         style="fill:#bce8eb;fill-opacity:1;fill-rule:nonzero;stroke:none"
         d="m 3559.39,1490.69 13.18,48.25 c 0.23,-0.1 0.46,-0.2 0.68,-0.29 l -13.86,-47.96" /><path
         id="path396"
         style="fill:#e3f5f7;fill-opacity:1;fill-rule:nonzero;stroke:none"
         d="m 3560.86,1490.02 c -0.49,0.22 -0.97,0.44 -1.47,0.67 v 0 l 13.86,47.96 c 0.75,-0.32 1.5,-0.65 2.25,-0.98 -4.39,-14.59 -9.28,-30.55 -14.64,-47.65" /><path
         id="path398"
         style="fill:#fff8f2;fill-opacity:1;fill-rule:nonzero;stroke:none"
         d="m 3585.46,1484.31 c -7.56,0 -15.74,1.76 -24.6,5.71 5.36,17.1 10.25,33.06 14.64,47.65 8.35,-3.73 16.3,-8.31 22.93,-14.39 7.83,-7.27 15.64,-17.28 20.06,-25.97 -9.36,-8 -20.3,-13 -33.03,-13" /><path
         id="path400"
         style="fill:#ffffff;fill-opacity:1;fill-rule:nonzero;stroke:none"
         d="M 3022.38,106.32 3588.08,7.48047 3622.41,189.121 3056.7,288.031 3022.38,106.32" /><path
         id="path402"
         style="fill:#574946;fill-opacity:1;fill-rule:nonzero;stroke:none"
         d="M 3613.22,0 3625.74,68.3984 2981.05,181.039 2945.23,0 h 667.99" /><path
         id="path404"
         style="fill:#574946;fill-opacity:1;fill-rule:nonzero;stroke:none"
         d="m 3090,218.121 c -2.46,-12.891 6.3,-25.129 19.55,-27.473 13.25,-2.277 25.94,6.223 28.36,19.114 2.42,12.808 -6.36,25.09 -19.56,27.379 -13.24,2.339 -25.87,-6.172 -28.35,-19.02" /><path
         id="path406"
         style="fill:#5abdc5;fill-opacity:1;fill-rule:nonzero;stroke:none"
         d="M 2196.51,85.6094 1951.58,1286.65 1748.3,1577.7 c -61.11,124.51 -112.72,273.61 -146.06,379.79 0.49,0.23 0.97,0.46 1.46,0.69 v 0 l -13.18,48.26 c -0.23,-0.1 -0.46,-0.2 -0.68,-0.29 l -1.39,4.79 c 8.92,3.7 17.34,5.17 25.07,5.17 23.92,0 41.24,-14.03 46.52,-18.89 2.33,-0.31 3.65,-0.62 3.65,-0.62 l 26.15,-90.48 0.68,0.32 13.18,-48.26 -1.48,-0.6 c 33.34,-106.19 84.95,-255.33 146.08,-379.88 l 203.28,-291.05 109.91,-538.978 44.9,7.848 21.97,-116.36 53.68,9.371 3.04,-15.351 -88.57,-447.5706" /><path
         id="path408"
         style="fill:#303441;fill-opacity:1;fill-rule:nonzero;stroke:none"
         d="M 2390.59,0 H 2213.97 L 2196.51,85.6094 2285.08,533.18 2390.59,0" /><path
         id="path410"
         style="fill:#5abdc5;fill-opacity:1;fill-rule:nonzero;stroke:none"
         d="m 1542.84,760.309 c -70.66,0.75 -161.16,1.73 -161.16,1.73 -43.97,0.473 -79.11,39.832 -78.54,87.801 0.05,4.062 0.35,8.051 0.88,11.961 59.1,-0.641 215.41,-2.321 220.99,-2.321 l 17.83,-99.171" /><path
         id="path412"
         style="fill:#f2caaa;fill-opacity:1;fill-rule:nonzero;stroke:none"
         d="m 1188.61,1367.58 c -21.45,-19.26 -35.13,-46.93 -35.48,-77.91 -0.44,-41.9 23.48,-78.32 58.57,-96.19 -20.84,-19.33 -34.25,-47.97 -34.62,-80.16 -0.47,-42.77 22.19,-79.82 55.22,-97.21 -17.54,-15.76 -28.87,-39.52 -29.16,-66.27 -0.57,-47.969 34.57,-87.328 78.53,-87.801 0,0 236.45,-2.559 243.34,-2.559 L 1679.54,0 h 534.43 L 1951.58,1286.65 1748.3,1577.7 c -108.17,220.4 -186.58,517.89 -186.58,517.89 0,0 -65.05,69.27 -135.59,-46.75 -27.41,-45.1 0.39,-213.41 0.39,-213.41 l 54.74,-234.9 15.87,-38.3 -256.38,3.07 c -53.94,0.61 -98.12,-46.67 -98.82,-105.57 -0.43,-38.99 18.36,-73.2 46.68,-92.15" /><path
         id="path414"
         style="fill:#bce8eb;fill-opacity:1;fill-rule:nonzero;stroke:none"
         d="m 1586.16,2009.94 c -15.69,52.44 -24.44,85.65 -24.44,85.65 0,0 -0.58,0.61 -1.69,1.63 2.34,-0.3 3.66,-0.62 3.66,-0.62 l 24.76,-85.66 c -0.76,-0.32 -1.52,-0.65 -2.29,-1" /><path
         id="path416"
         style="fill:#bae3e7;fill-opacity:1;fill-rule:nonzero;stroke:none"
         d="m 1587.59,2005.17 c -0.48,1.6 -0.96,3.2 -1.43,4.77 0.77,0.35 1.53,0.68 2.29,1 l 1.39,-4.79 c -0.75,-0.32 -1.5,-0.65 -2.25,-0.98" /><path
         id="path418"
         style="fill:#fae9db;fill-opacity:1;fill-rule:nonzero;stroke:none"
         d="m 1544.61,1964.8 c -36.99,31.59 -49.22,109.86 -49.22,109.86 20.27,19.55 42.36,23.11 55.77,23.11 3.69,0 6.72,-0.27 8.87,-0.55 1.11,-1.02 1.69,-1.63 1.69,-1.63 0,0 8.75,-33.21 24.44,-85.65 0.47,-1.57 0.95,-3.17 1.43,-4.77 -8.35,-3.73 -16.3,-8.32 -22.92,-14.4 -7.84,-7.27 -15.64,-17.27 -20.06,-25.97" /><path
         id="path420"
         style="fill:#bae3e7;fill-opacity:1;fill-rule:nonzero;stroke:none"
         d="m 1602.24,1957.49 v 0.02 c 0.48,0.22 0.97,0.44 1.46,0.67 v 0 c -0.49,-0.23 -0.97,-0.46 -1.46,-0.69 m 1.46,0.69 -13.86,47.97 c 0.22,0.09 0.45,0.19 0.68,0.29 l 13.18,-48.26" /><path
         id="path422"
         style="fill:#fae9db;fill-opacity:1;fill-rule:nonzero;stroke:none"
         d="m 1576.85,1951.46 c -12.74,0 -23.83,4.92 -32.27,13.28 0.01,0.02 0.02,0.04 0.03,0.06 9.36,-8 20.3,-13 33.03,-13 7.55,0 15.74,1.76 24.6,5.71 v -0.02 c -8.95,-4.13 -17.49,-6.03 -25.39,-6.03" /><path
         id="path424"
         style="fill:#e2f3f5;fill-opacity:1;fill-rule:nonzero;stroke:none"
         d="m 1602.24,1957.51 c -5.37,17.1 -10.26,33.07 -14.65,47.66 0.75,0.33 1.5,0.66 2.25,0.98 l 13.86,-47.97 c -0.49,-0.23 -0.98,-0.45 -1.46,-0.67" /><path
         id="path426"
         style="fill:#fdf6f0;fill-opacity:1;fill-rule:nonzero;stroke:none"
         d="m 1577.64,1951.8 c -12.73,0 -23.67,5 -33.03,13 4.42,8.7 12.22,18.7 20.06,25.97 6.62,6.08 14.57,10.67 22.92,14.4 4.39,-14.59 9.28,-30.56 14.65,-47.66 -8.86,-3.95 -17.05,-5.71 -24.6,-5.71" /><path
         id="path428"
         style="fill:#ffffff;fill-opacity:1;fill-rule:nonzero;stroke:none"
         d="m 2140.7,573.809 -565.69,-98.84 -34.33,181.652 565.71,98.899 34.31,-181.711" /><path
         id="path430"
         style="fill:#5a4b53;fill-opacity:1;fill-rule:nonzero;stroke:none"
         d="M 2310.37,0 2182.04,648.539 1537.35,535.891 1635.44,0 h 674.93" /><path
         id="path432"
         style="fill:#5a4b53;fill-opacity:1;fill-rule:nonzero;stroke:none"
         d="m 2073.09,685.621 c 2.47,-12.902 -6.3,-25.129 -19.55,-27.48 -13.25,-2.282 -25.93,6.23 -28.35,19.121 -2.43,12.797 6.35,25.078 19.56,27.367 13.24,2.34 25.86,-6.16 28.34,-19.008" /><path
         id="path434"
         style="fill:#5abdc5;fill-opacity:1;fill-rule:nonzero;stroke:none"
         d="m 5000,0 h -606.12 l -71.72,424.742 c 1.91,9.328 3.53,18.906 4.83,28.457 l -4.96,0.692 c -0.67,-4.969 -1.43,-9.942 -2.28,-14.879 l -48.34,286.328 c 1.67,-3.008 3.3,-6.039 4.88,-9.07 l 4.43,2.32 c -2.87,5.492 -5.89,10.969 -9.03,16.39 8.02,5.071 13.35,14.032 13.35,24.219 0,14.281 -10.46,26.133 -24.13,28.301 l -116.75,691.45 h 506.3 l -281.4,1379.88 -203.29,291.05 c -61.11,124.51 -112.72,273.61 -146.05,379.8 0.48,0.22 0.97,0.45 1.45,0.69 v 0 l -13.17,48.24 c -0.23,-0.09 -0.46,-0.19 -0.69,-0.29 l -1.39,4.8 c 8.93,3.71 17.34,5.17 25.07,5.17 23.92,0 41.23,-14.02 46.52,-18.89 2.33,-0.3 3.65,-0.62 3.65,-0.62 l 26.15,-90.47 0.69,0.3 13.17,-48.24 -1.48,-0.61 c 33.34,-106.19 84.95,-255.33 146.08,-379.88 l 203.29,-291.05 109.91,-538.98 44.89,7.84 21.97,-116.35 53.68,9.37 L 5000,451.34 V 0 m -673.95,515.371 v -1.949 c 0,-9.891 -0.33,-19.922 -0.99,-29.852 l 4.98,-0.328 c 0.67,10.02 1.01,20.18 1.01,30.18 v 1.949 h -5 m 0.67,60.219 -4.95,-0.711 c 1.37,-9.738 2.43,-19.719 3.15,-29.68 l 4.98,0.352 c -0.72,10.078 -1.78,20.168 -3.18,30.039 m -12.48,59.058 -4.81,-1.367 c 2.72,-9.57 5.14,-19.32 7.18,-28.98 l 4.88,1.031 c -2.06,9.77 -4.5,19.629 -7.25,29.316 m -20.44,56.782 -4.57,-2.02 c 3.98,-9.058 7.7,-18.371 11.05,-27.691 l 4.71,1.703 c -3.4,9.41 -7.16,18.828 -11.19,28.008 m 342.46,603.13 c -41.23,0 -74.69,-33.46 -74.69,-74.7 0,-41.23 33.46,-74.68 74.69,-74.68 41.24,0 74.69,33.45 74.69,74.68 0,41.24 -33.45,74.7 -74.69,74.7 m 133.34,166.66 c -22.82,0 -41.35,-18.52 -41.35,-41.36 0,-22.82 18.53,-41.34 41.35,-41.34 22.83,0 41.35,18.52 41.35,41.34 0,22.84 -18.52,41.36 -41.35,41.36 m -189.76,646.97 c -9.69,-2.01 -19.64,-3.49 -29.6,-4.41 l 0.47,-4.98 c 10.13,0.95 20.27,2.45 30.14,4.49 l -1.01,4.9 m 56.83,18.52 c -9.04,-4.12 -18.43,-7.76 -27.9,-10.85 l 1.55,-4.76 c 9.64,3.15 19.21,6.87 28.41,11.06 l -2.06,4.55" /><path
         id="path436"
         style="fill:#f2f2f2;fill-opacity:1;fill-rule:nonzero;stroke:none"
         d="m 4610.32,2111.1 -1.55,4.76 c 9.47,3.09 18.86,6.73 27.9,10.85 l 2.06,-4.55 c -9.2,-4.19 -18.77,-7.91 -28.41,-11.06" /><path
         id="path438"
         style="fill:#f2f2f2;fill-opacity:1;fill-rule:nonzero;stroke:none"
         d="m 4550.71,2098.8 -0.47,4.98 c 9.96,0.92 19.91,2.4 29.6,4.41 l 1.01,-4.9 c -9.87,-2.04 -20.01,-3.54 -30.14,-4.49" /><path
         id="path440"
         style="fill:#f2f2f2;fill-opacity:1;fill-rule:nonzero;stroke:none"
         d="m 4324.92,545.199 c -0.72,9.961 -1.78,19.942 -3.15,29.68 l 4.95,0.711 c 1.4,-9.871 2.46,-19.961 3.18,-30.039 l -4.98,-0.352" /><path
         id="path442"
         style="fill:#f2f2f2;fill-opacity:1;fill-rule:nonzero;stroke:none"
         d="m 4316.61,604.301 c -2.04,9.66 -4.46,19.41 -7.18,28.98 l 4.81,1.367 c 2.75,-9.687 5.19,-19.546 7.25,-29.316 l -4.88,-1.031" /><path
         id="path444"
         style="fill:#f2f2f2;fill-opacity:1;fill-rule:nonzero;stroke:none"
         d="m 4300.28,661.719 c -3.35,9.32 -7.07,18.633 -11.05,27.691 l 4.57,2.02 c 4.03,-9.18 7.79,-18.598 11.19,-28.008 l -4.71,-1.703" /><path
         id="path446"
         style="fill:#f2f2f2;fill-opacity:1;fill-rule:nonzero;stroke:none"
         d="m 4322.16,424.742 -2.41,14.27 c 0.85,4.937 1.61,9.91 2.28,14.879 l 4.96,-0.692 c -1.3,-9.551 -2.92,-19.129 -4.83,-28.457" /><path
         id="path448"
         style="fill:#f2f2f2;fill-opacity:1;fill-rule:nonzero;stroke:none"
         d="m 4330.04,483.242 -4.98,0.328 c 0.66,9.93 0.99,19.961 0.99,29.852 v 1.949 h 5 v -1.949 c 0,-10 -0.34,-20.16 -1.01,-30.18" /><path
         id="path450"
         style="fill:#f2f2f2;fill-opacity:1;fill-rule:nonzero;stroke:none"
         d="m 4276.29,716.27 c -1.58,3.031 -3.21,6.062 -4.88,9.07 l -1.46,8.621 c 0.59,0.32 1.18,0.66 1.74,1.019 3.14,-5.421 6.16,-10.898 9.03,-16.39 l -4.43,-2.32" /><path
         id="path452"
         style="fill:#f2f2f2;fill-opacity:1;fill-rule:nonzero;stroke:none"
         d="m 4269.95,733.961 -9.04,53.539 c 13.67,-2.168 24.13,-14.02 24.13,-28.301 0,-10.187 -5.33,-19.148 -13.35,-24.219 -0.56,-0.359 -1.15,-0.699 -1.74,-1.019" /><path
         id="path454"
         style="fill:#2da2af;fill-opacity:1;fill-rule:nonzero;stroke:none"
         d="m 4636.26,1145.18 c -41.23,0 -74.69,33.45 -74.69,74.68 0,41.24 33.46,74.7 74.69,74.7 41.24,0 74.69,-33.46 74.69,-74.7 0,-41.23 -33.45,-74.68 -74.69,-74.68" /><path
         id="path456"
         style="fill:#2da2af;fill-opacity:1;fill-rule:nonzero;stroke:none"
         d="m 4769.6,1378.52 c -22.82,0 -41.35,18.52 -41.35,41.34 0,22.84 18.53,41.36 41.35,41.36 22.83,0 41.35,-18.52 41.35,-41.36 0,-22.82 -18.52,-41.34 -41.35,-41.34" /><path
         id="path458"
         style="fill:#5abdc5;fill-opacity:1;fill-rule:nonzero;stroke:none"
         d="m 3960.31,2332.49 c -70.65,0.75 -161.16,1.73 -161.16,1.73 -43.96,0.47 -79.1,39.83 -78.53,87.8 0.04,4.06 0.34,8.05 0.87,11.96 59.11,-0.64 215.41,-2.32 220.99,-2.32 l 17.83,-99.17" /><path
         id="path460"
         style="fill:#f2d2b8;fill-opacity:1;fill-rule:nonzero;stroke:none"
         d="m 3570.61,2861.85 c 0.34,30.99 14.03,58.65 35.47,77.91 -28.32,18.96 -47.1,53.17 -46.68,92.14 0.71,58.91 44.88,106.19 98.82,105.59 l 256.38,-3.09 -15.86,38.31 -54.75,234.9 c 0,0 -27.8,168.31 -0.39,213.41 70.55,116.03 135.6,46.74 135.6,46.74 0,0 78.4,-297.49 186.57,-517.88 l 203.29,-291.05 281.4,-1379.88 h -536.68 l -171.3,952.71 c -6.88,0 -243.33,2.56 -243.33,2.56 -43.96,0.47 -79.1,39.83 -78.54,87.8 0.3,26.75 11.63,50.51 29.17,66.27 -33.04,17.39 -55.7,54.43 -55.23,97.21 0.37,32.19 13.78,60.83 34.63,80.16 -35.1,17.86 -59.02,54.29 -58.57,96.19" /><path
         id="path462"
         style="fill:#bce8eb;fill-opacity:1;fill-rule:nonzero;stroke:none"
         d="m 4003.64,3582.12 c -15.69,52.45 -24.44,85.64 -24.44,85.64 0,0 -0.58,0.62 -1.69,1.65 2.34,-0.31 3.65,-0.63 3.65,-0.63 l 24.76,-85.66 c -0.76,-0.32 -1.52,-0.65 -2.28,-1" /><path
         id="path464"
         style="fill:#bae3e7;fill-opacity:1;fill-rule:nonzero;stroke:none"
         d="m 4005.07,3577.35 c -0.48,1.6 -0.96,3.2 -1.43,4.77 0.76,0.35 1.52,0.68 2.28,1 l 1.39,-4.8 c -0.75,-0.32 -1.5,-0.64 -2.24,-0.97" /><path
         id="path466"
         style="fill:#faece1;fill-opacity:1;fill-rule:nonzero;stroke:none"
         d="m 3962.08,3536.98 c -36.99,31.6 -49.22,109.86 -49.22,109.86 20.27,19.55 42.37,23.12 55.78,23.12 3.68,0 6.71,-0.27 8.87,-0.55 1.11,-1.03 1.69,-1.65 1.69,-1.65 0,0 8.75,-33.19 24.44,-85.64 0.47,-1.57 0.95,-3.17 1.43,-4.77 -8.35,-3.73 -16.31,-8.32 -22.93,-14.4 -7.84,-7.27 -15.64,-17.27 -20.06,-25.97" /><path
         id="path468"
         style="fill:#bae3e7;fill-opacity:1;fill-rule:nonzero;stroke:none"
         d="m 4019.72,3529.68 -0.01,0.02 c 0.49,0.21 0.97,0.44 1.46,0.67 v 0 c -0.48,-0.24 -0.97,-0.47 -1.45,-0.69" /><path
         id="path470"
         style="fill:#faece1;fill-opacity:1;fill-rule:nonzero;stroke:none"
         d="m 3994.32,3523.65 c -12.74,0 -23.83,4.91 -32.27,13.27 0.01,0.02 0.02,0.04 0.03,0.06 9.36,-7.99 20.3,-13 33.02,-13 7.56,0 15.75,1.77 24.61,5.72 l 0.01,-0.02 c -8.95,-4.14 -17.5,-6.03 -25.4,-6.03" /><path
         id="path472"
         style="fill:#bae3e7;fill-opacity:1;fill-rule:nonzero;stroke:none"
         d="m 4021.17,3530.37 -13.86,47.95 c 0.23,0.1 0.46,0.2 0.69,0.29 l 13.17,-48.24" /><path
         id="path474"
         style="fill:#e2f3f5;fill-opacity:1;fill-rule:nonzero;stroke:none"
         d="m 4019.71,3529.7 c -5.37,17.09 -10.26,33.06 -14.64,47.65 0.74,0.33 1.49,0.65 2.24,0.97 l 13.86,-47.95 c -0.49,-0.23 -0.97,-0.46 -1.46,-0.67" /><path
         id="path476"
         style="fill:#fdf7f2;fill-opacity:1;fill-rule:nonzero;stroke:none"
         d="m 3995.1,3523.98 c -12.72,0 -23.66,5.01 -33.02,13 4.42,8.7 12.22,18.7 20.06,25.97 6.62,6.08 14.58,10.67 22.93,14.4 4.38,-14.59 9.27,-30.56 14.64,-47.65 -8.86,-3.95 -17.05,-5.72 -24.61,-5.72" /><path
         id="path478"
         style="fill:#ffffff;fill-opacity:1;fill-rule:nonzero;stroke:none"
         d="m 4558.17,2146 -565.68,-98.85 -34.34,181.65 565.71,98.9 34.31,-181.7" /><path
         id="path480"
         style="fill:#02506b;fill-opacity:1;fill-rule:nonzero;stroke:none"
         d="M 4999.24,0 4599.51,2220.71 3954.82,2108.07 4310.76,0 h 688.48" /><path
         id="path482"
         style="fill:#02506b;fill-opacity:1;fill-rule:nonzero;stroke:none"
         d="m 4490.57,2257.79 c 2.46,-12.89 -6.3,-25.12 -19.55,-27.47 -13.26,-2.28 -25.94,6.23 -28.36,19.11 -2.43,12.82 6.35,25.1 19.56,27.39 13.24,2.33 25.87,-6.18 28.35,-19.03" /></g></g></svg>