<?xml version="1.0" encoding="UTF-8" standalone="no"?>
<svg
   xmlns:dc="http://purl.org/dc/elements/1.1/"
   xmlns:cc="http://creativecommons.org/ns#"
   xmlns:rdf="http://www.w3.org/1999/02/22-rdf-syntax-ns#"
   xmlns:svg="http://www.w3.org/2000/svg"
   xmlns="http://www.w3.org/2000/svg"
   xmlns:sodipodi="http://sodipodi.sourceforge.net/DTD/sodipodi-0.dtd"
   xmlns:inkscape="http://www.inkscape.org/namespaces/inkscape"
   viewBox="0 0 666.66669 666.66669"
   height="666.66669"
   width="666.66669"
   xml:space="preserve"
   id="svg2"
   version="1.1"
   inkscape:version="0.91 r13725"
   sodipodi:docname="ok1.svg"><sodipodi:namedview
     pagecolor="#ffffff"
     bordercolor="#666666"
     borderopacity="1"
     objecttolerance="10"
     gridtolerance="10"
     guidetolerance="10"
     inkscape:pageopacity="0"
     inkscape:pageshadow="2"
     inkscape:window-width="1366"
     inkscape:window-height="666"
     id="namedview4656"
     showgrid="false"
     inkscape:zoom="0.52502677"
     inkscape:cx="546.11436"
     inkscape:cy="441.87038"
     inkscape:window-x="0"
     inkscape:window-y="0"
     inkscape:window-maximized="1"
     inkscape:current-layer="svg2" /><metadata
     id="metadata8"><rdf:RDF><cc:Work
         rdf:about=""><dc:format>image/svg+xml</dc:format><dc:type
           rdf:resource="http://purl.org/dc/dcmitype/StillImage" /><dc:title></dc:title></cc:Work></rdf:RDF></metadata><defs
     id="defs6" /><g
     id="g6643"><path
       inkscape:connector-curvature="0"
       d="m 0,666.66667 666.66665,0 0,-666.66665 L 0,2e-5 Z"
       style="fill:#a8b9c0;fill-opacity:1;fill-rule:nonzero;stroke:none"
       id="path14" /><path
       inkscape:connector-curvature="0"
       d="m 333.15199,311.82801 -4.14266,-2.17866 -4.144,2.17866 0.792,-4.61466 -3.35467,-3.26534 4.63333,-0.67333 2.07334,-4.19733 2.07066,4.19733 4.632,0.67333 -3.352,3.26534 0.792,4.61466"
       style="fill:#e7f4f4;fill-opacity:0.94117647;fill-rule:nonzero;stroke:none"
       id="path16" /><path
       inkscape:connector-curvature="0"
       d="m 311.22933,286.63335 2.072,4.19733 4.63333,0.67333 -3.35333,3.26534 0.792,4.61466 -4.144,-2.17866 -4.14267,2.17866 0.792,-4.61466 -3.35333,-3.26534 4.63333,-0.67333 2.07067,-4.19733"
       style="fill:#ffffff;fill-opacity:1;fill-rule:nonzero;stroke:none"
       id="path18" /><path
       inkscape:connector-curvature="0"
       d="m 48.380665,394.27201 -4.143199,-2.17867 -4.1432,2.17867 0.791733,-4.61467 -3.354267,-3.26533 4.6328,-0.67333 2.072934,-4.19734 2.0704,4.19734 4.632799,0.67333 -3.3516,3.26533 0.7916,4.61467"
       style="fill:#e7f4f4;fill-opacity:0.94117647;fill-rule:nonzero;stroke:none"
       id="path20" /><path
       inkscape:connector-curvature="0"
       d="m 26.458799,369.07734 2.071867,4.19734 4.632933,0.67333 -3.3532,3.26533 0.791734,4.61467 -4.143334,-2.17867 -4.1432,2.17867 0.791734,-4.61467 -3.352667,-3.26533 4.6328,-0.67333 2.071333,-4.19734"
       style="fill:#ffffff;fill-opacity:1;fill-rule:nonzero;stroke:none"
       id="path22" /><path
       inkscape:connector-curvature="0"
       d="m 107.2036,139.65735 -7.00254,-3.68267 -7.002662,3.68267 1.3376,-7.8 -5.669334,-5.51867 7.830667,-1.13866 3.503729,-7.09467 3.49894,7.09467 7.83066,1.13866 -5.6656,5.51867 1.33854,7.8"
       style="fill:#e7f4f4;fill-opacity:0.94117647;fill-rule:nonzero;stroke:none"
       id="path24" /><path
       inkscape:connector-curvature="0"
       d="m 70.150532,97.072018 3.501066,7.094662 7.830667,1.13867 -5.666667,5.51867 1.338533,7.8 -7.003599,-3.68134 -7.002667,3.68134 1.337067,-7.8 -5.666667,-5.51867 7.830667,-1.13867 3.5016,-7.094662"
       style="fill:#ffffff;fill-opacity:1;fill-rule:nonzero;stroke:none"
       id="path26" /><path
       inkscape:connector-curvature="0"
       d="m 621.71598,262.01735 -4.43733,-2.33334 -4.43867,2.33334 0.848,-4.94267 -3.592,-3.49733 4.96134,-0.72134 2.22133,-4.496 2.216,4.496 4.964,0.72134 -3.59067,3.49733 0.848,4.94267"
       style="fill:#e7f4f4;fill-opacity:0.94117647;fill-rule:nonzero;stroke:none"
       id="path28" /><path
       inkscape:connector-curvature="0"
       d="m 598.23465,235.03068 2.21867,4.496 4.964,0.72133 -3.592,3.49734 0.84666,4.94266 -4.43733,-2.33333 -4.43733,2.33333 0.848,-4.94266 -3.592,-3.49734 4.96267,-0.72133 2.21866,-4.496"
       style="fill:#ffffff;fill-opacity:1;fill-rule:nonzero;stroke:none"
       id="path30" /><path
       inkscape:connector-curvature="0"
       d="m 541.27065,60.496018 -4.43733,-2.333333 -4.43867,2.333333 0.848,-4.942666 -3.592,-3.497333 4.96134,-0.721334 2.22133,-4.496 2.216,4.496 4.964,0.721334 -3.59067,3.497333 0.848,4.942666"
       style="fill:#e7f4f4;fill-opacity:0.94117647;fill-rule:nonzero;stroke:none"
       id="path32" /><path
       inkscape:connector-curvature="0"
       d="m 517.78932,33.509352 2.21867,4.496 4.964,0.721334 -3.592,3.497333 0.84666,4.942666 -4.43733,-2.333333 -4.43733,2.333333 0.848,-4.942666 -3.592,-3.497333 4.96266,-0.721334 2.21867,-4.496"
       style="fill:#ffffff;fill-opacity:1;fill-rule:nonzero;stroke:none"
       id="path34" /><path
       inkscape:connector-curvature="0"
       d="m 301.72799,448.33068 -4.43733,-2.33334 -4.43867,2.33334 0.84667,-4.94267 -3.59067,-3.49733 4.96134,-0.72134 2.22133,-4.496 2.216,4.496 4.96267,0.72134 -3.58934,3.49733 0.848,4.94267"
       style="fill:#e7f4f4;fill-opacity:0.94117647;fill-rule:nonzero;stroke:none"
       id="path36" /><path
       inkscape:connector-curvature="0"
       d="m 278.24666,421.34401 2.21867,4.496 4.96266,0.72133 -3.59066,3.49734 0.84666,4.94266 -4.43733,-2.33333 -4.43867,2.33333 0.84934,-4.94266 -3.592,-3.49734 4.96266,-0.72133 2.21867,-4.496"
       style="fill:#ffffff;fill-opacity:1;fill-rule:nonzero;stroke:none"
       id="path38" /><path
       inkscape:connector-curvature="0"
       d="m 436.89599,58.513352 -0.31733,0.364 c 0.716,0.628 1.412,1.289333 2.07066,1.972 l 0.348,-0.336 c -0.66666,-0.693333 -1.37466,-1.365333 -2.10133,-2"
       style="fill:#ffffff;fill-opacity:1;fill-rule:nonzero;stroke:none"
       id="path40" /><path
       inkscape:connector-curvature="0"
       d="m 429.59466,114.34402 0.21733,0.42933 c 0.86267,-0.432 1.71467,-0.912 2.532,-1.416 l -0.256,-0.412 c -0.804,0.49733 -1.64267,0.96933 -2.49333,1.39867"
       style="fill:#ffffff;fill-opacity:1;fill-rule:nonzero;stroke:none"
       id="path42" /><path
       inkscape:connector-curvature="0"
       d="m 434.45599,111.34135 0.288,0.388 c 0.772,-0.57067 1.53067,-1.18533 2.25333,-1.82267 l -0.32,-0.36533 c -0.712,0.63067 -1.46133,1.23733 -2.22133,1.8"
       style="fill:#ffffff;fill-opacity:1;fill-rule:nonzero;stroke:none"
       id="path44" /><path
       inkscape:connector-curvature="0"
       d="m 427.04399,52.481352 -0.18,0.450667 c 0.884,0.352 1.76133,0.745333 2.60933,1.172 l 0.21867,-0.434667 c -0.86133,-0.429333 -1.75333,-0.830667 -2.648,-1.188"
       style="fill:#ffffff;fill-opacity:1;fill-rule:nonzero;stroke:none"
       id="path46" /><path
       inkscape:connector-curvature="0"
       d="m 432.22666,55.078685 -0.25334,0.413334 c 0.81067,0.494666 1.61067,1.032 2.37467,1.593333 l 0.288,-0.388 c -0.776,-0.569333 -1.58667,-1.116 -2.40933,-1.618667"
       style="fill:#ffffff;fill-opacity:1;fill-rule:nonzero;stroke:none"
       id="path48" /><path
       inkscape:connector-curvature="0"
       d="m 424.29999,116.47602 0.14,0.464 c 0.92133,-0.28134 1.844,-0.60667 2.73467,-0.96667 l -0.18267,-0.44933 c -0.87733,0.35333 -1.78533,0.676 -2.692,0.952"
       style="fill:#ffffff;fill-opacity:1;fill-rule:nonzero;stroke:none"
       id="path50" /><path
       inkscape:connector-curvature="0"
       d="m 415.72532,50.578685 c 0.94934,0.036 1.908,0.114667 2.84934,0.228 l 0.06,-0.478666 c -0.95467,-0.12 -1.92934,-0.197334 -2.88934,-0.234667 l -0.02,0.485333"
       style="fill:#ffffff;fill-opacity:1;fill-rule:nonzero;stroke:none"
       id="path52" /><path
       inkscape:connector-curvature="0"
       d="m 421.49466,50.805352 -0.10134,0.473333 c 0.932,0.194667 1.864,0.434667 2.77067,0.710667 l 0.14,-0.462667 c -0.92133,-0.278666 -1.86533,-0.521333 -2.80933,-0.721333"
       style="fill:#ffffff;fill-opacity:1;fill-rule:nonzero;stroke:none"
       id="path54" /><path
       inkscape:connector-curvature="0"
       d="m 446.59732,72.737352 -0.45733,0.164 c 0.32133,0.893333 0.60667,1.809333 0.84933,2.729333 l 0.46667,-0.122667 c -0.24533,-0.932 -0.53467,-1.862667 -0.85867,-2.770666"
       style="fill:#ffffff;fill-opacity:1;fill-rule:nonzero;stroke:none"
       id="path56" /><path
       inkscape:connector-curvature="0"
       d="m 445.12266,98.128018 0.44,0.202666 c 0.39866,-0.88 0.76133,-1.786666 1.08266,-2.694666 l -0.456,-0.16 c -0.31733,0.896 -0.67466,1.786666 -1.06666,2.652"
       style="fill:#ffffff;fill-opacity:1;fill-rule:nonzero;stroke:none"
       id="path58" /><path
       inkscape:connector-curvature="0"
       d="m 447.02399,92.742684 0.468,0.118667 c 0.24267,-0.932 0.448,-1.882667 0.60933,-2.833333 l -0.47866,-0.08267 c -0.15867,0.937333 -0.36,1.877333 -0.59867,2.797333"
       style="fill:#ffffff;fill-opacity:1;fill-rule:nonzero;stroke:none"
       id="path60" /><path
       inkscape:connector-curvature="0"
       d="m 448.58532,84.112018 -0.484,0 0.001,0.142667 c 0,0.950666 -0.04,1.912 -0.11867,2.854666 l 0.48133,0.04133 c 0.08,-0.957333 0.12,-1.934666 0.12,-2.898666 l 0,-0.14"
       style="fill:#ffffff;fill-opacity:1;fill-rule:nonzero;stroke:none"
       id="path62" /><path
       inkscape:connector-curvature="0"
       d="m 448.45332,81.213351 c -0.0853,-0.958666 -0.21066,-1.926666 -0.37733,-2.872 l -0.476,0.08267 c 0.16267,0.933333 0.288,1.885333 0.372,2.833333 l 0.48133,-0.044"
       style="fill:#ffffff;fill-opacity:1;fill-rule:nonzero;stroke:none"
       id="path64" /><path
       inkscape:connector-curvature="0"
       d="m 440.92132,62.682685 -0.37466,0.304 c 0.6,0.737333 1.17466,1.508 1.71066,2.294667 l 0.39867,-0.276 c -0.54133,-0.794667 -1.12533,-1.576 -1.73467,-2.322667"
       style="fill:#ffffff;fill-opacity:1;fill-rule:nonzero;stroke:none"
       id="path66" /><path
       inkscape:connector-curvature="0"
       d="m 442.33199,103.11735 0.40133,0.27067 c 0.54,-0.79734 1.05334,-1.63067 1.52134,-2.46934 l -0.42134,-0.236 c -0.464,0.83067 -0.96933,1.648 -1.50133,2.43467"
       style="fill:#ffffff;fill-opacity:1;fill-rule:nonzero;stroke:none"
       id="path68" /><path
       inkscape:connector-curvature="0"
       d="m 444.18932,67.469352 -0.42266,0.238666 c 0.468,0.828 0.90533,1.685334 1.29866,2.544 l 0.44,-0.202666 c -0.4,-0.869334 -0.84266,-1.74 -1.316,-2.58"
       style="fill:#ffffff;fill-opacity:1;fill-rule:nonzero;stroke:none"
       id="path70" /><path
       inkscape:connector-curvature="0"
       d="m 438.74132,107.56268 0.34934,0.336 c 0.66933,-0.70133 1.31333,-1.42933 1.916,-2.18 l -0.376,-0.30266 c -0.59467,0.73466 -1.22934,1.456 -1.88934,2.14666"
       style="fill:#ffffff;fill-opacity:1;fill-rule:nonzero;stroke:none"
       id="path72" /><path
       inkscape:connector-curvature="0"
       d="m 396.65332,55.598685 -0.25466,-0.410666 c -0.82,0.506666 -1.62667,1.057333 -2.39867,1.632 l 0.28933,0.388 c 0.76,-0.568 1.556,-1.109334 2.364,-1.609334"
       style="fill:#ffffff;fill-opacity:1;fill-rule:nonzero;stroke:none"
       id="path74" /><path
       inkscape:connector-curvature="0"
       d="m 401.74266,53.010685 -0.18134,-0.450666 c -0.88933,0.361333 -1.77733,0.765333 -2.63733,1.202666 l 0.21867,0.432 c 0.848,-0.432 1.72266,-0.830666 2.6,-1.184"
       style="fill:#ffffff;fill-opacity:1;fill-rule:nonzero;stroke:none"
       id="path76" /><path
       inkscape:connector-curvature="0"
       d="m 409.95599,50.354685 0.0627,0.481334 c 0.93733,-0.122667 1.89466,-0.208 2.84533,-0.250667 l -0.02,-0.481333 c -0.968,0.04133 -1.93733,0.128 -2.888,0.250666"
       style="fill:#ffffff;fill-opacity:1;fill-rule:nonzero;stroke:none"
       id="path78" /><path
       inkscape:connector-curvature="0"
       d="m 404.29332,51.585352 0.14267,0.464 c 0.908,-0.281333 1.83867,-0.525333 2.764,-0.729333 l -0.10133,-0.470667 c -0.94,0.202667 -1.884,0.453333 -2.80534,0.736"
       style="fill:#ffffff;fill-opacity:1;fill-rule:nonzero;stroke:none"
       id="path80" /><path
       inkscape:connector-curvature="0"
       d="m 391.75066,58.648019 c -0.72134,0.638666 -1.424,1.316 -2.08934,2.013333 l 0.352,0.333333 c 0.65467,-0.688 1.348,-1.354666 2.05734,-1.981333 l -0.32,-0.365333"
       style="fill:#ffffff;fill-opacity:1;fill-rule:nonzero;stroke:none"
       id="path82" /><path
       inkscape:connector-curvature="0"
       d="m 392.99866,60.994685 c 0,1.650667 -1.33734,2.986667 -2.98534,2.986667 -1.65066,0 -2.98666,-1.336 -2.98666,-2.986667 0,-1.648 1.336,-2.984 2.98666,-2.984 1.648,0 2.98534,1.336 2.98534,2.984"
       style="fill:#ffffff;fill-opacity:1;fill-rule:nonzero;stroke:none"
       id="path84" /><path
       inkscape:connector-curvature="0"
       d="m 421.12799,114.76402 c 0.04,1.568 -1.19733,2.86933 -2.76133,2.91066 -1.56667,0.04 -2.868,-1.196 -2.908,-2.76133 -0.0413,-1.56533 1.19333,-2.86933 2.76,-2.90933 1.56533,-0.04 2.868,1.196 2.90933,2.76"
       style="fill:#ffffff;fill-opacity:1;fill-rule:nonzero;stroke:none"
       id="path86" /><path
       inkscape:connector-curvature="0"
       d="m 348.59466,139.52802 c 0,2.464 -1.99867,4.46266 -4.46267,4.46266 -2.46533,0 -4.464,-1.99866 -4.464,-4.46266 0,-2.46534 1.99867,-4.46267 4.464,-4.46267 2.464,0 4.46267,1.99733 4.46267,4.46267"
       style="fill:#ffffff;fill-opacity:1;fill-rule:nonzero;stroke:none"
       id="path88" /><path
       inkscape:connector-curvature="0"
       d="m 260.75066,138.97335 -0.22267,0.628 c 1.228,0.43733 2.45734,0.928 3.65334,1.46133 l 0.27066,-0.60933 c -1.21066,-0.53867 -2.456,-1.036 -3.70133,-1.48"
       style="fill:#ffffff;fill-opacity:1;fill-rule:nonzero;stroke:none"
       id="path90" /><path
       inkscape:connector-curvature="0"
       d="m 245.14266,136.68535 c 1.312,0.044 2.63067,0.14 3.91867,0.284 l 0.076,-0.66267 c -1.308,-0.14533 -2.64267,-0.24266 -3.97067,-0.288 l -0.024,0.66667"
       style="fill:#ffffff;fill-opacity:1;fill-rule:nonzero;stroke:none"
       id="path92" /><path
       inkscape:connector-curvature="0"
       d="m 252.94799,137.55202 c 1.28267,0.24266 2.572,0.53866 3.82934,0.87733 l 0.17466,-0.64267 c -1.27466,-0.344 -2.58133,-0.644 -3.88,-0.89066 l -0.124,0.656"
       style="fill:#ffffff;fill-opacity:1;fill-rule:nonzero;stroke:none"
       id="path94" /><path
       inkscape:connector-curvature="0"
       d="m 194.35866,172.60268 -0.63733,-0.19866 c -0.39467,1.26 -0.74667,2.552 -1.04267,3.84133 l 0.648,0.14933 c 0.29467,-1.272 0.64134,-2.548 1.032,-3.792"
       style="fill:#ffffff;fill-opacity:1;fill-rule:nonzero;stroke:none"
       id="path96" /><path
       inkscape:connector-curvature="0"
       d="m 197.28,165.30668 -0.596,-0.296 c -0.58667,1.18667 -1.13334,2.412 -1.624,3.63867 l 0.61866,0.248 c 0.484,-1.20933 1.02267,-2.41867 1.60134,-3.59067"
       style="fill:#ffffff;fill-opacity:1;fill-rule:nonzero;stroke:none"
       id="path98" /><path
       inkscape:connector-curvature="0"
       d="m 192.01466,188.08535 -0.66666,0.001 c 0.003,1.328 0.0573,2.66534 0.15866,3.97867 l 0.664,-0.052 c -0.1,-1.29733 -0.15333,-2.61733 -0.156,-3.928"
       style="fill:#ffffff;fill-opacity:1;fill-rule:nonzero;stroke:none"
       id="path100" /><path
       inkscape:connector-curvature="0"
       d="m 192.592,180.25335 -0.65867,-0.0987 c -0.19733,1.30267 -0.34667,2.63334 -0.444,3.95467 l 0.66533,0.0493 c 0.096,-1.304 0.24267,-2.62 0.43734,-3.90533"
       style="fill:#ffffff;fill-opacity:1;fill-rule:nonzero;stroke:none"
       id="path102" /><path
       inkscape:connector-curvature="0"
       d="m 201.28799,158.54668 -0.54666,-0.38266 c -0.76,1.084 -1.48667,2.208 -2.15867,3.34533 l 0.572,0.34 c 0.664,-1.12267 1.38267,-2.23467 2.13333,-3.30267"
       style="fill:#ffffff;fill-opacity:1;fill-rule:nonzero;stroke:none"
       id="path104" /><path
       inkscape:connector-curvature="0"
       d="m 212.12399,147.23468 -0.40666,-0.52933 c -1.04667,0.80533 -2.07867,1.65867 -3.064,2.54267 l 0.44533,0.49733 c 0.97333,-0.87333 1.99067,-1.71733 3.02533,-2.51067"
       style="fill:#ffffff;fill-opacity:1;fill-rule:nonzero;stroke:none"
       id="path106" /><path
       inkscape:connector-curvature="0"
       d="m 237.21733,136.34402 0.0787,0.66133 c 1.29334,-0.15067 2.612,-0.25467 3.916,-0.308 l -0.0253,-0.66667 c -1.324,0.0533 -2.65733,0.16 -3.96933,0.31334"
       style="fill:#ffffff;fill-opacity:1;fill-rule:nonzero;stroke:none"
       id="path108" /><path
       inkscape:connector-curvature="0"
       d="m 225.84799,139.71068 -0.22666,-0.62533 c -1.24267,0.44933 -2.48267,0.95333 -3.68534,1.49867 l 0.27467,0.60666 c 1.18933,-0.53733 2.412,-1.03466 3.63733,-1.48"
       style="fill:#ffffff;fill-opacity:1;fill-rule:nonzero;stroke:none"
       id="path110" /><path
       inkscape:connector-curvature="0"
       d="m 206.27466,152.47602 -0.48133,-0.46 c -0.91467,0.95466 -1.80534,1.956 -2.644,2.976 l 0.516,0.42533 c 0.828,-1.008 1.70533,-1.99867 2.60933,-2.94133"
       style="fill:#ffffff;fill-opacity:1;fill-rule:nonzero;stroke:none"
       id="path112" /><path
       inkscape:connector-curvature="0"
       d="m 191.96533,196.01868 c 0.204,1.30934 0.46,2.62267 0.76267,3.90534 l 0.648,-0.152 c -0.29734,-1.26667 -0.552,-2.564 -0.752,-3.856 l -0.65867,0.10266"
       style="fill:#ffffff;fill-opacity:1;fill-rule:nonzero;stroke:none"
       id="path114" /><path
       inkscape:connector-curvature="0"
       d="m 218.69733,142.94535 -0.32,-0.584 c -1.152,0.63067 -2.3,1.31867 -3.412,2.04533 l 0.364,0.55734 c 1.096,-0.716 2.232,-1.39467 3.368,-2.01867"
       style="fill:#ffffff;fill-opacity:1;fill-rule:nonzero;stroke:none"
       id="path116" /><path
       inkscape:connector-curvature="0"
       d="m 229.41333,137.87335 0.176,0.64267 c 1.26,-0.34934 2.54666,-0.65467 3.82533,-0.904 l -0.128,-0.65334 c -1.296,0.252 -2.59867,0.56134 -3.87333,0.91467"
       style="fill:#ffffff;fill-opacity:1;fill-rule:nonzero;stroke:none"
       id="path118" /><path
       inkscape:connector-curvature="0"
       d="m 193.788,203.76135 c 0.40133,1.26266 0.856,2.52133 1.35066,3.744 l 0.61734,-0.25067 c -0.488,-1.208 -0.93734,-2.44933 -1.33334,-3.69467 l -0.63466,0.20134"
       style="fill:#ffffff;fill-opacity:1;fill-rule:nonzero;stroke:none"
       id="path120" /><path
       inkscape:connector-curvature="0"
       d="m 200.85599,217.95601 c 0.76267,1.08 1.57734,2.14267 2.41867,3.16134 l 0.51333,-0.42667 c -0.83066,-1.00267 -1.63466,-2.052 -2.388,-3.12 l -0.544,0.38533"
       style="fill:#ffffff;fill-opacity:1;fill-rule:nonzero;stroke:none"
       id="path122" /><path
       inkscape:connector-curvature="0"
       d="m 196.77466,211.13068 c 0.59067,1.18533 1.23467,2.36 1.91067,3.492 l 0.57067,-0.344 c -0.66667,-1.116 -1.30134,-2.27467 -1.88534,-3.44533 l -0.596,0.29733"
       style="fill:#ffffff;fill-opacity:1;fill-rule:nonzero;stroke:none"
       id="path124" /><path
       inkscape:connector-curvature="0"
       d="m 205.92799,224.08401 c 0.92,0.95067 1.88534,1.88 2.87334,2.75734 l 0.44266,-0.5 c -0.97466,-0.86534 -1.928,-1.78134 -2.836,-2.72134 l -0.48,0.464"
       style="fill:#ffffff;fill-opacity:1;fill-rule:nonzero;stroke:none"
       id="path126" /><path
       inkscape:connector-curvature="0"
       d="m 270.89066,137.88935 c -3.184,0 -5.772,2.58933 -5.772,5.772 0,3.184 2.588,5.77333 5.772,5.77333 3.184,0 5.772,-2.58933 5.772,-5.77333 0,-3.18267 -2.588,-5.772 -5.772,-5.772 z m 0,12.87867 c -3.91867,0 -7.10533,-3.18667 -7.10533,-7.10667 0,-3.91733 3.18666,-7.10533 7.10533,-7.10533 3.91733,0 7.10533,3.188 7.10533,7.10533 0,3.92 -3.188,7.10667 -7.10533,7.10667"
       style="fill:#ffffff;fill-opacity:1;fill-rule:nonzero;stroke:none"
       id="path128" /><path
       inkscape:connector-curvature="0"
       d="m 214.02533,226.04135 c -3.18267,0 -5.77334,2.592 -5.77334,5.77333 0,3.18267 2.59067,5.77333 5.77334,5.77333 3.18266,0 5.77333,-2.59066 5.77333,-5.77333 0,-3.18133 -2.59067,-5.77333 -5.77333,-5.77333 z m 0,12.88 c -3.91867,0 -7.10667,-3.18667 -7.10667,-7.10667 0,-3.91867 3.188,-7.10667 7.10667,-7.10667 3.91866,0 7.10666,3.188 7.10666,7.10667 0,3.92 -3.188,7.10667 -7.10666,7.10667"
       style="fill:#ffffff;fill-opacity:1;fill-rule:nonzero;stroke:none"
       id="path130" /><path
       inkscape:connector-curvature="0"
       d="m 245.42533,335.69468 c -2.336,0 -4.23467,1.90133 -4.23467,4.23733 0,2.33467 1.89867,4.23467 4.23467,4.23467 2.336,0 4.236,-1.9 4.236,-4.23467 0,-2.336 -1.9,-4.23733 -4.236,-4.23733 z m 0,9.80533 c -3.06934,0 -5.568,-2.49733 -5.568,-5.568 0,-3.07067 2.49866,-5.57067 5.568,-5.57067 3.07066,0 5.56933,2.5 5.56933,5.57067 0,3.07067 -2.49867,5.568 -5.56933,5.568"
       style="fill:#ffffff;fill-opacity:1;fill-rule:nonzero;stroke:none"
       id="path132" /><path
       inkscape:connector-curvature="0"
       d="m 213.56133,658.69479 0.28133,0.60521 c 1.224,-0.57344 2.44,-1.20937 3.61467,-1.88802 l -0.33467,-0.57864 c -1.15733,0.66926 -2.356,1.2974 -3.56133,1.86145"
       style="fill:#ffffff;fill-opacity:1;fill-rule:nonzero;stroke:none"
       id="path134" /><path
       inkscape:connector-curvature="0"
       d="m 190.07466,662.84948 -0.056,0.66407 c 1.32934,0.11457 2.68267,0.17187 4.02267,0.17187 l 0.0493,0 -0.0493,-0.66667 c -1.32133,0 -2.65467,-0.0573 -3.96667,-0.16927"
       style="fill:#ffffff;fill-opacity:1;fill-rule:nonzero;stroke:none"
       id="path136" /><path
       inkscape:connector-curvature="0"
       d="m 206.01733,661.44792 0.17333,0.64271 c 1.308,-0.35052 2.61467,-0.76511 3.88933,-1.22917 l -0.22933,-0.62396 c -1.256,0.45573 -2.54533,0.86354 -3.83333,1.21042"
       style="fill:#ffffff;fill-opacity:1;fill-rule:nonzero;stroke:none"
       id="path138" /><path
       inkscape:connector-curvature="0"
       d="m 198.10666,662.84115 0.0587,0.66407 c 1.34667,-0.11719 2.70533,-0.2974 4.04266,-0.53178 l -0.116,-0.65625 c -1.31733,0.23229 -2.65866,0.40677 -3.98533,0.52396"
       style="fill:#ffffff;fill-opacity:1;fill-rule:nonzero;stroke:none"
       id="path140" /><path
       inkscape:connector-curvature="0"
       d="m 161.01733,650.03334 c 0.95733,0.95573 1.97067,1.88386 3.01067,2.75306 l 0.42933,-0.5104 c -1.02667,-0.8588 -2.024,-1.7708 -2.96933,-2.71346 l -0.47067,0.4708"
       style="fill:#ffffff;fill-opacity:1;fill-rule:nonzero;stroke:none"
       id="path142" /><path
       inkscape:connector-curvature="0"
       d="m 149.468,605.07867 -0.64667,-0.17187 c -0.34667,1.30934 -0.63733,2.64787 -0.86933,3.98387 l 0.65866,0.11453 c 0.22667,-1.3172 0.516,-2.63853 0.85734,-3.92653"
       style="fill:#ffffff;fill-opacity:1;fill-rule:nonzero;stroke:none"
       id="path144" /><path
       inkscape:connector-curvature="0"
       d="m 152.196,597.52401 -0.604,-0.28134 c -0.56934,1.22667 -1.092,2.49747 -1.55467,3.77347 l 0.628,0.22653 c 0.456,-1.2588 0.97067,-2.51093 1.53067,-3.71866"
       style="fill:#ffffff;fill-opacity:1;fill-rule:nonzero;stroke:none"
       id="path146" /><path
       inkscape:connector-curvature="0"
       d="m 147.93466,616.912 c 0,-1.3052 0.056,-2.62293 0.164,-3.91986 l -0.664,-0.0547 C 147.324,614.25054 147.268,615.588 147.268,616.912 l 0,0.0984 0.66666,0 0,-0.0984"
       style="fill:#ffffff;fill-opacity:1;fill-rule:nonzero;stroke:none"
       id="path148" /><path
       inkscape:connector-curvature="0"
       d="m 156.204,590.55987 -0.54667,-0.3828 c -0.776,1.112 -1.512,2.2708 -2.18667,3.44267 l 0.57734,0.33333 c 0.66666,-1.15573 1.39066,-2.3 2.156,-3.3932"
       style="fill:#ffffff;fill-opacity:1;fill-rule:nonzero;stroke:none"
       id="path150" /><path
       inkscape:connector-curvature="0"
       d="m 147.452,621.08547 c 0.12,1.34627 0.29866,2.70667 0.536,4.04267 l 0.656,-0.11774 c -0.23334,-1.3156 -0.41067,-2.65573 -0.528,-3.98386 l -0.664,0.0589"
       style="fill:#ffffff;fill-opacity:1;fill-rule:nonzero;stroke:none"
       id="path152" /><path
       inkscape:connector-curvature="0"
       d="m 167.26533,655.26771 c 1.108,0.77344 2.26533,1.51093 3.44133,2.19115 l 0.33334,-0.57864 c -1.15867,-0.6698 -2.3,-1.39636 -3.392,-2.15886 l -0.38267,0.54635"
       style="fill:#ffffff;fill-opacity:1;fill-rule:nonzero;stroke:none"
       id="path154" /><path
       inkscape:connector-curvature="0"
       d="m 174.328,659.33855 c 1.23466,0.57604 2.504,1.09895 3.77066,1.55989 l 0.228,-0.62761 c -1.24933,-0.45364 -2.5,-0.97083 -3.71733,-1.53645 l -0.28133,0.60417"
       style="fill:#ffffff;fill-opacity:1;fill-rule:nonzero;stroke:none"
       id="path156" /><path
       inkscape:connector-curvature="0"
       d="m 148.87333,629.1068 c 0.35333,1.3104 0.768,2.6172 1.23333,3.888 l 0.62667,-0.22973 c -0.45867,-1.25147 -0.868,-2.54107 -1.216,-3.83333 l -0.644,0.17506"
       style="fill:#ffffff;fill-opacity:1;fill-rule:nonzero;stroke:none"
       id="path158" /><path
       inkscape:connector-curvature="0"
       d="m 181.99066,662.11719 c 1.31467,0.34948 2.65334,0.64011 3.98267,0.87188 l 0.11467,-0.65573 c -1.31067,-0.22656 -2.63067,-0.51875 -3.92667,-0.8599 l -0.17067,0.64375"
       style="fill:#ffffff;fill-opacity:1;fill-rule:nonzero;stroke:none"
       id="path160" /><path
       inkscape:connector-curvature="0"
       d="m 151.676,636.75734 c 0.57466,1.22653 1.212,2.44266 1.89066,3.612 l 0.57734,-0.336 c -0.67067,-1.15307 -1.29734,-2.35054 -1.864,-3.55987 l -0.604,0.28387"
       style="fill:#ffffff;fill-opacity:1;fill-rule:nonzero;stroke:none"
       id="path162" /><path
       inkscape:connector-curvature="0"
       d="m 155.76666,643.80267 c 0.78134,1.11187 1.62,2.19733 2.48934,3.23067 l 0.51066,-0.4292 c -0.85866,-1.01867 -1.684,-2.09054 -2.45466,-3.18534 l -0.54534,0.38387"
       style="fill:#ffffff;fill-opacity:1;fill-rule:nonzero;stroke:none"
       id="path164" /><path
       inkscape:connector-curvature="0"
       d="m 159.34933,579.85467 c -3.184,0 -5.772,2.588 -5.772,5.77347 0,3.1812 2.588,5.77027 5.772,5.77027 3.18267,0 5.772,-2.58907 5.772,-5.77027 0,-3.18547 -2.58933,-5.77347 -5.772,-5.77347 z m 0,12.87707 c -3.91867,0 -7.10533,-3.188 -7.10533,-7.1036 0,-3.92027 3.18666,-7.1068 7.10533,-7.1068 3.91733,0 7.10533,3.18653 7.10533,7.1068 0,3.9156 -3.188,7.1036 -7.10533,7.1036"
       style="fill:#ffffff;fill-opacity:1;fill-rule:nonzero;stroke:none"
       id="path166" /><path
       inkscape:connector-curvature="0"
       d="m 219.75066,657.45886 c 0,1.53333 -1.244,2.77864 -2.77867,2.77864 -1.53333,0 -2.77733,-1.24531 -2.77733,-2.77864 0,-1.5349 1.244,-2.77864 2.77733,-2.77864 1.53467,0 2.77867,1.24374 2.77867,2.77864"
       style="fill:#ffffff;fill-opacity:1;fill-rule:nonzero;stroke:none"
       id="path168" /><path
       inkscape:connector-curvature="0"
       d="m 429.13732,206.52001 -0.332,0.57867 c 1.148,0.65867 2.276,1.388 3.348,2.16133 l 0.39067,-0.54133 c -1.09067,-0.78667 -2.23867,-1.52667 -3.40667,-2.19867"
       style="fill:#ffffff;fill-opacity:1;fill-rule:nonzero;stroke:none"
       id="path170" /><path
       inkscape:connector-curvature="0"
       d="m 432.27599,270.96268 0.39067,0.53867 c 1.084,-0.788 2.14266,-1.648 3.148,-2.55467 l -0.44534,-0.49467 c -0.98933,0.89067 -2.02933,1.73467 -3.09333,2.51067"
       style="fill:#ffffff;fill-opacity:1;fill-rule:nonzero;stroke:none"
       id="path172" /><path
       inkscape:connector-curvature="0"
       d="m 413.73199,202.25735 c 1.32533,0.132 2.65067,0.33866 3.93733,0.60666 l 0.136,-0.65333 c -1.30933,-0.27333 -2.65733,-0.48 -4.00666,-0.61733 l -0.0667,0.664"
       style="fill:#ffffff;fill-opacity:1;fill-rule:nonzero;stroke:none"
       id="path174" /><path
       inkscape:connector-curvature="0"
       d="m 435.70132,211.26268 -0.444,0.49733 c 0.99067,0.88534 1.94134,1.83067 2.828,2.80667 l 0.49467,-0.448 c -0.90267,-0.99467 -1.872,-1.95467 -2.87867,-2.856"
       style="fill:#ffffff;fill-opacity:1;fill-rule:nonzero;stroke:none"
       id="path176" /><path
       inkscape:connector-curvature="0"
       d="m 448.40132,235.94935 c -0.14666,-1.33867 -0.36266,-2.684 -0.64666,-4.00267 l -0.652,0.14133 c 0.28,1.29467 0.49333,2.61734 0.63466,3.932 l 0.664,-0.0707"
       style="fill:#ffffff;fill-opacity:1;fill-rule:nonzero;stroke:none"
       id="path178" /><path
       inkscape:connector-curvature="0"
       d="m 438.18799,265.63201 0.49467,0.44534 c 0.90133,-1 1.75866,-2.06 2.552,-3.148 l -0.54,-0.39334 c -0.77734,1.07334 -1.62267,2.11467 -2.50667,3.096"
       style="fill:#ffffff;fill-opacity:1;fill-rule:nonzero;stroke:none"
       id="path180" /><path
       inkscape:connector-curvature="0"
       d="m 447.95999,240.00001 0,0.156 c 0,1.32534 -0.0693,2.664 -0.20533,3.98134 l 0.66266,0.068 c 0.13867,-1.33867 0.20934,-2.70134 0.20934,-4.04934 l 0,-0.156 -0.66667,0"
       style="fill:#ffffff;fill-opacity:1;fill-rule:nonzero;stroke:none"
       id="path182" /><path
       inkscape:connector-curvature="0"
       d="m 445.22399,224.25468 -0.60667,0.27333 c 0.54267,1.20534 1.028,2.456 1.44267,3.71334 l 0.63333,-0.208 c -0.42133,-1.28134 -0.91466,-2.552 -1.46933,-3.77867"
       style="fill:#ffffff;fill-opacity:1;fill-rule:nonzero;stroke:none"
       id="path184" /><path
       inkscape:connector-curvature="0"
       d="m 446.10666,251.92135 0.636,0.20533 c 0.41466,-1.27867 0.768,-2.596 1.04666,-3.916 l -0.65333,-0.13867 c -0.27467,1.29734 -0.62,2.592 -1.02933,3.84934"
       style="fill:#ffffff;fill-opacity:1;fill-rule:nonzero;stroke:none"
       id="path186" /><path
       inkscape:connector-curvature="0"
       d="m 441.14266,217.26001 -0.536,0.39334 c 0.784,1.072 1.52133,2.192 2.18533,3.33333 l 0.57467,-0.336 c -0.676,-1.15867 -1.424,-2.3 -2.224,-3.39067"
       style="fill:#ffffff;fill-opacity:1;fill-rule:nonzero;stroke:none"
       id="path188" /><path
       inkscape:connector-curvature="0"
       d="m 442.86666,259.19468 0.57866,0.33333 c 0.676,-1.16933 1.296,-2.38266 1.844,-3.612 l -0.60933,-0.27066 c -0.54,1.20533 -1.14933,2.40133 -1.81333,3.54933"
       style="fill:#ffffff;fill-opacity:1;fill-rule:nonzero;stroke:none"
       id="path190" /><path
       inkscape:connector-curvature="0"
       d="m 421.72666,203.24401 -0.20267,0.636 c 1.26,0.40267 2.512,0.88 3.72667,1.416 l 0.268,-0.60933 c -1.23467,-0.544 -2.50934,-1.03067 -3.792,-1.44267"
       style="fill:#ffffff;fill-opacity:1;fill-rule:nonzero;stroke:none"
       id="path192" /><path
       inkscape:connector-curvature="0"
       d="m 405.70132,201.61868 0.0707,0.664 c 1.31333,-0.14 2.652,-0.21333 3.97867,-0.21867 l 0,-0.66666 c -1.35067,0.005 -2.712,0.0787 -4.04934,0.22133"
       style="fill:#ffffff;fill-opacity:1;fill-rule:nonzero;stroke:none"
       id="path194" /><path
       inkscape:connector-curvature="0"
       d="m 394.27599,205.38935 -0.27333,-0.60667 c -1.232,0.55467 -2.444,1.17733 -3.60534,1.85467 l 0.33467,0.576 c 1.14133,-0.664 2.33333,-1.276 3.544,-1.824"
       style="fill:#ffffff;fill-opacity:1;fill-rule:nonzero;stroke:none"
       id="path196" /><path
       inkscape:connector-curvature="0"
       d="m 381.49732,214.73601 -0.496,-0.44533 c -0.90133,1.00533 -1.75733,2.068 -2.54666,3.156 l 0.54,0.39067 c 0.77466,-1.06934 1.61733,-2.11467 2.50266,-3.10134"
       style="fill:#ffffff;fill-opacity:1;fill-rule:nonzero;stroke:none"
       id="path198" /><path
       inkscape:connector-curvature="0"
       d="m 387.39866,209.39468 -0.396,-0.53867 c -1.08667,0.79734 -2.144,1.65867 -3.14134,2.56 l 0.44667,0.49467 c 0.98133,-0.88533 2.02,-1.73467 3.09067,-2.516"
       style="fill:#ffffff;fill-opacity:1;fill-rule:nonzero;stroke:none"
       id="path200" /><path
       inkscape:connector-curvature="0"
       d="m 397.78399,203.32001 0.208,0.632 c 1.26,-0.41333 2.55467,-0.76266 3.84533,-1.04133 l -0.14,-0.65067 c -1.31466,0.28134 -2.63066,0.63734 -3.91333,1.06"
       style="fill:#ffffff;fill-opacity:1;fill-rule:nonzero;stroke:none"
       id="path202" /><path
       inkscape:connector-curvature="0"
       d="m 436.40932,271.50135 c 0,2.06533 -1.676,3.74 -3.74266,3.74 -2.06534,0 -3.74,-1.67467 -3.74,-3.74 0,-2.06667 1.67466,-3.74134 3.74,-3.74134 2.06666,0 3.74266,1.67467 3.74266,3.74134"
       style="fill:#ffffff;fill-opacity:1;fill-rule:nonzero;stroke:none"
       id="path204" /><path
       inkscape:connector-curvature="0"
       d="m 376.85199,217.85335 c -1.70133,0 -3.084,1.38266 -3.084,3.084 0,1.7 1.38267,3.08266 3.084,3.08266 1.7,0 3.08267,-1.38266 3.08267,-3.08266 0,-1.70134 -1.38267,-3.084 -3.08267,-3.084 z m 0,7.5 c -2.43467,0 -4.41733,-1.98134 -4.41733,-4.416 0,-2.436 1.98266,-4.41734 4.41733,-4.41734 2.43467,0 4.416,1.98134 4.416,4.41734 0,2.43466 -1.98133,4.416 -4.416,4.416"
       style="fill:#ffffff;fill-opacity:1;fill-rule:nonzero;stroke:none"
       id="path206" /><path
       inkscape:connector-curvature="0"
       d="m 194.57733,70.490685 0.23467,0.625333 c 1.24666,-0.466666 2.49333,-0.985333 3.704,-1.54 l -0.27867,-0.606666 c -1.19467,0.549333 -2.42667,1.061333 -3.66,1.521333"
       style="fill:#ffffff;fill-opacity:1;fill-rule:nonzero;stroke:none"
       id="path208" /><path
       inkscape:connector-curvature="0"
       d="m 208.44666,62.894685 0.40133,0.533333 c 1.064,-0.8 2.11467,-1.648 3.124,-2.522666 l -0.43733,-0.502667 c -0.99733,0.864 -2.03467,1.702667 -3.088,2.492"
       style="fill:#ffffff;fill-opacity:1;fill-rule:nonzero;stroke:none"
       id="path210" /><path
       inkscape:connector-curvature="0"
       d="m 201.78133,67.192018 0.32133,0.585334 c 1.16933,-0.641334 2.32933,-1.333334 3.44933,-2.054667 l -0.36266,-0.56 c -1.10534,0.713333 -2.252,1.396 -3.408,2.029333"
       style="fill:#ffffff;fill-opacity:1;fill-rule:nonzero;stroke:none"
       id="path212" /><path
       inkscape:connector-curvature="0"
       d="m 179.11466,73.858685 0.048,0.662666 c 1.32267,-0.09333 2.66667,-0.236 3.99334,-0.426666 l -0.0947,-0.658667 c -1.312,0.188 -2.63867,0.328 -3.94667,0.422667"
       style="fill:#ffffff;fill-opacity:1;fill-rule:nonzero;stroke:none"
       id="path214" /><path
       inkscape:connector-curvature="0"
       d="m 186.96666,72.730685 0.144,0.650666 c 1.31067,-0.286666 2.62,-0.619999 3.88934,-0.991999 l -0.18667,-0.641334 c -1.256,0.370667 -2.54933,0.701334 -3.84667,0.982667"
       style="fill:#ffffff;fill-opacity:1;fill-rule:nonzero;stroke:none"
       id="path216" /><path
       inkscape:connector-curvature="0"
       d="m 171.18266,73.869351 -0.0467,0.662667 c 1.30533,0.092 2.63466,0.136 3.95066,0.136 l 0.0627,0 -0.0627,-0.666667 c -1.30133,0 -2.61466,-0.044 -3.904,-0.132"
       style="fill:#ffffff;fill-opacity:1;fill-rule:nonzero;stroke:none"
       id="path218" /><path
       inkscape:connector-curvature="0"
       d="m 227.23066,37.800019 0.62533,0.232 c 0.468,-1.254667 0.89334,-2.538667 1.26667,-3.812 l -0.64,-0.188 c -0.36933,1.258667 -0.79067,2.526667 -1.252,3.768"
       style="fill:#ffffff;fill-opacity:1;fill-rule:nonzero;stroke:none"
       id="path220" /><path
       inkscape:connector-curvature="0"
       d="m 229.46133,30.185353 0.65066,0.141333 c 0.28267,-1.301333 0.52134,-2.633333 0.70934,-3.953333 l -0.65867,-0.09333 c -0.18667,1.304 -0.42267,2.617334 -0.70133,3.905334"
       style="fill:#ffffff;fill-opacity:1;fill-rule:nonzero;stroke:none"
       id="path222" /><path
       inkscape:connector-curvature="0"
       d="m 223.93066,45.021352 0.58533,0.321334 c 0.64267,-1.177334 1.24934,-2.385334 1.80134,-3.596 l -0.60667,-0.277334 c -0.54533,1.196 -1.14533,2.390667 -1.78,3.552"
       style="fill:#ffffff;fill-opacity:1;fill-rule:nonzero;stroke:none"
       id="path224" /><path
       inkscape:connector-curvature="0"
       d="m 214.43866,57.693352 0.47067,0.472 c 0.94,-0.94 1.86133,-1.929333 2.73733,-2.94 l -0.50267,-0.437333 c -0.86666,1 -1.77733,1.976 -2.70533,2.905333"
       style="fill:#ffffff;fill-opacity:1;fill-rule:nonzero;stroke:none"
       id="path226" /><path
       inkscape:connector-curvature="0"
       d="m 219.63466,51.697352 0.53333,0.4 c 0.8,-1.070667 1.572,-2.18 2.29334,-3.3 l -0.56,-0.361333 c -0.71334,1.109333 -1.476,2.205333 -2.26667,3.261333"
       style="fill:#ffffff;fill-opacity:1;fill-rule:nonzero;stroke:none"
       id="path228" /><path
       inkscape:connector-curvature="0"
       d="m 130.0656,52.178685 c 0.80213,1.068 1.65266,2.116 2.5276,3.121334 l 0.50266,-0.436 c -0.86466,-0.994667 -1.70466,-2.032 -2.49746,-3.086667 l -0.5328,0.401333"
       style="fill:#ffffff;fill-opacity:1;fill-rule:nonzero;stroke:none"
       id="path230" /><path
       inkscape:connector-curvature="0"
       d="m 148.16666,67.829352 c 1.172,0.637333 2.38267,1.242666 3.59734,1.797333 l 0.276,-0.608 c -1.20134,-0.546667 -2.396,-1.142667 -3.55334,-1.776 l -0.32,0.586667"
       style="fill:#ffffff;fill-opacity:1;fill-rule:nonzero;stroke:none"
       id="path232" /><path
       inkscape:connector-curvature="0"
       d="m 155.48133,71.160018 c 1.252,0.466667 2.53467,0.890667 3.812,1.262667 l 0.188,-0.64 c -1.26267,-0.368 -2.53067,-0.786667 -3.768,-1.246667 l -0.232,0.624"
       style="fill:#ffffff;fill-opacity:1;fill-rule:nonzero;stroke:none"
       id="path234" /><path
       inkscape:connector-curvature="0"
       d="m 163.18666,73.408018 c 1.29467,0.277333 2.62534,0.514667 3.95467,0.702667 l 0.0933,-0.658667 c -1.31333,-0.185333 -2.628,-0.42 -3.90666,-0.696 l -0.14134,0.652"
       style="fill:#ffffff;fill-opacity:1;fill-rule:nonzero;stroke:none"
       id="path236" /><path
       inkscape:connector-curvature="0"
       d="m 141.408,63.488018 c 1.06,0.794667 2.172,1.565334 3.30266,2.289334 l 0.35867,-0.56 c -1.116,-0.716 -2.21333,-1.476 -3.26267,-2.262667 l -0.39866,0.533333"
       style="fill:#ffffff;fill-opacity:1;fill-rule:nonzero;stroke:none"
       id="path238" /><path
       inkscape:connector-curvature="0"
       d="m 125.7104,45.438686 c 0.6432,1.169333 1.3344,2.327999 2.05733,3.447999 l 0.55987,-0.361333 c -0.7136,-1.108 -1.3984,-2.253333 -2.0328,-3.406666 l -0.5844,0.32"
       style="fill:#ffffff;fill-opacity:1;fill-rule:nonzero;stroke:none"
       id="path240" /><path
       inkscape:connector-curvature="0"
       d="m 135.33333,58.236019 c 0.944,0.942666 1.936,1.861333 2.944,2.733333 l 0.436,-0.505334 c -0.996,-0.861333 -1.97467,-1.770666 -2.90933,-2.699999 l -0.47067,0.472"
       style="fill:#ffffff;fill-opacity:1;fill-rule:nonzero;stroke:none"
       id="path242" /><path
       inkscape:connector-curvature="0"
       d="m 123.41453,36.894686 c -2.34107,0 -4.24573,1.905333 -4.24573,4.246666 0,2.341334 1.90466,4.245334 4.24573,4.245334 2.3412,0 4.2464,-1.904 4.2464,-4.245334 0,-2.341333 -1.9052,-4.246666 -4.2464,-4.246666 z m 0,9.825333 c -3.07653,0 -5.57907,-2.502667 -5.57907,-5.578667 0,-3.077333 2.50254,-5.58 5.57907,-5.58 3.0772,0 5.57973,2.502667 5.57973,5.58 0,3.076 -2.50253,5.578667 -5.57973,5.578667"
       style="fill:#ffffff;fill-opacity:1;fill-rule:nonzero;stroke:none"
       id="path244" /><path
       inkscape:connector-curvature="0"
       d="m 625.46932,379.54668 -0.404,-0.53067 c -1.05334,0.80267 -2.16667,1.556 -3.30667,2.23467 l 0.34133,0.57333 c 1.16134,-0.69333 2.29467,-1.46133 3.36934,-2.27733"
       style="fill:#ffffff;fill-opacity:1;fill-rule:nonzero;stroke:none"
       id="path246" /><path
       inkscape:connector-curvature="0"
       d="m 568.18132,345.86534 -0.66,-0.088 c -0.184,1.33334 -0.292,2.69734 -0.32533,4.052 l 0.66666,0.016 c 0.032,-1.33066 0.13867,-2.66933 0.31867,-3.98"
       style="fill:#ffffff;fill-opacity:1;fill-rule:nonzero;stroke:none"
       id="path248" /><path
       inkscape:connector-curvature="0"
       d="m 567.99465,353.83201 -0.664,0.0587 c 0.11867,1.34266 0.316,2.696 0.58667,4.02266 l 0.65333,-0.13333 c -0.26666,-1.30267 -0.45866,-2.63067 -0.576,-3.948"
       style="fill:#ffffff;fill-opacity:1;fill-rule:nonzero;stroke:none"
       id="path250" /><path
       inkscape:connector-curvature="0"
       d="m 635.79332,367.14801 -0.59467,-0.304 -0.048,0.0947 c -0.59067,1.152 -1.24667,2.28133 -1.956,3.35733 l 0.55733,0.36667 c 0.72,-1.096 1.38934,-2.24667 1.992,-3.41867 l 0.0493,-0.096"
       style="fill:#ffffff;fill-opacity:1;fill-rule:nonzero;stroke:none"
       id="path252" /><path
       inkscape:connector-curvature="0"
       d="m 618.49732,383.71201 -0.27467,-0.60667 c -1.20533,0.54934 -2.45733,1.03467 -3.72,1.44667 l 0.20667,0.63467 c 1.28533,-0.42 2.56133,-0.916 3.788,-1.47467"
       style="fill:#ffffff;fill-opacity:1;fill-rule:nonzero;stroke:none"
       id="path254" /><path
       inkscape:connector-curvature="0"
       d="m 631.33332,373.92801 -0.51334,-0.42533 c -0.848,1.02133 -1.76266,2.004 -2.72133,2.91866 l 0.46133,0.484 c 0.976,-0.93466 1.90934,-1.93733 2.77334,-2.97733"
       style="fill:#ffffff;fill-opacity:1;fill-rule:nonzero;stroke:none"
       id="path256" /><path
       inkscape:connector-curvature="0"
       d="m 570.14532,338.14401 -0.624,-0.23333 c -0.47733,1.26533 -0.88933,2.56933 -1.22133,3.876 l 0.64533,0.16533 c 0.32533,-1.28267 0.72933,-2.564 1.2,-3.808"
       style="fill:#ffffff;fill-opacity:1;fill-rule:nonzero;stroke:none"
       id="path258" /><path
       inkscape:connector-curvature="0"
       d="m 602.69865,386.97334 0.0147,-0.668 c -1.33334,-0.0253 -2.67067,-0.12666 -3.97733,-0.304 l -0.0907,0.65867 c 1.332,0.18 2.69733,0.28533 4.05333,0.31333"
       style="fill:#ffffff;fill-opacity:1;fill-rule:nonzero;stroke:none"
       id="path260" /><path
       inkscape:connector-curvature="0"
       d="m 569.58399,361.63868 -0.63467,0.20666 c 0.41467,1.28534 0.908,2.56134 1.46267,3.792 l 0.60666,-0.27466 c -0.54533,-1.208 -1.028,-2.46 -1.43466,-3.724"
       style="fill:#ffffff;fill-opacity:1;fill-rule:nonzero;stroke:none"
       id="path262" /><path
       inkscape:connector-curvature="0"
       d="m 573.77332,331.05068 -0.55733,-0.36667 c -0.73467,1.11467 -1.41734,2.284 -2.02934,3.47867 l -0.0173,0.0307 0.60933,0.27334 c 0.60134,-1.17333 1.27334,-2.32267 1.99467,-3.416"
       style="fill:#ffffff;fill-opacity:1;fill-rule:nonzero;stroke:none"
       id="path264" /><path
       inkscape:connector-curvature="0"
       d="m 587.35599,382.45334 -0.128,-0.0653 c -1.184,-0.60533 -2.34267,-1.28533 -3.44534,-2.01333 l -0.368,0.556 c 1.12267,0.74266 2.304,1.432 3.50934,2.04933 l 0.128,0.0653 0.304,-0.592"
       style="fill:#ffffff;fill-opacity:1;fill-rule:nonzero;stroke:none"
       id="path266" /><path
       inkscape:connector-curvature="0"
       d="m 577.67199,375.25868 -0.48267,0.46133 c 0.93067,0.976 1.92933,1.91467 2.96667,2.78133 l 0.428,-0.512 c -1.01867,-0.84933 -1.99867,-1.76933 -2.912,-2.73066"
       style="fill:#ffffff;fill-opacity:1;fill-rule:nonzero;stroke:none"
       id="path268" /><path
       inkscape:connector-curvature="0"
       d="m 610.77998,386.22801 -0.13466,-0.65333 c -1.292,0.268 -2.61867,0.46533 -3.94667,0.588 l 0.0627,0.664 c 1.35066,-0.12667 2.70266,-0.32667 4.01866,-0.59867"
       style="fill:#ffffff;fill-opacity:1;fill-rule:nonzero;stroke:none"
       id="path270" /><path
       inkscape:connector-curvature="0"
       d="m 572.86132,368.90534 -0.57333,0.34134 c 0.69333,1.16533 1.45733,2.30133 2.26933,3.37466 l 0.53067,-0.404 c -0.796,-1.052 -1.54667,-2.16666 -2.22667,-3.312"
       style="fill:#ffffff;fill-opacity:1;fill-rule:nonzero;stroke:none"
       id="path272" /><path
       inkscape:connector-curvature="0"
       d="m 638.75598,355.46801 0.66134,0.0907 c 0.18133,-1.34267 0.28666,-2.70534 0.31733,-4.05467 l -0.66667,-0.0133 c -0.028,1.32266 -0.13333,2.66133 -0.312,3.97733"
       style="fill:#ffffff;fill-opacity:1;fill-rule:nonzero;stroke:none"
       id="path274" /><path
       inkscape:connector-curvature="0"
       d="m 638.64798,359.54801 -0.64666,-0.164 c -0.324,1.284 -0.72534,2.568 -1.19334,3.81067 l 0.62534,0.23333 c 0.476,-1.26533 0.884,-2.57067 1.21466,-3.88"
       style="fill:#ffffff;fill-opacity:1;fill-rule:nonzero;stroke:none"
       id="path276" /><path
       inkscape:connector-curvature="0"
       d="m 590.77199,384.68134 c 1.26,0.47334 2.56533,0.88267 3.88133,1.212 l 0.16267,-0.64533 c -1.29067,-0.32533 -2.572,-0.724 -3.808,-1.18933 l -0.236,0.62266"
       style="fill:#ffffff;fill-opacity:1;fill-rule:nonzero;stroke:none"
       id="path278" /><path
       inkscape:connector-curvature="0"
       d="m 578.16799,330.68401 c 0,2.73333 -2.21734,4.952 -4.952,4.952 -2.73467,0 -4.952,-2.21867 -4.952,-4.952 0,-2.73466 2.21733,-4.952 4.952,-4.952 2.73466,0 4.952,2.21734 4.952,4.952"
       style="fill:#ffffff;fill-opacity:1;fill-rule:nonzero;stroke:none"
       id="path280" /><path
       inkscape:connector-curvature="0"
       d="m 639.73465,342.39734 c -2.32267,0 -4.21333,1.89067 -4.21333,4.21334 0,2.32266 1.89066,4.21333 4.21333,4.21333 2.32267,0 4.21333,-1.89067 4.21333,-4.21333 0,-2.32267 -1.89066,-4.21334 -4.21333,-4.21334 z m 0,9.76 c -3.05867,0 -5.54667,-2.488 -5.54667,-5.54666 0,-3.05867 2.488,-5.54667 5.54667,-5.54667 3.05867,0 5.54667,2.488 5.54667,5.54667 0,3.05866 -2.488,5.54666 -5.54667,5.54666"
       style="fill:#ffffff;fill-opacity:1;fill-rule:nonzero;stroke:none"
       id="path282" /><path
       inkscape:connector-curvature="0"
       d="m 541.75065,651.72134 0.26534,0.612 c 1.232,-0.53854 2.45466,-1.11974 3.63066,-1.73227 l -0.30666,-0.59067 c -1.164,0.60414 -2.372,1.18027 -3.58934,1.71094"
       style="fill:#ffffff;fill-opacity:1;fill-rule:nonzero;stroke:none"
       id="path284" /><path
       inkscape:connector-curvature="0"
       d="m 577.31999,593.92654 c -0.096,-1.34373 -0.23734,-2.68907 -0.424,-4.0052 l -0.66,0.0948 c 0.18266,1.2984 0.324,2.6292 0.42,3.95733 l 0.664,-0.0469"
       style="fill:#ffffff;fill-opacity:1;fill-rule:nonzero;stroke:none"
       id="path286" /><path
       inkscape:connector-curvature="0"
       d="m 526.46932,656.01042 0.0907,0.66146 c 1.33466,-0.18542 2.66933,-0.41458 3.968,-0.68281 l -0.136,-0.65313 c -1.284,0.2651 -2.60267,0.49218 -3.92267,0.67448"
       style="fill:#ffffff;fill-opacity:1;fill-rule:nonzero;stroke:none"
       id="path288" /><path
       inkscape:connector-curvature="0"
       d="m 534.25865,654.39063 0.18,0.64271 c 1.288,-0.36146 2.58,-0.77083 3.83867,-1.22136 l -0.224,-0.62651 c -1.24533,0.44527 -2.52267,0.85047 -3.79467,1.20516"
       style="fill:#ffffff;fill-opacity:1;fill-rule:nonzero;stroke:none"
       id="path290" /><path
       inkscape:connector-curvature="0"
       d="m 518.52799,656.5573 0,0.66666 c 1.34,-0.003 2.69466,-0.0495 4.02533,-0.1401 l -0.0467,-0.66511 c -1.31466,0.0891 -2.65333,0.13595 -3.97866,0.13855"
       style="fill:#ffffff;fill-opacity:1;fill-rule:nonzero;stroke:none"
       id="path292" /><path
       inkscape:connector-curvature="0"
       d="m 555.29999,643.46147 0.42133,0.51453 c 1.03733,-0.84533 2.05733,-1.73853 3.032,-2.64786 l -0.45467,-0.48694 c -0.964,0.90147 -1.97333,1.7812 -2.99866,2.62027"
       style="fill:#ffffff;fill-opacity:1;fill-rule:nonzero;stroke:none"
       id="path294" /><path
       inkscape:connector-curvature="0"
       d="m 570.28399,625.04694 0.59066,0.30773 c 0.62134,-1.19893 1.20534,-2.42293 1.73334,-3.64107 l -0.612,-0.26573 c -0.52267,1.20267 -1.09867,2.4136 -1.712,3.59907"
       style="fill:#ffffff;fill-opacity:1;fill-rule:nonzero;stroke:none"
       id="path296" /><path
       inkscape:connector-curvature="0"
       d="m 575.23199,582.04694 -0.64134,0.18227 c 0.36267,1.276 0.68534,2.576 0.95734,3.864 l 0.65066,-0.13747 c -0.27466,-1.30267 -0.6,-2.6172 -0.96666,-3.9088"
       style="fill:#ffffff;fill-opacity:1;fill-rule:nonzero;stroke:none"
       id="path298" /><path
       inkscape:connector-curvature="0"
       d="m 572.50665,574.47601 -0.60933,0.26933 c 0.53067,1.20773 1.02667,2.44947 1.47333,3.69213 l 0.628,-0.22706 c -0.45333,-1.25467 -0.95466,-2.5104 -1.492,-3.7344"
       style="fill:#ffffff;fill-opacity:1;fill-rule:nonzero;stroke:none"
       id="path300" /><path
       inkscape:connector-curvature="0"
       d="m 573.45999,617.74014 0.62666,0.22386 c 0.44667,-1.2588 0.85734,-2.54946 1.21867,-3.8416 l -0.644,-0.17973 c -0.356,1.27613 -0.76,2.55213 -1.20133,3.79747"
       style="fill:#ffffff;fill-opacity:1;fill-rule:nonzero;stroke:none"
       id="path302" /><path
       inkscape:connector-curvature="0"
       d="m 575.59865,610.07347 0.65334,0.1344 c 0.27066,-1.29853 0.49733,-2.6344 0.68,-3.96773 l -0.66134,-0.0923 c -0.17866,1.32147 -0.40533,2.6412 -0.672,3.9256"
       style="fill:#ffffff;fill-opacity:1;fill-rule:nonzero;stroke:none"
       id="path304" /><path
       inkscape:connector-curvature="0"
       d="m 576.80665,597.95054 0,0.25987 c 0,1.3188 -0.044,2.65626 -0.132,3.98026 l 0.664,0.0437 c 0.0893,-1.336 0.13467,-2.69066 0.13467,-4.02399 l 0,-0.25987 -0.66667,0"
       style="fill:#ffffff;fill-opacity:1;fill-rule:nonzero;stroke:none"
       id="path306" /><path
       inkscape:connector-curvature="0"
       d="m 561.11332,638.024 0.48667,0.45467 c 0.91066,-0.97347 1.80133,-1.9948 2.64933,-3.036 l -0.51867,-0.42133 c -0.83733,1.0308 -1.71733,2.03853 -2.61733,3.00266"
       style="fill:#ffffff;fill-opacity:1;fill-rule:nonzero;stroke:none"
       id="path308" /><path
       inkscape:connector-curvature="0"
       d="m 566.13865,631.84947 0.54534,0.38493 c 0.77333,-1.09426 1.51733,-2.22653 2.21333,-3.3704 l -0.57067,-0.3452 c -0.68666,1.12907 -1.42133,2.24894 -2.188,3.33067"
       style="fill:#ffffff;fill-opacity:1;fill-rule:nonzero;stroke:none"
       id="path310" /><path
       inkscape:connector-curvature="0"
       d="m 568.77332,567.35467 -0.568,0.348 c 0.696,1.13067 1.35733,2.29467 1.96667,3.46134 l 0.59066,-0.30934 c -0.61733,-1.18013 -1.28666,-2.35733 -1.98933,-3.5"
       style="fill:#ffffff;fill-opacity:1;fill-rule:nonzero;stroke:none"
       id="path312" /><path
       inkscape:connector-curvature="0"
       d="m 548.80532,648.05467 0.34667,0.5708 c 1.13066,-0.69107 2.26266,-1.43227 3.364,-2.21347 l -0.38534,-0.54533 c -1.08933,0.77187 -2.208,1.50787 -3.32533,2.188"
       style="fill:#ffffff;fill-opacity:1;fill-rule:nonzero;stroke:none"
       id="path314" /><path
       inkscape:connector-curvature="0"
       d="m 510.49732,656.69063 c 1.32933,0.17864 2.67733,0.31459 4.00667,0.4 l 0.044,-0.66407 c -1.31467,-0.0854 -2.648,-0.22134 -3.96267,-0.39844 l -0.088,0.66251"
       style="fill:#ffffff;fill-opacity:1;fill-rule:nonzero;stroke:none"
       id="path316" /><path
       inkscape:connector-curvature="0"
       d="m 571.33865,565.44014 c 0,2.10933 -1.71066,3.81973 -3.82,3.81973 -2.10933,0 -3.82133,-1.7104 -3.82133,-3.81973 0,-2.10947 1.712,-3.8204 3.82133,-3.8204 2.10934,0 3.82,1.71093 3.82,3.8204"
       style="fill:#ffffff;fill-opacity:1;fill-rule:nonzero;stroke:none"
       id="path318" /><path
       inkscape:connector-curvature="0"
       d="m 507.73999,653.23174 c -1.16,0 -2.104,0.94274 -2.104,2.1042 0,1.15885 0.944,2.10417 2.104,2.10417 1.16,0 2.104,-0.94532 2.104,-2.10417 0,-1.16146 -0.944,-2.1042 -2.104,-2.1042 z m 0,5.5417 c -1.896,0 -3.43734,-1.54166 -3.43734,-3.4375 0,-1.89583 1.54134,-3.43754 3.43734,-3.43754 1.896,0 3.43733,1.54171 3.43733,3.43754 0,1.89584 -1.54133,3.4375 -3.43733,3.4375"
       style="fill:#ffffff;fill-opacity:1;fill-rule:nonzero;stroke:none"
       id="path320" /><path
       inkscape:connector-curvature="0"
       d="m 75.225465,269.47601 c -3.076533,0 -6.110933,-1.42 -8.059867,-4.096 -3.236933,-4.444 -2.254133,-10.67733 2.188534,-13.912 1.768266,-1.288 3.819866,-1.908 5.852666,-1.908 3.0776,0 6.112533,1.42134 8.0604,4.09867 3.2364,4.44267 2.2536,10.676 -2.190667,13.91067 -1.767733,1.28666 -3.818666,1.90666 -5.851066,1.90666"
       style="fill:#e7f4f4;fill-opacity:0.94117647;fill-rule:nonzero;stroke:none"
       id="path322" /><path
       inkscape:connector-curvature="0"
       d="m 94.952664,285.58401 c -1.616266,0 -3.211466,-0.74666 -4.236533,-2.15333 -1.698933,-2.33467 -1.183333,-5.60933 1.151067,-7.30933 0.928666,-0.676 2.0068,-1.00134 3.074933,-1.00134 1.616667,0 3.211467,0.74534 4.234933,2.152 1.700536,2.33467 1.183336,5.60934 -1.152,7.31067 -0.928133,0.67467 -2.005333,1.00133 -3.0724,1.00133"
       style="fill:#e7f4f4;fill-opacity:0.94117647;fill-rule:nonzero;stroke:none"
       id="path324" /><path
       inkscape:connector-curvature="0"
       d="m 57.093732,242.75201 c -0.894267,0 -1.776,-0.412 -2.342667,-1.19066 -0.9396,-1.288 -0.6532,-3.10134 0.636934,-4.04134 0.513066,-0.37333 1.1084,-0.55333 1.6984,-0.55333 0.8948,0 1.7772,0.41333 2.344266,1.19067 0.940133,1.28933 0.654267,3.10266 -0.6364,4.04266 -0.514,0.372 -1.109866,0.552 -1.700533,0.552"
       style="fill:#e7f4f4;fill-opacity:0.94117647;fill-rule:nonzero;stroke:none"
       id="path326" /><path
       inkscape:connector-curvature="0"
       d="m 627.18398,112.58535 c -4.82533,0 -9.068,-3.51733 -9.82933,-8.436 -0.84267,-5.431999 2.88533,-10.523999 8.316,-11.363999 0.516,-0.08 1.02933,-0.118667 1.536,-0.118667 4.82667,0 9.06933,3.518667 9.82933,8.434666 0.84267,5.43467 -2.88533,10.524 -8.31866,11.36533 -0.51467,0.08 -1.028,0.11867 -1.53334,0.11867"
       style="fill:#e7f4f4;fill-opacity:0.94117647;fill-rule:nonzero;stroke:none"
       id="path328" /><path
       inkscape:connector-curvature="0"
       d="m 606.70132,89.030684 c -1.812,0 -3.40267,-1.32 -3.688,-3.166666 -0.31734,-2.037333 1.08133,-3.946667 3.12133,-4.261333 0.19333,-0.03067 0.38667,-0.04533 0.57733,-0.04533 1.80934,0 3.40134,1.32 3.68667,3.164 0.31467,2.04 -1.08267,3.949333 -3.12133,4.264 -0.19334,0.03067 -0.38667,0.04533 -0.576,0.04533"
       style="fill:#e7f4f4;fill-opacity:0.94117647;fill-rule:nonzero;stroke:none"
       id="path330" /><path
       inkscape:connector-curvature="0"
       d="m 107.59533,666.66667 -91.623464,0 21.928133,-110.812 69.004131,0 22.83853,-127.03066 c 0.002,0 0.004,0 0.006,0 1.03653,0 32.4396,-0.34 32.4396,-0.34 5.86133,-0.064 10.54666,-5.31067 10.47066,-11.708 -0.0387,-3.56533 -1.548,-6.73333 -3.888,-8.83467 4.404,-2.31866 7.42534,-7.25733 7.364,-12.96266 -0.0507,-4.28934 -1.83733,-8.10934 -4.61733,-10.68667 4.67867,-2.38133 7.86933,-7.23867 7.80933,-12.824 -0.0467,-4.132 -1.87066,-7.82267 -4.73066,-10.38933 3.776,-2.52667 6.28133,-7.08934 6.224,-12.28534 -0.004,-0.24933 -0.012,-0.496 -0.0267,-0.74133 6.984,0.18533 12.62933,6.38667 12.72,14.07467 0.0573,5.196 -2.448,9.75866 -6.224,12.28533 2.86,2.56667 4.684,6.25733 4.73067,10.38933 0.06,5.58534 -3.12934,10.44267 -7.80934,12.824 2.19867,2.04 3.77734,4.856 4.36534,8.068 0.0413,1.32667 0.11466,2.66667 0.208,3.97867 -0.388,5.12133 -3.26934,9.47067 -7.32,11.60267 2.33866,2.10133 3.84933,5.26933 3.888,8.83466 0.076,6.39734 -4.60934,11.644 -10.47067,11.708 0,0 -31.40267,0.34 -32.44,0.34 -0.001,0 -0.004,0 -0.005,0 l -4.77867,26.58 2.68933,0.46933 -2.93066,15.508 3.37466,0.59067 -33.19533,181.36133 M 133.46,335.12668 l 2.116,-5.10667 7.29866,-31.32 c 0,0 2.54134,-15.38133 1.34267,-24.088 3.192,0.0973 7.22533,2.09467 11.404,8.96667 3.65467,6.01333 -0.0533,28.45467 -0.0533,28.45467 l -5.33467,22.89066 -16.77333,0.20267"
       style="fill:#183654;fill-opacity:1;fill-rule:nonzero;stroke:none"
       id="path334" /><path
       inkscape:connector-curvature="0"
       d="m 179.32666,371.46801 c -0.0467,-4.132 -1.87066,-7.82267 -4.73066,-10.38933 3.776,-2.52667 6.28133,-7.08934 6.224,-12.28534 -0.0933,-7.85466 -5.98267,-14.15733 -13.176,-14.07866 l -34.184,0.412 2.116,-5.10667 7.29866,-31.32 c 0,0 3.70667,-22.44133 0.0533,-28.45466 -9.40667,-15.472 -18.0796,-6.23334 -18.0796,-6.23334 0,0 -10.45467,39.66534 -24.877069,69.052 l -27.104666,38.80533 -37.519333,183.98533 71.556798,0 22.83853,-127.03066 c 0.91934,0.001 32.44534,-0.34 32.44534,-0.34 5.86133,-0.064 10.54666,-5.31067 10.47066,-11.708 -0.0387,-3.56533 -1.548,-6.73333 -3.888,-8.83467 4.404,-2.31866 7.42534,-7.25733 7.364,-12.96266 -0.0507,-4.28934 -1.83733,-8.10934 -4.61733,-10.68667 4.67867,-2.38133 7.86933,-7.23867 7.80933,-12.824"
       style="fill:#ffd8b5;fill-opacity:1;fill-rule:nonzero;stroke:none"
       id="path336" /><path
       inkscape:connector-curvature="0"
       d="m 121.3984,276.06801 c -0.0995,-0.044 -0.19894,-0.088 -0.29947,-0.13066 l 3.48707,-12.06134 c 0,0 0.17493,-0.0427 0.48746,-0.0827 -0.148,0.136 -0.22506,0.21866 -0.22506,0.21866 0,0 -1.238,4.69734 -3.45,12.056"
       style="fill:#bce8eb;fill-opacity:1;fill-rule:nonzero;stroke:none"
       id="path338" /><path
       inkscape:connector-curvature="0"
       d="m 127.1292,281.45068 c -0.58854,-1.16133 -1.6292,-2.49467 -2.674,-3.464 -0.8828,-0.81067 -1.9432,-1.42133 -3.0568,-1.91867 2.212,-7.35866 3.45,-12.056 3.45,-12.056 0,0 0.0771,-0.0827 0.22506,-0.21866 0.288,-0.0373 0.69214,-0.0733 1.18387,-0.0733 1.78853,0 4.73333,0.47467 7.436,3.08134 0,0 -1.63133,10.43466 -6.56413,14.64933"
       style="fill:#ffefe0;fill-opacity:1;fill-rule:nonzero;stroke:none"
       id="path340" /><path
       inkscape:connector-curvature="0"
       d="m 119.44533,282.42401 c -0.0647,-0.0293 -0.12973,-0.06 -0.1948,-0.092 l 0,0 c 0.0656,0.0307 0.13067,0.06 0.19587,0.0893 l -0.001,0.003"
       style="fill:#bce8eb;fill-opacity:1;fill-rule:nonzero;stroke:none"
       id="path342" /><path
       inkscape:connector-curvature="0"
       d="m 122.83066,283.22668 c -1.0536,0 -2.19213,-0.252 -3.38533,-0.80267 l 0.001,-0.003 c 1.1812,0.52666 2.27186,0.76133 3.2796,0.76133 1.69693,0 3.15573,-0.66667 4.4032,-1.732 0.001,0.003 0.003,0.005 0.004,0.008 -1.12547,1.11333 -2.60307,1.768 -4.30267,1.768"
       style="fill:#ffefe0;fill-opacity:1;fill-rule:nonzero;stroke:none"
       id="path344" /><path
       inkscape:connector-curvature="0"
       d="m 119.25053,282.33201 1.75733,-6.43333 c 0.0301,0.0133 0.0609,0.0267 0.0911,0.0387 l -1.8484,6.39466"
       style="fill:#bce8eb;fill-opacity:1;fill-rule:nonzero;stroke:none"
       id="path346" /><path
       inkscape:connector-curvature="0"
       d="m 119.4464,282.42135 c -0.0652,-0.0293 -0.13027,-0.0587 -0.19587,-0.0893 l 0,0 1.8484,-6.39466 c 0.10053,0.0427 0.2,0.0867 0.29947,0.13066 -0.5844,1.94534 -1.2364,4.07467 -1.952,6.35334"
       style="fill:#e3f5f7;fill-opacity:1;fill-rule:nonzero;stroke:none"
       id="path348" /><path
       inkscape:connector-curvature="0"
       d="m 122.726,283.18268 c -1.00774,0 -2.0984,-0.23467 -3.2796,-0.76133 0.7156,-2.27867 1.3676,-4.408 1.952,-6.35334 1.1136,0.49734 2.174,1.108 3.0568,1.91867 1.0448,0.96933 2.08546,2.30267 2.674,3.464 -1.24747,1.06533 -2.70627,1.732 -4.4032,1.732"
       style="fill:#fff8f2;fill-opacity:1;fill-rule:nonzero;stroke:none"
       id="path350" /><path
       inkscape:connector-curvature="0"
       d="m 47.649465,466.91467 75.425995,13.17867 4.57814,-24.22 -75.428535,-13.18666 -4.5756,24.22799"
       style="fill:#ffffff;fill-opacity:1;fill-rule:nonzero;stroke:none"
       id="path352" /><path
       inkscape:connector-curvature="0"
       d="m 92.460931,666.66667 35.636399,-194.69466 -85.957731,-15.02 -41.49949502,209.71466 91.82082702,0"
       style="fill:#243a38;fill-opacity:1;fill-rule:nonzero;stroke:none"
       id="path354" /><path
       inkscape:connector-curvature="0"
       d="m 56.665065,452.00801 c -0.328666,1.71867 0.840667,3.35067 2.607334,3.66267 1.766666,0.304 3.458266,-0.83067 3.780266,-2.548 0.3244,-1.708 -0.846933,-3.34667 -2.607867,-3.65067 -1.765066,-0.312 -3.448399,0.82267 -3.779733,2.536"
       style="fill:#243a38;fill-opacity:1;fill-rule:nonzero;stroke:none"
       id="path356" /><path
       inkscape:connector-curvature="0"
       d="m 397.81332,666.66667 -15.77333,0 30.828,-168.42266 -5.92667,-1.036 7.572,-42.11067 c 0.001,0 0.004,0 0.005,0 1.03333,0 32.44,-0.34133 32.44,-0.34133 5.86133,-0.0613 10.54666,-5.30933 10.47066,-11.70667 -0.0387,-3.56666 -1.54933,-6.73466 -3.888,-8.83466 4.404,-2.31867 7.42667,-7.25734 7.364,-12.96267 -0.0493,-4.29067 -1.83866,-8.11067 -4.61733,-10.68667 4.68,-2.38133 7.86933,-7.23866 7.80933,-12.82533 -0.0467,-4.132 -1.87066,-7.82133 -4.73066,-10.388 3.776,-2.528 6.28,-7.08933 6.22266,-12.28667 -0.003,-0.24933 -0.0107,-0.496 -0.0253,-0.74133 l 0.18533,-0.003 c 0.044,0 0.0893,0 0.13334,0 7.13066,0 12.94933,6.272 13.03999,14.07734 0.0573,5.19733 -2.44666,9.75866 -6.22266,12.28666 2.86,2.56667 4.684,6.256 4.73066,10.388 0.06,5.58667 -3.12933,10.444 -7.80933,12.82534 2.77867,2.576 4.568,6.396 4.61733,10.68666 0.0627,5.70534 -2.96,10.644 -7.364,12.96267 2.33867,2.1 3.84934,5.268 3.888,8.83467 0.076,6.39733 -4.60933,11.64399 -10.47066,11.70666 0,0 -31.40667,0.34133 -32.44,0.34133 -0.001,0 -0.004,0 -0.005,0 l -4.77867,26.58 2.68933,0.46934 -2.93066,15.50666 3.37466,0.59067 -28.388,155.08933 m 20.41734,-305.26799 2.116,-5.10667 7.29866,-31.32 c 0,0 2.54,-15.37333 1.34267,-24.08133 0.12933,-0.007 0.26,-0.009 0.392,-0.009 3.23067,0 7.36533,1.92 11.65067,8.96933 3.656,6.01333 -0.052,28.456 -0.052,28.456 l -5.33334,22.88266 -17.41466,0.20934"
       style="fill:#183654;fill-opacity:1;fill-rule:nonzero;stroke:none"
       id="path358" /><path
       inkscape:connector-curvature="0"
       d="m 464.09732,397.74001 c -0.0467,-4.132 -1.87066,-7.82133 -4.73066,-10.388 3.776,-2.528 6.28,-7.08933 6.22266,-12.28667 -0.092,-7.85466 -5.98266,-14.156 -13.17466,-14.07733 l -34.184,0.41067 2.116,-5.10667 7.29866,-31.32 c 0,0 3.708,-22.44133 0.052,-28.45466 -9.40533,-15.47067 -18.07866,-6.232 -18.07866,-6.232 0,0 -10.45467,39.66533 -24.876,69.05066 l -27.10534,38.80533 -37.51866,183.9852 71.556,0 22.83866,-127.0292 c 0.91867,0.001 32.44534,-0.34133 32.44534,-0.34133 5.86133,-0.0613 10.54666,-5.30933 10.47066,-11.70667 -0.0387,-3.56666 -1.54933,-6.73466 -3.888,-8.83466 4.404,-2.31867 7.42667,-7.25734 7.364,-12.96267 -0.0493,-4.29067 -1.83866,-8.11067 -4.61733,-10.68667 4.68,-2.38133 7.86933,-7.23866 7.80933,-12.82533"
       style="fill:#93725c;fill-opacity:1;fill-rule:nonzero;stroke:none"
       id="path360" /><path
       inkscape:connector-curvature="0"
       d="m 406.16932,302.34135 c -0.1,-0.0453 -0.2,-0.088 -0.3,-0.13067 l 3.488,-12.06133 c 0,0 0.17467,-0.0427 0.48667,-0.0827 -0.148,0.136 -0.22533,0.21867 -0.22533,0.21867 0,0 -1.23867,4.696 -3.44934,12.056"
       style="fill:#a3c3bf;fill-opacity:1;fill-rule:nonzero;stroke:none"
       id="path362" /><path
       inkscape:connector-curvature="0"
       d="m 411.89999,307.72268 c -0.588,-1.16 -1.62933,-2.49333 -2.67467,-3.46267 -0.88266,-0.812 -1.944,-1.42266 -3.056,-1.91866 2.21067,-7.36 3.44934,-12.056 3.44934,-12.056 0,0 0.0773,-0.0827 0.22533,-0.21867 0.288,-0.0373 0.692,-0.0733 1.18267,-0.0733 1.788,0 4.73333,0.47466 7.43733,3.08133 0,0 -1.632,10.43467 -6.564,14.648"
       style="fill:#b99f8e;fill-opacity:1;fill-rule:nonzero;stroke:none"
       id="path364" /><path
       inkscape:connector-curvature="0"
       d="m 404.21599,308.69735 c -0.0653,-0.0307 -0.12933,-0.0613 -0.19467,-0.092 l 0,0 c 0.0653,0.0307 0.13067,0.06 0.196,0.0893 l -0.001,0.003"
       style="fill:#b4cdc3;fill-opacity:1;fill-rule:nonzero;stroke:none"
       id="path366" /><path
       inkscape:connector-curvature="0"
       d="m 407.60132,309.50001 c -1.05333,0 -2.192,-0.252 -3.38533,-0.80266 l 0.001,-0.003 c 1.18,0.52667 2.27067,0.76133 3.27867,0.76133 1.69733,0 3.156,-0.668 4.404,-1.73333 0.001,0.003 0.003,0.005 0.004,0.008 -1.12667,1.11467 -2.604,1.76933 -4.30267,1.76933"
       style="fill:#caaa93;fill-opacity:1;fill-rule:nonzero;stroke:none"
       id="path368" /><path
       inkscape:connector-curvature="0"
       d="m 404.02132,308.60535 1.75734,-6.43334 c 0.0307,0.012 0.0613,0.0253 0.0907,0.0387 l -1.848,6.39467"
       style="fill:#b4cdc3;fill-opacity:1;fill-rule:nonzero;stroke:none"
       id="path370" /><path
       inkscape:connector-curvature="0"
       d="m 404.21732,308.69468 c -0.0653,-0.0293 -0.13066,-0.0587 -0.196,-0.0893 l 0,0 1.848,-6.39467 c 0.1,0.0427 0.2,0.0853 0.3,0.13067 -0.58533,1.944 -1.23733,4.07333 -1.952,6.35333"
       style="fill:#d1ccbc;fill-opacity:1;fill-rule:nonzero;stroke:none"
       id="path372" /><path
       inkscape:connector-curvature="0"
       d="m 407.49599,309.45601 c -1.008,0 -2.09867,-0.23466 -3.27867,-0.76133 0.71467,-2.28 1.36667,-4.40933 1.952,-6.35333 1.112,0.496 2.17334,1.10666 3.056,1.91866 1.04534,0.96934 2.08667,2.30267 2.67467,3.46267 -1.248,1.06533 -2.70667,1.73333 -4.404,1.73333"
       style="fill:#dabda8;fill-opacity:1;fill-rule:nonzero;stroke:none"
       id="path374" /><path
       inkscape:connector-curvature="0"
       d="m 332.41866,493.18801 75.428,13.17733 4.57733,-24.21867 -75.42933,-13.18666 -4.576,24.228"
       style="fill:#ffffff;fill-opacity:1;fill-rule:nonzero;stroke:none"
       id="path376" /><path
       inkscape:connector-curvature="0"
       d="m 382.03999,666.66667 30.828,-168.42266 -85.95866,-15.01867 -36.3,183.44133 91.43066,0"
       style="fill:#333745;fill-opacity:1;fill-rule:nonzero;stroke:none"
       id="path378" /><path
       inkscape:connector-curvature="0"
       d="m 341.43599,478.28001 c -0.32933,1.71866 0.84,3.352 2.60667,3.66266 1.76666,0.30534 3.45866,-0.82933 3.78,-2.54666 0.324,-1.708 -0.848,-3.34667 -2.608,-3.65067 -1.764,-0.31333 -3.448,0.82267 -3.77867,2.53467"
       style="fill:#333745;fill-opacity:1;fill-rule:nonzero;stroke:none"
       id="path380" /><path
       inkscape:connector-curvature="0"
       d="m 494.07599,666.66667 -18.39467,0 9.39733,-52.2656 c 0.001,0 0.003,0 0.005,0 1.032,0 32.43866,-0.3412 32.43866,-0.3412 5.86134,-0.0625 10.54667,-5.30933 10.47067,-11.7068 -0.0373,-3.56666 -1.54933,-6.73426 -3.888,-8.83426 4.40533,-2.3204 7.42533,-7.25894 7.364,-12.96307 -0.0507,-4.29173 -1.83733,-8.1104 -4.61733,-10.688 4.67866,-2.38133 7.86933,-7.23707 7.80933,-12.82507 -0.0453,-4.13066 -1.87067,-7.82026 -4.73067,-10.388 3.776,-2.52653 6.28134,-7.088 6.224,-12.28533 -0.003,-0.2496 -0.012,-0.49587 -0.0267,-0.7428 l 0.184,-0.001 c 0.0453,-0.001 0.0893,-0.001 0.13466,-0.001 7.13067,0 12.948,6.2744 13.04134,14.07866 0.0573,5.19734 -2.448,9.7588 -6.224,12.28534 2.86,2.56773 4.68533,6.25733 4.73066,10.388 0.06,5.588 -3.13066,10.44373 -7.80933,12.82506 2.78,2.5776 4.56667,6.39627 4.61733,10.688 0.0613,5.70414 -2.95866,10.64267 -7.364,12.96307 2.33867,2.1 3.85067,5.2676 3.888,8.83426 0.076,6.3964 -4.60933,11.64427 -10.47066,11.7068 0,0 -31.42267,0.3412 -32.44,0.3412 -0.001,0 -0.003,0 -0.004,0 l -4.77867,26.57863 2.688,0.47083 -2.24533,11.88281 m -5.28,-145.96533 2.11466,-5.10667 7.29867,-31.31866 c 0,0 2.54,-15.37334 1.34267,-24.08267 0.12933,-0.005 0.25866,-0.009 0.39066,-0.009 3.23067,0 7.36534,1.91867 11.652,8.96933 3.656,6.01467 -0.052,28.456 -0.052,28.456 l -5.33333,22.884 -17.41333,0.208"
       style="fill:#183654;fill-opacity:1;fill-rule:nonzero;stroke:none"
       id="path382" /><path
       inkscape:connector-curvature="0"
       d="m 475.68132,666.66667 9.39733,-52.2656 c 0.91734,0.002 32.444,-0.3412 32.444,-0.3412 5.86134,-0.0625 10.54667,-5.30933 10.47067,-11.7068 -0.0373,-3.56666 -1.54933,-6.73426 -3.888,-8.83426 4.40533,-2.3204 7.42533,-7.25894 7.364,-12.96307 -0.0507,-4.29173 -1.83733,-8.1104 -4.61733,-10.688 4.67866,-2.38133 7.86933,-7.23707 7.80933,-12.82507 -0.0453,-4.13066 -1.87067,-7.82026 -4.73067,-10.388 3.776,-2.52653 6.28134,-7.088 6.224,-12.28533 -0.0933,-7.85333 -5.98266,-14.15733 -13.176,-14.07733 l -34.18266,0.40933 2.11466,-5.10667 7.29867,-31.31866 c 0,0 3.70667,-22.44133 0.052,-28.456 -9.40533,-15.46933 -18.07867,-6.23333 -18.07867,-6.23333 0,0 -10.45333,39.66666 -24.87599,69.05199 l -27.10667,38.80667 -22.272,109.22133 69.75333,0"
       style="fill:#ffd8b5;fill-opacity:1;fill-rule:nonzero;stroke:none"
       id="path384" /><path
       inkscape:connector-curvature="0"
       d="m 476.73332,461.64401 c -0.1,-0.044 -0.2,-0.088 -0.3,-0.13067 l 3.48667,-12.06133 c 0,0 0.176,-0.0427 0.488,-0.0827 -0.148,0.136 -0.22534,0.21734 -0.22534,0.21734 0,0 -1.23866,4.69866 -3.44933,12.05733"
       style="fill:#bce8eb;fill-opacity:1;fill-rule:nonzero;stroke:none"
       id="path386" /><path
       inkscape:connector-curvature="0"
       d="m 482.46532,467.02534 c -0.58933,-1.15866 -1.63067,-2.49333 -2.67467,-3.46266 -0.884,-0.81067 -1.944,-1.42134 -3.05733,-1.91867 2.21067,-7.35867 3.44933,-12.05733 3.44933,-12.05733 0,0 0.0773,-0.0813 0.22534,-0.21734 0.28666,-0.0373 0.69066,-0.0733 1.18266,-0.0733 1.788,0 4.73334,0.47467 7.436,3.08133 0,0 -1.62933,10.436 -6.56133,14.648"
       style="fill:#ffefe0;fill-opacity:1;fill-rule:nonzero;stroke:none"
       id="path388" /><path
       inkscape:connector-curvature="0"
       d="m 474.77999,468.00001 c -0.064,-0.0307 -0.12934,-0.0613 -0.19467,-0.092 l 0,0 c 0.0667,0.0307 0.13067,0.06 0.196,0.0893 l -0.001,0.003"
       style="fill:#bce8eb;fill-opacity:1;fill-rule:nonzero;stroke:none"
       id="path390" /><path
       inkscape:connector-curvature="0"
       d="m 478.16665,468.80401 c -1.05466,0 -2.19333,-0.25334 -3.38666,-0.804 l 0.001,-0.003 c 1.18133,0.52667 2.272,0.76133 3.28,0.76133 1.69733,0 3.156,-0.66666 4.404,-1.73333 0.001,0.003 0.003,0.005 0.004,0.008 -1.12667,1.11467 -2.604,1.77067 -4.30267,1.77067"
       style="fill:#ffefe0;fill-opacity:1;fill-rule:nonzero;stroke:none"
       id="path392" /><path
       inkscape:connector-curvature="0"
       d="m 474.58532,467.90801 1.75733,-6.43333 c 0.0307,0.0133 0.0613,0.0267 0.0907,0.0387 l -1.848,6.39467"
       style="fill:#bce8eb;fill-opacity:1;fill-rule:nonzero;stroke:none"
       id="path394" /><path
       inkscape:connector-curvature="0"
       d="m 474.78132,467.99734 c -0.0653,-0.0293 -0.12933,-0.0587 -0.196,-0.0893 l 0,0 1.848,-6.39467 c 0.1,0.0427 0.2,0.0867 0.3,0.13067 -0.58533,1.94533 -1.23733,4.07333 -1.952,6.35333"
       style="fill:#e3f5f7;fill-opacity:1;fill-rule:nonzero;stroke:none"
       id="path396" /><path
       inkscape:connector-curvature="0"
       d="m 478.06132,468.75867 c -1.008,0 -2.09867,-0.23466 -3.28,-0.76133 0.71467,-2.28 1.36667,-4.408 1.952,-6.35333 1.11333,0.49733 2.17333,1.108 3.05733,1.91867 1.044,0.96933 2.08534,2.304 2.67467,3.46266 -1.248,1.06667 -2.70667,1.73333 -4.404,1.73333"
       style="fill:#fff8f2;fill-opacity:1;fill-rule:nonzero;stroke:none"
       id="path398" /><path
       inkscape:connector-curvature="0"
       d="m 402.98399,652.49067 75.42666,13.1786 4.57734,-24.21873 -75.428,-13.188 -4.576,24.22813"
       style="fill:#ffffff;fill-opacity:1;fill-rule:nonzero;stroke:none"
       id="path400" /><path
       inkscape:connector-curvature="0"
       d="m 481.76265,666.66667 1.66934,-9.11979 -85.95867,-15.01874 -4.776,24.13853 89.06533,0"
       style="fill:#574946;fill-opacity:1;fill-rule:nonzero;stroke:none"
       id="path402" /><path
       inkscape:connector-curvature="0"
       d="m 411.99999,637.58387 c -0.328,1.7188 0.84,3.35053 2.60667,3.66307 1.76666,0.3036 3.45866,-0.82974 3.78133,-2.54854 0.32267,-1.70773 -0.848,-3.34533 -2.608,-3.65053 -1.76533,-0.31187 -3.44933,0.82293 -3.78,2.536"
       style="fill:#574946;fill-opacity:1;fill-rule:nonzero;stroke:none"
       id="path404" /><path
       inkscape:connector-curvature="0"
       d="m 292.86799,655.25208 -32.65733,-160.13874 -27.104,-38.80666 c -8.148,-16.60134 -15.02933,-36.48134 -19.47467,-50.63867 0.0653,-0.0307 0.12934,-0.0613 0.19467,-0.092 l 0,0 -1.75733,-6.43467 c -0.0307,0.0133 -0.0613,0.0267 -0.0907,0.0387 l -0.18533,-0.63867 c 1.18933,-0.49333 2.312,-0.68933 3.34266,-0.68933 3.18934,0 5.49867,1.87067 6.20267,2.51867 0.31067,0.0413 0.48667,0.0827 0.48667,0.0827 l 3.48666,12.064 0.0907,-0.0427 1.75733,6.43466 -0.19733,0.08 c 4.44533,14.15867 11.32667,34.044 19.47733,50.65067 l 27.104,38.80666 14.65467,71.86374 5.98667,-1.0464 2.92933,15.51466 7.15733,-1.24946 0.40534,2.0468 -11.80934,59.67607"
       style="fill:#183654;fill-opacity:1;fill-rule:nonzero;stroke:none"
       id="path406" /><path
       inkscape:connector-curvature="0"
       d="m 318.74533,666.66667 -23.54934,0 -2.328,-11.41459 11.80934,-59.67607 14.068,71.09066"
       style="fill:#303441;fill-opacity:1;fill-rule:nonzero;stroke:none"
       id="path408" /><path
       inkscape:connector-curvature="0"
       d="m 205.71199,565.29214 c -9.42133,-0.1 -21.48799,-0.23067 -21.48799,-0.23067 -5.86267,-0.0631 -10.548,-5.31093 -10.472,-11.7068 0.007,-0.5416 0.0467,-1.07346 0.11733,-1.5948 7.88,0.0855 28.72133,0.30947 29.46533,0.30947 l 2.37733,13.2228"
       style="fill:#183654;fill-opacity:1;fill-rule:nonzero;stroke:none"
       id="path410" /><path
       inkscape:connector-curvature="0"
       d="m 158.48133,484.32267 c -2.86,2.568 -4.684,6.25734 -4.73067,10.388 -0.0587,5.58667 3.13067,10.44267 7.80934,12.82534 -2.77867,2.57733 -4.56667,6.396 -4.616,10.688 -0.0627,5.70266 2.95866,10.64266 7.36266,12.96133 -2.33866,2.10133 -3.84933,5.26933 -3.888,8.836 -0.076,6.39587 4.60934,11.64373 10.47067,11.7068 0,0 31.52666,0.3412 32.44533,0.3412 l 20.604,114.59733 71.25733,0 -34.98533,-171.55333 -27.104,-38.80666 c -14.42267,-29.38667 -24.87733,-69.052 -24.87733,-69.052 0,0 -8.67333,-9.236 -18.07867,6.23333 -3.65466,6.01333 0.052,28.45467 0.052,28.45467 l 7.29867,31.32 2.116,5.10666 -34.184,-0.40933 c -7.192,-0.0813 -13.08267,6.22267 -13.176,14.076 -0.0573,5.19866 2.448,9.76 6.224,12.28666"
       style="fill:#f2caaa;fill-opacity:1;fill-rule:nonzero;stroke:none"
       id="path412" /><path
       inkscape:connector-curvature="0"
       d="m 211.48799,398.67468 c -2.092,-6.992 -3.25866,-11.42 -3.25866,-11.42 0,0 -0.0773,-0.0813 -0.22534,-0.21734 0.312,0.04 0.488,0.0827 0.488,0.0827 l 3.30134,11.42133 c -0.10134,0.0427 -0.20267,0.0867 -0.30534,0.13334"
       style="fill:#bce8eb;fill-opacity:1;fill-rule:nonzero;stroke:none"
       id="path414" /><path
       inkscape:connector-curvature="0"
       d="m 211.67866,399.31068 c -0.064,-0.21334 -0.128,-0.42667 -0.19067,-0.636 0.10267,-0.0467 0.204,-0.0907 0.30534,-0.13334 l 0.18533,0.63867 c -0.1,0.0427 -0.2,0.0867 -0.3,0.13067"
       style="fill:#bae3e7;fill-opacity:1;fill-rule:nonzero;stroke:none"
       id="path416" /><path
       inkscape:connector-curvature="0"
       d="m 205.94799,404.69334 c -4.932,-4.212 -6.56266,-14.648 -6.56266,-14.648 2.70266,-2.60666 5.648,-3.08133 7.436,-3.08133 0.492,0 0.896,0.036 1.18266,0.0733 0.148,0.136 0.22534,0.21734 0.22534,0.21734 0,0 1.16666,4.428 3.25866,11.42 0.0627,0.20933 0.12667,0.42266 0.19067,0.636 -1.11333,0.49733 -2.17333,1.10933 -3.056,1.92 -1.04533,0.96933 -2.08533,2.30266 -2.67467,3.46266"
       style="fill:#fae9db;fill-opacity:1;fill-rule:nonzero;stroke:none"
       id="path418" /><path
       inkscape:connector-curvature="0"
       d="m 213.63199,405.66801 0,-0.003 c 0.064,-0.0293 0.12934,-0.0587 0.19467,-0.0893 l 0,0 c -0.0653,0.0307 -0.12933,0.0613 -0.19467,0.092 m 0.19467,-0.092 -1.848,-6.396 c 0.0293,-0.012 0.06,-0.0253 0.0907,-0.0387 l 1.75733,6.43467"
       style="fill:#bae3e7;fill-opacity:1;fill-rule:nonzero;stroke:none"
       id="path420" /><path
       inkscape:connector-curvature="0"
       d="m 210.24666,406.47201 c -1.69867,0 -3.17733,-0.656 -4.30267,-1.77067 0.001,-0.003 0.003,-0.005 0.004,-0.008 1.248,1.06667 2.70667,1.73334 4.404,1.73334 1.00667,0 2.09867,-0.23467 3.28,-0.76134 l 0,0.003 c -1.19333,0.55067 -2.332,0.804 -3.38533,0.804"
       style="fill:#fae9db;fill-opacity:1;fill-rule:nonzero;stroke:none"
       id="path422" /><path
       inkscape:connector-curvature="0"
       d="m 213.63199,405.66534 c -0.716,-2.28 -1.368,-4.40933 -1.95333,-6.35466 0.1,-0.044 0.2,-0.088 0.3,-0.13067 l 1.848,6.396 c -0.0653,0.0307 -0.13067,0.06 -0.19467,0.0893"
       style="fill:#e2f3f5;fill-opacity:1;fill-rule:nonzero;stroke:none"
       id="path424" /><path
       inkscape:connector-curvature="0"
       d="m 210.35199,406.42668 c -1.69733,0 -3.156,-0.66667 -4.404,-1.73334 0.58934,-1.16 1.62934,-2.49333 2.67467,-3.46266 0.88267,-0.81067 1.94267,-1.42267 3.056,-1.92 0.58533,1.94533 1.23733,4.07466 1.95333,6.35466 -1.18133,0.52667 -2.27333,0.76134 -3.28,0.76134"
       style="fill:#fdf6f0;fill-opacity:1;fill-rule:nonzero;stroke:none"
       id="path426" /><path
       inkscape:connector-curvature="0"
       d="m 285.42666,590.15881 -75.42533,13.17866 -4.57734,-24.22026 75.428,-13.18654 4.57467,24.22814"
       style="fill:#ffffff;fill-opacity:1;fill-rule:nonzero;stroke:none"
       id="path428" /><path
       inkscape:connector-curvature="0"
       d="m 308.04933,666.66667 -17.11067,-86.47186 -85.95867,15.01973 13.07867,71.45213 89.99067,0"
       style="fill:#5a4b53;fill-opacity:1;fill-rule:nonzero;stroke:none"
       id="path430" /><path
       inkscape:connector-curvature="0"
       d="m 276.41199,575.25054 c 0.32934,1.72027 -0.84,3.35053 -2.60666,3.664 -1.76667,0.30427 -3.45734,-0.83067 -3.78,-2.54947 -0.324,-1.70626 0.84666,-3.34373 2.608,-3.64893 1.76533,-0.312 3.448,0.82133 3.77866,2.5344"
       style="fill:#5a4b53;fill-opacity:1;fill-rule:nonzero;stroke:none"
       id="path432" /><path
       inkscape:connector-curvature="0"
       id="path434"
       d="m 537.70117,188.71875 c -1.03067,0 -2.15308,0.19478 -3.34375,0.68945 l 0.18555,0.64063 c 0.0307,-0.0134 0.0611,-0.0271 0.0918,-0.0391 l 1.75781,6.43164 c -0.064,0.032 -0.12936,0.0645 -0.19336,0.0937 4.444,14.15867 11.32465,34.03734 19.47266,50.63867 l 27.10546,38.80664 37.51954,183.98437 -67.50586,0 15.5664,92.19336 c 1.82267,0.28907 3.2168,1.86931 3.2168,3.77344 0,1.35827 -0.70996,2.55239 -1.7793,3.22852 0.41867,0.7228 0.82047,1.45328 1.20313,2.18554 l -0.58985,0.31055 c -0.21067,-0.40414 -0.42772,-0.80987 -0.65039,-1.21094 l 6.44531,38.17774 c 0.11334,-0.65827 0.21344,-1.32185 0.30274,-1.98438 l 0.66211,0.0937 c -0.17334,1.27346 -0.38987,2.54924 -0.64453,3.79297 l 9.5625,56.63281 80.8164,0 0,-60.17773 -40.06445,-222.58399 -7.1582,1.25 -2.92969,-15.51367 -5.98438,1.04492 -14.65624,-71.86328 -27.10352,-38.80664 c -8.15067,-16.60666 -15.03319,-36.49173 -19.47852,-50.65039 l 0.19727,-0.082 -1.75586,-6.43164 -0.0918,0.0391 -3.48633,-12.0625 c 0,0 -0.17566,-0.042 -0.48632,-0.082 -0.70534,-0.64933 -3.0138,-2.51953 -6.20313,-2.51953 z m 80.75781,194.87891 0.27344,0.60546 c -1.22667,0.55868 -2.50178,1.05461 -3.78711,1.47461 l -0.20703,-0.63476 c 1.26267,-0.412 2.51537,-0.89597 3.7207,-1.44531 z m -7.57812,2.46875 0.13476,0.65234 c -1.31599,0.272 -2.66887,0.47294 -4.01953,0.59961 l -0.0625,-0.66406 c 1.328,-0.12267 2.65527,-0.31989 3.94727,-0.58789 z M 572.74219,574.9668 c 0.53734,1.224 1.03885,2.4797 1.49219,3.73437 l -0.62891,0.22852 c -0.44666,-1.24266 -0.94199,-2.48563 -1.47266,-3.69336 l 0.60938,-0.26953 z m 2.72461,7.57226 c 0.36666,1.2916 0.69213,2.60554 0.96679,3.90821 l -0.65039,0.13671 c -0.272,-1.288 -0.59436,-2.58728 -0.95703,-3.86328 l 0.64063,-0.18164 z m 1.66406,7.87305 c 0.18666,1.31613 0.32783,2.66213 0.42383,4.00586 l -0.66211,0.0469 c -0.096,-1.32813 -0.23922,-2.65863 -0.42188,-3.95703 l 0.66016,-0.0957 z m -0.0879,8.0293 0.66601,0 0,0.25976 c 0,1.33333 -0.0455,2.68939 -0.13476,4.02539 l -0.66406,-0.0449 c 0.088,-1.324 0.13281,-2.66167 0.13281,-3.98047 l 0,-0.25976 z"
       style="fill:#183654;fill-opacity:1;fill-rule:nonzero;stroke:none" /><path
       inkscape:connector-curvature="0"
       d="m 614.70932,385.18668 -0.20667,-0.63467 c 1.26267,-0.412 2.51467,-0.89733 3.72,-1.44667 l 0.27467,0.60667 c -1.22667,0.55867 -2.50267,1.05467 -3.788,1.47467"
       style="fill:#f2f2f2;fill-opacity:1;fill-rule:nonzero;stroke:none"
       id="path436" /><path
       inkscape:connector-curvature="0"
       d="m 606.76132,386.82668 -0.0627,-0.664 c 1.328,-0.12267 2.65467,-0.32 3.94667,-0.588 l 0.13466,0.65333 c -1.316,0.272 -2.668,0.472 -4.01866,0.59867"
       style="fill:#f2f2f2;fill-opacity:1;fill-rule:nonzero;stroke:none"
       id="path438" /><path
       inkscape:connector-curvature="0"
       d="m 576.65599,593.97347 c -0.096,-1.32813 -0.23734,-2.65893 -0.42,-3.95733 l 0.66,-0.0948 c 0.18666,1.31613 0.328,2.66147 0.424,4.0052 l -0.664,0.0469"
       style="fill:#f2f2f2;fill-opacity:1;fill-rule:nonzero;stroke:none"
       id="path440" /><path
       inkscape:connector-curvature="0"
       d="m 575.54799,586.09321 c -0.272,-1.288 -0.59467,-2.588 -0.95734,-3.864 l 0.64134,-0.18227 c 0.36666,1.2916 0.692,2.60613 0.96666,3.9088 l -0.65066,0.13747"
       style="fill:#f2f2f2;fill-opacity:1;fill-rule:nonzero;stroke:none"
       id="path442" /><path
       inkscape:connector-curvature="0"
       d="m 573.37065,578.43747 c -0.44666,-1.24266 -0.94266,-2.4844 -1.47333,-3.69213 l 0.60933,-0.26933 c 0.53734,1.224 1.03867,2.47973 1.492,3.7344 l -0.628,0.22706"
       style="fill:#f2f2f2;fill-opacity:1;fill-rule:nonzero;stroke:none"
       id="path444" /><path
       inkscape:connector-curvature="0"
       d="m 576.28799,610.0344 -0.32134,-1.90266 c 0.11334,-0.65827 0.21467,-1.32134 0.304,-1.98387 l 0.66134,0.0923 c -0.17334,1.27346 -0.38934,2.55053 -0.644,3.79426"
       style="fill:#f2f2f2;fill-opacity:1;fill-rule:nonzero;stroke:none"
       id="path446" /><path
       inkscape:connector-curvature="0"
       d="m 577.33865,602.2344 -0.664,-0.0437 c 0.088,-1.324 0.132,-2.66146 0.132,-3.98026 l 0,-0.25987 0.66667,0 0,0.25987 c 0,1.33333 -0.0453,2.68799 -0.13467,4.02399"
       style="fill:#f2f2f2;fill-opacity:1;fill-rule:nonzero;stroke:none"
       id="path448" /><path
       inkscape:connector-curvature="0"
       d="m 570.17199,571.16401 c -0.21067,-0.40414 -0.428,-0.80827 -0.65067,-1.20934 l -0.19467,-1.14946 c 0.0787,-0.0427 0.15734,-0.088 0.232,-0.13587 0.41867,0.7228 0.82134,1.45307 1.204,2.18533 l -0.59066,0.30934"
       style="fill:#f2f2f2;fill-opacity:1;fill-rule:nonzero;stroke:none"
       id="path450" /><path
       inkscape:connector-curvature="0"
       d="m 569.32665,568.80521 -1.20533,-7.13854 c 1.82267,0.28907 3.21733,1.86934 3.21733,3.77347 0,1.35827 -0.71066,2.55307 -1.78,3.2292 -0.0747,0.0479 -0.15333,0.0932 -0.232,0.13587"
       style="fill:#f2f2f2;fill-opacity:1;fill-rule:nonzero;stroke:none"
       id="path452" /><path
       inkscape:connector-curvature="0"
       d="m 618.16798,513.97601 c -5.49733,0 -9.95866,-4.46 -9.95866,-9.95734 0,-5.49866 4.46133,-9.96 9.95866,-9.96 5.49867,0 9.95867,4.46134 9.95867,9.96 0,5.49734 -4.46,9.95734 -9.95867,9.95734"
       style="fill:#2da2af;fill-opacity:1;fill-rule:nonzero;stroke:none"
       id="path454" /><path
       inkscape:connector-curvature="0"
       d="m 528.04132,355.66801 c -9.42,-0.1 -21.488,-0.23067 -21.488,-0.23067 -5.86133,-0.0627 -10.54667,-5.31066 -10.47067,-11.70666 0.005,-0.54134 0.0453,-1.07334 0.116,-1.59467 7.88134,0.0853 28.72134,0.30933 29.46534,0.30933 l 2.37733,13.22267"
       style="fill:#183654;fill-opacity:0.94117647;fill-rule:nonzero;stroke:none"
       id="path458" /><path
       inkscape:connector-curvature="0"
       d="m 476.08132,285.08668 c 0.0453,-4.132 1.87067,-7.82 4.72933,-10.388 -3.776,-2.528 -6.28,-7.08933 -6.224,-12.28533 0.0947,-7.85467 5.984,-14.15867 13.176,-14.07867 l 34.184,0.412 -2.11466,-5.108 -7.3,-31.32 c 0,0 -3.70667,-22.44133 -0.052,-28.45466 9.40666,-15.47067 18.08,-6.232 18.08,-6.232 0,0 10.45333,39.66533 24.876,69.05066 l 27.10533,38.80667 37.52,183.98399 -71.55733,0 -22.84,-127.028 c -0.91734,0 -32.444,-0.34133 -32.444,-0.34133 -5.86134,-0.0627 -10.54667,-5.31067 -10.472,-11.70666 0.04,-3.56667 1.55066,-6.73467 3.88933,-8.836 -4.40533,-2.31867 -7.42667,-7.25734 -7.364,-12.96134 0.0493,-4.292 1.83733,-8.11066 4.61733,-10.688 -4.68,-2.38133 -7.86933,-7.23866 -7.80933,-12.82533"
       style="fill:#f2d2b8;fill-opacity:1;fill-rule:nonzero;stroke:none"
       id="path460" /><path
       inkscape:connector-curvature="0"
       d="m 533.81865,189.05068 c -2.092,-6.99333 -3.25866,-11.41866 -3.25866,-11.41866 0,0 -0.0773,-0.0827 -0.22534,-0.22 0.312,0.0413 0.48667,0.084 0.48667,0.084 l 3.30133,11.42133 c -0.10133,0.0427 -0.20266,0.0867 -0.304,0.13333"
       style="fill:#bce8eb;fill-opacity:1;fill-rule:nonzero;stroke:none"
       id="path462" /><path
       inkscape:connector-curvature="0"
       d="m 534.00932,189.68668 c -0.064,-0.21333 -0.128,-0.42666 -0.19067,-0.636 0.10134,-0.0467 0.20267,-0.0907 0.304,-0.13333 l 0.18534,0.64 c -0.1,0.0427 -0.2,0.0853 -0.29867,0.12933"
       style="fill:#bae3e7;fill-opacity:1;fill-rule:nonzero;stroke:none"
       id="path464" /><path
       inkscape:connector-curvature="0"
       d="m 528.27732,195.06935 c -4.932,-4.21333 -6.56267,-14.648 -6.56267,-14.648 2.70267,-2.60667 5.64934,-3.08267 7.43734,-3.08267 0.49066,0 0.89466,0.036 1.18266,0.0733 0.148,0.13733 0.22534,0.22 0.22534,0.22 0,0 1.16666,4.42533 3.25866,11.41866 0.0627,0.20934 0.12667,0.42267 0.19067,0.636 -1.11333,0.49734 -2.17467,1.10934 -3.05733,1.92 -1.04534,0.96934 -2.08534,2.30267 -2.67467,3.46267"
       style="fill:#faece1;fill-opacity:1;fill-rule:nonzero;stroke:none"
       id="path466" /><path
       inkscape:connector-curvature="0"
       d="m 535.96265,196.04268 -0.001,-0.003 c 0.0653,-0.028 0.12933,-0.0587 0.19467,-0.0893 l 0,0 c -0.064,0.032 -0.12934,0.0627 -0.19334,0.092"
       style="fill:#bae3e7;fill-opacity:1;fill-rule:nonzero;stroke:none"
       id="path468" /><path
       inkscape:connector-curvature="0"
       d="m 532.57599,196.84668 c -1.69867,0 -3.17734,-0.65466 -4.30267,-1.76933 0.001,-0.003 0.003,-0.005 0.004,-0.008 1.248,1.06533 2.70667,1.73333 4.40267,1.73333 1.008,0 2.1,-0.236 3.28133,-0.76266 l 0.001,0.003 c -1.19333,0.552 -2.33333,0.804 -3.38666,0.804"
       style="fill:#faece1;fill-opacity:1;fill-rule:nonzero;stroke:none"
       id="path470" /><path
       inkscape:connector-curvature="0"
       d="m 536.15599,195.95068 -1.848,-6.39333 c 0.0307,-0.0133 0.0613,-0.0267 0.092,-0.0387 l 1.756,6.432"
       style="fill:#bae3e7;fill-opacity:1;fill-rule:nonzero;stroke:none"
       id="path472" /><path
       inkscape:connector-curvature="0"
       d="m 535.96132,196.04002 c -0.716,-2.27867 -1.368,-4.408 -1.952,-6.35334 0.0987,-0.044 0.19867,-0.0867 0.29867,-0.12933 l 1.848,6.39333 c -0.0653,0.0307 -0.12934,0.0613 -0.19467,0.0893"
       style="fill:#e2f3f5;fill-opacity:1;fill-rule:nonzero;stroke:none"
       id="path474" /><path
       inkscape:connector-curvature="0"
       d="m 532.67999,196.80268 c -1.696,0 -3.15467,-0.668 -4.40267,-1.73333 0.58933,-1.16 1.62933,-2.49333 2.67467,-3.46267 0.88266,-0.81066 1.944,-1.42266 3.05733,-1.92 0.584,1.94534 1.236,4.07467 1.952,6.35334 -1.18133,0.52666 -2.27333,0.76266 -3.28133,0.76266"
       style="fill:#fdf7f2;fill-opacity:1;fill-rule:nonzero;stroke:none"
       id="path476" /><path
       inkscape:connector-curvature="0"
       d="m 607.75598,380.53334 -75.42399,13.18 -4.57867,-24.22 75.428,-13.18666 4.57466,24.22666"
       style="fill:#ffffff;fill-opacity:1;fill-rule:nonzero;stroke:none"
       id="path478" /><path
       inkscape:connector-curvature="0"
       d="m 666.56532,666.66667 -53.29734,-296.09466 -85.95866,15.01867 47.45867,281.07599 91.79733,0"
       style="fill:#02506b;fill-opacity:1;fill-rule:nonzero;stroke:none"
       id="path480" /><path
       inkscape:connector-curvature="0"
       d="m 598.74265,365.62801 c 0.328,1.71867 -0.84,3.34933 -2.60666,3.66267 -1.768,0.304 -3.45867,-0.83067 -3.78134,-2.548 -0.324,-1.70934 0.84667,-3.34667 2.608,-3.652 1.76534,-0.31067 3.44934,0.824 3.78,2.53733"
       style="fill:#02506b;fill-opacity:1;fill-rule:nonzero;stroke:none"
       id="path482" /></g></svg>