<?xml version="1.0" encoding="UTF-8" standalone="no"?>
<!-- Created with Inkscape (http://www.inkscape.org/) -->

<svg
   xmlns:dc="http://purl.org/dc/elements/1.1/"
   xmlns:cc="http://creativecommons.org/ns#"
   xmlns:rdf="http://www.w3.org/1999/02/22-rdf-syntax-ns#"
   xmlns:svg="http://www.w3.org/2000/svg"
   xmlns="http://www.w3.org/2000/svg"
   xmlns:sodipodi="http://sodipodi.sourceforge.net/DTD/sodipodi-0.dtd"
   xmlns:inkscape="http://www.inkscape.org/namespaces/inkscape"
   width="300"
   height="100"
   id="svg2"
   version="1.1"
   inkscape:version="0.48.0 r9654"
   sodipodi:docname="ok3.svg">
  <defs
     id="defs4">
    <filter
       inkscape:collect="always"
       id="filter3914"
       color-interpolation-filters="sRGB">
      <feGaussianBlur
         inkscape:collect="always"
         stdDeviation="3.4625714"
         id="feGaussianBlur3916" />
    </filter>
  </defs>
  <sodipodi:namedview
     id="base"
     pagecolor="#ffffff"
     bordercolor="#666666"
     borderopacity="1.0"
     inkscape:pageopacity="0"
     inkscape:pageshadow="2"
     inkscape:zoom="2.8"
     inkscape:cx="133.99077"
     inkscape:cy="60.440865"
     inkscape:document-units="px"
     inkscape:current-layer="layer1"
     showgrid="false"
     inkscape:window-width="1280"
     inkscape:window-height="705"
     inkscape:window-x="-8"
     inkscape:window-y="-8"
     inkscape:window-maximized="1" />
  <metadata
     id="metadata7">
    <rdf:RDF>
      <cc:Work
         rdf:about="">
        <dc:format>image/svg+xml</dc:format>
        <dc:type
           rdf:resource="http://purl.org/dc/dcmitype/StillImage" />
        <dc:title />
      </cc:Work>
    </rdf:RDF>
  </metadata>
  <g
     inkscape:label="Layer 1"
     inkscape:groupmode="layer"
     id="layer1"
     transform="translate(0,-952.36218)">
    <g
       id="g4427">
      <rect
         transform="matrix(0.49267767,0,0,0.48264485,-20.144565,758.01032)"
         style="fill:#4b5f7c;fill-opacity:1;filter:url(#filter3914)"
         id="rect3868"
         width="530"
         height="140"
         x="92.857147"
         y="443.07648"
         rx="0"
         ry="0" />
      <rect
         ry="0"
         rx="0"
         y="966.38623"
         x="17.788963"
         height="70.591988"
         width="267.24109"
         id="rect3848"
         style="fill:#fbbf58;fill-opacity:1" />
      <g
         id="text3862"
         style="font-size:36.34882736px;font-style:normal;font-variant:normal;font-weight:normal;font-stretch:normal;text-align:start;line-height:125%;letter-spacing:0px;word-spacing:0px;writing-mode:lr-tb;text-anchor:start;fill:#000000;fill-opacity:1;stroke:none;font-family:Showcard Gothic;-inkscape-font-specification:Showcard Gothic">
        <path
           id="path4393"
           d="m 141.7944,991.30028 c -3e-5,4.17681 -1.07677,7.70875 -3.23022,10.59582 -2.25999,3.0172 -5.15299,4.5259 -8.67899,4.5259 -3.63253,0 -6.57285,-1.5205 -8.82098,-4.5614 -2.11799,-2.86341 -3.17698,-6.38351 -3.17698,-10.56032 0,-4.46076 1.15365,-7.96312 3.46095,-10.50709 2.17714,-2.39009 5.0228,-3.58516 8.53701,-3.58518 3.45501,2e-5 6.2711,1.201 8.44826,3.60293 2.30727,2.5558 3.46092,6.05224 3.46095,10.48934 z m -8.53701,3.12372 c -10e-6,-3.28936 -1.11225,-4.93405 -3.33671,-4.93407 -2.16532,2e-5 -3.24797,1.65654 -3.24796,4.96957 -1e-5,1.32523 0.28396,2.5617 0.85192,3.70943 0.63893,1.28972 1.42578,1.93457 2.36055,1.93457 0.91107,0 1.71566,-0.65668 2.41378,-1.97007 0.63893,-1.19505 0.95841,-2.43153 0.95842,-3.70943 z"
           inkscape:connector-curvature="0" />
        <path
           id="path4395"
           d="m 168.93178,979.67504 c -0.6508,1.20692 -1.98194,3.75086 -3.9934,7.63183 -1.10043,2.14167 -2.61496,4.99916 -4.54361,8.57251 0.16564,0.26032 1.12405,1.3548 2.87525,3.28346 1.02939,1.10036 2.49068,2.50256 4.38387,4.20636 -0.79279,0.3432 -2.08842,0.8993 -3.88691,1.6684 -1.00577,0.4496 -2.41973,1.1063 -4.24188,1.9701 -0.44964,-0.5443 -1.37256,-1.8163 -2.76876,-3.816 -0.78094,-1.1832 -1.53229,-2.4433 -2.25405,-3.78038 l -0.071,0 -0.17748,6.10548 -9.81489,0 -0.47921,-14.18103 c -0.13016,-3.10004 -0.40822,-7.46024 -0.83418,-13.08061 l 12.35292,0 -0.69219,11.96246 0.12424,0 c 0.49695,-1.39619 1.29563,-3.69757 2.39604,-6.90415 0.44962,-1.39619 1.0294,-3.31302 1.73935,-5.7505 l 5.02281,1.10041 c 1.63284,0.35499 3.25386,0.69221 4.86308,1.01166 z"
           inkscape:connector-curvature="0" />
      </g>
      <g
         id="text3854"
         style="font-size:36.34882736px;font-style:normal;font-variant:normal;font-weight:normal;font-stretch:normal;text-align:start;line-height:125%;letter-spacing:0px;word-spacing:0px;writing-mode:lr-tb;text-anchor:start;fill:#4b5f7c;fill-opacity:1;stroke:none;font-family:Showcard Gothic;-inkscape-font-specification:Showcard Gothic">
        <path
           id="path4388"
           d="m 141.7944,990.2996 c -3e-5,4.17682 -1.07677,7.70875 -3.23022,10.5958 -2.25999,3.0173 -5.15299,4.5259 -8.67899,4.5259 -3.63253,0 -6.57285,-1.5205 -8.82098,-4.5614 -2.11799,-2.86338 -3.17698,-6.38348 -3.17698,-10.5603 0,-4.46075 1.15365,-7.96311 3.46095,-10.50708 2.17714,-2.3901 5.0228,-3.58516 8.53701,-3.58519 3.45501,3e-5 6.2711,1.20101 8.44826,3.60294 2.30727,2.5558 3.46092,6.05224 3.46095,10.48933 z m -8.53701,3.12373 c -10e-6,-3.28936 -1.11225,-4.93405 -3.33671,-4.93407 -2.16532,2e-5 -3.24797,1.65654 -3.24796,4.96957 -1e-5,1.32523 0.28396,2.5617 0.85192,3.70942 0.63893,1.28973 1.42578,1.93459 2.36055,1.93459 0.91107,0 1.71566,-0.65669 2.41378,-1.97008 0.63893,-1.19506 0.95841,-2.43153 0.95842,-3.70943 z"
           inkscape:connector-curvature="0" />
        <path
           id="path4390"
           d="m 168.93178,978.67437 c -0.6508,1.20692 -1.98194,3.75086 -3.9934,7.63183 -1.10043,2.14167 -2.61496,4.99916 -4.54361,8.5725 0.16564,0.26032 1.12405,1.35481 2.87525,3.28347 1.02939,1.10041 2.49068,2.50253 4.38387,4.20643 -0.79279,0.3431 -2.08842,0.8992 -3.88691,1.6683 -1.00577,0.4496 -2.41973,1.1063 -4.24188,1.9701 -0.44964,-0.5443 -1.37256,-1.8163 -2.76876,-3.8159 -0.78094,-1.1833 -1.53229,-2.4434 -2.25405,-3.78045 l -0.071,0 -0.17748,6.10545 -9.81489,0 -0.47921,-14.181 c -0.13016,-3.10004 -0.40822,-7.46024 -0.83418,-13.08061 l 12.35292,0 -0.69219,11.96246 0.12424,0 c 0.49695,-1.3962 1.29563,-3.69758 2.39604,-6.90415 0.44962,-1.39619 1.0294,-3.31302 1.73935,-5.7505 l 5.02281,1.10041 c 1.63284,0.35499 3.25386,0.69221 4.86308,1.01166 z"
           inkscape:connector-curvature="0" />
      </g>
      <g
         id="text4261"
         style="font-size:16.35463524px;font-style:normal;font-variant:normal;font-weight:normal;font-stretch:normal;text-align:start;line-height:125%;letter-spacing:0px;word-spacing:0px;writing-mode:lr-tb;text-anchor:start;fill:#4b5f7c;fill-opacity:1;stroke:none;font-family:FZXiYuan-M01S;-inkscape-font-specification:FZXiYuan-M01S">
        <path
           style="fill:#4b5f7c;fill-opacity:1"
           id="path4274"
           d="m 116.91145,1013.2397 7.15515,0 c 0.55366,0.085 0.85179,0.4898 0.8944,1.2138 l 0,6.6441 c 0.0426,0.8092 -0.34074,1.1925 -1.14994,1.15 l -6.89961,0 c -0.68145,-0.043 -1.06476,-0.4259 -1.14994,-1.15 l 0,-6.7718 c 0.0426,-0.6815 0.4259,-1.0435 1.14994,-1.0861 z m 0.19165,0.7028 c -0.46849,0 -0.68145,0.1277 -0.63885,0.3833 l 0,6.644 c -1e-5,0.3834 0.19165,0.575 0.57497,0.575 l 6.70795,0 c 0.42589,0.043 0.61755,-0.149 0.57497,-0.575 l 0,-6.2607 c -1e-5,-0.5111 -0.19167,-0.7666 -0.57497,-0.7666 l -3.06649,0 c -10e-6,0.5962 -0.0213,1.3203 -0.0639,2.1721 l 2.87483,0 c 0.17035,0 0.27683,0.1277 0.31943,0.3833 -1e-5,0.2129 -0.10649,0.3194 -0.31943,0.3194 l -2.93872,0 c -1e-5,0.043 -0.0213,0.1491 -0.0639,0.3194 0.0426,-0.085 0.0213,-0.043 -0.0639,0.1278 0.89438,0.724 1.87396,1.661 2.93872,2.811 0.21294,0.2129 0.25553,0.4046 0.12777,0.5749 -0.17037,0.1704 -0.36203,0.1278 -0.57496,-0.1277 -0.80923,-0.9796 -1.70362,-1.874 -2.68319,-2.6832 -0.42591,1.1925 -1.27771,2.1934 -2.55541,3.0026 -0.25555,0.1703 -0.4685,0.1703 -0.63885,0 -0.12778,-0.1704 -0.0639,-0.3407 0.19165,-0.5111 1.53324,-0.937 2.42764,-2.1082 2.68319,-3.5137 l -2.55541,0 c -0.21296,0 -0.34073,-0.1065 -0.38332,-0.3194 0,-0.2556 0.10647,-0.3833 0.31943,-0.3833 l 2.68318,0 c 0.0426,-0.6815 0.0639,-1.4055 0.0639,-2.1721 z m 3.57758,8.9439 c 0.34071,1.2351 0.51107,2.4489 0.51108,3.6415 -1e-5,0.1703 -0.10648,0.2768 -0.31942,0.3194 -0.25556,0 -0.38333,-0.085 -0.38332,-0.2555 -0.0426,-1.4481 -0.19166,-2.598 -0.44719,-3.4499 -0.0852,-0.2555 -0.0426,-0.4258 0.12777,-0.511 0.21294,-0.085 0.3833,0 0.51108,0.2555 z m 3.70535,0.4472 c 0.72402,1.4907 1.2351,2.8961 1.53324,4.2164 -1e-5,0.2982 -0.10649,0.4898 -0.31942,0.575 -0.17038,0.043 -0.29815,-0.085 -0.38331,-0.3833 -0.29815,-1.2777 -0.76664,-2.6193 -1.40548,-4.0248 -0.0852,-0.1703 -0.0426,-0.3407 0.12777,-0.5111 0.17035,-0.085 0.31941,-0.043 0.4472,0.1278 z m -6.00522,0.3833 0,3.3221 c -1e-5,0.511 0.4046,0.7666 1.21382,0.7666 l 1.7249,0 c 1.02216,0 1.53324,-0.5324 1.53325,-1.5972 l 0,-1.4054 c 0.25553,-0.3408 0.48977,-0.3195 0.70274,0.064 l 0,1.4054 c -1e-5,1.4481 -0.72405,2.1721 -2.1721,2.1721 l -1.66102,0 c -1.36289,0 -2.04434,-0.4898 -2.04433,-1.4693 l 0,-3.2582 c -1e-5,-0.2555 0.12776,-0.4046 0.38331,-0.4472 0.21295,0.043 0.31942,0.1917 0.31943,0.4472 z m -1.98044,-0.064 c -0.12778,2.0018 -0.44721,3.4072 -0.95828,4.2165 -0.12778,0.2129 -0.31944,0.2981 -0.57497,0.2555 -0.21296,-0.1278 -0.25555,-0.2981 -0.12777,-0.5111 0.59626,-0.8944 0.91568,-2.1934 0.95828,-3.897 -1e-5,-0.2555 0.10647,-0.4046 0.31942,-0.4472 0.25554,0 0.38331,0.1278 0.38332,0.3833 z m -4.59975,-9.9022 1.98045,0 c 0.46849,0.043 0.72403,0.362 0.76662,0.9583 l 0,11.1799 c -0.0426,0.5111 -0.29813,0.7879 -0.76662,0.8305 l -2.10822,0 c -0.4259,-0.043 -0.66014,-0.2768 -0.70273,-0.7027 l 0,-11.3716 c -10e-6,-0.6388 0.27683,-0.937 0.8305,-0.8944 z m 0.19166,0.6389 c -0.25554,0 -0.38331,0.2129 -0.38331,0.6388 l 0,10.5411 c 0.0426,0.3833 0.25554,0.575 0.63885,0.575 l 1.02217,0 c 0.3833,0 0.57496,-0.1917 0.57496,-0.575 l 0,-10.605 c 0,-0.3833 -0.12777,-0.5749 -0.38331,-0.5749 z"
           inkscape:connector-curvature="0" />
        <path
           style="fill:#4b5f7c;fill-opacity:1"
           id="path4276"
           d="m 133.90494,1013.4953 0,2.747 1.34159,0 c 0.25553,0 0.3833,0.1065 0.38331,0.3195 -1e-5,0.2129 -0.12778,0.3194 -0.38331,0.3194 l -1.34159,0 0,4.5358 c 0.51107,-0.2555 1.00086,-0.5749 1.46936,-0.9582 0.17035,-0.1278 0.31942,-0.085 0.4472,0.1277 0.0852,0.1704 0.0426,0.3195 -0.12778,0.4472 -0.55368,0.3834 -1.14994,0.7454 -1.78878,1.0861 l 0,5.3663 c 0.0426,1.1074 -0.93699,1.3203 -2.93873,0.6389 -0.25554,-0.085 -0.34072,-0.2342 -0.25554,-0.4472 0.0852,-0.2555 0.25554,-0.3407 0.51108,-0.2555 1.32029,0.4685 2.00174,0.4685 2.04433,0 l 0,-4.9831 c -0.21295,0.085 -0.53238,0.213 -0.95828,0.3833 -0.25554,0.1278 -0.46849,0.213 -0.63885,0.2556 -0.21295,0.043 -0.36202,-0.021 -0.4472,-0.1917 -0.0426,-0.2129 0.0426,-0.362 0.25555,-0.4472 0.63884,-0.1703 1.2351,-0.4046 1.78878,-0.7027 l 0,-4.8553 -1.78878,0 c -0.21296,0 -0.34073,-0.1065 -0.38332,-0.3194 0.0426,-0.213 0.17036,-0.3195 0.38332,-0.3195 l 1.78878,0 0,-2.747 c 0,-0.1704 0.10647,-0.2769 0.31943,-0.3195 0.21294,0.043 0.31942,0.1491 0.31943,0.3195 z m 4.79139,0.064 c 0.29812,0.7666 0.48978,1.448 0.57497,2.0443 l 2.68318,0 c 0.17035,0 0.27682,0.1065 0.31943,0.3194 -0.0426,0.213 -0.14908,0.3194 -0.31943,0.3194 l -5.74967,0 c -0.17037,0 -0.25555,-0.1064 -0.25554,-0.3194 -1e-5,-0.2129 0.0852,-0.3194 0.25554,-0.3194 l 2.42764,0 c -0.0426,-0.5111 -0.23426,-1.1499 -0.57497,-1.9166 -0.0852,-0.2129 -0.0213,-0.362 0.19166,-0.4472 0.21294,-0.043 0.362,0.064 0.44719,0.3195 z m 2.23599,3.897 c 0.0426,-0.213 0.17034,-0.3195 0.38331,-0.3195 0.21294,0.043 0.31941,0.1704 0.31943,0.3833 -0.38333,3.8758 -0.87312,7.2404 -1.46936,10.0939 l 1.98044,0 c 0.17034,0 0.27682,0.1065 0.31943,0.3194 -0.0426,0.213 -0.14909,0.3195 -0.31943,0.3195 l -6.70796,0 c -0.21296,0 -0.31943,-0.1065 -0.31942,-0.3195 -1e-5,-0.2129 0.10646,-0.3194 0.31942,-0.3194 l 4.08866,0 c 0.46848,-2.385 0.93697,-5.7709 1.40548,-10.1577 z m -3.64146,0.2555 c 0.46848,2.1295 0.68143,5.0469 0.63885,8.7523 -1e-5,0.1703 -0.10649,0.2768 -0.31943,0.3194 -0.21296,-0.043 -0.31943,-0.1491 -0.31942,-0.3194 -1e-5,-3.8331 -0.21296,-6.708 -0.63886,-8.6245 -10e-6,-0.213 0.0852,-0.3407 0.25555,-0.3833 0.21294,-0.043 0.34071,0.043 0.38331,0.2555 z m -9.07171,-3.1304 1.7249,0 c 0.63885,-0.043 0.93698,0.362 0.89439,1.2138 l 0,9.2634 c 0,0.7666 -0.38331,1.1499 -1.14993,1.1499 l -1.53325,0 c -0.59626,-0.043 -0.8944,-0.3833 -0.89439,-1.0221 l 0,-9.3912 c -1e-5,-0.8092 0.31942,-1.2138 0.95828,-1.2138 z m 0.0639,0.6389 c -0.25554,-0.043 -0.38331,0.064 -0.38331,0.3194 l 0,9.6467 c -0.0426,0.2981 0.0639,0.4259 0.31943,0.3833 l 1.66101,0 c 0.21295,0 0.31943,-0.1278 0.31943,-0.3833 l 0,-9.5828 c 0,-0.2555 -0.14907,-0.3833 -0.4472,-0.3833 z"
           inkscape:connector-curvature="0" />
        <path
           style="fill:#4b5f7c;fill-opacity:1"
           id="path4278"
           d="m 151.28174,1013.3036 0,1.7249 4.08866,0 0,-1.661 c -2e-5,-0.2129 0.12775,-0.3194 0.38331,-0.3194 0.21293,0 0.31941,0.1065 0.31942,0.3194 l 0,1.661 2.04433,0 c 0.21294,0 0.34071,0.1065 0.38331,0.3194 -10e-6,0.213 -0.10649,0.3195 -0.31942,0.3195 l -2.10822,0 0,1.4693 c -1e-5,0.213 -0.10649,0.3195 -0.31942,0.3195 -0.25556,0 -0.38333,-0.085 -0.38331,-0.2556 l 0,-1.5332 -4.08866,0 0,1.5332 c -1e-5,0.213 -0.10649,0.3195 -0.31943,0.3194 -0.25555,10e-5 -0.38332,-0.1064 -0.38331,-0.3194 l 0,-1.5332 -2.10822,0 c -0.17036,0 -0.25554,-0.1065 -0.25554,-0.3195 0,-0.2129 0.0852,-0.3194 0.25554,-0.3194 l 2.10822,0 0,-1.7249 c -1e-5,-0.2129 0.12776,-0.3194 0.38331,-0.3194 0.21294,0 0.31942,0.1065 0.31943,0.3194 z m -1.14994,4.7914 6.38853,0 c 0.76661,0 1.14992,0.4046 1.14994,1.2138 l 0,7.4107 c 0.0426,1.0222 -0.46851,1.512 -1.53325,1.4694 l -6.13299,0 c -0.76663,0 -1.17124,-0.5111 -1.21382,-1.5333 l 0,-7.0912 c -1e-5,-1.0222 0.44719,-1.512 1.34159,-1.4694 z m 0.19166,0.6389 c -0.55368,0 -0.83052,0.2768 -0.83051,0.8305 l 0,3.2581 3.32203,0 0,-4.0886 z m 5.68579,0 -2.49153,0 0,4.0886 3.44981,0 0,-2.8748 c 0.0426,-0.8518 -0.27685,-1.2564 -0.95828,-1.2138 z m -6.5163,4.7914 0,3.1303 c -1e-5,0.5963 0.29812,0.8944 0.89439,0.8944 l 2.42764,0 0,-4.0247 z m 7.47458,0 -3.51369,0 0,4.0247 2.68318,0 c 0.59625,0.043 0.87308,-0.2129 0.83051,-0.7666 z m -10.79662,-9.4551 c 0.8518,-0.043 1.25641,0.3834 1.21382,1.2777 l 0,11.18 c 0,0.724 -0.36202,1.086 -1.08605,1.086 l -1.40547,0 c -0.85181,0.043 -1.25641,-0.362 -1.21382,-1.2138 l 0,-11.0522 c 0,-0.8517 0.38331,-1.2777 1.14993,-1.2777 z m -1.21382,0.6389 c -0.38331,0 -0.57497,0.1917 -0.57497,0.575 l 0,11.1799 c 0.0426,0.2981 0.19166,0.4472 0.4472,0.4472 l 1.34159,0 c 0.34072,-0.043 0.53238,-0.213 0.57497,-0.5111 l 0,-11.116 c 0,-0.3833 -0.19166,-0.575 -0.57497,-0.575 z"
           inkscape:connector-curvature="0" />
        <path
           style="fill:#4b5f7c;fill-opacity:1"
           id="path4280"
           d="m 175.04706,1021.417 -15.52412,0 c -0.21295,10e-5 -0.31943,-0.1277 -0.31943,-0.3833 0,-0.2129 0.10648,-0.3194 0.31943,-0.3194 l 15.52412,0 c 0.29812,0 0.44718,0.1278 0.4472,0.3833 -2e-5,0.213 -0.14908,0.3195 -0.4472,0.3194 z"
           inkscape:connector-curvature="0" />
        <path
           style="fill:#4b5f7c;fill-opacity:1"
           id="path4282"
           d="m 191.4017,1021.417 -15.52413,0 c -0.21295,10e-5 -0.31942,-0.1277 -0.31942,-0.3833 0,-0.2129 0.10647,-0.3194 0.31942,-0.3194 l 15.52413,0 c 0.29812,0 0.44718,0.1278 0.4472,0.3833 -2e-5,0.213 -0.14908,0.3195 -0.4472,0.3194 z"
           inkscape:connector-curvature="0" />
      </g>
    </g>
  </g>
</svg>
