<?xml version="1.0" encoding="UTF-8" standalone="no"?>
<svg
   xmlns:dc="http://purl.org/dc/elements/1.1/"
   xmlns:cc="http://creativecommons.org/ns#"
   xmlns:rdf="http://www.w3.org/1999/02/22-rdf-syntax-ns#"
   xmlns:svg="http://www.w3.org/2000/svg"
   xmlns="http://www.w3.org/2000/svg"
   xmlns:sodipodi="http://sodipodi.sourceforge.net/DTD/sodipodi-0.dtd"
   xmlns:inkscape="http://www.inkscape.org/namespaces/inkscape"
   viewBox="0 0 10.2 46.099999"
   height="46.099998"
   width="10.2"
   xml:space="preserve"
   id="svg2"
   version="1.1"
   inkscape:version="0.91 r13725"
   sodipodi:docname="option.svg"><sodipodi:namedview
     pagecolor="#ffffff"
     bordercolor="#666666"
     borderopacity="1"
     objecttolerance="10"
     gridtolerance="10"
     guidetolerance="10"
     inkscape:pageopacity="0"
     inkscape:pageshadow="2"
     inkscape:window-width="1366"
     inkscape:window-height="666"
     id="namedview3696"
     showgrid="false"
     inkscape:zoom="8.4024699"
     inkscape:cx="15.165807"
     inkscape:cy="18.089886"
     inkscape:window-x="12"
     inkscape:window-y="7"
     inkscape:window-maximized="0"
     inkscape:current-layer="svg2" /><metadata
     id="metadata8"><rdf:RDF><cc:Work
         rdf:about=""><dc:format>image/svg+xml</dc:format><dc:type
           rdf:resource="http://purl.org/dc/dcmitype/StillImage" /><dc:title></dc:title></cc:Work></rdf:RDF></metadata><defs
     id="defs6"><clipPath
       id="clipPath92"
       clipPathUnits="userSpaceOnUse"><path
         id="path90"
         d="m 500.012,337.5 c -48.645,0 -97.289,13.82 -145.164,41.461 -47.875,27.641 -71.817,55.727 -71.817,83.809 l 0,0 0,41.82 0,0 0,0 c 0,-28.082 23.942,-56.168 71.817,-83.809 6.05,-3.492 12.109,-6.765 18.179,-9.816 35.883,-18.027 72.114,-28.352 108.422,-30.977 6.184,-0.445 12.375,-0.668 18.563,-0.668 48.64,0 97.285,13.821 145.16,41.461 23.816,13.75 41.711,27.61 53.676,41.524 l 0,0 c 1.004,1.164 1.961,2.328 2.882,3.496 0.098,0.125 0.196,0.246 0.29,0.371 0.015,0.016 0.027,0.035 0.042,0.051 4.532,5.812 8.032,11.632 10.497,17.457 0.003,0 0,0 0.003,0 0.606,1.433 1.153,2.871 1.633,4.304 0.485,1.434 0.903,2.868 1.258,4.301 0.359,1.434 0.652,2.867 0.887,4.301 0.23,1.43 0.398,2.859 0.508,4.293 0.035,0.441 0.058,0.883 0.082,1.324 0.039,0.797 0.058,1.594 0.058,2.387 l 0,-3.891 0,-5.074 0,-6.02 0,-7.855 0,-18.598 0,-0.382 c 0,-12.946 -5.086,-25.891 -15.258,-38.793 C 689.832,408.891 670.98,393.859 645.172,378.961 597.297,351.316 548.652,337.5 500.012,337.5"
         inkscape:connector-curvature="0" /></clipPath><linearGradient
       id="linearGradient106"
       spreadMethod="pad"
       gradientTransform="matrix(433.954,0,0,-433.954,283.032,421.044)"
       gradientUnits="userSpaceOnUse"
       y2="0"
       x2="1"
       y1="0"
       x1="0"><stop
         id="stop94"
         offset="0"
         style="stop-opacity:1;stop-color:#545770" /><stop
         id="stop96"
         offset="0.11438335"
         style="stop-opacity:1;stop-color:#4e5168" /><stop
         id="stop98"
         offset="0.299578"
         style="stop-opacity:1;stop-color:#4e5168" /><stop
         id="stop100"
         offset="0.58054167"
         style="stop-opacity:1;stop-color:#2f324a" /><stop
         id="stop102"
         offset="0.744144"
         style="stop-opacity:1;stop-color:#2f324a" /><stop
         id="stop104"
         offset="1"
         style="stop-opacity:1;stop-color:#20233d" /></linearGradient><clipPath
       id="clipPath118"
       clipPathUnits="userSpaceOnUse"><path
         id="path116"
         d="m 645.172,588.398 c -95.754,55.286 -194.57,55.286 -290.324,0 -47.879,-27.64 -71.817,-55.722 -71.817,-83.808 0,-28.082 23.942,-56.168 71.817,-83.809 95.754,-55.285 194.57,-55.285 290.324,0 47.879,27.641 71.816,55.727 71.816,83.809 0,28.086 -23.941,56.168 -71.816,83.808"
         inkscape:connector-curvature="0" /></clipPath><clipPath
       id="clipPath194"
       clipPathUnits="userSpaceOnUse"><path
         id="path192"
         d="m 505.559,699.348 c -24.438,14.109 -46.567,15.445 -62.582,6.195 l -37.614,-21.715 c 16.02,9.246 38.145,7.91 62.582,-6.199 48.887,-28.223 88.52,-96.863 88.52,-153.313 0,-28.218 -9.906,-48.046 -25.922,-57.293 l 37.609,21.715 c 16.02,9.25 25.926,29.078 25.926,57.297 0,56.445 -39.633,125.086 -88.519,153.313 z"
         inkscape:connector-curvature="0" /></clipPath><linearGradient
       id="linearGradient208"
       spreadMethod="pad"
       gradientTransform="matrix(125.173,-216.806,-216.806,-125.173,455.463,712.753)"
       gradientUnits="userSpaceOnUse"
       y2="0"
       x2="1"
       y1="0"
       x1="0"><stop
         id="stop196"
         offset="0"
         style="stop-opacity:1;stop-color:#99c900" /><stop
         id="stop198"
         offset="0.1149366"
         style="stop-opacity:1;stop-color:#99c900" /><stop
         id="stop200"
         offset="0.301027"
         style="stop-opacity:1;stop-color:#99c900" /><stop
         id="stop202"
         offset="0.46697904"
         style="stop-opacity:1;stop-color:#7ec200" /><stop
         id="stop204"
         offset="0.735667"
         style="stop-opacity:1;stop-color:#7ec200" /><stop
         id="stop206"
         offset="1"
         style="stop-opacity:1;stop-color:#7ec200" /></linearGradient></defs><g
     id="g8283"
     transform="translate(-83.321134,-23.23333)"><g
       transform="translate(-70.297596,2.9548432)"
       id="g8262"><path
         inkscape:connector-curvature="0"
         d="m 162.22033,48.934215 -3.55266,3.55254 c -0.1556,0.1552 -0.36347,0.24173 -0.58427,0.24173 -0.22187,0 -0.4292,-0.0865 -0.58547,-0.24173 l -2.3792,-2.3796 c -0.3224,-0.3224 -0.3224,-0.84694 0,-1.16934 l 0.99854,-0.99786 c 0.31133,-0.312002 0.85773,-0.312002 1.1692,0 l 0.79693,0.79626 1.9692,-1.969196 c 0.31093,-0.311466 0.85787,-0.311466 1.16933,0 l 0.9984,0.997866 c 0.32187,0.3224 0.32187,0.84693 0,1.16933 z m -3.54426,-4.277062 c -2.57187,0 -4.664,2.092133 -4.664,4.664002 0,2.57186 2.09213,4.66413 4.664,4.66413 2.57186,0 4.664,-2.09227 4.664,-4.66413 0,-2.571869 -2.09214,-4.664002 -4.664,-4.664002"
         style="fill:#a1b400;fill-opacity:1;fill-rule:nonzero;stroke:none"
         id="path4123" /><path
         inkscape:connector-curvature="0"
         d="m 160.33073,47.045153 -2.24733,2.246802 -1.07453,-1.0744 -0.3068,-0.12614 -0.3072,0.12614 -0.998,0.99786 -0.126,0.30734 0.126,0.3068 2.3792,2.37906 c 0.162,0.16254 0.45053,0.16307 0.6136,0 l 3.55253,-3.552 c 0.16933,-0.16933 0.16933,-0.4448 0,-0.6136 l -0.9984,-0.997862 c -0.16253,-0.163067 -0.45053,-0.163067 -0.61307,0"
         style="fill:#f2f2f2;fill-opacity:1;fill-rule:nonzero;stroke:none"
         id="path4125" /><path
         inkscape:connector-curvature="0"
         d="m 158.67607,44.657153 c 2.57186,0 4.664,2.092133 4.664,4.664002 0,2.57186 -2.09214,4.66413 -4.664,4.66413 -2.57187,0 -4.664,-2.09227 -4.664,-4.66413 0,-2.571869 2.09213,-4.664002 4.664,-4.664002 z m 0,9.721332 c 2.78906,0 5.05733,-2.2688 5.05733,-5.05733 0,-2.788536 -2.26827,-5.056802 -5.05733,-5.056802 -2.78854,0 -5.05734,2.268266 -5.05734,5.056802 0,2.78853 2.2688,5.05733 5.05734,5.05733"
         style="fill:#000000;fill-opacity:1;fill-rule:nonzero;stroke:none"
         id="path4127" /><path
         inkscape:connector-curvature="0"
         d="m 155.39687,49.215415 0.998,-0.99786 0.3072,-0.12614 0.3068,0.12614 1.07453,1.0744 2.24733,-2.246802 c 0.16254,-0.163067 0.45054,-0.163067 0.61307,0 l 0.9984,0.997862 c 0.16933,0.1688 0.16933,0.44427 0,0.6136 l -3.55253,3.552 c -0.16307,0.16307 -0.4516,0.16254 -0.6136,0 l -2.3792,-2.37906 -0.126,-0.3068 z m -0.27814,0.89174 2.3792,2.3796 c 0.15627,0.1552 0.3636,0.24173 0.58547,0.24173 0.2208,0 0.42867,-0.0865 0.58427,-0.24173 l 3.55266,-3.55254 c 0.32187,-0.3224 0.32187,-0.84693 0,-1.16933 l -0.9984,-0.997866 c -0.31146,-0.311466 -0.8584,-0.311466 -1.16933,0 l -1.9692,1.969196 -0.79693,-0.79626 c -0.31147,-0.312002 -0.85787,-0.312002 -1.1692,0 l -0.99854,0.99786 c -0.3224,0.3224 -0.3224,0.84694 0,1.16934"
         style="fill:#000000;fill-opacity:1;fill-rule:nonzero;stroke:none"
         id="path4129" /></g><g
       transform="translate(-69.977804,1.0689019)"
       id="g8268"><path
         style="opacity:1;fill:#e24644;fill-opacity:1;stroke:#000000;stroke-width:0.35773283;stroke-linecap:round;stroke-linejoin:round;stroke-miterlimit:4;stroke-dasharray:none;stroke-opacity:1"
         id="path5300"
         sodipodi:type="arc"
         sodipodi:cx="158.35626"
         sodipodi:cy="63.224937"
         sodipodi:rx="4.8606186"
         sodipodi:ry="4.86061"
         sodipodi:start="3.1808102"
         sodipodi:end="3.1507556"
         sodipodi:open="true"
         d="m 153.49938,63.034365 a 4.8606186,4.86061 0 0 1 5.01096,-4.667595 4.8606186,4.86061 0 0 1 4.70512,4.975735 4.8606186,4.86061 0 0 1 -4.94025,4.742367 4.8606186,4.86061 0 0 1 -4.77936,-4.904471" /><path
         inkscape:connector-curvature="0"
         id="path5302"
         d="m 156.64677,59.805913 c -0.11295,-0.01373 -0.22367,0.01444 -0.30339,0.09084 l -1.22626,1.177213 c -0.15945,0.152791 -0.1377,0.431885 0.049,0.626756 l 1.46243,1.5242 -1.46243,1.526015 c -0.18675,0.19487 -0.20849,0.47397 -0.049,0.626756 l 1.22626,1.17539 c 0.15944,0.15279 0.43819,0.11857 0.62494,-0.0763 l 1.38795,-1.447896 1.38795,1.447896 c 0.18674,0.19487 0.4655,0.2291 0.62493,0.0763 l 1.22627,-1.17539 c 0.15944,-0.152786 0.1377,-0.431886 -0.049,-0.626756 l -1.46244,-1.526015 1.46244,-1.5242 c 0.18674,-0.194871 0.20849,-0.473965 0.049,-0.626756 l -1.22627,-1.177213 c -0.15943,-0.152792 -0.43819,-0.118571 -0.62493,0.0763 l -1.38795,1.447899 -1.38795,-1.447899 c -0.0934,-0.09744 -0.20861,-0.153407 -0.32155,-0.167136 z"
         style="opacity:1;fill:#ffffff;fill-opacity:1;stroke:#000000;stroke-width:0.32555011;stroke-linecap:round;stroke-linejoin:round;stroke-miterlimit:4;stroke-dasharray:none;stroke-opacity:1" /></g><g
       transform="translate(0.11765351,-32.406063)"
       id="g8278"><g
         id="g8254"
         transform="translate(-68.548293,-11.276721)"
         style="fill:#ffffff;fill-opacity:1;stroke:#000000;stroke-opacity:1"><path
           style="opacity:1;fill:#ffffff;fill-opacity:1;stroke:#000000;stroke-width:0.35773283;stroke-linecap:round;stroke-linejoin:round;stroke-miterlimit:4;stroke-dasharray:none;stroke-opacity:1"
           id="path5304"
           sodipodi:type="arc"
           sodipodi:cx="156.8091"
           sodipodi:cy="83.976624"
           sodipodi:rx="4.8606186"
           sodipodi:ry="4.86061"
           sodipodi:start="3.1808102"
           sodipodi:end="3.1507556"
           sodipodi:open="true"
           d="m 151.95222,83.786051 a 4.8606186,4.86061 0 0 1 5.01095,-4.667595 4.8606186,4.86061 0 0 1 4.70512,4.975735 4.8606186,4.86061 0 0 1 -4.94025,4.742367 4.8606186,4.86061 0 0 1 -4.77936,-4.904471" /><path
           inkscape:connector-curvature="0"
           id="path5306"
           d="m 155.09961,80.557602 c -0.11295,-0.01373 -0.22367,0.01444 -0.30339,0.09084 l -1.22626,1.177213 c -0.15945,0.152791 -0.1377,0.431885 0.049,0.626756 l 1.46243,1.5242 -1.46243,1.526015 c -0.18675,0.19487 -0.20849,0.47397 -0.049,0.626756 l 1.22626,1.17539 c 0.15944,0.15279 0.43819,0.11857 0.62494,-0.0763 l 1.38795,-1.447896 1.38795,1.447896 c 0.18674,0.19487 0.4655,0.2291 0.62493,0.0763 l 1.22627,-1.17539 c 0.15944,-0.152786 0.1377,-0.431886 -0.049,-0.626756 l -1.46244,-1.526015 1.46244,-1.5242 c 0.18674,-0.194871 0.20849,-0.473965 0.049,-0.626756 l -1.22627,-1.177213 c -0.15943,-0.152792 -0.43819,-0.118571 -0.62493,0.0763 l -1.38795,1.447899 -1.38795,-1.447899 c -0.0934,-0.09744 -0.20861,-0.153407 -0.32155,-0.167136 z"
           style="opacity:1;fill:#ffffff;fill-opacity:1;stroke:#000000;stroke-width:0.32600001;stroke-linecap:round;stroke-linejoin:round;stroke-miterlimit:4;stroke-dasharray:none;stroke-opacity:1" /></g></g><g
       transform="translate(0.11765458,-57.113551)"
       id="g8274"><path
         style="opacity:1;fill:none;fill-opacity:0;stroke:#000000;stroke-width:0.35800001;stroke-linecap:round;stroke-linejoin:round;stroke-miterlimit:4;stroke-dasharray:none;stroke-opacity:1"
         id="path8252"
         sodipodi:type="arc"
         sodipodi:cx="88.260803"
         sodipodi:cy="85.407257"
         sodipodi:rx="4.8606186"
         sodipodi:ry="4.86061"
         sodipodi:start="3.1808102"
         sodipodi:end="3.1507556"
         sodipodi:open="true"
         d="M 83.403922,85.216685 A 4.8606186,4.86061 0 0 1 88.414878,80.54909 4.8606186,4.86061 0 0 1 93.12,85.524825 4.8606186,4.86061 0 0 1 88.179748,90.267191 4.8606186,4.86061 0 0 1 83.400389,85.36272" /><path
         style="fill:none;fill-opacity:1;fill-rule:nonzero;stroke:#000000;stroke-width:0.354;stroke-miterlimit:4;stroke-dasharray:none;stroke-opacity:1"
         d="m 90.222527,82.320325 c -0.21373,6.6e-5 -0.42898,0.07749 -0.58398,0.232421 l -1.96094,1.962891 -0.79492,-0.792969 c -0.3104,-0.310929 -0.85366,-0.310929 -1.16406,0 l -0.9961,0.994141 c -0.3208,0.32133 -0.3208,0.844685 0,1.166016 l 2.3711,2.371089 c 0.15533,0.1552 0.36305,0.24024 0.58398,0.24024 0.22027,0 0.42683,-0.0851 0.58203,-0.24024 l 3.53906,-3.541011 c 0.32134,-0.32133 0.32134,-0.843263 0,-1.164063 l -0.99414,-0.996094 c -0.15526,-0.1552 -0.36829,-0.232488 -0.58203,-0.232421 z"
         id="path8245"
         inkscape:connector-curvature="0" /></g></g></svg>