<?xml version="1.0" encoding="UTF-8" standalone="no"?>
<svg
   xmlns:dc="http://purl.org/dc/elements/1.1/"
   xmlns:cc="http://creativecommons.org/ns#"
   xmlns:rdf="http://www.w3.org/1999/02/22-rdf-syntax-ns#"
   xmlns:svg="http://www.w3.org/2000/svg"
   xmlns="http://www.w3.org/2000/svg"
   xmlns:sodipodi="http://sodipodi.sourceforge.net/DTD/sodipodi-0.dtd"
   xmlns:inkscape="http://www.inkscape.org/namespaces/inkscape"
   viewBox="0 0 10.2 11.8"
   height="11.8"
   width="10.2"
   xml:space="preserve"
   id="svg2"
   version="1.1"
   inkscape:version="0.91 r13725"
   sodipodi:docname="selectedyes.svg"><sodipodi:namedview
     pagecolor="#ffffff"
     bordercolor="#666666"
     borderopacity="1"
     objecttolerance="10"
     gridtolerance="10"
     guidetolerance="10"
     inkscape:pageopacity="0"
     inkscape:pageshadow="2"
     inkscape:window-width="1366"
     inkscape:window-height="666"
     id="namedview5723"
     showgrid="false"
     inkscape:zoom="10.012632"
     inkscape:cx="8.3151884"
     inkscape:cy="5.6898685"
     inkscape:window-x="0"
     inkscape:window-y="0"
     inkscape:window-maximized="1"
     inkscape:current-layer="svg2" /><metadata
     id="metadata8"><rdf:RDF><cc:Work
         rdf:about=""><dc:format>image/svg+xml</dc:format><dc:type
           rdf:resource="http://purl.org/dc/dcmitype/StillImage" /><dc:title></dc:title></cc:Work></rdf:RDF></metadata><defs
     id="defs6"><clipPath
       id="clipPath92"
       clipPathUnits="userSpaceOnUse"><path
         id="path90"
         d="m 500.012,337.5 c -48.645,0 -97.289,13.82 -145.164,41.461 -47.875,27.641 -71.817,55.727 -71.817,83.809 l 0,0 0,41.82 0,0 0,0 c 0,-28.082 23.942,-56.168 71.817,-83.809 6.05,-3.492 12.109,-6.765 18.179,-9.816 35.883,-18.027 72.114,-28.352 108.422,-30.977 6.184,-0.445 12.375,-0.668 18.563,-0.668 48.64,0 97.285,13.821 145.16,41.461 23.816,13.75 41.711,27.61 53.676,41.524 l 0,0 c 1.004,1.164 1.961,2.328 2.882,3.496 0.098,0.125 0.196,0.246 0.29,0.371 0.015,0.016 0.027,0.035 0.042,0.051 4.532,5.812 8.032,11.632 10.497,17.457 0.003,0 0,0 0.003,0 0.606,1.433 1.153,2.871 1.633,4.304 0.485,1.434 0.903,2.868 1.258,4.301 0.359,1.434 0.652,2.867 0.887,4.301 0.23,1.43 0.398,2.859 0.508,4.293 0.035,0.441 0.058,0.883 0.082,1.324 0.039,0.797 0.058,1.594 0.058,2.387 l 0,-3.891 0,-5.074 0,-6.02 0,-7.855 0,-18.598 0,-0.382 c 0,-12.946 -5.086,-25.891 -15.258,-38.793 C 689.832,408.891 670.98,393.859 645.172,378.961 597.297,351.316 548.652,337.5 500.012,337.5"
         inkscape:connector-curvature="0" /></clipPath><linearGradient
       id="linearGradient106"
       spreadMethod="pad"
       gradientTransform="matrix(433.954,0,0,-433.954,283.032,421.044)"
       gradientUnits="userSpaceOnUse"
       y2="0"
       x2="1"
       y1="0"
       x1="0"><stop
         id="stop94"
         offset="0"
         style="stop-opacity:1;stop-color:#545770" /><stop
         id="stop96"
         offset="0.11438335"
         style="stop-opacity:1;stop-color:#4e5168" /><stop
         id="stop98"
         offset="0.299578"
         style="stop-opacity:1;stop-color:#4e5168" /><stop
         id="stop100"
         offset="0.58054167"
         style="stop-opacity:1;stop-color:#2f324a" /><stop
         id="stop102"
         offset="0.744144"
         style="stop-opacity:1;stop-color:#2f324a" /><stop
         id="stop104"
         offset="1"
         style="stop-opacity:1;stop-color:#20233d" /></linearGradient><clipPath
       id="clipPath118"
       clipPathUnits="userSpaceOnUse"><path
         id="path116"
         d="m 645.172,588.398 c -95.754,55.286 -194.57,55.286 -290.324,0 -47.879,-27.64 -71.817,-55.722 -71.817,-83.808 0,-28.082 23.942,-56.168 71.817,-83.809 95.754,-55.285 194.57,-55.285 290.324,0 47.879,27.641 71.816,55.727 71.816,83.809 0,28.086 -23.941,56.168 -71.816,83.808"
         inkscape:connector-curvature="0" /></clipPath><clipPath
       id="clipPath194"
       clipPathUnits="userSpaceOnUse"><path
         id="path192"
         d="m 505.559,699.348 c -24.438,14.109 -46.567,15.445 -62.582,6.195 l -37.614,-21.715 c 16.02,9.246 38.145,7.91 62.582,-6.199 48.887,-28.223 88.52,-96.863 88.52,-153.313 0,-28.218 -9.906,-48.046 -25.922,-57.293 l 37.609,21.715 c 16.02,9.25 25.926,29.078 25.926,57.297 0,56.445 -39.633,125.086 -88.519,153.313 z"
         inkscape:connector-curvature="0" /></clipPath><linearGradient
       id="linearGradient208"
       spreadMethod="pad"
       gradientTransform="matrix(125.173,-216.806,-216.806,-125.173,455.463,712.753)"
       gradientUnits="userSpaceOnUse"
       y2="0"
       x2="1"
       y1="0"
       x1="0"><stop
         id="stop196"
         offset="0"
         style="stop-opacity:1;stop-color:#99c900" /><stop
         id="stop198"
         offset="0.1149366"
         style="stop-opacity:1;stop-color:#99c900" /><stop
         id="stop200"
         offset="0.301027"
         style="stop-opacity:1;stop-color:#99c900" /><stop
         id="stop202"
         offset="0.46697904"
         style="stop-opacity:1;stop-color:#7ec200" /><stop
         id="stop204"
         offset="0.735667"
         style="stop-opacity:1;stop-color:#7ec200" /><stop
         id="stop206"
         offset="1"
         style="stop-opacity:1;stop-color:#7ec200" /></linearGradient></defs><g
     id="g6552"><g
       transform="matrix(0.04712934,0,0,-0.04712934,-17.882663,33.603473)"
       id="g188"><g
         id="g190"
         clip-path="url(#clipPath194)"><path
           inkscape:connector-curvature="0"
           d="m 505.559,699.348 c -24.438,14.109 -46.567,15.445 -62.582,6.195 l -37.614,-21.715 c 16.02,9.246 38.145,7.91 62.582,-6.199 48.887,-28.223 88.52,-96.863 88.52,-153.313 0,-28.218 -9.906,-48.046 -25.922,-57.293 l 37.609,21.715 c 16.02,9.25 25.926,29.078 25.926,57.297 0,56.445 -39.633,125.086 -88.519,153.313"
           style="fill:url(#linearGradient208);fill-opacity:1;fill-rule:nonzero;stroke:none"
           id="path210" /></g></g><path
       inkscape:connector-curvature="0"
       d="m 8.5332186,8.7896204 c 0,1.3221436 -0.4747036,2.2511776 -1.2422037,2.6844426 C 6.5233231,11.907469 5.4627394,11.844871 4.2912664,11.183565 1.9491355,9.8614204 0.04993697,6.6452705 0.04993697,4.0007467 0.04993697,2.6783682 0.52483249,1.749147 1.2922849,1.3157414 2.0599767,0.88252281 3.120225,0.94512129 4.2912664,1.6061927 6.6339723,2.9285709 8.5332186,6.1446749 8.5332186,8.7896204"
       style="fill:#b1d400;fill-opacity:1;fill-rule:nonzero;stroke:none"
       id="path212" /><path
       inkscape:connector-curvature="0"
       d="M 6.780357,6.1752809 6.3633567,5.4526937 C 6.0507477,4.9098106 5.5389701,4.6132259 5.2245231,4.7930715 L 3.6885779,5.6742017 3.1217533,4.690188 C 2.8091444,4.1478235 2.2964244,3.8506729 1.9829201,4.0307543 L 1.564647,4.2697 C 1.2510957,4.4499228 1.2503888,5.0410661 1.5628089,5.5839961 L 3.1151081,8.2780976 C 3.4275286,8.8204151 3.940437,9.117377 4.2537529,8.9375314 L 6.7785189,7.4891998 C 7.0920235,7.3093542 7.0927775,6.7178337 6.780357,6.1752809"
       style="fill:#fffbeb;fill-opacity:1;fill-rule:nonzero;stroke:none"
       id="path214" /></g></svg>