<?xml version="1.0" encoding="UTF-8" standalone="no"?>
<!-- Created with Inkscape (http://www.inkscape.org/) -->

<svg
   xmlns:dc="http://purl.org/dc/elements/1.1/"
   xmlns:cc="http://creativecommons.org/ns#"
   xmlns:rdf="http://www.w3.org/1999/02/22-rdf-syntax-ns#"
   xmlns:svg="http://www.w3.org/2000/svg"
   xmlns="http://www.w3.org/2000/svg"
   xmlns:sodipodi="http://sodipodi.sourceforge.net/DTD/sodipodi-0.dtd"
   xmlns:inkscape="http://www.inkscape.org/namespaces/inkscape"
   width="300"
   height="100"
   id="svg2"
   version="1.1"
   inkscape:version="0.48.0 r9654"
   sodipodi:docname="start.svg">
  <defs
     id="defs4">
    <filter
       inkscape:collect="always"
       id="filter3914"
       color-interpolation-filters="sRGB">
      <feGaussianBlur
         inkscape:collect="always"
         stdDeviation="3.4625714"
         id="feGaussianBlur3916" />
    </filter>
  </defs>
  <sodipodi:namedview
     id="base"
     pagecolor="#ffffff"
     bordercolor="#666666"
     borderopacity="1.0"
     inkscape:pageopacity="0"
     inkscape:pageshadow="2"
     inkscape:zoom="2.8"
     inkscape:cx="140.14901"
     inkscape:cy="40.124043"
     inkscape:document-units="px"
     inkscape:current-layer="layer1"
     showgrid="false"
     inkscape:window-width="1280"
     inkscape:window-height="705"
     inkscape:window-x="-8"
     inkscape:window-y="-8"
     inkscape:window-maximized="1" />
  <metadata
     id="metadata7">
    <rdf:RDF>
      <cc:Work
         rdf:about="">
        <dc:format>image/svg+xml</dc:format>
        <dc:type
           rdf:resource="http://purl.org/dc/dcmitype/StillImage" />
        <dc:title />
      </cc:Work>
    </rdf:RDF>
  </metadata>
  <g
     inkscape:label="Layer 1"
     inkscape:groupmode="layer"
     id="layer1"
     transform="translate(0,-952.36218)">
    <g
       id="g4827">
      <rect
         transform="matrix(0.49267767,0,0,0.48264485,-20.144565,758.01032)"
         style="fill:#000000;fill-opacity:0.94117647;filter:url(#filter3914)"
         id="rect3868"
         width="530"
         height="140"
         x="92.857147"
         y="443.07648"
         rx="0"
         ry="0" />
      <rect
         ry="0"
         rx="0"
         y="966.38623"
         x="17.788963"
         height="70.591988"
         width="267.24109"
         id="rect3848"
         style="fill:#de5233;fill-opacity:1" />
      <g
         transform="matrix(0.50422846,0,0,0.50422846,-23.269641,745.49563)"
         id="text3850"
         style="font-size:30.17842293px;font-style:normal;font-variant:normal;font-weight:normal;font-stretch:normal;text-align:start;line-height:125%;letter-spacing:0px;word-spacing:0px;writing-mode:lr-tb;text-anchor:start;fill:#ffffff;fill-opacity:1;stroke:none;font-family:FZXiYuan-M01S;-inkscape-font-specification:FZXiYuan-M01S">
        <path
           id="path4101"
           d="m 297.56547,536.08633 c 0.5501,3e-5 0.86446,0.1965 0.94308,0.58943 -3e-5,0.47156 -0.27509,0.70733 -0.82519,0.7073 l -4.36173,0 0,10.84537 5.18692,0 c 0.39292,2e-5 0.58939,0.19649 0.58942,0.58943 -3e-5,0.47155 -0.1965,0.70731 -0.58942,0.7073 l -5.18692,0 0,13.79249 c -2e-5,0.47153 -0.19649,0.7073 -0.58942,0.7073 -0.39297,-0.0786 -0.58944,-0.35365 -0.58942,-0.82519 l 0,-13.6746 -13.6746,0 0,5.18692 c 0.0786,3.22218 -1.65039,6.24788 -5.18692,9.0771 -0.39295,0.31436 -0.7466,0.35365 -1.06096,0.11789 -0.31436,-0.31436 -0.27506,-0.62872 0.11789,-0.94308 3.37935,-2.43628 5.02973,-5.18691 4.95115,-8.25191 l 0,-5.18692 -5.42269,0 c -0.39295,10e-6 -0.58942,-0.23575 -0.58942,-0.7073 0,-0.39294 0.19647,-0.58941 0.58942,-0.58943 l 5.42269,0 0,-10.84537 -4.5975,0 c -0.47154,3e-5 -0.70731,-0.23574 -0.7073,-0.7073 -1e-5,-0.39293 0.23576,-0.5894 0.7073,-0.58943 z m -19.09728,1.29673 0,10.84537 13.6746,0 0,-10.84537 z"
           inkscape:connector-curvature="0" />
        <path
           id="path4103"
           d="m 305.46373,535.49691 c 0.0786,-0.39292 0.31436,-0.62869 0.70731,-0.7073 0.39294,0.0786 0.58942,0.31438 0.58942,0.7073 l -0.23577,3.89019 4.36173,0 c 1.02165,0.0786 1.49319,0.66803 1.41461,1.76827 -0.15719,6.28718 -1.29674,11.3955 -3.41865,15.32498 2.27909,2.12192 3.57582,3.41865 3.89019,3.89018 0.23576,0.39295 0.23576,0.74661 0,1.06096 -0.31437,0.23577 -0.62873,0.19648 -0.94308,-0.11788 -0.7859,-0.7859 -2.04334,-2.04333 -3.7723,-3.7723 -1.41462,1.96474 -3.18288,3.61512 -5.3048,4.95114 -0.47154,0.23577 -0.7859,0.19648 -0.94308,-0.11788 -0.15718,-0.31436 -0.0393,-0.62872 0.35366,-0.94308 2.2005,-1.57179 3.89018,-3.18287 5.06903,-4.83326 -0.55013,-0.62871 -1.25744,-1.41461 -2.12192,-2.35769 -1.5718,-1.65037 -2.3184,-2.59345 -2.23981,-2.82922 0,-0.15718 0.11789,-0.78589 0.35366,-1.88616 0.78589,-3.14357 1.37531,-6.12997 1.76827,-8.95922 l -2.82923,0 c -0.39295,2e-5 -0.58943,-0.19645 -0.58942,-0.58942 -1e-5,-0.39293 0.19647,-0.5894 0.58942,-0.58942 l 2.94711,0 z m 4.71538,5.06903 -3.89019,0 c -0.86449,5.4227 -1.57179,8.91994 -2.12192,10.49172 0,0.0786 1.25743,1.53251 3.77231,4.36173 1.96473,-4.00807 2.98639,-8.68415 3.06499,-14.02825 -0.0786,-0.55011 -0.35366,-0.82518 -0.82519,-0.8252 z m 5.77634,9.78442 9.19499,0 c 1.57177,0 2.35766,0.58943 2.35769,1.76826 l 0,8.01615 c -3e-5,1.72897 -0.66804,2.59345 -2.00404,2.59345 l -9.19499,0 c -1.80757,0 -2.71135,-0.7466 -2.71134,-2.2398 l 0,-7.89826 c 0.0786,-1.4146 0.86447,-2.16121 2.35769,-2.2398 z m 0.23577,1.17884 c -0.78591,1e-5 -1.21815,0.39296 -1.29673,1.17884 l 0,7.19096 c -0.15719,1.10025 0.31434,1.61108 1.41461,1.53249 l 8.84134,0 c 0.86446,0.0786 1.25741,-0.35365 1.17884,-1.29672 l 0,-7.42673 c 0.0786,-0.78588 -0.39297,-1.17883 -1.41461,-1.17884 z m -3.30077,-6.01211 c 2.67204,-3.14357 4.79396,-6.52292 6.36577,-10.13806 0.31433,-0.39292 0.66799,-0.51081 1.06096,-0.35366 0.31433,0.2358 0.35363,0.58945 0.11788,1.06096 -1.96476,3.92951 -4.04738,7.15168 -6.24788,9.66653 -0.15719,0.15719 -0.19648,0.27508 -0.11788,0.35365 0.0786,0.0786 0.23575,0.1179 0.47154,0.11789 5.73702,-0.23576 9.78438,-0.47152 12.1421,-0.70731 -3e-5,-0.0786 -0.0393,-0.19646 -0.11789,-0.35365 -1.17887,-2.35767 -2.20053,-4.20453 -3.06499,-5.54057 -0.2358,-0.39293 -0.15721,-0.70729 0.23576,-0.94308 0.31434,-0.23574 0.6287,-0.15715 0.94308,0.23577 1.96472,3.37937 3.5758,6.75873 4.83326,10.13807 0.15715,0.47154 0.0786,0.7859 -0.23577,0.94307 -0.39297,0.15719 -0.70733,10e-6 -0.94307,-0.47154 -0.15721,-0.55011 -0.55016,-1.49319 -1.17885,-2.82922 -6.05142,0.47155 -10.53102,0.66802 -13.43882,0.58942 -0.62873,10e-6 -1.02168,-0.15717 -1.17885,-0.47154 -0.15719,-0.31434 -0.0393,-0.74659 0.35365,-1.29673 z"
           inkscape:connector-curvature="0" />
        <path
           id="path4105"
           d="m 346.25176,535.49691 0,3.18288 7.5446,0 0,-3.06499 c -2e-5,-0.39293 0.23575,-0.5894 0.70731,-0.58943 0.39292,3e-5 0.5894,0.1965 0.58942,0.58943 l 0,3.06499 3.77231,0 c 0.39291,2e-5 0.62868,0.1965 0.7073,0.58943 -3e-5,0.39296 -0.1965,0.58944 -0.58942,0.58942 l -3.89019,0 0,2.71134 c -2e-5,0.39297 -0.1965,0.58944 -0.58942,0.58942 -0.47156,2e-5 -0.70733,-0.15716 -0.70731,-0.47154 l 0,-2.82922 -7.5446,0 0,2.82922 c -2e-5,0.39297 -0.19649,0.58944 -0.58942,0.58943 -0.47156,10e-6 -0.70733,-0.19646 -0.70731,-0.58943 l 0,-2.82922 -3.89019,0 c -0.31437,2e-5 -0.47155,-0.19646 -0.47154,-0.58942 -10e-6,-0.39293 0.15717,-0.58941 0.47154,-0.58943 l 3.89019,0 0,-3.18288 c -2e-5,-0.39292 0.23575,-0.58939 0.70731,-0.58942 0.39293,3e-5 0.5894,0.1965 0.58942,0.58942 z m -2.12192,8.84134 11.78844,0 c 1.41459,10e-6 2.1219,0.74661 2.12192,2.2398 l 0,13.6746 c 0.0786,1.88615 -0.86451,2.78993 -2.82922,2.71134 l -11.31691,0 c -1.41463,0 -2.16123,-0.94307 -2.23981,-2.82922 l 0,-13.08518 c -1e-5,-1.88614 0.82518,-2.78992 2.47558,-2.71134 z m 0.35365,1.17884 c -1.02168,2e-5 -1.53251,0.51085 -1.5325,1.5325 l 0,6.01211 6.12999,0 0,-7.54461 z m 10.49172,0 -4.5975,0 0,7.54461 6.36577,0 0,-5.3048 c 0.0786,-1.57178 -0.51086,-2.31838 -1.76827,-2.23981 z m -12.02422,8.84134 0,5.77634 c -10e-6,1.10025 0.55012,1.65038 1.65039,1.65038 l 4.4796,0 0,-7.42672 z m 13.79249,0 -6.48365,0 0,7.42672 4.95115,0 c 1.10023,0.0786 1.61106,-0.39295 1.5325,-1.41462 z M 336.821,536.91153 c 1.57179,-0.0786 2.31839,0.70733 2.23981,2.35769 l 0,20.62978 c -1e-5,1.33602 -0.66802,2.00403 -2.00404,2.00403 l -2.59346,0 c -1.57179,0.0786 -2.31839,-0.66801 -2.2398,-2.2398 l 0,-20.39401 c -10e-6,-1.57178 0.7073,-2.35767 2.12192,-2.35769 z m -2.2398,1.17884 c -0.70731,2e-5 -1.06097,0.35368 -1.06096,1.06096 l 0,20.62978 c 0.0786,0.55013 0.35365,0.82519 0.82519,0.82519 l 2.47557,0 c 0.62871,-0.0786 0.98236,-0.39294 1.06096,-0.94307 l 0,-20.5119 c -10e-6,-0.70728 -0.35366,-1.06094 -1.06096,-1.06096 z"
           inkscape:connector-curvature="0" />
        <path
           id="path4107"
           d="m 390.10478,550.46824 -28.64592,0 c -0.39295,10e-6 -0.58943,-0.23576 -0.58943,-0.70731 0,-0.39293 0.19648,-0.58941 0.58943,-0.58942 l 28.64592,0 c 0.5501,10e-6 0.82516,0.23578 0.82519,0.70731 -3e-5,0.39296 -0.27509,0.58943 -0.82519,0.58942 z"
           inkscape:connector-curvature="0" />
        <path
           id="path4109"
           d="m 420.2832,550.46824 -28.64592,0 c -0.39295,10e-6 -0.58943,-0.23576 -0.58943,-0.70731 0,-0.39293 0.19648,-0.58941 0.58943,-0.58942 l 28.64592,0 c 0.5501,10e-6 0.82516,0.23578 0.82519,0.70731 -3e-5,0.39296 -0.27509,0.58943 -0.82519,0.58942 z"
           inkscape:connector-curvature="0" />
      </g>
      <g
         id="text3862"
         style="font-size:36.34882736px;font-style:normal;font-variant:normal;font-weight:normal;font-stretch:normal;text-align:start;line-height:125%;letter-spacing:0px;word-spacing:0px;writing-mode:lr-tb;text-anchor:start;fill:#000000;fill-opacity:1;stroke:none;font-family:Showcard Gothic;-inkscape-font-specification:Showcard Gothic">
        <path
           id="path4817"
           style=""
           d="m 113.41895,989.41894 c -0.87561,-0.20113 -1.53821,-0.30171 -1.98783,-0.30172 -0.55613,10e-6 -1.06492,0.18933 -1.52636,0.56795 -0.55613,0.46147 -0.83419,1.059 -0.83418,1.79259 -1e-5,0.56796 0.50878,1.66245 1.52637,3.28346 1.01756,1.62104 1.52635,3.11191 1.52636,4.47261 -1e-5,1.97597 -0.75136,3.59707 -2.25405,4.86307 -1.43172,1.2187 -3.20065,1.8281 -5.30679,1.8281 -1.9405,0 -3.37221,-0.1361 -4.29512,-0.4082 -0.1065,-0.5443 -0.289897,-1.4317 -0.550204,-2.6623 -0.165656,-0.6626 -0.396385,-1.5441 -0.692189,-2.6445 1.301553,0.3195 2.177133,0.4792 2.626773,0.4792 1.763,0 2.64451,-0.6685 2.64452,-2.00557 -1e-5,-0.97024 -0.35498,-1.83991 -1.06491,-2.60902 -1.15957,-1.01757 -2.31914,-2.04106 -3.478697,-3.07048 -2.248139,-1.98782 -3.372206,-4.34836 -3.372205,-7.08164 -10e-7,-2.85156 1.064905,-5.01095 3.194721,-6.47818 1.857661,-1.27786 4.330611,-1.9168 7.418851,-1.91683 1.75117,3e-5 3.71533,0.25442 5.89249,0.76318 z" />
        <path
           id="path4819"
           style=""
           d="m 136.50968,978.25516 -0.5147,11.16378 c -0.46148,-0.071 -1.201,-0.15972 -2.21856,-0.26623 -0.62713,-0.0355 -1.6447,-0.071 -3.05273,-0.10649 -0.071,0.69812 -0.19525,2.38422 -0.37272,5.05831 -0.13017,2.59128 -0.34315,6.39537 -0.63894,11.41227 l -8.59025,0 c -0.0947,-2.3901 -0.27215,-6.14689 -0.53246,-11.27028 -0.11833,-1.77483 -0.24256,-3.50826 -0.37271,-5.2003 l -2.80426,0.10649 -2.53803,0.26623 -0.44371,-11.16378 z" />
        <path
           id="path4821"
           style=""
           d="m 159.2632,1005.5168 -9.70841,0 -0.65669,-2.3606 c -0.27215,0.1065 -0.95251,0.4674 -2.04107,1.0827 -0.69812,0.4496 -1.47313,1.0472 -2.32505,1.7926 l -1.01166,-2.1476 c -0.20115,-0.4259 -0.49105,-1.0235 -0.86967,-1.7926 l -0.95842,3.4255 -5.14705,0 c 0.75727,-2.9226 1.92866,-7.74425 3.51419,-14.465 0.97025,-4.49626 1.78076,-8.7618 2.43154,-12.79664 l 10.66682,0 c 0.33129,1.8577 1.23646,6.1824 2.71551,12.97412 0.81641,3.5497 1.9464,8.3122 3.38996,14.28752 z m -11.19928,-5.82151 c -0.20116,-0.6271 -0.55612,-1.64468 -1.0649,-3.05273 -0.30765,-0.78092 -0.77503,-1.85766 -1.40213,-3.23022 -0.27215,0.68629 -0.69811,1.81035 -1.27789,3.37221 -0.31948,0.89926 -0.69811,2.1239 -1.1359,3.67395 0.35496,0 1.15956,-0.071 2.41379,-0.213 0.75726,-0.1065 1.5796,-0.28989 2.46703,-0.55021 z" />
        <path
           id="path4823"
           style=""
           d="m 183.75606,988.46052 c -2e-5,2.17716 -0.60938,4.10582 -1.82809,5.786 -1.07676,1.46721 -2.42564,2.52029 -4.04664,3.15922 0.34311,0.53246 1.18912,1.65062 2.53802,3.35446 0.67442,0.7809 1.70383,1.8103 3.08824,3.0882 -0.55615,0.2012 -1.78079,0.71 -3.67393,1.5264 -1.32524,0.6034 -2.57355,1.1951 -3.74493,1.7748 -0.34315,-0.4259 -1.10633,-1.5263 -2.28955,-3.3012 -0.5443,-0.8992 -1.34298,-2.4138 -2.39604,-4.54357 l -0.0355,0 -0.17748,6.21197 -9.99238,0 c -0.13015,-2.5795 -0.31356,-6.83316 -0.5502,-12.76115 -0.10649,-3.49051 -0.34905,-8.324 -0.72769,-14.50049 3.25388,-0.3431 6.22379,-0.51467 8.90973,-0.5147 9.95094,3e-5 14.92642,3.57338 14.92644,10.72006 z m -8.05779,3.83367 c -2e-5,-1.12406 -0.47331,-1.92865 -1.41988,-2.41379 -0.69812,-0.35495 -1.57371,-0.50877 -2.62677,-0.46146 l -0.10649,6.06997 c 0.98207,10e-6 1.85766,-0.21889 2.62677,-0.65669 1.01756,-0.56794 1.52635,-1.41395 1.52637,-2.53803 z" />
        <path
           id="path4825"
           style=""
           d="m 206.43858,978.25516 -0.5147,11.16378 c -0.46148,-0.071 -1.201,-0.15972 -2.21856,-0.26623 -0.62713,-0.0355 -1.64471,-0.071 -3.05273,-0.10649 -0.071,0.69812 -0.19525,2.38422 -0.37272,5.05831 -0.13017,2.59128 -0.34315,6.39537 -0.63894,11.41227 l -8.59025,0 c -0.0947,-2.3901 -0.27215,-6.14689 -0.53246,-11.27028 -0.11833,-1.77483 -0.24256,-3.50826 -0.37271,-5.2003 l -2.80426,0.10649 -2.53803,0.26623 -0.44371,-11.16378 z" />
      </g>
      <g
         id="text3854"
         style="font-size:36.34882736px;font-style:normal;font-variant:normal;font-weight:normal;font-stretch:normal;text-align:start;line-height:125%;letter-spacing:0px;word-spacing:0px;writing-mode:lr-tb;text-anchor:start;fill:#ffffff;fill-opacity:1;stroke:none;font-family:Showcard Gothic;-inkscape-font-specification:Showcard Gothic">
        <path
           id="path4806"
           style=""
           d="m 113.41895,988.41827 c -0.87561,-0.20113 -1.53821,-0.30171 -1.98783,-0.30173 -0.55613,2e-5 -1.06492,0.18934 -1.52636,0.56796 -0.55613,0.46147 -0.83419,1.059 -0.83418,1.79259 -1e-5,0.56796 0.50878,1.66245 1.52637,3.28346 1.01756,1.62104 1.52635,3.1119 1.52636,4.47261 -1e-5,1.97604 -0.75136,3.59704 -2.25405,4.86304 -1.43172,1.2188 -3.20065,1.8281 -5.30679,1.8281 -1.9405,0 -3.37221,-0.136 -4.29512,-0.4082 -0.1065,-0.5443 -0.289897,-1.4317 -0.550204,-2.6623 -0.165656,-0.6626 -0.396385,-1.5441 -0.692189,-2.64447 1.301553,0.31947 2.177133,0.47921 2.626773,0.4792 1.763,10e-6 2.64451,-0.66851 2.64452,-2.00557 -1e-5,-0.97024 -0.35498,-1.83991 -1.06491,-2.60902 -1.15957,-1.01757 -2.31914,-2.04106 -3.478697,-3.07048 -2.248139,-1.98782 -3.372206,-4.34836 -3.372205,-7.08164 -10e-7,-2.85156 1.064905,-5.01095 3.194721,-6.47818 1.857661,-1.27786 4.330611,-1.91681 7.418851,-1.91683 1.75117,2e-5 3.71533,0.25442 5.89249,0.76318 z" />
        <path
           id="path4808"
           style=""
           d="m 136.50968,977.25449 -0.5147,11.16378 c -0.46148,-0.071 -1.201,-0.15972 -2.21856,-0.26623 -0.62713,-0.0355 -1.6447,-0.071 -3.05273,-0.10649 -0.071,0.69812 -0.19525,2.38422 -0.37272,5.05831 -0.13017,2.59128 -0.34315,6.39536 -0.63894,11.41224 l -8.59025,0 c -0.0947,-2.3901 -0.27215,-6.14686 -0.53246,-11.27025 -0.11833,-1.77484 -0.24256,-3.50827 -0.37271,-5.2003 l -2.80426,0.10649 -2.53803,0.26623 -0.44371,-11.16378 z" />
        <path
           id="path4810"
           style=""
           d="m 159.2632,1004.5161 -9.70841,0 -0.65669,-2.3605 c -0.27215,0.1065 -0.95251,0.4673 -2.04107,1.0826 -0.69812,0.4497 -1.47313,1.0472 -2.32505,1.7926 l -1.01166,-2.1475 c -0.20115,-0.426 -0.49105,-1.0235 -0.86967,-1.7926 l -0.95842,3.4254 -5.14705,0 c 0.75727,-2.9226 1.92866,-7.74422 3.51419,-14.46497 0.97025,-4.49626 1.78076,-8.7618 2.43154,-12.79664 l 10.66682,0 c 0.33129,1.8577 1.23646,6.1824 2.71551,12.97412 0.81641,3.5497 1.9464,8.3122 3.38996,14.28749 z m -11.19928,-5.82148 c -0.20116,-0.6271 -0.55612,-1.64468 -1.0649,-3.05273 -0.30765,-0.78092 -0.77503,-1.85766 -1.40213,-3.23022 -0.27215,0.68628 -0.69811,1.81035 -1.27789,3.37221 -0.31948,0.89926 -0.69811,2.1239 -1.1359,3.67392 0.35496,10e-6 1.15956,-0.071 2.41379,-0.21298 0.75726,-0.10648 1.5796,-0.28988 2.46703,-0.5502 z" />
        <path
           id="path4812"
           style=""
           d="m 183.75606,987.45985 c -2e-5,2.17716 -0.60938,4.10582 -1.82809,5.786 -1.07676,1.46721 -2.42564,2.52029 -4.04664,3.15922 0.34311,0.53246 1.18912,1.65061 2.53802,3.35446 0.67442,0.78097 1.70383,1.81037 3.08824,3.08827 -0.55615,0.2011 -1.78079,0.7099 -3.67393,1.5263 -1.32524,0.6035 -2.57355,1.1951 -3.74493,1.7749 -0.34315,-0.426 -1.10633,-1.5264 -2.28955,-3.3012 -0.5443,-0.8993 -1.34298,-2.4138 -2.39604,-4.54364 l -0.0355,0 -0.17748,6.21194 -9.99238,0 c -0.13015,-2.5794 -0.31356,-6.83313 -0.5502,-12.76112 -0.10649,-3.49052 -0.34905,-8.32401 -0.72769,-14.50049 3.25388,-0.34311 6.22379,-0.51467 8.90973,-0.5147 9.95094,3e-5 14.92642,3.57338 14.92644,10.72006 z m -8.05779,3.83367 c -2e-5,-1.12406 -0.47331,-1.92865 -1.41988,-2.41379 -0.69812,-0.35495 -1.57371,-0.50877 -2.62677,-0.46146 l -0.10649,6.06997 c 0.98207,10e-6 1.85766,-0.21889 2.62677,-0.65669 1.01756,-0.56794 1.52635,-1.41395 1.52637,-2.53803 z" />
        <path
           id="path4814"
           style=""
           d="m 206.43858,977.25449 -0.5147,11.16378 c -0.46148,-0.071 -1.201,-0.15972 -2.21856,-0.26623 -0.62713,-0.0355 -1.64471,-0.071 -3.05273,-0.10649 -0.071,0.69812 -0.19525,2.38422 -0.37272,5.05831 -0.13017,2.59128 -0.34315,6.39536 -0.63894,11.41224 l -8.59025,0 c -0.0947,-2.3901 -0.27215,-6.14686 -0.53246,-11.27025 -0.11833,-1.77484 -0.24256,-3.50827 -0.37271,-5.2003 l -2.80426,0.10649 -2.53803,0.26623 -0.44371,-11.16378 z" />
      </g>
    </g>
  </g>
</svg>
