<?xml version="1.0" encoding="UTF-8" standalone="no"?>
<!-- Created with Inkscape (http://www.inkscape.org/) -->

<svg
   xmlns:dc="http://purl.org/dc/elements/1.1/"
   xmlns:cc="http://creativecommons.org/ns#"
   xmlns:rdf="http://www.w3.org/1999/02/22-rdf-syntax-ns#"
   xmlns:svg="http://www.w3.org/2000/svg"
   xmlns="http://www.w3.org/2000/svg"
   xmlns:sodipodi="http://sodipodi.sourceforge.net/DTD/sodipodi-0.dtd"
   xmlns:inkscape="http://www.inkscape.org/namespaces/inkscape"
   width="110.058"
   height="53.382999"
   id="svg2"
   version="1.1"
   inkscape:version="0.91 r13725"
   sodipodi:docname="start.svg">
  <defs
     id="defs4" />
  <sodipodi:namedview
     id="base"
     pagecolor="#ffffff"
     bordercolor="#666666"
     borderopacity="1.0"
     inkscape:pageopacity="0"
     inkscape:pageshadow="2"
     inkscape:zoom="2.8"
     inkscape:cx="56.041867"
     inkscape:cy="40.124043"
     inkscape:document-units="px"
     inkscape:current-layer="layer1"
     showgrid="false"
     inkscape:window-width="1366"
     inkscape:window-height="666"
     inkscape:window-x="0"
     inkscape:window-y="0"
     inkscape:window-maximized="1" />
  <metadata
     id="metadata7">
    <rdf:RDF>
      <cc:Work
         rdf:about="">
        <dc:format>image/svg+xml</dc:format>
        <dc:type
           rdf:resource="http://purl.org/dc/dcmitype/StillImage" />
        <dc:title />
      </cc:Work>
    </rdf:RDF>
  </metadata>
  <g
     inkscape:label="Layer 1"
     inkscape:groupmode="layer"
     id="layer1"
     transform="translate(0,-998.97918)">
    <g
       id="g32393">
      <path
         inkscape:connector-curvature="0"
         d="m 30.390899,1038.2577 c 0.277376,10e-5 0.435885,0.099 0.475527,0.2973 -1.5e-5,0.2377 -0.138708,0.3566 -0.416084,0.3566 l -2.199308,0 0,5.4685 2.615392,0 c 0.198122,0 0.297188,0.099 0.297203,0.2972 -1.5e-5,0.2378 -0.09908,0.3567 -0.297203,0.3567 l -2.615392,0 0,6.9546 c -10e-6,0.2377 -0.09908,0.3566 -0.297203,0.3566 -0.198146,-0.04 -0.297212,-0.1783 -0.297202,-0.4161 l 0,-6.8951 -6.895122,0 0,2.6154 c 0.03963,1.6247 -0.832174,3.1503 -2.615393,4.5769 -0.198137,0.1585 -0.376457,0.1783 -0.534966,0.06 -0.15851,-0.1586 -0.138693,-0.3171 0.05944,-0.4756 1.703965,-1.2284 2.536133,-2.6154 2.496511,-4.1608 l 0,-2.6154 -2.734275,0 c -0.198136,0 -0.297202,-0.1189 -0.297202,-0.3567 0,-0.1981 0.09907,-0.2972 0.297202,-0.2972 l 2.734275,0 0,-5.4685 -2.31819,0 c -0.237764,0 -0.356646,-0.1189 -0.356641,-0.3566 -5e-6,-0.1982 0.118877,-0.2972 0.356641,-0.2973 z m -9.629392,0.6539 0,5.4685 6.895122,0 0,-5.4685 z"
         id="path4101"
         style="font-style:normal;font-variant:normal;font-weight:normal;font-stretch:normal;font-size:medium;line-height:125%;font-family:FZXiYuan-M01S;-inkscape-font-specification:FZXiYuan-M01S;text-align:start;letter-spacing:0px;word-spacing:0px;writing-mode:lr-tb;text-anchor:start;fill:#ffffff;fill-opacity:1;stroke:none" />
      <path
         inkscape:connector-curvature="0"
         d="m 34.373426,1037.9605 c 0.03963,-0.1981 0.158509,-0.317 0.356646,-0.3566 0.198132,0.04 0.297202,0.1585 0.297202,0.3566 l -0.118882,1.9616 2.199309,0 c 0.515145,0.04 0.752909,0.3368 0.713286,0.8916 -0.07926,3.1702 -0.653853,5.7459 -1.72378,7.7273 1.149182,1.0699 1.80303,1.7238 1.961544,1.9615 0.118877,0.1982 0.118877,0.3765 0,0.535 -0.158514,0.1189 -0.317023,0.099 -0.475527,-0.059 -0.396274,-0.3963 -1.030311,-1.0303 -1.902101,-1.9021 -0.713292,0.9906 -1.604899,1.8228 -2.674832,2.4965 -0.237764,0.1188 -0.396273,0.099 -0.475527,-0.06 -0.07925,-0.1585 -0.01982,-0.317 0.178325,-0.4755 1.109555,-0.7925 1.96154,-1.6049 2.555949,-2.4371 -0.277391,-0.317 -0.634037,-0.7133 -1.069932,-1.1888 -0.792547,-0.8321 -1.169003,-1.3077 -1.129376,-1.4266 0,-0.079 0.05944,-0.3962 0.178325,-0.951 0.396268,-1.5851 0.693471,-3.0909 0.891612,-4.5175 l -1.426578,0 c -0.198137,0 -0.297207,-0.099 -0.297202,-0.2972 -5e-6,-0.1981 0.09907,-0.2972 0.297202,-0.2972 l 1.486017,0 z m 2.377629,2.556 -1.961545,0 c -0.4359,2.7343 -0.792541,4.4977 -1.069932,5.2902 0,0.04 0.634032,0.7728 1.902106,2.1993 0.990673,-2.021 1.505823,-4.3788 1.545455,-7.0734 -0.03963,-0.2774 -0.178325,-0.4161 -0.416084,-0.4161 z m 2.912595,4.9336 4.636376,0 c 0.792531,0 1.188799,0.2972 1.188814,0.8916 l 0,4.042 c -1.5e-5,0.8717 -0.336845,1.3076 -1.010494,1.3076 l -4.636376,0 c -0.911428,0 -1.367139,-0.3764 -1.367134,-1.1293 l 0,-3.9826 c 0.03963,-0.7132 0.43589,-1.0897 1.188814,-1.1293 z m 0.118882,0.5944 c -0.396278,0 -0.614226,0.1981 -0.653848,0.5944 l 0,3.6259 c -0.07926,0.5547 0.158499,0.8123 0.713286,0.7727 l 4.458056,0 c 0.435885,0.04 0.634022,-0.1783 0.594404,-0.6538 l 0,-3.7448 c 0.03963,-0.3963 -0.198146,-0.5944 -0.713286,-0.5944 z m -1.664342,-3.0315 c 1.347318,-1.5851 2.417251,-3.289 3.209802,-5.1119 0.158494,-0.1981 0.33682,-0.2576 0.534966,-0.1783 0.158495,0.1189 0.178311,0.2972 0.05944,0.5349 -0.990688,1.9814 -2.040804,3.6061 -3.150359,4.8742 -0.07926,0.079 -0.09907,0.1387 -0.05944,0.1783 0.03963,0.04 0.118872,0.06 0.237764,0.059 2.892769,-0.1188 4.933563,-0.2377 6.122393,-0.3566 -1.5e-5,-0.04 -0.01982,-0.099 -0.05944,-0.1783 -0.59442,-1.1888 -1.10957,-2.1201 -1.545455,-2.7937 -0.118897,-0.1982 -0.07927,-0.3567 0.118877,-0.4756 0.158499,-0.1188 0.317008,-0.079 0.475528,0.1189 0.990667,1.704 1.80302,3.408 2.437067,5.1119 0.07924,0.2378 0.03963,0.3963 -0.118882,0.4755 -0.198147,0.079 -0.356656,10e-5 -0.475523,-0.2377 -0.07927,-0.2774 -0.277406,-0.7529 -0.594409,-1.4266 -3.051299,0.2378 -5.31004,0.3368 -6.776236,0.2972 -0.317023,0 -0.51516,-0.079 -0.59441,-0.2377 -0.07926,-0.1585 -0.01982,-0.3765 0.178321,-0.6539 z"
         id="path4103"
         style="font-style:normal;font-variant:normal;font-weight:normal;font-stretch:normal;font-size:medium;line-height:125%;font-family:FZXiYuan-M01S;-inkscape-font-specification:FZXiYuan-M01S;text-align:start;letter-spacing:0px;word-spacing:0px;writing-mode:lr-tb;text-anchor:start;fill:#ffffff;fill-opacity:1;stroke:none" />
      <path
         inkscape:connector-curvature="0"
         d="m 54.939912,1037.9605 0,1.6049 3.804202,0 0,-1.5454 c -1e-5,-0.1981 0.118872,-0.2972 0.356646,-0.2972 0.198121,0 0.297192,0.099 0.297202,0.2972 l 0,1.5454 1.902106,0 c 0.198116,10e-5 0.316998,0.099 0.356641,0.2972 -1.5e-5,0.1982 -0.09908,0.2973 -0.297203,0.2973 l -1.961544,0 0,1.3671 c -1e-5,0.1981 -0.09908,0.2972 -0.297202,0.2972 -0.237774,0 -0.356656,-0.079 -0.356646,-0.2378 l 0,-1.4265 -3.804202,0 0,1.4265 c -1e-5,0.1982 -0.09908,0.2972 -0.297203,0.2972 -0.237774,0 -0.356656,-0.099 -0.356645,-0.2972 l 0,-1.4265 -1.961545,0 c -0.158514,0 -0.237769,-0.099 -0.237764,-0.2973 -5e-6,-0.1981 0.07925,-0.2971 0.237764,-0.2972 l 1.961545,0 0,-1.6049 c -1.1e-5,-0.1981 0.118871,-0.2971 0.356645,-0.2972 0.198127,10e-5 0.297193,0.099 0.297203,0.2972 z m -1.069933,4.4581 5.944067,0 c 0.713277,0 1.069923,0.3765 1.069933,1.1294 l 0,6.8951 c 0.03963,0.951 -0.435911,1.4068 -1.426574,1.3671 l -5.706308,0 c -0.713296,0 -1.089753,-0.4755 -1.129376,-1.4265 l 0,-6.598 c -5e-6,-0.951 0.41608,-1.4067 1.248258,-1.3671 z m 0.178321,0.5944 c -0.51516,0 -0.772735,0.2576 -0.77273,0.7727 l 0,3.0315 3.090915,0 0,-3.8042 z m 5.290223,0 -2.31819,0 0,3.8042 3.209803,0 0,-2.6748 c 0.03963,-0.7926 -0.257591,-1.169 -0.891613,-1.1294 z m -6.062953,4.4581 0,2.9126 c -5e-6,0.5547 0.277386,0.8321 0.832173,0.8321 l 2.258742,0 0,-3.7447 z m 6.954566,0 -3.269241,0 0,3.7447 2.49651,0 c 0.554768,0.04 0.812343,-0.1981 0.772731,-0.7133 z m -10.045482,-8.7973 c 0.792541,-0.04 1.168998,0.3567 1.129376,1.1888 l 0,10.4022 c -5e-6,0.6736 -0.336835,1.0105 -1.010494,1.0105 l -1.307696,0 c -0.792542,0.04 -1.168998,-0.3369 -1.129371,-1.1294 l 0,-10.2833 c -5e-6,-0.7925 0.356641,-1.1888 1.069932,-1.1888 z m -1.129371,0.5944 c -0.356646,0 -0.534971,0.1784 -0.534966,0.535 l 0,10.4021 c 0.03963,0.2774 0.17832,0.4161 0.416084,0.4161 l 1.248253,0 c 0.317014,-0.04 0.495334,-0.1981 0.534966,-0.4755 l 0,-10.3427 c -5e-6,-0.3566 -0.178325,-0.535 -0.534966,-0.535 z"
         id="path4105"
         style="font-style:normal;font-variant:normal;font-weight:normal;font-stretch:normal;font-size:medium;line-height:125%;font-family:FZXiYuan-M01S;-inkscape-font-specification:FZXiYuan-M01S;text-align:start;letter-spacing:0px;word-spacing:0px;writing-mode:lr-tb;text-anchor:start;fill:#ffffff;fill-opacity:1;stroke:none" />
      <path
         inkscape:connector-curvature="0"
         d="m 77.051852,1045.5095 -14.444088,0 c -0.198136,0 -0.297207,-0.1189 -0.297207,-0.3566 0,-0.1982 0.09907,-0.2972 0.297207,-0.2972 l 14.444088,0 c 0.277377,0 0.41607,0.1189 0.416085,0.3566 -1.5e-5,0.1982 -0.138708,0.2972 -0.416085,0.2972 z"
         id="path4107"
         style="font-style:normal;font-variant:normal;font-weight:normal;font-stretch:normal;font-size:medium;line-height:125%;font-family:FZXiYuan-M01S;-inkscape-font-specification:FZXiYuan-M01S;text-align:start;letter-spacing:0px;word-spacing:0px;writing-mode:lr-tb;text-anchor:start;fill:#ffffff;fill-opacity:1;stroke:none" />
      <path
         inkscape:connector-curvature="0"
         d="m 92.268671,1045.5095 -14.444088,0 c -0.198137,0 -0.297208,-0.1189 -0.297208,-0.3566 0,-0.1982 0.09907,-0.2972 0.297208,-0.2972 l 14.444088,0 c 0.277376,0 0.416069,0.1189 0.416084,0.3566 -1.5e-5,0.1982 -0.138708,0.2972 -0.416084,0.2972 z"
         id="path4109"
         style="font-style:normal;font-variant:normal;font-weight:normal;font-stretch:normal;font-size:medium;line-height:125%;font-family:FZXiYuan-M01S;-inkscape-font-specification:FZXiYuan-M01S;text-align:start;letter-spacing:0px;word-spacing:0px;writing-mode:lr-tb;text-anchor:start;fill:#ffffff;fill-opacity:1;stroke:none" />
      <path
         inkscape:connector-curvature="0"
         d="m 17.038512,1011.8711 c -0.87561,-0.2012 -1.53821,-0.3017 -1.98783,-0.3017 -0.55613,0 -1.06492,0.1893 -1.52636,0.5679 -0.55613,0.4615 -0.83419,1.059 -0.83418,1.7926 -10e-6,0.568 0.50878,1.6624 1.52637,3.2835 1.01756,1.621 1.52635,3.1119 1.52636,4.4726 -10e-6,1.9759 -0.75136,3.597 -2.25405,4.863 -1.43172,1.2187 -3.20065,1.8281 -5.30679,1.8281 -1.9405,0 -3.37221,-0.1361 -4.29512,-0.4082 -0.1065,-0.5443 -0.289897,-1.4317 -0.550204,-2.6623 -0.165656,-0.6626 -0.396385,-1.5441 -0.692189,-2.6445 1.301553,0.3195 2.177133,0.4792 2.626773,0.4792 1.763,0 2.64451,-0.6685 2.64452,-2.0055 -10e-6,-0.9703 -0.35498,-1.8399 -1.06491,-2.6091 -1.15957,-1.0175 -2.31914,-2.041 -3.478697,-3.0704 C 1.124066,1013.4684 -1e-6,1011.1079 0,1008.3746 c -1e-6,-2.8515 1.064905,-5.0109 3.194721,-6.4782 1.857661,-1.2778 4.330611,-1.91675 7.418851,-1.91678 1.75117,3e-5 3.71533,0.25438 5.89249,0.76318 z"
         id="path4817"
         style="font-style:normal;font-variant:normal;font-weight:normal;font-stretch:normal;font-size:medium;line-height:125%;font-family:'Showcard Gothic';-inkscape-font-specification:'Showcard Gothic';text-align:start;letter-spacing:0px;word-spacing:0px;writing-mode:lr-tb;text-anchor:start;fill:#000000;fill-opacity:1;stroke:none" />
      <path
         inkscape:connector-curvature="0"
         d="m 40.129242,1000.7073 -0.5147,11.1638 c -0.46148,-0.071 -1.201,-0.1597 -2.21856,-0.2663 -0.62713,-0.035 -1.6447,-0.071 -3.05273,-0.1064 -0.071,0.6981 -0.19525,2.3842 -0.37272,5.0583 -0.13017,2.5912 -0.34315,6.3953 -0.63894,11.4122 l -8.59025,0 c -0.0947,-2.3901 -0.27215,-6.1469 -0.53246,-11.2702 -0.11833,-1.7749 -0.24256,-3.5083 -0.37271,-5.2003 l -2.80426,0.1064 -2.53803,0.2663 -0.44371,-11.1638 z"
         id="path4819"
         style="font-style:normal;font-variant:normal;font-weight:normal;font-stretch:normal;font-size:medium;line-height:125%;font-family:'Showcard Gothic';-inkscape-font-specification:'Showcard Gothic';text-align:start;letter-spacing:0px;word-spacing:0px;writing-mode:lr-tb;text-anchor:start;fill:#000000;fill-opacity:1;stroke:none" />
      <path
         inkscape:connector-curvature="0"
         d="m 62.882762,1027.9689 -9.70841,0 -0.65669,-2.3606 c -0.27215,0.1065 -0.95251,0.4674 -2.04107,1.0827 -0.69812,0.4496 -1.47313,1.0472 -2.32505,1.7926 l -1.01166,-2.1476 c -0.20115,-0.4259 -0.49105,-1.0235 -0.86967,-1.7926 l -0.95842,3.4255 -5.14705,0 c 0.75727,-2.9226 1.92866,-7.7442 3.51419,-14.465 0.97025,-4.4962 1.78076,-8.7618 2.43154,-12.7966 l 10.66682,0 c 0.33129,1.8577 1.23646,6.1824 2.71551,12.9741 0.81641,3.5497 1.9464,8.3122 3.38996,14.2875 z m -11.19928,-5.8215 c -0.20116,-0.6271 -0.55612,-1.6447 -1.0649,-3.0527 -0.30765,-0.7809 -0.77503,-1.8577 -1.40213,-3.2302 -0.27215,0.6863 -0.69811,1.8103 -1.27789,3.3722 -0.31948,0.8992 -0.69811,2.1239 -1.1359,3.6739 0.35496,0 1.15956,-0.071 2.41379,-0.213 0.75726,-0.1065 1.5796,-0.2899 2.46703,-0.5502 z"
         id="path4821"
         style="font-style:normal;font-variant:normal;font-weight:normal;font-stretch:normal;font-size:medium;line-height:125%;font-family:'Showcard Gothic';-inkscape-font-specification:'Showcard Gothic';text-align:start;letter-spacing:0px;word-spacing:0px;writing-mode:lr-tb;text-anchor:start;fill:#000000;fill-opacity:1;stroke:none" />
      <path
         inkscape:connector-curvature="0"
         d="m 87.375622,1010.9127 c -2e-5,2.1771 -0.60938,4.1058 -1.82809,5.786 -1.07676,1.4672 -2.42564,2.5202 -4.04664,3.1592 0.34311,0.5324 1.18912,1.6506 2.53802,3.3544 0.67442,0.7809 1.70383,1.8103 3.08824,3.0882 -0.55615,0.2012 -1.78079,0.71 -3.67393,1.5264 -1.32524,0.6034 -2.57355,1.1951 -3.74493,1.7748 -0.34315,-0.4259 -1.10633,-1.5263 -2.28955,-3.3012 -0.5443,-0.8992 -1.34298,-2.4138 -2.39604,-4.5435 l -0.0355,0 -0.17748,6.2119 -9.99238,0 c -0.13015,-2.5795 -0.31356,-6.8331 -0.5502,-12.7611 -0.10649,-3.4905 -0.34905,-8.324 -0.72769,-14.5005 3.25388,-0.3431 6.22379,-0.5147 8.90973,-0.5147 9.95094,0 14.92642,3.5734 14.92644,10.7201 z m -8.05779,3.8336 c -2e-5,-1.124 -0.47331,-1.9286 -1.41988,-2.4138 -0.69812,-0.3549 -1.57371,-0.5087 -2.62677,-0.4614 l -0.10649,6.0699 c 0.98207,10e-5 1.85766,-0.2188 2.62677,-0.6566 1.01756,-0.568 1.52635,-1.414 1.52637,-2.5381 z"
         id="path4823"
         style="font-style:normal;font-variant:normal;font-weight:normal;font-stretch:normal;font-size:medium;line-height:125%;font-family:'Showcard Gothic';-inkscape-font-specification:'Showcard Gothic';text-align:start;letter-spacing:0px;word-spacing:0px;writing-mode:lr-tb;text-anchor:start;fill:#000000;fill-opacity:1;stroke:none" />
      <path
         inkscape:connector-curvature="0"
         d="m 110.05814,1000.7073 -0.5147,11.1638 c -0.46148,-0.071 -1.201,-0.1597 -2.21856,-0.2663 -0.62713,-0.035 -1.64471,-0.071 -3.05273,-0.1064 -0.071,0.6981 -0.19525,2.3842 -0.37272,5.0583 -0.13017,2.5912 -0.34315,6.3953 -0.63894,11.4122 l -8.590248,0 c -0.0947,-2.3901 -0.27215,-6.1469 -0.53246,-11.2702 -0.11833,-1.7749 -0.24256,-3.5083 -0.37271,-5.2003 l -2.80426,0.1064 -2.53803,0.2663 -0.44371,-11.1638 z"
         id="path4825"
         style="font-style:normal;font-variant:normal;font-weight:normal;font-stretch:normal;font-size:medium;line-height:125%;font-family:'Showcard Gothic';-inkscape-font-specification:'Showcard Gothic';text-align:start;letter-spacing:0px;word-spacing:0px;writing-mode:lr-tb;text-anchor:start;fill:#000000;fill-opacity:1;stroke:none" />
      <path
         inkscape:connector-curvature="0"
         d="m 17.038512,1010.8704 c -0.87561,-0.2011 -1.53821,-0.3017 -1.98783,-0.3017 -0.55613,0 -1.06492,0.1893 -1.52636,0.5679 -0.55613,0.4615 -0.83419,1.059 -0.83418,1.7926 -10e-6,0.568 0.50878,1.6625 1.52637,3.2835 1.01756,1.621 1.52635,3.1119 1.52636,4.4726 -10e-6,1.976 -0.75136,3.597 -2.25405,4.863 -1.43172,1.2188 -3.20065,1.8281 -5.30679,1.8281 -1.9405,0 -3.37221,-0.136 -4.29512,-0.4082 -0.1065,-0.5443 -0.289897,-1.4317 -0.550204,-2.6623 -0.165656,-0.6626 -0.396385,-1.5441 -0.692189,-2.6444 1.301553,0.3194 2.177133,0.4792 2.626773,0.4792 1.763,0 2.64451,-0.6685 2.64452,-2.0056 -10e-6,-0.9702 -0.35498,-1.8399 -1.06491,-2.609 -1.15957,-1.0176 -2.31914,-2.0411 -3.478697,-3.0705 C 1.124066,1012.4678 -1e-6,1010.1072 0,1007.374 c -1e-6,-2.8516 1.064905,-5.011 3.194721,-6.4782 1.857661,-1.27788 4.330611,-1.91683 7.418851,-1.91685 1.75117,2e-5 3.71533,0.25442 5.89249,0.76318 z"
         id="path4806"
         style="font-style:normal;font-variant:normal;font-weight:normal;font-stretch:normal;font-size:medium;line-height:125%;font-family:'Showcard Gothic';-inkscape-font-specification:'Showcard Gothic';text-align:start;letter-spacing:0px;word-spacing:0px;writing-mode:lr-tb;text-anchor:start;fill:#ffffff;fill-opacity:1;stroke:none" />
      <path
         inkscape:connector-curvature="0"
         d="m 40.129242,999.70663 -0.5147,11.16377 c -0.46148,-0.071 -1.201,-0.1597 -2.21856,-0.2662 -0.62713,-0.035 -1.6447,-0.071 -3.05273,-0.1065 -0.071,0.6981 -0.19525,2.3842 -0.37272,5.0583 -0.13017,2.5913 -0.34315,6.3954 -0.63894,11.4122 l -8.59025,0 c -0.0947,-2.3901 -0.27215,-6.1468 -0.53246,-11.2702 -0.11833,-1.7749 -0.24256,-3.5083 -0.37271,-5.2003 l -2.80426,0.1065 -2.53803,0.2662 -0.44371,-11.16377 z"
         id="path4808"
         style="font-style:normal;font-variant:normal;font-weight:normal;font-stretch:normal;font-size:medium;line-height:125%;font-family:'Showcard Gothic';-inkscape-font-specification:'Showcard Gothic';text-align:start;letter-spacing:0px;word-spacing:0px;writing-mode:lr-tb;text-anchor:start;fill:#ffffff;fill-opacity:1;stroke:none" />
      <path
         inkscape:connector-curvature="0"
         d="m 62.882762,1026.9682 -9.70841,0 -0.65669,-2.3605 c -0.27215,0.1065 -0.95251,0.4673 -2.04107,1.0826 -0.69812,0.4497 -1.47313,1.0472 -2.32505,1.7926 l -1.01166,-2.1475 c -0.20115,-0.426 -0.49105,-1.0235 -0.86967,-1.7926 l -0.95842,3.4254 -5.14705,0 c 0.75727,-2.9226 1.92866,-7.7442 3.51419,-14.4649 0.97025,-4.4963 1.78076,-8.7618 2.43154,-12.79668 l 10.66682,0 c 0.33129,1.85768 1.23646,6.18238 2.71551,12.97408 0.81641,3.5497 1.9464,8.3122 3.38996,14.2875 z m -11.19928,-5.8214 c -0.20116,-0.6271 -0.55612,-1.6447 -1.0649,-3.0528 -0.30765,-0.7809 -0.77503,-1.8576 -1.40213,-3.2302 -0.27215,0.6863 -0.69811,1.8104 -1.27789,3.3722 -0.31948,0.8993 -0.69811,2.1239 -1.1359,3.6739 0.35496,0 1.15956,-0.071 2.41379,-0.2129 0.75726,-0.1065 1.5796,-0.2899 2.46703,-0.5502 z"
         id="path4810"
         style="font-style:normal;font-variant:normal;font-weight:normal;font-stretch:normal;font-size:medium;line-height:125%;font-family:'Showcard Gothic';-inkscape-font-specification:'Showcard Gothic';text-align:start;letter-spacing:0px;word-spacing:0px;writing-mode:lr-tb;text-anchor:start;fill:#ffffff;fill-opacity:1;stroke:none" />
      <path
         inkscape:connector-curvature="0"
         d="m 87.375622,1009.912 c -2e-5,2.1771 -0.60938,4.1058 -1.82809,5.786 -1.07676,1.4672 -2.42564,2.5203 -4.04664,3.1592 0.34311,0.5325 1.18912,1.6506 2.53802,3.3545 0.67442,0.7809 1.70383,1.8103 3.08824,3.0882 -0.55615,0.2011 -1.78079,0.7099 -3.67393,1.5263 -1.32524,0.6035 -2.57355,1.1951 -3.74493,1.7749 -0.34315,-0.426 -1.10633,-1.5264 -2.28955,-3.3012 -0.5443,-0.8993 -1.34298,-2.4138 -2.39604,-4.5436 l -0.0355,0 -0.17748,6.2119 -9.99238,0 c -0.13015,-2.5794 -0.31356,-6.8331 -0.5502,-12.7611 -0.10649,-3.4905 -0.34905,-8.324 -0.72769,-14.50048 3.25388,-0.34311 6.22379,-0.51467 8.90973,-0.5147 9.95094,3e-5 14.92642,3.57338 14.92644,10.72008 z m -8.05779,3.8337 c -2e-5,-1.1241 -0.47331,-1.9287 -1.41988,-2.4138 -0.69812,-0.355 -1.57371,-0.5088 -2.62677,-0.4615 l -0.10649,6.07 c 0.98207,0 1.85766,-0.2189 2.62677,-0.6567 1.01756,-0.568 1.52635,-1.414 1.52637,-2.538 z"
         id="path4812"
         style="font-style:normal;font-variant:normal;font-weight:normal;font-stretch:normal;font-size:medium;line-height:125%;font-family:'Showcard Gothic';-inkscape-font-specification:'Showcard Gothic';text-align:start;letter-spacing:0px;word-spacing:0px;writing-mode:lr-tb;text-anchor:start;fill:#ffffff;fill-opacity:1;stroke:none" />
      <path
         inkscape:connector-curvature="0"
         d="m 110.05814,999.70663 -0.5147,11.16377 c -0.46148,-0.071 -1.201,-0.1597 -2.21856,-0.2662 -0.62713,-0.035 -1.64471,-0.071 -3.05273,-0.1065 -0.071,0.6981 -0.19525,2.3842 -0.37272,5.0583 -0.13017,2.5913 -0.34315,6.3954 -0.63894,11.4122 l -8.590248,0 c -0.0947,-2.3901 -0.27215,-6.1468 -0.53246,-11.2702 -0.11833,-1.7749 -0.24256,-3.5083 -0.37271,-5.2003 l -2.80426,0.1065 -2.53803,0.2662 -0.44371,-11.16377 z"
         id="path4814"
         style="font-style:normal;font-variant:normal;font-weight:normal;font-stretch:normal;font-size:medium;line-height:125%;font-family:'Showcard Gothic';-inkscape-font-specification:'Showcard Gothic';text-align:start;letter-spacing:0px;word-spacing:0px;writing-mode:lr-tb;text-anchor:start;fill:#ffffff;fill-opacity:1;stroke:none" />
    </g>
  </g>
</svg>
