<?xml version="1.0" encoding="UTF-8" standalone="no"?>
<svg
   xmlns:dc="http://purl.org/dc/elements/1.1/"
   xmlns:cc="http://creativecommons.org/ns#"
   xmlns:rdf="http://www.w3.org/1999/02/22-rdf-syntax-ns#"
   xmlns:svg="http://www.w3.org/2000/svg"
   xmlns="http://www.w3.org/2000/svg"
   xmlns:sodipodi="http://sodipodi.sourceforge.net/DTD/sodipodi-0.dtd"
   xmlns:inkscape="http://www.inkscape.org/namespaces/inkscape"
   viewBox="0 0 459.00002 247"
   height="247"
   width="459"
   xml:space="preserve"
   id="svg2"
   version="1.1"
   inkscape:version="0.48.0 r9654"
   sodipodi:docname="step3.svg"><sodipodi:namedview
   pagecolor="#ffffff"
   bordercolor="#666666"
   borderopacity="1"
   objecttolerance="10"
   gridtolerance="10"
   guidetolerance="10"
   inkscape:pageopacity="0"
   inkscape:pageshadow="2"
   inkscape:window-width="1280"
   inkscape:window-height="705"
   id="namedview4304"
   showgrid="false"
   inkscape:zoom="0.64183538"
   inkscape:cx="513.29857"
   inkscape:cy="-120.88745"
   inkscape:window-x="-8"
   inkscape:window-y="-8"
   inkscape:window-maximized="1"
   inkscape:current-layer="svg2"
   showguides="true"
   inkscape:guide-bbox="true" /><metadata
   id="metadata8"><rdf:RDF><cc:Work
       rdf:about=""><dc:format>image/svg+xml</dc:format><dc:type
         rdf:resource="http://purl.org/dc/dcmitype/StillImage" /><dc:title></dc:title></cc:Work></rdf:RDF></metadata><defs
   id="defs6" /><path
   transform="translate(-465.85155,507.95667)"
   d="m 900.54245,814.86438 a 197.09103,197.09103 0 1 1 -394.18207,0 197.09103,197.09103 0 1 1 394.18207,0 z"
   sodipodi:ry="197.09103"
   sodipodi:rx="197.09103"
   sodipodi:cy="814.86438"
   sodipodi:cx="703.45142"
   id="path6115"
   style="fill:#656263;fill-opacity:1;stroke:none"
   sodipodi:type="arc" /><path
   sodipodi:type="arc"
   style="fill:#656263;fill-opacity:1;stroke:none"
   id="path6109"
   sodipodi:cx="703.45142"
   sodipodi:cy="814.86438"
   sodipodi:rx="197.09103"
   sodipodi:ry="197.09103"
   d="m 900.54245,814.86438 a 197.09103,197.09103 0 1 1 -394.18207,0 197.09103,197.09103 0 1 1 394.18207,0 z"
   transform="translate(-531.21059,999.3821)" /><path
   style="fill:#fbbf58;fill-opacity:1;stroke:none"
   d="m 106.18327,1211.0266 c -7.476307,0.4552 -12.242327,24.4131 -14.312497,37.625 -11.58379,14.2263 -29.42553,44.1061 -45.59375,76.5938 -1.73527,0.78 -3.67667,1.6375 -5.65625,2.5625 -0.87811,7.8303 -1.26475,15.6089 -1.21875,23.3125 1.79314,12.4716 4.76712,24.5535 8.78125,36.1562 1.09503,-2.6276 2.26065,-4.9389 3.4375,-6.8125 13.49863,-21.4881 39.62498,-47.4514 82.874997,-35.5625 12.01875,3.3039 22.10966,7.2148 30.4375,11.6875 24.98355,13.4183 34.48072,31.7108 35.1875,52.5625 0.71295,21.0257 -11.59393,76.1096 -50.75,91.4688 18.2727,8.7615 38.10601,14.7979 58.96875,17.5625 9.18294,-28.9496 19.24736,-74.8867 24.75,-114 7.70306,3.9794 17.77519,8.1933 19.5,4.25 2.02551,-4.6325 -8.90708,-21.8793 -16.34375,-31.8125 3.313,-39.5834 0.0296,-68.6001 -3.375,-84.2813 6.97654,-10.7278 20.05938,-32.9998 11.6875,-37.5625 -9.18723,-5.0072 -30.10854,8.5464 -37.125,13.4063 -22.75235,-10.054 -58.21519,-22.5546 -82.875,-27.1563 -3.058,-9.7329 -10.09548,-29.195 -17.625,-29.9687 -0.24287,-0.025 -0.50623,-0.046 -0.75,-0.031 z m -0.1875,10.1563 c 0.26233,-0.01 0.53963,0.098 0.84375,0.2812 3.28451,1.979 8.61214,14.1049 8.71875,17.25 0.12605,3.7287 -10.24948,5.563 -14.21875,1.3125 0,0 1.23656,-15.6407 3.9375,-18.5312 0.21101,-0.2258 0.45641,-0.3056 0.71875,-0.3125 z m 129.3125,41.5 c 0.18709,0 0.35971,-0.02 0.53125,0 0.17704,0.021 0.3722,0.078 0.53125,0.125 0.15903,0.047 0.27852,0.11 0.40625,0.1875 3.95949,2.4013 -6.75564,18.8832 -8.5,20.75 -1.80063,1.927 -12.55588,-7.3915 -11.71875,-10.2188 0,0 12.95024,-10.7609 18.75,-10.8437 z"
   id="path6107"
   inkscape:connector-curvature="0" /><g
   id="g6111"
   transform="translate(-93.481917,1085.9865)"><path
     inkscape:connector-curvature="0"
     id="path6096"
     d="m 217.03823,244.94884 c -40.40665,-6.1969 -65.58197,20.0362 -79.10368,42.00116 -0.11137,0.18097 -0.23111,0.39187 -0.3423,0.57961 10.24045,56.6738 45.0388,106.22732 94.54154,135.16909 50.96469,-10.24983 66.79349,-79.48114 66.05499,-104.62648 -0.90277,-30.75144 -18.66627,-56.40243 -70.53337,-70.82272 -3.64542,-1.0135 -7.19288,-1.7755 -10.61718,-2.30066 z"
     style="fill:#ffffff;fill-opacity:1;stroke:none" /></g><path
   inkscape:connector-curvature="0"
   id="path6098"
   d="m 222.83589,1335.1757 49.4619,2.4256"
   style="fill:none;stroke:#ffffff;stroke-width:2.39509273;stroke-linecap:butt;stroke-linejoin:miter;stroke-miterlimit:4;stroke-opacity:1;stroke-dasharray:none" /><path
   inkscape:connector-curvature="0"
   id="path6100"
   d="m 221.5909,1340.1509 51.43536,11.9381"
   style="fill:none;stroke:#ffffff;stroke-width:2.39509273;stroke-linecap:butt;stroke-linejoin:miter;stroke-miterlimit:4;stroke-opacity:1;stroke-dasharray:none" /><path
   inkscape:connector-curvature="0"
   id="path6102"
   d="m 220.06509,1346.812 45.32986,17.4565"
   style="fill:none;stroke:#ffffff;stroke-width:2.39509273;stroke-linecap:butt;stroke-linejoin:miter;stroke-miterlimit:4;stroke-opacity:1;stroke-dasharray:none" /><path
   inkscape:connector-curvature="0"
   d="m 126.36471,1295.021 c 4.21542,1.2482 8.6455,-1.1569 9.89396,-5.3734 1.24845,-4.2164 -1.15798,-8.6458 -5.37341,-9.894 -4.21645,-1.2484 -8.64654,1.1567 -9.89499,5.3732 -1.24847,4.2164 1.15799,8.6458 5.37444,9.8942"
   style="fill:#393536;fill-opacity:1;fill-rule:nonzero;stroke:none"
   id="path5857" /><path
   inkscape:connector-curvature="0"
   d="m 193.3736,1314.8618 c 4.21644,1.2485 8.64552,-1.157 9.89396,-5.3734 1.24846,-4.2164 -1.15696,-8.6455 -5.37341,-9.894 -4.21644,-1.2484 -8.64552,1.157 -9.89397,5.3734 -1.24846,4.2165 1.15697,8.6456 5.37342,9.894"
   style="fill:#393536;fill-opacity:1;fill-rule:nonzero;stroke:none"
   id="path5859" /><path
   inkscape:connector-curvature="0"
   d="m 142.48512,1306.6528 c -2.13593,6.0851 4.48566,15.6893 11.18338,17.6724 8.48187,2.5114 15.92604,-0.8197 17.93519,-7.6052 2.00913,-6.7855 -16.84025,-17.9031 -25.38506,-13.9742 l -0.26775,0.1394 c -1.81326,0.9086 -2.92296,2.2231 -3.46576,3.7676"
   style="fill:#393536;fill-opacity:1;fill-rule:nonzero;stroke:none"
   id="path5861" /><path
   style="fill:none;stroke:#ffffff;stroke-width:2.39509273;stroke-linecap:butt;stroke-linejoin:miter;stroke-miterlimit:4;stroke-opacity:1;stroke-dasharray:none"
   d="m 96.712803,1296.092 -45.8489,-18.7147"
   id="path5879"
   inkscape:connector-curvature="0" /><path
   style="fill:none;stroke:#ffffff;stroke-width:2.39509273;stroke-linecap:butt;stroke-linejoin:miter;stroke-miterlimit:4;stroke-opacity:1;stroke-dasharray:none"
   d="m 99.539423,1291.8126 -44.55115,-28.3425"
   id="path5881"
   inkscape:connector-curvature="0" /><path
   style="fill:none;stroke:#ffffff;stroke-width:2.39509273;stroke-linecap:butt;stroke-linejoin:miter;stroke-miterlimit:4;stroke-opacity:1;stroke-dasharray:none"
   d="M 101.81721,1285.3011 64.857683,1253.7809"
   id="path5883"
   inkscape:connector-curvature="0" /><path
   id="path5925"
   style="fill:#393536;fill-opacity:1;fill-rule:nonzero;stroke:none"
   d="m 126.36471,1295.021 c 4.21542,1.2482 8.6455,-1.1569 9.89396,-5.3734 1.24845,-4.2164 -1.15798,-8.6458 -5.37341,-9.894 -4.21645,-1.2484 -8.64654,1.1567 -9.89499,5.3732 -1.24847,4.2164 1.15799,8.6458 5.37444,9.8942"
   inkscape:connector-curvature="0" /><path
   id="path5929"
   style="fill:#393536;fill-opacity:1;fill-rule:nonzero;stroke:none"
   d="m 142.48512,1306.6528 c -2.13593,6.0851 4.48566,15.6893 11.18338,17.6724 8.48187,2.5114 15.92604,-0.8197 17.93519,-7.6052 2.00913,-6.7855 -16.84025,-17.9031 -25.38506,-13.9742 l -0.26775,0.1394 c -1.81326,0.9086 -2.92296,2.2231 -3.46576,3.7676"
   inkscape:connector-curvature="0" /><path
   inkscape:connector-curvature="0"
   id="path5947"
   d="m 96.712803,1296.092 -45.8489,-18.7147"
   style="fill:none;stroke:#ffffff;stroke-width:2.39509273;stroke-linecap:butt;stroke-linejoin:miter;stroke-miterlimit:4;stroke-opacity:1;stroke-dasharray:none" /><path
   inkscape:connector-curvature="0"
   id="path5949"
   d="m 99.539423,1291.8126 -44.55115,-28.3425"
   style="fill:none;stroke:#ffffff;stroke-width:2.39509273;stroke-linecap:butt;stroke-linejoin:miter;stroke-miterlimit:4;stroke-opacity:1;stroke-dasharray:none" /><path
   inkscape:connector-curvature="0"
   id="path5951"
   d="M 101.81721,1285.3011 64.857683,1253.7809"
   style="fill:none;stroke:#ffffff;stroke-width:2.39509273;stroke-linecap:butt;stroke-linejoin:miter;stroke-miterlimit:4;stroke-opacity:1;stroke-dasharray:none" /><path
   id="path6104"
   style="fill:#393536;fill-opacity:1;fill-rule:nonzero;stroke:none"
   d="m 193.3736,1314.8618 c 4.21644,1.2485 8.64552,-1.157 9.89396,-5.3734 1.24846,-4.2164 -1.15696,-8.6455 -5.37341,-9.894 -4.21644,-1.2484 -8.64552,1.157 -9.89397,5.3734 -1.24846,4.2165 1.15697,8.6456 5.37342,9.894"
   inkscape:connector-curvature="0" /><path
   inkscape:connector-curvature="0"
   d="m 86.692833,1853.4517 c 0.0968,0.2567 0.19407,0.5094 0.29059,0.7641 -0.0966,-0.2547 -0.19377,-0.5074 -0.29059,-0.7641"
   style="fill:#ffffff;fill-opacity:1;fill-rule:nonzero;stroke:none"
   id="path6322" /><path
   inkscape:connector-curvature="0"
   d="m 68.115633,1804.3911 c 0.59345,1.4808 1.18398,2.9688 1.77017,4.4602 -0.58631,-1.4924 -1.17672,-2.9794 -1.77017,-4.4602"
   style="fill:#ffffff;fill-opacity:1;fill-rule:nonzero;stroke:none"
   id="path6324" /><path
   inkscape:connector-curvature="0"
   d="m 70.113733,1809.4336 c 0.581,1.4803 1.15765,2.9641 1.73173,4.4501 -0.57408,-1.486 -1.15073,-2.9698 -1.73173,-4.4501"
   style="fill:#ffffff;fill-opacity:1;fill-rule:nonzero;stroke:none"
   id="path6326" /><path
   inkscape:connector-curvature="0"
   d="m 40.722893,1911.5252 c -0.80305,-0.4393 -1.60529,-0.8905 -2.40595,-1.3496 0.80078,0.4601 1.60278,0.9093 2.40595,1.3496"
   style="fill:#ffffff;fill-opacity:1;fill-rule:nonzero;stroke:none"
   id="path6328" /><path
   inkscape:connector-curvature="0"
   d="m 91.653913,1866.1474 -0.008,-0.018 -0.0335,-0.085 0.0335,0.085 0.008,0.018"
   style="fill:#ffffff;fill-opacity:1;fill-rule:nonzero;stroke:none"
   id="path6332" /><path
   inkscape:connector-curvature="0"
   d="m 34.312503,1907.7866 c -0.97784,-0.6078 -1.9532,-1.2286 -2.92541,-1.8692 0.97183,0.6407 1.94745,1.2604 2.92541,1.8692"
   style="fill:#ffffff;fill-opacity:1;fill-rule:nonzero;stroke:none"
   id="path6334" /><path
   inkscape:connector-curvature="0"
   d="m 90.176233,1862.451 c 0.11719,0.2981 0.23586,0.5999 0.35377,0.896 -0.11791,-0.2961 -0.23658,-0.5979 -0.35377,-0.896"
   style="fill:#ffffff;fill-opacity:1;fill-rule:nonzero;stroke:none"
   id="path6340" /><path
   inkscape:connector-curvature="0"
   d="m 88.994753,1859.441 c 0.13302,0.3411 0.26513,0.6822 0.39786,1.0204 -0.13268,-0.3382 -0.26479,-0.6794 -0.39786,-1.0204"
   style="fill:#ffffff;fill-opacity:1;fill-rule:nonzero;stroke:none"
   id="path6342" /><path
   inkscape:connector-curvature="0"
   d="m 87.845783,1856.47 c 0.12291,0.3208 0.24549,0.6388 0.36905,0.9575 -0.12363,-0.3187 -0.24611,-0.6367 -0.36905,-0.9575"
   style="fill:#ffffff;fill-opacity:1;fill-rule:nonzero;stroke:none"
   id="path6344" /><path
   inkscape:connector-curvature="0"
   d="m 37.415843,1909.6543 c -0.73637,-0.4307 -1.47077,-0.8722 -2.20446,-1.3198 0.73382,0.4485 1.46838,0.8891 2.20446,1.3198"
   style="fill:#ffffff;fill-opacity:1;fill-rule:nonzero;stroke:none"
   id="path6346" /><path
   inkscape:connector-curvature="0"
   d="m 58.024923,1780.9761 c 0.63478,1.3463 1.26669,2.7095 1.89477,4.0916 -0.62808,-1.3821 -1.25999,-2.7453 -1.89477,-4.0916"
   style="fill:#ffffff;fill-opacity:1;fill-rule:nonzero;stroke:none"
   id="path6348" /><path
   inkscape:connector-curvature="0"
   d="m 55.787443,1776.3362 c 0.65241,1.3178 1.30034,2.6626 1.94548,4.0232 -0.64514,-1.3606 -1.29307,-2.7054 -1.94548,-4.0232"
   style="fill:#ffffff;fill-opacity:1;fill-rule:nonzero;stroke:none"
   id="path6350" /><path
   inkscape:connector-curvature="0"
   d="m 64.190633,1794.8396 c 1.24149,2.9405 2.46875,5.9276 3.68187,8.9466 -1.21312,-3.019 -2.44038,-6.0061 -3.68187,-8.9466"
   style="fill:#ffffff;fill-opacity:1;fill-rule:nonzero;stroke:none"
   id="path6352" /><path
   inkscape:connector-curvature="0"
   d="m 62.069493,1789.8964 c 0.62023,1.4202 1.23661,2.8554 1.84972,4.3026 -0.61311,-1.4472 -1.22949,-2.8824 -1.84972,-4.3026"
   style="fill:#ffffff;fill-opacity:1;fill-rule:nonzero;stroke:none"
   id="path6354" /><path
   inkscape:connector-curvature="0"
   d="m 60.062213,1785.3853 c 0.61422,1.3565 1.22565,2.7289 1.83322,4.1164 -0.60757,-1.3875 -1.219,-2.7599 -1.83322,-4.1164"
   style="fill:#ffffff;fill-opacity:1;fill-rule:nonzero;stroke:none"
   id="path6356" /><path
   inkscape:connector-curvature="0"
   d="m 234.54294,1918.8727 c 70.86713,-7.4753 57.31132,-88.2212 46.58,-111.1199 -10.73143,-22.8997 -32.55486,-36.4336 -76.45249,-30.3539 -39.49181,5.4696 -51.49016,36.5138 -54.7851,59.2804 -3.29412,22.7655 13.79127,89.6677 84.65759,82.1934"
   style="fill:#ffffff;fill-opacity:1;fill-rule:nonzero;stroke:none"
   id="path6358" /><path
   inkscape:connector-curvature="0"
   d="m 178.61201,1744.0193 c 3.88116,-0.4584 6.62791,-4.0465 6.13381,-8.015 -0.49411,-3.9685 -4.04176,-6.8131 -7.92293,-6.3547 -3.88209,0.4585 -6.62885,4.0466 -6.13474,8.0151 0.4941,3.9685 4.04176,6.8131 7.92386,6.3546"
   style="fill:#ffffff;fill-opacity:1;fill-rule:nonzero;stroke:none"
   id="path6360" /><path
   inkscape:connector-curvature="0"
   d="m 240.30735,1736.7324 c 3.88211,-0.4585 6.62793,-4.0465 6.13381,-8.015 -0.49409,-3.9685 -4.04082,-6.8132 -7.92292,-6.3547 -3.88209,0.4585 -6.62792,4.0464 -6.13381,8.015 0.4941,3.9685 4.04083,6.8132 7.92292,6.3547"
   style="fill:#ffffff;fill-opacity:1;fill-rule:nonzero;stroke:none"
   id="path6362" /><path
   inkscape:connector-curvature="0"
   d="m 195.91212,1747.9982 c 0.44089,5.8465 9.27669,11.5143 15.44331,10.786 7.8093,-0.9224 12.67944,-6.3579 11.88428,-12.7445 -0.79516,-6.3865 -20.13397,-8.9637 -25.68648,-2.6365 l -0.16813,0.2119 c -1.15146,1.4052 -1.58433,2.899 -1.47298,4.3831"
   style="fill:#ffffff;fill-opacity:1;fill-rule:nonzero;stroke:none"
   id="path6364" /><path
   inkscape:connector-curvature="0"
   d="m 259.1544,1692.9225 c 0.77619,-2.2519 3.7293,-20.9629 -0.95628,-20.4095 -4.68558,0.5534 -12.26844,16.031 -12.26844,16.031 0.33132,2.6611 12.44853,6.6303 13.22472,4.3785"
   style="fill:#ffffff;fill-opacity:1;fill-rule:nonzero;stroke:none"
   id="path6366" /><path
   inkscape:connector-curvature="0"
   d="m 151.16442,1695.4156 c -1.43884,-3.0703 -13.37622,-14.0812 -14.54051,-10.7035 -1.16428,3.3778 3.4221,16.878 3.4221,16.878 4.7566,2.1384 12.55735,-3.1033 11.11841,-6.1745"
   style="fill:#ffffff;fill-opacity:1;fill-rule:nonzero;stroke:none"
   id="path6368" /><path
   id="path6388"
   style="fill:#ffffff;fill-opacity:1;fill-rule:nonzero;stroke:none"
   d="m 86.692833,1853.4517 c 0.0968,0.2567 0.19407,0.5094 0.29059,0.7641 -0.0966,-0.2547 -0.19377,-0.5074 -0.29059,-0.7641"
   inkscape:connector-curvature="0" /><path
   id="path6390"
   style="fill:#ffffff;fill-opacity:1;fill-rule:nonzero;stroke:none"
   d="m 68.115633,1804.3911 c 0.59345,1.4808 1.18398,2.9688 1.77017,4.4602 -0.58631,-1.4924 -1.17672,-2.9794 -1.77017,-4.4602"
   inkscape:connector-curvature="0" /><path
   id="path6392"
   style="fill:#ffffff;fill-opacity:1;fill-rule:nonzero;stroke:none"
   d="m 70.113733,1809.4336 c 0.581,1.4803 1.15765,2.9641 1.73173,4.4501 -0.57408,-1.486 -1.15073,-2.9698 -1.73173,-4.4501"
   inkscape:connector-curvature="0" /><path
   id="path6394"
   style="fill:#ffffff;fill-opacity:1;fill-rule:nonzero;stroke:none"
   d="m 40.722893,1911.5252 c -0.80305,-0.4393 -1.60529,-0.8905 -2.40595,-1.3496 0.80078,0.4601 1.60278,0.9093 2.40595,1.3496"
   inkscape:connector-curvature="0" /><path
   id="path6398"
   style="fill:#ffffff;fill-opacity:1;fill-rule:nonzero;stroke:none"
   d="m 91.653913,1866.1474 -0.008,-0.018 -0.0335,-0.085 0.0335,0.085 0.008,0.018"
   inkscape:connector-curvature="0" /><path
   id="path6400"
   style="fill:#ffffff;fill-opacity:1;fill-rule:nonzero;stroke:none"
   d="m 34.312503,1907.7866 c -0.97784,-0.6078 -1.9532,-1.2286 -2.92541,-1.8692 0.97183,0.6407 1.94745,1.2604 2.92541,1.8692"
   inkscape:connector-curvature="0" /><path
   style="fill:#656263;fill-opacity:0;fill-rule:nonzero;stroke:none"
   d="m 262.2722,1663.0435 c -9.2783,-0.9122 -21.4895,17.8733 -25.46335,24.4342 -22.13698,-0.2981 -55.48147,1.8989 -77.21825,6.8369 -6.17197,-7.2721 -19.51615,-21.6993 -25.70018,-18.5222 -5.92701,3.0435 -1.21936,24.7507 1.82919,36.5298 -4.33766,16.0155 -8.18442,47.3204 -9.71198,80.2306 -7.6917,8.6143 -20.14664,23.3115 -18.64289,26.5203 1.2569,2.6814 10.4822,0.2851 17.96818,-2.1694 -0.0888,10.5831 0.10804,20.9882 0.65504,30.7427 1.33743,23.8308 3.53045,43.8424 6.05753,59.6817 -3.68097,-0.8363 -7.64908,-2.1849 -11.71175,-4.3409 -1.24485,8.5819 0.38431,18.1368 2.77584,26.4998 4.79958,-0.2134 9.18326,-0.5758 13.02422,-1.0196 2.4862,10.4486 5.01928,17.2291 7.15745,20.0267 0.77808,1.0184 4.66024,1.4596 10.78921,1.4629 2.49896,6.622 7.43972,17.4299 12.88087,16.7872 5.03893,-0.5952 8.54589,-10.7784 10.40475,-17.9366 33.49818,-2.6395 84.15581,-9.3762 117.00197,-15.5601 2.98103,5.8681 6.82837,12.3456 9.4349,12.4794 2.81758,0.1438 5.62862,-8.7 7.45227,-15.9954 8.56182,-2.0162 14.13717,-3.8522 15.26076,-5.3204 6.31753,-8.255 -5.36839,-79.1106 -20.03668,-132.4123 7.70097,0.5819 17.3961,0.5523 17.38797,-3.3576 -0.0102,-4.5931 -15.08864,-15.1449 -24.70636,-20.7974 -11.4871,-34.2614 -24.54393,-57.3477 -32.93703,-69.2403 1.83837,-11.4507 4.50313,-34.7289 -3.95168,-35.56 z m -3.39236,9.6526 c 4.08594,0.5965 1.28557,18.2087 0.53365,20.3902 -0.77619,2.2518 -12.89431,-1.7014 -13.22563,-4.3625 0,0 7.58407,-15.4893 12.26965,-16.0427 0.14643,-0.017 0.29054,0 0.42233,0.015 z m -120.73881,11.5672 c 3.38475,0.484 12.07331,8.7325 13.28731,11.323 1.43894,3.0713 -6.35508,8.3064 -11.11169,6.168 0,0 -4.58917,-13.4974 -3.42489,-16.8752 0.18192,-0.5277 0.62247,-0.7054 1.24927,-0.6158 z m 95.74409,92.2561 c 25.16019,2.3149 39.4481,14.2254 47.49666,31.4001 10.73132,22.8987 24.29093,103.6499 -46.5762,111.1252 -70.86631,7.4743 -87.95232,-59.4322 -84.6582,-82.1977 3.29494,-22.7666 15.28454,-53.8061 54.77636,-59.2757 10.9744,-1.5199 20.57466,-1.8236 28.96138,-1.0519 z m -115.48895,153.1152 c -1.3597,0.026 -2.73408,0.043 -4.14816,0.039 1.41563,0 2.78668,-0.012 4.14816,-0.039 z m -7.28829,0.01 c -0.95275,-0.019 -1.91814,-0.042 -2.89156,-0.076 0.97112,0.035 1.94098,0.057 2.89156,0.076 z m -4.95724,-0.1697 c -0.89711,-0.043 -1.7952,-0.094 -2.70772,-0.1507 0.91263,0.057 1.81063,0.1085 2.70772,0.1507 z m -4.8586,-0.2972 c -1.12676,-0.084 -2.263637,-0.1734 -3.411137,-0.2817 1.15145,0.1085 2.280277,0.1969 3.411137,0.2817 z"
   id="path6402"
   inkscape:connector-curvature="0" /><path
   id="path6406"
   style="fill:#ffffff;fill-opacity:1;fill-rule:nonzero;stroke:none"
   d="m 90.176233,1862.451 c 0.11719,0.2981 0.23586,0.5999 0.35377,0.896 -0.11791,-0.2961 -0.23658,-0.5979 -0.35377,-0.896"
   inkscape:connector-curvature="0" /><path
   id="path6408"
   style="fill:#ffffff;fill-opacity:1;fill-rule:nonzero;stroke:none"
   d="m 88.994753,1859.441 c 0.13302,0.3411 0.26513,0.6822 0.39786,1.0204 -0.13268,-0.3382 -0.26479,-0.6794 -0.39786,-1.0204"
   inkscape:connector-curvature="0" /><path
   id="path6410"
   style="fill:#ffffff;fill-opacity:1;fill-rule:nonzero;stroke:none"
   d="m 87.845783,1856.47 c 0.12291,0.3208 0.24549,0.6388 0.36905,0.9575 -0.12363,-0.3187 -0.24611,-0.6367 -0.36905,-0.9575"
   inkscape:connector-curvature="0" /><path
   id="path6412"
   style="fill:#ffffff;fill-opacity:1;fill-rule:nonzero;stroke:none"
   d="m 37.415843,1909.6543 c -0.73637,-0.4307 -1.47077,-0.8722 -2.20446,-1.3198 0.73382,0.4485 1.46838,0.8891 2.20446,1.3198"
   inkscape:connector-curvature="0" /><path
   id="path6414"
   style="fill:#ffffff;fill-opacity:1;fill-rule:nonzero;stroke:none"
   d="m 58.024923,1780.9761 c 0.63478,1.3463 1.26669,2.7095 1.89477,4.0916 -0.62808,-1.3821 -1.25999,-2.7453 -1.89477,-4.0916"
   inkscape:connector-curvature="0" /><path
   id="path6416"
   style="fill:#ffffff;fill-opacity:1;fill-rule:nonzero;stroke:none"
   d="m 55.787443,1776.3362 c 0.65241,1.3178 1.30034,2.6626 1.94548,4.0232 -0.64514,-1.3606 -1.29307,-2.7054 -1.94548,-4.0232"
   inkscape:connector-curvature="0" /><path
   id="path6418"
   style="fill:#ffffff;fill-opacity:1;fill-rule:nonzero;stroke:none"
   d="m 64.190633,1794.8396 c 1.24149,2.9405 2.46875,5.9276 3.68187,8.9466 -1.21312,-3.019 -2.44038,-6.0061 -3.68187,-8.9466"
   inkscape:connector-curvature="0" /><path
   id="path6420"
   style="fill:#ffffff;fill-opacity:1;fill-rule:nonzero;stroke:none"
   d="m 62.069493,1789.8964 c 0.62023,1.4202 1.23661,2.8554 1.84972,4.3026 -0.61311,-1.4472 -1.22949,-2.8824 -1.84972,-4.3026"
   inkscape:connector-curvature="0" /><path
   id="path6422"
   style="fill:#ffffff;fill-opacity:1;fill-rule:nonzero;stroke:none"
   d="m 60.062213,1785.3853 c 0.61422,1.3565 1.22565,2.7289 1.83322,4.1164 -0.60757,-1.3875 -1.219,-2.7599 -1.83322,-4.1164"
   inkscape:connector-curvature="0" /><path
   id="path6424"
   style="fill:#ffffff;fill-opacity:1;fill-rule:nonzero;stroke:none"
   d="m 234.54294,1918.8727 c 70.86713,-7.4753 57.31132,-88.2212 46.58,-111.1199 -10.73143,-22.8997 -32.55486,-36.4336 -76.45249,-30.3539 -39.49181,5.4696 -51.49016,36.5138 -54.7851,59.2804 -3.29412,22.7655 13.79127,89.6677 84.65759,82.1934"
   inkscape:connector-curvature="0" /><path
   id="path6426"
   style="fill:#ffffff;fill-opacity:1;fill-rule:nonzero;stroke:none"
   d="m 178.61201,1744.0193 c 3.88116,-0.4584 6.62791,-4.0465 6.13381,-8.015 -0.49411,-3.9685 -4.04176,-6.8131 -7.92293,-6.3547 -3.88209,0.4585 -6.62885,4.0466 -6.13474,8.0151 0.4941,3.9685 4.04176,6.8131 7.92386,6.3546"
   inkscape:connector-curvature="0" /><path
   id="path6428"
   style="fill:#ffffff;fill-opacity:1;fill-rule:nonzero;stroke:none"
   d="m 240.30735,1736.7324 c 3.88211,-0.4585 6.62793,-4.0465 6.13381,-8.015 -0.49409,-3.9685 -4.04082,-6.8132 -7.92292,-6.3547 -3.88209,0.4585 -6.62792,4.0464 -6.13381,8.015 0.4941,3.9685 4.04083,6.8132 7.92292,6.3547"
   inkscape:connector-curvature="0" /><path
   id="path6430"
   style="fill:#ffffff;fill-opacity:1;fill-rule:nonzero;stroke:none"
   d="m 195.91212,1747.9982 c 0.44089,5.8465 9.27669,11.5143 15.44331,10.786 7.8093,-0.9224 12.67944,-6.3579 11.88428,-12.7445 -0.79516,-6.3865 -20.13397,-8.9637 -25.68648,-2.6365 l -0.16813,0.2119 c -1.15146,1.4052 -1.58433,2.899 -1.47298,4.3831"
   inkscape:connector-curvature="0" /><path
   id="path6432"
   style="fill:#ffffff;fill-opacity:1;fill-rule:nonzero;stroke:none"
   d="m 259.1544,1692.9225 c 0.77619,-2.2519 3.7293,-20.9629 -0.95628,-20.4095 -4.68558,0.5534 -12.26844,16.031 -12.26844,16.031 0.33132,2.6611 12.44853,6.6303 13.22472,4.3785"
   inkscape:connector-curvature="0" /><path
   id="path6434"
   style="fill:#ffffff;fill-opacity:1;fill-rule:nonzero;stroke:none"
   d="m 151.16442,1695.4156 c -1.43884,-3.0703 -13.37622,-14.0812 -14.54051,-10.7035 -1.16428,3.3778 3.4221,16.878 3.4221,16.878 4.7566,2.1384 12.55735,-3.1033 11.11841,-6.1745"
   inkscape:connector-curvature="0" /><path
   id="path44"
   style="fill:#656263;fill-opacity:1;fill-rule:nonzero;stroke:none"
   d="m 84.215823,1853.4073 c 0.094,0.2473 0.18843,0.4908 0.28214,0.7362 -0.0938,-0.2454 -0.18815,-0.4889 -0.28214,-0.7362"
   inkscape:connector-curvature="0" /><path
   id="path46"
   style="fill:#656263;fill-opacity:1;fill-rule:nonzero;stroke:none"
   d="m 66.180093,1806.1371 c 0.57664,1.4266 1.15035,2.8601 1.71978,4.297 -0.56954,-1.4378 -1.14314,-2.8704 -1.71978,-4.297"
   inkscape:connector-curvature="0" /><path
   id="path48"
   style="fill:#656263;fill-opacity:1;fill-rule:nonzero;stroke:none"
   d="m 68.121273,1810.9951 c 0.56437,1.4262 1.12443,2.8557 1.68194,4.2875 -0.55751,-1.4318 -1.11757,-2.8613 -1.68194,-4.2875"
   inkscape:connector-curvature="0" /><path
   id="path50"
   style="fill:#656263;fill-opacity:1;fill-rule:nonzero;stroke:none"
   d="m 38.572903,1909.745 c -0.78913,-0.4197 -1.5774,-0.8508 -2.36407,-1.2897 0.78678,0.4398 1.57482,0.869 2.36407,1.2897"
   inkscape:connector-curvature="0" /><path
   id="path52"
   style="fill:#c8beb7;fill-opacity:1;fill-rule:nonzero;stroke:none"
   d="m 55.250483,1917.2151 c -5.36847,-1.988 -10.74755,-4.3519 -16.075,-7.1491 19.18901,10.0889 39.05457,14.5224 56.6182,16.0653 -1.2703,-0.1121 -2.55165,-0.2378 -3.84534,-0.38 0.30771,-14.7893 6.63796,-30.1091 10.553727,-37.3889 -4.028537,-4.6649 -7.869627,-10.5058 -11.301827,-17.7988 -17.21033,6.9346 -29.12952,29.4963 -35.94976,46.6515"
   inkscape:connector-curvature="0" /><path
   id="path54"
   style="fill:#656263;fill-opacity:1;fill-rule:nonzero;stroke:none"
   d="m 89.034593,1865.6388 -0.008,-0.017 -0.0325,-0.082 0.0325,0.082 0.008,0.017"
   inkscape:connector-curvature="0" /><path
   id="path56"
   style="fill:#656263;fill-opacity:1;fill-rule:nonzero;stroke:none"
   d="m 32.274913,1906.171 c -0.96048,-0.5814 -1.91845,-1.1754 -2.87319,-1.7885 0.95437,0.6132 1.91259,1.2062 2.87319,1.7885"
   inkscape:connector-curvature="0" /><path
   style="fill:#fbbf58;fill-opacity:1;fill-rule:nonzero;stroke:none"
   d="m 258.36895,1668.5502 c -9.141,-0.8286 -21.28429,17.3805 -25.23856,23.7383 -21.82001,-0.1629 -54.70196,2.1468 -76.15701,7.0379 -6.04303,-6.9875 -19.11573,-20.8437 -25.22961,-17.7408 -5.85976,2.9723 -1.34167,23.9072 1.59699,35.2644 -4.36626,15.4897 -8.3349,45.7408 -10.02643,77.5289 -7.63076,8.3617 -19.99124,22.6242 -18.52702,25.7143 1.22386,2.5822 10.33129,0.2162 17.72451,-2.1963 -0.1473,10.22 -0.012,20.2665 0.47221,29.6828 1.18389,23.0045 3.23275,42.3162 5.63444,57.597 -3.62381,-0.7869 -7.52779,-2.0667 -11.52043,-4.1257 -1.27556,8.2941 0.27648,17.5115 2.58675,25.5737 4.73242,-0.2331 9.05571,-0.6079 12.84447,-1.0581 2.39183,10.0756 4.85056,16.6088 6.94248,19.2983 0.76126,0.979 4.58563,1.3831 10.62729,1.3517 2.426,6.3804 7.2354,16.789 12.60267,16.1378 4.97052,-0.6032 8.485,-10.4564 10.35778,-17.3791 33.03596,-2.7379 83.01009,-9.5289 115.42332,-15.6858 2.90545,5.6497 6.66144,11.883 9.2301,11.9974 2.77663,0.123 5.59754,-8.4329 7.43638,-15.4879 8.45126,-1.9953 13.95756,-3.7996 15.07343,-5.2237 6.27413,-8.007 -4.84548,-76.3623 -19.00404,-127.7499 7.588,0.5185 17.14521,0.4351 17.15926,-3.3404 0.0159,-4.4351 -14.78826,-14.5393 -24.2371,-19.9434 -11.13014,-33.0194 -23.87071,-55.2388 -32.07716,-66.6754 1.8768,-11.0677 4.63498,-33.5612 -3.69472,-34.316 z m -3.39851,9.3401 c 4.02437,0.5529 1.1645,17.5758 0.41098,19.6866 -0.77785,2.1788 -12.70105,-1.5702 -13.01264,-4.1379 0,0 7.56346,-15 12.18543,-15.5608 0.14444,-0.017 0.28642,-0.01 0.41623,0.012 z m -119.0844,11.8511 c 3.3338,0.4483 11.85206,8.3643 13.03416,10.859 1.40111,2.9576 -6.31145,8.0569 -10.98824,6.0188 0,0 -4.44764,-13.0078 -3.28088,-16.276 0.18231,-0.5107 0.61759,-0.6848 1.23496,-0.6018 z m 93.85976,88.5461 c 24.78877,2.0934 38.80596,13.514 46.64296,30.0533 10.44925,22.0514 23.36003,99.9516 -46.53993,107.5701 -69.89914,7.6173 -86.36421,-56.894 -82.98853,-78.8959 3.37649,-22.0031 15.37048,-52.0437 54.33068,-57.5483 10.82667,-1.5296 20.29191,-1.877 28.55482,-1.1792 z m -114.70812,148.5063 c -1.34049,0.033 -2.69538,0.057 -4.0893,0.061 1.39545,0 2.74706,-0.027 4.0893,-0.061 z m -7.18453,0.049 c -0.93907,-0.013 -1.89058,-0.029 -2.84994,-0.057 0.95708,0.028 1.913,0.044 2.84994,0.057 z m -4.88568,-0.1358 c -0.88409,-0.036 -1.7691,-0.08 -2.6683,-0.1303 0.8993,0.05 1.78423,0.095 2.6683,0.1303 z m -4.787717,-0.2596 c -1.11024,-0.075 -2.23042,-0.1547 -3.36097,-0.2529 1.13444,0.098 2.2467,0.1774 3.36097,0.2529 z"
   id="path58"
   inkscape:connector-curvature="0" /><path
   id="path60"
   style="fill:#c8beb7;fill-opacity:1;fill-rule:nonzero;stroke:none"
   d="m 79.379323,1840.5958 c -3.06149,-8.1836 -6.23808,-16.7267 -9.53377,-25.2046 -25.65332,1.384 -56.46975,32.2232 -73.6163634,51.9097 -5.535712,-10.8755 -9.1246106,-22.6109 -10.8751556,-34.4481 19.5249736,-40.7595 49.878779,-50.872 68.828969,-53.7424 -13.93307,-27.8087 -29.60984,-45.1387 -47.1045704,-27.9543 -33.9954616,33.3921 -33.3134826,117.4419 22.2142004,153.1569 -2.00479,-1.29 -3.91888,-2.6597 -5.78182,-4.0713 12.19314,-30.6854 41.19453,-50.3619 55.86851,-59.6459"
   inkscape:connector-curvature="0" /><path
   id="path62"
   style="fill:#656263;fill-opacity:1;fill-rule:nonzero;stroke:none"
   d="m 87.598823,1862.0777 c 0.11383,0.2872 0.22912,0.578 0.34367,0.8632 -0.11455,-0.2852 -0.22984,-0.576 -0.34367,-0.8632"
   inkscape:connector-curvature="0" /><path
   id="path64"
   style="fill:#656263;fill-opacity:1;fill-rule:nonzero;stroke:none"
   d="m 86.451153,1859.1778 c 0.1292,0.3286 0.2575,0.6573 0.38644,0.9831 -0.12889,-0.3258 -0.25719,-0.6545 -0.38644,-0.9831"
   inkscape:connector-curvature="0" /><path
   id="path66"
   style="fill:#656263;fill-opacity:1;fill-rule:nonzero;stroke:none"
   d="m 85.335323,1856.3154 c 0.11935,0.3091 0.23838,0.6154 0.35839,0.9225 -0.12008,-0.3071 -0.23901,-0.6134 -0.35839,-0.9225"
   inkscape:connector-curvature="0" /><path
   id="path68"
   style="fill:#656263;fill-opacity:1;fill-rule:nonzero;stroke:none"
   d="m 35.323513,1907.957 c -0.72345,-0.4117 -1.4449,-0.834 -2.16562,-1.262 0.72084,0.429 1.44246,0.8503 2.16562,1.262"
   inkscape:connector-curvature="0" /><path
   id="path70"
   style="fill:#656263;fill-opacity:1;fill-rule:nonzero;stroke:none"
   d="m 56.365243,1783.5835 c 0.61814,1.2965 1.23335,2.6093 1.84469,3.9404 -0.61134,-1.3311 -1.22655,-2.6439 -1.84469,-3.9404"
   inkscape:connector-curvature="0" /><path
   id="path72"
   style="fill:#656263;fill-opacity:1;fill-rule:nonzero;stroke:none"
   d="m 54.185813,1779.1157 c 0.63568,1.2689 1.26679,2.5637 1.89507,3.874 -0.62828,-1.3103 -1.25939,-2.6051 -1.89507,-3.874"
   inkscape:connector-curvature="0" /><path
   id="path74"
   style="fill:#656263;fill-opacity:1;fill-rule:nonzero;stroke:none"
   d="m 62.364893,1796.9359 c 1.20721,2.8325 2.40013,5.7101 3.57894,8.6185 -1.17881,-2.9084 -2.37173,-5.786 -3.57894,-8.6185"
   inkscape:connector-curvature="0" /><path
   id="path76"
   style="fill:#656263;fill-opacity:1;fill-rule:nonzero;stroke:none"
   d="m 60.301863,1792.1746 c 0.60337,1.3678 1.20288,2.7502 1.79909,4.1443 -0.59621,-1.3941 -1.19572,-2.7765 -1.79909,-4.1443"
   inkscape:connector-curvature="0" /><path
   id="path78"
   style="fill:#656263;fill-opacity:1;fill-rule:nonzero;stroke:none"
   d="m 58.348623,1787.8297 c 0.59782,1.3065 1.19279,2.6283 1.78388,3.9647 -0.59109,-1.3364 -1.18606,-2.6582 -1.78388,-3.9647"
   inkscape:connector-curvature="0" /><path
   id="path80"
   style="fill:#ffffff;fill-opacity:1;fill-rule:nonzero;stroke:none"
   d="m 229.5909,1915.7462 c 69.89996,-7.6184 56.9929,-85.5136 46.54365,-107.565 -10.44935,-22.0523 -31.88557,-34.998 -75.19227,-28.8795 -38.9602,5.5045 -50.96285,35.5498 -54.33934,57.5528 -3.37567,22.002 13.08881,86.5091 82.98796,78.8917"
   inkscape:connector-curvature="0" /><path
   id="path86"
   style="fill:#393536;fill-opacity:1;fill-rule:nonzero;stroke:none"
   d="m 175.44336,1747.216 c 3.82847,-0.4646 6.55635,-3.9449 6.09167,-7.7743 -0.46467,-3.8293 -3.94574,-6.5562 -7.77421,-6.0916 -3.82939,0.4646 -6.55728,3.9449 -6.0926,7.7743 0.46467,3.8294 3.94575,6.5562 7.77514,6.0916"
   inkscape:connector-curvature="0" /><path
   id="path88"
   style="fill:#393536;fill-opacity:1;fill-rule:nonzero;stroke:none"
   d="m 236.3011,1739.8312 c 3.8294,-0.4646 6.55636,-3.9448 6.09168,-7.7742 -0.46467,-3.8294 -3.94483,-6.5563 -7.77422,-6.0916 -3.82939,0.4646 -6.55635,3.9448 -6.09168,7.7742 0.46467,3.8294 3.94483,6.5563 7.77422,6.0916"
   inkscape:connector-curvature="0" /><path
   id="path90"
   style="fill:#393536;fill-opacity:1;fill-rule:nonzero;stroke:none"
   d="m 192.47461,1750.9606 c 0.40162,5.643 9.07959,11.0663 15.16248,10.3282 7.70328,-0.9347 12.53473,-6.211 11.78693,-12.3737 -0.74779,-6.1626 -19.79662,-8.5421 -25.30574,-2.4009 l -0.16693,0.2055 c -1.143,1.3634 -1.57813,2.8084 -1.47674,4.2409"
   inkscape:connector-curvature="0" /><path
   id="path92"
   style="fill:#ffd42a;fill-opacity:1;fill-rule:nonzero;stroke:none"
   d="m 255.12695,1697.4202 c 0.77783,-2.1789 3.79448,-20.2637 -0.82749,-19.7029 -4.62197,0.5609 -12.18417,15.5495 -12.18417,15.5495 0.31159,2.5678 12.23381,6.3322 13.01166,4.1534"
   inkscape:connector-curvature="0" /><path
   id="path94"
   style="fill:#ffcc00;fill-opacity:1;fill-rule:nonzero;stroke:none"
   d="m 148.66099,1700.4371 c -1.40101,-2.9567 -13.10623,-13.522 -14.273,-10.2537 -1.16676,3.2682 3.27811,16.2788 3.27811,16.2788 4.67678,2.038 12.396,-3.0675 10.99489,-6.0251"
   inkscape:connector-curvature="0" /><path
   id="path112"
   style="fill:#fbbf58;fill-opacity:1;fill-rule:nonzero;stroke:none"
   d="m 29.401723,1904.3825 c 0.95474,0.6131 1.91271,1.2071 2.87319,1.7885 0.29378,0.1769 0.58877,0.349 0.88298,0.524 0.72072,0.428 1.44217,0.8503 2.16562,1.262 0.2948,0.1674 0.59002,0.3329 0.88532,0.4983 0.78667,0.4389 1.57494,0.87 2.36407,1.2897 0.20105,0.1063 0.40167,0.2156 0.60258,0.321 5.32745,2.7972 10.70653,5.1611 16.075,7.1491 6.82023,-17.1552 18.73944,-39.7169 35.94976,-46.6515 l 0.005,0 c -0.74242,-1.5758 -1.46901,-3.2071 -2.17005,-4.9224 l -0.008,-0.017 -0.0325,-0.082 c -0.34902,-0.8531 -0.69985,-1.7211 -1.05192,-2.5993 -0.11456,-0.2852 -0.22984,-0.576 -0.34367,-0.8632 -0.25384,-0.6342 -0.50701,-1.2713 -0.76123,-1.9168 -0.12888,-0.3258 -0.25719,-0.6545 -0.38644,-0.9831 -0.25195,-0.642 -0.50428,-1.2877 -0.75744,-1.9399 -0.12008,-0.3071 -0.23901,-0.6134 -0.3584,-0.9225 -0.27807,-0.7178 -0.5569,-1.4422 -0.83734,-2.1719 -0.0937,-0.2455 -0.18815,-0.4889 -0.28214,-0.7362 -1.57899,-4.1212 -3.19004,-8.4135 -4.83649,-12.8115 -14.67399,9.284 -43.67538,28.9605 -55.86851,59.6459 1.86292,1.4116 3.77702,2.7813 5.78181,4.0713 l 0.032,0.022 0.0771,0.048"
   inkscape:connector-curvature="0" /><path
   id="path114"
   style="fill:#fbbf58;fill-opacity:1;fill-rule:nonzero;stroke:none"
   d="m -14.645966,1832.8528 c 1.750545,11.8372 5.3394436,23.5726 10.8751556,34.4481 17.1466134,-19.6865 47.9630434,-50.5257 73.6163634,-51.9097 v 0 l -0.0424,-0.1086 c -0.55751,-1.4318 -1.11757,-2.8613 -1.68194,-4.2875 -0.0734,-0.1867 -0.14693,-0.3735 -0.22138,-0.561 -0.56942,-1.4369 -1.14314,-2.8704 -1.71979,-4.297 -0.0782,-0.1946 -0.15718,-0.3882 -0.23625,-0.5827 -1.17881,-2.9084 -2.37173,-5.786 -3.57894,-8.6185 -0.088,-0.2056 -0.17504,-0.4114 -0.26392,-0.617 -0.5962,-1.3941 -1.1957,-2.7765 -1.79908,-4.1443 -0.0569,-0.1277 -0.11347,-0.2534 -0.16935,-0.3802 -0.59109,-1.3364 -1.18606,-2.6583 -1.78387,-3.9647 -0.0462,-0.1016 -0.0925,-0.2042 -0.13875,-0.3058 -0.61133,-1.3311 -1.22654,-2.6439 -1.84468,-3.9404 -0.0948,-0.1992 -0.18964,-0.3965 -0.28437,-0.5938 -0.62827,-1.3103 -1.25938,-2.6051 -1.89506,-3.874 l -0.002,-0.01 c -18.95019,2.8704 -49.3039984,12.9829 -68.828964,53.7424"
   inkscape:connector-curvature="0" /><path
   id="path116"
   style="fill:#fbbf58;fill-opacity:1;fill-rule:nonzero;stroke:none"
   d="m 95.793683,1926.1313 0.16165,0.014 c 9.044447,0.7847 17.462407,0.8017 24.870607,0.4352 -2.31024,-8.0622 -3.86063,-17.2964 -2.58509,-25.5906 l 0.003,-0.016 c -5.24897,-2.707 -10.64161,-6.7144 -15.73914,-12.6154 l -0.001,0 c -3.915777,7.2797 -10.246017,22.5995 -10.553727,37.3889 1.29369,0.1421 2.57504,0.2679 3.84534,0.3799"
   inkscape:connector-curvature="0" /><path
   style="fill:none;stroke:#000000;stroke-width:2.10102439;stroke-linecap:butt;stroke-linejoin:miter;stroke-miterlimit:4;stroke-opacity:1;stroke-dasharray:none"
   d="m 253.75515,1738.1012 40.66221,-15.2877"
   id="path5178"
   inkscape:connector-curvature="0" /><path
   style="fill:none;stroke:#000000;stroke-width:2.10102439;stroke-linecap:butt;stroke-linejoin:miter;stroke-miterlimit:4;stroke-opacity:1;stroke-dasharray:none"
   d="m 254.48709,1742.5402 45.56647,-8.318"
   id="path5180"
   inkscape:connector-curvature="0" /><path
   style="fill:none;stroke:#000000;stroke-width:2.10102439;stroke-linecap:butt;stroke-linejoin:miter;stroke-miterlimit:4;stroke-opacity:1;stroke-dasharray:none"
   d="m 256.9029,1748.0885 42.5751,-1.7475"
   id="path5182"
   inkscape:connector-curvature="0" /><path
   inkscape:connector-curvature="0"
   id="path5184"
   d="m 151.94692,1758.4135 -43.43145,0.9158"
   style="fill:none;stroke:#000000;stroke-width:2.10102439;stroke-linecap:butt;stroke-linejoin:miter;stroke-miterlimit:4;stroke-opacity:1;stroke-dasharray:none" /><path
   inkscape:connector-curvature="0"
   id="path5186"
   d="m 152.73074,1753.9834 -45.74267,-7.2871"
   style="fill:none;stroke:#000000;stroke-width:2.10102439;stroke-linecap:butt;stroke-linejoin:miter;stroke-miterlimit:4;stroke-opacity:1;stroke-dasharray:none" /><path
   inkscape:connector-curvature="0"
   id="path5188"
   d="m 152.29469,1747.9477 -40.73897,-12.4912"
   style="fill:none;stroke:#000000;stroke-width:2.10102439;stroke-linecap:butt;stroke-linejoin:miter;stroke-miterlimit:4;stroke-opacity:1;stroke-dasharray:none" /><path
   inkscape:connector-curvature="0"
   d="m 84.215823,1853.4073 c 0.094,0.2473 0.18843,0.4908 0.28214,0.7362 -0.0938,-0.2454 -0.18815,-0.4889 -0.28214,-0.7362"
   style="fill:#656263;fill-opacity:1;fill-rule:nonzero;stroke:none"
   id="path5229" /><path
   inkscape:connector-curvature="0"
   d="m 66.180093,1806.1371 c 0.57664,1.4266 1.15035,2.8601 1.71978,4.297 -0.56954,-1.4378 -1.14314,-2.8704 -1.71978,-4.297"
   style="fill:#656263;fill-opacity:1;fill-rule:nonzero;stroke:none"
   id="path5231" /><path
   inkscape:connector-curvature="0"
   d="m 68.121273,1810.9951 c 0.56437,1.4262 1.12443,2.8557 1.68194,4.2875 -0.55751,-1.4318 -1.11757,-2.8613 -1.68194,-4.2875"
   style="fill:#656263;fill-opacity:1;fill-rule:nonzero;stroke:none"
   id="path5233" /><path
   inkscape:connector-curvature="0"
   d="m 38.572903,1909.745 c -0.78913,-0.4197 -1.5774,-0.8508 -2.36407,-1.2897 0.78678,0.4398 1.57482,0.869 2.36407,1.2897"
   style="fill:#656263;fill-opacity:1;fill-rule:nonzero;stroke:none"
   id="path5235" /><path
   inkscape:connector-curvature="0"
   d="m 89.034593,1865.6388 -0.008,-0.017 -0.0325,-0.082 0.0325,0.082 0.008,0.017"
   style="fill:#656263;fill-opacity:1;fill-rule:nonzero;stroke:none"
   id="path5239" /><path
   inkscape:connector-curvature="0"
   d="m 32.274913,1906.171 c -0.96048,-0.5814 -1.91845,-1.1754 -2.87319,-1.7885 0.95437,0.6132 1.91259,1.2062 2.87319,1.7885"
   style="fill:#656263;fill-opacity:1;fill-rule:nonzero;stroke:none"
   id="path5241" /><path
   inkscape:connector-curvature="0"
   id="path5243"
   d="m 258.36895,1668.5502 c -9.141,-0.8286 -21.28429,17.3805 -25.23856,23.7383 -21.82001,-0.1629 -54.70196,2.1468 -76.15701,7.0379 -6.04303,-6.9875 -19.11573,-20.8437 -25.22961,-17.7408 -5.85976,2.9723 -1.34167,23.9072 1.59699,35.2644 -4.36626,15.4897 -8.3349,45.7408 -10.02643,77.5289 -7.63076,8.3617 -19.99124,22.6242 -18.52702,25.7143 1.22386,2.5822 10.33129,0.2162 17.72451,-2.1963 -0.1473,10.22 -0.012,20.2665 0.47221,29.6828 1.18389,23.0045 3.23275,42.3162 5.63444,57.597 -3.62381,-0.7869 -7.52779,-2.0667 -11.52043,-4.1257 -1.27556,8.2941 0.27648,17.5115 2.58675,25.5737 4.73242,-0.2331 9.05571,-0.6079 12.84447,-1.0581 2.39183,10.0756 4.85056,16.6088 6.94248,19.2983 0.76126,0.979 4.58563,1.3831 10.62729,1.3517 2.426,6.3804 7.2354,16.789 12.60267,16.1378 4.97052,-0.6032 8.485,-10.4564 10.35778,-17.3791 33.03596,-2.7379 83.01009,-9.5289 115.42332,-15.6858 2.90545,5.6497 6.66144,11.883 9.2301,11.9974 2.77663,0.123 5.59754,-8.4329 7.43638,-15.4879 8.45126,-1.9953 13.95756,-3.7996 15.07343,-5.2237 6.27413,-8.007 -4.84548,-76.3623 -19.00404,-127.7499 7.588,0.5185 17.14521,0.4351 17.15926,-3.3404 0.0159,-4.4351 -14.78826,-14.5393 -24.2371,-19.9434 -11.13014,-33.0194 -23.87071,-55.2388 -32.07716,-66.6754 1.8768,-11.0677 4.63498,-33.5612 -3.69472,-34.316 z m -3.39851,9.3401 c 4.02437,0.5529 1.1645,17.5758 0.41098,19.6866 -0.77785,2.1788 -12.70105,-1.5702 -13.01264,-4.1379 0,0 7.56346,-15 12.18543,-15.5608 0.14444,-0.017 0.28642,-0.01 0.41623,0.012 z m -119.0844,11.8511 c 3.3338,0.4483 11.85206,8.3643 13.03416,10.859 1.40111,2.9576 -6.31145,8.0569 -10.98824,6.0188 0,0 -4.44764,-13.0078 -3.28088,-16.276 0.18231,-0.5107 0.61759,-0.6848 1.23496,-0.6018 z m 93.85976,88.5461 c 24.78877,2.0934 38.80596,13.514 46.64296,30.0533 10.44925,22.0514 23.36003,99.9516 -46.53993,107.5701 -69.89914,7.6173 -86.36421,-56.894 -82.98853,-78.8959 3.37649,-22.0031 15.37048,-52.0437 54.33068,-57.5483 10.82667,-1.5296 20.29191,-1.877 28.55482,-1.1792 z m -114.70812,148.5063 c -1.34049,0.033 -2.69538,0.057 -4.0893,0.061 1.39545,0 2.74706,-0.027 4.0893,-0.061 z m -7.18453,0.049 c -0.93907,-0.013 -1.89058,-0.029 -2.84994,-0.057 0.95708,0.028 1.913,0.044 2.84994,0.057 z m -4.88568,-0.1358 c -0.88409,-0.036 -1.7691,-0.08 -2.6683,-0.1303 0.8993,0.05 1.78423,0.095 2.6683,0.1303 z m -4.787717,-0.2596 c -1.11024,-0.075 -2.23042,-0.1547 -3.36097,-0.2529 1.13444,0.098 2.2467,0.1774 3.36097,0.2529 z"
   style="fill:#fbbf58;fill-opacity:1;fill-rule:nonzero;stroke:none" /><path
   inkscape:connector-curvature="0"
   d="m 87.598823,1862.0777 c 0.11383,0.2872 0.22912,0.578 0.34367,0.8632 -0.11455,-0.2852 -0.22984,-0.576 -0.34367,-0.8632"
   style="fill:#656263;fill-opacity:1;fill-rule:nonzero;stroke:none"
   id="path5247" /><path
   inkscape:connector-curvature="0"
   d="m 86.451153,1859.1778 c 0.1292,0.3286 0.2575,0.6573 0.38644,0.9831 -0.12889,-0.3258 -0.25719,-0.6545 -0.38644,-0.9831"
   style="fill:#656263;fill-opacity:1;fill-rule:nonzero;stroke:none"
   id="path5249" /><path
   inkscape:connector-curvature="0"
   d="m 85.335323,1856.3154 c 0.11935,0.3091 0.23838,0.6154 0.35839,0.9225 -0.12008,-0.3071 -0.23901,-0.6134 -0.35839,-0.9225"
   style="fill:#656263;fill-opacity:1;fill-rule:nonzero;stroke:none"
   id="path5251" /><path
   inkscape:connector-curvature="0"
   d="m 35.323513,1907.957 c -0.72345,-0.4117 -1.4449,-0.834 -2.16562,-1.262 0.72084,0.429 1.44246,0.8503 2.16562,1.262"
   style="fill:#656263;fill-opacity:1;fill-rule:nonzero;stroke:none"
   id="path5253" /><path
   inkscape:connector-curvature="0"
   d="m 56.365243,1783.5835 c 0.61814,1.2965 1.23335,2.6093 1.84469,3.9404 -0.61134,-1.3311 -1.22655,-2.6439 -1.84469,-3.9404"
   style="fill:#656263;fill-opacity:1;fill-rule:nonzero;stroke:none"
   id="path5255" /><path
   inkscape:connector-curvature="0"
   d="m 54.185813,1779.1157 c 0.63568,1.2689 1.26679,2.5637 1.89507,3.874 -0.62828,-1.3103 -1.25939,-2.6051 -1.89507,-3.874"
   style="fill:#656263;fill-opacity:1;fill-rule:nonzero;stroke:none"
   id="path5257" /><path
   inkscape:connector-curvature="0"
   d="m 62.364893,1796.9359 c 1.20721,2.8325 2.40013,5.7101 3.57894,8.6185 -1.17881,-2.9084 -2.37173,-5.786 -3.57894,-8.6185"
   style="fill:#656263;fill-opacity:1;fill-rule:nonzero;stroke:none"
   id="path5259" /><path
   inkscape:connector-curvature="0"
   d="m 60.301863,1792.1746 c 0.60337,1.3678 1.20288,2.7502 1.79909,4.1443 -0.59621,-1.3941 -1.19572,-2.7765 -1.79909,-4.1443"
   style="fill:#656263;fill-opacity:1;fill-rule:nonzero;stroke:none"
   id="path5261" /><path
   inkscape:connector-curvature="0"
   d="m 58.348623,1787.8297 c 0.59782,1.3065 1.19279,2.6283 1.78388,3.9647 -0.59109,-1.3364 -1.18606,-2.6582 -1.78388,-3.9647"
   style="fill:#656263;fill-opacity:1;fill-rule:nonzero;stroke:none"
   id="path5263" /><path
   inkscape:connector-curvature="0"
   d="m 229.5909,1915.7462 c 69.89996,-7.6184 56.9929,-85.5136 46.54365,-107.565 -10.44935,-22.0523 -31.88557,-34.998 -75.19227,-28.8795 -38.9602,5.5045 -50.96285,35.5498 -54.33934,57.5528 -3.37567,22.002 13.08881,86.5091 82.98796,78.8917"
   style="fill:#ffffff;fill-opacity:1;fill-rule:nonzero;stroke:none"
   id="path5265" /><path
   inkscape:connector-curvature="0"
   d="m 175.44336,1747.216 c 3.82847,-0.4646 6.55635,-3.9449 6.09167,-7.7743 -0.46467,-3.8293 -3.94574,-6.5562 -7.77421,-6.0916 -3.82939,0.4646 -6.55728,3.9449 -6.0926,7.7743 0.46467,3.8294 3.94575,6.5562 7.77514,6.0916"
   style="fill:#393536;fill-opacity:1;fill-rule:nonzero;stroke:none"
   id="path5267" /><path
   inkscape:connector-curvature="0"
   d="m 236.3011,1739.8312 c 3.8294,-0.4646 6.55636,-3.9448 6.09168,-7.7742 -0.46467,-3.8294 -3.94483,-6.5563 -7.77422,-6.0916 -3.82939,0.4646 -6.55635,3.9448 -6.09168,7.7742 0.46467,3.8294 3.94483,6.5563 7.77422,6.0916"
   style="fill:#393536;fill-opacity:1;fill-rule:nonzero;stroke:none"
   id="path5269" /><path
   inkscape:connector-curvature="0"
   d="m 192.47461,1750.9606 c 0.40162,5.643 9.07959,11.0663 15.16248,10.3282 7.70328,-0.9347 12.53473,-6.211 11.78693,-12.3737 -0.74779,-6.1626 -19.79662,-8.5421 -25.30574,-2.4009 l -0.16693,0.2055 c -1.143,1.3634 -1.57813,2.8084 -1.47674,4.2409"
   style="fill:#393536;fill-opacity:1;fill-rule:nonzero;stroke:none"
   id="path5271" /><path
   inkscape:connector-curvature="0"
   d="m 255.12695,1697.4202 c 0.77783,-2.1789 3.79448,-20.2637 -0.82749,-19.7029 -4.62197,0.5609 -12.18417,15.5495 -12.18417,15.5495 0.31159,2.5678 12.23381,6.3322 13.01166,4.1534"
   style="fill:#ffd42a;fill-opacity:1;fill-rule:nonzero;stroke:none"
   id="path5273" /><path
   inkscape:connector-curvature="0"
   d="m 148.66099,1700.4371 c -1.40101,-2.9567 -13.10623,-13.522 -14.273,-10.2537 -1.16676,3.2682 3.27811,16.2788 3.27811,16.2788 4.67678,2.038 12.396,-3.0675 10.99489,-6.0251"
   style="fill:#ffcc00;fill-opacity:1;fill-rule:nonzero;stroke:none"
   id="path5275" /><path
   inkscape:connector-curvature="0"
   d="m 29.401723,1904.3825 c 0.95474,0.6131 1.91271,1.2071 2.87319,1.7885 0.29378,0.1769 0.58877,0.349 0.88298,0.524 0.72072,0.428 1.44217,0.8503 2.16562,1.262 0.2948,0.1674 0.59002,0.3329 0.88532,0.4983 0.78667,0.4389 1.57494,0.87 2.36407,1.2897 0.20105,0.1063 0.40167,0.2156 0.60258,0.321 5.32745,2.7972 10.70653,5.1611 16.075,7.1491 6.82023,-17.1552 18.73944,-39.7169 35.94976,-46.6515 l 0.005,0 c -0.74242,-1.5758 -1.46901,-3.2071 -2.17005,-4.9224 l -0.008,-0.017 -0.0325,-0.082 c -0.34902,-0.8531 -0.69985,-1.7211 -1.05192,-2.5993 -0.11456,-0.2852 -0.22984,-0.576 -0.34367,-0.8632 -0.25384,-0.6342 -0.50701,-1.2713 -0.76123,-1.9168 -0.12888,-0.3258 -0.25719,-0.6545 -0.38644,-0.9831 -0.25195,-0.642 -0.50428,-1.2877 -0.75744,-1.9399 -0.12008,-0.3071 -0.23901,-0.6134 -0.3584,-0.9225 -0.27807,-0.7178 -0.5569,-1.4422 -0.83734,-2.1719 -0.0937,-0.2455 -0.18815,-0.4889 -0.28214,-0.7362 -1.57899,-4.1212 -3.19004,-8.4135 -4.83649,-12.8115 -14.67399,9.284 -43.67538,28.9605 -55.86851,59.6459 1.86292,1.4116 3.77702,2.7813 5.78181,4.0713 l 0.032,0.022 0.0771,0.048"
   style="fill:#fbbf58;fill-opacity:1;fill-rule:nonzero;stroke:none"
   id="path5277" /><path
   inkscape:connector-curvature="0"
   d="m -14.645966,1832.8528 c 1.750545,11.8372 5.3394436,23.5726 10.8751556,34.4481 17.1466134,-19.6865 47.9630434,-50.5257 73.6163634,-51.9097 v 0 l -0.0424,-0.1086 c -0.55751,-1.4318 -1.11757,-2.8613 -1.68194,-4.2875 -0.0734,-0.1867 -0.14693,-0.3735 -0.22138,-0.561 -0.56942,-1.4369 -1.14314,-2.8704 -1.71979,-4.297 -0.0782,-0.1946 -0.15718,-0.3882 -0.23625,-0.5827 -1.17881,-2.9084 -2.37173,-5.786 -3.57894,-8.6185 -0.088,-0.2056 -0.17504,-0.4114 -0.26392,-0.617 -0.5962,-1.3941 -1.1957,-2.7765 -1.79908,-4.1443 -0.0569,-0.1277 -0.11347,-0.2534 -0.16935,-0.3802 -0.59109,-1.3364 -1.18606,-2.6583 -1.78387,-3.9647 -0.0462,-0.1016 -0.0925,-0.2042 -0.13875,-0.3058 -0.61133,-1.3311 -1.22654,-2.6439 -1.84468,-3.9404 -0.0948,-0.1992 -0.18964,-0.3965 -0.28437,-0.5938 -0.62827,-1.3103 -1.25938,-2.6051 -1.89506,-3.874 l -0.002,-0.01 c -18.95019,2.8704 -49.3039984,12.9829 -68.828964,53.7424"
   style="fill:#fbbf58;fill-opacity:1;fill-rule:nonzero;stroke:none"
   id="path5279" /><path
   inkscape:connector-curvature="0"
   d="m 95.793683,1926.1313 0.16165,0.014 c 9.044447,0.7847 17.462407,0.8017 24.870607,0.4352 -2.31024,-8.0622 -3.86063,-17.2964 -2.58509,-25.5906 l 0.003,-0.016 c -5.24897,-2.707 -10.64161,-6.7144 -15.73914,-12.6154 l -0.001,0 c -3.915777,7.2797 -10.246017,22.5995 -10.553727,37.3889 1.29369,0.1421 2.57504,0.2679 3.84534,0.3799"
   style="fill:#fbbf58;fill-opacity:1;fill-rule:nonzero;stroke:none"
   id="path5281" /><path
   inkscape:connector-curvature="0"
   id="path5283"
   d="m 253.75515,1738.1012 40.66221,-15.2877"
   style="fill:#ffffff;fill-opacity:1;stroke:#ffffff;stroke-width:3;stroke-linecap:butt;stroke-linejoin:miter;stroke-miterlimit:4;stroke-opacity:1;stroke-dasharray:none" /><path
   inkscape:connector-curvature="0"
   id="path5285"
   d="m 254.48709,1742.5402 45.56647,-8.318"
   style="fill:#656263;fill-opacity:1;stroke:#ffffff;stroke-width:3;stroke-linecap:butt;stroke-linejoin:miter;stroke-miterlimit:4;stroke-opacity:1;stroke-dasharray:none" /><path
   inkscape:connector-curvature="0"
   id="path5287"
   d="m 256.9029,1748.0885 42.5751,-1.7475"
   style="fill:#ffffff;fill-opacity:1;stroke:#ffffff;stroke-width:3;stroke-linecap:butt;stroke-linejoin:miter;stroke-miterlimit:4;stroke-opacity:1;stroke-dasharray:none" /><path
   style="fill:#656263;fill-opacity:1;stroke:#ffffff;stroke-width:3;stroke-linecap:butt;stroke-linejoin:miter;stroke-miterlimit:4;stroke-opacity:1;stroke-dasharray:none"
   d="m 151.94692,1758.4135 -43.43145,0.9158"
   id="path5289"
   inkscape:connector-curvature="0" /><path
   style="fill:#656263;fill-opacity:1;stroke:#ffffff;stroke-width:3;stroke-linecap:butt;stroke-linejoin:miter;stroke-miterlimit:4;stroke-opacity:1;stroke-dasharray:none"
   d="m 152.73074,1753.9834 -45.74267,-7.2871"
   id="path5291"
   inkscape:connector-curvature="0" /><path
   style="fill:#656263;fill-opacity:1;stroke:#ffffff;stroke-width:3;stroke-linecap:butt;stroke-linejoin:miter;stroke-miterlimit:4;stroke-opacity:1;stroke-dasharray:none"
   d="m 152.29469,1747.9477 -40.73897,-12.4912"
   id="path5293"
   inkscape:connector-curvature="0" />
<path
   id="path6614"
   style="fill:#ffd42a;fill-opacity:1;fill-rule:nonzero;stroke:none"
   d="m 228.186,1284.8454 c 1.90337,-2.0734 14.0487,-21.1917 8.86247,-23.1116 -5.18624,-1.9199 -20.62854,11.1163 -20.62854,11.1163 -0.93858,3.1251 9.86268,14.0687 11.76607,11.9953"
   inkscape:connector-curvature="0"
   inkscape:transform-center-x="-11.806104"
   inkscape:transform-center-y="10.158033" /><path
   inkscape:transform-center-y="-2.328202"
   inkscape:transform-center-x="15.180409"
   inkscape:connector-curvature="0"
   d="m 100.01725,1242.1579 c -0.156347,-2.8102 2.58073,-25.2942 7.80795,-23.4889 5.22723,1.8054 8.89682,21.6785 8.89682,21.6785 -1.25659,3.0113 -16.54842,4.6206 -16.70478,1.8104"
   style="fill:#ffd42a;fill-opacity:1;fill-rule:nonzero;stroke:none"
   id="path6616" /><g
   inkscape:groupmode="layer"
   id="layer3"
   inkscape:label=""
   style="display:none"
   transform="translate(0,-793.00003)" /><g
   inkscape:groupmode="layer"
   id="layer4"
   inkscape:label="#1"
   style="display:inline"
   transform="translate(0,-793.00003)" /><path
   sodipodi:type="arc"
   style="fill:#d40000;fill-opacity:0"
   id="path12472"
   sodipodi:cx="1889.8927"
   sodipodi:cy="1019.7456"
   sodipodi:rx="169.82549"
   sodipodi:ry="169.82549"
   d="m 2059.7182,1019.7456 a 169.82549,169.82549 0 1 1 -0.015,-2.267 l -169.8104,2.267 z"
   transform="translate(0,-793.00004)"
   sodipodi:start="0"
   sodipodi:end="6.2698357" /><path
   sodipodi:type="arc"
   style="fill:#dddd00;fill-opacity:0"
   id="path12474"
   sodipodi:cx="1305.6307"
   sodipodi:cy="904.45123"
   sodipodi:rx="124.64256"
   sodipodi:ry="132.43271"
   d="m 1430.2733,904.45123 a 124.64256,132.43271 0 1 1 -0.011,-1.76787 l -124.6315,1.76787 z"
   transform="translate(0,-793.00004)"
   sodipodi:start="0"
   sodipodi:end="6.2698357" /><flowRoot
   xml:space="preserve"
   id="flowRoot12579"
   style="font-size:40px;font-style:normal;font-weight:normal;line-height:125%;letter-spacing:0px;word-spacing:0px;fill:#000000;fill-opacity:1;stroke:none;font-family:sans-serif"
   transform="translate(0,-793.00004)"><flowRegion
     id="flowRegion12581"><rect
       id="rect12583"
       width="1124.899"
       height="994.02435"
       x="697.99829"
       y="535.19769" /></flowRegion><flowPara
     id="flowPara12585"></flowPara></flowRoot><g
   id="g12542"
   transform="matrix(3.4863944,0,0,3.4863944,1978.7852,-673.71295)"><path
     transform="matrix(0.95993017,0,0,0.96100059,-110.87084,18.047505)"
     sodipodi:end="6.2827944"
     sodipodi:start="0"
     d="m 107.75862,39.511494 c 0,19.57331 -15.867302,35.440612 -35.440612,35.440612 -19.57331,0 -35.440612,-15.867302 -35.440612,-35.440612 0,-19.57331 15.867302,-35.4406131 35.440612,-35.4406131 19.5679,0 35.432962,15.8588601 35.440612,35.4267591 l -35.440612,0.01385 z"
     sodipodi:ry="35.440613"
     sodipodi:rx="35.440613"
     sodipodi:cy="39.511494"
     sodipodi:cx="72.318008"
     id="path11037"
     style="fill:#656263;fill-opacity:1;stroke:#656263;stroke-width:2;stroke-miterlimit:4;stroke-opacity:1;stroke-dasharray:none"
     sodipodi:type="arc" /><path
     id="path12327"
     d="m -41.459911,21.970786 c -18.789011,0 -34.017525,15.245496 -34.017525,34.055458 0,0.749894 0.04231,1.484482 0.08999,2.222314 4.118944,1.897936 9.760253,4.049466 10.349247,3.54369 0.05837,-0.04743 10.003921,-8.682118 11.069195,-7.928255 3.118534,2.2068 -2.519148,14.295573 -2.519817,14.294884 1.712475,6.65061 0.794062,12.687818 -1.889862,17.388104 4.98812,2.872869 10.751011,4.534721 16.918769,4.534721 18.789011,0 34.0175255,-15.245495 34.0175255,-34.055458 l 0,-0.24025 C -7.5763005,37.071722 -22.766004,21.970786 -41.459911,21.970786 z"
     style="fill:#fbbf58;fill-opacity:1;stroke:#656263;stroke-width:0.96046525;stroke-opacity:1"
     inkscape:connector-curvature="0" /><g
     transform="matrix(0.95993017,0,0,0.96100059,-22.831266,19.658378)"
     id="text12329"
     style="font-size:13.69093227px;font-style:normal;font-weight:normal;line-height:125%;letter-spacing:0px;word-spacing:0px;fill:#656263;fill-opacity:1;stroke:none;font-family:sans-serif"><path
       id="path12397"
       style="font-variant:normal;font-stretch:normal;text-align:start;line-height:125%;writing-mode:lr-tb;text-anchor:start;fill:#656263;font-family:FZHanZhenGuangBiaoS-GB;-inkscape-font-specification:FZHanZhenGuangBiaoS-GB"
       d="m -4.6385073,31.459822 0,6.578066 -7.8615897,0 0,-6.631546 c -6e-6,-1.176558 0.606103,-1.76484 1.818327,-1.764847 l 4.2249358,0 c 1.2122052,7e-6 1.8183136,0.606115 1.8183269,1.818327 z m -8.5033527,-4.278416 0,10.856482 -4.224936,0 0,-10.856482 c -0.03565,-1.283514 0.516974,-1.90745 1.657886,-1.871807 l 0.855684,0 c 1.140906,-0.03564 1.711361,0.588293 1.711366,1.871807 z m 0.374362,0.695243 0,-1.818327 1.069604,0 0,-0.855683 2.2461683,0 0,0.855683 1.7113666,0 0,-0.855683 2.2461686,0 0,0.855683 1.0161238,0 0,1.818327 -1.0161238,0 0,1.069604 -2.2461686,0 0,-0.427842 c -1.02e-5,-0.427833 -0.3208911,-0.641754 -0.9626437,-0.641762 l -0.7487229,0 0,1.069604 -2.2461683,0 0,-0.374362 c -6e-6,-0.463487 -0.267407,-0.695234 -0.802203,-0.695242 z m -2.941412,-0.695243 0,9.091635 0.855684,0 0,-8.556833 c -3e-6,-0.356526 -0.12479,-0.534793 -0.374362,-0.534802 z m 6.0432635,5.829342 0,-0.962643 c 0.035645,-0.427837 -0.1604487,-0.641758 -0.5882825,-0.641763 l -0.427841,0 0,1.604406 z m 0,3.262293 0,-0.855683 c 0.035645,-0.427841 -0.1604487,-0.641761 -0.5882825,-0.641763 l -0.427841,0 0,1.497446 z m 2.1926884,-4.866699 0,1.604406 1.0161239,0 0,-0.962643 c -1.15e-5,-0.427837 -0.2317588,-0.641758 -0.6952427,-0.641763 z m 0,3.369253 0,1.497446 1.0161239,0 0,-0.802203 c -1.15e-5,-0.463494 -0.2317588,-0.695241 -0.6952427,-0.695243 z"
       inkscape:connector-curvature="0" /><path
       id="path12399"
       style="font-variant:normal;font-stretch:normal;text-align:start;line-height:125%;writing-mode:lr-tb;text-anchor:start;fill:#656263;font-family:FZHanZhenGuangBiaoS-GB;-inkscape-font-specification:FZHanZhenGuangBiaoS-GB"
       d="m 5.6296919,30.176297 0,0.374362 c -9.9e-6,1.426143 -0.5169847,2.139212 -1.5509259,2.139208 -0.4278495,4e-6 -0.8556908,-0.106957 -1.2835249,-0.320881 -0.570462,-0.356531 -1.0517834,-0.534798 -1.4439655,-0.534802 -0.35653996,0.03566 -0.55263385,0.231752 -0.58828226,0.588282 l 0,0.267401 -1.23004469,0 0,-0.320881 c -3.8e-6,-1.426134 0.55262442,-2.139202 1.65788635,-2.139208 0.2495686,6e-6 0.6061029,0.08914 1.0696041,0.267401 0.7487155,0.392193 1.2300369,0.588287 1.4439655,0.588282 0.4634866,5e-6 0.695234,-0.196089 0.6952426,-0.588282 l 0,-0.320882 z"
       inkscape:connector-curvature="0" /></g></g><g
   id="layer1"
   inkscape:label=""
   style="display:none"
   transform="matrix(7.3865926,0,0,7.3865926,1712.3145,-614.85285)" /><g
   id="layer2"
   inkscape:label="#1"
   style="display:inline"
   transform="matrix(7.3865926,0,0,7.3865926,1712.3145,-614.85285)" /><g
   id="g12413"
   transform="matrix(3.3485662,0,0,3.3504018,1967.3299,-617.30477)"><path
     sodipodi:type="arc"
     style="fill:#656263;fill-opacity:1;stroke:#656263;stroke-width:2;stroke-miterlimit:4;stroke-opacity:1;stroke-dasharray:none"
     id="path12359"
     sodipodi:cx="72.318008"
     sodipodi:cy="39.511494"
     sodipodi:rx="35.440613"
     sodipodi:ry="35.440613"
     d="m 107.75862,39.511494 c 0,19.57331 -15.867302,35.440612 -35.440612,35.440612 -19.57331,0 -35.440612,-15.867302 -35.440612,-35.440612 0,-19.57331 15.867302,-35.4406131 35.440612,-35.4406131 19.5679,0 35.432962,15.8588601 35.440612,35.4267591 l -35.440612,0.01385 z"
     sodipodi:start="0"
     sodipodi:end="6.2827944"
     transform="translate(-112.03372,95.855724)" /><path
     inkscape:connector-curvature="0"
     id="path12390"
     d="m -39.700087,100.44534 c -19.28689,0 -34.9375,15.65061 -34.9375,34.9375 0,19.28689 15.65061,34.90625 34.9375,34.90625 19.28689,0 34.9062506,-15.61936 34.9062506,-34.90625 l -24.5312506,0 c -0.0047,0.42321 -0.03114,0.96879 -0.03125,0.96875 8.95865,11.05679 1.91041,24.76886 -12.84375,24.9375 -10.64402,0.12451 -19.96796,-3.78242 -19.0625,-15.3125 0.18019,-2.30471 1.01984,-4.41711 2.15625,-6.4375 0.29709,-0.527 2.12,-2.47119 2.125,-3 -0.0028,-0.0116 0.91634,-9.38057 2.21875,-9.71875 0.88996,-0.23237 3.36483,3.27786 5.34375,7.84375 0.27921,0.64658 11.73551,0.67314 12.15625,-0.125 0.02701,-0.0479 4.46229,-8.57589 5.4375,-8.375 2.39377,0.49308 2.52419,7.02139 2.5,9.21875 l 24.5312506,-0.0312 c -0.00754,-19.28156 -15.6246906,-34.90625 -34.9062506,-34.90625 z"
     style="fill:#fbbf58;fill-opacity:1;stroke:none" /></g><g
   id="g12417"
   transform="matrix(3.3485662,0,0,3.3504019,1410.4992,-57.642568)"><g
     id="g12409"><path
       transform="translate(54.2556,24.414423)"
       style="fill:#656263;fill-opacity:1;stroke:#656263;stroke-width:2;stroke-miterlimit:4;stroke-opacity:1"
       d="m 107.75862,39.511494 c 0,19.57331 -15.867302,35.440612 -35.440612,35.440612 -19.57331,0 -35.440612,-15.867302 -35.440612,-35.440612 0,-19.57331 15.867302,-35.4406131 35.440612,-35.4406131 19.5679,0 35.432962,15.8588601 35.440612,35.4267591 l -35.440612,0.01385 z"
       id="path12393"
       inkscape:connector-curvature="0" /><path
       style="fill:#fbbf58;fill-opacity:1;stroke:none"
       d="m 126.57361,29.150098 c -19.29274,0 -34.929523,15.561117 -34.929523,34.760493 0,19.199377 15.636783,34.791145 34.929523,34.791145 19.29274,0 34.92952,-15.591768 34.92952,-34.791145 -0.008,-19.19407 -15.64212,-34.760493 -34.92952,-34.760493 z m 0.70845,10.943118 c 2.44601,-0.453723 5.51419,7.632595 5.51356,7.632595 10.90793,6.199654 10.19135,19.859902 -1.32448,24.859577 -8.30683,3.609255 -16.994,3.464828 -20.32935,-6.375822 -0.66733,-1.966755 -0.73707,-3.992217 -0.55444,-6.03864 0.0482,-0.534019 0.7666,-2.748499 0.58524,-3.187911 -0.006,-0.0087 -2.56642,-8.057853 -1.66331,-8.766756 0.61666,-0.485465 3.77584,1.593661 6.93046,4.720561 0.44591,0.443149 9.437,-3.308346 9.48703,-4.107501 0.004,-0.04854 0.51972,-8.581121 1.35529,-8.736103 z m 9.61024,31.358011 c 2.49542,5.499461 1.61999,13.368619 1.01646,19.15812 -0.12696,1.227356 0.3383,3.605087 0,5.42558 l -5.97559,0 c -0.13134,-2.230655 0.80068,-4.537898 0.40042,-6.743658 -0.24641,-1.339384 -1.11874,-2.859753 -2.80298,-3.157259 -0.97503,-0.171774 -2.35785,-0.395379 -3.81946,-0.5211 -1.46161,0.125721 -2.84318,0.349326 -3.81945,0.5211 -1.683,0.297506 -2.588,1.816001 -2.83379,3.157259 -0.40152,2.207005 0.53176,4.513003 0.40043,6.743658 l -5.9756,0 c -0.33773,-1.821121 0.12823,-4.200088 0,-5.42558 -0.5535,-5.320211 -1.31964,-11.685038 0.49283,-16.951104 3.73375,3.392045 9.52349,3.502209 15.55504,1.471343 2.91132,-0.980268 5.46604,-1.98857 7.36169,-3.678359 z"
       id="path12368"
       inkscape:connector-curvature="0" /></g></g><path
   transform="matrix(0.62471567,0,0,0.62465881,370.79707,-78.52634)"
   d="m 900.54245,814.86438 a 197.09103,197.09103 0 1 1 -394.18207,0 197.09103,197.09103 0 1 1 394.18207,0 z"
   sodipodi:ry="197.09103"
   sodipodi:rx="197.09103"
   sodipodi:cy="814.86438"
   sodipodi:cx="703.45142"
   id="path5295"
   style="fill:#656263;fill-opacity:1;stroke:#656263;stroke-width:6;stroke-miterlimit:4;stroke-opacity:1;stroke-dasharray:none"
   sodipodi:type="arc" /><path
   inkscape:connector-curvature="0"
   style="fill:#fbbf58;fill-opacity:1;fill-rule:nonzero;stroke:none"
   d="m 810.25445,307.37824 c -68.00049,0 -123.12753,55.122 -123.12753,123.11634 0,20.16407 4.85684,39.1872 13.45091,55.98505 5.38629,1.1255 10.48497,2.35044 14.87604,3.53323 3.50678,-3.32421 13.39478,-12.12857 19.79568,-12.10277 0.6622,0.002 1.27814,0.085 1.85463,0.29281 5.6032,2.02008 -0.34478,17.03568 -3.63116,24.32265 2.42015,6.30004 5.3759,16.34753 7.57467,29.78842 19.72378,13.42887 43.54537,21.27744 69.20676,21.27744 68.00055,0 123.12758,-55.10248 123.12758,-123.09683 0,-67.99434 -55.12703,-123.11634 -123.12758,-123.11634 z"
   id="path6542" /><path
   inkscape:connector-curvature="0"
   style="fill:#fbbf58;fill-opacity:1;fill-rule:nonzero;stroke:none"
   d="m 732.47738,483.94195 c -3.45118,0.12081 -10.87396,8.5305 -10.87396,8.5305 -0.24776,1.82515 7.29059,6.5535 8.21891,5.19248 0.89934,-1.31848 5.93346,-12.51971 3.26024,-13.62537 -0.0863,-0.0357 -0.17067,-0.0837 -0.27331,-0.0976 -0.10271,-0.0139 -0.22056,-0.004 -0.33188,0 z"
   id="path5901" /><g
   transform="matrix(1.0000455,0,0,0.99995449,685.25427,305.47459)"
   style="font-size:45.8423233px;font-style:normal;font-variant:normal;font-weight:normal;font-stretch:normal;text-align:start;line-height:125%;letter-spacing:0px;word-spacing:0px;writing-mode:lr-tb;text-anchor:start;fill:#656263;fill-opacity:1;stroke:none;font-family:FZCuQian-M17S;-inkscape-font-specification:FZCuQian-M17S"
   id="text6544"><path
     inkscape:connector-curvature="0"
     d="m 131.46787,138.69911 -6.08844,0 0,-25.2491 6.08844,0 0,3.04422 c 0.23874,-2.14884 1.731,-3.16358 4.47679,-3.04422 l 8.05822,0 c 4.05891,-0.23874 5.96901,1.67136 5.73029,5.73029 l 0,13.96759 c 0.23872,3.93957 -1.61169,5.78997 -5.55122,5.55122 l -9.13265,0 c -2.14889,-1e-5 -3.34269,-1.13413 -3.58143,-3.40236 z m -16.47459,-1.61165 -6.08843,0 0,-37.963172 6.08843,0 0,1.611642 c 0.47752,-0.835631 1.37288,-1.313155 2.68608,-1.432571 l 2.14886,0 c 2.50698,-0.238726 3.70079,1.313221 3.58143,4.655861 l 0,28.47238 c 0.11936,3.22329 -1.07445,4.77524 -3.58143,4.65586 l -1.43258,0 c -1.9101,0 -3.04422,-0.59691 -3.40236,-1.79071 z m 20.23509,-25.60723 -6.62565,0 0,-6.08844 -4.65586,0 0,-1.79071 4.65586,0 0,-6.267508 6.62565,0 0,6.267508 4.29772,0 0,-6.267508 6.80472,0 0,6.267508 4.65586,0 0,1.79071 -4.65586,0 0,6.08844 -6.80472,0 0,-6.08844 -4.29772,0 z m -20.23509,-9.13265 0,31.51659 c 0.23876,0.95505 0.71628,1.43258 1.43258,1.43258 0.59689,0.11938 0.89534,-0.71629 0.89535,-2.50701 l 0,-29.18866 c -10e-6,-1.55192 -0.35815,-2.38759 -1.07443,-2.50701 -0.59691,4e-5 -1.01474,0.41787 -1.2535,1.25351 z m 19.16066,34.38174 0.17907,0 0,-10.20708 -2.86514,0 0,8.05822 c 0.59688,1.43257 1.49224,2.14886 2.68607,2.14886 z m 9.31172,-3.22329 0,-6.98379 -3.04421,0 0,10.20708 c 1.79068,-0.23877 2.80542,-1.31319 3.04421,-3.22329 z m -11.99779,-16.29551 0,7.70007 2.86514,0 0,-9.66986 -0.17907,0 c -1.31322,2e-5 -2.20857,0.65661 -2.68607,1.96979 z m 9.13265,-1.96979 -0.17907,0 0,9.66986 3.04421,0 0,-6.08843 c -3e-5,-2.3876 -0.95508,-3.58141 -2.86514,-3.58143 z"
     id="path12881" /><path
     inkscape:connector-curvature="0"
     d="m 167.10311,127.59667 -1.61164,-3.40236 c 1.19379,-2.38761 2.98451,-3.64111 5.37215,-3.7605 0.95502,1e-5 2.50698,0.47753 4.65586,1.43257 0.11935,0.11939 0.41781,0.29846 0.89535,0.53721 1.67131,0.83568 2.80543,1.19382 3.40236,1.07443 1.31317,0.11939 2.56667,-0.95503 3.76051,-3.22329 l 1.61164,3.40236 c -1.67136,2.62639 -3.46208,3.87989 -5.37215,3.76051 -1.07445,0 -2.38764,-0.35814 -3.93957,-1.07443 -0.23879,-0.11938 -0.35817,-0.23876 -0.35814,-0.35815 -1.91012,-0.95503 -3.52176,-1.43256 -4.83494,-1.43257 -1.79073,0.11939 -2.98454,1.13413 -3.58143,3.04422 z"
     id="path12883" /></g><path
   style="font-size:58.39472198px;font-style:normal;font-variant:normal;font-weight:normal;font-stretch:normal;text-align:start;line-height:125%;letter-spacing:0px;word-spacing:0px;writing-mode:lr-tb;text-anchor:start;fill:#656263;fill-opacity:1;stroke:none;font-family:Showcard Gothic;-inkscape-font-specification:Showcard Gothic"
   inkscape:connector-curvature="0"
   id="path12764"
   d="m 1012.6268,427.03579 c -1.4067,-0.32312 -2.4712,-0.4847 -3.1935,-0.48472 -0.8934,2e-5 -1.7108,0.30416 -2.4521,0.91242 -0.8934,0.74136 -1.3401,1.7013 -1.3401,2.87981 0,0.91244 0.8174,2.67075 2.4521,5.27492 1.6347,2.6042 2.4521,4.9993 2.4521,7.18529 0,3.17446 -1.207,5.77864 -3.6211,7.81257 -2.3001,1.9579 -5.1419,2.93684 -8.5254,2.93684 -3.11744,0 -5.41749,-0.2186 -6.90016,-0.6558 -0.17109,-0.87439 -0.46572,-2.30005 -0.88391,-4.27695 -0.26612,-1.06448 -0.63679,-2.48063 -1.11201,-4.24845 2.09095,0.51325 3.4976,0.76986 4.21994,0.76986 2.83228,0 4.24843,-1.07399 4.24844,-3.22198 -10e-6,-1.5587 -0.57027,-2.95584 -1.71078,-4.19142 -1.86287,-1.63473 -3.72572,-3.27898 -5.58856,-4.93275 -3.61166,-3.19344 -5.41748,-6.98567 -5.41748,-11.37671 0,-4.58106 1.71078,-8.05014 5.13235,-10.40726 2.98436,-2.0529 6.95717,-3.07937 11.91847,-3.07941 2.8132,4e-5 5.9687,0.40873 9.4663,1.22606 z" /><path
   style="font-size:58.39472198px;font-style:normal;font-variant:normal;font-weight:normal;font-stretch:normal;text-align:start;line-height:125%;letter-spacing:0px;word-spacing:0px;writing-mode:lr-tb;text-anchor:start;fill:#656263;fill-opacity:1;stroke:none;font-family:Showcard Gothic;-inkscape-font-specification:Showcard Gothic"
   inkscape:connector-curvature="0"
   id="path12766"
   d="m 1049.7223,409.10108 -0.8269,17.93471 c -0.7414,-0.11403 -1.9294,-0.25659 -3.5641,-0.4277 -1.0075,-0.057 -2.6423,-0.11402 -4.9043,-0.17107 -0.1141,1.12153 -0.3136,3.83027 -0.5988,8.12622 -0.2091,4.16291 -0.5512,10.2742 -1.0264,18.33388 l -13.8003,0 c -0.1521,-3.83975 -0.4372,-9.875 -0.8554,-18.10578 -0.1901,-2.85128 -0.3897,-5.63606 -0.5988,-8.35432 l -4.5051,0.17107 -4.0773,0.4277 -0.7129,-17.93471 z" /><path
   style="font-size:58.39472198px;font-style:normal;font-variant:normal;font-weight:normal;font-stretch:normal;text-align:start;line-height:125%;letter-spacing:0px;word-spacing:0px;writing-mode:lr-tb;text-anchor:start;fill:#656263;fill-opacity:1;stroke:none;font-family:Showcard Gothic;-inkscape-font-specification:Showcard Gothic"
   inkscape:connector-curvature="0"
   id="path12768"
   d="m 1081.3718,409.10108 -1.2261,18.04876 c -0.7034,-0.11402 -2.224,-0.31361 -4.5621,-0.59877 -1.5967,-0.15204 -3.3455,-0.24709 -5.2464,-0.28513 l -0.4277,5.44599 c 2.0909,0.0571 5.503,0.01 10.2362,-0.14256 -0.2091,0.70334 -0.5418,2.01494 -0.998,3.9348 -0.2661,1.15954 -0.5037,2.49965 -0.7128,4.02034 -0.5513,-0.13305 -1.9294,-0.30413 -4.1344,-0.51324 -1.0265,-0.057 -2.5472,-0.076 -4.5621,-0.057 l -0.2851,6.35841 c 1.4256,-0.019 4.0488,-0.14255 7.8696,-0.37067 0.7223,-0.057 1.9104,-0.28512 3.5641,-0.68431 -0.1521,0.58928 -0.5037,2.00543 -1.0549,4.24845 -0.2662,1.15953 -0.5893,2.6232 -0.9695,4.391 l -25.5192,0 -0.8268,-22.35422 c -0.1521,-5.11332 -0.5228,-12.26058 -1.1121,-21.44182 z" /><path
   style="font-size:58.39472198px;font-style:normal;font-variant:normal;font-weight:normal;font-stretch:normal;text-align:start;line-height:125%;letter-spacing:0px;word-spacing:0px;writing-mode:lr-tb;text-anchor:start;fill:#656263;fill-opacity:1;stroke:none;font-family:Showcard Gothic;-inkscape-font-specification:Showcard Gothic"
   inkscape:connector-curvature="0"
   id="path12770"
   d="m 1120.7483,426.37999 c -10e-5,5.39849 -1.7251,9.71821 -5.1751,12.95918 -3.4501,3.24099 -8.0265,4.86148 -13.7291,4.86148 l -0.3421,8.69647 -15.7107,0 -0.8269,-21.24222 c -0.2471,-5.47447 -0.6368,-12.99241 -1.169,-22.55382 2.9653,-0.58922 7.3088,-0.88386 13.0304,-0.8839 6.9762,4e-5 12.5648,1.39718 16.7657,4.19142 4.7712,3.17449 7.1567,7.83161 7.1568,13.97139 z m -11.8329,4.79019 c -1e-4,-2.96533 -1.7584,-4.44801 -5.275,-4.44803 -0.4182,2e-5 -0.8459,0.0285 -1.283,0.0855 l -0.2852,9.97956 c 4.5621,-0.15205 6.8431,-2.02441 6.8432,-5.61707 z" /><path
   style="font-size:58.39472198px;font-style:normal;font-variant:normal;font-weight:normal;font-stretch:normal;text-align:start;line-height:125%;letter-spacing:0px;word-spacing:0px;writing-mode:lr-tb;text-anchor:start;fill:#656263;fill-opacity:1;stroke:none;font-family:Showcard Gothic;-inkscape-font-specification:Showcard Gothic"
   inkscape:connector-curvature="0"
   id="path12772"
   d="m 1142.9029,408.98703 c -0.1331,3.87782 -0.3327,10.76846 -0.5988,20.67196 -0.095,4.94228 -0.1901,12.70733 -0.2851,23.29516 l -12.6883,0 c 0.038,-5.87368 -0.019,-11.33868 -0.1711,-16.395 -0.038,-1.48266 -0.133,-5.49349 -0.2851,-12.03251 -0.3232,0.0571 -1.0265,0.20913 -2.11,0.45621 -0.5702,0.13309 -1.245,0.35169 -2.0244,0.6558 l -2.7087,-9.58038 c 2.1479,-0.91238 5.9497,-2.63267 11.4052,-5.16086 1.6917,-0.81734 3.9253,-1.97687 6.7006,-3.4786 z" /><g
   id="g12909"
   transform="translate(-34.276703,498.68629)"><g
     transform="matrix(0.61534249,0,0,0.61537246,-550.42503,-386.11681)"
     id="g12713"><path
       sodipodi:type="arc"
       style="fill:#656263;fill-opacity:1;stroke:#656263;stroke-width:6;stroke-miterlimit:4;stroke-opacity:1;stroke-dasharray:none"
       id="path12462"
       sodipodi:cx="703.45142"
       sodipodi:cy="814.86438"
       sodipodi:rx="197.09103"
       sodipodi:ry="197.09103"
       d="m 900.54245,814.86438 c 0,108.85037 -88.24066,197.09102 -197.09103,197.09102 -108.85038,0 -197.09104,-88.24065 -197.09104,-197.09102 0,-108.85037 88.24066,-197.09103 197.09104,-197.09103 108.85037,0 197.09103,88.24066 197.09103,197.09103 z"
       transform="translate(391.14159,18.754898)" /><path
       transform="translate(391.14159,18.754898)"
       d="m 900.54245,814.86438 c 0,108.85037 -88.24066,197.09102 -197.09103,197.09102 -108.85038,0 -197.09104,-88.24065 -197.09104,-197.09102 0,-108.85037 88.24066,-197.09103 197.09104,-197.09103 108.85037,0 197.09103,88.24066 197.09103,197.09103 z"
       sodipodi:ry="197.09103"
       sodipodi:rx="197.09103"
       sodipodi:cy="814.86438"
       sodipodi:cx="703.45142"
       id="path12478"
       style="fill:#656263;fill-opacity:1;stroke:#656263;stroke-width:6;stroke-miterlimit:4;stroke-opacity:1;stroke-dasharray:none"
       sodipodi:type="arc" /><path
       style="fill:#fbbf58;fill-opacity:1;stroke:none"
       d="m 1094.5774,636.54113 c -108.84321,0 -197.06261,88.2194 -197.06261,197.0626 0,108.8431 88.2194,197.09367 197.06261,197.09367 108.8431,0 197.0937,-88.25057 197.0937,-197.09367 0,-108.8432 -88.2506,-197.0626 -197.0937,-197.0626 z m 1.25,87.0313 c 18.8652,0.4875 41.5409,60.3125 41.5312,60.3125 85.5873,48.8811 79.9509,156.6425 -10.4062,196.0625 -65.178,28.45707 -133.32971,27.21347 -159.50001,-50.375 -5.236,-15.5069 -5.8704,-31.5526 -4.4376,-47.6875 0.3779,-4.2105 6.0481,-21.6918 4.625,-25.1562 -0.049,-0.0687 -19.9297,-63.5044 -12.8437,-69.0938 4.8386,-3.8276 29.5292,12.5648 54.28131,37.2188 3.4988,3.4938 74.1387,-26.0429 74.5312,-32.3438 0.034,-0.3828 3.8503,-67.5905 10.4062,-68.8125 0.5998,-0.1118 1.204,-0.1407 1.8126,-0.125 z"
       id="path12480"
       inkscape:connector-curvature="0" /></g><g
     transform="translate(-222.7594,-572.8988)"
     id="text12561"
     style="font-size:58.39472198px;font-style:normal;font-variant:normal;font-weight:normal;font-stretch:normal;text-align:start;line-height:125%;letter-spacing:0px;word-spacing:0px;writing-mode:lr-tb;text-anchor:start;fill:#656263;fill-opacity:1;stroke:none;font-family:Showcard Gothic;-inkscape-font-specification:Showcard Gothic"><path
       inkscape:connector-curvature="0"
       id="path12775"
       d="m 546.13194,696.06164 c -1.40667,-0.32312 -2.47116,-0.4847 -3.19346,-0.48472 -0.89344,2e-5 -1.71081,0.30416 -2.45213,0.91241 -0.89343,0.74137 -1.34013,1.70131 -1.34011,2.87982 -2e-5,0.91244 0.81735,2.67074 2.45212,5.27492 1.63473,2.6042 2.4521,4.9993 2.45213,7.18528 -3e-5,3.17446 -1.20708,5.77865 -3.62116,7.81258 -2.30007,1.9579 -5.14187,2.93684 -8.5254,2.93684 -3.11744,0 -5.41749,-0.2186 -6.90016,-0.6558 -0.17109,-0.8744 -0.46572,-2.30005 -0.8839,-4.27695 -0.26613,-1.06449 -0.6368,-2.48063 -1.11201,-4.24845 2.09095,0.51325 3.49759,0.76986 4.21993,0.76985 2.83228,10e-6 4.24843,-1.07398 4.24844,-3.22197 -10e-6,-1.5587 -0.57027,-2.95584 -1.71078,-4.19142 -1.86286,-1.63473 -3.72571,-3.27898 -5.58856,-4.93276 -3.61165,-3.19343 -5.41748,-6.98566 -5.41748,-11.3767 0,-4.58106 1.71078,-8.05015 5.13235,-10.40726 2.98436,-2.0529 6.95717,-3.07937 11.91845,-3.07941 2.81327,4e-5 5.96871,0.40873 9.46634,1.22606 z" /><path
       inkscape:connector-curvature="0"
       id="path12777"
       d="m 583.22741,678.12693 -0.82688,17.93471 c -0.74137,-0.11403 -1.92941,-0.25659 -3.56413,-0.4277 -1.00749,-0.057 -2.64223,-0.11402 -4.90424,-0.17107 -0.11408,1.12153 -0.31367,3.83027 -0.59878,8.12621 -0.20912,4.16292 -0.55127,10.27421 -1.02646,18.33389 l -13.80032,0 c -0.15208,-3.83975 -0.43721,-9.87501 -0.85539,-18.10578 -0.1901,-2.85129 -0.38969,-5.63606 -0.59878,-8.35432 l -4.50506,0.17107 -4.07736,0.4277 -0.71283,-17.93471 z" /><path
       inkscape:connector-curvature="0"
       id="path12779"
       d="m 614.87689,678.12693 -1.22606,18.04876 c -0.70335,-0.11402 -2.22404,-0.31362 -4.56208,-0.59877 -1.59676,-0.15205 -3.34556,-0.24709 -5.2464,-0.28513 l -0.4277,5.44599 c 2.09093,0.0571 5.50299,0.01 10.23618,-0.14257 -0.20912,0.70335 -0.54177,2.01495 -0.99795,3.9348 -0.26615,1.15955 -0.50376,2.49966 -0.71283,4.02034 -0.55128,-0.13304 -1.92941,-0.30412 -4.13439,-0.51323 -1.02649,-0.057 -2.54719,-0.076 -4.56209,-0.057 l -0.28513,6.35841 c 1.42563,-0.019 4.04883,-0.14255 7.8696,-0.37067 0.7223,-0.057 1.91035,-0.28512 3.56413,-0.68431 -0.1521,0.58928 -0.50376,2.00542 -1.05498,4.24844 -0.26615,1.15954 -0.5893,2.62321 -0.96944,4.39101 l -25.51918,0 -0.82688,-22.35423 c -0.15207,-5.11331 -0.52274,-12.26057 -1.11201,-21.44181 z" /><path
       inkscape:connector-curvature="0"
       id="path12781"
       d="m 654.25341,695.40584 c -3e-5,5.39849 -1.72507,9.71821 -5.17511,12.95918 -3.45011,3.24099 -8.02645,4.86148 -13.72904,4.86147 l -0.34215,8.69648 -15.71069,0 -0.82688,-21.24222 c -0.24712,-5.47448 -0.63679,-12.99241 -1.16904,-22.55382 2.96536,-0.58922 7.30884,-0.88386 13.03047,-0.8839 6.97617,4e-5 12.56472,1.39718 16.76567,4.19142 4.77115,3.17449 7.15674,7.83161 7.15677,13.97139 z m -11.83291,4.79019 c -3e-5,-2.96533 -1.75833,-4.44801 -5.27491,-4.44803 -0.41822,2e-5 -0.84591,0.0285 -1.28309,0.0855 l -0.28513,9.97957 c 4.56206,-0.15205 6.8431,-2.02441 6.84313,-5.61707 z" /><path
       inkscape:connector-curvature="0"
       id="path12783"
       d="m 680.82758,690.10241 c -3e-5,5.96876 -4.25797,13.92389 -12.77385,23.86542 l 4.84722,0 c 0.74132,10e-6 1.94837,-0.076 3.62116,-0.2281 0.64627,-0.057 1.52067,-0.17107 2.6232,-0.34216 -0.26615,0.83639 -0.67483,2.23353 -1.22606,4.19142 -0.26615,1.00746 -0.63682,2.45212 -1.11201,4.33398 l -18.39092,0 -1.28308,-2.90833 c 2.8513,-4.98027 4.80919,-8.73448 5.87368,-11.26265 1.40664,-3.34551 2.10996,-6.32988 2.10997,-8.9531 -10e-6,-1.86283 -0.57027,-3.28848 -1.71078,-4.27696 -0.95045,-0.81734 -2.07196,-1.22603 -3.36454,-1.22606 -1.25458,3e-5 -2.48064,0.29467 -3.67819,0.88391 l 1.34012,-15.34002 c 2.8513,-1.02643 5.89268,-1.53966 9.12417,-1.53971 4.23893,5e-5 7.63197,1.17383 10.17916,3.52137 2.54714,2.34761 3.82072,5.44127 3.82075,9.28099 z" /></g></g><g
   id="g12921"
   transform="translate(0,-3.0000001)"><g
     transform="matrix(0.61537242,0,0,0.61538734,-675.00547,-666.06379)"
     id="g12718"><path
       sodipodi:type="arc"
       style="fill:#656263;fill-opacity:1;stroke:#656263;stroke-width:6;stroke-miterlimit:4;stroke-opacity:1;stroke-dasharray:none"
       id="path12493"
       sodipodi:cx="703.45142"
       sodipodi:cy="814.86438"
       sodipodi:rx="197.09103"
       sodipodi:ry="197.09103"
       d="m 900.54245,814.86438 c 0,108.85037 -88.24066,197.09102 -197.09103,197.09102 -108.85038,0 -197.09104,-88.24065 -197.09104,-197.09102 0,-108.85037 88.24066,-197.09103 197.09104,-197.09103 108.85037,0 197.09103,88.24066 197.09103,197.09103 z"
       transform="translate(593.54528,473.6417)" /><g
       id="g12513"
       transform="translate(-3.9843749e-6,-6.2864201)"><path
         inkscape:connector-curvature="0"
         id="path12511"
         d="m 1297.0122,1097.7144 c -108.8432,0 -197.0938,88.2506 -197.0938,197.0938 0,81.8856 49.9464,152.1141 121.0312,181.875 0.1852,-3.2273 0.2962,-6.1311 0.063,-8.375 -3.295,-31.8253 -7.946,-69.9674 2.8437,-101.4688 22.2271,20.291 56.8441,20.9923 92.75,8.8438 17.3312,-5.864 32.4965,-11.8918 43.7813,-22 14.8552,32.8975 9.624,79.9925 6.0312,114.625 -0.2911,2.8276 -0.055,6.6434 0.2188,10.9062 74.4762,-28.1373 127.4374,-100.0792 127.4374,-184.4062 0,-108.8432 -88.2193,-197.0938 -197.0624,-197.0938 z"
         style="fill:#fbbf58;fill-opacity:1;stroke:none" /><path
         inkscape:connector-curvature="0"
         id="path12507"
         d="m 1334.7493,1488.8706 c 1.2055,-9.5535 3.5003,-19.1541 1.8125,-28.5 -1.4668,-8.0121 -6.8174,-17.0641 -16.8438,-18.8437 -5.8042,-1.0276 -14.0178,-2.4354 -22.7187,-3.1875 -8.701,0.7521 -16.9382,2.1599 -22.75,3.1875 -10.0189,1.7796 -15.3493,10.8204 -16.8125,18.8437 -1.6156,8.9238 0.3879,18.0679 1.625,27.1876 13.2945,2.8292 27.0806,4.3124 41.2188,4.3124 11.7631,0 23.2723,-1.0241 34.4687,-3 z"
         style="fill:#fbbf58;fill-opacity:1;stroke:none" /><path
         inkscape:connector-curvature="0"
         id="path12496"
         d="m 1299.7603,1165.9956 c 14.3133,0.3698 31.5097,45.7813 31.5,45.7813 64.9351,37.086 60.6477,118.8109 -7.9062,148.7187 -49.4507,21.5905 -101.1447,20.6789 -121,-38.1874 -3.9727,-11.7651 -4.4309,-23.9459 -3.3438,-36.1876 0.2867,-3.1944 4.5797,-16.4652 3.5,-19.0937 -0.037,-0.052 -15.1262,-48.1657 -9.75,-52.4063 3.6711,-2.904 22.408,9.5137 41.1875,28.2188 2.6546,2.6509 56.2334,-19.7508 56.5313,-24.5312 0.026,-0.2904 2.9321,-51.2606 7.9062,-52.1876 0.455,-0.085 0.9133,-0.1369 1.375,-0.125 z"
         style="fill:#656263;fill-opacity:1;stroke:none" /></g></g><g
     transform="translate(-223.7594,-1055.0932)"
     id="text12565"
     style="font-size:58.39472198px;font-style:normal;font-variant:normal;font-weight:normal;font-stretch:normal;text-align:start;line-height:125%;letter-spacing:0px;word-spacing:0px;writing-mode:lr-tb;text-anchor:start;fill:#656263;fill-opacity:1;stroke:none;font-family:Showcard Gothic;-inkscape-font-specification:Showcard Gothic"><path
       inkscape:connector-curvature="0"
       id="path12786"
       d="m 546.13194,1178.253 c -1.40667,-0.3231 -2.47116,-0.4846 -3.19346,-0.4847 -0.89344,10e-5 -1.71081,0.3042 -2.45213,0.9124 -0.89343,0.7414 -1.34013,1.7013 -1.34011,2.8799 -2e-5,0.9124 0.81735,2.6707 2.45212,5.2749 1.63473,2.6042 2.4521,4.9993 2.45213,7.1853 -3e-5,3.1744 -1.20708,5.7786 -3.62116,7.8125 -2.30007,1.9579 -5.14187,2.9369 -8.5254,2.9369 -3.11744,0 -5.41749,-0.2186 -6.90016,-0.6558 -0.17109,-0.8744 -0.46572,-2.3001 -0.8839,-4.277 -0.26613,-1.0645 -0.6368,-2.4806 -1.11201,-4.2484 2.09095,0.5132 3.49759,0.7698 4.21993,0.7698 2.83228,0 4.24843,-1.074 4.24844,-3.2219 -10e-6,-1.5587 -0.57027,-2.9559 -1.71078,-4.1915 -1.86286,-1.6347 -3.72571,-3.2789 -5.58856,-4.9327 -3.61165,-3.1935 -5.41748,-6.9857 -5.41748,-11.3767 0,-4.5811 1.71078,-8.0502 5.13235,-10.4073 2.98436,-2.0529 6.95717,-3.0794 11.91845,-3.0794 2.81327,0 5.96871,0.4087 9.46634,1.2261 z" /><path
       inkscape:connector-curvature="0"
       id="path12788"
       d="m 583.22741,1160.3183 -0.82688,17.9347 c -0.74137,-0.114 -1.92941,-0.2565 -3.56413,-0.4277 -1.00749,-0.057 -2.64223,-0.114 -4.90424,-0.171 -0.11408,1.1215 -0.31367,3.8302 -0.59878,8.1262 -0.20912,4.1629 -0.55127,10.2742 -1.02646,18.3339 l -13.80032,0 c -0.15208,-3.8398 -0.43721,-9.875 -0.85539,-18.1058 -0.1901,-2.8513 -0.38969,-5.6361 -0.59878,-8.3543 l -4.50506,0.171 -4.07736,0.4277 -0.71283,-17.9347 z" /><path
       inkscape:connector-curvature="0"
       id="path12790"
       d="m 614.87689,1160.3183 -1.22606,18.0488 c -0.70335,-0.114 -2.22404,-0.3136 -4.56208,-0.5988 -1.59676,-0.152 -3.34556,-0.2471 -5.2464,-0.2851 l -0.4277,5.446 c 2.09093,0.057 5.50299,0.01 10.23618,-0.1426 -0.20912,0.7034 -0.54177,2.015 -0.99795,3.9348 -0.26615,1.1596 -0.50376,2.4997 -0.71283,4.0204 -0.55128,-0.1331 -1.92941,-0.3042 -4.13439,-0.5133 -1.02649,-0.057 -2.54719,-0.076 -4.56209,-0.057 l -0.28513,6.3584 c 1.42563,-0.019 4.04883,-0.1425 7.8696,-0.3707 0.7223,-0.057 1.91035,-0.2851 3.56413,-0.6843 -0.1521,0.5893 -0.50376,2.0055 -1.05498,4.2485 -0.26615,1.1595 -0.5893,2.6232 -0.96944,4.391 l -25.51918,0 -0.82688,-22.3542 c -0.15207,-5.1134 -0.52274,-12.2606 -1.11201,-21.4419 z" /><path
       inkscape:connector-curvature="0"
       id="path12792"
       d="m 654.25341,1177.5972 c -3e-5,5.3985 -1.72507,9.7183 -5.17511,12.9592 -3.45011,3.241 -8.02645,4.8615 -13.72904,4.8615 l -0.34215,8.6965 -15.71069,0 -0.82688,-21.2422 c -0.24712,-5.4745 -0.63679,-12.9925 -1.16904,-22.5539 2.96536,-0.5892 7.30884,-0.8838 13.03047,-0.8839 6.97617,10e-5 12.56472,1.3972 16.76567,4.1915 4.77115,3.1744 7.15674,7.8316 7.15677,13.9713 z m -11.83291,4.7902 c -3e-5,-2.9653 -1.75833,-4.448 -5.27491,-4.448 -0.41822,0 -0.84591,0.029 -1.28309,0.085 l -0.28513,9.9796 c 4.56206,-0.152 6.8431,-2.0244 6.84313,-5.6171 z" /><path
       inkscape:connector-curvature="0"
       id="path12794"
       d="m 682.42431,1171.524 c -3e-5,3.6877 -0.66533,6.596 -1.99591,8.725 -1.2546,2.0149 -3.49763,3.9158 -6.72908,5.7026 3.89676,1.7108 5.84515,4.5906 5.84517,8.6394 -2e-5,3.2695 -1.20707,5.8072 -3.62116,7.613 -2.16701,1.6157 -4.95178,2.4236 -8.35432,2.4236 -3.2695,0 -5.25591,-0.114 -5.95923,-0.3421 l -0.96944,-4.2485 c -0.24712,-1.0265 -0.59878,-2.4141 -1.05498,-4.1629 2.05293,0.7033 3.83975,1.055 5.36045,1.055 1.3306,0 2.4236,-0.3897 3.279,-1.169 0.85538,-0.7794 1.28307,-1.7678 1.28309,-2.9654 -2e-5,-1.1405 -0.41821,-2.1004 -1.25458,-2.8798 -0.93143,-0.8554 -2.18601,-1.2831 -3.76372,-1.2831 -0.38018,0 -0.76986,0.019 -1.16903,0.057 l -1.11201,-5.7596 c 1.65375,-0.1901 2.87981,-0.8269 3.67818,-1.9104 0.58926,-0.8173 0.88389,-1.7203 0.88391,-2.7087 -2e-5,-2.5662 -1.44468,-3.8493 -4.33399,-3.8493 -1.65376,0 -3.60215,0.3422 -5.84517,1.0265 l 1.11201,-14.3421 c 3.32651,-1.1595 6.85262,-1.7297 10.57834,-1.7108 4.04883,0.038 7.41812,1.1786 10.10787,3.4216 2.68971,2.2431 4.03457,5.1324 4.0346,8.668 z" /></g></g><flowRoot
   xml:space="preserve"
   id="flowRoot12571"
   style="font-size:40px;font-style:normal;font-weight:normal;line-height:125%;letter-spacing:0px;word-spacing:0px;fill:#000000;fill-opacity:1;stroke:none;font-family:sans-serif"
   transform="matrix(7.3865926,0,0,7.3865926,1712.3145,-614.85285)"><flowRegion
     id="flowRegion12573"><rect
       id="rect12575"
       width="141.28352"
       height="119.25288"
       x="77.586205"
       y="40.229885" /></flowRegion><flowPara
     id="flowPara12577" /></flowRoot><g
   transform="translate(165.15139,472.12187)"
   id="g12701"><path
     transform="translate(408.20437,-467.4096)"
     d="m 900.54245,814.86438 c 0,108.85037 -88.24066,197.09102 -197.09103,197.09102 -108.85038,0 -197.09104,-88.24065 -197.09104,-197.09102 0,-108.85037 88.24066,-197.09103 197.09104,-197.09103 108.85037,0 197.09103,88.24066 197.09103,197.09103 z"
     sodipodi:ry="197.09103"
     sodipodi:rx="197.09103"
     sodipodi:cy="814.86438"
     sodipodi:cx="703.45142"
     id="path12703"
     style="fill:#656263;fill-opacity:1;stroke:#656263;stroke-width:6;stroke-miterlimit:4;stroke-opacity:1;stroke-dasharray:none"
     sodipodi:type="arc" /><path
     inkscape:connector-curvature="0"
     style="fill:#fbbf58;fill-opacity:1;fill-rule:nonzero;stroke:none"
     d="m 1111.6562,150.37498 c -108.8503,0 -197.0937,88.24338 -197.0937,197.09375 0,32.28013 7.77447,62.73376 21.53125,89.625 8.62199,1.80178 16.78358,3.76276 23.8125,5.65625 5.6134,-5.32164 21.4414,-19.4163 31.6875,-19.375 1.06,0.004 2.04595,0.13603 2.96875,0.46875 8.9692,3.23389 -0.5519,27.27197 -5.8125,38.9375 3.87401,10.08557 8.60536,26.17033 12.125,47.6875 31.5724,21.49793 69.7043,34.0625 110.7812,34.0625 108.8504,0 197.0938,-88.21213 197.0938,-197.0625 0,-108.85037 -88.2434,-197.09375 -197.0938,-197.09375 z"
     id="path12705" /><path
     inkscape:connector-curvature="0"
     style="fill:#fbbf58;fill-opacity:1;fill-rule:nonzero;stroke:none"
     d="m 987.15625,433.03123 c -5.5244,0.19339 -17.40625,13.65625 -17.40625,13.65625 -0.3966,2.92183 11.67025,10.49132 13.15625,8.3125 1.4396,-2.11072 9.49785,-20.04247 5.21875,-21.8125 -0.1381,-0.0571 -0.2732,-0.13395 -0.4375,-0.15625 -0.1644,-0.0223 -0.35305,-0.006 -0.53125,0 z"
     id="path12707" /><text
     xml:space="preserve"
     style="font-size:73.38443756px;font-style:normal;font-variant:normal;font-weight:normal;font-stretch:normal;text-align:start;line-height:125%;letter-spacing:0px;word-spacing:0px;writing-mode:lr-tb;text-anchor:start;fill:#656263;fill-opacity:1;stroke:none;font-family:FZCuQian-M17S;-inkscape-font-specification:FZCuQian-M17S"
     x="1082.1733"
     y="362.76404"
     id="text12709"
     sodipodi:linespacing="125%"><tspan
       sodipodi:role="line"
       id="tspan12711"
       x="1082.1733"
       y="362.76404"></tspan></text>
</g></svg>