<?xml version="1.0" encoding="UTF-8" standalone="no"?>
<!-- Created with Inkscape (http://www.inkscape.org/) -->

<svg
   xmlns:dc="http://purl.org/dc/elements/1.1/"
   xmlns:cc="http://creativecommons.org/ns#"
   xmlns:rdf="http://www.w3.org/1999/02/22-rdf-syntax-ns#"
   xmlns:svg="http://www.w3.org/2000/svg"
   xmlns="http://www.w3.org/2000/svg"
   xmlns:sodipodi="http://sodipodi.sourceforge.net/DTD/sodipodi-0.dtd"
   xmlns:inkscape="http://www.inkscape.org/namespaces/inkscape"
   id="svg2985"
   version="1.1"
   inkscape:version="0.48.0 r9654"
   width="200"
   height="200"
   xml:space="preserve"
   sodipodi:docname="step1.svg"><metadata
     id="metadata2991"><rdf:RDF><cc:Work
         rdf:about=""><dc:format>image/svg+xml</dc:format><dc:type
           rdf:resource="http://purl.org/dc/dcmitype/StillImage" /><dc:title /></cc:Work></rdf:RDF></metadata><defs
     id="defs2989"><linearGradient
       x1="0"
       y1="0"
       x2="1"
       y2="0"
       gradientUnits="userSpaceOnUse"
       gradientTransform="matrix(-1.53e-5,-493.4751,-493.4751,1.53e-5,329.23291,493.47461)"
       spreadMethod="pad"
       id="linearGradient3007"><stop
         style="stop-opacity:1;stop-color:#d8d8d8"
         offset="0"
         id="stop3009" /><stop
         style="stop-opacity:1;stop-color:#464646"
         offset="1"
         id="stop3011" /></linearGradient><clipPath
       clipPathUnits="userSpaceOnUse"
       id="clipPath3019"><path
         d="m 0,493.475 658.467,0 L 658.467,0 0,0 0,493.475 z"
         id="path3021"
         inkscape:connector-curvature="0" /></clipPath><clipPath
       clipPathUnits="userSpaceOnUse"
       id="clipPath3317"><path
         d="m 0,493.475 658.467,0 L 658.467,0 0,0 0,493.475 z"
         id="path3319"
         inkscape:connector-curvature="0" /></clipPath><clipPath
       clipPathUnits="userSpaceOnUse"
       id="clipPath3325"><path
         d="m 405.367,348.229 232.804,0 0,-202.984 -232.804,0 0,202.984 z"
         id="path3327"
         inkscape:connector-curvature="0" /></clipPath><clipPath
       clipPathUnits="userSpaceOnUse"
       id="clipPath3329"><path
         d="m 405.367,348.229 232.804,0 0,-202.984 -232.804,0 0,202.984 z"
         id="path3331"
         inkscape:connector-curvature="0" /></clipPath><clipPath
       clipPathUnits="userSpaceOnUse"
       id="clipPath3333"><path
         d="m 406.193,347.403 231.005,0 0,-201.331 -231.005,0 0,201.331 z"
         id="path3335"
         inkscape:connector-curvature="0" /></clipPath><clipPath
       clipPathUnits="userSpaceOnUse"
       id="clipPath3337"><path
         d="m 407.019,346.577 229.206,0 0,-199.68 -229.206,0 0,199.68 z"
         id="path3339"
         inkscape:connector-curvature="0" /></clipPath><clipPath
       clipPathUnits="userSpaceOnUse"
       id="clipPath3341"><path
         d="m 407.844,345.751 227.406,0 0,-198.027 -227.406,0 0,198.027 z"
         id="path3343"
         inkscape:connector-curvature="0" /></clipPath><clipPath
       clipPathUnits="userSpaceOnUse"
       id="clipPath3345"><path
         d="m 408.67,344.925 225.607,0 0,-196.376 -225.607,0 0,196.376 z"
         id="path3347"
         inkscape:connector-curvature="0" /></clipPath><clipPath
       clipPathUnits="userSpaceOnUse"
       id="clipPath3349"><path
         d="m 409.496,344.099 223.807,0 0,-194.724 -223.807,0 0,194.724 z"
         id="path3351"
         inkscape:connector-curvature="0" /></clipPath><clipPath
       clipPathUnits="userSpaceOnUse"
       id="clipPath3353"><path
         d="m 410.322,343.273 222.007,0 0,-193.072 -222.007,0 0,193.072 z"
         id="path3355"
         inkscape:connector-curvature="0" /></clipPath><clipPath
       clipPathUnits="userSpaceOnUse"
       id="clipPath3357"><path
         d="m 411.148,342.448 220.207,0 0,-191.422 -220.207,0 0,191.422 z"
         id="path3359"
         inkscape:connector-curvature="0" /></clipPath><clipPath
       clipPathUnits="userSpaceOnUse"
       id="clipPath3487"><path
         d="m 212.831,348.229 232.805,0 0,-202.984 -232.805,0 0,202.984 z"
         id="path3489"
         inkscape:connector-curvature="0" /></clipPath><clipPath
       clipPathUnits="userSpaceOnUse"
       id="clipPath3491"><path
         d="m 212.831,348.229 232.805,0 0,-202.984 -232.805,0 0,202.984 z"
         id="path3493"
         inkscape:connector-curvature="0" /></clipPath><clipPath
       clipPathUnits="userSpaceOnUse"
       id="clipPath3495"><path
         d="m 213.657,347.403 231.005,0 0,-201.331 -231.005,0 0,201.331 z"
         id="path3497"
         inkscape:connector-curvature="0" /></clipPath><clipPath
       clipPathUnits="userSpaceOnUse"
       id="clipPath3499"><path
         d="m 214.483,346.577 229.204,0 0,-199.68 -229.204,0 0,199.68 z"
         id="path3501"
         inkscape:connector-curvature="0" /></clipPath><clipPath
       clipPathUnits="userSpaceOnUse"
       id="clipPath3503"><path
         d="m 215.31,345.751 227.405,0 0,-198.027 -227.405,0 0,198.027 z"
         id="path3505"
         inkscape:connector-curvature="0" /></clipPath><clipPath
       clipPathUnits="userSpaceOnUse"
       id="clipPath3507"><path
         d="m 216.135,344.925 225.606,0 0,-196.376 -225.606,0 0,196.376 z"
         id="path3509"
         inkscape:connector-curvature="0" /></clipPath><clipPath
       clipPathUnits="userSpaceOnUse"
       id="clipPath3511"><path
         d="m 216.961,344.1 223.807,0 0,-194.724 -223.807,0 0,194.724 z"
         id="path3513"
         inkscape:connector-curvature="0" /></clipPath><clipPath
       clipPathUnits="userSpaceOnUse"
       id="clipPath3515"><path
         d="m 217.787,343.273 222.007,0 0,-193.072 -222.007,0 0,193.072 z"
         id="path3517"
         inkscape:connector-curvature="0" /></clipPath><clipPath
       clipPathUnits="userSpaceOnUse"
       id="clipPath3519"><path
         d="m 218.613,342.448 220.207,0 0,-191.422 -220.207,0 0,191.422 z"
         id="path3521"
         inkscape:connector-curvature="0" /></clipPath><clipPath
       clipPathUnits="userSpaceOnUse"
       id="clipPath3649"><path
         d="m 20.2959,348.229 232.8041,0 0,-202.984 -232.8041,0 0,202.984 z"
         id="path3651"
         inkscape:connector-curvature="0" /></clipPath><clipPath
       clipPathUnits="userSpaceOnUse"
       id="clipPath3653"><path
         d="m 20.2959,348.229 232.8041,0 0,-202.984 -232.8041,0 0,202.984 z"
         id="path3655"
         inkscape:connector-curvature="0" /></clipPath><clipPath
       clipPathUnits="userSpaceOnUse"
       id="clipPath3657"><path
         d="m 21.1216,347.403 231.0054,0 0,-201.331 -231.0054,0 0,201.331 z"
         id="path3659"
         inkscape:connector-curvature="0" /></clipPath><clipPath
       clipPathUnits="userSpaceOnUse"
       id="clipPath3661"><path
         d="m 21.9473,346.577 229.2057,0 0,-199.68 -229.2057,0 0,199.68 z"
         id="path3663"
         inkscape:connector-curvature="0" /></clipPath><clipPath
       clipPathUnits="userSpaceOnUse"
       id="clipPath3665"><path
         d="m 22.7729,345.751 227.4061,0 0,-198.027 -227.4061,0 0,198.027 z"
         id="path3667"
         inkscape:connector-curvature="0" /></clipPath><clipPath
       clipPathUnits="userSpaceOnUse"
       id="clipPath3669"><path
         d="m 23.5991,344.925 225.6069,0 0,-196.376 -225.6069,0 0,196.376 z"
         id="path3671"
         inkscape:connector-curvature="0" /></clipPath><clipPath
       clipPathUnits="userSpaceOnUse"
       id="clipPath3673"><path
         d="m 24.4253,344.1 223.8067,0 0,-194.724 -223.8067,0 0,194.724 z"
         id="path3675"
         inkscape:connector-curvature="0" /></clipPath><clipPath
       clipPathUnits="userSpaceOnUse"
       id="clipPath3677"><path
         d="m 25.251,343.273 222.008,0 0,-193.072 -222.008,0 0,193.072 z"
         id="path3679"
         inkscape:connector-curvature="0" /></clipPath><clipPath
       clipPathUnits="userSpaceOnUse"
       id="clipPath3681"><path
         d="m 26.0771,342.448 220.2079,0 0,-191.422 -220.2079,0 0,191.422 z"
         id="path3683"
         inkscape:connector-curvature="0" /></clipPath></defs><sodipodi:namedview
     pagecolor="#ffffff"
     bordercolor="#666666"
     borderopacity="1"
     objecttolerance="10"
     gridtolerance="10"
     guidetolerance="10"
     inkscape:pageopacity="0"
     inkscape:pageshadow="2"
     inkscape:window-width="1680"
     inkscape:window-height="975"
     id="namedview2987"
     showgrid="false"
     inkscape:zoom="1.082136"
     inkscape:cx="342.94238"
     inkscape:cy="161.04667"
     inkscape:window-x="-9"
     inkscape:window-y="-9"
     inkscape:window-maximized="1"
     inkscape:current-layer="g2993" /><g
     id="g2993"
     inkscape:groupmode="layer"
     inkscape:label="FreeVector-ABC-Icons"
     transform="matrix(1.25,0,0,-1.25,0,200)"><g
       id="g3015"><g
         id="g3017"
         clip-path="url(#clipPath3019)"><g
           id="g3023"
           transform="translate(125.1118,-10.8184)"><path
             d="m 0,0 c -0.02,0.858 -0.779,1.464 -1.62,1.464 -1.852,0 -2.145,-1.579 -2.145,-2.984 0,-1.305 0.567,-2.652 1.973,-2.652 1.147,0 1.733,0.662 1.89,1.734 l 3.218,0 c -0.293,-2.708 -2.4,-4.271 -5.091,-4.271 -3.041,0 -5.304,2.089 -5.304,5.189 0,3.219 2.048,5.521 5.304,5.521 C 0.741,4.001 2.983,2.673 3.219,0 L 0,0 z"
             style="fill:#000000;fill-opacity:1;fill-rule:nonzero;stroke:none"
             id="path3025"
             inkscape:connector-curvature="0" /></g><g
           id="g3027"
           transform="translate(133.7192,-6.8926)"><path
             d="m 0,0 c -3.126,0 -5.303,-2.313 -5.303,-5.345 0,-3.029 2.177,-5.324 5.303,-5.324 3.127,0 5.326,2.295 5.326,5.324 C 5.326,-2.313 3.127,0 0,0"
             style="fill:#000000;fill-opacity:1;fill-rule:nonzero;stroke:none"
             id="path3029"
             inkscape:connector-curvature="0" /></g><g
           id="g3031"
           transform="translate(116.3755,-14.3965)"><path
             d="m 0,0 c -0.86,0 -1.458,-0.636 -1.458,-1.468 0,-0.833 0.598,-1.462 1.458,-1.462 0.859,0 1.461,0.629 1.461,1.462 C 1.461,-0.636 0.859,0 0,0"
             style="fill:#000000;fill-opacity:1;fill-rule:nonzero;stroke:none"
             id="path3033"
             inkscape:connector-curvature="0" /></g><g
           id="g3035"
           transform="translate(139.2764,-7.54)"><path
             d="m 0,0 3.139,0 0,-1.352 0.037,0 c 0.591,0.991 1.635,1.637 2.835,1.637 1.235,0 2.338,-0.398 2.87,-1.598 0.781,1.046 1.749,1.598 3.081,1.598 3.139,0 3.48,-2.377 3.48,-4.262 l 0,-5.892 -3.234,0 0,5.8 c 0,1.064 -0.512,1.69 -1.349,1.69 -1.388,0 -1.521,-1.062 -1.521,-2.661 l 0,-4.829 -3.233,0 0,5.609 c 0,1.159 -0.343,1.881 -1.216,1.881 -1.162,0 -1.654,-0.665 -1.654,-2.681 l 0,-4.809 L 0,-9.869 0,0 z"
             style="fill:#000000;fill-opacity:1;fill-rule:nonzero;stroke:none"
             id="path3037"
             inkscape:connector-curvature="0" /></g><g
           id="g3039"
           transform="translate(73.5513,-17.3057)"><path
             d="m 0,0 -3.686,0 -3.256,9.762 3.33,0 1.786,-6.454 0.038,0 1.807,6.454 3.257,0 L 0,0 z"
             style="fill:#000000;fill-opacity:1;fill-rule:nonzero;stroke:none"
             id="path3041"
             inkscape:connector-curvature="0" /></g><g
           id="g3043"
           transform="translate(78.5659,-13.208)"><path
             d="m 0,0 c 0.056,-1.335 0.831,-2.219 2.184,-2.219 0.767,0 1.52,0.361 1.818,1.073 l 2.993,0 C 6.414,-3.403 4.324,-4.383 2.142,-4.383 c -3.177,0 -5.341,1.922 -5.341,5.193 0,2.99 2.392,5.133 5.267,5.133 3.498,0 5.25,-2.631 5.1,-5.943 L 0,0 z"
             style="fill:#000000;fill-opacity:1;fill-rule:nonzero;stroke:none"
             id="path3045"
             inkscape:connector-curvature="0" /></g><g
           id="g3047"
           transform="translate(92.5742,-11.1182)"><path
             d="m 0,0 c -0.02,0.827 -0.752,1.412 -1.562,1.412 -1.788,0 -2.068,-1.528 -2.068,-2.881 0,-1.261 0.547,-2.558 1.903,-2.558 1.107,0 1.668,0.64 1.823,1.676 l 3.1,0 c -0.279,-2.614 -2.314,-4.122 -4.907,-4.122 -2.934,0 -5.113,2.014 -5.113,5.004 0,3.105 1.973,5.323 5.113,5.323 C 0.713,3.854 2.878,2.575 3.104,0 L 0,0 z"
             style="fill:#000000;fill-opacity:1;fill-rule:nonzero;stroke:none"
             id="path3049"
             inkscape:connector-curvature="0" /></g><g
           id="g3051"
           transform="translate(101.8462,-9.6143)"><path
             d="m 0,0 -1.971,0 0,-4.439 c 0,-0.772 0.451,-0.941 1.145,-0.941 0.262,0 0.548,0.039 0.826,0.039 l 0,-2.35 c -0.58,-0.018 -1.161,-0.096 -1.749,-0.096 -2.726,0 -3.422,0.79 -3.422,3.445 l 0,4.342 -1.617,0 0,2.07 1.617,0 0,2.952 3.2,0 0,-2.952 L 0,2.07 0,0 z"
             style="fill:#000000;fill-opacity:1;fill-rule:nonzero;stroke:none"
             id="path3053"
             inkscape:connector-curvature="0" /></g><g
           id="g3055"
           transform="translate(106.2373,-7.2646)"><path
             d="m 0,0 c -3.027,0 -5.135,-2.239 -5.135,-5.17 0,-2.935 2.108,-5.156 5.135,-5.156 3.027,0 5.153,2.221 5.153,5.156 C 5.153,-2.239 3.027,0 0,0"
             style="fill:#000000;fill-opacity:1;fill-rule:nonzero;stroke:none"
             id="path3057"
             inkscape:connector-curvature="0" /></g><g
           id="g3059"
           transform="translate(111.1758,-7.5439)"><path
             d="m 0,0 3.107,0 0,-1.711 0.035,0 c 0.47,1.236 1.558,1.899 2.933,1.899 0.243,0 0.507,-0.024 0.751,-0.074 l 0,-2.915 C 6.414,-2.693 6.038,-2.62 5.603,-2.62 4.024,-2.62 3.197,-3.708 3.197,-4.927 l 0,-4.835 L 0,-9.762 0,0 z"
             style="fill:#000000;fill-opacity:1;fill-rule:nonzero;stroke:none"
             id="path3061"
             inkscape:connector-curvature="0" /></g><g
           id="g3063"
           transform="translate(41.4951,-7.5439)"><path
             d="m 0,0 3.106,0 0,-1.711 0.037,0 c 0.468,1.236 1.561,1.899 2.935,1.899 0.244,0 0.509,-0.024 0.749,-0.074 l 0,-2.915 C 6.415,-2.693 6.042,-2.62 5.604,-2.62 4.029,-2.62 3.198,-3.708 3.198,-4.927 l 0,-4.835 L 0,-9.762 0,0 z"
             style="fill:#000000;fill-opacity:1;fill-rule:nonzero;stroke:none"
             id="path3065"
             inkscape:connector-curvature="0" /></g><g
           id="g3067"
           transform="translate(50.375,-13.208)"><path
             d="m 0,0 c 0.055,-1.335 0.825,-2.219 2.181,-2.219 0.769,0 1.524,0.361 1.823,1.073 l 2.993,0 C 6.411,-3.403 4.326,-4.383 2.145,-4.383 -1.036,-4.383 -3.2,-2.461 -3.2,0.81 -3.2,3.8 -0.81,5.943 2.07,5.943 5.568,5.943 7.315,3.312 7.166,0 L 0,0 z"
             style="fill:#000000;fill-opacity:1;fill-rule:nonzero;stroke:none"
             id="path3069"
             inkscape:connector-curvature="0" /></g><g
           id="g3071"
           transform="translate(60.458,-13.208)"><path
             d="m 0,0 c 0.055,-1.335 0.826,-2.219 2.182,-2.219 0.769,0 1.522,0.361 1.823,1.073 l 2.991,0 c -0.582,-2.257 -2.67,-3.237 -4.851,-3.237 -3.179,0 -5.341,1.922 -5.341,5.193 0,2.99 2.384,5.133 5.266,5.133 C 5.567,5.943 7.317,3.312 7.167,0 L 0,0 z"
             style="fill:#000000;fill-opacity:1;fill-rule:nonzero;stroke:none"
             id="path3073"
             inkscape:connector-curvature="0" /></g><g
           id="g3075"
           transform="translate(40.9141,-6.1377)"><path
             d="m 0,0 c 0.283,0 0.564,-0.018 0.864,-0.055 l 0,2.259 c -0.509,0.02 -1.035,0.055 -1.543,0.055 -2.725,0 -3.704,-0.865 -3.704,-3.665 l -1.541,0 0,-2.071 1.541,0 0,-7.691 3.195,0 0,7.691 1.919,0 0,2.071 -1.919,0 0,0.431 C -1.188,-0.092 -0.735,0 0,0"
             style="fill:#000000;fill-opacity:1;fill-rule:nonzero;stroke:none"
             id="path3077"
             inkscape:connector-curvature="0" /></g><g
           id="g3079"
           transform="translate(31.8374,-10.6475)"><path
             d="m 0,0 c 0,-3.982 -3.228,-7.212 -7.211,-7.212 -3.983,0 -7.212,3.23 -7.212,7.212 0,3.981 3.229,7.21 7.212,7.21 C -3.228,7.21 0,3.981 0,0"
             style="fill:#ffffff;fill-opacity:1;fill-rule:nonzero;stroke:none"
             id="path3081"
             inkscape:connector-curvature="0" /></g><g
           id="g3083"
           transform="translate(27.1284,-13.9258)"><path
             d="m 0,0 0.019,-0.013 c 0,0 -0.007,0.005 -0.013,0.01 -0.001,0 -0.004,0 -0.006,0.003 m -3.204,1.693 c -0.35,-0.123 -0.816,0.196 -1.023,0.356 -0.177,0.203 -1.242,1.338 -1.365,1.48 -0.266,0.307 -0.063,0.942 0.594,1.161 0.186,0.063 0.471,0.068 0.644,-0.125 0.776,-0.928 1.586,-1.918 1.646,-2.109 0.1,-0.333 -0.084,-0.62 -0.496,-0.763 m 0.682,8.825 c -0.659,0 -1.294,-0.086 -1.9,-0.246 0.249,-0.021 0.412,-0.178 0.497,-0.492 0,0 1.356,-4.485 1.518,-4.989 0.159,-0.506 0.35,-1.059 0.35,-1.059 C -2.164,3.643 -2.262,3.529 -2.336,3.38 -2.476,3.089 -2.552,2.853 -2.585,2.617 c -0.21,0.36 -1.033,1.368 -1.589,2.04 0,0 -0.036,0.446 -0.155,0.873 -0.12,0.425 -0.886,3.309 -0.886,3.309 C -5.351,9.375 -5.294,9.841 -5,10.094 -7.829,9.093 -9.854,6.425 -9.854,3.286 c 0,-2.85 1.674,-5.315 4.108,-6.493 -0.25,0.366 -0.538,0.937 -0.673,1.743 -0.224,1.325 -0.268,2.183 -0.436,2.922 -0.223,0.988 -0.156,1.217 0.184,1.652 0.168,0.215 0.359,0.348 0.537,0.407 0.178,0.047 0.362,-0.059 0.43,-0.135 C -5.276,2.924 -4.458,2.044 -4.358,1.919 -4.16,1.687 -4.133,1.395 -4.28,1.047 -4.338,0.906 -4.498,0.843 -4.623,0.813 -4.906,0.747 -5.227,0.806 -5.337,0.9 c -0.23,0.193 -1.35,1.217 -1.35,1.166 0,-0.269 0.833,-0.928 1.229,-1.305 0.161,-0.157 0.558,-0.201 0.879,-0.126 0.238,0.056 0.4,0.174 0.471,0.343 0.11,0.259 0.135,0.501 0.076,0.717 0.26,-0.15 0.595,-0.278 0.891,-0.176 0.288,0.1 0.462,0.255 0.556,0.422 0.019,-0.192 0.05,-0.407 0.091,-0.663 0.099,-0.646 0.22,-1.007 0.293,-1.222 0.027,-0.08 0.054,-0.163 0.051,-0.189 -0.002,-0.005 -0.005,-0.009 -0.011,-0.014 -0.17,-0.239 -0.422,-0.628 -0.582,-1.111 -0.106,-0.321 -0.186,-0.758 -0.196,-1.169 -0.005,-0.144 0,-0.367 0.042,-0.367 0.044,10e-4 0.038,0.228 0.054,0.367 0.045,0.416 0.112,0.835 0.233,1.137 0.159,0.392 0.37,0.712 0.6,1.035 0.01,0.012 0.015,0.021 0.02,0.026 0.053,0.079 0.024,0.166 -0.034,0.341 -0.072,0.211 -0.188,0.562 -0.288,1.195 -0.143,0.933 -0.198,1.284 0.145,1.993 0.276,0.576 1.01,0.583 1.168,0.517 0.061,-0.033 0.065,-0.384 0.072,-0.697 0.008,-0.349 0.015,-0.782 0.073,-1.309 0.072,-0.665 0.344,-1.184 0.589,-1.486 0.199,-0.24 0.358,-0.347 0.397,-0.31 0.037,0.036 -0.136,0.167 -0.313,0.443 -0.196,0.304 -0.421,0.763 -0.488,1.373 -0.058,0.517 -0.065,0.948 -0.071,1.294 -0.012,0.526 -0.016,0.789 -0.187,0.86 -0.085,0.037 -0.264,0.057 -0.47,0.03 l 1.353,4.533 c 0.236,0.817 0.485,1.151 1.007,1.098 0.005,0 0.01,-0.004 0.017,-0.005 -1.041,0.558 -2.233,0.877 -3.502,0.877"
             style="fill:#000000;fill-opacity:1;fill-rule:nonzero;stroke:none"
             id="path3085"
             inkscape:connector-curvature="0" /></g><g
           id="g3087"
           transform="translate(28.5015,-4.5146)"><path
             d="m 0,0 c 0.174,-0.181 0.245,-0.433 0.171,-0.7 l -1.215,-5.404 c -0.074,-0.419 -0.197,-1.288 -0.086,-1.881 0.149,-0.809 0.468,-1.9 0.235,-3.106 -0.125,-0.64 -0.318,-1.336 -0.641,-1.878 2.889,0.969 4.97,3.667 4.97,6.844 C 3.434,-3.544 2.063,-1.279 0,0"
             style="fill:#000000;fill-opacity:1;fill-rule:nonzero;stroke:none"
             id="path3089"
             inkscape:connector-curvature="0" /></g><path
           d="m 169.155,-7.771 2.498,0 0,-9.587 -2.498,0 0,9.587 z"
           style="fill:#000000;fill-opacity:1;fill-rule:nonzero;stroke:none"
           id="path3091"
           inkscape:connector-curvature="0" /><g
           id="g3093"
           transform="translate(173.2896,-10.3887)"><path
             d="m 0,0 2.215,0 0,-0.953 0.027,0 c 0.416,0.699 1.155,1.155 2.001,1.155 0.873,0 1.652,-0.282 2.028,-1.128 0.55,0.738 1.235,1.128 2.175,1.128 2.216,0 2.457,-1.679 2.457,-3.008 l 0,-4.163 -2.282,0 0,4.096 c 0,0.752 -0.363,1.194 -0.954,1.194 -0.98,0 -1.074,-0.751 -1.074,-1.879 l 0,-3.411 -2.283,0 0,3.961 c 0,0.82 -0.242,1.329 -0.859,1.329 -0.819,0 -1.169,-0.469 -1.169,-1.892 l 0,-3.398 L 0,-6.969 0,0 z"
             style="fill:#000000;fill-opacity:1;fill-rule:nonzero;stroke:none"
             id="path3095"
             inkscape:connector-curvature="0" /></g><g
           id="g3097"
           transform="translate(188.5796,-16.1484)"><path
             d="M 0,0 C 1.088,0 1.451,0.617 1.396,2.055 1.075,1.853 0.483,1.813 -0.013,1.678 -0.524,1.557 -0.954,1.343 -0.954,0.792 -0.954,0.228 -0.51,0 0,0 m -2.954,3.611 c 0.04,0.913 0.47,1.505 1.087,1.868 0.618,0.348 1.424,0.483 2.216,0.483 1.652,0 3.25,-0.362 3.25,-2.337 l 0,-3.048 c 0,-0.591 0,-1.236 0.269,-1.786 l -2.297,0 c -0.08,0.214 -0.107,0.43 -0.134,0.658 -0.591,-0.618 -1.463,-0.859 -2.296,-0.859 -1.329,0 -2.377,0.671 -2.377,2.107 0,2.271 2.47,2.095 4.055,2.417 0.389,0.081 0.605,0.216 0.605,0.646 0,0.523 -0.632,0.724 -1.102,0.724 -0.631,0 -1.033,-0.281 -1.141,-0.873 l -2.135,0 z"
             style="fill:#000000;fill-opacity:1;fill-rule:nonzero;stroke:none"
             id="path3099"
             inkscape:connector-curvature="0" /></g><g
           id="g3101"
           transform="translate(196.8892,-11.9326)"><path
             d="m 0,0 c -1.007,0 -1.33,-0.886 -1.33,-1.745 0,-0.819 0.376,-1.639 1.316,-1.639 0.967,0 1.384,0.751 1.384,1.625 C 1.37,-0.872 1.02,0 0,0 m 3.532,-4.579 c 0,-1.142 -0.215,-3.29 -3.478,-3.29 -1.625,0 -3.156,0.362 -3.425,2.229 l 2.283,0 c 0.054,-0.308 0.174,-0.497 0.389,-0.604 0.202,-0.108 0.484,-0.148 0.833,-0.148 1.088,0 1.196,0.766 1.196,1.625 l 0,0.658 -0.027,0 c -0.417,-0.644 -1.115,-1.02 -1.854,-1.02 -2.108,0 -3.061,1.503 -3.061,3.464 0,1.853 1.088,3.411 3.061,3.411 0.833,0 1.464,-0.362 1.867,-1.075 l 0.027,0 0,0.873 2.189,0 0,-6.123 z"
             style="fill:#000000;fill-opacity:1;fill-rule:nonzero;stroke:none"
             id="path3103"
             inkscape:connector-curvature="0" /></g><g
           id="g3105"
           transform="translate(206.6621,-13.1543)"><path
             d="M 0,0 C -0.041,0.779 -0.591,1.423 -1.357,1.423 -2.162,1.423 -2.7,0.846 -2.833,0 L 0,0 z m -2.833,-1.275 c 0.04,-0.954 0.59,-1.585 1.557,-1.585 0.55,0 1.088,0.255 1.303,0.765 l 2.135,0 c -0.416,-1.612 -1.907,-2.309 -3.465,-2.309 -2.269,0 -3.813,1.369 -3.813,3.706 0,2.135 1.705,3.666 3.759,3.666 2.498,0 3.747,-1.881 3.639,-4.243 l -5.115,0 z"
             style="fill:#000000;fill-opacity:1;fill-rule:nonzero;stroke:none"
             id="path3107"
             inkscape:connector-curvature="0" /></g><g
           id="g3109"
           transform="translate(211.856,-15.0615)"><path
             d="m 0,0 c 0,-0.349 0.147,-0.604 0.376,-0.778 0.215,-0.162 0.523,-0.243 0.846,-0.243 0.443,0 1.074,0.188 1.074,0.74 0,0.537 -0.712,0.643 -1.115,0.737 -1.436,0.363 -3.236,0.403 -3.236,2.284 0,1.679 1.813,2.135 3.182,2.135 1.531,0 3.13,-0.443 3.21,-2.257 l -2.108,0 c 0,0.296 -0.107,0.485 -0.295,0.605 -0.188,0.121 -0.444,0.174 -0.726,0.174 -0.375,0 -0.98,-0.04 -0.98,-0.523 0,-0.658 1.531,-0.779 2.578,-1.007 1.41,-0.282 1.773,-1.303 1.773,-1.881 0,-1.866 -1.773,-2.483 -3.344,-2.483 -1.652,0 -3.343,0.551 -3.41,2.497 L 0,0 z"
             style="fill:#000000;fill-opacity:1;fill-rule:nonzero;stroke:none"
             id="path3111"
             inkscape:connector-curvature="0" /></g><g
           id="g3113"
           transform="translate(224.6348,-16.1484)"><path
             d="M 0,0 C 1.088,0 1.451,0.617 1.396,2.055 1.075,1.853 0.483,1.813 -0.013,1.678 -0.524,1.557 -0.954,1.343 -0.954,0.792 -0.954,0.228 -0.51,0 0,0 m -2.954,3.611 c 0.04,0.913 0.47,1.505 1.087,1.868 0.618,0.348 1.424,0.483 2.216,0.483 1.652,0 3.25,-0.362 3.25,-2.337 l 0,-3.048 c 0,-0.591 0,-1.236 0.269,-1.786 l -2.297,0 c -0.08,0.214 -0.107,0.43 -0.134,0.658 -0.591,-0.618 -1.463,-0.859 -2.296,-0.859 -1.329,0 -2.377,0.671 -2.377,2.107 0,2.271 2.47,2.095 4.055,2.417 0.389,0.081 0.605,0.216 0.605,0.646 0,0.523 -0.632,0.724 -1.102,0.724 -0.631,0 -1.033,-0.281 -1.141,-0.873 l -2.135,0 z"
             style="fill:#000000;fill-opacity:1;fill-rule:nonzero;stroke:none"
             id="path3115"
             inkscape:connector-curvature="0" /></g><g
           id="g3117"
           transform="translate(229.8154,-10.3887)"><path
             d="m 0,0 2.215,0 0,-1.222 0.027,0 c 0.336,0.886 1.115,1.357 2.095,1.357 0.175,0 0.363,-0.014 0.538,-0.054 l 0,-2.081 c -0.296,0.08 -0.564,0.134 -0.873,0.134 -1.128,0 -1.719,-0.78 -1.719,-1.652 l 0,-3.451 L 0,-6.969 0,0 z"
             style="fill:#000000;fill-opacity:1;fill-rule:nonzero;stroke:none"
             id="path3119"
             inkscape:connector-curvature="0" /></g><g
           id="g3121"
           transform="translate(239.9917,-13.1543)"><path
             d="M 0,0 C -0.041,0.779 -0.591,1.423 -1.357,1.423 -2.162,1.423 -2.7,0.846 -2.833,0 L 0,0 z m -2.833,-1.275 c 0.04,-0.954 0.59,-1.585 1.557,-1.585 0.55,0 1.088,0.255 1.303,0.765 l 2.135,0 c -0.416,-1.612 -1.907,-2.309 -3.465,-2.309 -2.269,0 -3.814,1.369 -3.814,3.706 0,2.135 1.706,3.666 3.76,3.666 2.498,0 3.747,-1.881 3.639,-4.243 l -5.115,0 z"
             style="fill:#000000;fill-opacity:1;fill-rule:nonzero;stroke:none"
             id="path3123"
             inkscape:connector-curvature="0" /></g><g
           id="g3125"
           transform="translate(249.8433,-13.7998)"><path
             d="m 0,0 c 0,-1.222 0.349,-2.013 1.383,-2.013 1.02,0 1.37,1.06 1.37,2.013 0,0.887 -0.35,1.867 -1.357,1.867 C 0.778,1.867 0,1.438 0,0 m -2.202,3.411 2.175,0 0,-0.806 0.027,0 c 0.443,0.659 1.114,1.008 1.92,1.008 2.189,0 3.115,-1.881 3.115,-3.841 0,-1.812 -0.966,-3.531 -2.94,-3.531 -0.86,0 -1.517,0.321 -1.988,0.953 l -0.026,0 0,-3.088 -2.283,0 0,9.305 z"
             style="fill:#000000;fill-opacity:1;fill-rule:nonzero;stroke:none"
             id="path3127"
             inkscape:connector-curvature="0" /></g><g
           id="g3129"
           transform="translate(256.1782,-10.3887)"><path
             d="m 0,0 2.215,0 0,-1.222 0.027,0 c 0.336,0.886 1.115,1.357 2.095,1.357 0.175,0 0.363,-0.014 0.538,-0.054 l 0,-2.081 c -0.296,0.08 -0.564,0.134 -0.873,0.134 -1.128,0 -1.719,-0.78 -1.719,-1.652 l 0,-3.451 L 0,-6.969 0,0 z"
             style="fill:#000000;fill-opacity:1;fill-rule:nonzero;stroke:none"
             id="path3131"
             inkscape:connector-curvature="0" /></g><g
           id="g3133"
           transform="translate(264.9038,-15.8125)"><path
             d="M 0,0 C 1.061,0 1.397,1.047 1.397,1.933 1.397,2.819 1.061,3.88 0,3.88 -1.061,3.88 -1.383,2.819 -1.383,1.933 -1.383,1.047 -1.061,0 0,0 m 0,5.626 c 2.162,0 3.68,-1.599 3.68,-3.693 0,-2.095 -1.518,-3.679 -3.68,-3.679 -2.162,0 -3.666,1.584 -3.666,3.679 0,2.094 1.504,3.693 3.666,3.693"
             style="fill:#000000;fill-opacity:1;fill-rule:nonzero;stroke:none"
             id="path3135"
             inkscape:connector-curvature="0" /></g><g
           id="g3137"
           transform="translate(271.978,-13.7998)"><path
             d="m 0,0 c 0,-1.222 0.349,-2.013 1.383,-2.013 1.02,0 1.37,1.06 1.37,2.013 0,0.887 -0.35,1.867 -1.357,1.867 C 0.778,1.867 0,1.438 0,0 m -2.202,3.411 2.175,0 0,-0.806 0.027,0 c 0.443,0.659 1.114,1.008 1.92,1.008 2.189,0 3.115,-1.881 3.115,-3.841 0,-1.812 -0.966,-3.531 -2.94,-3.531 -0.86,0 -1.518,0.321 -1.988,0.953 l -0.027,0 0,-3.088 -2.282,0 0,9.305 z"
             style="fill:#000000;fill-opacity:1;fill-rule:nonzero;stroke:none"
             id="path3139"
             inkscape:connector-curvature="0" /></g><g
           id="g3141"
           transform="translate(283.0127,-13.1543)"><path
             d="M 0,0 C -0.041,0.779 -0.591,1.423 -1.356,1.423 -2.162,1.423 -2.7,0.846 -2.833,0 L 0,0 z m -2.833,-1.275 c 0.04,-0.954 0.59,-1.585 1.557,-1.585 0.55,0 1.088,0.255 1.302,0.765 l 2.136,0 c -0.416,-1.612 -1.907,-2.309 -3.465,-2.309 -2.269,0 -3.814,1.369 -3.814,3.706 0,2.135 1.706,3.666 3.761,3.666 2.497,0 3.746,-1.881 3.638,-4.243 l -5.115,0 z"
             style="fill:#000000;fill-opacity:1;fill-rule:nonzero;stroke:none"
             id="path3143"
             inkscape:connector-curvature="0" /></g><g
           id="g3145"
           transform="translate(286.5142,-10.3887)"><path
             d="m 0,0 2.216,0 0,-1.222 0.026,0 c 0.336,0.886 1.115,1.357 2.095,1.357 0.175,0 0.363,-0.014 0.538,-0.054 l 0,-2.081 c -0.296,0.08 -0.564,0.134 -0.873,0.134 -1.128,0 -1.719,-0.78 -1.719,-1.652 l 0,-3.451 L 0,-6.969 0,0 z"
             style="fill:#000000;fill-opacity:1;fill-rule:nonzero;stroke:none"
             id="path3147"
             inkscape:connector-curvature="0" /></g><g
           id="g3149"
           transform="translate(296.3555,-11.8652)"><path
             d="m 0,0 -1.41,0 0,-3.17 c 0,-0.55 0.322,-0.671 0.819,-0.671 0.188,0 0.389,0.028 0.591,0.028 l 0,-1.679 c -0.417,-0.014 -0.833,-0.068 -1.249,-0.068 -1.947,0 -2.444,0.564 -2.444,2.458 l 0,3.102 -1.155,0 0,1.477 1.155,0 0,2.108 2.283,0 0,-2.108 1.41,0 L 0,0 z"
             style="fill:#000000;fill-opacity:1;fill-rule:nonzero;stroke:none"
             id="path3151"
             inkscape:connector-curvature="0" /></g><g
           id="g3153"
           transform="translate(301.1738,-17.9746)"><path
             d="m 0,0 c -0.55,-1.531 -1.369,-1.719 -2.914,-1.719 l -1.074,0 0,1.853 0.792,0 c 0.524,0 0.914,0.296 0.914,0.779 0,0.376 -0.444,1.449 -0.578,1.825 l -1.799,4.848 2.417,0 1.316,-4.538 0.027,0 1.316,4.538 2.336,0 L 0,0 z"
             style="fill:#000000;fill-opacity:1;fill-rule:nonzero;stroke:none"
             id="path3155"
             inkscape:connector-curvature="0" /></g><g
           id="g3157"
           transform="translate(312.1406,-15.8125)"><path
             d="M 0,0 C 1.061,0 1.397,1.047 1.397,1.933 1.397,2.819 1.061,3.88 0,3.88 -1.061,3.88 -1.383,2.819 -1.383,1.933 -1.383,1.047 -1.061,0 0,0 m 0,5.626 c 2.162,0 3.679,-1.599 3.679,-3.693 0,-2.095 -1.517,-3.679 -3.679,-3.679 -2.162,0 -3.666,1.584 -3.666,3.679 0,2.094 1.504,3.693 3.666,3.693"
             style="fill:#000000;fill-opacity:1;fill-rule:nonzero;stroke:none"
             id="path3159"
             inkscape:connector-curvature="0" /></g><g
           id="g3161"
           transform="translate(317.5093,-11.8652)"><path
             d="m 0,0 -1.101,0 0,1.477 1.101,0 c 0,2.001 0.698,2.618 2.645,2.618 0.363,0 0.739,-0.027 1.101,-0.04 l 0,-1.612 C 3.531,2.471 3.33,2.484 3.128,2.484 2.605,2.484 2.283,2.417 2.283,1.786 l 0,-0.309 1.369,0 0,-1.477 -1.369,0 0,-5.492 L 0,-5.492 0,0 z"
             style="fill:#000000;fill-opacity:1;fill-rule:nonzero;stroke:none"
             id="path3163"
             inkscape:connector-curvature="0" /></g><g
           id="g3165"
           transform="translate(330.4102,-11.8652)"><path
             d="m 0,0 -1.41,0 0,-3.17 c 0,-0.55 0.323,-0.671 0.819,-0.671 0.188,0 0.39,0.028 0.591,0.028 l 0,-1.679 c -0.416,-0.014 -0.833,-0.068 -1.249,-0.068 -1.947,0 -2.443,0.564 -2.443,2.458 l 0,3.102 -1.155,0 0,1.477 1.155,0 0,2.108 2.282,0 0,-2.108 1.41,0 L 0,0 z"
             style="fill:#000000;fill-opacity:1;fill-rule:nonzero;stroke:none"
             id="path3167"
             inkscape:connector-curvature="0" /></g><g
           id="g3169"
           transform="translate(331.4297,-7.7705)"><path
             d="m 0,0 2.282,0 0,-3.571 0.027,0 c 0.349,0.712 1.289,1.155 2.122,1.155 2.323,0 2.51,-1.692 2.51,-2.7 l 0,-4.471 -2.283,0 0,3.37 c 0,0.953 0.109,1.92 -1.14,1.92 -0.86,0 -1.236,-0.724 -1.236,-1.49 l 0,-3.8 L 0,-9.587 0,0 z"
             style="fill:#000000;fill-opacity:1;fill-rule:nonzero;stroke:none"
             id="path3171"
             inkscape:connector-curvature="0" /></g><g
           id="g3173"
           transform="translate(344.667,-13.1543)"><path
             d="M 0,0 C -0.04,0.779 -0.592,1.423 -1.357,1.423 -2.163,1.423 -2.7,0.846 -2.834,0 L 0,0 z m -2.834,-1.275 c 0.04,-0.954 0.591,-1.585 1.558,-1.585 0.55,0 1.088,0.255 1.302,0.765 l 2.135,0 c -0.416,-1.612 -1.906,-2.309 -3.465,-2.309 -2.269,0 -3.812,1.369 -3.812,3.706 0,2.135 1.705,3.666 3.759,3.666 2.498,0 3.747,-1.881 3.638,-4.243 l -5.115,0 z"
             style="fill:#000000;fill-opacity:1;fill-rule:nonzero;stroke:none"
             id="path3175"
             inkscape:connector-curvature="0" /></g><g
           id="g3177"
           transform="translate(354.2637,-13.7998)"><path
             d="m 0,0 c 0,-0.953 0.349,-2.013 1.396,-2.013 1.114,0 1.356,1.06 1.356,1.947 0,1.006 -0.363,1.933 -1.356,1.933 C 0.349,1.867 0,0.887 0,0 m 4.953,-3.558 -2.174,0 0,0.806 -0.027,0 C 2.309,-3.41 1.637,-3.759 0.831,-3.759 c -2.188,0 -3.114,1.88 -3.114,3.84 0,1.814 0.967,3.532 2.939,3.532 0.86,0 1.519,-0.322 1.989,-0.954 l 0.027,0 0,3.37 2.281,0 0,-9.587 z"
             style="fill:#000000;fill-opacity:1;fill-rule:nonzero;stroke:none"
             id="path3179"
             inkscape:connector-curvature="0" /></g><g
           id="g3181"
           transform="translate(365.5527,-13.1543)"><path
             d="M 0,0 C -0.04,0.779 -0.592,1.423 -1.357,1.423 -2.162,1.423 -2.699,0.846 -2.832,0 L 0,0 z m -2.832,-1.275 c 0.039,-0.954 0.589,-1.585 1.557,-1.585 0.55,0 1.087,0.255 1.302,0.765 l 2.135,0 c -0.416,-1.612 -1.907,-2.309 -3.465,-2.309 -2.268,0 -3.812,1.369 -3.812,3.706 0,2.135 1.705,3.666 3.758,3.666 2.498,0 3.748,-1.881 3.64,-4.243 l -5.115,0 z"
             style="fill:#000000;fill-opacity:1;fill-rule:nonzero;stroke:none"
             id="path3183"
             inkscape:connector-curvature="0" /></g><g
           id="g3185"
           transform="translate(370.7471,-15.0615)"><path
             d="m 0,0 c 0,-0.349 0.147,-0.604 0.376,-0.778 0.215,-0.162 0.523,-0.243 0.846,-0.243 0.443,0 1.074,0.188 1.074,0.74 0,0.537 -0.713,0.643 -1.114,0.737 -1.438,0.363 -3.238,0.403 -3.238,2.284 0,1.679 1.814,2.135 3.184,2.135 1.53,0 3.129,-0.443 3.209,-2.257 l -2.108,0 c 0,0.296 -0.107,0.485 -0.294,0.605 -0.19,0.121 -0.446,0.174 -0.727,0.174 -0.375,0 -0.979,-0.04 -0.979,-0.523 0,-0.658 1.53,-0.779 2.578,-1.007 1.409,-0.282 1.772,-1.303 1.772,-1.881 0,-1.866 -1.772,-2.483 -3.344,-2.483 -1.652,0 -3.343,0.551 -3.41,2.497 L 0,0 z"
             style="fill:#000000;fill-opacity:1;fill-rule:nonzero;stroke:none"
             id="path3187"
             inkscape:connector-curvature="0" /></g><path
           d="m 376.519,-10.389 2.284,0 0,-6.969 -2.284,0 0,6.969 z m 2.284,0.873 -2.284,0 0,1.745 2.284,0 0,-1.745 z"
           style="fill:#000000;fill-opacity:1;fill-rule:nonzero;stroke:none"
           id="path3189"
           inkscape:connector-curvature="0" /><g
           id="g3191"
           transform="translate(383.6201,-11.9326)"><path
             d="m 0,0 c -1.007,0 -1.329,-0.886 -1.329,-1.745 0,-0.819 0.375,-1.639 1.315,-1.639 0.968,0 1.384,0.751 1.384,1.625 C 1.37,-0.872 1.021,0 0,0 m 3.532,-4.579 c 0,-1.142 -0.215,-3.29 -3.478,-3.29 -1.625,0 -3.155,0.362 -3.424,2.229 l 2.283,0 c 0.053,-0.308 0.174,-0.497 0.389,-0.604 0.202,-0.108 0.484,-0.148 0.833,-0.148 1.088,0 1.195,0.766 1.195,1.625 l 0,0.658 -0.026,0 c -0.417,-0.644 -1.116,-1.02 -1.854,-1.02 -2.109,0 -3.062,1.503 -3.062,3.464 0,1.853 1.088,3.411 3.062,3.411 0.833,0 1.463,-0.362 1.867,-1.075 l 0.026,0 0,0.873 2.189,0 0,-6.123 z"
             style="fill:#000000;fill-opacity:1;fill-rule:nonzero;stroke:none"
             id="path3193"
             inkscape:connector-curvature="0" /></g><g
           id="g3195"
           transform="translate(388.6133,-10.3887)"><path
             d="m 0,0 2.215,0 0,-0.953 0.027,0 c 0.417,0.712 1.357,1.155 2.19,1.155 2.322,0 2.511,-1.692 2.511,-2.7 l 0,-4.471 -2.284,0 0,3.37 c 0,0.953 0.108,1.92 -1.14,1.92 -0.86,0 -1.238,-0.724 -1.238,-1.49 l 0,-3.8 L 0,-6.969 0,0 z"
             style="fill:#000000;fill-opacity:1;fill-rule:nonzero;stroke:none"
             id="path3197"
             inkscape:connector-curvature="0" /></g><g
           id="g3199"
           transform="translate(401.8506,-13.1543)"><path
             d="M 0,0 C -0.04,0.779 -0.591,1.423 -1.356,1.423 -2.162,1.423 -2.7,0.846 -2.834,0 L 0,0 z m -2.834,-1.275 c 0.04,-0.954 0.591,-1.585 1.558,-1.585 0.55,0 1.088,0.255 1.302,0.765 l 2.135,0 c -0.416,-1.612 -1.906,-2.309 -3.464,-2.309 -2.27,0 -3.813,1.369 -3.813,3.706 0,2.135 1.705,3.666 3.76,3.666 2.498,0 3.746,-1.881 3.638,-4.243 l -5.116,0 z"
             style="fill:#000000;fill-opacity:1;fill-rule:nonzero;stroke:none"
             id="path3201"
             inkscape:connector-curvature="0" /></g><g
           id="g3203"
           transform="translate(405.3516,-10.3887)"><path
             d="m 0,0 2.217,0 0,-1.222 0.026,0 c 0.335,0.886 1.114,1.357 2.095,1.357 0.174,0 0.363,-0.014 0.537,-0.054 l 0,-2.081 c -0.296,0.08 -0.564,0.134 -0.872,0.134 -1.13,0 -1.719,-0.78 -1.719,-1.652 l 0,-3.451 L 0,-6.969 0,0 z"
             style="fill:#000000;fill-opacity:1;fill-rule:nonzero;stroke:none"
             id="path3205"
             inkscape:connector-curvature="0" /></g><path
           d="m 409.861,-14.859 2.498,0 0,-2.498 -2.498,0 0,2.498 z"
           style="fill:#000000;fill-opacity:1;fill-rule:nonzero;stroke:none"
           id="path3207"
           inkscape:connector-curvature="0" /><g
           id="g3209"
           transform="translate(427.624,-11.1943)"><path
             d="m 0,0 c -0.136,0.968 -0.886,1.478 -1.935,1.478 -1.609,0 -2.228,-1.424 -2.228,-2.847 0,-1.424 0.619,-2.847 2.228,-2.847 1.169,0 1.841,0.671 1.935,1.773 l 2.498,0 c -0.136,-2.471 -1.948,-3.921 -4.38,-3.921 -2.899,0 -4.779,2.216 -4.779,4.995 0,2.78 1.88,4.995 4.779,4.995 2.07,0 4.311,-1.315 4.38,-3.626 L 0,0 z"
             style="fill:#000000;fill-opacity:1;fill-rule:nonzero;stroke:none"
             id="path3211"
             inkscape:connector-curvature="0" /></g><g
           id="g3213"
           transform="translate(431.3535,-7.7705)"><path
             d="m 0,0 2.283,0 0,-3.571 0.027,0 c 0.348,0.712 1.288,1.155 2.12,1.155 2.324,0 2.511,-1.692 2.511,-2.7 l 0,-4.471 -2.281,0 0,3.37 c 0,0.953 0.108,1.92 -1.142,1.92 -0.86,0 -1.235,-0.724 -1.235,-1.49 l 0,-3.8 L 0,-9.587 0,0 z"
             style="fill:#000000;fill-opacity:1;fill-rule:nonzero;stroke:none"
             id="path3215"
             inkscape:connector-curvature="0" /></g><g
           id="g3217"
           transform="translate(444.5898,-13.1543)"><path
             d="M 0,0 C -0.039,0.779 -0.591,1.423 -1.356,1.423 -2.162,1.423 -2.698,0.846 -2.834,0 L 0,0 z m -2.834,-1.275 c 0.04,-0.954 0.592,-1.585 1.559,-1.585 0.55,0 1.086,0.255 1.302,0.765 l 2.135,0 c -0.416,-1.612 -1.906,-2.309 -3.465,-2.309 -2.267,0 -3.812,1.369 -3.812,3.706 0,2.135 1.705,3.666 3.759,3.666 2.498,0 3.745,-1.881 3.638,-4.243 l -5.116,0 z"
             style="fill:#000000;fill-opacity:1;fill-rule:nonzero;stroke:none"
             id="path3219"
             inkscape:connector-curvature="0" /></g><g
           id="g3221"
           transform="translate(452.5488,-12.9395)"><path
             d="m 0,0 c -0.014,0.591 -0.535,1.007 -1.113,1.007 -1.276,0 -1.479,-1.088 -1.479,-2.055 0,-0.899 0.391,-1.825 1.358,-1.825 0.793,0 1.194,0.456 1.301,1.194 l 2.216,0 c -0.2,-1.866 -1.651,-2.94 -3.504,-2.94 -2.093,0 -3.652,1.436 -3.652,3.571 0,2.216 1.408,3.801 3.652,3.801 C 0.512,2.753 2.057,1.84 2.217,0 L 0,0 z"
             style="fill:#000000;fill-opacity:1;fill-rule:nonzero;stroke:none"
             id="path3223"
             inkscape:connector-curvature="0" /></g><g
           id="g3225"
           transform="translate(455.9717,-7.7705)"><path
             d="m 0,0 2.283,0 0,-4.94 2.081,2.322 2.645,0 -2.551,-2.632 2.875,-4.337 -2.755,0 -1.706,2.807 -0.589,-0.578 0,-2.229 L 0,-9.587 0,0 z"
             style="fill:#000000;fill-opacity:1;fill-rule:nonzero;stroke:none"
             id="path3227"
             inkscape:connector-curvature="0" /></g><path
           d="m 468.24,-7.771 2.281,0 0,-9.587 -2.281,0 0,9.587 z"
           style="fill:#000000;fill-opacity:1;fill-rule:nonzero;stroke:none"
           id="path3229"
           inkscape:connector-curvature="0" /><path
           d="m 472.215,-10.389 2.281,0 0,-6.969 -2.281,0 0,6.969 z m 2.281,0.873 -2.281,0 0,1.745 2.281,0 0,-1.745 z"
           style="fill:#000000;fill-opacity:1;fill-rule:nonzero;stroke:none"
           id="path3231"
           inkscape:connector-curvature="0" /><g
           id="g3233"
           transform="translate(480.6455,-12.9395)"><path
             d="m 0,0 c -0.013,0.591 -0.538,1.007 -1.114,1.007 -1.277,0 -1.477,-1.088 -1.477,-2.055 0,-0.899 0.388,-1.825 1.355,-1.825 0.792,0 1.196,0.456 1.303,1.194 l 2.217,0 c -0.203,-1.866 -1.652,-2.94 -3.508,-2.94 -2.093,0 -3.651,1.436 -3.651,3.571 0,2.216 1.411,3.801 3.651,3.801 C 0.511,2.753 2.054,1.84 2.215,0 L 0,0 z"
             style="fill:#000000;fill-opacity:1;fill-rule:nonzero;stroke:none"
             id="path3235"
             inkscape:connector-curvature="0" /></g><g
           id="g3237"
           transform="translate(488.8477,-13.1543)"><path
             d="M 0,0 C -0.041,0.779 -0.592,1.423 -1.357,1.423 -2.163,1.423 -2.699,0.846 -2.835,0 L 0,0 z m -2.835,-1.275 c 0.04,-0.954 0.591,-1.585 1.558,-1.585 0.551,0 1.088,0.255 1.303,0.765 l 2.134,0 c -0.414,-1.612 -1.906,-2.309 -3.464,-2.309 -2.268,0 -3.813,1.369 -3.813,3.706 0,2.135 1.706,3.666 3.76,3.666 2.498,0 3.746,-1.881 3.638,-4.243 l -5.116,0 z"
             style="fill:#000000;fill-opacity:1;fill-rule:nonzero;stroke:none"
             id="path3239"
             inkscape:connector-curvature="0" /></g><g
           id="g3241"
           transform="translate(492.2676,-10.3887)"><path
             d="m 0,0 2.217,0 0,-0.953 0.027,0 c 0.414,0.712 1.356,1.155 2.188,1.155 2.324,0 2.511,-1.692 2.511,-2.7 l 0,-4.471 -2.283,0 0,3.37 c 0,0.953 0.108,1.92 -1.142,1.92 -0.86,0 -1.235,-0.724 -1.235,-1.49 l 0,-3.8 L 0,-6.969 0,0 z"
             style="fill:#000000;fill-opacity:1;fill-rule:nonzero;stroke:none"
             id="path3243"
             inkscape:connector-curvature="0" /></g><g
           id="g3245"
           transform="translate(502.4961,-15.0615)"><path
             d="M 0,0 C 0,-0.349 0.148,-0.604 0.377,-0.778 0.592,-0.94 0.9,-1.021 1.223,-1.021 c 0.443,0 1.074,0.188 1.074,0.74 0,0.537 -0.711,0.643 -1.113,0.737 -1.438,0.363 -3.237,0.403 -3.237,2.284 0,1.679 1.813,2.135 3.182,2.135 1.529,0 3.129,-0.443 3.209,-2.257 l -2.108,0 C 2.23,2.914 2.123,3.103 1.934,3.223 1.746,3.344 1.492,3.397 1.211,3.397 0.834,3.397 0.229,3.357 0.229,2.874 0.229,2.216 1.76,2.095 2.807,1.867 4.217,1.585 4.58,0.564 4.58,-0.014 c 0,-1.866 -1.773,-2.483 -3.344,-2.483 -1.65,0 -3.343,0.551 -3.41,2.497 L 0,0 z"
             style="fill:#000000;fill-opacity:1;fill-rule:nonzero;stroke:none"
             id="path3247"
             inkscape:connector-curvature="0" /></g><g
           id="g3249"
           transform="translate(512.9688,-13.1543)"><path
             d="M 0,0 C -0.041,0.779 -0.59,1.423 -1.355,1.423 -2.162,1.423 -2.699,0.846 -2.834,0 L 0,0 z m -2.834,-1.275 c 0.041,-0.954 0.592,-1.585 1.559,-1.585 0.548,0 1.087,0.255 1.302,0.765 l 2.135,0 c -0.416,-1.612 -1.908,-2.309 -3.465,-2.309 -2.269,0 -3.814,1.369 -3.814,3.706 0,2.135 1.705,3.666 3.762,3.666 2.498,0 3.746,-1.881 3.638,-4.243 l -5.117,0 z"
             style="fill:#000000;fill-opacity:1;fill-rule:nonzero;stroke:none"
             id="path3251"
             inkscape:connector-curvature="0" /></g><g
           id="g3253"
           transform="translate(521.1152,-11.8652)"><path
             d="m 0,0 -1.102,0 0,1.477 1.102,0 c 0,2.001 0.697,2.618 2.645,2.618 0.363,0 0.738,-0.027 1.103,-0.04 l 0,-1.612 C 3.531,2.471 3.33,2.484 3.129,2.484 2.604,2.484 2.283,2.417 2.283,1.786 l 0,-0.309 1.369,0 0,-1.477 -1.369,0 0,-5.492 L 0,-5.492 0,0 z"
             style="fill:#000000;fill-opacity:1;fill-rule:nonzero;stroke:none"
             id="path3255"
             inkscape:connector-curvature="0" /></g><g
           id="g3257"
           transform="translate(528.916,-15.8125)"><path
             d="M 0,0 C 1.061,0 1.396,1.047 1.396,1.933 1.396,2.819 1.061,3.88 0,3.88 -1.063,3.88 -1.383,2.819 -1.383,1.933 -1.383,1.047 -1.063,0 0,0 m 0,5.626 c 2.162,0 3.68,-1.599 3.68,-3.693 0,-2.095 -1.518,-3.679 -3.68,-3.679 -2.162,0 -3.666,1.584 -3.666,3.679 0,2.094 1.504,3.693 3.666,3.693"
             style="fill:#000000;fill-opacity:1;fill-rule:nonzero;stroke:none"
             id="path3259"
             inkscape:connector-curvature="0" /></g><g
           id="g3261"
           transform="translate(533.8672,-10.3887)"><path
             d="m 0,0 2.215,0 0,-1.222 0.027,0 c 0.338,0.886 1.115,1.357 2.096,1.357 0.174,0 0.361,-0.014 0.537,-0.054 l 0,-2.081 c -0.295,0.08 -0.564,0.134 -0.873,0.134 -1.129,0 -1.719,-0.78 -1.719,-1.652 l 0,-3.451 L 0,-6.969 0,0 z"
             style="fill:#000000;fill-opacity:1;fill-rule:nonzero;stroke:none"
             id="path3263"
             inkscape:connector-curvature="0" /></g><g
           id="g3265"
           transform="translate(545.9355,-13.7998)"><path
             d="m 0,0 c 0,-1.222 0.35,-2.013 1.383,-2.013 1.019,0 1.371,1.06 1.371,2.013 0,0.887 -0.352,1.867 -1.358,1.867 C 0.779,1.867 0,1.438 0,0 m -2.203,3.411 2.178,0 0,-0.806 0.025,0 c 0.443,0.659 1.115,1.008 1.92,1.008 2.187,0 3.117,-1.881 3.117,-3.841 0,-1.812 -0.969,-3.531 -2.943,-3.531 -0.86,0 -1.518,0.321 -1.987,0.953 l -0.025,0 0,-3.088 -2.285,0 0,9.305 z"
             style="fill:#000000;fill-opacity:1;fill-rule:nonzero;stroke:none"
             id="path3267"
             inkscape:connector-curvature="0" /></g><g
           id="g3269"
           transform="translate(556.9707,-13.1543)"><path
             d="M 0,0 C -0.041,0.779 -0.59,1.423 -1.355,1.423 -2.16,1.423 -2.699,0.846 -2.832,0 L 0,0 z m -2.832,-1.275 c 0.039,-0.954 0.59,-1.585 1.557,-1.585 0.55,0 1.087,0.255 1.302,0.765 l 2.135,0 c -0.416,-1.612 -1.908,-2.309 -3.463,-2.309 -2.271,0 -3.814,1.369 -3.814,3.706 0,2.135 1.705,3.666 3.76,3.666 2.498,0 3.746,-1.881 3.638,-4.243 l -5.115,0 z"
             style="fill:#000000;fill-opacity:1;fill-rule:nonzero;stroke:none"
             id="path3271"
             inkscape:connector-curvature="0" /></g><g
           id="g3273"
           transform="translate(560.4727,-10.3887)"><path
             d="m 0,0 2.215,0 0,-1.222 0.027,0 c 0.338,0.886 1.115,1.357 2.096,1.357 0.174,0 0.361,-0.014 0.537,-0.054 l 0,-2.081 c -0.295,0.08 -0.564,0.134 -0.873,0.134 -1.129,0 -1.719,-0.78 -1.719,-1.652 l 0,-3.451 L 0,-6.969 0,0 z"
             style="fill:#000000;fill-opacity:1;fill-rule:nonzero;stroke:none"
             id="path3275"
             inkscape:connector-curvature="0" /></g><g
           id="g3277"
           transform="translate(566.1113,-10.3887)"><path
             d="m 0,0 2.215,0 0,-0.953 0.027,0 c 0.416,0.699 1.154,1.155 2,1.155 0.873,0 1.653,-0.282 2.028,-1.128 0.55,0.738 1.236,1.128 2.175,1.128 2.217,0 2.459,-1.679 2.459,-3.008 l 0,-4.163 -2.285,0 0,4.096 c 0,0.752 -0.361,1.194 -0.953,1.194 -0.978,0 -1.072,-0.751 -1.072,-1.879 l 0,-3.411 -2.283,0 0,3.961 c 0,0.82 -0.243,1.329 -0.862,1.329 -0.818,0 -1.166,-0.469 -1.166,-1.892 l 0,-3.398 L 0,-6.969 0,0 z"
             style="fill:#000000;fill-opacity:1;fill-rule:nonzero;stroke:none"
             id="path3279"
             inkscape:connector-curvature="0" /></g><path
           d="m 578.621,-10.389 2.283,0 0,-6.969 -2.283,0 0,6.969 z m 2.283,0.873 -2.283,0 0,1.745 2.283,0 0,-1.745 z"
           style="fill:#000000;fill-opacity:1;fill-rule:nonzero;stroke:none"
           id="path3281"
           inkscape:connector-curvature="0" /><g
           id="g3283"
           transform="translate(586.7168,-11.8652)"><path
             d="m 0,0 -1.41,0 0,-3.17 c 0,-0.55 0.324,-0.671 0.818,-0.671 0.19,0 0.391,0.028 0.592,0.028 l 0,-1.679 c -0.414,-0.014 -0.832,-0.068 -1.248,-0.068 -1.947,0 -2.443,0.564 -2.443,2.458 l 0,3.102 -1.157,0 0,1.477 1.157,0 0,2.108 2.281,0 0,-2.108 1.41,0 L 0,0 z"
             style="fill:#000000;fill-opacity:1;fill-rule:nonzero;stroke:none"
             id="path3285"
             inkscape:connector-curvature="0" /></g><g
           id="g3287"
           transform="translate(591.9395,-11.8652)"><path
             d="m 0,0 -1.412,0 0,-3.17 c 0,-0.55 0.324,-0.671 0.82,-0.671 0.19,0 0.391,0.028 0.592,0.028 l 0,-1.679 c -0.416,-0.014 -0.834,-0.068 -1.248,-0.068 -1.949,0 -2.445,0.564 -2.445,2.458 l 0,3.102 -1.157,0 0,1.477 1.157,0 0,2.108 2.281,0 0,-2.108 L 0,1.477 0,0 z"
             style="fill:#000000;fill-opacity:1;fill-rule:nonzero;stroke:none"
             id="path3289"
             inkscape:connector-curvature="0" /></g><g
           id="g3291"
           transform="translate(597.7383,-13.1543)"><path
             d="M 0,0 C -0.041,0.779 -0.592,1.423 -1.357,1.423 -2.162,1.423 -2.699,0.846 -2.834,0 L 0,0 z m -2.834,-1.275 c 0.039,-0.954 0.592,-1.585 1.557,-1.585 0.552,0 1.088,0.255 1.304,0.765 l 2.133,0 c -0.414,-1.612 -1.906,-2.309 -3.463,-2.309 -2.269,0 -3.812,1.369 -3.812,3.706 0,2.135 1.705,3.666 3.758,3.666 2.498,0 3.746,-1.881 3.638,-4.243 l -5.115,0 z"
             style="fill:#000000;fill-opacity:1;fill-rule:nonzero;stroke:none"
             id="path3293"
             inkscape:connector-curvature="0" /></g><g
           id="g3295"
           transform="translate(603.1055,-13.7998)"><path
             d="m 0,0 c 0,-0.953 0.35,-2.013 1.396,-2.013 1.116,0 1.358,1.06 1.358,1.947 0,1.006 -0.363,1.933 -1.358,1.933 C 0.35,1.867 0,0.887 0,0 m 4.955,-3.558 -2.174,0 0,0.806 -0.027,0 C 2.311,-3.41 1.639,-3.759 0.832,-3.759 c -2.187,0 -3.113,1.88 -3.113,3.84 0,1.814 0.967,3.532 2.939,3.532 0.86,0 1.518,-0.322 1.987,-0.954 l 0.029,0 0,3.37 2.281,0 0,-9.587 z"
             style="fill:#000000;fill-opacity:1;fill-rule:nonzero;stroke:none"
             id="path3297"
             inkscape:connector-curvature="0" /></g><g
           id="g3299"
           transform="translate(620.7734,-17.3574)"><path
             d="m 0,0 -2.215,0 0,0.953 -0.027,0 c -0.43,-0.711 -1.315,-1.154 -2.121,-1.154 -2.002,0 -2.578,1.154 -2.578,2.98 l 0,4.19 2.281,0 0,-4.041 c 0,-0.927 0.404,-1.249 1.129,-1.249 0.496,0 1.248,0.322 1.248,1.557 l 0,3.733 L 0,6.969 0,0 z"
             style="fill:#000000;fill-opacity:1;fill-rule:nonzero;stroke:none"
             id="path3301"
             inkscape:connector-curvature="0" /></g><g
           id="g3303"
           transform="translate(624.0742,-15.0615)"><path
             d="m 0,0 c 0,-0.349 0.146,-0.604 0.375,-0.778 0.215,-0.162 0.523,-0.243 0.846,-0.243 0.443,0 1.074,0.188 1.074,0.74 0,0.537 -0.711,0.643 -1.113,0.737 -1.438,0.363 -3.239,0.403 -3.239,2.284 0,1.679 1.813,2.135 3.184,2.135 1.531,0 3.129,-0.443 3.211,-2.257 l -2.109,0 c 0,0.296 -0.108,0.485 -0.295,0.605 -0.188,0.121 -0.446,0.174 -0.727,0.174 -0.375,0 -0.978,-0.04 -0.978,-0.523 0,-0.658 1.531,-0.779 2.578,-1.007 1.41,-0.282 1.771,-1.303 1.771,-1.881 0,-1.866 -1.771,-2.483 -3.344,-2.483 -1.652,0 -3.343,0.551 -3.41,2.497 L 0,0 z"
             style="fill:#000000;fill-opacity:1;fill-rule:nonzero;stroke:none"
             id="path3305"
             inkscape:connector-curvature="0" /></g><g
           id="g3307"
           transform="translate(634.5449,-13.1543)"><path
             d="M 0,0 C -0.039,0.779 -0.59,1.423 -1.355,1.423 -2.162,1.423 -2.697,0.846 -2.834,0 L 0,0 z m -2.834,-1.275 c 0.041,-0.954 0.592,-1.585 1.559,-1.585 0.55,0 1.086,0.255 1.302,0.765 l 2.135,0 c -0.416,-1.612 -1.906,-2.309 -3.465,-2.309 -2.267,0 -3.812,1.369 -3.812,3.706 0,2.135 1.705,3.666 3.76,3.666 2.498,0 3.746,-1.881 3.638,-4.243 l -5.117,0 z"
             style="fill:#000000;fill-opacity:1;fill-rule:nonzero;stroke:none"
             id="path3309"
             inkscape:connector-curvature="0" /></g><path
           d="m 638.074,-14.859 2.498,0 0,-2.498 -2.498,0 0,2.498 z"
           style="fill:#000000;fill-opacity:1;fill-rule:nonzero;stroke:none"
           id="path3311"
           inkscape:connector-curvature="0" /></g></g><g
       id="g3645"
       transform="matrix(0.67216466,0,0,0.67216466,-9.0286901,-88.664815)"><g
         id="g3647" /><g
         id="g3685"><g
           clip-path="url(#clipPath3649)"
           id="g3687"><g
             id="g3689"><g
               id="g3691" /><g
               id="g3693"><g
                 clip-path="url(#clipPath3653)"
                 id="g3695"><g
                   transform="translate(121.7881,145.2451)"
                   id="g3697"><path
                     d="m 0,0 c -55.963,0 -101.492,45.529 -101.492,101.493 0,55.962 45.529,101.491 101.492,101.491 27.488,0 56.879,-15.448 87.358,-45.913 22.645,-22.637 37.577,-45.446 39.205,-47.972 l 4.749,-7.37 -4.537,-7.502 C 125.242,91.689 111.144,68.778 88.865,46.054 58.909,15.494 29.01,0 0,0"
                     style="fill:#ffffff;fill-opacity:1;fill-rule:nonzero;stroke:none"
                     id="path3699"
                     inkscape:connector-curvature="0" /></g></g></g></g><g
             id="g3701"><g
               id="g3703" /><g
               id="g3705"><g
                 clip-path="url(#clipPath3657)"
                 id="g3707"><g
                   transform="translate(121.7881,347.4033)"
                   id="g3709"><path
                     d="m 0,0 c 27.958,0 57.371,-16.304 86.677,-45.575 22.171,-22.143 36.949,-44.506 38.982,-47.617 0.112,-0.166 1.27,-1.961 1.297,-2.001 l 3.383,-5.249 -3.028,-5.006 c -0.021,-0.035 -1.315,-2.175 -1.397,-2.305 -1.862,-3.043 -15.83,-25.536 -37.673,-47.809 C 59.43,-184.942 29.547,-201.331 0,-201.331 c -55.508,0 -100.667,45.158 -100.667,100.665 C -100.667,-45.159 -55.508,0 0,0"
                     style="fill:#fbfcfc;fill-opacity:1;fill-rule:nonzero;stroke:none"
                     id="path3711"
                     inkscape:connector-curvature="0" /></g></g></g></g><g
             id="g3713"><g
               id="g3715" /><g
               id="g3717"><g
                 clip-path="url(#clipPath3661)"
                 id="g3719"><g
                   transform="translate(121.7881,346.5771)"
                   id="g3721"><path
                     d="m 0,0 c 28.429,0 57.862,-17.16 85.997,-45.237 21.697,-21.649 36.322,-43.565 38.76,-47.261 0.224,-0.333 1.271,-1.955 1.323,-2.036 l 3.285,-5.096 -2.968,-4.908 c -0.042,-0.068 -1.181,-1.951 -1.344,-2.211 -2.192,-3.548 -16.029,-25.623 -37.438,-47.443 C 59.953,-182.396 30.084,-199.68 0,-199.68 c -55.053,0 -99.841,44.788 -99.841,99.841 C -99.841,-44.788 -55.053,0 0,0"
                     style="fill:#f8f8f8;fill-opacity:1;fill-rule:nonzero;stroke:none"
                     id="path3723"
                     inkscape:connector-curvature="0" /></g></g></g></g><g
             id="g3725"><g
               id="g3727" /><g
               id="g3729"><g
                 clip-path="url(#clipPath3665)"
                 id="g3731"><g
                   transform="translate(121.7881,345.751)"
                   id="g3733"><path
                     d="m 0,0 c 28.899,0 58.354,-18.016 85.316,-44.899 21.223,-21.156 35.696,-42.625 38.538,-46.905 0.336,-0.499 1.272,-1.95 1.35,-2.071 l 3.187,-4.942 -2.908,-4.81 c -0.063,-0.103 -1.047,-1.729 -1.292,-2.116 -2.521,-4.056 -16.227,-25.711 -37.2,-47.082 C 60.475,-179.847 30.622,-198.027 0,-198.027 c -54.597,0 -99.015,44.417 -99.015,99.014 C -99.015,-44.417 -54.597,0 0,0"
                     style="fill:#f4f5f5;fill-opacity:1;fill-rule:nonzero;stroke:none"
                     id="path3735"
                     inkscape:connector-curvature="0" /></g></g></g></g><g
             id="g3737"><g
               id="g3739" /><g
               id="g3741"><g
                 clip-path="url(#clipPath3669)"
                 id="g3743"><g
                   transform="translate(121.7881,344.9253)"
                   id="g3745"><path
                     d="m 0,0 c 29.369,0 58.845,-18.872 84.636,-44.562 20.749,-20.661 35.068,-41.684 38.315,-46.548 0.448,-0.666 1.274,-1.944 1.378,-2.105 l 3.088,-4.791 -2.848,-4.709 c -0.084,-0.139 -0.913,-1.507 -1.239,-2.024 -2.85,-4.561 -16.426,-25.8 -36.964,-46.718 -25.37,-25.842 -55.207,-44.919 -86.366,-44.919 -54.142,0 -98.189,44.046 -98.189,98.188 C -98.189,-44.047 -54.142,0 0,0"
                     style="fill:#f1f1f2;fill-opacity:1;fill-rule:nonzero;stroke:none"
                     id="path3747"
                     inkscape:connector-curvature="0" /></g></g></g></g><g
             id="g3749"><g
               id="g3751" /><g
               id="g3753"><g
                 clip-path="url(#clipPath3673)"
                 id="g3755"><g
                   transform="translate(121.7881,344.0996)"
                   id="g3757"><path
                     d="m 0,0 c 29.84,0 59.336,-19.729 83.956,-44.224 20.274,-20.168 34.44,-40.744 38.092,-46.193 0.561,-0.833 1.276,-1.937 1.405,-2.139 l 2.991,-4.638 -2.789,-4.612 c -0.105,-0.173 -0.779,-1.283 -1.186,-1.929 -3.179,-5.069 -16.625,-25.886 -36.728,-46.353 C 61.518,-174.752 31.695,-194.724 0,-194.724 c -53.686,0 -97.363,43.676 -97.363,97.362 C -97.363,-43.677 -53.686,0 0,0"
                     style="fill:#edeeef;fill-opacity:1;fill-rule:nonzero;stroke:none"
                     id="path3759"
                     inkscape:connector-curvature="0" /></g></g></g></g><g
             id="g3761"><g
               id="g3763" /><g
               id="g3765"><g
                 clip-path="url(#clipPath3677)"
                 id="g3767"><g
                   transform="translate(121.7881,343.2734)"
                   id="g3769"><path
                     d="m 0,0 c 30.31,0 59.828,-20.584 83.275,-43.886 19.8,-19.674 33.813,-39.802 37.87,-45.837 0.673,-0.999 1.277,-1.931 1.433,-2.173 l 2.893,-4.486 -2.729,-4.513 c -0.126,-0.207 -0.645,-1.061 -1.135,-1.835 -3.508,-5.575 -16.823,-25.975 -36.491,-45.989 C 62.041,-172.205 32.233,-193.072 0,-193.072 c -53.23,0 -96.537,43.305 -96.537,96.536 C -96.537,-43.306 -53.23,0 0,0"
                     style="fill:#eaeaeb;fill-opacity:1;fill-rule:nonzero;stroke:none"
                     id="path3771"
                     inkscape:connector-curvature="0" /></g></g></g></g><g
             id="g3773"><g
               id="g3775" /><g
               id="g3777"><g
                 clip-path="url(#clipPath3681)"
                 id="g3779"><g
                   transform="translate(121.7881,151.0264)"
                   id="g3781"><path
                     d="m 0,0 c -52.775,0 -95.711,42.937 -95.711,95.711 0,52.775 42.936,95.71 95.711,95.71 62.185,0 119.301,-87.51 121.703,-91.236 l 2.794,-4.334 -2.669,-4.413 C 119.571,87.704 65.785,0 0,0"
                     style="fill:#e6e7e8;fill-opacity:1;fill-rule:nonzero;stroke:none"
                     id="path3783"
                     inkscape:connector-curvature="0" /></g></g></g></g></g></g></g><g
       id="g3785"
       transform="matrix(0.67216466,0,0,0.67216466,154.63715,80.190608)"><path
         d="m 0,0 c -2.401,3.726 -59.518,91.236 -121.703,91.236 -52.775,0 -95.711,-42.935 -95.711,-95.71 0,-52.775 42.936,-95.711 95.711,-95.711 65.785,0 119.571,87.704 121.828,91.438 L 2.794,-4.334 0,0 z"
         style="fill:#00a14b;fill-opacity:1;fill-rule:nonzero;stroke:none"
         id="path3787"
         inkscape:connector-curvature="0" /></g><g
       id="g3789"
       transform="matrix(0.67216466,0,0,0.67216466,72.832967,12.849792)"><path
         d="m 0,0 c -52.775,0 -95.711,42.937 -95.711,95.711 0,52.775 42.936,95.71 95.711,95.71 62.185,0 119.301,-87.51 121.703,-91.236 l 2.794,-4.334 -2.669,-4.413 C 119.571,87.704 65.785,0 0,0"
         style="fill:#f1f1f2;fill-opacity:1;fill-rule:nonzero;stroke:none"
         id="path3791"
         inkscape:connector-curvature="0" /></g><g
       id="g3793"
       transform="matrix(0.67216466,0,0,0.67216466,149.97072,77.183612)"><path
         d="m 0,0 c 0,0 -52.877,-87.453 -114.76,-87.453 -48.299,0 -87.451,39.155 -87.451,87.453 0,48.297 39.152,87.45 87.451,87.45 C -56.363,87.45 0,0 0,0"
         style="fill:#f1f1f2;fill-opacity:1;fill-rule:nonzero;stroke:none"
         id="path3795"
         inkscape:connector-curvature="0" /></g><g
       id="g3797"
       transform="matrix(0.67216466,0,0,0.67216466,149.97072,77.183612)"
       style="fill:#6bc6c0;fill-opacity:1"><path
         d="m 0,0 c 0,0 -52.877,-87.453 -114.76,-87.453 -48.299,0 -87.451,39.155 -87.451,87.453 0,48.297 39.152,87.45 87.451,87.45 C -56.363,87.45 0,0 0,0"
         style="fill:#6bc6c0;fill-opacity:1;fill-rule:nonzero;stroke:none"
         id="path3799"
         inkscape:connector-curvature="0" /></g><g
       transform="matrix(0.87564093,0,0,-0.87564093,-177.77528,-141.61624)"
       style="font-size:32px;font-style:normal;font-variant:normal;font-weight:normal;font-stretch:normal;text-align:start;line-height:125%;letter-spacing:0px;word-spacing:0px;writing-mode:lr-tb;text-anchor:start;fill:#ffffff;fill-opacity:1;stroke:none;font-family:FZLanTingHeiS-UL-GB;-inkscape-font-specification:FZLanTingHeiS-UL-GB"
       id="text4954"><path
         d="m 247.29048,-255.06029 22.375,0 0,5.625 -10.875,0 0,4.375 12.25,0 -0.25,4.125 c -0.25003,1.75 -1.54169,2.625 -3.875,2.625 -1.50002,0 -3.04169,-0.0417 -4.625,-0.125 l 0,-0.375 c 1.58331,0.0833 3.12498,0.125 4.625,0.125 1.99998,0.0833 3.08331,-0.70833 3.25,-2.375 l 0.25,-3.375 -11.625,0 0,9 -0.625,0 0,-8.75 c -2.50001,2.83334 -7.16667,5.29167 -14,7.375 l -0.25,-0.5 c 6.58333,-2.08333 11.16666,-4.45833 13.75,-7.125 l -11.125,0 0.75,-5.5 10.875,0 0,-4.5 -10.875,0 z m 21.75,0.625 -10.25,0 0,4.5 10.25,0 z m -21.125,5 -0.625,4.375 10.875,0 0,-4.375 z m -3.875,-6.125 c 2.58333,-2.74998 4.66666,-5.70831 6.25,-8.875 l 0.625,0.25 c -0.50001,1.00003 -1.16667,2.12503 -2,3.375 l 10.125,0 0,0.5 -10.5,0 c -1.5,2.33336 -2.875,4.04169 -4.125,5.125 z m 14.125,-1 c 1.91665,-2.24998 3.54165,-4.83331 4.875,-7.75 l 0.5,0.125 c -0.16669,0.33336 -0.41669,0.87503 -0.75,1.625 -0.41668,0.75003 -0.70835,1.33336 -0.875,1.75 l 11.25,0 0,0.5 -11.625,0 c -0.91668,1.50002 -1.87502,2.87502 -2.875,4.125 z m -7.25,-2.5 0.5,-0.375 2.75,2.875 -0.5,0.375 z m 13.25,0.125 0.5,-0.375 3,2.75 -0.5,0.5 z"
         id="path4959"
         inkscape:connector-curvature="0"
         style="fill:#ffffff" /><path
         d="m 275.79048,-250.81029 29.5,0 0,0.625 -29.5,0 z"
         id="path4961"
         inkscape:connector-curvature="0"
         style="fill:#ffffff" /><path
         d="m 323.29048,-264.43529 0.625,0 0,5.125 10.75,0 0,0.625 -10.75,0 0,5.625 13.25,0 0,0.625 -29.375,0 0,-0.625 6.25,0 0,-8.375 0.625,0 0,8.375 8.625,0 z m -14.875,28.5 c 11.74999,-2.16666 20.29165,-5.83333 25.625,-11 l 0.375,0.5 c -5.08335,5.08334 -13.70835,8.79167 -25.875,11.125 z m 0.625,-6.25 c 3.08333,-2.16666 5.79166,-4.37499 8.125,-6.625 l 0.5,0.5 c -2.16667,2.08334 -4.91667,4.29167 -8.25,6.625 z m 14,-8.625 0.5,0 0,8.75 -0.5,0 z"
         id="path4963"
         inkscape:connector-curvature="0"
         style="fill:#ffffff" /></g></g></svg>