<?xml version="1.0" encoding="UTF-8" standalone="no"?>
<!-- Created with Inkscape (http://www.inkscape.org/) -->

<svg
   xmlns:dc="http://purl.org/dc/elements/1.1/"
   xmlns:cc="http://creativecommons.org/ns#"
   xmlns:rdf="http://www.w3.org/1999/02/22-rdf-syntax-ns#"
   xmlns:svg="http://www.w3.org/2000/svg"
   xmlns="http://www.w3.org/2000/svg"
   xmlns:sodipodi="http://sodipodi.sourceforge.net/DTD/sodipodi-0.dtd"
   xmlns:inkscape="http://www.inkscape.org/namespaces/inkscape"
   id="svg2985"
   version="1.1"
   inkscape:version="0.48.0 r9654"
   width="229.69"
   height="116.82"
   xml:space="preserve"
   sodipodi:docname="step3.svg"><metadata
     id="metadata2991"><rdf:RDF><cc:Work
         rdf:about=""><dc:format>image/svg+xml</dc:format><dc:type
           rdf:resource="http://purl.org/dc/dcmitype/StillImage" /><dc:title></dc:title></cc:Work></rdf:RDF></metadata><defs
     id="defs2989"><linearGradient
   x1="0"
   y1="0"
   x2="1"
   y2="0"
   gradientUnits="userSpaceOnUse"
   gradientTransform="matrix(-1.53e-5,-493.4751,-493.4751,1.53e-5,329.23291,493.47461)"
   spreadMethod="pad"
   id="linearGradient3007"><stop
     style="stop-opacity:1;stop-color:#d8d8d8"
     offset="0"
     id="stop3009" /><stop
     style="stop-opacity:1;stop-color:#464646"
     offset="1"
     id="stop3011" /></linearGradient><clipPath
   clipPathUnits="userSpaceOnUse"
   id="clipPath3019"><path
     d="m 0,493.475 658.467,0 L 658.467,0 0,0 0,493.475 z"
     id="path3021"
     inkscape:connector-curvature="0" /></clipPath><clipPath
   clipPathUnits="userSpaceOnUse"
   id="clipPath3317"><path
     d="m 0,493.475 658.467,0 L 658.467,0 0,0 0,493.475 z"
     id="path3319"
     inkscape:connector-curvature="0" /></clipPath><clipPath
   clipPathUnits="userSpaceOnUse"
   id="clipPath3325"><path
     d="m 405.367,348.229 232.804,0 0,-202.984 -232.804,0 0,202.984 z"
     id="path3327"
     inkscape:connector-curvature="0" /></clipPath><clipPath
   clipPathUnits="userSpaceOnUse"
   id="clipPath3329"><path
     d="m 405.367,348.229 232.804,0 0,-202.984 -232.804,0 0,202.984 z"
     id="path3331"
     inkscape:connector-curvature="0" /></clipPath><clipPath
   clipPathUnits="userSpaceOnUse"
   id="clipPath3333"><path
     d="m 406.193,347.403 231.005,0 0,-201.331 -231.005,0 0,201.331 z"
     id="path3335"
     inkscape:connector-curvature="0" /></clipPath><clipPath
   clipPathUnits="userSpaceOnUse"
   id="clipPath3337"><path
     d="m 407.019,346.577 229.206,0 0,-199.68 -229.206,0 0,199.68 z"
     id="path3339"
     inkscape:connector-curvature="0" /></clipPath><clipPath
   clipPathUnits="userSpaceOnUse"
   id="clipPath3341"><path
     d="m 407.844,345.751 227.406,0 0,-198.027 -227.406,0 0,198.027 z"
     id="path3343"
     inkscape:connector-curvature="0" /></clipPath><clipPath
   clipPathUnits="userSpaceOnUse"
   id="clipPath3345"><path
     d="m 408.67,344.925 225.607,0 0,-196.376 -225.607,0 0,196.376 z"
     id="path3347"
     inkscape:connector-curvature="0" /></clipPath><clipPath
   clipPathUnits="userSpaceOnUse"
   id="clipPath3349"><path
     d="m 409.496,344.099 223.807,0 0,-194.724 -223.807,0 0,194.724 z"
     id="path3351"
     inkscape:connector-curvature="0" /></clipPath><clipPath
   clipPathUnits="userSpaceOnUse"
   id="clipPath3353"><path
     d="m 410.322,343.273 222.007,0 0,-193.072 -222.007,0 0,193.072 z"
     id="path3355"
     inkscape:connector-curvature="0" /></clipPath><clipPath
   clipPathUnits="userSpaceOnUse"
   id="clipPath3357"><path
     d="m 411.148,342.448 220.207,0 0,-191.422 -220.207,0 0,191.422 z"
     id="path3359"
     inkscape:connector-curvature="0" /></clipPath><clipPath
   clipPathUnits="userSpaceOnUse"
   id="clipPath3487"><path
     d="m 212.831,348.229 232.805,0 0,-202.984 -232.805,0 0,202.984 z"
     id="path3489"
     inkscape:connector-curvature="0" /></clipPath><clipPath
   clipPathUnits="userSpaceOnUse"
   id="clipPath3491"><path
     d="m 212.831,348.229 232.805,0 0,-202.984 -232.805,0 0,202.984 z"
     id="path3493"
     inkscape:connector-curvature="0" /></clipPath><clipPath
   clipPathUnits="userSpaceOnUse"
   id="clipPath3495"><path
     d="m 213.657,347.403 231.005,0 0,-201.331 -231.005,0 0,201.331 z"
     id="path3497"
     inkscape:connector-curvature="0" /></clipPath><clipPath
   clipPathUnits="userSpaceOnUse"
   id="clipPath3499"><path
     d="m 214.483,346.577 229.204,0 0,-199.68 -229.204,0 0,199.68 z"
     id="path3501"
     inkscape:connector-curvature="0" /></clipPath><clipPath
   clipPathUnits="userSpaceOnUse"
   id="clipPath3503"><path
     d="m 215.31,345.751 227.405,0 0,-198.027 -227.405,0 0,198.027 z"
     id="path3505"
     inkscape:connector-curvature="0" /></clipPath><clipPath
   clipPathUnits="userSpaceOnUse"
   id="clipPath3507"><path
     d="m 216.135,344.925 225.606,0 0,-196.376 -225.606,0 0,196.376 z"
     id="path3509"
     inkscape:connector-curvature="0" /></clipPath><clipPath
   clipPathUnits="userSpaceOnUse"
   id="clipPath3511"><path
     d="m 216.961,344.1 223.807,0 0,-194.724 -223.807,0 0,194.724 z"
     id="path3513"
     inkscape:connector-curvature="0" /></clipPath><clipPath
   clipPathUnits="userSpaceOnUse"
   id="clipPath3515"><path
     d="m 217.787,343.273 222.007,0 0,-193.072 -222.007,0 0,193.072 z"
     id="path3517"
     inkscape:connector-curvature="0" /></clipPath><clipPath
   clipPathUnits="userSpaceOnUse"
   id="clipPath3519"><path
     d="m 218.613,342.448 220.207,0 0,-191.422 -220.207,0 0,191.422 z"
     id="path3521"
     inkscape:connector-curvature="0" /></clipPath><clipPath
   clipPathUnits="userSpaceOnUse"
   id="clipPath3649"><path
     d="m 20.2959,348.229 232.8041,0 0,-202.984 -232.8041,0 0,202.984 z"
     id="path3651"
     inkscape:connector-curvature="0" /></clipPath><clipPath
   clipPathUnits="userSpaceOnUse"
   id="clipPath3653"><path
     d="m 20.2959,348.229 232.8041,0 0,-202.984 -232.8041,0 0,202.984 z"
     id="path3655"
     inkscape:connector-curvature="0" /></clipPath><clipPath
   clipPathUnits="userSpaceOnUse"
   id="clipPath3657"><path
     d="m 21.1216,347.403 231.0054,0 0,-201.331 -231.0054,0 0,201.331 z"
     id="path3659"
     inkscape:connector-curvature="0" /></clipPath><clipPath
   clipPathUnits="userSpaceOnUse"
   id="clipPath3661"><path
     d="m 21.9473,346.577 229.2057,0 0,-199.68 -229.2057,0 0,199.68 z"
     id="path3663"
     inkscape:connector-curvature="0" /></clipPath><clipPath
   clipPathUnits="userSpaceOnUse"
   id="clipPath3665"><path
     d="m 22.7729,345.751 227.4061,0 0,-198.027 -227.4061,0 0,198.027 z"
     id="path3667"
     inkscape:connector-curvature="0" /></clipPath><clipPath
   clipPathUnits="userSpaceOnUse"
   id="clipPath3669"><path
     d="m 23.5991,344.925 225.6069,0 0,-196.376 -225.6069,0 0,196.376 z"
     id="path3671"
     inkscape:connector-curvature="0" /></clipPath><clipPath
   clipPathUnits="userSpaceOnUse"
   id="clipPath3673"><path
     d="m 24.4253,344.1 223.8067,0 0,-194.724 -223.8067,0 0,194.724 z"
     id="path3675"
     inkscape:connector-curvature="0" /></clipPath><clipPath
   clipPathUnits="userSpaceOnUse"
   id="clipPath3677"><path
     d="m 25.251,343.273 222.008,0 0,-193.072 -222.008,0 0,193.072 z"
     id="path3679"
     inkscape:connector-curvature="0" /></clipPath><clipPath
   clipPathUnits="userSpaceOnUse"
   id="clipPath3681"><path
     d="m 26.0771,342.448 220.2079,0 0,-191.422 -220.2079,0 0,191.422 z"
     id="path3683"
     inkscape:connector-curvature="0" /></clipPath>
</defs><sodipodi:namedview
     pagecolor="#ffffff"
     bordercolor="#666666"
     borderopacity="1"
     objecttolerance="10"
     gridtolerance="10"
     guidetolerance="10"
     inkscape:pageopacity="0"
     inkscape:pageshadow="2"
     inkscape:window-width="1680"
     inkscape:window-height="975"
     id="namedview2987"
     showgrid="false"
     inkscape:zoom="1.2922377"
     inkscape:cx="406.53489"
     inkscape:cy="28.13278"
     inkscape:window-x="-9"
     inkscape:window-y="-9"
     inkscape:window-maximized="1"
     inkscape:current-layer="g2993" /><g
     id="g2993"
     inkscape:groupmode="layer"
     inkscape:label="FreeVector-ABC-Icons"
     transform="matrix(1.25,0,0,-1.25,0,116.81997)"><g
   id="g3015"><g
     id="g3017"
     clip-path="url(#clipPath3019)"><g
       id="g3023"
       transform="translate(125.1118,-10.8184)"><path
         d="m 0,0 c -0.02,0.858 -0.779,1.464 -1.62,1.464 -1.852,0 -2.145,-1.579 -2.145,-2.984 0,-1.305 0.567,-2.652 1.973,-2.652 1.147,0 1.733,0.662 1.89,1.734 l 3.218,0 c -0.293,-2.708 -2.4,-4.271 -5.091,-4.271 -3.041,0 -5.304,2.089 -5.304,5.189 0,3.219 2.048,5.521 5.304,5.521 C 0.741,4.001 2.983,2.673 3.219,0 L 0,0 z"
         style="fill:#000000;fill-opacity:1;fill-rule:nonzero;stroke:none"
         id="path3025"
         inkscape:connector-curvature="0" /></g><g
       id="g3027"
       transform="translate(133.7192,-6.8926)"><path
         d="m 0,0 c -3.126,0 -5.303,-2.313 -5.303,-5.345 0,-3.029 2.177,-5.324 5.303,-5.324 3.127,0 5.326,2.295 5.326,5.324 C 5.326,-2.313 3.127,0 0,0"
         style="fill:#000000;fill-opacity:1;fill-rule:nonzero;stroke:none"
         id="path3029"
         inkscape:connector-curvature="0" /></g><g
       id="g3031"
       transform="translate(116.3755,-14.3965)"><path
         d="m 0,0 c -0.86,0 -1.458,-0.636 -1.458,-1.468 0,-0.833 0.598,-1.462 1.458,-1.462 0.859,0 1.461,0.629 1.461,1.462 C 1.461,-0.636 0.859,0 0,0"
         style="fill:#000000;fill-opacity:1;fill-rule:nonzero;stroke:none"
         id="path3033"
         inkscape:connector-curvature="0" /></g><g
       id="g3035"
       transform="translate(139.2764,-7.54)"><path
         d="m 0,0 3.139,0 0,-1.352 0.037,0 c 0.591,0.991 1.635,1.637 2.835,1.637 1.235,0 2.338,-0.398 2.87,-1.598 0.781,1.046 1.749,1.598 3.081,1.598 3.139,0 3.48,-2.377 3.48,-4.262 l 0,-5.892 -3.234,0 0,5.8 c 0,1.064 -0.512,1.69 -1.349,1.69 -1.388,0 -1.521,-1.062 -1.521,-2.661 l 0,-4.829 -3.233,0 0,5.609 c 0,1.159 -0.343,1.881 -1.216,1.881 -1.162,0 -1.654,-0.665 -1.654,-2.681 l 0,-4.809 L 0,-9.869 0,0 z"
         style="fill:#000000;fill-opacity:1;fill-rule:nonzero;stroke:none"
         id="path3037"
         inkscape:connector-curvature="0" /></g><g
       id="g3039"
       transform="translate(73.5513,-17.3057)"><path
         d="m 0,0 -3.686,0 -3.256,9.762 3.33,0 1.786,-6.454 0.038,0 1.807,6.454 3.257,0 L 0,0 z"
         style="fill:#000000;fill-opacity:1;fill-rule:nonzero;stroke:none"
         id="path3041"
         inkscape:connector-curvature="0" /></g><g
       id="g3043"
       transform="translate(78.5659,-13.208)"><path
         d="m 0,0 c 0.056,-1.335 0.831,-2.219 2.184,-2.219 0.767,0 1.52,0.361 1.818,1.073 l 2.993,0 C 6.414,-3.403 4.324,-4.383 2.142,-4.383 c -3.177,0 -5.341,1.922 -5.341,5.193 0,2.99 2.392,5.133 5.267,5.133 3.498,0 5.25,-2.631 5.1,-5.943 L 0,0 z"
         style="fill:#000000;fill-opacity:1;fill-rule:nonzero;stroke:none"
         id="path3045"
         inkscape:connector-curvature="0" /></g><g
       id="g3047"
       transform="translate(92.5742,-11.1182)"><path
         d="m 0,0 c -0.02,0.827 -0.752,1.412 -1.562,1.412 -1.788,0 -2.068,-1.528 -2.068,-2.881 0,-1.261 0.547,-2.558 1.903,-2.558 1.107,0 1.668,0.64 1.823,1.676 l 3.1,0 c -0.279,-2.614 -2.314,-4.122 -4.907,-4.122 -2.934,0 -5.113,2.014 -5.113,5.004 0,3.105 1.973,5.323 5.113,5.323 C 0.713,3.854 2.878,2.575 3.104,0 L 0,0 z"
         style="fill:#000000;fill-opacity:1;fill-rule:nonzero;stroke:none"
         id="path3049"
         inkscape:connector-curvature="0" /></g><g
       id="g3051"
       transform="translate(101.8462,-9.6143)"><path
         d="m 0,0 -1.971,0 0,-4.439 c 0,-0.772 0.451,-0.941 1.145,-0.941 0.262,0 0.548,0.039 0.826,0.039 l 0,-2.35 c -0.58,-0.018 -1.161,-0.096 -1.749,-0.096 -2.726,0 -3.422,0.79 -3.422,3.445 l 0,4.342 -1.617,0 0,2.07 1.617,0 0,2.952 3.2,0 0,-2.952 L 0,2.07 0,0 z"
         style="fill:#000000;fill-opacity:1;fill-rule:nonzero;stroke:none"
         id="path3053"
         inkscape:connector-curvature="0" /></g><g
       id="g3055"
       transform="translate(106.2373,-7.2646)"><path
         d="m 0,0 c -3.027,0 -5.135,-2.239 -5.135,-5.17 0,-2.935 2.108,-5.156 5.135,-5.156 3.027,0 5.153,2.221 5.153,5.156 C 5.153,-2.239 3.027,0 0,0"
         style="fill:#000000;fill-opacity:1;fill-rule:nonzero;stroke:none"
         id="path3057"
         inkscape:connector-curvature="0" /></g><g
       id="g3059"
       transform="translate(111.1758,-7.5439)"><path
         d="m 0,0 3.107,0 0,-1.711 0.035,0 c 0.47,1.236 1.558,1.899 2.933,1.899 0.243,0 0.507,-0.024 0.751,-0.074 l 0,-2.915 C 6.414,-2.693 6.038,-2.62 5.603,-2.62 4.024,-2.62 3.197,-3.708 3.197,-4.927 l 0,-4.835 L 0,-9.762 0,0 z"
         style="fill:#000000;fill-opacity:1;fill-rule:nonzero;stroke:none"
         id="path3061"
         inkscape:connector-curvature="0" /></g><g
       id="g3063"
       transform="translate(41.4951,-7.5439)"><path
         d="m 0,0 3.106,0 0,-1.711 0.037,0 c 0.468,1.236 1.561,1.899 2.935,1.899 0.244,0 0.509,-0.024 0.749,-0.074 l 0,-2.915 C 6.415,-2.693 6.042,-2.62 5.604,-2.62 4.029,-2.62 3.198,-3.708 3.198,-4.927 l 0,-4.835 L 0,-9.762 0,0 z"
         style="fill:#000000;fill-opacity:1;fill-rule:nonzero;stroke:none"
         id="path3065"
         inkscape:connector-curvature="0" /></g><g
       id="g3067"
       transform="translate(50.375,-13.208)"><path
         d="m 0,0 c 0.055,-1.335 0.825,-2.219 2.181,-2.219 0.769,0 1.524,0.361 1.823,1.073 l 2.993,0 C 6.411,-3.403 4.326,-4.383 2.145,-4.383 -1.036,-4.383 -3.2,-2.461 -3.2,0.81 -3.2,3.8 -0.81,5.943 2.07,5.943 5.568,5.943 7.315,3.312 7.166,0 L 0,0 z"
         style="fill:#000000;fill-opacity:1;fill-rule:nonzero;stroke:none"
         id="path3069"
         inkscape:connector-curvature="0" /></g><g
       id="g3071"
       transform="translate(60.458,-13.208)"><path
         d="m 0,0 c 0.055,-1.335 0.826,-2.219 2.182,-2.219 0.769,0 1.522,0.361 1.823,1.073 l 2.991,0 c -0.582,-2.257 -2.67,-3.237 -4.851,-3.237 -3.179,0 -5.341,1.922 -5.341,5.193 0,2.99 2.384,5.133 5.266,5.133 C 5.567,5.943 7.317,3.312 7.167,0 L 0,0 z"
         style="fill:#000000;fill-opacity:1;fill-rule:nonzero;stroke:none"
         id="path3073"
         inkscape:connector-curvature="0" /></g><g
       id="g3075"
       transform="translate(40.9141,-6.1377)"><path
         d="m 0,0 c 0.283,0 0.564,-0.018 0.864,-0.055 l 0,2.259 c -0.509,0.02 -1.035,0.055 -1.543,0.055 -2.725,0 -3.704,-0.865 -3.704,-3.665 l -1.541,0 0,-2.071 1.541,0 0,-7.691 3.195,0 0,7.691 1.919,0 0,2.071 -1.919,0 0,0.431 C -1.188,-0.092 -0.735,0 0,0"
         style="fill:#000000;fill-opacity:1;fill-rule:nonzero;stroke:none"
         id="path3077"
         inkscape:connector-curvature="0" /></g><g
       id="g3079"
       transform="translate(31.8374,-10.6475)"><path
         d="m 0,0 c 0,-3.982 -3.228,-7.212 -7.211,-7.212 -3.983,0 -7.212,3.23 -7.212,7.212 0,3.981 3.229,7.21 7.212,7.21 C -3.228,7.21 0,3.981 0,0"
         style="fill:#ffffff;fill-opacity:1;fill-rule:nonzero;stroke:none"
         id="path3081"
         inkscape:connector-curvature="0" /></g><g
       id="g3083"
       transform="translate(27.1284,-13.9258)"><path
         d="m 0,0 0.019,-0.013 c 0,0 -0.007,0.005 -0.013,0.01 -0.001,0 -0.004,0 -0.006,0.003 m -3.204,1.693 c -0.35,-0.123 -0.816,0.196 -1.023,0.356 -0.177,0.203 -1.242,1.338 -1.365,1.48 -0.266,0.307 -0.063,0.942 0.594,1.161 0.186,0.063 0.471,0.068 0.644,-0.125 0.776,-0.928 1.586,-1.918 1.646,-2.109 0.1,-0.333 -0.084,-0.62 -0.496,-0.763 m 0.682,8.825 c -0.659,0 -1.294,-0.086 -1.9,-0.246 0.249,-0.021 0.412,-0.178 0.497,-0.492 0,0 1.356,-4.485 1.518,-4.989 0.159,-0.506 0.35,-1.059 0.35,-1.059 C -2.164,3.643 -2.262,3.529 -2.336,3.38 -2.476,3.089 -2.552,2.853 -2.585,2.617 c -0.21,0.36 -1.033,1.368 -1.589,2.04 0,0 -0.036,0.446 -0.155,0.873 -0.12,0.425 -0.886,3.309 -0.886,3.309 C -5.351,9.375 -5.294,9.841 -5,10.094 -7.829,9.093 -9.854,6.425 -9.854,3.286 c 0,-2.85 1.674,-5.315 4.108,-6.493 -0.25,0.366 -0.538,0.937 -0.673,1.743 -0.224,1.325 -0.268,2.183 -0.436,2.922 -0.223,0.988 -0.156,1.217 0.184,1.652 0.168,0.215 0.359,0.348 0.537,0.407 0.178,0.047 0.362,-0.059 0.43,-0.135 C -5.276,2.924 -4.458,2.044 -4.358,1.919 -4.16,1.687 -4.133,1.395 -4.28,1.047 -4.338,0.906 -4.498,0.843 -4.623,0.813 -4.906,0.747 -5.227,0.806 -5.337,0.9 c -0.23,0.193 -1.35,1.217 -1.35,1.166 0,-0.269 0.833,-0.928 1.229,-1.305 0.161,-0.157 0.558,-0.201 0.879,-0.126 0.238,0.056 0.4,0.174 0.471,0.343 0.11,0.259 0.135,0.501 0.076,0.717 0.26,-0.15 0.595,-0.278 0.891,-0.176 0.288,0.1 0.462,0.255 0.556,0.422 0.019,-0.192 0.05,-0.407 0.091,-0.663 0.099,-0.646 0.22,-1.007 0.293,-1.222 0.027,-0.08 0.054,-0.163 0.051,-0.189 -0.002,-0.005 -0.005,-0.009 -0.011,-0.014 -0.17,-0.239 -0.422,-0.628 -0.582,-1.111 -0.106,-0.321 -0.186,-0.758 -0.196,-1.169 -0.005,-0.144 0,-0.367 0.042,-0.367 0.044,10e-4 0.038,0.228 0.054,0.367 0.045,0.416 0.112,0.835 0.233,1.137 0.159,0.392 0.37,0.712 0.6,1.035 0.01,0.012 0.015,0.021 0.02,0.026 0.053,0.079 0.024,0.166 -0.034,0.341 -0.072,0.211 -0.188,0.562 -0.288,1.195 -0.143,0.933 -0.198,1.284 0.145,1.993 0.276,0.576 1.01,0.583 1.168,0.517 0.061,-0.033 0.065,-0.384 0.072,-0.697 0.008,-0.349 0.015,-0.782 0.073,-1.309 0.072,-0.665 0.344,-1.184 0.589,-1.486 0.199,-0.24 0.358,-0.347 0.397,-0.31 0.037,0.036 -0.136,0.167 -0.313,0.443 -0.196,0.304 -0.421,0.763 -0.488,1.373 -0.058,0.517 -0.065,0.948 -0.071,1.294 -0.012,0.526 -0.016,0.789 -0.187,0.86 -0.085,0.037 -0.264,0.057 -0.47,0.03 l 1.353,4.533 c 0.236,0.817 0.485,1.151 1.007,1.098 0.005,0 0.01,-0.004 0.017,-0.005 -1.041,0.558 -2.233,0.877 -3.502,0.877"
         style="fill:#000000;fill-opacity:1;fill-rule:nonzero;stroke:none"
         id="path3085"
         inkscape:connector-curvature="0" /></g><g
       id="g3087"
       transform="translate(28.5015,-4.5146)"><path
         d="m 0,0 c 0.174,-0.181 0.245,-0.433 0.171,-0.7 l -1.215,-5.404 c -0.074,-0.419 -0.197,-1.288 -0.086,-1.881 0.149,-0.809 0.468,-1.9 0.235,-3.106 -0.125,-0.64 -0.318,-1.336 -0.641,-1.878 2.889,0.969 4.97,3.667 4.97,6.844 C 3.434,-3.544 2.063,-1.279 0,0"
         style="fill:#000000;fill-opacity:1;fill-rule:nonzero;stroke:none"
         id="path3089"
         inkscape:connector-curvature="0" /></g><path
       d="m 169.155,-7.771 2.498,0 0,-9.587 -2.498,0 0,9.587 z"
       style="fill:#000000;fill-opacity:1;fill-rule:nonzero;stroke:none"
       id="path3091"
       inkscape:connector-curvature="0" /><g
       id="g3093"
       transform="translate(173.2896,-10.3887)"><path
         d="m 0,0 2.215,0 0,-0.953 0.027,0 c 0.416,0.699 1.155,1.155 2.001,1.155 0.873,0 1.652,-0.282 2.028,-1.128 0.55,0.738 1.235,1.128 2.175,1.128 2.216,0 2.457,-1.679 2.457,-3.008 l 0,-4.163 -2.282,0 0,4.096 c 0,0.752 -0.363,1.194 -0.954,1.194 -0.98,0 -1.074,-0.751 -1.074,-1.879 l 0,-3.411 -2.283,0 0,3.961 c 0,0.82 -0.242,1.329 -0.859,1.329 -0.819,0 -1.169,-0.469 -1.169,-1.892 l 0,-3.398 L 0,-6.969 0,0 z"
         style="fill:#000000;fill-opacity:1;fill-rule:nonzero;stroke:none"
         id="path3095"
         inkscape:connector-curvature="0" /></g><g
       id="g3097"
       transform="translate(188.5796,-16.1484)"><path
         d="M 0,0 C 1.088,0 1.451,0.617 1.396,2.055 1.075,1.853 0.483,1.813 -0.013,1.678 -0.524,1.557 -0.954,1.343 -0.954,0.792 -0.954,0.228 -0.51,0 0,0 m -2.954,3.611 c 0.04,0.913 0.47,1.505 1.087,1.868 0.618,0.348 1.424,0.483 2.216,0.483 1.652,0 3.25,-0.362 3.25,-2.337 l 0,-3.048 c 0,-0.591 0,-1.236 0.269,-1.786 l -2.297,0 c -0.08,0.214 -0.107,0.43 -0.134,0.658 -0.591,-0.618 -1.463,-0.859 -2.296,-0.859 -1.329,0 -2.377,0.671 -2.377,2.107 0,2.271 2.47,2.095 4.055,2.417 0.389,0.081 0.605,0.216 0.605,0.646 0,0.523 -0.632,0.724 -1.102,0.724 -0.631,0 -1.033,-0.281 -1.141,-0.873 l -2.135,0 z"
         style="fill:#000000;fill-opacity:1;fill-rule:nonzero;stroke:none"
         id="path3099"
         inkscape:connector-curvature="0" /></g><g
       id="g3101"
       transform="translate(196.8892,-11.9326)"><path
         d="m 0,0 c -1.007,0 -1.33,-0.886 -1.33,-1.745 0,-0.819 0.376,-1.639 1.316,-1.639 0.967,0 1.384,0.751 1.384,1.625 C 1.37,-0.872 1.02,0 0,0 m 3.532,-4.579 c 0,-1.142 -0.215,-3.29 -3.478,-3.29 -1.625,0 -3.156,0.362 -3.425,2.229 l 2.283,0 c 0.054,-0.308 0.174,-0.497 0.389,-0.604 0.202,-0.108 0.484,-0.148 0.833,-0.148 1.088,0 1.196,0.766 1.196,1.625 l 0,0.658 -0.027,0 c -0.417,-0.644 -1.115,-1.02 -1.854,-1.02 -2.108,0 -3.061,1.503 -3.061,3.464 0,1.853 1.088,3.411 3.061,3.411 0.833,0 1.464,-0.362 1.867,-1.075 l 0.027,0 0,0.873 2.189,0 0,-6.123 z"
         style="fill:#000000;fill-opacity:1;fill-rule:nonzero;stroke:none"
         id="path3103"
         inkscape:connector-curvature="0" /></g><g
       id="g3105"
       transform="translate(206.6621,-13.1543)"><path
         d="M 0,0 C -0.041,0.779 -0.591,1.423 -1.357,1.423 -2.162,1.423 -2.7,0.846 -2.833,0 L 0,0 z m -2.833,-1.275 c 0.04,-0.954 0.59,-1.585 1.557,-1.585 0.55,0 1.088,0.255 1.303,0.765 l 2.135,0 c -0.416,-1.612 -1.907,-2.309 -3.465,-2.309 -2.269,0 -3.813,1.369 -3.813,3.706 0,2.135 1.705,3.666 3.759,3.666 2.498,0 3.747,-1.881 3.639,-4.243 l -5.115,0 z"
         style="fill:#000000;fill-opacity:1;fill-rule:nonzero;stroke:none"
         id="path3107"
         inkscape:connector-curvature="0" /></g><g
       id="g3109"
       transform="translate(211.856,-15.0615)"><path
         d="m 0,0 c 0,-0.349 0.147,-0.604 0.376,-0.778 0.215,-0.162 0.523,-0.243 0.846,-0.243 0.443,0 1.074,0.188 1.074,0.74 0,0.537 -0.712,0.643 -1.115,0.737 -1.436,0.363 -3.236,0.403 -3.236,2.284 0,1.679 1.813,2.135 3.182,2.135 1.531,0 3.13,-0.443 3.21,-2.257 l -2.108,0 c 0,0.296 -0.107,0.485 -0.295,0.605 -0.188,0.121 -0.444,0.174 -0.726,0.174 -0.375,0 -0.98,-0.04 -0.98,-0.523 0,-0.658 1.531,-0.779 2.578,-1.007 1.41,-0.282 1.773,-1.303 1.773,-1.881 0,-1.866 -1.773,-2.483 -3.344,-2.483 -1.652,0 -3.343,0.551 -3.41,2.497 L 0,0 z"
         style="fill:#000000;fill-opacity:1;fill-rule:nonzero;stroke:none"
         id="path3111"
         inkscape:connector-curvature="0" /></g><g
       id="g3113"
       transform="translate(224.6348,-16.1484)"><path
         d="M 0,0 C 1.088,0 1.451,0.617 1.396,2.055 1.075,1.853 0.483,1.813 -0.013,1.678 -0.524,1.557 -0.954,1.343 -0.954,0.792 -0.954,0.228 -0.51,0 0,0 m -2.954,3.611 c 0.04,0.913 0.47,1.505 1.087,1.868 0.618,0.348 1.424,0.483 2.216,0.483 1.652,0 3.25,-0.362 3.25,-2.337 l 0,-3.048 c 0,-0.591 0,-1.236 0.269,-1.786 l -2.297,0 c -0.08,0.214 -0.107,0.43 -0.134,0.658 -0.591,-0.618 -1.463,-0.859 -2.296,-0.859 -1.329,0 -2.377,0.671 -2.377,2.107 0,2.271 2.47,2.095 4.055,2.417 0.389,0.081 0.605,0.216 0.605,0.646 0,0.523 -0.632,0.724 -1.102,0.724 -0.631,0 -1.033,-0.281 -1.141,-0.873 l -2.135,0 z"
         style="fill:#000000;fill-opacity:1;fill-rule:nonzero;stroke:none"
         id="path3115"
         inkscape:connector-curvature="0" /></g><g
       id="g3117"
       transform="translate(229.8154,-10.3887)"><path
         d="m 0,0 2.215,0 0,-1.222 0.027,0 c 0.336,0.886 1.115,1.357 2.095,1.357 0.175,0 0.363,-0.014 0.538,-0.054 l 0,-2.081 c -0.296,0.08 -0.564,0.134 -0.873,0.134 -1.128,0 -1.719,-0.78 -1.719,-1.652 l 0,-3.451 L 0,-6.969 0,0 z"
         style="fill:#000000;fill-opacity:1;fill-rule:nonzero;stroke:none"
         id="path3119"
         inkscape:connector-curvature="0" /></g><g
       id="g3121"
       transform="translate(239.9917,-13.1543)"><path
         d="M 0,0 C -0.041,0.779 -0.591,1.423 -1.357,1.423 -2.162,1.423 -2.7,0.846 -2.833,0 L 0,0 z m -2.833,-1.275 c 0.04,-0.954 0.59,-1.585 1.557,-1.585 0.55,0 1.088,0.255 1.303,0.765 l 2.135,0 c -0.416,-1.612 -1.907,-2.309 -3.465,-2.309 -2.269,0 -3.814,1.369 -3.814,3.706 0,2.135 1.706,3.666 3.76,3.666 2.498,0 3.747,-1.881 3.639,-4.243 l -5.115,0 z"
         style="fill:#000000;fill-opacity:1;fill-rule:nonzero;stroke:none"
         id="path3123"
         inkscape:connector-curvature="0" /></g><g
       id="g3125"
       transform="translate(249.8433,-13.7998)"><path
         d="m 0,0 c 0,-1.222 0.349,-2.013 1.383,-2.013 1.02,0 1.37,1.06 1.37,2.013 0,0.887 -0.35,1.867 -1.357,1.867 C 0.778,1.867 0,1.438 0,0 m -2.202,3.411 2.175,0 0,-0.806 0.027,0 c 0.443,0.659 1.114,1.008 1.92,1.008 2.189,0 3.115,-1.881 3.115,-3.841 0,-1.812 -0.966,-3.531 -2.94,-3.531 -0.86,0 -1.517,0.321 -1.988,0.953 l -0.026,0 0,-3.088 -2.283,0 0,9.305 z"
         style="fill:#000000;fill-opacity:1;fill-rule:nonzero;stroke:none"
         id="path3127"
         inkscape:connector-curvature="0" /></g><g
       id="g3129"
       transform="translate(256.1782,-10.3887)"><path
         d="m 0,0 2.215,0 0,-1.222 0.027,0 c 0.336,0.886 1.115,1.357 2.095,1.357 0.175,0 0.363,-0.014 0.538,-0.054 l 0,-2.081 c -0.296,0.08 -0.564,0.134 -0.873,0.134 -1.128,0 -1.719,-0.78 -1.719,-1.652 l 0,-3.451 L 0,-6.969 0,0 z"
         style="fill:#000000;fill-opacity:1;fill-rule:nonzero;stroke:none"
         id="path3131"
         inkscape:connector-curvature="0" /></g><g
       id="g3133"
       transform="translate(264.9038,-15.8125)"><path
         d="M 0,0 C 1.061,0 1.397,1.047 1.397,1.933 1.397,2.819 1.061,3.88 0,3.88 -1.061,3.88 -1.383,2.819 -1.383,1.933 -1.383,1.047 -1.061,0 0,0 m 0,5.626 c 2.162,0 3.68,-1.599 3.68,-3.693 0,-2.095 -1.518,-3.679 -3.68,-3.679 -2.162,0 -3.666,1.584 -3.666,3.679 0,2.094 1.504,3.693 3.666,3.693"
         style="fill:#000000;fill-opacity:1;fill-rule:nonzero;stroke:none"
         id="path3135"
         inkscape:connector-curvature="0" /></g><g
       id="g3137"
       transform="translate(271.978,-13.7998)"><path
         d="m 0,0 c 0,-1.222 0.349,-2.013 1.383,-2.013 1.02,0 1.37,1.06 1.37,2.013 0,0.887 -0.35,1.867 -1.357,1.867 C 0.778,1.867 0,1.438 0,0 m -2.202,3.411 2.175,0 0,-0.806 0.027,0 c 0.443,0.659 1.114,1.008 1.92,1.008 2.189,0 3.115,-1.881 3.115,-3.841 0,-1.812 -0.966,-3.531 -2.94,-3.531 -0.86,0 -1.518,0.321 -1.988,0.953 l -0.027,0 0,-3.088 -2.282,0 0,9.305 z"
         style="fill:#000000;fill-opacity:1;fill-rule:nonzero;stroke:none"
         id="path3139"
         inkscape:connector-curvature="0" /></g><g
       id="g3141"
       transform="translate(283.0127,-13.1543)"><path
         d="M 0,0 C -0.041,0.779 -0.591,1.423 -1.356,1.423 -2.162,1.423 -2.7,0.846 -2.833,0 L 0,0 z m -2.833,-1.275 c 0.04,-0.954 0.59,-1.585 1.557,-1.585 0.55,0 1.088,0.255 1.302,0.765 l 2.136,0 c -0.416,-1.612 -1.907,-2.309 -3.465,-2.309 -2.269,0 -3.814,1.369 -3.814,3.706 0,2.135 1.706,3.666 3.761,3.666 2.497,0 3.746,-1.881 3.638,-4.243 l -5.115,0 z"
         style="fill:#000000;fill-opacity:1;fill-rule:nonzero;stroke:none"
         id="path3143"
         inkscape:connector-curvature="0" /></g><g
       id="g3145"
       transform="translate(286.5142,-10.3887)"><path
         d="m 0,0 2.216,0 0,-1.222 0.026,0 c 0.336,0.886 1.115,1.357 2.095,1.357 0.175,0 0.363,-0.014 0.538,-0.054 l 0,-2.081 c -0.296,0.08 -0.564,0.134 -0.873,0.134 -1.128,0 -1.719,-0.78 -1.719,-1.652 l 0,-3.451 L 0,-6.969 0,0 z"
         style="fill:#000000;fill-opacity:1;fill-rule:nonzero;stroke:none"
         id="path3147"
         inkscape:connector-curvature="0" /></g><g
       id="g3149"
       transform="translate(296.3555,-11.8652)"><path
         d="m 0,0 -1.41,0 0,-3.17 c 0,-0.55 0.322,-0.671 0.819,-0.671 0.188,0 0.389,0.028 0.591,0.028 l 0,-1.679 c -0.417,-0.014 -0.833,-0.068 -1.249,-0.068 -1.947,0 -2.444,0.564 -2.444,2.458 l 0,3.102 -1.155,0 0,1.477 1.155,0 0,2.108 2.283,0 0,-2.108 1.41,0 L 0,0 z"
         style="fill:#000000;fill-opacity:1;fill-rule:nonzero;stroke:none"
         id="path3151"
         inkscape:connector-curvature="0" /></g><g
       id="g3153"
       transform="translate(301.1738,-17.9746)"><path
         d="m 0,0 c -0.55,-1.531 -1.369,-1.719 -2.914,-1.719 l -1.074,0 0,1.853 0.792,0 c 0.524,0 0.914,0.296 0.914,0.779 0,0.376 -0.444,1.449 -0.578,1.825 l -1.799,4.848 2.417,0 1.316,-4.538 0.027,0 1.316,4.538 2.336,0 L 0,0 z"
         style="fill:#000000;fill-opacity:1;fill-rule:nonzero;stroke:none"
         id="path3155"
         inkscape:connector-curvature="0" /></g><g
       id="g3157"
       transform="translate(312.1406,-15.8125)"><path
         d="M 0,0 C 1.061,0 1.397,1.047 1.397,1.933 1.397,2.819 1.061,3.88 0,3.88 -1.061,3.88 -1.383,2.819 -1.383,1.933 -1.383,1.047 -1.061,0 0,0 m 0,5.626 c 2.162,0 3.679,-1.599 3.679,-3.693 0,-2.095 -1.517,-3.679 -3.679,-3.679 -2.162,0 -3.666,1.584 -3.666,3.679 0,2.094 1.504,3.693 3.666,3.693"
         style="fill:#000000;fill-opacity:1;fill-rule:nonzero;stroke:none"
         id="path3159"
         inkscape:connector-curvature="0" /></g><g
       id="g3161"
       transform="translate(317.5093,-11.8652)"><path
         d="m 0,0 -1.101,0 0,1.477 1.101,0 c 0,2.001 0.698,2.618 2.645,2.618 0.363,0 0.739,-0.027 1.101,-0.04 l 0,-1.612 C 3.531,2.471 3.33,2.484 3.128,2.484 2.605,2.484 2.283,2.417 2.283,1.786 l 0,-0.309 1.369,0 0,-1.477 -1.369,0 0,-5.492 L 0,-5.492 0,0 z"
         style="fill:#000000;fill-opacity:1;fill-rule:nonzero;stroke:none"
         id="path3163"
         inkscape:connector-curvature="0" /></g><g
       id="g3165"
       transform="translate(330.4102,-11.8652)"><path
         d="m 0,0 -1.41,0 0,-3.17 c 0,-0.55 0.323,-0.671 0.819,-0.671 0.188,0 0.39,0.028 0.591,0.028 l 0,-1.679 c -0.416,-0.014 -0.833,-0.068 -1.249,-0.068 -1.947,0 -2.443,0.564 -2.443,2.458 l 0,3.102 -1.155,0 0,1.477 1.155,0 0,2.108 2.282,0 0,-2.108 1.41,0 L 0,0 z"
         style="fill:#000000;fill-opacity:1;fill-rule:nonzero;stroke:none"
         id="path3167"
         inkscape:connector-curvature="0" /></g><g
       id="g3169"
       transform="translate(331.4297,-7.7705)"><path
         d="m 0,0 2.282,0 0,-3.571 0.027,0 c 0.349,0.712 1.289,1.155 2.122,1.155 2.323,0 2.51,-1.692 2.51,-2.7 l 0,-4.471 -2.283,0 0,3.37 c 0,0.953 0.109,1.92 -1.14,1.92 -0.86,0 -1.236,-0.724 -1.236,-1.49 l 0,-3.8 L 0,-9.587 0,0 z"
         style="fill:#000000;fill-opacity:1;fill-rule:nonzero;stroke:none"
         id="path3171"
         inkscape:connector-curvature="0" /></g><g
       id="g3173"
       transform="translate(344.667,-13.1543)"><path
         d="M 0,0 C -0.04,0.779 -0.592,1.423 -1.357,1.423 -2.163,1.423 -2.7,0.846 -2.834,0 L 0,0 z m -2.834,-1.275 c 0.04,-0.954 0.591,-1.585 1.558,-1.585 0.55,0 1.088,0.255 1.302,0.765 l 2.135,0 c -0.416,-1.612 -1.906,-2.309 -3.465,-2.309 -2.269,0 -3.812,1.369 -3.812,3.706 0,2.135 1.705,3.666 3.759,3.666 2.498,0 3.747,-1.881 3.638,-4.243 l -5.115,0 z"
         style="fill:#000000;fill-opacity:1;fill-rule:nonzero;stroke:none"
         id="path3175"
         inkscape:connector-curvature="0" /></g><g
       id="g3177"
       transform="translate(354.2637,-13.7998)"><path
         d="m 0,0 c 0,-0.953 0.349,-2.013 1.396,-2.013 1.114,0 1.356,1.06 1.356,1.947 0,1.006 -0.363,1.933 -1.356,1.933 C 0.349,1.867 0,0.887 0,0 m 4.953,-3.558 -2.174,0 0,0.806 -0.027,0 C 2.309,-3.41 1.637,-3.759 0.831,-3.759 c -2.188,0 -3.114,1.88 -3.114,3.84 0,1.814 0.967,3.532 2.939,3.532 0.86,0 1.519,-0.322 1.989,-0.954 l 0.027,0 0,3.37 2.281,0 0,-9.587 z"
         style="fill:#000000;fill-opacity:1;fill-rule:nonzero;stroke:none"
         id="path3179"
         inkscape:connector-curvature="0" /></g><g
       id="g3181"
       transform="translate(365.5527,-13.1543)"><path
         d="M 0,0 C -0.04,0.779 -0.592,1.423 -1.357,1.423 -2.162,1.423 -2.699,0.846 -2.832,0 L 0,0 z m -2.832,-1.275 c 0.039,-0.954 0.589,-1.585 1.557,-1.585 0.55,0 1.087,0.255 1.302,0.765 l 2.135,0 c -0.416,-1.612 -1.907,-2.309 -3.465,-2.309 -2.268,0 -3.812,1.369 -3.812,3.706 0,2.135 1.705,3.666 3.758,3.666 2.498,0 3.748,-1.881 3.64,-4.243 l -5.115,0 z"
         style="fill:#000000;fill-opacity:1;fill-rule:nonzero;stroke:none"
         id="path3183"
         inkscape:connector-curvature="0" /></g><g
       id="g3185"
       transform="translate(370.7471,-15.0615)"><path
         d="m 0,0 c 0,-0.349 0.147,-0.604 0.376,-0.778 0.215,-0.162 0.523,-0.243 0.846,-0.243 0.443,0 1.074,0.188 1.074,0.74 0,0.537 -0.713,0.643 -1.114,0.737 -1.438,0.363 -3.238,0.403 -3.238,2.284 0,1.679 1.814,2.135 3.184,2.135 1.53,0 3.129,-0.443 3.209,-2.257 l -2.108,0 c 0,0.296 -0.107,0.485 -0.294,0.605 -0.19,0.121 -0.446,0.174 -0.727,0.174 -0.375,0 -0.979,-0.04 -0.979,-0.523 0,-0.658 1.53,-0.779 2.578,-1.007 1.409,-0.282 1.772,-1.303 1.772,-1.881 0,-1.866 -1.772,-2.483 -3.344,-2.483 -1.652,0 -3.343,0.551 -3.41,2.497 L 0,0 z"
         style="fill:#000000;fill-opacity:1;fill-rule:nonzero;stroke:none"
         id="path3187"
         inkscape:connector-curvature="0" /></g><path
       d="m 376.519,-10.389 2.284,0 0,-6.969 -2.284,0 0,6.969 z m 2.284,0.873 -2.284,0 0,1.745 2.284,0 0,-1.745 z"
       style="fill:#000000;fill-opacity:1;fill-rule:nonzero;stroke:none"
       id="path3189"
       inkscape:connector-curvature="0" /><g
       id="g3191"
       transform="translate(383.6201,-11.9326)"><path
         d="m 0,0 c -1.007,0 -1.329,-0.886 -1.329,-1.745 0,-0.819 0.375,-1.639 1.315,-1.639 0.968,0 1.384,0.751 1.384,1.625 C 1.37,-0.872 1.021,0 0,0 m 3.532,-4.579 c 0,-1.142 -0.215,-3.29 -3.478,-3.29 -1.625,0 -3.155,0.362 -3.424,2.229 l 2.283,0 c 0.053,-0.308 0.174,-0.497 0.389,-0.604 0.202,-0.108 0.484,-0.148 0.833,-0.148 1.088,0 1.195,0.766 1.195,1.625 l 0,0.658 -0.026,0 c -0.417,-0.644 -1.116,-1.02 -1.854,-1.02 -2.109,0 -3.062,1.503 -3.062,3.464 0,1.853 1.088,3.411 3.062,3.411 0.833,0 1.463,-0.362 1.867,-1.075 l 0.026,0 0,0.873 2.189,0 0,-6.123 z"
         style="fill:#000000;fill-opacity:1;fill-rule:nonzero;stroke:none"
         id="path3193"
         inkscape:connector-curvature="0" /></g><g
       id="g3195"
       transform="translate(388.6133,-10.3887)"><path
         d="m 0,0 2.215,0 0,-0.953 0.027,0 c 0.417,0.712 1.357,1.155 2.19,1.155 2.322,0 2.511,-1.692 2.511,-2.7 l 0,-4.471 -2.284,0 0,3.37 c 0,0.953 0.108,1.92 -1.14,1.92 -0.86,0 -1.238,-0.724 -1.238,-1.49 l 0,-3.8 L 0,-6.969 0,0 z"
         style="fill:#000000;fill-opacity:1;fill-rule:nonzero;stroke:none"
         id="path3197"
         inkscape:connector-curvature="0" /></g><g
       id="g3199"
       transform="translate(401.8506,-13.1543)"><path
         d="M 0,0 C -0.04,0.779 -0.591,1.423 -1.356,1.423 -2.162,1.423 -2.7,0.846 -2.834,0 L 0,0 z m -2.834,-1.275 c 0.04,-0.954 0.591,-1.585 1.558,-1.585 0.55,0 1.088,0.255 1.302,0.765 l 2.135,0 c -0.416,-1.612 -1.906,-2.309 -3.464,-2.309 -2.27,0 -3.813,1.369 -3.813,3.706 0,2.135 1.705,3.666 3.76,3.666 2.498,0 3.746,-1.881 3.638,-4.243 l -5.116,0 z"
         style="fill:#000000;fill-opacity:1;fill-rule:nonzero;stroke:none"
         id="path3201"
         inkscape:connector-curvature="0" /></g><g
       id="g3203"
       transform="translate(405.3516,-10.3887)"><path
         d="m 0,0 2.217,0 0,-1.222 0.026,0 c 0.335,0.886 1.114,1.357 2.095,1.357 0.174,0 0.363,-0.014 0.537,-0.054 l 0,-2.081 c -0.296,0.08 -0.564,0.134 -0.872,0.134 -1.13,0 -1.719,-0.78 -1.719,-1.652 l 0,-3.451 L 0,-6.969 0,0 z"
         style="fill:#000000;fill-opacity:1;fill-rule:nonzero;stroke:none"
         id="path3205"
         inkscape:connector-curvature="0" /></g><path
       d="m 409.861,-14.859 2.498,0 0,-2.498 -2.498,0 0,2.498 z"
       style="fill:#000000;fill-opacity:1;fill-rule:nonzero;stroke:none"
       id="path3207"
       inkscape:connector-curvature="0" /><g
       id="g3209"
       transform="translate(427.624,-11.1943)"><path
         d="m 0,0 c -0.136,0.968 -0.886,1.478 -1.935,1.478 -1.609,0 -2.228,-1.424 -2.228,-2.847 0,-1.424 0.619,-2.847 2.228,-2.847 1.169,0 1.841,0.671 1.935,1.773 l 2.498,0 c -0.136,-2.471 -1.948,-3.921 -4.38,-3.921 -2.899,0 -4.779,2.216 -4.779,4.995 0,2.78 1.88,4.995 4.779,4.995 2.07,0 4.311,-1.315 4.38,-3.626 L 0,0 z"
         style="fill:#000000;fill-opacity:1;fill-rule:nonzero;stroke:none"
         id="path3211"
         inkscape:connector-curvature="0" /></g><g
       id="g3213"
       transform="translate(431.3535,-7.7705)"><path
         d="m 0,0 2.283,0 0,-3.571 0.027,0 c 0.348,0.712 1.288,1.155 2.12,1.155 2.324,0 2.511,-1.692 2.511,-2.7 l 0,-4.471 -2.281,0 0,3.37 c 0,0.953 0.108,1.92 -1.142,1.92 -0.86,0 -1.235,-0.724 -1.235,-1.49 l 0,-3.8 L 0,-9.587 0,0 z"
         style="fill:#000000;fill-opacity:1;fill-rule:nonzero;stroke:none"
         id="path3215"
         inkscape:connector-curvature="0" /></g><g
       id="g3217"
       transform="translate(444.5898,-13.1543)"><path
         d="M 0,0 C -0.039,0.779 -0.591,1.423 -1.356,1.423 -2.162,1.423 -2.698,0.846 -2.834,0 L 0,0 z m -2.834,-1.275 c 0.04,-0.954 0.592,-1.585 1.559,-1.585 0.55,0 1.086,0.255 1.302,0.765 l 2.135,0 c -0.416,-1.612 -1.906,-2.309 -3.465,-2.309 -2.267,0 -3.812,1.369 -3.812,3.706 0,2.135 1.705,3.666 3.759,3.666 2.498,0 3.745,-1.881 3.638,-4.243 l -5.116,0 z"
         style="fill:#000000;fill-opacity:1;fill-rule:nonzero;stroke:none"
         id="path3219"
         inkscape:connector-curvature="0" /></g><g
       id="g3221"
       transform="translate(452.5488,-12.9395)"><path
         d="m 0,0 c -0.014,0.591 -0.535,1.007 -1.113,1.007 -1.276,0 -1.479,-1.088 -1.479,-2.055 0,-0.899 0.391,-1.825 1.358,-1.825 0.793,0 1.194,0.456 1.301,1.194 l 2.216,0 c -0.2,-1.866 -1.651,-2.94 -3.504,-2.94 -2.093,0 -3.652,1.436 -3.652,3.571 0,2.216 1.408,3.801 3.652,3.801 C 0.512,2.753 2.057,1.84 2.217,0 L 0,0 z"
         style="fill:#000000;fill-opacity:1;fill-rule:nonzero;stroke:none"
         id="path3223"
         inkscape:connector-curvature="0" /></g><g
       id="g3225"
       transform="translate(455.9717,-7.7705)"><path
         d="m 0,0 2.283,0 0,-4.94 2.081,2.322 2.645,0 -2.551,-2.632 2.875,-4.337 -2.755,0 -1.706,2.807 -0.589,-0.578 0,-2.229 L 0,-9.587 0,0 z"
         style="fill:#000000;fill-opacity:1;fill-rule:nonzero;stroke:none"
         id="path3227"
         inkscape:connector-curvature="0" /></g><path
       d="m 468.24,-7.771 2.281,0 0,-9.587 -2.281,0 0,9.587 z"
       style="fill:#000000;fill-opacity:1;fill-rule:nonzero;stroke:none"
       id="path3229"
       inkscape:connector-curvature="0" /><path
       d="m 472.215,-10.389 2.281,0 0,-6.969 -2.281,0 0,6.969 z m 2.281,0.873 -2.281,0 0,1.745 2.281,0 0,-1.745 z"
       style="fill:#000000;fill-opacity:1;fill-rule:nonzero;stroke:none"
       id="path3231"
       inkscape:connector-curvature="0" /><g
       id="g3233"
       transform="translate(480.6455,-12.9395)"><path
         d="m 0,0 c -0.013,0.591 -0.538,1.007 -1.114,1.007 -1.277,0 -1.477,-1.088 -1.477,-2.055 0,-0.899 0.388,-1.825 1.355,-1.825 0.792,0 1.196,0.456 1.303,1.194 l 2.217,0 c -0.203,-1.866 -1.652,-2.94 -3.508,-2.94 -2.093,0 -3.651,1.436 -3.651,3.571 0,2.216 1.411,3.801 3.651,3.801 C 0.511,2.753 2.054,1.84 2.215,0 L 0,0 z"
         style="fill:#000000;fill-opacity:1;fill-rule:nonzero;stroke:none"
         id="path3235"
         inkscape:connector-curvature="0" /></g><g
       id="g3237"
       transform="translate(488.8477,-13.1543)"><path
         d="M 0,0 C -0.041,0.779 -0.592,1.423 -1.357,1.423 -2.163,1.423 -2.699,0.846 -2.835,0 L 0,0 z m -2.835,-1.275 c 0.04,-0.954 0.591,-1.585 1.558,-1.585 0.551,0 1.088,0.255 1.303,0.765 l 2.134,0 c -0.414,-1.612 -1.906,-2.309 -3.464,-2.309 -2.268,0 -3.813,1.369 -3.813,3.706 0,2.135 1.706,3.666 3.76,3.666 2.498,0 3.746,-1.881 3.638,-4.243 l -5.116,0 z"
         style="fill:#000000;fill-opacity:1;fill-rule:nonzero;stroke:none"
         id="path3239"
         inkscape:connector-curvature="0" /></g><g
       id="g3241"
       transform="translate(492.2676,-10.3887)"><path
         d="m 0,0 2.217,0 0,-0.953 0.027,0 c 0.414,0.712 1.356,1.155 2.188,1.155 2.324,0 2.511,-1.692 2.511,-2.7 l 0,-4.471 -2.283,0 0,3.37 c 0,0.953 0.108,1.92 -1.142,1.92 -0.86,0 -1.235,-0.724 -1.235,-1.49 l 0,-3.8 L 0,-6.969 0,0 z"
         style="fill:#000000;fill-opacity:1;fill-rule:nonzero;stroke:none"
         id="path3243"
         inkscape:connector-curvature="0" /></g><g
       id="g3245"
       transform="translate(502.4961,-15.0615)"><path
         d="M 0,0 C 0,-0.349 0.148,-0.604 0.377,-0.778 0.592,-0.94 0.9,-1.021 1.223,-1.021 c 0.443,0 1.074,0.188 1.074,0.74 0,0.537 -0.711,0.643 -1.113,0.737 -1.438,0.363 -3.237,0.403 -3.237,2.284 0,1.679 1.813,2.135 3.182,2.135 1.529,0 3.129,-0.443 3.209,-2.257 l -2.108,0 C 2.23,2.914 2.123,3.103 1.934,3.223 1.746,3.344 1.492,3.397 1.211,3.397 0.834,3.397 0.229,3.357 0.229,2.874 0.229,2.216 1.76,2.095 2.807,1.867 4.217,1.585 4.58,0.564 4.58,-0.014 c 0,-1.866 -1.773,-2.483 -3.344,-2.483 -1.65,0 -3.343,0.551 -3.41,2.497 L 0,0 z"
         style="fill:#000000;fill-opacity:1;fill-rule:nonzero;stroke:none"
         id="path3247"
         inkscape:connector-curvature="0" /></g><g
       id="g3249"
       transform="translate(512.9688,-13.1543)"><path
         d="M 0,0 C -0.041,0.779 -0.59,1.423 -1.355,1.423 -2.162,1.423 -2.699,0.846 -2.834,0 L 0,0 z m -2.834,-1.275 c 0.041,-0.954 0.592,-1.585 1.559,-1.585 0.548,0 1.087,0.255 1.302,0.765 l 2.135,0 c -0.416,-1.612 -1.908,-2.309 -3.465,-2.309 -2.269,0 -3.814,1.369 -3.814,3.706 0,2.135 1.705,3.666 3.762,3.666 2.498,0 3.746,-1.881 3.638,-4.243 l -5.117,0 z"
         style="fill:#000000;fill-opacity:1;fill-rule:nonzero;stroke:none"
         id="path3251"
         inkscape:connector-curvature="0" /></g><g
       id="g3253"
       transform="translate(521.1152,-11.8652)"><path
         d="m 0,0 -1.102,0 0,1.477 1.102,0 c 0,2.001 0.697,2.618 2.645,2.618 0.363,0 0.738,-0.027 1.103,-0.04 l 0,-1.612 C 3.531,2.471 3.33,2.484 3.129,2.484 2.604,2.484 2.283,2.417 2.283,1.786 l 0,-0.309 1.369,0 0,-1.477 -1.369,0 0,-5.492 L 0,-5.492 0,0 z"
         style="fill:#000000;fill-opacity:1;fill-rule:nonzero;stroke:none"
         id="path3255"
         inkscape:connector-curvature="0" /></g><g
       id="g3257"
       transform="translate(528.916,-15.8125)"><path
         d="M 0,0 C 1.061,0 1.396,1.047 1.396,1.933 1.396,2.819 1.061,3.88 0,3.88 -1.063,3.88 -1.383,2.819 -1.383,1.933 -1.383,1.047 -1.063,0 0,0 m 0,5.626 c 2.162,0 3.68,-1.599 3.68,-3.693 0,-2.095 -1.518,-3.679 -3.68,-3.679 -2.162,0 -3.666,1.584 -3.666,3.679 0,2.094 1.504,3.693 3.666,3.693"
         style="fill:#000000;fill-opacity:1;fill-rule:nonzero;stroke:none"
         id="path3259"
         inkscape:connector-curvature="0" /></g><g
       id="g3261"
       transform="translate(533.8672,-10.3887)"><path
         d="m 0,0 2.215,0 0,-1.222 0.027,0 c 0.338,0.886 1.115,1.357 2.096,1.357 0.174,0 0.361,-0.014 0.537,-0.054 l 0,-2.081 c -0.295,0.08 -0.564,0.134 -0.873,0.134 -1.129,0 -1.719,-0.78 -1.719,-1.652 l 0,-3.451 L 0,-6.969 0,0 z"
         style="fill:#000000;fill-opacity:1;fill-rule:nonzero;stroke:none"
         id="path3263"
         inkscape:connector-curvature="0" /></g><g
       id="g3265"
       transform="translate(545.9355,-13.7998)"><path
         d="m 0,0 c 0,-1.222 0.35,-2.013 1.383,-2.013 1.019,0 1.371,1.06 1.371,2.013 0,0.887 -0.352,1.867 -1.358,1.867 C 0.779,1.867 0,1.438 0,0 m -2.203,3.411 2.178,0 0,-0.806 0.025,0 c 0.443,0.659 1.115,1.008 1.92,1.008 2.187,0 3.117,-1.881 3.117,-3.841 0,-1.812 -0.969,-3.531 -2.943,-3.531 -0.86,0 -1.518,0.321 -1.987,0.953 l -0.025,0 0,-3.088 -2.285,0 0,9.305 z"
         style="fill:#000000;fill-opacity:1;fill-rule:nonzero;stroke:none"
         id="path3267"
         inkscape:connector-curvature="0" /></g><g
       id="g3269"
       transform="translate(556.9707,-13.1543)"><path
         d="M 0,0 C -0.041,0.779 -0.59,1.423 -1.355,1.423 -2.16,1.423 -2.699,0.846 -2.832,0 L 0,0 z m -2.832,-1.275 c 0.039,-0.954 0.59,-1.585 1.557,-1.585 0.55,0 1.087,0.255 1.302,0.765 l 2.135,0 c -0.416,-1.612 -1.908,-2.309 -3.463,-2.309 -2.271,0 -3.814,1.369 -3.814,3.706 0,2.135 1.705,3.666 3.76,3.666 2.498,0 3.746,-1.881 3.638,-4.243 l -5.115,0 z"
         style="fill:#000000;fill-opacity:1;fill-rule:nonzero;stroke:none"
         id="path3271"
         inkscape:connector-curvature="0" /></g><g
       id="g3273"
       transform="translate(560.4727,-10.3887)"><path
         d="m 0,0 2.215,0 0,-1.222 0.027,0 c 0.338,0.886 1.115,1.357 2.096,1.357 0.174,0 0.361,-0.014 0.537,-0.054 l 0,-2.081 c -0.295,0.08 -0.564,0.134 -0.873,0.134 -1.129,0 -1.719,-0.78 -1.719,-1.652 l 0,-3.451 L 0,-6.969 0,0 z"
         style="fill:#000000;fill-opacity:1;fill-rule:nonzero;stroke:none"
         id="path3275"
         inkscape:connector-curvature="0" /></g><g
       id="g3277"
       transform="translate(566.1113,-10.3887)"><path
         d="m 0,0 2.215,0 0,-0.953 0.027,0 c 0.416,0.699 1.154,1.155 2,1.155 0.873,0 1.653,-0.282 2.028,-1.128 0.55,0.738 1.236,1.128 2.175,1.128 2.217,0 2.459,-1.679 2.459,-3.008 l 0,-4.163 -2.285,0 0,4.096 c 0,0.752 -0.361,1.194 -0.953,1.194 -0.978,0 -1.072,-0.751 -1.072,-1.879 l 0,-3.411 -2.283,0 0,3.961 c 0,0.82 -0.243,1.329 -0.862,1.329 -0.818,0 -1.166,-0.469 -1.166,-1.892 l 0,-3.398 L 0,-6.969 0,0 z"
         style="fill:#000000;fill-opacity:1;fill-rule:nonzero;stroke:none"
         id="path3279"
         inkscape:connector-curvature="0" /></g><path
       d="m 578.621,-10.389 2.283,0 0,-6.969 -2.283,0 0,6.969 z m 2.283,0.873 -2.283,0 0,1.745 2.283,0 0,-1.745 z"
       style="fill:#000000;fill-opacity:1;fill-rule:nonzero;stroke:none"
       id="path3281"
       inkscape:connector-curvature="0" /><g
       id="g3283"
       transform="translate(586.7168,-11.8652)"><path
         d="m 0,0 -1.41,0 0,-3.17 c 0,-0.55 0.324,-0.671 0.818,-0.671 0.19,0 0.391,0.028 0.592,0.028 l 0,-1.679 c -0.414,-0.014 -0.832,-0.068 -1.248,-0.068 -1.947,0 -2.443,0.564 -2.443,2.458 l 0,3.102 -1.157,0 0,1.477 1.157,0 0,2.108 2.281,0 0,-2.108 1.41,0 L 0,0 z"
         style="fill:#000000;fill-opacity:1;fill-rule:nonzero;stroke:none"
         id="path3285"
         inkscape:connector-curvature="0" /></g><g
       id="g3287"
       transform="translate(591.9395,-11.8652)"><path
         d="m 0,0 -1.412,0 0,-3.17 c 0,-0.55 0.324,-0.671 0.82,-0.671 0.19,0 0.391,0.028 0.592,0.028 l 0,-1.679 c -0.416,-0.014 -0.834,-0.068 -1.248,-0.068 -1.949,0 -2.445,0.564 -2.445,2.458 l 0,3.102 -1.157,0 0,1.477 1.157,0 0,2.108 2.281,0 0,-2.108 L 0,1.477 0,0 z"
         style="fill:#000000;fill-opacity:1;fill-rule:nonzero;stroke:none"
         id="path3289"
         inkscape:connector-curvature="0" /></g><g
       id="g3291"
       transform="translate(597.7383,-13.1543)"><path
         d="M 0,0 C -0.041,0.779 -0.592,1.423 -1.357,1.423 -2.162,1.423 -2.699,0.846 -2.834,0 L 0,0 z m -2.834,-1.275 c 0.039,-0.954 0.592,-1.585 1.557,-1.585 0.552,0 1.088,0.255 1.304,0.765 l 2.133,0 c -0.414,-1.612 -1.906,-2.309 -3.463,-2.309 -2.269,0 -3.812,1.369 -3.812,3.706 0,2.135 1.705,3.666 3.758,3.666 2.498,0 3.746,-1.881 3.638,-4.243 l -5.115,0 z"
         style="fill:#000000;fill-opacity:1;fill-rule:nonzero;stroke:none"
         id="path3293"
         inkscape:connector-curvature="0" /></g><g
       id="g3295"
       transform="translate(603.1055,-13.7998)"><path
         d="m 0,0 c 0,-0.953 0.35,-2.013 1.396,-2.013 1.116,0 1.358,1.06 1.358,1.947 0,1.006 -0.363,1.933 -1.358,1.933 C 0.35,1.867 0,0.887 0,0 m 4.955,-3.558 -2.174,0 0,0.806 -0.027,0 C 2.311,-3.41 1.639,-3.759 0.832,-3.759 c -2.187,0 -3.113,1.88 -3.113,3.84 0,1.814 0.967,3.532 2.939,3.532 0.86,0 1.518,-0.322 1.987,-0.954 l 0.029,0 0,3.37 2.281,0 0,-9.587 z"
         style="fill:#000000;fill-opacity:1;fill-rule:nonzero;stroke:none"
         id="path3297"
         inkscape:connector-curvature="0" /></g><g
       id="g3299"
       transform="translate(620.7734,-17.3574)"><path
         d="m 0,0 -2.215,0 0,0.953 -0.027,0 c -0.43,-0.711 -1.315,-1.154 -2.121,-1.154 -2.002,0 -2.578,1.154 -2.578,2.98 l 0,4.19 2.281,0 0,-4.041 c 0,-0.927 0.404,-1.249 1.129,-1.249 0.496,0 1.248,0.322 1.248,1.557 l 0,3.733 L 0,6.969 0,0 z"
         style="fill:#000000;fill-opacity:1;fill-rule:nonzero;stroke:none"
         id="path3301"
         inkscape:connector-curvature="0" /></g><g
       id="g3303"
       transform="translate(624.0742,-15.0615)"><path
         d="m 0,0 c 0,-0.349 0.146,-0.604 0.375,-0.778 0.215,-0.162 0.523,-0.243 0.846,-0.243 0.443,0 1.074,0.188 1.074,0.74 0,0.537 -0.711,0.643 -1.113,0.737 -1.438,0.363 -3.239,0.403 -3.239,2.284 0,1.679 1.813,2.135 3.184,2.135 1.531,0 3.129,-0.443 3.211,-2.257 l -2.109,0 c 0,0.296 -0.108,0.485 -0.295,0.605 -0.188,0.121 -0.446,0.174 -0.727,0.174 -0.375,0 -0.978,-0.04 -0.978,-0.523 0,-0.658 1.531,-0.779 2.578,-1.007 1.41,-0.282 1.771,-1.303 1.771,-1.881 0,-1.866 -1.771,-2.483 -3.344,-2.483 -1.652,0 -3.343,0.551 -3.41,2.497 L 0,0 z"
         style="fill:#000000;fill-opacity:1;fill-rule:nonzero;stroke:none"
         id="path3305"
         inkscape:connector-curvature="0" /></g><g
       id="g3307"
       transform="translate(634.5449,-13.1543)"><path
         d="M 0,0 C -0.039,0.779 -0.59,1.423 -1.355,1.423 -2.162,1.423 -2.697,0.846 -2.834,0 L 0,0 z m -2.834,-1.275 c 0.041,-0.954 0.592,-1.585 1.559,-1.585 0.55,0 1.086,0.255 1.302,0.765 l 2.135,0 c -0.416,-1.612 -1.906,-2.309 -3.465,-2.309 -2.267,0 -3.812,1.369 -3.812,3.706 0,2.135 1.705,3.666 3.76,3.666 2.498,0 3.746,-1.881 3.638,-4.243 l -5.117,0 z"
         style="fill:#000000;fill-opacity:1;fill-rule:nonzero;stroke:none"
         id="path3309"
         inkscape:connector-curvature="0" /></g><path
       d="m 638.074,-14.859 2.498,0 0,-2.498 -2.498,0 0,2.498 z"
       style="fill:#000000;fill-opacity:1;fill-rule:nonzero;stroke:none"
       id="path3311"
       inkscape:connector-curvature="0" /></g></g>
<g
   transform="matrix(1,0,0,-1,-196.09029,-32.898626)"
   style="font-size:19.75665092px;font-style:normal;font-variant:normal;font-weight:normal;font-stretch:normal;text-align:start;line-height:125%;letter-spacing:0px;word-spacing:0px;writing-mode:lr-tb;text-anchor:start;fill:#000000;fill-opacity:1;stroke:none;font-family:FZLanTingHeiS-UL-GB;-inkscape-font-specification:FZLanTingHeiS-UL-GB"
   id="text7001"><path
     inkscape:connector-curvature="0"
     d="m 202.65011,-117.17307 9.9555,0 0,6.79135 c -2e-5,0.6174 -0.18009,1.08044 -0.54022,1.38914 -0.36016,0.3087 -0.95183,0.46305 -1.77501,0.46305 l -2.23806,-0.0772 0,-0.38587 2.23806,0.0772 c 0.77173,0 1.28622,-0.12863 1.54349,-0.38588 0.25723,-0.20579 0.38585,-0.56594 0.38587,-1.08044 l 0,-1.23479 -9.18376,0 0,3.24133 -0.38587,0 z m 0.38587,0.38588 0,2.23805 9.18376,0 0,-2.23805 z m 0,2.62393 0,2.16088 9.18376,0 0,-2.16088 z m 4.39895,-12.11639 0.38587,0 0,2.16089 6.09678,0 0,0.30869 -6.09678,0 0,2.00654 5.40221,0 0,0.38587 -5.40221,0 0,1.92936 6.40547,0 0,0.38587 -13.274,0 0,-0.38587 6.48266,0 0,-1.92936 -5.47939,0 0,-0.38587 5.47939,0 0,-2.00654 -6.01961,0 0,-0.30869 6.01961,0 z m -11.34464,6.637 2.77828,0 0,9.72398 2.16088,-2.16088 0.3087,0.23152 -2.39241,2.46958 c -0.1029,0.1029 -0.25725,0.28297 -0.46305,0.54022 l -0.30869,-0.23152 c 0.25724,-0.36015 0.36014,-0.56595 0.30869,-0.6174 l 0,-9.56962 -2.3924,0 z m 1.23479,-6.0196 0.3087,-0.23152 2.3924,3.3185 -0.3087,0.23152 z"
     id="path7024" /><path
     inkscape:connector-curvature="0"
     d="m 222.94698,-118.94808 4.47612,0 0,8.64354 c 0.0514,1.13189 -0.43733,1.67211 -1.46631,1.62066 -0.56596,0 -0.95183,-0.0257 -1.15762,-0.0772 l 0,-0.38588 c 0.20579,0.0515 0.59166,0.0772 1.15762,0.0772 0.77173,0.0515 1.13188,-0.36015 1.08044,-1.23479 l 0,-2.16089 -3.70437,0 0,4.01307 -0.38588,0 z m -6.86852,-4.09024 2.00654,0 c 0.0514,-0.20579 0.12862,-0.51448 0.23152,-0.92609 0.20579,-0.61739 0.38587,-1.38913 0.54022,-2.31524 l 0.38587,0.0772 c -0.0515,0.25726 -0.12863,0.64313 -0.23152,1.15761 -0.25725,0.87466 -0.43733,1.54351 -0.54022,2.00654 l 3.39567,0 0,0.3087 -3.47285,0 c -0.36015,1.49205 -0.87464,3.31851 -1.54348,5.47938 l 2.46958,0 0,-3.9359 0.30869,0 0,3.9359 1.92936,0 0,0.3087 -1.92936,0 0,3.6272 2.46959,-0.38588 0.0772,0.38588 -2.54676,0.38587 0,4.63046 -0.30869,0 0,-4.63046 -3.39568,0.46304 -0.0772,-0.38587 3.47285,-0.46304 0,-3.6272 -2.85546,0 0,-0.3087 c 0.6174,-1.85218 1.13189,-3.67864 1.54349,-5.47938 l -1.92936,0 z m 7.2544,7.48592 0,2.7011 3.70437,0 0,-2.7011 z m 0,-3.00981 0,2.62393 3.70437,0 0,-2.62393 z m -1.46632,-1.54348 c 2.72682,-1.54348 4.86198,-3.62719 6.40548,-6.25113 l 0.38587,0.23152 -0.38587,0.54022 c 1.49202,2.21235 3.39566,3.96163 5.71091,5.24786 l -0.15435,0.38588 c -2.41815,-1.44058 -4.34751,-3.21559 -5.78808,-5.32504 -1.5435,2.31525 -3.55004,4.14171 -6.01961,5.47938 z m 10.34137,1.23479 0.38588,0 0,8.56636 c 0.10288,1.18334 -0.48879,1.72356 -1.77502,1.62066 l -1.31196,0 0,-0.38587 1.31196,0 c 1.02898,0.1029 1.49203,-0.3087 1.38914,-1.23479 z m -2.7011,0.69457 0.38587,0 0,6.55982 -0.38587,0 z m -4.01307,-3.39568 5.01634,0 0,0.38587 -5.01634,0 z"
     id="path7026" /><path
     inkscape:connector-curvature="0"
     d="m 241.46884,-125.35355 0.15435,-0.3087 c 1.85218,1.3377 3.13842,3.00981 3.85872,5.01634 1.74928,4.57902 4.45038,8.38628 8.10332,11.42181 l -0.23153,0.23152 c -3.75583,-3.08697 -6.48266,-6.91996 -8.18048,-11.49899 -0.0515,-0.15433 -0.12864,-0.33441 -0.23153,-0.54022 -0.10291,-0.25723 -0.18008,-0.43731 -0.23152,-0.54022 -1.38915,5.14497 -4.27032,9.41528 -8.64353,12.81096 l -0.23153,-0.3087 c 4.37321,-3.34422 7.22866,-7.66599 8.56636,-12.9653 -0.5145,-1.08043 -1.49204,-2.1866 -2.93263,-3.3185 z"
     id="path7028" /><path
     inkscape:connector-curvature="0"
     d="m 260.6081,-119.95134 6.25113,0 0,-4.2446 c -1.28626,0.0515 -3.03554,0.0772 -5.24786,0.0772 l 0,-0.38588 c 3.9616,-0.0514 7.5888,-0.2315 10.88159,-0.54022 l 0,0.38588 c -1.64641,0.20581 -3.39569,0.33443 -5.24786,0.38587 l 0,4.32177 6.25113,0 0,0.38587 -6.25113,0 0,4.01307 4.70764,0 0,7.10004 -0.38587,0 0,-1.46631 -9.02941,0 0,1.46631 -0.38587,0 0,-7.10004 4.70764,0 0,-4.01307 -6.25113,0 z m 1.92936,4.78481 0,4.86199 9.02941,0 0,-4.86199 z m -6.09678,6.55982 2.46958,-6.86852 0.38587,0.15435 -2.46958,6.79135 z m -1.08044,-11.96203 0.23152,-0.3087 3.78155,2.70111 -0.23153,0.30869 z m 1.38914,-4.70764 0.23152,-0.3087 3.24133,2.54676 -0.23153,0.3087 z"
     id="path7030" /><path
     inkscape:connector-curvature="0"
     d="m 283.99195,-121.88071 2.7011,0 0.0772,-4.39894 0.38587,0 -0.0772,4.39894 4.86198,0 -0.23152,10.80442 c -2e-5,1.33769 -0.77176,1.98081 -2.31523,1.92936 -0.97756,0 -1.62068,-0.0257 -1.92936,-0.0772 l 0,-0.38587 c 0.30868,0.0515 0.9518,0.0772 1.92936,0.0772 1.28622,0.0514 1.92934,-0.46305 1.92936,-1.54349 l 0.23152,-10.41854 -4.47611,0 c -0.0515,3.70438 -0.33444,6.37975 -0.84892,8.02614 -0.46306,1.74928 -1.46633,3.44712 -3.00981,5.09351 l -0.30869,-0.23153 c 1.49203,-1.64638 2.46957,-3.29277 2.93262,-4.93916 0.51449,-1.64638 0.79746,-4.29603 0.84892,-7.94896 l -2.7011,0 z m -8.18049,10.65007 c 1.18334,-2.16088 2.23805,-4.65618 3.16415,-7.48591 l -3.78155,0 0,-0.38588 8.56637,0 0,0.38588 -4.39895,0 c -0.77175,2.36668 -1.80074,4.86199 -3.08697,7.48591 l 6.17395,-0.46304 -1.85219,-4.39894 0.38588,-0.15435 2.3924,5.78808 -0.30869,0.15435 -0.46305,-1.00327 -6.48265,0.46305 -0.46305,0.0772 -0.15435,-0.3087 z m 0.3087,-13.04247 6.86852,0 0,0.38587 -6.86852,0 z"
     id="path7032" /><path
     inkscape:connector-curvature="0"
     d="m 296.41703,-109.99584 0,-14.27727 5.01634,0 0,14.12292 -0.3087,0 0,-1.69784 -4.32177,0 0,1.85219 z m 0.38587,-13.8914 0,5.71091 4.32177,0 0,-5.71091 z m 0,6.09678 0,5.55656 4.32177,0 0,-5.55656 z m 5.78808,-4.09025 7.2544,0 0,-3.93589 0.38587,0 0,3.93589 2.85546,0 0,0.38588 -2.85546,0 0,9.87832 c 0.10289,1.85219 -0.79748,2.72683 -2.7011,2.62393 -1.3377,0 -2.31525,-0.0257 -2.93263,-0.0772 l 0.0772,-0.3087 c 1.02898,0 1.9808,0 2.85546,0 1.64637,0.1029 2.41811,-0.64312 2.31523,-2.23806 l 0,-9.87832 -7.2544,0 z m 1.31197,3.3185 0.3087,-0.23152 2.85545,4.24459 -0.3087,0.23153 z"
     id="path7034" /><path
     inkscape:connector-curvature="0"
     d="m 319.87805,-120.87744 7.64027,0 0,8.56636 -7.64027,0 z m 7.33157,0.3087 -6.9457,0 0,3.85872 6.9457,0 z m -6.9457,7.94896 6.9457,0 0,-3.78154 -6.9457,0 z m 1.15762,-12.0392 10.03267,0 0,13.58269 c 0.10288,1.80074 -0.74603,2.64966 -2.54675,2.54676 -0.25727,0 -0.72031,0 -1.38914,0 -0.66886,-0.0515 -1.15763,-0.0772 -1.46632,-0.0772 l 0,-0.38587 c 0.97753,0 1.92935,0 2.85546,0 1.59492,0.15435 2.31521,-0.54022 2.16088,-2.08371 l 0,-13.19682 -9.6468,0 z m -5.47939,2.16088 0.38588,0 0,14.12292 -0.38588,0 z m 0.6174,-3.39567 0.23152,-0.23153 3.0098,3.08698 -0.23152,0.23152 z"
     id="path7036" /><path
     inkscape:connector-curvature="0"
     d="m 337.01077,-111.53933 c 0.1029,1.18334 0.82319,1.85218 2.16089,2.00653 1.33768,-0.15435 2.05797,-0.82319 2.16088,-2.00653 -0.15436,-1.28624 -0.87465,-2.00653 -2.16088,-2.16089 -1.28625,0.15436 -2.00654,0.87465 -2.16089,2.16089 z m -0.38587,0 c 0.15435,-1.54349 1.00326,-2.39241 2.54676,-2.54676 1.54348,0.15435 2.39239,1.00327 2.54675,2.54676 -0.15436,1.38914 -1.00327,2.16088 -2.54675,2.31523 -1.5435,-0.15435 -2.39241,-0.92609 -2.54676,-2.31523 z"
     id="path7038" /><path
     inkscape:connector-curvature="0"
     d="m 358.54244,-115.16653 c 1.64638,-2.52102 2.77827,-5.55655 3.39567,-9.10658 l -2.46958,0 0,-0.38587 7.10005,0 0,0.38587 -4.2446,0 c -0.15436,1.2348 -0.43733,2.46959 -0.84892,3.70437 l 4.09025,0 0,0.3087 c -0.51451,4.73337 -2.67539,8.66926 -6.48265,11.80768 l -0.23153,-0.30869 c 3.75582,-3.08698 5.86525,-6.91997 6.32831,-11.49899 l -3.85873,0 c -0.1029,0.5145 -0.36015,1.20907 -0.77174,2.08371 -0.0515,0.2058 -0.10291,0.36015 -0.15435,0.46304 l 2.85546,1.92936 -0.23153,0.3087 -2.77828,-1.92936 c -0.46305,0.9261 -0.9261,1.74929 -1.38914,2.46958 z m -4.39895,-1.08044 c 1.80074,-2.82972 3.2156,-6.14822 4.2446,-9.9555 l 0.38587,0.15435 c -0.3087,1.18335 -0.84892,2.80401 -1.62066,4.86198 l 0,12.73378 -0.38588,0 0,-11.88486 c -0.87464,2.00655 -1.64639,3.44713 -2.31523,4.32177 z m 16.74685,-9.56963 0.3087,0 0,15.04901 c 0.0514,1.38914 -0.69459,2.05798 -2.23806,2.00654 l -1.69783,-0.0772 0.0772,-0.38587 1.62066,0.0772 c 1.38912,0.1029 2.03224,-0.43732 1.92936,-1.62066 z m -3.3185,2.39241 0.38587,0 0,10.57289 -0.38587,0 z"
     id="path7040" /><path
     inkscape:connector-curvature="0"
     d="m 376.67843,-120.80026 0,3.08697 -0.46305,0 0,-3.08697 z m 0,8.87505 0,3.08698 -0.46305,0 0,-3.08698 z"
     id="path7042" /><path
     inkscape:connector-curvature="0"
     d="m 201.87837,-94.483787 c -2.82973,0.102908 -4.3475,1.723569 -4.55329,4.861988 0.46304,2.82973 1.92935,4.244593 4.39894,4.244593 2.88117,-0.154349 4.39893,-1.697835 4.55329,-4.630465 -0.20581,-2.778272 -1.67212,-4.270309 -4.39894,-4.476116 z m 4.39894,-2.238058 -0.38587,0.07717 c -0.66886,-2.057971 -1.98082,-3.112687 -3.9359,-3.164151 -3.13843,0.154363 -4.75909,2.675392 -4.86199,7.563093 0,0.360154 0,0.720301 0,1.080442 0.7203,-2.418124 2.31523,-3.652913 4.78482,-3.704372 2.93262,0.205807 4.52755,1.826469 4.78481,4.861988 -0.15436,3.138428 -1.80074,4.784814 -4.93916,4.939163 -2.62393,-10e-7 -4.2446,-1.517763 -4.86199,-4.553291 -0.1029,-0.823189 -0.15435,-1.697831 -0.15435,-2.62393 0.1029,-5.0935 1.85218,-7.743152 5.24786,-7.948957 2.10943,0.0515 3.55002,1.209071 4.32177,3.472841 z"
     id="path7044" /><path
     inkscape:connector-curvature="0"
     d="m 208.90124,-85.145682 5.32503,-15.126188 0.38588,0.15435 -5.32504,15.049012 z"
     id="path7046" /><path
     inkscape:connector-curvature="0"
     d="m 226.65136,-99.963171 0,0.385873 c -3.34424,4.784823 -5.55657,9.595356 -6.637,14.431616 l -0.38588,-0.07718 c 1.08044,-4.784809 3.26705,-9.569618 6.55983,-14.354441 l -9.41528,0 0,-0.385873 z"
     id="path7048" /><path
     inkscape:connector-curvature="0"
     d="m 233.82858,-101.89253 0.30869,0.23152 c -2.62393,2.778295 -3.98734,5.993892 -4.09024,9.646804 -0.0515,3.910173 1.31196,7.048597 4.09024,9.415279 l -0.23152,0.308698 c -2.82973,-2.469582 -4.24459,-5.710904 -4.24459,-9.723977 0.1029,-3.755811 1.49203,-7.048583 4.16742,-9.878324 z"
     id="path7050" /><path
     inkscape:connector-curvature="0"
     d="m 238.53622,-100.27187 13.35117,0 0,6.25113 -13.35117,0 z m 0.30869,5.865257 12.65661,0 0,-2.546755 -12.65661,0 z m 12.65661,-5.479383 -12.65661,0 0,2.469581 12.65661,0 z m -12.88813,11.653337 6.55983,0 0,-2.701105 -6.09678,0 c -0.77175,1.080446 -1.64639,2.057988 -2.62393,2.932628 l -0.23153,-0.308698 c 1.49204,-1.337685 2.7011,-2.932622 3.6272,-4.784813 l 0.38587,0.154348 c -0.3087,0.514503 -0.6174,1.054724 -0.92609,1.620663 l 5.86526,0 0,-1.852186 0.38587,0 0,1.852186 7.48592,0 0,0.385872 -7.48592,0 0,2.701105 6.79135,0 0,0.385872 -6.79135,0 0,2.855453 8.25766,0 0,0.385873 -17.51859,0 0,-0.385873 8.87506,0 0,-2.855453 -6.55983,0 z"
     id="path7052" /><path
     inkscape:connector-curvature="0"
     d="m 255.82329,-88.695706 2.00653,0 0,-9.801151 -1.69784,0 0,-0.385872 1.69784,0 0,-2.623931 0.38587,0 0,2.623931 5.01634,0 0,-2.469581 0.38587,0 0,2.469581 1.62067,0 0,0.385872 -1.62067,0 0,9.801151 1.85219,0 0,0.385872 -9.6468,0 z m 11.19029,-11.344634 5.55656,0 0,13.968565 c 0.0514,1.389138 -0.61742,2.057982 -2.00654,2.006534 l -1.62066,-0.07717 0,-0.385872 1.62066,0.07717 c 1.13188,0.05145 1.6721,-0.488772 1.62066,-1.620662 l 0,-4.244593 -4.86198,0 c -0.10292,2.675381 -1.02901,4.913437 -2.77828,6.714174 l -0.3087,-0.231523 c 1.18333,-1.286241 1.92935,-2.469581 2.23806,-3.550023 0.36013,-1.02899 0.54021,-2.675376 0.54022,-4.939163 z m 0.38587,0.385867 0,4.398942 4.78481,0 0,-4.398942 z m 0,7.33157 c -10e-6,0.205805 -0.0257,0.514502 -0.0772,0.926093 -2e-5,0.308703 -2e-5,0.540226 0,0.69457 l 4.86198,0 0,-4.244593 -4.78481,0 z m -9.18376,-2.778279 0,3.009802 5.01634,0 0,-3.009802 z m 0,-3.395675 0,3.009803 5.01634,0 0,-3.009803 z m 0,6.791349 0,3.009802 5.01634,0 0,-3.009802 z m -2.3924,7.485919 c 1.33768,-0.977543 2.44385,-1.92936 3.3185,-2.855454 l 0.30869,0.231523 c -0.87464,0.874644 -2.00653,1.852186 -3.39567,2.932628 z m 5.7109,-2.623931 0.3087,-0.308697 2.39241,2.006535 -0.3087,0.308697 z"
     id="path7054" /><path
     inkscape:connector-curvature="0"
     d="m 275.42559,-93.171822 18.21316,0 0,0.385872 -18.21316,0 z"
     id="path7056" /><path
     inkscape:connector-curvature="0"
     d="m 295.49093,-101.66101 0.23153,-0.23152 c 2.72682,2.881191 4.14169,6.173963 4.24459,9.878324 -10e-6,4.013073 -1.41487,7.254395 -4.24459,9.723977 l -0.23153,-0.308698 c 2.77828,-2.366682 4.14169,-5.505106 4.09025,-9.415279 -0.10291,-3.652912 -1.46632,-6.868509 -4.09025,-9.646804 z"
     id="path7058" /><path
     inkscape:connector-curvature="0"
     d="m 314.86171,-100.34904 0.38588,0 0,15.203358 -0.38588,0 0,-14.354442 c -0.9261,1.749299 -2.54676,3.267061 -4.86198,4.553291 l -0.15435,-0.308698 c 2.52102,-1.389129 4.19313,-3.086964 5.01633,-5.093509 z"
     id="path7060" /><path
     inkscape:connector-curvature="0"
     d="m 322.96503,-91.859857 c 0.87464,0.77175 1.92936,1.183346 3.16415,1.234791 2.82972,-0.102894 4.37321,-1.697831 4.63047,-4.784814 -0.51451,-2.932615 -1.98082,-4.398928 -4.39894,-4.398942 -2.93263,0.154363 -4.47612,1.723575 -4.63047,4.70764 0.0515,1.286248 0.46305,2.366689 1.23479,3.241325 z m -1.31196,3.550023 0.38587,-0.07717 c 0.61739,1.903637 1.92936,2.906903 3.9359,3.009802 3.24131,-0.05145 4.8877,-2.572478 4.93916,-7.563093 -10e-6,-0.360139 -10e-6,-0.694561 0,-1.003267 -0.72031,2.418138 -2.31524,3.652927 -4.78482,3.704372 -1.38914,5e-6 -2.52103,-0.463041 -3.39567,-1.389139 -0.9261,-0.874637 -1.38914,-2.032252 -1.38914,-3.472849 0.2058,-3.189864 1.87791,-4.887699 5.01634,-5.093512 2.62392,0.0515 4.21885,1.620676 4.78481,4.70764 0.10289,0.771753 0.15434,1.620671 0.15435,2.546755 -0.0515,5.196413 -1.82647,7.820341 -5.32503,7.871791 -2.16089,-0.1029 -3.60148,-1.18334 -4.32177,-3.241326 z"
     id="path7062" /><path
     inkscape:connector-curvature="0"
     d="m 336.23903,-96.10445 0,3.086977 -0.46304,0 0,-3.086977 z m 0,8.875058 0,3.086977 -0.46304,0 0,-3.086977 z"
     id="path7064" /><path
     inkscape:connector-curvature="0"
     d="m 340.63798,-92.554426 c 0.0514,4.681916 1.59493,7.074321 4.63046,7.17722 2.98407,-0.05145 4.50183,-2.443854 4.55329,-7.17722 -0.10291,-4.630454 -1.62067,-7.048583 -4.55329,-7.254396 -2.93263,0.257262 -4.47612,2.675392 -4.63046,7.254396 z m -0.38588,0 c 0.15435,-4.836252 1.82646,-7.383005 5.01634,-7.640264 3.13842,0.205809 4.7848,2.752562 4.93916,7.640264 -0.10291,4.887715 -1.74929,7.408743 -4.93916,7.563092 -3.29278,-0.154349 -4.96489,-2.675377 -5.01634,-7.563092 z"
     id="path7066" /><path
     inkscape:connector-curvature="0"
     d="m 353.2174,-92.554426 c 0.0514,4.681916 1.59493,7.074321 4.63046,7.17722 2.98407,-0.05145 4.50183,-2.443854 4.55329,-7.17722 -0.10291,-4.630454 -1.62067,-7.048583 -4.55329,-7.254396 -2.93263,0.257262 -4.47611,2.675392 -4.63046,7.254396 z m -0.38587,0 c 0.15434,-4.836252 1.82645,-7.383005 5.01633,-7.640264 3.13842,0.205809 4.78481,2.752562 4.93917,7.640264 -0.10291,4.887715 -1.7493,7.408743 -4.93917,7.563092 -3.29277,-0.154349 -4.96488,-2.675377 -5.01633,-7.563092 z"
     id="path7068" /><path
     inkscape:connector-curvature="0"
     d="m 379.07084,-93.326171 0.30869,0.154349 c -0.77175,1.234797 -1.80075,1.852192 -3.08697,1.852186 -0.77176,6e-6 -1.59495,-0.308691 -2.46958,-0.926093 -0.0515,-0.05144 -0.10291,-0.07717 -0.15435,-0.07717 -0.77176,-0.617388 -1.5435,-0.926086 -2.31524,-0.926093 -0.9261,0.05146 -1.74929,0.617402 -2.46958,1.697837 l -0.30869,-0.231523 c 0.82318,-1.234784 1.74928,-1.852178 2.77827,-1.852186 0.87464,8e-6 1.72356,0.33443 2.54676,1.003267 0.72028,0.565952 1.51775,0.848925 2.39241,0.848919 1.18332,6e-6 2.10942,-0.51449 2.77828,-1.543489 z"
     id="path7070" /><path
     inkscape:connector-curvature="0"
     d="m 201.87837,-69.787973 c -2.82973,0.102908 -4.3475,1.723569 -4.55329,4.861988 0.46304,2.82973 1.92935,4.244593 4.39894,4.244593 2.88117,-0.154349 4.39893,-1.697836 4.55329,-4.630465 -0.20581,-2.778272 -1.67212,-4.270309 -4.39894,-4.476116 z m 4.39894,-2.238058 -0.38587,0.07717 c -0.66886,-2.057971 -1.98082,-3.112687 -3.9359,-3.164151 -3.13843,0.154363 -4.75909,2.675391 -4.86199,7.563093 0,0.360153 0,0.7203 0,1.080442 0.7203,-2.418124 2.31523,-3.652914 4.78482,-3.704372 2.93262,0.205807 4.52755,1.826468 4.78481,4.861988 -0.15436,3.138428 -1.80074,4.784813 -4.93916,4.939163 -2.62393,-10e-7 -4.2446,-1.517763 -4.86199,-4.553291 -0.1029,-0.823189 -0.15435,-1.697831 -0.15435,-2.62393 0.1029,-5.0935 1.85218,-7.743152 5.24786,-7.948965 2.10943,0.05146 3.55002,1.209079 4.32177,3.472849 z"
     id="path7072" /><path
     inkscape:connector-curvature="0"
     d="m 208.90124,-60.449869 5.32503,-15.126186 0.38588,0.154349 -5.32504,15.049012 z"
     id="path7074" /><path
     inkscape:connector-curvature="0"
     d="m 221.86654,-60.681392 c 2.98407,-0.154349 4.55328,-1.337689 4.70764,-3.550023 -0.10291,-2.366677 -1.67212,-3.601466 -4.70764,-3.704372 -2.98408,0.102906 -4.52757,1.337695 -4.63046,3.704372 0.20579,2.212334 1.74928,3.395674 4.63046,3.550023 z m -4.09024,-11.113116 c 0.0515,2.263791 1.41486,3.421407 4.09024,3.472849 2.77827,7e-6 4.16741,-1.157608 4.16742,-3.472849 -0.25726,-2.057972 -1.6464,-3.189862 -4.16742,-3.395674 -2.46958,0.205812 -3.833,1.337702 -4.09024,3.395674 z m 5.78808,3.627198 c 2.21232,0.565952 3.34421,1.877916 3.39567,3.935895 -0.20581,2.469582 -1.90364,3.781546 -5.09351,3.935895 -3.08698,-0.205799 -4.75909,-1.517763 -5.01634,-3.935895 0.0514,-2.057979 1.18334,-3.369943 3.39568,-3.935895 -1.85219,-0.463039 -2.80401,-1.672104 -2.85545,-3.627198 0.25724,-2.315219 1.74928,-3.575734 4.47611,-3.781547 2.77827,0.205813 4.29603,1.466328 4.55329,3.781547 -1e-5,1.955094 -0.95183,3.164159 -2.85545,3.627198 z"
     id="path7076" /><path
     inkscape:connector-curvature="0"
     d="m 234.29162,-77.196717 0.3087,0.231523 c -2.62393,2.778292 -3.98735,5.99389 -4.09024,9.646802 -0.0514,3.910173 1.31196,7.048596 4.09024,9.415279 l -0.23152,0.308698 c -2.82973,-2.469582 -4.2446,-5.710905 -4.24459,-9.723977 0.10289,-3.755811 1.49203,-7.048583 4.16741,-9.878325 z"
     id="path7078" /><path
     inkscape:connector-curvature="0"
     d="m 238.99926,-75.576055 13.35118,0 0,6.251128 -13.35118,0 z m 0.3087,5.865256 12.6566,0 0,-2.546756 -12.6566,0 z m 12.6566,-5.479383 -12.6566,0 0,2.469581 12.6566,0 z m -12.88812,11.653337 6.55982,0 0,-2.701105 -6.09678,0 c -0.77174,1.080446 -1.64639,2.057988 -2.62393,2.932628 l -0.23152,-0.308698 c 1.49204,-1.337686 2.7011,-2.932622 3.6272,-4.784814 l 0.38587,0.154349 c -0.3087,0.514503 -0.6174,1.054723 -0.92609,1.620663 l 5.86525,0 0,-1.852186 0.38587,0 0,1.852186 7.48592,0 0,0.385872 -7.48592,0 0,2.701105 6.79135,0 0,0.385872 -6.79135,0 0,2.855453 8.25767,0 0,0.385872 -17.5186,0 0,-0.385872 8.87506,0 0,-2.855453 -6.55982,0 z"
     id="path7080" /><path
     inkscape:connector-curvature="0"
     d="m 256.28633,-63.999892 2.00653,0 0,-9.801151 -1.69783,0 0,-0.385872 1.69783,0 0,-2.62393 0.38588,0 0,2.62393 5.01633,0 0,-2.469581 0.38588,0 0,2.469581 1.62066,0 0,0.385872 -1.62066,0 0,9.801151 1.85218,0 0,0.385872 -9.6468,0 z m 11.19029,-11.344639 5.55656,0 0,13.968569 c 0.0514,1.389139 -0.61741,2.057983 -2.00654,2.006535 l -1.62066,-0.07717 0,-0.385872 1.62066,0.07717 c 1.13188,0.05145 1.6721,-0.488772 1.62067,-1.620663 l 0,-4.244593 -4.86199,0 c -0.10291,2.675382 -1.02901,4.913438 -2.77828,6.714175 l -0.3087,-0.231524 c 1.18333,-1.28624 1.92935,-2.46958 2.23806,-3.550023 0.36014,-1.028989 0.54021,-2.675375 0.54022,-4.939163 z m 0.38587,0.385872 0,4.398942 4.78482,0 0,-4.398942 z m 0,7.331569 c -10e-6,0.205805 -0.0257,0.514503 -0.0772,0.926093 -10e-6,0.308704 -10e-6,0.540227 0,0.69457 l 4.86199,0 0,-4.244593 -4.78482,0 z m -9.18375,-2.778279 0,3.009803 5.01633,0 0,-3.009803 z m 0,-3.395674 0,3.009802 5.01633,0 0,-3.009802 z m 0,6.791349 0,3.009802 5.01633,0 0,-3.009802 z m -2.39241,7.485918 c 1.33769,-0.977543 2.44385,-1.92936 3.3185,-2.855453 l 0.3087,0.231523 c -0.87465,0.874644 -2.00654,1.852185 -3.39568,2.932628 z m 5.71091,-2.62393 0.30869,-0.308698 2.39241,2.006535 -0.3087,0.308698 z"
     id="path7082" /><path
     inkscape:connector-curvature="0"
     d="m 276.19733,-61.221613 17.59577,0 0,0.308698 -17.59577,0 z m 1.38914,-13.119651 14.89466,0 0,0.385872 -14.89466,0 z"
     id="path7084" /><path
     inkscape:connector-curvature="0"
     d="m 295.95398,-76.965194 0.23153,-0.231523 c 2.72682,2.881191 4.14169,6.173963 4.24459,9.878325 0,4.013072 -1.41487,7.254395 -4.24459,9.723977 l -0.23153,-0.308698 c 2.77828,-2.366683 4.14169,-5.505106 4.09025,-9.415279 -0.10291,-3.652912 -1.46632,-6.86851 -4.09025,-9.646802 z"
     id="path7086" /><path
     inkscape:connector-curvature="0"
     d="m 315.32476,-75.653229 0.38588,0 0,15.20336 -0.38588,0 0,-14.354441 c -0.9261,1.749299 -2.54676,3.267061 -4.86198,4.55329 l -0.15435,-0.308697 c 2.52102,-1.389129 4.19313,-3.086964 5.01633,-5.093512 z"
     id="path7088" /><path
     inkscape:connector-curvature="0"
     d="m 323.42808,-67.164043 c 0.87464,0.77175 1.92935,1.183346 3.16415,1.234791 2.82972,-0.102894 4.3732,-1.697831 4.63046,-4.784814 -0.5145,-2.932615 -1.98082,-4.398928 -4.39894,-4.398942 -2.93263,0.154363 -4.47612,1.723574 -4.63046,4.707639 0.0514,1.286249 0.46304,2.36669 1.23479,3.241326 z m -1.31197,3.550023 0.38587,-0.07717 c 0.6174,1.903636 1.92936,2.906903 3.9359,3.009802 3.24131,-0.05145 4.8877,-2.572478 4.93916,-7.563093 -1e-5,-0.360139 -1e-5,-0.694562 0,-1.003267 -0.7203,2.418137 -2.31524,3.652927 -4.78481,3.704372 -1.38915,4e-6 -2.52104,-0.463042 -3.39568,-1.38914 -0.92609,-0.874636 -1.38914,-2.032251 -1.38914,-3.472849 0.2058,-3.189863 1.87791,-4.887698 5.01634,-5.093511 2.62392,0.05146 4.21886,1.620676 4.78481,4.707639 0.10289,0.771754 0.15434,1.620671 0.15435,2.546756 -0.0515,5.196413 -1.82647,7.820341 -5.32503,7.871791 -2.16089,-0.1029 -3.60148,-1.183341 -4.32177,-3.241326 z"
     id="path7090" /><path
     inkscape:connector-curvature="0"
     d="m 336.70208,-71.408636 0,3.086977 -0.46305,0 0,-3.086977 z m 0,8.875058 0,3.086977 -0.46305,0 0,-3.086977 z"
     id="path7092" /><path
     inkscape:connector-curvature="0"
     d="m 341.10102,-67.858613 c 0.0514,4.681917 1.59493,7.074322 4.63047,7.177221 2.98406,-0.05145 4.50183,-2.443854 4.55329,-7.177221 -0.10291,-4.630453 -1.62068,-7.048583 -4.55329,-7.254395 -2.93264,0.257262 -4.47612,2.675391 -4.63047,7.254395 z m -0.38587,0 c 0.15435,-4.836252 1.82646,-7.383005 5.01634,-7.640267 3.13841,0.205813 4.7848,2.752566 4.93916,7.640267 -0.10291,4.887715 -1.7493,7.408744 -4.93916,7.563093 -3.29278,-0.154349 -4.96489,-2.675378 -5.01634,-7.563093 z"
     id="path7094" /><path
     inkscape:connector-curvature="0"
     d="m 353.68044,-67.858613 c 0.0515,4.681917 1.59494,7.074322 4.63047,7.177221 2.98407,-0.05145 4.50183,-2.443854 4.55329,-7.177221 -0.10291,-4.630453 -1.62067,-7.048583 -4.55329,-7.254395 -2.93263,0.257262 -4.47612,2.675391 -4.63047,7.254395 z m -0.38587,0 c 0.15435,-4.836252 1.82646,-7.383005 5.01634,-7.640267 3.13841,0.205813 4.7848,2.752566 4.93916,7.640267 -0.10291,4.887715 -1.7493,7.408744 -4.93916,7.563093 -3.29278,-0.154349 -4.96489,-2.675378 -5.01634,-7.563093 z"
     id="path7096" /><path
     inkscape:connector-curvature="0"
     d="m 379.53388,-68.630357 0.3087,0.154349 c -0.77176,1.234797 -1.80075,1.852192 -3.08698,1.852186 -0.77176,6e-6 -1.59495,-0.308692 -2.46958,-0.926093 -0.0515,-0.05144 -0.10291,-0.07717 -0.15435,-0.07717 -0.77175,-0.617388 -1.5435,-0.926085 -2.31523,-0.926093 -0.9261,0.05146 -1.74929,0.617403 -2.46958,1.697838 l -0.3087,-0.231524 c 0.82319,-1.234783 1.74928,-1.852178 2.77828,-1.852186 0.87463,8e-6 1.72355,0.334431 2.54675,1.003268 0.72029,0.565952 1.51776,0.848925 2.39241,0.848918 1.18333,7e-6 2.10942,-0.514489 2.77828,-1.543488 z"
     id="path7098" /><path
     inkscape:connector-curvature="0"
     d="m 201.87837,-45.09216 c -2.82973,0.102908 -4.3475,1.72357 -4.55329,4.861989 0.46304,2.82973 1.92935,4.244592 4.39894,4.244593 2.88117,-0.154349 4.39893,-1.697836 4.55329,-4.630465 -0.20581,-2.778272 -1.67212,-4.270309 -4.39894,-4.476117 z m 4.39894,-2.238058 -0.38587,0.07718 c -0.66886,-2.057972 -1.98082,-3.112688 -3.9359,-3.164151 -3.13843,0.154362 -4.75909,2.675391 -4.86199,7.563093 0,0.360153 0,0.7203 0,1.080441 0.7203,-2.418123 2.31523,-3.652913 4.78482,-3.704372 2.93262,0.205808 4.52755,1.826469 4.78481,4.861989 -0.15436,3.138427 -1.80074,4.784813 -4.93916,4.939162 -2.62393,0 -4.2446,-1.517762 -4.86199,-4.55329 -0.1029,-0.823189 -0.15435,-1.697832 -0.15435,-2.62393 0.1029,-5.0935 1.85218,-7.743153 5.24786,-7.948966 2.10943,0.05147 3.55002,1.20908 4.32177,3.472849 z"
     id="path7100" /><path
     inkscape:connector-curvature="0"
     d="m 208.90124,-35.754055 5.32503,-15.126186 0.38588,0.154349 -5.32504,15.049011 z"
     id="path7102" /><path
     inkscape:connector-curvature="0"
     d="m 218.47087,-42.468229 c 0.87464,0.771749 1.92935,1.183346 3.16415,1.23479 2.82972,-0.102894 4.37321,-1.69783 4.63046,-4.784814 -0.5145,-2.932615 -1.98082,-4.398927 -4.39894,-4.398941 -2.93263,0.154362 -4.47612,1.723574 -4.63046,4.707639 0.0514,1.286249 0.46304,2.366689 1.23479,3.241326 z m -1.31197,3.550023 0.38587,-0.07718 c 0.6174,1.903637 1.92936,2.906903 3.9359,3.009803 3.24132,-0.05145 4.8877,-2.572479 4.93916,-7.563093 -1e-5,-0.36014 -1e-5,-0.694562 0,-1.003268 -0.7203,2.418138 -2.31524,3.652927 -4.78481,3.704372 -1.38915,5e-6 -2.52104,-0.463041 -3.39568,-1.389139 -0.92609,-0.874637 -1.38914,-2.032252 -1.38914,-3.472849 0.2058,-3.189863 1.87791,-4.887699 5.01634,-5.093512 2.62392,0.05147 4.21886,1.620676 4.78482,4.70764 0.10288,0.771753 0.15433,1.620671 0.15434,2.546756 -0.0515,5.196413 -1.82647,7.82034 -5.32503,7.87179 -2.16089,-0.102899 -3.60148,-1.18334 -4.32177,-3.241325 z"
     id="path7104" /><path
     inkscape:connector-curvature="0"
     d="m 234.13727,-52.500904 0.3087,0.231524 c -2.62393,2.778292 -3.98735,5.993889 -4.09024,9.646802 -0.0514,3.910173 1.31196,7.048596 4.09024,9.415279 l -0.23152,0.308697 c -2.82973,-2.469582 -4.2446,-5.710904 -4.2446,-9.723976 0.1029,-3.755812 1.49204,-7.048584 4.16742,-9.878326 z"
     id="path7106" /><path
     inkscape:connector-curvature="0"
     d="m 238.84492,-50.880241 13.35117,0 0,6.251128 -13.35117,0 z m 0.30869,5.865256 12.65661,0 0,-2.546756 -12.65661,0 z m 12.65661,-5.479384 -12.65661,0 0,2.469582 12.65661,0 z m -12.88813,11.653337 6.55983,0 0,-2.701104 -6.09678,0 c -0.77175,1.080446 -1.64639,2.057987 -2.62393,2.932627 l -0.23153,-0.308697 c 1.49204,-1.337686 2.7011,-2.932622 3.6272,-4.784814 l 0.38587,0.154349 c -0.3087,0.514503 -0.6174,1.054723 -0.92609,1.620663 l 5.86526,0 0,-1.852187 0.38587,0 0,1.852187 7.48592,0 0,0.385872 -7.48592,0 0,2.701104 6.79135,0 0,0.385872 -6.79135,0 0,2.855454 8.25766,0 0,0.385872 -17.51859,0 0,-0.385872 8.87506,0 0,-2.855454 -6.55983,0 z"
     id="path7108" /><path
     inkscape:connector-curvature="0"
     d="m 256.13198,-39.304078 2.00654,0 0,-9.801151 -1.69784,0 0,-0.385872 1.69784,0 0,-2.623931 0.38587,0 0,2.623931 5.01634,0 0,-2.469582 0.38587,0 0,2.469582 1.62066,0 0,0.385872 -1.62066,0 0,9.801151 1.85219,0 0,0.385872 -9.64681,0 z m 11.19029,-11.34464 5.55656,0 0,13.96857 c 0.0514,1.389139 -0.61741,2.057983 -2.00653,2.006535 l -1.62067,-0.07717 0,-0.385872 1.62067,0.07717 c 1.13187,0.05145 1.67209,-0.488772 1.62066,-1.620663 l 0,-4.244593 -4.86199,0 c -0.10291,2.675382 -1.029,4.913438 -2.77828,6.714174 L 264.544,-34.44209 c 1.18333,-1.286241 1.92934,-2.469581 2.23805,-3.550023 0.36014,-1.02899 0.54021,-2.675376 0.54022,-4.939163 z m 0.38588,0.385872 0,4.398942 4.78481,0 0,-4.398942 z m 0,7.33157 c -2e-5,0.205805 -0.0257,0.514502 -0.0772,0.926093 -10e-6,0.308703 -10e-6,0.540226 0,0.69457 l 4.86199,0 0,-4.244593 -4.78481,0 z m -9.18376,-2.778279 0,3.009802 5.01634,0 0,-3.009802 z m 0,-3.395674 0,3.009802 5.01634,0 0,-3.009802 z m 0,6.791348 0,3.009803 5.01634,0 0,-3.009803 z m -2.39241,7.485919 c 1.33769,-0.977543 2.44386,-1.92936 3.3185,-2.855454 l 0.3087,0.231524 c -0.87465,0.874644 -2.00654,1.852185 -3.39567,2.932628 z m 5.71091,-2.62393 0.3087,-0.308698 2.39241,2.006535 -0.3087,0.308698 z"
     id="path7110" /><path
     inkscape:connector-curvature="0"
     d="m 276.12016,-36.217102 17.44141,0 0,0.308698 -17.44141,0 z m 1.15761,-13.81422 15.12619,0 0,0.385872 -15.12619,0 z m 0.77175,6.559825 13.58269,0 0,0.385872 -13.58269,0 z"
     id="path7112" /><path
     inkscape:connector-curvature="0"
     d="m 295.79963,-52.26938 0.23153,-0.231524 c 2.72682,2.881192 4.14169,6.173964 4.24459,9.878326 0,4.013072 -1.41487,7.254394 -4.24459,9.723976 l -0.23153,-0.308697 c 2.77828,-2.366683 4.14169,-5.505106 4.09025,-9.415279 -0.10291,-3.652913 -1.46632,-6.86851 -4.09025,-9.646802 z"
     id="path7114" /><path
     inkscape:connector-curvature="0"
     d="m 308.99646,-36.217102 9.18376,0 0,0.385873 -9.64681,0 0,-0.385873 c 1.18334,-2.366679 2.98408,-4.373212 5.40221,-6.019604 2.72682,-1.543481 3.98734,-3.138417 3.78155,-4.784814 -0.10291,-2.21232 -1.51777,-3.369935 -4.24459,-3.472849 -2.10944,0.05146 -3.49858,1.234804 -4.16742,3.550023 l -0.3087,-0.07717 c 0.66884,-2.521018 2.16088,-3.807257 4.47612,-3.858721 2.93262,0.102914 4.45038,1.389153 4.55329,3.858721 0.15434,1.800745 -1.1319,3.498581 -3.85872,5.093512 -2.26379,1.492042 -3.98735,3.395676 -5.17069,5.710906 z"
     id="path7116" /><path
     inkscape:connector-curvature="0"
     d="m 321.34437,-43.162799 c 0.0514,4.681917 1.59493,7.074321 4.63046,7.177221 2.98407,-0.05145 4.50183,-2.443855 4.55329,-7.177221 -0.10291,-4.630454 -1.62067,-7.048583 -4.55329,-7.254395 -2.93263,0.257262 -4.47612,2.675391 -4.63046,7.254395 z m -0.38587,0 c 0.15434,-4.836252 1.82645,-7.383005 5.01633,-7.640268 3.13842,0.205813 4.78481,2.752567 4.93917,7.640268 -0.10292,4.887715 -1.7493,7.408743 -4.93917,7.563093 -3.29278,-0.15435 -4.96489,-2.675378 -5.01633,-7.563093 z"
     id="path7118" /><path
     inkscape:connector-curvature="0"
     d="m 335.77598,-46.712822 0,3.086976 -0.46305,0 0,-3.086976 z m 0,8.875058 0,3.086976 -0.46305,0 0,-3.086976 z"
     id="path7120" /><path
     inkscape:connector-curvature="0"
     d="m 340.17492,-43.162799 c 0.0514,4.681917 1.59493,7.074321 4.63046,7.177221 2.98407,-0.05145 4.50183,-2.443855 4.55329,-7.177221 -0.10291,-4.630454 -1.62067,-7.048583 -4.55329,-7.254395 -2.93263,0.257262 -4.47611,2.675391 -4.63046,7.254395 z m -0.38587,0 c 0.15434,-4.836252 1.82645,-7.383005 5.01633,-7.640268 3.13842,0.205813 4.78481,2.752567 4.93917,7.640268 -0.10291,4.887715 -1.7493,7.408743 -4.93917,7.563093 -3.29277,-0.15435 -4.96489,-2.675378 -5.01633,-7.563093 z"
     id="path7122" /><path
     inkscape:connector-curvature="0"
     d="m 352.75436,-43.162799 c 0.0514,4.681917 1.59493,7.074321 4.63046,7.177221 2.98407,-0.05145 4.50183,-2.443855 4.55329,-7.177221 -0.10291,-4.630454 -1.62067,-7.048583 -4.55329,-7.254395 -2.93263,0.257262 -4.47612,2.675391 -4.63046,7.254395 z m -0.38588,0 c 0.15435,-4.836252 1.82646,-7.383005 5.01634,-7.640268 3.13842,0.205813 4.7848,2.752567 4.93916,7.640268 -0.10291,4.887715 -1.74929,7.408743 -4.93916,7.563093 -3.29278,-0.15435 -4.96489,-2.675378 -5.01634,-7.563093 z"
     id="path7124" /><path
     inkscape:connector-curvature="0"
     d="m 378.60778,-43.934543 0.3087,0.154348 c -0.77176,1.234798 -1.80075,1.852192 -3.08698,1.852187 -0.77176,5e-6 -1.59495,-0.308692 -2.46958,-0.926093 -0.0515,-0.05144 -0.10291,-0.07717 -0.15435,-0.07717 -0.77175,-0.617388 -1.5435,-0.926085 -2.31523,-0.926093 -0.9261,0.05146 -1.7493,0.617402 -2.46959,1.697837 l -0.30869,-0.231523 c 0.82319,-1.234783 1.74928,-1.852178 2.77828,-1.852186 0.87463,8e-6 1.72355,0.33443 2.54675,1.003267 0.72029,0.565953 1.51775,0.848925 2.39241,0.848919 1.18333,6e-6 2.10942,-0.514489 2.77828,-1.543488 z"
     id="path7126" /></g></g></svg>