<?xml version="1.0" encoding="UTF-8" standalone="no"?>
<!-- Created with Inkscape (http://www.inkscape.org/) -->

<svg
   xmlns:dc="http://purl.org/dc/elements/1.1/"
   xmlns:cc="http://creativecommons.org/ns#"
   xmlns:rdf="http://www.w3.org/1999/02/22-rdf-syntax-ns#"
   xmlns:svg="http://www.w3.org/2000/svg"
   xmlns="http://www.w3.org/2000/svg"
   xmlns:sodipodi="http://sodipodi.sourceforge.net/DTD/sodipodi-0.dtd"
   xmlns:inkscape="http://www.inkscape.org/namespaces/inkscape"
   id="svg2985"
   version="1.1"
   inkscape:version="0.48.0 r9654"
   width="524"
   height="50"
   xml:space="preserve"
   sodipodi:docname="title.svg"><metadata
     id="metadata2991"><rdf:RDF><cc:Work
         rdf:about=""><dc:format>image/svg+xml</dc:format><dc:type
           rdf:resource="http://purl.org/dc/dcmitype/StillImage" /><dc:title></dc:title></cc:Work></rdf:RDF></metadata><defs
     id="defs2989"><linearGradient
   x1="0"
   y1="0"
   x2="1"
   y2="0"
   gradientUnits="userSpaceOnUse"
   gradientTransform="matrix(-1.53e-5,-493.4751,-493.4751,1.53e-5,329.23291,493.47461)"
   spreadMethod="pad"
   id="linearGradient3007"><stop
     style="stop-opacity:1;stop-color:#d8d8d8"
     offset="0"
     id="stop3009" /><stop
     style="stop-opacity:1;stop-color:#464646"
     offset="1"
     id="stop3011" /></linearGradient><clipPath
   clipPathUnits="userSpaceOnUse"
   id="clipPath3019"><path
     d="m 0,493.475 658.467,0 L 658.467,0 0,0 0,493.475 z"
     id="path3021"
     inkscape:connector-curvature="0" /></clipPath><clipPath
   clipPathUnits="userSpaceOnUse"
   id="clipPath3317"><path
     d="m 0,493.475 658.467,0 L 658.467,0 0,0 0,493.475 z"
     id="path3319"
     inkscape:connector-curvature="0" /></clipPath><clipPath
   clipPathUnits="userSpaceOnUse"
   id="clipPath3325"><path
     d="m 405.367,348.229 232.804,0 0,-202.984 -232.804,0 0,202.984 z"
     id="path3327"
     inkscape:connector-curvature="0" /></clipPath><clipPath
   clipPathUnits="userSpaceOnUse"
   id="clipPath3329"><path
     d="m 405.367,348.229 232.804,0 0,-202.984 -232.804,0 0,202.984 z"
     id="path3331"
     inkscape:connector-curvature="0" /></clipPath><clipPath
   clipPathUnits="userSpaceOnUse"
   id="clipPath3333"><path
     d="m 406.193,347.403 231.005,0 0,-201.331 -231.005,0 0,201.331 z"
     id="path3335"
     inkscape:connector-curvature="0" /></clipPath><clipPath
   clipPathUnits="userSpaceOnUse"
   id="clipPath3337"><path
     d="m 407.019,346.577 229.206,0 0,-199.68 -229.206,0 0,199.68 z"
     id="path3339"
     inkscape:connector-curvature="0" /></clipPath><clipPath
   clipPathUnits="userSpaceOnUse"
   id="clipPath3341"><path
     d="m 407.844,345.751 227.406,0 0,-198.027 -227.406,0 0,198.027 z"
     id="path3343"
     inkscape:connector-curvature="0" /></clipPath><clipPath
   clipPathUnits="userSpaceOnUse"
   id="clipPath3345"><path
     d="m 408.67,344.925 225.607,0 0,-196.376 -225.607,0 0,196.376 z"
     id="path3347"
     inkscape:connector-curvature="0" /></clipPath><clipPath
   clipPathUnits="userSpaceOnUse"
   id="clipPath3349"><path
     d="m 409.496,344.099 223.807,0 0,-194.724 -223.807,0 0,194.724 z"
     id="path3351"
     inkscape:connector-curvature="0" /></clipPath><clipPath
   clipPathUnits="userSpaceOnUse"
   id="clipPath3353"><path
     d="m 410.322,343.273 222.007,0 0,-193.072 -222.007,0 0,193.072 z"
     id="path3355"
     inkscape:connector-curvature="0" /></clipPath><clipPath
   clipPathUnits="userSpaceOnUse"
   id="clipPath3357"><path
     d="m 411.148,342.448 220.207,0 0,-191.422 -220.207,0 0,191.422 z"
     id="path3359"
     inkscape:connector-curvature="0" /></clipPath><clipPath
   clipPathUnits="userSpaceOnUse"
   id="clipPath3487"><path
     d="m 212.831,348.229 232.805,0 0,-202.984 -232.805,0 0,202.984 z"
     id="path3489"
     inkscape:connector-curvature="0" /></clipPath><clipPath
   clipPathUnits="userSpaceOnUse"
   id="clipPath3491"><path
     d="m 212.831,348.229 232.805,0 0,-202.984 -232.805,0 0,202.984 z"
     id="path3493"
     inkscape:connector-curvature="0" /></clipPath><clipPath
   clipPathUnits="userSpaceOnUse"
   id="clipPath3495"><path
     d="m 213.657,347.403 231.005,0 0,-201.331 -231.005,0 0,201.331 z"
     id="path3497"
     inkscape:connector-curvature="0" /></clipPath><clipPath
   clipPathUnits="userSpaceOnUse"
   id="clipPath3499"><path
     d="m 214.483,346.577 229.204,0 0,-199.68 -229.204,0 0,199.68 z"
     id="path3501"
     inkscape:connector-curvature="0" /></clipPath><clipPath
   clipPathUnits="userSpaceOnUse"
   id="clipPath3503"><path
     d="m 215.31,345.751 227.405,0 0,-198.027 -227.405,0 0,198.027 z"
     id="path3505"
     inkscape:connector-curvature="0" /></clipPath><clipPath
   clipPathUnits="userSpaceOnUse"
   id="clipPath3507"><path
     d="m 216.135,344.925 225.606,0 0,-196.376 -225.606,0 0,196.376 z"
     id="path3509"
     inkscape:connector-curvature="0" /></clipPath><clipPath
   clipPathUnits="userSpaceOnUse"
   id="clipPath3511"><path
     d="m 216.961,344.1 223.807,0 0,-194.724 -223.807,0 0,194.724 z"
     id="path3513"
     inkscape:connector-curvature="0" /></clipPath><clipPath
   clipPathUnits="userSpaceOnUse"
   id="clipPath3515"><path
     d="m 217.787,343.273 222.007,0 0,-193.072 -222.007,0 0,193.072 z"
     id="path3517"
     inkscape:connector-curvature="0" /></clipPath><clipPath
   clipPathUnits="userSpaceOnUse"
   id="clipPath3519"><path
     d="m 218.613,342.448 220.207,0 0,-191.422 -220.207,0 0,191.422 z"
     id="path3521"
     inkscape:connector-curvature="0" /></clipPath><clipPath
   clipPathUnits="userSpaceOnUse"
   id="clipPath3649"><path
     d="m 20.2959,348.229 232.8041,0 0,-202.984 -232.8041,0 0,202.984 z"
     id="path3651"
     inkscape:connector-curvature="0" /></clipPath><clipPath
   clipPathUnits="userSpaceOnUse"
   id="clipPath3653"><path
     d="m 20.2959,348.229 232.8041,0 0,-202.984 -232.8041,0 0,202.984 z"
     id="path3655"
     inkscape:connector-curvature="0" /></clipPath><clipPath
   clipPathUnits="userSpaceOnUse"
   id="clipPath3657"><path
     d="m 21.1216,347.403 231.0054,0 0,-201.331 -231.0054,0 0,201.331 z"
     id="path3659"
     inkscape:connector-curvature="0" /></clipPath><clipPath
   clipPathUnits="userSpaceOnUse"
   id="clipPath3661"><path
     d="m 21.9473,346.577 229.2057,0 0,-199.68 -229.2057,0 0,199.68 z"
     id="path3663"
     inkscape:connector-curvature="0" /></clipPath><clipPath
   clipPathUnits="userSpaceOnUse"
   id="clipPath3665"><path
     d="m 22.7729,345.751 227.4061,0 0,-198.027 -227.4061,0 0,198.027 z"
     id="path3667"
     inkscape:connector-curvature="0" /></clipPath><clipPath
   clipPathUnits="userSpaceOnUse"
   id="clipPath3669"><path
     d="m 23.5991,344.925 225.6069,0 0,-196.376 -225.6069,0 0,196.376 z"
     id="path3671"
     inkscape:connector-curvature="0" /></clipPath><clipPath
   clipPathUnits="userSpaceOnUse"
   id="clipPath3673"><path
     d="m 24.4253,344.1 223.8067,0 0,-194.724 -223.8067,0 0,194.724 z"
     id="path3675"
     inkscape:connector-curvature="0" /></clipPath><clipPath
   clipPathUnits="userSpaceOnUse"
   id="clipPath3677"><path
     d="m 25.251,343.273 222.008,0 0,-193.072 -222.008,0 0,193.072 z"
     id="path3679"
     inkscape:connector-curvature="0" /></clipPath><clipPath
   clipPathUnits="userSpaceOnUse"
   id="clipPath3681"><path
     d="m 26.0771,342.448 220.2079,0 0,-191.422 -220.2079,0 0,191.422 z"
     id="path3683"
     inkscape:connector-curvature="0" /></clipPath>
</defs><sodipodi:namedview
     pagecolor="#ffffff"
     bordercolor="#666666"
     borderopacity="1"
     objecttolerance="10"
     gridtolerance="10"
     guidetolerance="10"
     inkscape:pageopacity="0"
     inkscape:pageshadow="2"
     inkscape:window-width="1280"
     inkscape:window-height="705"
     id="namedview2987"
     showgrid="false"
     inkscape:zoom="1.2922377"
     inkscape:cx="264.20436"
     inkscape:cy="59.086838"
     inkscape:window-x="-8"
     inkscape:window-y="-8"
     inkscape:window-maximized="1"
     inkscape:current-layer="g2993" /><g
     id="g2993"
     inkscape:groupmode="layer"
     inkscape:label="FreeVector-ABC-Icons"
     transform="matrix(1.25,0,0,-1.25,0,49.99997)"><g
   id="g3015"><g
     id="g3017"
     clip-path="url(#clipPath3019)"><g
       id="g3023"
       transform="translate(125.1118,-10.8184)"><path
         d="m 0,0 c -0.02,0.858 -0.779,1.464 -1.62,1.464 -1.852,0 -2.145,-1.579 -2.145,-2.984 0,-1.305 0.567,-2.652 1.973,-2.652 1.147,0 1.733,0.662 1.89,1.734 l 3.218,0 c -0.293,-2.708 -2.4,-4.271 -5.091,-4.271 -3.041,0 -5.304,2.089 -5.304,5.189 0,3.219 2.048,5.521 5.304,5.521 C 0.741,4.001 2.983,2.673 3.219,0 L 0,0 z"
         style="fill:#000000;fill-opacity:1;fill-rule:nonzero;stroke:none"
         id="path3025"
         inkscape:connector-curvature="0" /></g><g
       id="g3027"
       transform="translate(133.7192,-6.8926)"><path
         d="m 0,0 c -3.126,0 -5.303,-2.313 -5.303,-5.345 0,-3.029 2.177,-5.324 5.303,-5.324 3.127,0 5.326,2.295 5.326,5.324 C 5.326,-2.313 3.127,0 0,0"
         style="fill:#000000;fill-opacity:1;fill-rule:nonzero;stroke:none"
         id="path3029"
         inkscape:connector-curvature="0" /></g><g
       id="g3031"
       transform="translate(116.3755,-14.3965)"><path
         d="m 0,0 c -0.86,0 -1.458,-0.636 -1.458,-1.468 0,-0.833 0.598,-1.462 1.458,-1.462 0.859,0 1.461,0.629 1.461,1.462 C 1.461,-0.636 0.859,0 0,0"
         style="fill:#000000;fill-opacity:1;fill-rule:nonzero;stroke:none"
         id="path3033"
         inkscape:connector-curvature="0" /></g><g
       id="g3035"
       transform="translate(139.2764,-7.54)"><path
         d="m 0,0 3.139,0 0,-1.352 0.037,0 c 0.591,0.991 1.635,1.637 2.835,1.637 1.235,0 2.338,-0.398 2.87,-1.598 0.781,1.046 1.749,1.598 3.081,1.598 3.139,0 3.48,-2.377 3.48,-4.262 l 0,-5.892 -3.234,0 0,5.8 c 0,1.064 -0.512,1.69 -1.349,1.69 -1.388,0 -1.521,-1.062 -1.521,-2.661 l 0,-4.829 -3.233,0 0,5.609 c 0,1.159 -0.343,1.881 -1.216,1.881 -1.162,0 -1.654,-0.665 -1.654,-2.681 l 0,-4.809 L 0,-9.869 0,0 z"
         style="fill:#000000;fill-opacity:1;fill-rule:nonzero;stroke:none"
         id="path3037"
         inkscape:connector-curvature="0" /></g><g
       id="g3039"
       transform="translate(73.5513,-17.3057)"><path
         d="m 0,0 -3.686,0 -3.256,9.762 3.33,0 1.786,-6.454 0.038,0 1.807,6.454 3.257,0 L 0,0 z"
         style="fill:#000000;fill-opacity:1;fill-rule:nonzero;stroke:none"
         id="path3041"
         inkscape:connector-curvature="0" /></g><g
       id="g3043"
       transform="translate(78.5659,-13.208)"><path
         d="m 0,0 c 0.056,-1.335 0.831,-2.219 2.184,-2.219 0.767,0 1.52,0.361 1.818,1.073 l 2.993,0 C 6.414,-3.403 4.324,-4.383 2.142,-4.383 c -3.177,0 -5.341,1.922 -5.341,5.193 0,2.99 2.392,5.133 5.267,5.133 3.498,0 5.25,-2.631 5.1,-5.943 L 0,0 z"
         style="fill:#000000;fill-opacity:1;fill-rule:nonzero;stroke:none"
         id="path3045"
         inkscape:connector-curvature="0" /></g><g
       id="g3047"
       transform="translate(92.5742,-11.1182)"><path
         d="m 0,0 c -0.02,0.827 -0.752,1.412 -1.562,1.412 -1.788,0 -2.068,-1.528 -2.068,-2.881 0,-1.261 0.547,-2.558 1.903,-2.558 1.107,0 1.668,0.64 1.823,1.676 l 3.1,0 c -0.279,-2.614 -2.314,-4.122 -4.907,-4.122 -2.934,0 -5.113,2.014 -5.113,5.004 0,3.105 1.973,5.323 5.113,5.323 C 0.713,3.854 2.878,2.575 3.104,0 L 0,0 z"
         style="fill:#000000;fill-opacity:1;fill-rule:nonzero;stroke:none"
         id="path3049"
         inkscape:connector-curvature="0" /></g><g
       id="g3051"
       transform="translate(101.8462,-9.6143)"><path
         d="m 0,0 -1.971,0 0,-4.439 c 0,-0.772 0.451,-0.941 1.145,-0.941 0.262,0 0.548,0.039 0.826,0.039 l 0,-2.35 c -0.58,-0.018 -1.161,-0.096 -1.749,-0.096 -2.726,0 -3.422,0.79 -3.422,3.445 l 0,4.342 -1.617,0 0,2.07 1.617,0 0,2.952 3.2,0 0,-2.952 L 0,2.07 0,0 z"
         style="fill:#000000;fill-opacity:1;fill-rule:nonzero;stroke:none"
         id="path3053"
         inkscape:connector-curvature="0" /></g><g
       id="g3055"
       transform="translate(106.2373,-7.2646)"><path
         d="m 0,0 c -3.027,0 -5.135,-2.239 -5.135,-5.17 0,-2.935 2.108,-5.156 5.135,-5.156 3.027,0 5.153,2.221 5.153,5.156 C 5.153,-2.239 3.027,0 0,0"
         style="fill:#000000;fill-opacity:1;fill-rule:nonzero;stroke:none"
         id="path3057"
         inkscape:connector-curvature="0" /></g><g
       id="g3059"
       transform="translate(111.1758,-7.5439)"><path
         d="m 0,0 3.107,0 0,-1.711 0.035,0 c 0.47,1.236 1.558,1.899 2.933,1.899 0.243,0 0.507,-0.024 0.751,-0.074 l 0,-2.915 C 6.414,-2.693 6.038,-2.62 5.603,-2.62 4.024,-2.62 3.197,-3.708 3.197,-4.927 l 0,-4.835 L 0,-9.762 0,0 z"
         style="fill:#000000;fill-opacity:1;fill-rule:nonzero;stroke:none"
         id="path3061"
         inkscape:connector-curvature="0" /></g><g
       id="g3063"
       transform="translate(41.4951,-7.5439)"><path
         d="m 0,0 3.106,0 0,-1.711 0.037,0 c 0.468,1.236 1.561,1.899 2.935,1.899 0.244,0 0.509,-0.024 0.749,-0.074 l 0,-2.915 C 6.415,-2.693 6.042,-2.62 5.604,-2.62 4.029,-2.62 3.198,-3.708 3.198,-4.927 l 0,-4.835 L 0,-9.762 0,0 z"
         style="fill:#000000;fill-opacity:1;fill-rule:nonzero;stroke:none"
         id="path3065"
         inkscape:connector-curvature="0" /></g><g
       id="g3067"
       transform="translate(50.375,-13.208)"><path
         d="m 0,0 c 0.055,-1.335 0.825,-2.219 2.181,-2.219 0.769,0 1.524,0.361 1.823,1.073 l 2.993,0 C 6.411,-3.403 4.326,-4.383 2.145,-4.383 -1.036,-4.383 -3.2,-2.461 -3.2,0.81 -3.2,3.8 -0.81,5.943 2.07,5.943 5.568,5.943 7.315,3.312 7.166,0 L 0,0 z"
         style="fill:#000000;fill-opacity:1;fill-rule:nonzero;stroke:none"
         id="path3069"
         inkscape:connector-curvature="0" /></g><g
       id="g3071"
       transform="translate(60.458,-13.208)"><path
         d="m 0,0 c 0.055,-1.335 0.826,-2.219 2.182,-2.219 0.769,0 1.522,0.361 1.823,1.073 l 2.991,0 c -0.582,-2.257 -2.67,-3.237 -4.851,-3.237 -3.179,0 -5.341,1.922 -5.341,5.193 0,2.99 2.384,5.133 5.266,5.133 C 5.567,5.943 7.317,3.312 7.167,0 L 0,0 z"
         style="fill:#000000;fill-opacity:1;fill-rule:nonzero;stroke:none"
         id="path3073"
         inkscape:connector-curvature="0" /></g><g
       id="g3075"
       transform="translate(40.9141,-6.1377)"><path
         d="m 0,0 c 0.283,0 0.564,-0.018 0.864,-0.055 l 0,2.259 c -0.509,0.02 -1.035,0.055 -1.543,0.055 -2.725,0 -3.704,-0.865 -3.704,-3.665 l -1.541,0 0,-2.071 1.541,0 0,-7.691 3.195,0 0,7.691 1.919,0 0,2.071 -1.919,0 0,0.431 C -1.188,-0.092 -0.735,0 0,0"
         style="fill:#000000;fill-opacity:1;fill-rule:nonzero;stroke:none"
         id="path3077"
         inkscape:connector-curvature="0" /></g><g
       id="g3079"
       transform="translate(31.8374,-10.6475)"><path
         d="m 0,0 c 0,-3.982 -3.228,-7.212 -7.211,-7.212 -3.983,0 -7.212,3.23 -7.212,7.212 0,3.981 3.229,7.21 7.212,7.21 C -3.228,7.21 0,3.981 0,0"
         style="fill:#ffffff;fill-opacity:1;fill-rule:nonzero;stroke:none"
         id="path3081"
         inkscape:connector-curvature="0" /></g><g
       id="g3083"
       transform="translate(27.1284,-13.9258)"><path
         d="m 0,0 0.019,-0.013 c 0,0 -0.007,0.005 -0.013,0.01 -0.001,0 -0.004,0 -0.006,0.003 m -3.204,1.693 c -0.35,-0.123 -0.816,0.196 -1.023,0.356 -0.177,0.203 -1.242,1.338 -1.365,1.48 -0.266,0.307 -0.063,0.942 0.594,1.161 0.186,0.063 0.471,0.068 0.644,-0.125 0.776,-0.928 1.586,-1.918 1.646,-2.109 0.1,-0.333 -0.084,-0.62 -0.496,-0.763 m 0.682,8.825 c -0.659,0 -1.294,-0.086 -1.9,-0.246 0.249,-0.021 0.412,-0.178 0.497,-0.492 0,0 1.356,-4.485 1.518,-4.989 0.159,-0.506 0.35,-1.059 0.35,-1.059 C -2.164,3.643 -2.262,3.529 -2.336,3.38 -2.476,3.089 -2.552,2.853 -2.585,2.617 c -0.21,0.36 -1.033,1.368 -1.589,2.04 0,0 -0.036,0.446 -0.155,0.873 -0.12,0.425 -0.886,3.309 -0.886,3.309 C -5.351,9.375 -5.294,9.841 -5,10.094 -7.829,9.093 -9.854,6.425 -9.854,3.286 c 0,-2.85 1.674,-5.315 4.108,-6.493 -0.25,0.366 -0.538,0.937 -0.673,1.743 -0.224,1.325 -0.268,2.183 -0.436,2.922 -0.223,0.988 -0.156,1.217 0.184,1.652 0.168,0.215 0.359,0.348 0.537,0.407 0.178,0.047 0.362,-0.059 0.43,-0.135 C -5.276,2.924 -4.458,2.044 -4.358,1.919 -4.16,1.687 -4.133,1.395 -4.28,1.047 -4.338,0.906 -4.498,0.843 -4.623,0.813 -4.906,0.747 -5.227,0.806 -5.337,0.9 c -0.23,0.193 -1.35,1.217 -1.35,1.166 0,-0.269 0.833,-0.928 1.229,-1.305 0.161,-0.157 0.558,-0.201 0.879,-0.126 0.238,0.056 0.4,0.174 0.471,0.343 0.11,0.259 0.135,0.501 0.076,0.717 0.26,-0.15 0.595,-0.278 0.891,-0.176 0.288,0.1 0.462,0.255 0.556,0.422 0.019,-0.192 0.05,-0.407 0.091,-0.663 0.099,-0.646 0.22,-1.007 0.293,-1.222 0.027,-0.08 0.054,-0.163 0.051,-0.189 -0.002,-0.005 -0.005,-0.009 -0.011,-0.014 -0.17,-0.239 -0.422,-0.628 -0.582,-1.111 -0.106,-0.321 -0.186,-0.758 -0.196,-1.169 -0.005,-0.144 0,-0.367 0.042,-0.367 0.044,10e-4 0.038,0.228 0.054,0.367 0.045,0.416 0.112,0.835 0.233,1.137 0.159,0.392 0.37,0.712 0.6,1.035 0.01,0.012 0.015,0.021 0.02,0.026 0.053,0.079 0.024,0.166 -0.034,0.341 -0.072,0.211 -0.188,0.562 -0.288,1.195 -0.143,0.933 -0.198,1.284 0.145,1.993 0.276,0.576 1.01,0.583 1.168,0.517 0.061,-0.033 0.065,-0.384 0.072,-0.697 0.008,-0.349 0.015,-0.782 0.073,-1.309 0.072,-0.665 0.344,-1.184 0.589,-1.486 0.199,-0.24 0.358,-0.347 0.397,-0.31 0.037,0.036 -0.136,0.167 -0.313,0.443 -0.196,0.304 -0.421,0.763 -0.488,1.373 -0.058,0.517 -0.065,0.948 -0.071,1.294 -0.012,0.526 -0.016,0.789 -0.187,0.86 -0.085,0.037 -0.264,0.057 -0.47,0.03 l 1.353,4.533 c 0.236,0.817 0.485,1.151 1.007,1.098 0.005,0 0.01,-0.004 0.017,-0.005 -1.041,0.558 -2.233,0.877 -3.502,0.877"
         style="fill:#000000;fill-opacity:1;fill-rule:nonzero;stroke:none"
         id="path3085"
         inkscape:connector-curvature="0" /></g><g
       id="g3087"
       transform="translate(28.5015,-4.5146)"><path
         d="m 0,0 c 0.174,-0.181 0.245,-0.433 0.171,-0.7 l -1.215,-5.404 c -0.074,-0.419 -0.197,-1.288 -0.086,-1.881 0.149,-0.809 0.468,-1.9 0.235,-3.106 -0.125,-0.64 -0.318,-1.336 -0.641,-1.878 2.889,0.969 4.97,3.667 4.97,6.844 C 3.434,-3.544 2.063,-1.279 0,0"
         style="fill:#000000;fill-opacity:1;fill-rule:nonzero;stroke:none"
         id="path3089"
         inkscape:connector-curvature="0" /></g><path
       d="m 169.155,-7.771 2.498,0 0,-9.587 -2.498,0 0,9.587 z"
       style="fill:#000000;fill-opacity:1;fill-rule:nonzero;stroke:none"
       id="path3091"
       inkscape:connector-curvature="0" /><g
       id="g3093"
       transform="translate(173.2896,-10.3887)"><path
         d="m 0,0 2.215,0 0,-0.953 0.027,0 c 0.416,0.699 1.155,1.155 2.001,1.155 0.873,0 1.652,-0.282 2.028,-1.128 0.55,0.738 1.235,1.128 2.175,1.128 2.216,0 2.457,-1.679 2.457,-3.008 l 0,-4.163 -2.282,0 0,4.096 c 0,0.752 -0.363,1.194 -0.954,1.194 -0.98,0 -1.074,-0.751 -1.074,-1.879 l 0,-3.411 -2.283,0 0,3.961 c 0,0.82 -0.242,1.329 -0.859,1.329 -0.819,0 -1.169,-0.469 -1.169,-1.892 l 0,-3.398 L 0,-6.969 0,0 z"
         style="fill:#000000;fill-opacity:1;fill-rule:nonzero;stroke:none"
         id="path3095"
         inkscape:connector-curvature="0" /></g><g
       id="g3097"
       transform="translate(188.5796,-16.1484)"><path
         d="M 0,0 C 1.088,0 1.451,0.617 1.396,2.055 1.075,1.853 0.483,1.813 -0.013,1.678 -0.524,1.557 -0.954,1.343 -0.954,0.792 -0.954,0.228 -0.51,0 0,0 m -2.954,3.611 c 0.04,0.913 0.47,1.505 1.087,1.868 0.618,0.348 1.424,0.483 2.216,0.483 1.652,0 3.25,-0.362 3.25,-2.337 l 0,-3.048 c 0,-0.591 0,-1.236 0.269,-1.786 l -2.297,0 c -0.08,0.214 -0.107,0.43 -0.134,0.658 -0.591,-0.618 -1.463,-0.859 -2.296,-0.859 -1.329,0 -2.377,0.671 -2.377,2.107 0,2.271 2.47,2.095 4.055,2.417 0.389,0.081 0.605,0.216 0.605,0.646 0,0.523 -0.632,0.724 -1.102,0.724 -0.631,0 -1.033,-0.281 -1.141,-0.873 l -2.135,0 z"
         style="fill:#000000;fill-opacity:1;fill-rule:nonzero;stroke:none"
         id="path3099"
         inkscape:connector-curvature="0" /></g><g
       id="g3101"
       transform="translate(196.8892,-11.9326)"><path
         d="m 0,0 c -1.007,0 -1.33,-0.886 -1.33,-1.745 0,-0.819 0.376,-1.639 1.316,-1.639 0.967,0 1.384,0.751 1.384,1.625 C 1.37,-0.872 1.02,0 0,0 m 3.532,-4.579 c 0,-1.142 -0.215,-3.29 -3.478,-3.29 -1.625,0 -3.156,0.362 -3.425,2.229 l 2.283,0 c 0.054,-0.308 0.174,-0.497 0.389,-0.604 0.202,-0.108 0.484,-0.148 0.833,-0.148 1.088,0 1.196,0.766 1.196,1.625 l 0,0.658 -0.027,0 c -0.417,-0.644 -1.115,-1.02 -1.854,-1.02 -2.108,0 -3.061,1.503 -3.061,3.464 0,1.853 1.088,3.411 3.061,3.411 0.833,0 1.464,-0.362 1.867,-1.075 l 0.027,0 0,0.873 2.189,0 0,-6.123 z"
         style="fill:#000000;fill-opacity:1;fill-rule:nonzero;stroke:none"
         id="path3103"
         inkscape:connector-curvature="0" /></g><g
       id="g3105"
       transform="translate(206.6621,-13.1543)"><path
         d="M 0,0 C -0.041,0.779 -0.591,1.423 -1.357,1.423 -2.162,1.423 -2.7,0.846 -2.833,0 L 0,0 z m -2.833,-1.275 c 0.04,-0.954 0.59,-1.585 1.557,-1.585 0.55,0 1.088,0.255 1.303,0.765 l 2.135,0 c -0.416,-1.612 -1.907,-2.309 -3.465,-2.309 -2.269,0 -3.813,1.369 -3.813,3.706 0,2.135 1.705,3.666 3.759,3.666 2.498,0 3.747,-1.881 3.639,-4.243 l -5.115,0 z"
         style="fill:#000000;fill-opacity:1;fill-rule:nonzero;stroke:none"
         id="path3107"
         inkscape:connector-curvature="0" /></g><g
       id="g3109"
       transform="translate(211.856,-15.0615)"><path
         d="m 0,0 c 0,-0.349 0.147,-0.604 0.376,-0.778 0.215,-0.162 0.523,-0.243 0.846,-0.243 0.443,0 1.074,0.188 1.074,0.74 0,0.537 -0.712,0.643 -1.115,0.737 -1.436,0.363 -3.236,0.403 -3.236,2.284 0,1.679 1.813,2.135 3.182,2.135 1.531,0 3.13,-0.443 3.21,-2.257 l -2.108,0 c 0,0.296 -0.107,0.485 -0.295,0.605 -0.188,0.121 -0.444,0.174 -0.726,0.174 -0.375,0 -0.98,-0.04 -0.98,-0.523 0,-0.658 1.531,-0.779 2.578,-1.007 1.41,-0.282 1.773,-1.303 1.773,-1.881 0,-1.866 -1.773,-2.483 -3.344,-2.483 -1.652,0 -3.343,0.551 -3.41,2.497 L 0,0 z"
         style="fill:#000000;fill-opacity:1;fill-rule:nonzero;stroke:none"
         id="path3111"
         inkscape:connector-curvature="0" /></g><g
       id="g3113"
       transform="translate(224.6348,-16.1484)"><path
         d="M 0,0 C 1.088,0 1.451,0.617 1.396,2.055 1.075,1.853 0.483,1.813 -0.013,1.678 -0.524,1.557 -0.954,1.343 -0.954,0.792 -0.954,0.228 -0.51,0 0,0 m -2.954,3.611 c 0.04,0.913 0.47,1.505 1.087,1.868 0.618,0.348 1.424,0.483 2.216,0.483 1.652,0 3.25,-0.362 3.25,-2.337 l 0,-3.048 c 0,-0.591 0,-1.236 0.269,-1.786 l -2.297,0 c -0.08,0.214 -0.107,0.43 -0.134,0.658 -0.591,-0.618 -1.463,-0.859 -2.296,-0.859 -1.329,0 -2.377,0.671 -2.377,2.107 0,2.271 2.47,2.095 4.055,2.417 0.389,0.081 0.605,0.216 0.605,0.646 0,0.523 -0.632,0.724 -1.102,0.724 -0.631,0 -1.033,-0.281 -1.141,-0.873 l -2.135,0 z"
         style="fill:#000000;fill-opacity:1;fill-rule:nonzero;stroke:none"
         id="path3115"
         inkscape:connector-curvature="0" /></g><g
       id="g3117"
       transform="translate(229.8154,-10.3887)"><path
         d="m 0,0 2.215,0 0,-1.222 0.027,0 c 0.336,0.886 1.115,1.357 2.095,1.357 0.175,0 0.363,-0.014 0.538,-0.054 l 0,-2.081 c -0.296,0.08 -0.564,0.134 -0.873,0.134 -1.128,0 -1.719,-0.78 -1.719,-1.652 l 0,-3.451 L 0,-6.969 0,0 z"
         style="fill:#000000;fill-opacity:1;fill-rule:nonzero;stroke:none"
         id="path3119"
         inkscape:connector-curvature="0" /></g><g
       id="g3121"
       transform="translate(239.9917,-13.1543)"><path
         d="M 0,0 C -0.041,0.779 -0.591,1.423 -1.357,1.423 -2.162,1.423 -2.7,0.846 -2.833,0 L 0,0 z m -2.833,-1.275 c 0.04,-0.954 0.59,-1.585 1.557,-1.585 0.55,0 1.088,0.255 1.303,0.765 l 2.135,0 c -0.416,-1.612 -1.907,-2.309 -3.465,-2.309 -2.269,0 -3.814,1.369 -3.814,3.706 0,2.135 1.706,3.666 3.76,3.666 2.498,0 3.747,-1.881 3.639,-4.243 l -5.115,0 z"
         style="fill:#000000;fill-opacity:1;fill-rule:nonzero;stroke:none"
         id="path3123"
         inkscape:connector-curvature="0" /></g><g
       id="g3125"
       transform="translate(249.8433,-13.7998)"><path
         d="m 0,0 c 0,-1.222 0.349,-2.013 1.383,-2.013 1.02,0 1.37,1.06 1.37,2.013 0,0.887 -0.35,1.867 -1.357,1.867 C 0.778,1.867 0,1.438 0,0 m -2.202,3.411 2.175,0 0,-0.806 0.027,0 c 0.443,0.659 1.114,1.008 1.92,1.008 2.189,0 3.115,-1.881 3.115,-3.841 0,-1.812 -0.966,-3.531 -2.94,-3.531 -0.86,0 -1.517,0.321 -1.988,0.953 l -0.026,0 0,-3.088 -2.283,0 0,9.305 z"
         style="fill:#000000;fill-opacity:1;fill-rule:nonzero;stroke:none"
         id="path3127"
         inkscape:connector-curvature="0" /></g><g
       id="g3129"
       transform="translate(256.1782,-10.3887)"><path
         d="m 0,0 2.215,0 0,-1.222 0.027,0 c 0.336,0.886 1.115,1.357 2.095,1.357 0.175,0 0.363,-0.014 0.538,-0.054 l 0,-2.081 c -0.296,0.08 -0.564,0.134 -0.873,0.134 -1.128,0 -1.719,-0.78 -1.719,-1.652 l 0,-3.451 L 0,-6.969 0,0 z"
         style="fill:#000000;fill-opacity:1;fill-rule:nonzero;stroke:none"
         id="path3131"
         inkscape:connector-curvature="0" /></g><g
       id="g3133"
       transform="translate(264.9038,-15.8125)"><path
         d="M 0,0 C 1.061,0 1.397,1.047 1.397,1.933 1.397,2.819 1.061,3.88 0,3.88 -1.061,3.88 -1.383,2.819 -1.383,1.933 -1.383,1.047 -1.061,0 0,0 m 0,5.626 c 2.162,0 3.68,-1.599 3.68,-3.693 0,-2.095 -1.518,-3.679 -3.68,-3.679 -2.162,0 -3.666,1.584 -3.666,3.679 0,2.094 1.504,3.693 3.666,3.693"
         style="fill:#000000;fill-opacity:1;fill-rule:nonzero;stroke:none"
         id="path3135"
         inkscape:connector-curvature="0" /></g><g
       id="g3137"
       transform="translate(271.978,-13.7998)"><path
         d="m 0,0 c 0,-1.222 0.349,-2.013 1.383,-2.013 1.02,0 1.37,1.06 1.37,2.013 0,0.887 -0.35,1.867 -1.357,1.867 C 0.778,1.867 0,1.438 0,0 m -2.202,3.411 2.175,0 0,-0.806 0.027,0 c 0.443,0.659 1.114,1.008 1.92,1.008 2.189,0 3.115,-1.881 3.115,-3.841 0,-1.812 -0.966,-3.531 -2.94,-3.531 -0.86,0 -1.518,0.321 -1.988,0.953 l -0.027,0 0,-3.088 -2.282,0 0,9.305 z"
         style="fill:#000000;fill-opacity:1;fill-rule:nonzero;stroke:none"
         id="path3139"
         inkscape:connector-curvature="0" /></g><g
       id="g3141"
       transform="translate(283.0127,-13.1543)"><path
         d="M 0,0 C -0.041,0.779 -0.591,1.423 -1.356,1.423 -2.162,1.423 -2.7,0.846 -2.833,0 L 0,0 z m -2.833,-1.275 c 0.04,-0.954 0.59,-1.585 1.557,-1.585 0.55,0 1.088,0.255 1.302,0.765 l 2.136,0 c -0.416,-1.612 -1.907,-2.309 -3.465,-2.309 -2.269,0 -3.814,1.369 -3.814,3.706 0,2.135 1.706,3.666 3.761,3.666 2.497,0 3.746,-1.881 3.638,-4.243 l -5.115,0 z"
         style="fill:#000000;fill-opacity:1;fill-rule:nonzero;stroke:none"
         id="path3143"
         inkscape:connector-curvature="0" /></g><g
       id="g3145"
       transform="translate(286.5142,-10.3887)"><path
         d="m 0,0 2.216,0 0,-1.222 0.026,0 c 0.336,0.886 1.115,1.357 2.095,1.357 0.175,0 0.363,-0.014 0.538,-0.054 l 0,-2.081 c -0.296,0.08 -0.564,0.134 -0.873,0.134 -1.128,0 -1.719,-0.78 -1.719,-1.652 l 0,-3.451 L 0,-6.969 0,0 z"
         style="fill:#000000;fill-opacity:1;fill-rule:nonzero;stroke:none"
         id="path3147"
         inkscape:connector-curvature="0" /></g><g
       id="g3149"
       transform="translate(296.3555,-11.8652)"><path
         d="m 0,0 -1.41,0 0,-3.17 c 0,-0.55 0.322,-0.671 0.819,-0.671 0.188,0 0.389,0.028 0.591,0.028 l 0,-1.679 c -0.417,-0.014 -0.833,-0.068 -1.249,-0.068 -1.947,0 -2.444,0.564 -2.444,2.458 l 0,3.102 -1.155,0 0,1.477 1.155,0 0,2.108 2.283,0 0,-2.108 1.41,0 L 0,0 z"
         style="fill:#000000;fill-opacity:1;fill-rule:nonzero;stroke:none"
         id="path3151"
         inkscape:connector-curvature="0" /></g><g
       id="g3153"
       transform="translate(301.1738,-17.9746)"><path
         d="m 0,0 c -0.55,-1.531 -1.369,-1.719 -2.914,-1.719 l -1.074,0 0,1.853 0.792,0 c 0.524,0 0.914,0.296 0.914,0.779 0,0.376 -0.444,1.449 -0.578,1.825 l -1.799,4.848 2.417,0 1.316,-4.538 0.027,0 1.316,4.538 2.336,0 L 0,0 z"
         style="fill:#000000;fill-opacity:1;fill-rule:nonzero;stroke:none"
         id="path3155"
         inkscape:connector-curvature="0" /></g><g
       id="g3157"
       transform="translate(312.1406,-15.8125)"><path
         d="M 0,0 C 1.061,0 1.397,1.047 1.397,1.933 1.397,2.819 1.061,3.88 0,3.88 -1.061,3.88 -1.383,2.819 -1.383,1.933 -1.383,1.047 -1.061,0 0,0 m 0,5.626 c 2.162,0 3.679,-1.599 3.679,-3.693 0,-2.095 -1.517,-3.679 -3.679,-3.679 -2.162,0 -3.666,1.584 -3.666,3.679 0,2.094 1.504,3.693 3.666,3.693"
         style="fill:#000000;fill-opacity:1;fill-rule:nonzero;stroke:none"
         id="path3159"
         inkscape:connector-curvature="0" /></g><g
       id="g3161"
       transform="translate(317.5093,-11.8652)"><path
         d="m 0,0 -1.101,0 0,1.477 1.101,0 c 0,2.001 0.698,2.618 2.645,2.618 0.363,0 0.739,-0.027 1.101,-0.04 l 0,-1.612 C 3.531,2.471 3.33,2.484 3.128,2.484 2.605,2.484 2.283,2.417 2.283,1.786 l 0,-0.309 1.369,0 0,-1.477 -1.369,0 0,-5.492 L 0,-5.492 0,0 z"
         style="fill:#000000;fill-opacity:1;fill-rule:nonzero;stroke:none"
         id="path3163"
         inkscape:connector-curvature="0" /></g><g
       id="g3165"
       transform="translate(330.4102,-11.8652)"><path
         d="m 0,0 -1.41,0 0,-3.17 c 0,-0.55 0.323,-0.671 0.819,-0.671 0.188,0 0.39,0.028 0.591,0.028 l 0,-1.679 c -0.416,-0.014 -0.833,-0.068 -1.249,-0.068 -1.947,0 -2.443,0.564 -2.443,2.458 l 0,3.102 -1.155,0 0,1.477 1.155,0 0,2.108 2.282,0 0,-2.108 1.41,0 L 0,0 z"
         style="fill:#000000;fill-opacity:1;fill-rule:nonzero;stroke:none"
         id="path3167"
         inkscape:connector-curvature="0" /></g><g
       id="g3169"
       transform="translate(331.4297,-7.7705)"><path
         d="m 0,0 2.282,0 0,-3.571 0.027,0 c 0.349,0.712 1.289,1.155 2.122,1.155 2.323,0 2.51,-1.692 2.51,-2.7 l 0,-4.471 -2.283,0 0,3.37 c 0,0.953 0.109,1.92 -1.14,1.92 -0.86,0 -1.236,-0.724 -1.236,-1.49 l 0,-3.8 L 0,-9.587 0,0 z"
         style="fill:#000000;fill-opacity:1;fill-rule:nonzero;stroke:none"
         id="path3171"
         inkscape:connector-curvature="0" /></g><g
       id="g3173"
       transform="translate(344.667,-13.1543)"><path
         d="M 0,0 C -0.04,0.779 -0.592,1.423 -1.357,1.423 -2.163,1.423 -2.7,0.846 -2.834,0 L 0,0 z m -2.834,-1.275 c 0.04,-0.954 0.591,-1.585 1.558,-1.585 0.55,0 1.088,0.255 1.302,0.765 l 2.135,0 c -0.416,-1.612 -1.906,-2.309 -3.465,-2.309 -2.269,0 -3.812,1.369 -3.812,3.706 0,2.135 1.705,3.666 3.759,3.666 2.498,0 3.747,-1.881 3.638,-4.243 l -5.115,0 z"
         style="fill:#000000;fill-opacity:1;fill-rule:nonzero;stroke:none"
         id="path3175"
         inkscape:connector-curvature="0" /></g><g
       id="g3177"
       transform="translate(354.2637,-13.7998)"><path
         d="m 0,0 c 0,-0.953 0.349,-2.013 1.396,-2.013 1.114,0 1.356,1.06 1.356,1.947 0,1.006 -0.363,1.933 -1.356,1.933 C 0.349,1.867 0,0.887 0,0 m 4.953,-3.558 -2.174,0 0,0.806 -0.027,0 C 2.309,-3.41 1.637,-3.759 0.831,-3.759 c -2.188,0 -3.114,1.88 -3.114,3.84 0,1.814 0.967,3.532 2.939,3.532 0.86,0 1.519,-0.322 1.989,-0.954 l 0.027,0 0,3.37 2.281,0 0,-9.587 z"
         style="fill:#000000;fill-opacity:1;fill-rule:nonzero;stroke:none"
         id="path3179"
         inkscape:connector-curvature="0" /></g><g
       id="g3181"
       transform="translate(365.5527,-13.1543)"><path
         d="M 0,0 C -0.04,0.779 -0.592,1.423 -1.357,1.423 -2.162,1.423 -2.699,0.846 -2.832,0 L 0,0 z m -2.832,-1.275 c 0.039,-0.954 0.589,-1.585 1.557,-1.585 0.55,0 1.087,0.255 1.302,0.765 l 2.135,0 c -0.416,-1.612 -1.907,-2.309 -3.465,-2.309 -2.268,0 -3.812,1.369 -3.812,3.706 0,2.135 1.705,3.666 3.758,3.666 2.498,0 3.748,-1.881 3.64,-4.243 l -5.115,0 z"
         style="fill:#000000;fill-opacity:1;fill-rule:nonzero;stroke:none"
         id="path3183"
         inkscape:connector-curvature="0" /></g><g
       id="g3185"
       transform="translate(370.7471,-15.0615)"><path
         d="m 0,0 c 0,-0.349 0.147,-0.604 0.376,-0.778 0.215,-0.162 0.523,-0.243 0.846,-0.243 0.443,0 1.074,0.188 1.074,0.74 0,0.537 -0.713,0.643 -1.114,0.737 -1.438,0.363 -3.238,0.403 -3.238,2.284 0,1.679 1.814,2.135 3.184,2.135 1.53,0 3.129,-0.443 3.209,-2.257 l -2.108,0 c 0,0.296 -0.107,0.485 -0.294,0.605 -0.19,0.121 -0.446,0.174 -0.727,0.174 -0.375,0 -0.979,-0.04 -0.979,-0.523 0,-0.658 1.53,-0.779 2.578,-1.007 1.409,-0.282 1.772,-1.303 1.772,-1.881 0,-1.866 -1.772,-2.483 -3.344,-2.483 -1.652,0 -3.343,0.551 -3.41,2.497 L 0,0 z"
         style="fill:#000000;fill-opacity:1;fill-rule:nonzero;stroke:none"
         id="path3187"
         inkscape:connector-curvature="0" /></g><path
       d="m 376.519,-10.389 2.284,0 0,-6.969 -2.284,0 0,6.969 z m 2.284,0.873 -2.284,0 0,1.745 2.284,0 0,-1.745 z"
       style="fill:#000000;fill-opacity:1;fill-rule:nonzero;stroke:none"
       id="path3189"
       inkscape:connector-curvature="0" /><g
       id="g3191"
       transform="translate(383.6201,-11.9326)"><path
         d="m 0,0 c -1.007,0 -1.329,-0.886 -1.329,-1.745 0,-0.819 0.375,-1.639 1.315,-1.639 0.968,0 1.384,0.751 1.384,1.625 C 1.37,-0.872 1.021,0 0,0 m 3.532,-4.579 c 0,-1.142 -0.215,-3.29 -3.478,-3.29 -1.625,0 -3.155,0.362 -3.424,2.229 l 2.283,0 c 0.053,-0.308 0.174,-0.497 0.389,-0.604 0.202,-0.108 0.484,-0.148 0.833,-0.148 1.088,0 1.195,0.766 1.195,1.625 l 0,0.658 -0.026,0 c -0.417,-0.644 -1.116,-1.02 -1.854,-1.02 -2.109,0 -3.062,1.503 -3.062,3.464 0,1.853 1.088,3.411 3.062,3.411 0.833,0 1.463,-0.362 1.867,-1.075 l 0.026,0 0,0.873 2.189,0 0,-6.123 z"
         style="fill:#000000;fill-opacity:1;fill-rule:nonzero;stroke:none"
         id="path3193"
         inkscape:connector-curvature="0" /></g><g
       id="g3195"
       transform="translate(388.6133,-10.3887)"><path
         d="m 0,0 2.215,0 0,-0.953 0.027,0 c 0.417,0.712 1.357,1.155 2.19,1.155 2.322,0 2.511,-1.692 2.511,-2.7 l 0,-4.471 -2.284,0 0,3.37 c 0,0.953 0.108,1.92 -1.14,1.92 -0.86,0 -1.238,-0.724 -1.238,-1.49 l 0,-3.8 L 0,-6.969 0,0 z"
         style="fill:#000000;fill-opacity:1;fill-rule:nonzero;stroke:none"
         id="path3197"
         inkscape:connector-curvature="0" /></g><g
       id="g3199"
       transform="translate(401.8506,-13.1543)"><path
         d="M 0,0 C -0.04,0.779 -0.591,1.423 -1.356,1.423 -2.162,1.423 -2.7,0.846 -2.834,0 L 0,0 z m -2.834,-1.275 c 0.04,-0.954 0.591,-1.585 1.558,-1.585 0.55,0 1.088,0.255 1.302,0.765 l 2.135,0 c -0.416,-1.612 -1.906,-2.309 -3.464,-2.309 -2.27,0 -3.813,1.369 -3.813,3.706 0,2.135 1.705,3.666 3.76,3.666 2.498,0 3.746,-1.881 3.638,-4.243 l -5.116,0 z"
         style="fill:#000000;fill-opacity:1;fill-rule:nonzero;stroke:none"
         id="path3201"
         inkscape:connector-curvature="0" /></g><g
       id="g3203"
       transform="translate(405.3516,-10.3887)"><path
         d="m 0,0 2.217,0 0,-1.222 0.026,0 c 0.335,0.886 1.114,1.357 2.095,1.357 0.174,0 0.363,-0.014 0.537,-0.054 l 0,-2.081 c -0.296,0.08 -0.564,0.134 -0.872,0.134 -1.13,0 -1.719,-0.78 -1.719,-1.652 l 0,-3.451 L 0,-6.969 0,0 z"
         style="fill:#000000;fill-opacity:1;fill-rule:nonzero;stroke:none"
         id="path3205"
         inkscape:connector-curvature="0" /></g><path
       d="m 409.861,-14.859 2.498,0 0,-2.498 -2.498,0 0,2.498 z"
       style="fill:#000000;fill-opacity:1;fill-rule:nonzero;stroke:none"
       id="path3207"
       inkscape:connector-curvature="0" /><g
       id="g3209"
       transform="translate(427.624,-11.1943)"><path
         d="m 0,0 c -0.136,0.968 -0.886,1.478 -1.935,1.478 -1.609,0 -2.228,-1.424 -2.228,-2.847 0,-1.424 0.619,-2.847 2.228,-2.847 1.169,0 1.841,0.671 1.935,1.773 l 2.498,0 c -0.136,-2.471 -1.948,-3.921 -4.38,-3.921 -2.899,0 -4.779,2.216 -4.779,4.995 0,2.78 1.88,4.995 4.779,4.995 2.07,0 4.311,-1.315 4.38,-3.626 L 0,0 z"
         style="fill:#000000;fill-opacity:1;fill-rule:nonzero;stroke:none"
         id="path3211"
         inkscape:connector-curvature="0" /></g><g
       id="g3213"
       transform="translate(431.3535,-7.7705)"><path
         d="m 0,0 2.283,0 0,-3.571 0.027,0 c 0.348,0.712 1.288,1.155 2.12,1.155 2.324,0 2.511,-1.692 2.511,-2.7 l 0,-4.471 -2.281,0 0,3.37 c 0,0.953 0.108,1.92 -1.142,1.92 -0.86,0 -1.235,-0.724 -1.235,-1.49 l 0,-3.8 L 0,-9.587 0,0 z"
         style="fill:#000000;fill-opacity:1;fill-rule:nonzero;stroke:none"
         id="path3215"
         inkscape:connector-curvature="0" /></g><g
       id="g3217"
       transform="translate(444.5898,-13.1543)"><path
         d="M 0,0 C -0.039,0.779 -0.591,1.423 -1.356,1.423 -2.162,1.423 -2.698,0.846 -2.834,0 L 0,0 z m -2.834,-1.275 c 0.04,-0.954 0.592,-1.585 1.559,-1.585 0.55,0 1.086,0.255 1.302,0.765 l 2.135,0 c -0.416,-1.612 -1.906,-2.309 -3.465,-2.309 -2.267,0 -3.812,1.369 -3.812,3.706 0,2.135 1.705,3.666 3.759,3.666 2.498,0 3.745,-1.881 3.638,-4.243 l -5.116,0 z"
         style="fill:#000000;fill-opacity:1;fill-rule:nonzero;stroke:none"
         id="path3219"
         inkscape:connector-curvature="0" /></g><g
       id="g3221"
       transform="translate(452.5488,-12.9395)"><path
         d="m 0,0 c -0.014,0.591 -0.535,1.007 -1.113,1.007 -1.276,0 -1.479,-1.088 -1.479,-2.055 0,-0.899 0.391,-1.825 1.358,-1.825 0.793,0 1.194,0.456 1.301,1.194 l 2.216,0 c -0.2,-1.866 -1.651,-2.94 -3.504,-2.94 -2.093,0 -3.652,1.436 -3.652,3.571 0,2.216 1.408,3.801 3.652,3.801 C 0.512,2.753 2.057,1.84 2.217,0 L 0,0 z"
         style="fill:#000000;fill-opacity:1;fill-rule:nonzero;stroke:none"
         id="path3223"
         inkscape:connector-curvature="0" /></g><g
       id="g3225"
       transform="translate(455.9717,-7.7705)"><path
         d="m 0,0 2.283,0 0,-4.94 2.081,2.322 2.645,0 -2.551,-2.632 2.875,-4.337 -2.755,0 -1.706,2.807 -0.589,-0.578 0,-2.229 L 0,-9.587 0,0 z"
         style="fill:#000000;fill-opacity:1;fill-rule:nonzero;stroke:none"
         id="path3227"
         inkscape:connector-curvature="0" /></g><path
       d="m 468.24,-7.771 2.281,0 0,-9.587 -2.281,0 0,9.587 z"
       style="fill:#000000;fill-opacity:1;fill-rule:nonzero;stroke:none"
       id="path3229"
       inkscape:connector-curvature="0" /><path
       d="m 472.215,-10.389 2.281,0 0,-6.969 -2.281,0 0,6.969 z m 2.281,0.873 -2.281,0 0,1.745 2.281,0 0,-1.745 z"
       style="fill:#000000;fill-opacity:1;fill-rule:nonzero;stroke:none"
       id="path3231"
       inkscape:connector-curvature="0" /><g
       id="g3233"
       transform="translate(480.6455,-12.9395)"><path
         d="m 0,0 c -0.013,0.591 -0.538,1.007 -1.114,1.007 -1.277,0 -1.477,-1.088 -1.477,-2.055 0,-0.899 0.388,-1.825 1.355,-1.825 0.792,0 1.196,0.456 1.303,1.194 l 2.217,0 c -0.203,-1.866 -1.652,-2.94 -3.508,-2.94 -2.093,0 -3.651,1.436 -3.651,3.571 0,2.216 1.411,3.801 3.651,3.801 C 0.511,2.753 2.054,1.84 2.215,0 L 0,0 z"
         style="fill:#000000;fill-opacity:1;fill-rule:nonzero;stroke:none"
         id="path3235"
         inkscape:connector-curvature="0" /></g><g
       id="g3237"
       transform="translate(488.8477,-13.1543)"><path
         d="M 0,0 C -0.041,0.779 -0.592,1.423 -1.357,1.423 -2.163,1.423 -2.699,0.846 -2.835,0 L 0,0 z m -2.835,-1.275 c 0.04,-0.954 0.591,-1.585 1.558,-1.585 0.551,0 1.088,0.255 1.303,0.765 l 2.134,0 c -0.414,-1.612 -1.906,-2.309 -3.464,-2.309 -2.268,0 -3.813,1.369 -3.813,3.706 0,2.135 1.706,3.666 3.76,3.666 2.498,0 3.746,-1.881 3.638,-4.243 l -5.116,0 z"
         style="fill:#000000;fill-opacity:1;fill-rule:nonzero;stroke:none"
         id="path3239"
         inkscape:connector-curvature="0" /></g><g
       id="g3241"
       transform="translate(492.2676,-10.3887)"><path
         d="m 0,0 2.217,0 0,-0.953 0.027,0 c 0.414,0.712 1.356,1.155 2.188,1.155 2.324,0 2.511,-1.692 2.511,-2.7 l 0,-4.471 -2.283,0 0,3.37 c 0,0.953 0.108,1.92 -1.142,1.92 -0.86,0 -1.235,-0.724 -1.235,-1.49 l 0,-3.8 L 0,-6.969 0,0 z"
         style="fill:#000000;fill-opacity:1;fill-rule:nonzero;stroke:none"
         id="path3243"
         inkscape:connector-curvature="0" /></g><g
       id="g3245"
       transform="translate(502.4961,-15.0615)"><path
         d="M 0,0 C 0,-0.349 0.148,-0.604 0.377,-0.778 0.592,-0.94 0.9,-1.021 1.223,-1.021 c 0.443,0 1.074,0.188 1.074,0.74 0,0.537 -0.711,0.643 -1.113,0.737 -1.438,0.363 -3.237,0.403 -3.237,2.284 0,1.679 1.813,2.135 3.182,2.135 1.529,0 3.129,-0.443 3.209,-2.257 l -2.108,0 C 2.23,2.914 2.123,3.103 1.934,3.223 1.746,3.344 1.492,3.397 1.211,3.397 0.834,3.397 0.229,3.357 0.229,2.874 0.229,2.216 1.76,2.095 2.807,1.867 4.217,1.585 4.58,0.564 4.58,-0.014 c 0,-1.866 -1.773,-2.483 -3.344,-2.483 -1.65,0 -3.343,0.551 -3.41,2.497 L 0,0 z"
         style="fill:#000000;fill-opacity:1;fill-rule:nonzero;stroke:none"
         id="path3247"
         inkscape:connector-curvature="0" /></g><g
       id="g3249"
       transform="translate(512.9688,-13.1543)"><path
         d="M 0,0 C -0.041,0.779 -0.59,1.423 -1.355,1.423 -2.162,1.423 -2.699,0.846 -2.834,0 L 0,0 z m -2.834,-1.275 c 0.041,-0.954 0.592,-1.585 1.559,-1.585 0.548,0 1.087,0.255 1.302,0.765 l 2.135,0 c -0.416,-1.612 -1.908,-2.309 -3.465,-2.309 -2.269,0 -3.814,1.369 -3.814,3.706 0,2.135 1.705,3.666 3.762,3.666 2.498,0 3.746,-1.881 3.638,-4.243 l -5.117,0 z"
         style="fill:#000000;fill-opacity:1;fill-rule:nonzero;stroke:none"
         id="path3251"
         inkscape:connector-curvature="0" /></g><g
       id="g3253"
       transform="translate(521.1152,-11.8652)"><path
         d="m 0,0 -1.102,0 0,1.477 1.102,0 c 0,2.001 0.697,2.618 2.645,2.618 0.363,0 0.738,-0.027 1.103,-0.04 l 0,-1.612 C 3.531,2.471 3.33,2.484 3.129,2.484 2.604,2.484 2.283,2.417 2.283,1.786 l 0,-0.309 1.369,0 0,-1.477 -1.369,0 0,-5.492 L 0,-5.492 0,0 z"
         style="fill:#000000;fill-opacity:1;fill-rule:nonzero;stroke:none"
         id="path3255"
         inkscape:connector-curvature="0" /></g><g
       id="g3257"
       transform="translate(528.916,-15.8125)"><path
         d="M 0,0 C 1.061,0 1.396,1.047 1.396,1.933 1.396,2.819 1.061,3.88 0,3.88 -1.063,3.88 -1.383,2.819 -1.383,1.933 -1.383,1.047 -1.063,0 0,0 m 0,5.626 c 2.162,0 3.68,-1.599 3.68,-3.693 0,-2.095 -1.518,-3.679 -3.68,-3.679 -2.162,0 -3.666,1.584 -3.666,3.679 0,2.094 1.504,3.693 3.666,3.693"
         style="fill:#000000;fill-opacity:1;fill-rule:nonzero;stroke:none"
         id="path3259"
         inkscape:connector-curvature="0" /></g><g
       id="g3261"
       transform="translate(533.8672,-10.3887)"><path
         d="m 0,0 2.215,0 0,-1.222 0.027,0 c 0.338,0.886 1.115,1.357 2.096,1.357 0.174,0 0.361,-0.014 0.537,-0.054 l 0,-2.081 c -0.295,0.08 -0.564,0.134 -0.873,0.134 -1.129,0 -1.719,-0.78 -1.719,-1.652 l 0,-3.451 L 0,-6.969 0,0 z"
         style="fill:#000000;fill-opacity:1;fill-rule:nonzero;stroke:none"
         id="path3263"
         inkscape:connector-curvature="0" /></g><g
       id="g3265"
       transform="translate(545.9355,-13.7998)"><path
         d="m 0,0 c 0,-1.222 0.35,-2.013 1.383,-2.013 1.019,0 1.371,1.06 1.371,2.013 0,0.887 -0.352,1.867 -1.358,1.867 C 0.779,1.867 0,1.438 0,0 m -2.203,3.411 2.178,0 0,-0.806 0.025,0 c 0.443,0.659 1.115,1.008 1.92,1.008 2.187,0 3.117,-1.881 3.117,-3.841 0,-1.812 -0.969,-3.531 -2.943,-3.531 -0.86,0 -1.518,0.321 -1.987,0.953 l -0.025,0 0,-3.088 -2.285,0 0,9.305 z"
         style="fill:#000000;fill-opacity:1;fill-rule:nonzero;stroke:none"
         id="path3267"
         inkscape:connector-curvature="0" /></g><g
       id="g3269"
       transform="translate(556.9707,-13.1543)"><path
         d="M 0,0 C -0.041,0.779 -0.59,1.423 -1.355,1.423 -2.16,1.423 -2.699,0.846 -2.832,0 L 0,0 z m -2.832,-1.275 c 0.039,-0.954 0.59,-1.585 1.557,-1.585 0.55,0 1.087,0.255 1.302,0.765 l 2.135,0 c -0.416,-1.612 -1.908,-2.309 -3.463,-2.309 -2.271,0 -3.814,1.369 -3.814,3.706 0,2.135 1.705,3.666 3.76,3.666 2.498,0 3.746,-1.881 3.638,-4.243 l -5.115,0 z"
         style="fill:#000000;fill-opacity:1;fill-rule:nonzero;stroke:none"
         id="path3271"
         inkscape:connector-curvature="0" /></g><g
       id="g3273"
       transform="translate(560.4727,-10.3887)"><path
         d="m 0,0 2.215,0 0,-1.222 0.027,0 c 0.338,0.886 1.115,1.357 2.096,1.357 0.174,0 0.361,-0.014 0.537,-0.054 l 0,-2.081 c -0.295,0.08 -0.564,0.134 -0.873,0.134 -1.129,0 -1.719,-0.78 -1.719,-1.652 l 0,-3.451 L 0,-6.969 0,0 z"
         style="fill:#000000;fill-opacity:1;fill-rule:nonzero;stroke:none"
         id="path3275"
         inkscape:connector-curvature="0" /></g><g
       id="g3277"
       transform="translate(566.1113,-10.3887)"><path
         d="m 0,0 2.215,0 0,-0.953 0.027,0 c 0.416,0.699 1.154,1.155 2,1.155 0.873,0 1.653,-0.282 2.028,-1.128 0.55,0.738 1.236,1.128 2.175,1.128 2.217,0 2.459,-1.679 2.459,-3.008 l 0,-4.163 -2.285,0 0,4.096 c 0,0.752 -0.361,1.194 -0.953,1.194 -0.978,0 -1.072,-0.751 -1.072,-1.879 l 0,-3.411 -2.283,0 0,3.961 c 0,0.82 -0.243,1.329 -0.862,1.329 -0.818,0 -1.166,-0.469 -1.166,-1.892 l 0,-3.398 L 0,-6.969 0,0 z"
         style="fill:#000000;fill-opacity:1;fill-rule:nonzero;stroke:none"
         id="path3279"
         inkscape:connector-curvature="0" /></g><path
       d="m 578.621,-10.389 2.283,0 0,-6.969 -2.283,0 0,6.969 z m 2.283,0.873 -2.283,0 0,1.745 2.283,0 0,-1.745 z"
       style="fill:#000000;fill-opacity:1;fill-rule:nonzero;stroke:none"
       id="path3281"
       inkscape:connector-curvature="0" /><g
       id="g3283"
       transform="translate(586.7168,-11.8652)"><path
         d="m 0,0 -1.41,0 0,-3.17 c 0,-0.55 0.324,-0.671 0.818,-0.671 0.19,0 0.391,0.028 0.592,0.028 l 0,-1.679 c -0.414,-0.014 -0.832,-0.068 -1.248,-0.068 -1.947,0 -2.443,0.564 -2.443,2.458 l 0,3.102 -1.157,0 0,1.477 1.157,0 0,2.108 2.281,0 0,-2.108 1.41,0 L 0,0 z"
         style="fill:#000000;fill-opacity:1;fill-rule:nonzero;stroke:none"
         id="path3285"
         inkscape:connector-curvature="0" /></g><g
       id="g3287"
       transform="translate(591.9395,-11.8652)"><path
         d="m 0,0 -1.412,0 0,-3.17 c 0,-0.55 0.324,-0.671 0.82,-0.671 0.19,0 0.391,0.028 0.592,0.028 l 0,-1.679 c -0.416,-0.014 -0.834,-0.068 -1.248,-0.068 -1.949,0 -2.445,0.564 -2.445,2.458 l 0,3.102 -1.157,0 0,1.477 1.157,0 0,2.108 2.281,0 0,-2.108 L 0,1.477 0,0 z"
         style="fill:#000000;fill-opacity:1;fill-rule:nonzero;stroke:none"
         id="path3289"
         inkscape:connector-curvature="0" /></g><g
       id="g3291"
       transform="translate(597.7383,-13.1543)"><path
         d="M 0,0 C -0.041,0.779 -0.592,1.423 -1.357,1.423 -2.162,1.423 -2.699,0.846 -2.834,0 L 0,0 z m -2.834,-1.275 c 0.039,-0.954 0.592,-1.585 1.557,-1.585 0.552,0 1.088,0.255 1.304,0.765 l 2.133,0 c -0.414,-1.612 -1.906,-2.309 -3.463,-2.309 -2.269,0 -3.812,1.369 -3.812,3.706 0,2.135 1.705,3.666 3.758,3.666 2.498,0 3.746,-1.881 3.638,-4.243 l -5.115,0 z"
         style="fill:#000000;fill-opacity:1;fill-rule:nonzero;stroke:none"
         id="path3293"
         inkscape:connector-curvature="0" /></g><g
       id="g3295"
       transform="translate(603.1055,-13.7998)"><path
         d="m 0,0 c 0,-0.953 0.35,-2.013 1.396,-2.013 1.116,0 1.358,1.06 1.358,1.947 0,1.006 -0.363,1.933 -1.358,1.933 C 0.35,1.867 0,0.887 0,0 m 4.955,-3.558 -2.174,0 0,0.806 -0.027,0 C 2.311,-3.41 1.639,-3.759 0.832,-3.759 c -2.187,0 -3.113,1.88 -3.113,3.84 0,1.814 0.967,3.532 2.939,3.532 0.86,0 1.518,-0.322 1.987,-0.954 l 0.029,0 0,3.37 2.281,0 0,-9.587 z"
         style="fill:#000000;fill-opacity:1;fill-rule:nonzero;stroke:none"
         id="path3297"
         inkscape:connector-curvature="0" /></g><g
       id="g3299"
       transform="translate(620.7734,-17.3574)"><path
         d="m 0,0 -2.215,0 0,0.953 -0.027,0 c -0.43,-0.711 -1.315,-1.154 -2.121,-1.154 -2.002,0 -2.578,1.154 -2.578,2.98 l 0,4.19 2.281,0 0,-4.041 c 0,-0.927 0.404,-1.249 1.129,-1.249 0.496,0 1.248,0.322 1.248,1.557 l 0,3.733 L 0,6.969 0,0 z"
         style="fill:#000000;fill-opacity:1;fill-rule:nonzero;stroke:none"
         id="path3301"
         inkscape:connector-curvature="0" /></g><g
       id="g3303"
       transform="translate(624.0742,-15.0615)"><path
         d="m 0,0 c 0,-0.349 0.146,-0.604 0.375,-0.778 0.215,-0.162 0.523,-0.243 0.846,-0.243 0.443,0 1.074,0.188 1.074,0.74 0,0.537 -0.711,0.643 -1.113,0.737 -1.438,0.363 -3.239,0.403 -3.239,2.284 0,1.679 1.813,2.135 3.184,2.135 1.531,0 3.129,-0.443 3.211,-2.257 l -2.109,0 c 0,0.296 -0.108,0.485 -0.295,0.605 -0.188,0.121 -0.446,0.174 -0.727,0.174 -0.375,0 -0.978,-0.04 -0.978,-0.523 0,-0.658 1.531,-0.779 2.578,-1.007 1.41,-0.282 1.771,-1.303 1.771,-1.881 0,-1.866 -1.771,-2.483 -3.344,-2.483 -1.652,0 -3.343,0.551 -3.41,2.497 L 0,0 z"
         style="fill:#000000;fill-opacity:1;fill-rule:nonzero;stroke:none"
         id="path3305"
         inkscape:connector-curvature="0" /></g><g
       id="g3307"
       transform="translate(634.5449,-13.1543)"><path
         d="M 0,0 C -0.039,0.779 -0.59,1.423 -1.355,1.423 -2.162,1.423 -2.697,0.846 -2.834,0 L 0,0 z m -2.834,-1.275 c 0.041,-0.954 0.592,-1.585 1.559,-1.585 0.55,0 1.086,0.255 1.302,0.765 l 2.135,0 c -0.416,-1.612 -1.906,-2.309 -3.465,-2.309 -2.267,0 -3.812,1.369 -3.812,3.706 0,2.135 1.705,3.666 3.76,3.666 2.498,0 3.746,-1.881 3.638,-4.243 l -5.117,0 z"
         style="fill:#000000;fill-opacity:1;fill-rule:nonzero;stroke:none"
         id="path3309"
         inkscape:connector-curvature="0" /></g><path
       d="m 638.074,-14.859 2.498,0 0,-2.498 -2.498,0 0,2.498 z"
       style="fill:#000000;fill-opacity:1;fill-rule:nonzero;stroke:none"
       id="path3311"
       inkscape:connector-curvature="0" /></g></g>

<g
   id="g13587"><g
     id="text5752"
     style="font-size:18.94256401px;font-style:normal;font-variant:normal;font-weight:normal;font-stretch:normal;text-align:start;line-height:125%;letter-spacing:0px;word-spacing:0px;writing-mode:lr-tb;text-anchor:start;fill:#000000;fill-opacity:1;stroke:none;font-family:FZLanTingHeiS-UL-GB;-inkscape-font-specification:FZLanTingHeiS-UL-GB"
     transform="scale(1.0248223,-0.97577892)"><path
       id="path13529"
       style=""
       d="m 6.2895232,-32.187534 9.5452768,0 0,6.511506 c -1.7e-5,0.591955 -0.17267,1.035921 -0.517961,1.331899 -0.345323,0.295976 -0.912613,0.443965 -1.701871,0.443966 l -2.145837,-0.07399 0,-0.369972 2.145837,0.07399 c 0.739929,-1e-6 1.233224,-0.123325 1.479888,-0.369972 0.246632,-0.197319 0.369955,-0.542625 0.369972,-1.035921 l 0,-1.18391 -8.8053329,0 0,3.107764 -0.3699719,0 z m 0.3699719,0.369972 0,2.145837 8.8053329,0 0,-2.145837 z m 0,2.515809 0,2.071843 8.8053329,0 0,-2.071843 z m 4.2176799,-11.617119 0.369972,0 0,2.071842 5.845557,0 0,0.295978 -5.845557,0 0,1.923854 5.179608,0 0,0.369972 -5.179608,0 0,1.84986 6.141535,0 0,0.369972 -12.7270354,0 0,-0.369972 6.2155284,0 0,-1.84986 -5.2536013,0 0,-0.369972 5.2536013,0 0,-1.923854 -5.7715621,0 0,-0.295978 5.7715621,0 z M -1.4901161e-8,-34.555355 l 2.663798014901161,0 0,9.323293 2.071843,-2.071843 0.2959776,0.221984 -2.2938262,2.36782 c -0.098663,0.09866 -0.2466512,0.271312 -0.4439663,0.517961 l -0.2959776,-0.221983 c 0.246645,-0.345308 0.3453041,-0.542627 0.2959776,-0.591955 l 0,-9.175305 -2.293826114901161,0 z M 1.1839102,-40.326917 l 0.2959776,-0.221984 2.2938261,3.181759 -0.2959776,0.221983 z" /><path
       id="path13531"
       style=""
       d="m 25.750048,-33.889405 4.291675,0 0,8.287371 c 0.04932,1.08525 -0.419313,1.603211 -1.405894,1.553883 -0.542635,-2e-6 -0.912607,-0.02467 -1.109916,-0.074 l 0,-0.369972 c 0.197309,0.04933 0.567281,0.07399 1.109916,0.074 0.739933,0.04933 1.08524,-0.345308 1.035922,-1.183911 l 0,-2.071843 -3.551731,0 0,3.847709 -0.369972,0 z m -6.585501,-3.921703 1.923854,0 c 0.04933,-0.197306 0.123321,-0.493283 0.221983,-0.887933 0.197316,-0.591941 0.369969,-1.331884 0.517961,-2.219831 l 0.369972,0.07399 c -0.04933,0.246663 -0.123328,0.616634 -0.221983,1.109916 -0.246651,0.838616 -0.419305,1.4799 -0.517961,1.923854 l 3.255753,0 0,0.295977 -3.329747,0 c -0.34531,1.430569 -0.838606,3.181768 -1.479888,5.253602 l 2.367821,0 0,-3.773714 0.295977,0 0,3.773714 1.84986,0 0,0.295978 -1.84986,0 0,3.477736 2.367821,-0.369972 0.07399,0.369972 -2.441815,0.369972 0,4.439664 -0.295977,0 0,-4.439664 -3.255754,0.443966 -0.07399,-0.369972 3.329748,-0.443966 0,-3.477736 -2.737793,0 0,-0.295978 c 0.591953,-1.775857 1.085249,-3.527056 1.479888,-5.253602 l -1.84986,0 z m 6.955473,7.177456 0,2.589803 3.551731,0 0,-2.589803 z m 0,-2.885781 0,2.515809 3.551731,0 0,-2.515809 z m -1.405894,-1.479888 c 2.61446,-1.479877 4.661636,-3.477724 6.141535,-5.993546 l 0.369972,0.221983 -0.369972,0.517961 c 1.430544,2.121185 3.255737,3.79839 5.475585,5.031619 l -0.147989,0.369972 c -2.318507,-1.381218 -4.168364,-3.083088 -5.549579,-5.105613 -1.479899,2.219843 -3.403751,3.971042 -5.771563,5.253601 z m 9.915249,1.18391 0.369972,0 0,8.213377 c 0.09864,1.13458 -0.468648,1.65254 -1.701871,1.553883 l -1.257905,0 0,-0.369972 1.257905,0 c 0.986576,0.09866 1.430541,-0.295979 1.331899,-1.183911 z m -2.589804,0.66595 0.369972,0 0,6.289523 -0.369972,0 z m -3.847708,-3.255754 4.809635,0 0,0.369972 -4.809635,0 z" /><path
       id="path13533"
       style=""
       d="m 43.508702,-40.03094 0.147988,-0.295977 c 1.775858,1.282583 3.009096,2.885793 3.69972,4.809635 1.677194,4.390339 4.266995,8.040726 7.769411,10.95117 l -0.221983,0.221983 c -3.601075,-2.959774 -6.21554,-6.634825 -7.843406,-11.025164 -0.04934,-0.147979 -0.123333,-0.320632 -0.221983,-0.517961 -0.09867,-0.246637 -0.172663,-0.419291 -0.221983,-0.517961 -1.331907,4.932966 -4.094362,9.027318 -8.287372,12.283069 l -0.221983,-0.295977 c 4.19301,-3.206422 6.9308,-7.350104 8.213378,-12.431058 -0.493305,-1.035909 -1.430566,-2.096494 -2.811787,-3.181759 z" /><path
       id="path13535"
       style=""
       d="m 61.859309,-34.851332 5.993545,0 0,-4.069692 c -1.23325,0.04934 -2.910455,0.07401 -5.031618,0.07399 l 0,-0.369971 c 3.798368,-0.04932 7.276101,-0.22197 10.433209,-0.517961 l 0,0.369972 c -1.578563,0.197332 -3.255767,0.320656 -5.031619,0.369972 l 0,4.143686 5.993546,0 0,0.369972 -5.993546,0 0,3.847708 4.513658,0 0,6.807484 -0.369972,0 0,-1.405894 -8.657344,0 0,1.405894 -0.369972,0 0,-6.807484 4.513658,0 0,-3.847708 -5.993545,0 z m 1.849859,4.587652 0,4.661646 8.657344,0 0,-4.661646 z m -5.845556,6.289523 2.36782,-6.585501 0.369972,0.147989 -2.36782,6.511506 z m -1.035922,-11.469131 0.221983,-0.295977 3.625725,2.589804 -0.221983,0.295977 z m 1.331899,-4.513657 0.221983,-0.295978 3.107765,2.441815 -0.221983,0.295977 z" /><path
       id="path13537"
       style=""
       d="m 84.279611,-36.701192 2.589804,0 0.07399,-4.21768 0.369972,0 -0.07399,4.21768 4.661646,0 -0.221983,10.359214 c -1.7e-5,1.282569 -0.73996,1.899189 -2.219832,1.84986 -0.937275,-10e-7 -1.553895,-0.02467 -1.849859,-0.07399 l 0,-0.369972 c 0.295964,0.04933 0.912584,0.07399 1.849859,0.07399 1.233224,0.04933 1.849844,-0.443966 1.84986,-1.479888 l 0.221983,-9.989242 -4.291674,0 c -0.04934,3.551738 -0.320655,6.116874 -0.813939,7.695416 -0.443977,1.677208 -1.405903,3.305083 -2.885781,4.88363 l -0.295978,-0.221983 c 1.430549,-1.578547 2.36781,-3.157092 2.811787,-4.735641 0.493285,-1.578542 0.764597,-4.119014 0.813939,-7.621422 l -2.589804,0 z m -7.843405,10.211226 c 1.134578,-2.07184 2.145833,-4.464323 3.03377,-7.177456 l -3.625726,0 0,-0.369972 8.213378,0 0,0.369972 -4.21768,0 c -0.739948,2.269167 -1.726539,4.66165 -2.959776,7.177456 l 5.919551,-0.443967 -1.775865,-4.21768 0.369972,-0.147989 2.293826,5.54958 -0.295978,0.147988 -0.443966,-0.961927 -6.215529,0.443967 -0.443966,0.07399 -0.147989,-0.295978 z m 0.295977,-12.505052 6.585501,0 0,0.369972 -6.585501,0 z" /><path
       id="path13539"
       style=""
       d="m 95.600755,-37.219153 15.612815,0 0,0.369972 -7.62142,0 0,5.475585 6.95547,0 0,0.369972 -6.95547,0 0,5.771562 8.28737,0 0,0.369972 -16.944715,0 0,-0.369972 8.287375,0 0,-5.771562 -6.955476,0 0,-0.369972 6.955476,0 0,-5.475585 -7.621425,0 z m 6.807485,-3.477736 0.29598,-0.221983 0.074,0.07399 c 0.14798,0.246663 0.46862,0.789288 0.96193,1.627877 0.39462,0.542638 0.64127,0.91261 0.73994,1.109915 l -0.36997,0.147989 c -0.24666,-0.443953 -0.81395,-1.331885 -1.70187,-2.663798 z" /><path
       id="path13541"
       style=""
       d="m 115.20926,-39.808957 5.47559,0 0,5.771563 -5.47559,0 z m -1.55388,15.8348 c 1.03592,-1.726536 1.60321,-3.872371 1.70187,-6.437512 l 0.36997,0 c 0,0.147993 -0.0247,0.345312 -0.074,0.591955 0,0.246652 0,0.419305 0,0.517961 0.19731,2.121174 1.01125,3.403742 2.44181,3.847708 l 0,-6.141534 -4.29167,0 0,-0.369972 7.99139,0 0,0.369972 -3.32974,0 0,2.959775 2.95977,0 0,0.369972 -2.95977,0 0,2.959776 c 0.59194,0.197318 1.33189,0.295977 2.21983,0.295978 l 10.43321,0 0,0.369971 -10.43321,0 c -2.91045,0.04933 -4.63699,-1.08525 -5.17961,-3.403742 -0.24665,1.479889 -0.76461,2.885781 -1.55388,4.217681 z m 8.65734,-15.538822 8.50936,0 0,0.369972 -4.36567,0 c -0.0987,0.641298 -0.29599,1.553894 -0.59196,2.737792 l 3.69972,0 0,7.029467 -0.36997,0 0,-6.659495 -5.77156,0 0,6.659495 -0.36997,0 0,-7.029467 2.44181,0 c 0.14798,-0.443955 0.32063,-1.233227 0.51796,-2.36782 0.0493,-0.147976 0.074,-0.271299 0.074,-0.369972 l -3.77372,0 z m -6.73349,5.105613 4.73565,0 0,-2.367821 -4.73565,0 z m 4.73565,-5.031619 -4.73565,0 0,2.367821 4.73565,0 z m 5.84555,7.769411 0,-2.737792 0.36997,0 0,2.737792 c 0.14798,2.614472 -1.33191,4.612319 -4.43966,5.993546 l -0.14799,-0.295978 c 3.0091,-1.381226 4.41499,-3.280414 4.21768,-5.697568 z m 0.22199,2.367821 0.22198,-0.295978 c 0.29596,0.246652 0.96191,0.838607 1.99785,1.775866 0.98657,0.887934 1.62786,1.455223 1.92385,1.701871 l -0.29598,0.221983 c -1.62789,-1.479886 -2.91046,-2.614466 -3.8477,-3.403742 z" /><path
       id="path13543"
       style=""
       d="m 1.331899,-16.056757 14.798878,0 0,15.98278816 -0.369972,0 0,-1.55388216 -14.058934,0 0,1.55388216 -0.369972,0 z m 0.369972,0.369972 0,13.7629564 14.058934,0 0,-13.7629564 z m 1.5538822,3.773714 7.9913938,0 0,-2.663798 0.369972,0 0,2.663798 2.885782,0 0,0.369972 -2.885782,0 0,6.2155284 c 0.09865,1.4305602 -0.542637,2.0965091 -1.9238538,1.9978486 l -2.1458374,0 0.073994,-0.369972 2.071843,0 c 1.1345688,0.098661 1.6525288,-0.4439641 1.5538818,-1.6278766 l 0,-6.2155284 -0.07399,0 C 9.1999593,-8.6819762 6.4868343,-6.3634876 3.03377,-4.5876267 L 2.8857812,-4.8836042 c 3.403735,-1.7758607 6.0182008,-3.9956902 7.8434058,-6.6594948 l -7.4734338,0 z" /><path
       id="path13545"
       style=""
       d="m 23.456222,-10.285195 c 1.381222,1.2825768 2.071835,2.663804 2.071843,4.1436861 0.04932,1.7758678 -0.813945,2.6144701 -2.589804,2.5158093 -0.147993,1.7e-6 -0.394641,-0.024663 -0.739944,-0.073994 -0.345311,1.8e-6 -0.616623,1.8e-6 -0.813938,0 l 0,-0.3699719 c 0.542622,0.049332 1.060582,0.073996 1.553882,0.073994 1.578541,0.098661 2.318484,-0.6166173 2.219832,-2.1458374 -0.04934,-1.4305525 -0.764615,-2.7624502 -2.145838,-3.9956971 l 1.923855,-5.40159 -4.217681,0 0,15.39083277 -0.369972,0 0,-15.76080477 5.031619,0 0,0.369972 z m 6.363517,-6.659495 0.369972,0 0,2.441815 c -0.148,5.475592 1.874511,10.1125692 6.06754,13.91094543 l -0.221983,0.29597756 C 32.434194,-3.6503627 30.436347,-7.3747433 30.041723,-11.469105 c -0.394649,4.1436913 -2.41716,7.8927367 -6.06754,11.24714738 L 23.752199,-0.44394079 C 28.043864,-4.3409763 30.066376,-9.027283 29.819739,-14.502875 z" /><path
       id="path13547"
       style=""
       d="m 43.508702,-12.431032 5.031618,0 0,-2.293826 -4.143686,0 0,-0.369972 4.143686,0 0,-2.219832 0.369972,0 0,2.219832 4.661647,0 0,2.663798 1.627876,0 0,0.369972 -1.627876,0 0,2.5898036 -4.661647,0 0,2.2198317 5.105613,0 0,0.3699719 -5.105613,0 0,2.2938261 5.919551,0 0,0.369972 -5.919551,0 0,2.1458373 -0.369972,0 0,-2.1458373 -5.253601,0 0,-0.369972 5.253601,0 0,-2.2938261 -4.513658,0 0,-0.3699719 4.513658,0 0,-2.2198317 -4.143686,0 0,-0.2959776 4.143686,0 0,-2.293826 -5.031618,0 z m -0.517961,-2.811787 -4.069692,5.2536018 3.69972,0 0,0.369972 c -0.197324,2.1211781 -0.739949,4.0203655 -1.627877,5.6975681 1.677201,1.726536 4.267002,2.589803 7.769411,2.5898036 l 6.511507,0 0,0.36997198 -6.511507,0 c -3.502409,-9.7e-7 -6.141539,-0.88793278 -7.917399,-2.66379808 -0.542629,1.0359221 -1.430561,2.2198312 -2.663798,3.55173076 l -0.221984,-0.22198317 c 1.134579,-1.23324019 1.997846,-2.41714929 2.589804,-3.55173079 -0.986594,-1.085248 -1.701873,-2.5158048 -2.145837,-4.2916746 l 0.369972,-0.073994 c 0.443964,1.6278812 1.109913,2.9597789 1.997848,3.9956971 0.789269,-1.6772022 1.30723,-3.4777306 1.553882,-5.4015905 l -3.847708,0 0,-0.369972 4.069692,-5.2536018 -4.217681,0 0,-0.369972 4.661647,0 z m 10.211226,0.517961 -4.291675,0 0,2.293826 4.291675,0 z m -4.291675,4.957624 4.291675,0 0,-2.293826 -4.291675,0 z" /><path
       id="path13549"
       style=""
       d="m 72.292518,-9.1752789 0,0.369972 c -0.69063,2.1211773 -2.022528,3.9463704 -3.995697,5.4755849 1.529203,1.0359218 3.47772,1.9978479 5.845557,2.88578121 l -0.07399,0.36997195 C 71.40457,-1.1098911 69.382058,-2.1211468 68.000843,-3.1077389 66.767593,-2.2198059 64.720416,-1.1838854 61.859309,2.5555491e-5 L 61.71132,-0.3699464 c 2.515801,-0.9372629 4.513648,-1.9238538 5.993546,-2.9597756 -1.825205,-1.5292145 -3.033779,-3.3544076 -3.625726,-5.4755849 l -1.553882,0 0,-0.369972 z m -7.843406,0.369972 c 0.591947,2.0718477 1.775856,3.8230465 3.551731,5.2536017 1.92384,-1.4798847 3.231073,-3.2310835 3.921703,-5.2536017 z m 0.443967,-7.1774561 6.511506,0 0,3.551731 c -0.09867,0.789283 0.369956,1.159255 1.405893,1.109916 l 1.257905,0 0,0.369972 -1.257905,0 c -1.233255,0.04934 -1.825209,-0.443957 -1.775865,-1.479888 l 0,-3.181759 -5.771562,0 0,1.627877 c 0.04932,1.529228 -0.739953,2.762466 -2.367821,3.699719 l -0.221983,-0.295977 c 1.578539,-0.887923 2.318482,-2.022503 2.219832,-3.403742 z m -7.991394,5.327596 0,-0.369972 2.811786,0 0,9.2492992 2.663798,-2.5898037 0.221984,0.2959776 -2.811787,2.7377924 c -0.147993,0.1973176 -0.295981,0.36997101 -0.443967,0.51796076 l -0.295977,-0.14798878 c 0.197315,-0.34530778 0.295974,-0.54262598 0.295977,-0.59195508 l 0,-9.1013104 z m 1.109915,-5.845557 0.221984,-0.221983 2.885781,3.107765 -0.295978,0.221983 z" /><path
       id="path13551"
       style=""
       d="m 77.990088,-5.3275706 0.295977,-0.2219831 3.995697,4.4396634 -0.295977,0.22198317 z" /><path
       id="path13553"
       style=""
       d="m 95.0088,-16.27874 8.80533,0 0,0.369972 -1.3319,0 0,5.9195508 1.55389,-0.1479888 0.074,0.369972 -1.62788,0.1479888 0,1.6278766 -0.36997,0 0,-1.6278766 -7.251449,0.4439663 0,-0.3699719 1.775865,-0.073994 0,-6.2895228 -1.627876,0 z m 1.479887,9.1753041 c 4.735633,-0.1479835 9.224623,-0.419296 13.466983,-0.8139383 l 0,0.3699719 c -1.28259,0.098665 -3.40376,0.2466534 -6.36352,0.4439664 l 0,0.5919551 c 0.59194,0.9372659 1.38122,1.8005329 2.36782,2.5898037 2.26915,-0.9865889 3.74903,-1.7018673 4.43966,-2.1458374 l 0.22199,0.369972 c -1.82521,0.8879355 -3.28044,1.5538844 -4.36567,1.9978485 1.33188,0.9372631 3.25573,1.7512006 5.77156,2.4418149 l -0.074,0.36997197 c -3.94638,-1.03592147 -6.7335,-2.71312597 -8.36136,-5.03161857 l 0,5.84555686 -0.36997,0 0,-6.95547276 c -1.18392,0.049335 -2.8118,0.123329 -4.883633,0.2219832 -0.887936,0.049334 -1.504555,0.073999 -1.84986,0.073994 z m 0.517961,-8.8053321 0,1.849859 5.105612,0 0,-1.849859 z m 0,2.219831 0,1.775866 5.105612,0 0,-1.775866 z m 7.399442,-0.07399 0.22198,-0.295978 c 1.43055,0.937274 2.58979,1.751211 3.47774,2.441815 1.18389,-1.13457 2.04716,-2.367808 2.5898,-3.699719 l -6.21553,0 0,-0.369972 6.5855,0 0,0.369972 c -0.59197,1.479899 -1.4799,2.762468 -2.6638,3.847708 1.67719,1.282578 2.76244,2.0965152 3.25576,2.4418149 l -0.22199,0.2959776 c -0.39465,-0.2959705 -1.23325,-0.9125898 -2.51581,-1.8498595 -0.34532,-0.246639 -0.61663,-0.443958 -0.81393,-0.591955 -1.08527,0.93727 -2.46649,1.8498667 -4.14369,2.737792 l -0.14799,-0.2959775 c 1.82519,-0.9865841 3.15708,-1.8745155 3.9957,-2.6637985 -1.67722,-1.183899 -2.8118,-1.973172 -3.40374,-2.36782 z m -7.399442,2.219832 0,1.8498594 5.105612,-0.2959776 0,-1.5538818 z m -2.219832,10.4332087 c 2.861113,-0.8386031 5.154937,-1.7018701 6.881474,-2.5898037 l 0.22199,0.369972 c -1.77587,0.8879332 -4.119027,1.7512002 -7.029469,2.58980365 z m 0.295978,-2.6637981 c 1.874521,-0.5426231 3.749044,-1.2332367 5.623576,-2.0718429 l 0.14799,0.3699719 c -1.677215,0.7399468 -3.576402,1.4305604 -5.697572,2.071843 z" /><path
       id="path13555"
       style=""
       d="m 113.65538,-6.733464 c 3.8477,-1.2825633 6.90614,-2.9844326 9.1753,-5.105613 l 0.22199,0.295978 c -0.0987,0.147998 -0.222,0.271322 -0.36997,0.369972 2.0225,1.6772133 4.80962,3.1077701 8.36136,4.2916742 l -0.14799,0.2959776 c -1.08526,-0.2959726 -2.19518,-0.7152737 -3.32974,-1.2579047 l 0,4.1436859 -10.13724,0 0,3.18175882 c 0.14799,-0.0493309 0.86327,-0.19731958 2.14584,-0.44396634 1.72653,-0.34530778 2.61446,-0.54262598 2.6638,-0.59195508 l 0.074,0.3699719 -4.88363,1.03592147 c 0,-1.77e-6 -0.0493,0.024663 -0.14798,0.07399439 -0.0493,0.0493277 -0.12333,0.07399247164 -0.22199,0.07399439549 L 116.91113,-0.29595201 c 0.0493,-1.63e-6 0.0987,-0.0246664 0.14799,-0.0739944 l 0,-7.3254447 c -1.03592,0.4933012 -2.12117,0.9372671 -3.25575,1.3318991 z m 13.61497,-0.8879327 -9.84126,0 0,1.701871 9.84126,0 z m -9.84126,3.6257252 9.84126,0 0,-1.5538822 -9.84126,0 z m 4.36567,-5.3275962 0.29598,-0.1479887 0.88793,1.4798878 4.21768,0 c -1.97319,-0.9372553 -3.5764,-1.9238462 -4.80963,-2.9597754 -1.23325,1.0852587 -2.78713,2.0718496 -4.66165,2.9597754 l 4.80964,0 z m -7.8434,-2.6637983 c 1.38122,-1.183899 2.34315,-2.269149 2.88578,-3.255753 l 0.29598,0.221983 c -0.0493,0.09867 -0.148,0.246661 -0.29598,0.443967 -0.14799,0.24666 -0.27132,0.419313 -0.36997,0.51796 l 2.44181,0 0,-3.181758 0.36997,0 0,1.405893 3.03377,0 0,0.295978 -3.03377,0 0,1.479887 2.95978,0 0,0.369972 c -1.57856,1.874535 -4.26702,3.45308 -8.06539,4.7356413 l -0.074,-0.369972 c 3.30507,-1.0852423 5.87021,-2.5404643 7.69541,-4.3656693 l -5.62357,0 -0.29598,0.369972 2.36782,1.479888 -0.22198,0.295978 -2.44182,-1.479888 c -0.39463,0.443977 -0.88793,0.863278 -1.47988,1.257904 z m 9.61927,-1.997848 0.14799,-0.295978 c 0.14798,0.09867 0.36996,0.221995 0.66595,0.369972 0.83859,0.443978 1.50454,0.81395 1.99785,1.109916 1.28255,-0.739932 2.29381,-1.627864 3.03377,-2.663798 l -5.99355,0 0,-0.295978 6.43751,0 0,0.295978 c -0.73996,1.134593 -1.77588,2.096519 -3.10776,2.885781 0.73993,0.443977 1.77585,1.035931 3.10776,1.775866 0.39462,0.246656 0.66593,0.41931 0.81394,0.51796 l -0.14799,0.2959778 c -0.39465,-0.2466398 -1.23325,-0.7152708 -2.51581,-1.4058938 -0.73996,-0.443956 -1.28258,-0.764598 -1.62787,-0.961927 -0.6413,0.345318 -1.4799,0.715289 -2.51581,1.109916 l -0.14799,-0.295977 c 0.0493,-0.04932 0.14798,-0.09865 0.29597,-0.147989 0.69061,-0.246638 1.35656,-0.542615 1.99785,-0.887933 -0.93727,-0.493285 -1.75121,-0.961915 -2.44181,-1.405893 z m -3.25575,11.3211415 0.074,-0.369972 3.62572,1.0359215 c 1.62787,-0.4439658 3.25574,-0.9372613 4.88363,-1.4798878 l 0.074,0.2959776 c -1.43057,0.4932967 -2.86113,0.9125978 -4.29168,1.2579046 l 5.17961,1.47988781 -0.074,0.36997195 z" /><path
       id="path13557"
       style=""
       d="m 134.81778,-5.3275706 0.29598,-0.2219831 3.99569,4.4396634 -0.29598,0.22198317 z" /><path
       id="path13559"
       style=""
       d="m 159.08794,-17.240667 0.36997,0 0,3.255753 7.62142,0 0,0.369972 -7.62142,0 0,3.6997192 9.47128,0 0,0.369972 -17.38868,0 0,-0.369972 7.54743,0 z m 0,8.6573432 0.36997,0 0,8.583349355491 -0.36997,0 z m 1.2579,1.9978486 0.14799,-0.369972 c 0.29597,0.1479937 0.86326,0.4193062 1.70187,0.8139383 2.56513,1.2825724 4.193,2.1211747 4.88363,2.5158093 l -0.14798,0.2959776 c -2.41717,-1.2825668 -4.61233,-2.3678168 -6.58551,-3.2557532 z" /><path
       id="path13561"
       style=""
       d="m 173.59084,-17.166673 0.36997,0 0,3.921703 2.51581,0 0,0.369972 -2.51581,0 0,4.5136574 2.58981,-0.7399439 0.074,0.369972 -2.6638,0.8139383 0,5.9195512 c 0,0.986591 -0.59195,1.47988641 -1.77586,1.47988782 l -1.40589,-0.0739944 0,-0.29597756 1.40589,0 c 0.98659,0.0493285 1.45522,-0.32064307 1.40589,-1.10991587 l 0,-5.8455569 -2.95977,0.8879327 -0.14799,-0.3699719 3.10776,-0.8879327 0,-4.6616462 -2.81178,0 0,-0.369972 2.81178,0 z m 2.58981,15.3908332 6.43751,0 c 1.08524,-3.157091 2.04716,-6.3141819 2.88578,-9.4712822 l 0.36997,0.147989 c -1.33191,4.6369863 -2.29384,7.7447476 -2.88578,9.3232932 l 4.80964,0 0,0.2959775 -11.61712,0 z m 1.03592,-11.4691302 10.13723,0 0,0.369972 -10.13723,0 z m 1.10991,2.293826 0.36998,-0.074 1.92385,7.325445 -0.29598,0.073994 z m 2.95978,-6.141535 0.29598,-0.147988 1.2579,3.255753 -0.29598,0.07399 z" /><path
       id="path13563"
       style=""
       d="m 190.60955,-8.5833238 c 0.39464,4.2423475 2.5898,6.5361713 6.5855,6.8814784 3.99569,-0.3453071 6.19085,-2.6391309 6.58551,-6.8814784 -0.39466,-4.2916632 -2.58982,-6.6348172 -6.58551,-7.0294672 -3.9957,0.39465 -6.19086,2.737804 -6.5855,7.0294672 z m -0.36997,0 c 0.39464,-4.4889822 2.71313,-6.9554592 6.95547,-7.3994392 4.24234,0.44398 6.56083,2.910457 6.95548,7.3994392 -0.39465,4.4396657 -2.71314,6.8321486 -6.95548,7.1774559 -4.24234,-0.3453073 -6.56083,-2.7377902 -6.95547,-7.1774559 z" /><path
       id="path13565"
       style=""
       d="m 219.39337,-1.5538566 -0.29598,0.2219831 -6.73349,-8.1393829 -4.06969,3.9217027 0,4.0696914 -0.36997,0 0,-14.3549117 0.36997,0 0,9.8412539 10.28522,-9.9152479 0.29598,0.295977 -6.21553,5.9195514 z" /><path
       id="path13567"
       style=""
       d="m 223.01909,-5.3275706 0.29597,-0.2219831 3.9957,4.4396634 -0.29598,0.22198317 z" /><path
       id="path13569"
       style=""
       d="m 248.62115,-10.87715 c 2.46647,-0.14798 5.05627,-0.468622 7.76941,-0.961927 l 0.074,0.295978 c -0.83862,0.197327 -2.29384,0.443975 -4.36567,0.739944 0.14798,1.5785538 0.41929,3.0584402 0.81394,4.439663 1.23323,-0.5426206 2.46647,-1.2085694 3.69972,-1.9978486 l 0.22199,0.2959776 c -1.18393,0.7399493 -2.44183,1.4305629 -3.77372,2.0718429 0.64127,1.8251972 1.99783,3.5024017 4.06969,5.03161858 l -0.22198,0.22198317 c -3.25577,-2.17050115 -4.9823,-5.52491015 -5.17961,-10.06323665 -0.34532,0.04934 -0.86328,0.09867 -1.55388,0.147988 -0.54264,0.09867 -0.96194,0.147998 -1.2579,0.147989 l 0,9.54527648 3.62572,-1.70187098 0.22198,0.3699719 -3.69972,1.70187103 c -0.14799,0.0986578 -0.39464,0.24664639 -0.73994,0.44396634 l -0.22198,-0.29597756 c 0.24664,-0.14799011 0.41929,-0.27131397 0.51796,-0.36997195 z m -8.50936,-2.811787 6.6595,0 0,0.369972 -4.36567,0 -0.074,3.4037422 3.47774,0 -0.14799,7.2514503 c 0.0493,1.4305575 -0.56729,2.12117114 -1.84986,2.07184293 -0.14799,-1.33e-6 -0.4193,-0.0246661 -0.81394,-0.0739944 -0.39464,-1.26e-6 -0.64128,-1.26e-6 -0.73994,0 l 0,-0.36997194 c 0.0987,-9e-7 0.3453,-9e-7 0.73994,0 0.39464,0.0493286 0.66595,0.0739934 0.81394,0.0739944 1.03592,0.0986581 1.52921,-0.49329638 1.47989,-1.77586538 l 0.14799,-6.8074839 -3.10777,0 c 0,4.5876552 -0.73994,7.7447461 -2.21983,9.47128196 l -0.29597,-0.22198317 c 0.88793,-1.23324019 1.45522,-2.49114359 1.70187,-3.77371389 0.24664,-1.183907 0.39463,-3.2064183 0.44396,-6.0675401 l 0.074,-3.181759 -1.92386,0 z m 6.73349,2.441815 c 1.47988,-1.825184 2.61446,-3.82303 3.40374,-5.993545 l 0.36998,0.147988 c -0.0987,0.148004 -0.222,0.394652 -0.36998,0.739944 -0.0987,0.345321 -0.36998,0.961941 -0.81393,1.84986 l 7.62142,0 0,0.369972 -7.84341,0 c -0.59196,1.134592 -1.28258,2.170512 -2.07184,3.107764 z m -4.14368,-5.771562 0.29597,-0.147989 1.47989,3.03377 -0.29598,0.147989 z" /><path
       id="path13571"
       style=""
       d="m 262.60609,-13.614942 5.91955,0 0,0.369972 -3.9957,0 -0.074,3.3297472 3.32975,0 -0.14799,7.0294671 c 0.0493,1.4305578 -0.54264,2.12117139 -1.77587,2.07184296 l -1.47988,-0.0739944 0.074,-0.29597757 1.40589,0 c 0.98659,0.098658 1.45522,-0.4686314 1.4059,-1.701871 l 0.14799,-6.6594951 -2.95978,0 c -0.0493,2.5651439 -0.22199,4.4396666 -0.51796,5.6235737 -0.29598,1.2825701 -0.88794,2.5158087 -1.77587,3.69971948 l -0.29597,-0.22198317 c 0.88792,-1.18391051 1.47988,-2.39248441 1.77586,-3.62572511 0.24664,-1.2332365 0.39463,-3.231083 0.44397,-5.9935461 l 0.074,-3.181758 -1.55388,0 z m 12.87502,2.293826 0,0.295977 -2.73779,2.959776 0,1.1839102 3.40374,0 0,0.369972 -3.40374,0 0,4.4396634 c 0.0493,1.08525014 -0.49331,1.60321036 -1.62788,1.55388222 l -0.074,0 -1.47989,-0.0739944 0.074,-0.29597756 1.40589,0 0.074,0 c 0.93725,0.0493285 1.38122,-0.34530787 1.3319,-1.18391027 l 0,-4.4396634 -3.8477,0 0,-0.369972 3.8477,0 0,-1.331899 2.51581,-2.8117872 -5.1796,0 0,-0.295977 z m -6.95547,-0.369972 c 1.23323,-1.578536 2.17049,-3.428394 2.81179,-5.549579 l 0.36997,0.147988 c -0.29599,0.887947 -0.6413,1.775879 -1.03592,2.663798 l 5.40159,0 0,0.295978 -5.62357,0 c -0.69063,1.28258 -1.23326,2.170512 -1.62788,2.663798 z m -9.61927,11.24714721 2.44182,-6.80748391 0.36997,0.073994 -2.44182,6.8074839 z m -0.22198,-11.39513621 0.22198,-0.221983 3.18176,2.293826 -0.29598,0.2959776 z m 0.44396,-4.661647 0.22199,-0.295977 2.88578,2.293826 -0.22199,0.295978 z m 5.69757,-0.591955 0.29598,-0.147988 1.40589,3.03377 -0.29597,0.147988 z" /><path
       id="path13573"
       style=""
       d="m 279.84678,-5.3275706 0.29598,-0.2219831 3.9957,4.4396634 -0.29598,0.22198317 z" /><path
       id="path13575"
       style=""
       d="m 299.38131,-8.6573182 11.7651,0 0,3.8477084 -11.7651,0 z m 11.39513,0.369972 -11.02516,0 0,3.1077644 11.02516,0 z m -12.80103,-5.7715628 0.22199,-0.295977 3.25575,2.36782 c 1.08524,-0.986581 1.97317,-2.195154 2.6638,-3.625725 l -6.73349,0 0,-0.369972 7.17745,0 0,0.369972 c -1.13459,2.663809 -3.74905,5.056292 -7.8434,7.177456 l -0.14799,-0.2959775 c 1.92385,-1.0359137 3.45307,-2.0471695 4.58765,-3.0337705 z m -1.40589,12.7270355 9.98924,0 c 1.28256,-0.9372619 2.34314,-1.899188 3.18176,-2.8857812 l 0.29598,0.2219832 c -0.69063,0.8386043 -1.67722,1.7265361 -2.95978,2.663798 l 6.80749,0 0,0.36997198 -17.31469,0 z m 9.1753,-15.8347995 0.29598,-0.07399 c 0.44396,1.035935 0.91259,1.997861 1.40589,2.885781 0.64128,-0.345295 1.82519,-1.011243 3.55174,-1.997849 0.24663,-0.147974 0.41928,-0.246633 0.51796,-0.295977 l 0.14798,0.295977 c -1.52923,0.937276 -2.88579,1.701884 -4.06969,2.293826 0.49329,0.690626 1.06058,1.33191 1.70187,1.923854 1.87451,-0.887921 3.18175,-1.55387 3.92171,-1.997848 l 0.22198,0.295978 c -0.88795,0.542636 -2.17052,1.208585 -3.84771,1.997848 1.13457,1.03593 2.58979,1.9238622 4.36567,2.6637981 l -0.14799,0.369972 c -4.1437,-1.7758571 -6.83216,-4.5629761 -8.06539,-8.3613661 z m -3.55173,5.771562 6.06754,0 0,0.369972 -6.06754,0 z m -1.62787,7.4734339 0.22198,-0.2959776 2.51581,2.2198317 -0.22198,0.1479888 z" /><path
       id="path13577"
       style=""
       d="m 324.09543,-16.796701 0.36998,0 0,14.798878 6.43751,0 0,-11.543125 0.36997,0 0,13.1710016 -0.36997,0 0,-1.4058934 -13.61497,0 0,-11.6171192 0.36997,0 0,11.395136 6.43751,0 z" /><path
       id="path13579"
       style=""
       d="m 336.67448,-5.3275706 0.29598,-0.2219831 3.9957,4.4396634 -0.29598,0.22198317 z" /><path
       id="path13581"
       style=""
       d="m 353.39722,-0.29595201 c 2.1705,-2.07184249 3.32974,-4.78496739 3.47773,-8.13938299 l 0.29598,0 c 0,0.1973247 -0.0247,0.4439724 -0.074,0.7399439 -1e-5,0.2959831 -1e-5,0.517966 0,0.6659495 0.29597,3.5517323 2.07183,5.426255 5.32759,5.6235737 l 0,-8.9533211 -6.28952,0 0,-5.475585 12.65304,0 0,5.475585 -5.99355,0 0,4.0696913 6.95548,0 0,0.369972 -6.95548,0 0,4.5876522 c 0.24664,-6e-7 0.51795,-6e-7 0.81394,0 l 7.17746,0 0,0.36997198 -7.17746,0 c -3.89704,0.0493286 -6.14154,-1.60321118 -6.73349,-4.95762418 -0.34531,2.1211744 -1.40589,4.0696914 -3.18176,5.84555686 z m 15.02086,-15.24284399 -11.9131,0 0,4.809635 11.9131,0 z" /><path
       id="path13583"
       style=""
       d="m 383.51294,-17.240667 0.36997,0 0,3.995697 5.77156,0 0,0.369972 -5.77156,0 0,0.887932 c 0.44395,1.677215 0.98658,3.1817659 1.62787,4.5136581 1.43055,-1.5785399 2.49113,-2.7624491 3.18176,-3.5517311 l 0.29598,0.221984 c -0.98661,1.233247 -2.09652,2.4418208 -3.32975,3.6257247 0.98658,1.8251984 2.34314,3.4530733 4.06969,4.8836297 l -0.22198,0.2219832 c -2.76247,-2.1704998 -4.63699,-5.0562781 -5.62357,-8.6573436 l 0,8.5833492 c 0.0986,1.2825684 -0.59197,1.87452294 -2.07185,1.7758654 l -1.55388,0 0,-0.36997195 1.55388,0 c 1.23323,0.0986579 1.80052,-0.36997275 1.70188,-1.40589345 l 0,-4.8096354 -4.88363,3.6257252 -0.22199,-0.2959776 5.10562,-3.7737139 0,-5.4755845 -5.10562,0 0,-0.369972 5.10562,0 z m -10.95117,2.219831 5.40159,0 0,0.369972 -2.51581,0 0,5.6235739 2.29382,0 0,0.3699719 -2.29382,0 0,6.0675401 2.51581,-0.369972 0.074,0.369972 -5.54958,0.6659495 -0.074,-0.2219832 2.6638,-0.3699719 0,-6.1415345 -2.29383,0 0,-0.3699719 2.29383,0 0,-5.6235739 -2.51581,0 z m 6.21552,4.217681 0.29598,-0.221984 2.44182,3.2557535 -0.22199,0.2219832 z m 6.95548,-5.475585 0.22198,-0.221984 c 0.88792,0.789288 1.65253,1.504566 2.29383,2.145838 l -0.22199,0.295977 z" /><path
       id="path13585"
       style=""
       d="m 399.7917,-12.505026 0.36998,0 0,1.701871 6.88147,0 0,0.369971 -6.88147,0 0,2.4418154 8.50935,0 0,0.2959775 -17.31469,0 0,-0.2959775 8.43536,0 0,-2.4418154 -6.80748,0 0,-0.369971 6.80748,0 z m -8.21337,7.2514498 12.50505,0 0,-1.6278766 0.29598,0 0,1.6278766 3.99569,0 0,0.369972 -3.99569,0 0,2.2198317 c 0.0986,1.67720524 -0.78929,2.46647795 -2.6638,2.36782049 l -2.07185,-0.0739944 0.074,-0.36997195 1.99785,0.0739944 c 1.72652,0.0986578 2.51579,-0.56729104 2.36782,-1.99784854 l 0,-2.2198317 -12.50505,0 z m -0.22199,-7.1034618 c 1.38123,-1.233228 2.63913,-2.861103 3.77372,-4.883629 l 0.36997,0.147988 c -10e-6,0.04934 -0.0247,0.09868 -0.074,0.147989 -0.39464,0.690629 -0.73994,1.233254 -1.03592,1.627877 l 5.91955,0 0,0.369972 -6.21552,0 c -0.83861,1.183922 -1.67721,2.121183 -2.51581,2.811786 z m 8.58335,-0.813938 c 1.03591,-1.134568 1.94851,-2.466466 2.73779,-3.995697 l 0.29598,0.147989 c -0.29599,0.591969 -0.61663,1.159259 -0.96192,1.701871 l 6.65949,0 0,0.369972 -6.88148,0 c -0.29599,0.493308 -0.81395,1.159257 -1.55388,1.997848 z m -4.95762,9.1753045 0.22198,-0.2959776 3.10777,2.2198317 -0.22199,0.1479888 z m 8.43536,-10.0632375 0.29598,-0.221983 1.70187,1.627877 -0.29598,0.221983 z m -7.84341,-0.07399 0.22199,-0.221983 1.62787,1.701871 -0.29597,0.221983 z" /></g></g>
</g></svg>