<?xml version="1.0" encoding="UTF-8" standalone="no"?>
<!--?xml version="1.0" encoding="utf-8"?-->

<!-- Generator: Adobe Illustrator 18.1.1, SVG Export Plug-In . SVG Version: 6.00 Build 0)  -->

<svg
   xmlns:dc="http://purl.org/dc/elements/1.1/"
   xmlns:cc="http://creativecommons.org/ns#"
   xmlns:rdf="http://www.w3.org/1999/02/22-rdf-syntax-ns#"
   xmlns:svg="http://www.w3.org/2000/svg"
   xmlns="http://www.w3.org/2000/svg"
   xmlns:sodipodi="http://sodipodi.sourceforge.net/DTD/sodipodi-0.dtd"
   xmlns:inkscape="http://www.inkscape.org/namespaces/inkscape"
   version="1.1"
   id="_x32_"
   x="0px"
   y="0px"
   viewBox="0 0 512 512"
   style="width: 48px; height: 48px; opacity: 1;"
   xml:space="preserve"
   inkscape:version="0.91 r13725"
   sodipodi:docname="warning.svg"><metadata
     id="metadata8570"><rdf:RDF><cc:Work
         rdf:about=""><dc:format>image/svg+xml</dc:format><dc:type
           rdf:resource="http://purl.org/dc/dcmitype/StillImage" /><dc:title></dc:title></cc:Work></rdf:RDF></metadata><defs
     id="defs8568" /><sodipodi:namedview
     pagecolor="#ffffff"
     bordercolor="#666666"
     borderopacity="1"
     objecttolerance="10"
     gridtolerance="10"
     guidetolerance="10"
     inkscape:pageopacity="0"
     inkscape:pageshadow="2"
     inkscape:window-width="1366"
     inkscape:window-height="666"
     id="namedview8566"
     showgrid="false"
     inkscape:zoom="0.4609375"
     inkscape:cx="-58.576271"
     inkscape:cy="256"
     inkscape:window-x="0"
     inkscape:window-y="0"
     inkscape:window-maximized="1"
     inkscape:current-layer="_x32_" /><style
     type="text/css"
     id="style8560">
	.st0{fill:#4B4B4B;}
</style><path
     inkscape:connector-curvature="0"
     id="path8564"
     style="fill:#de5233;fill-opacity:1"
     d="M 256,0 C 114.615,0 0,114.612 0,256 0,397.389 114.615,512 256,512 397.384,512 512,397.389 512,256 512,114.612 397.384,0 256,0 Z m 0,350.719 c 19.793,0 36.016,16.223 36.016,36.017 0,19.785 -16.223,36.008 -36.016,36.008 -19.794,0 -36.012,-16.223 -36.012,-36.008 0,-19.794 16.218,-36.017 36.012,-36.017 z m 22.393,-71.553 c -2.922,10.463 -14.29,46.239 -22.393,46.239 -8.107,0 -19.471,-35.776 -22.384,-46.239 -9.083,-30.282 -16.554,-71.554 -16.554,-105.694 0,-40.736 11.36,-84.215 38.938,-84.215 27.579,0 38.938,43.479 38.938,84.215 0,34.14 -7.459,75.412 -16.545,105.694 z"
     class="st0" /></svg>